<?xml version="1.0" encoding="utf-8" standalone="no"?>
<!DOCTYPE svg PUBLIC "-//W3C//DTD SVG 1.1//EN"
  "http://www.w3.org/Graphics/SVG/1.1/DTD/svg11.dtd">
<svg xmlns:xlink="http://www.w3.org/1999/xlink" width="450.46pt" height="212.29375pt" viewBox="0 0 450.46 212.29375" xmlns="http://www.w3.org/2000/svg" version="1.1">
 <metadata>
  <rdf:RDF xmlns:dc="http://purl.org/dc/elements/1.1/" xmlns:cc="http://creativecommons.org/ns#" xmlns:rdf="http://www.w3.org/1999/02/22-rdf-syntax-ns#">
   <cc:Work>
    <dc:type rdf:resource="http://purl.org/dc/dcmitype/StillImage"/>
    <dc:date>2026-02-26T11:19:18.466482</dc:date>
    <dc:format>image/svg+xml</dc:format>
    <dc:creator>
     <cc:Agent>
      <dc:title>Matplotlib v3.9.2, https://matplotlib.org/</dc:title>
     </cc:Agent>
    </dc:creator>
   </cc:Work>
  </rdf:RDF>
 </metadata>
 <defs>
  <style type="text/css">*{stroke-linejoin: round; stroke-linecap: butt}</style>
 </defs>
 <g id="figure_1">
  <g id="patch_1">
   <path d="M 0 212.29375 
L 450.46 212.29375 
L 450.46 0 
L 0 0 
z
" style="fill: #ffffff"/>
  </g>
  <g id="axes_1">
   <g id="patch_2">
    <path d="M 41.5 179.27 
L 153.1 179.27 
L 153.1 12.95 
L 41.5 12.95 
z
" style="fill: #ffffff"/>
   </g>
   <g id="PathCollection_1">
    <defs>
     <path id="m0bd87ed1b4" d="M 0 2.236068 
C 0.593012 2.236068 1.161816 2.000462 1.581139 1.581139 
C 2.000462 1.161816 2.236068 0.593012 2.236068 0 
C 2.236068 -0.593012 2.000462 -1.161816 1.581139 -1.581139 
C 1.161816 -2.000462 0.593012 -2.236068 0 -2.236068 
C -0.593012 -2.236068 -1.161816 -2.000462 -1.581139 -1.581139 
C -2.000462 -1.161816 -2.236068 -0.593012 -2.236068 0 
C -2.236068 0.593012 -2.000462 1.161816 -1.581139 1.581139 
C -1.161816 2.000462 -0.593012 2.236068 0 2.236068 
z
" style="stroke: #28aeed"/>
    </defs>
    <g clip-path="url(#pc9c6f23e02)">
     <use xlink:href="#m0bd87ed1b4" x="97.218129" y="45.405312" style="fill: #28aeed; stroke: #28aeed"/>
     <use xlink:href="#m0bd87ed1b4" x="78.918269" y="155.747825" style="fill: #28aeed; stroke: #28aeed"/>
     <use xlink:href="#m0bd87ed1b4" x="141.241853" y="57.089955" style="fill: #28aeed; stroke: #28aeed"/>
     <use xlink:href="#m0bd87ed1b4" x="148.027273" y="27.570062" style="fill: #28aeed; stroke: #28aeed"/>
     <use xlink:href="#m0bd87ed1b4" x="78.36588" y="108.228029" style="fill: #28aeed; stroke: #28aeed"/>
     <use xlink:href="#m0bd87ed1b4" x="69.303246" y="114.781076" style="fill: #28aeed; stroke: #28aeed"/>
     <use xlink:href="#m0bd87ed1b4" x="83.96579" y="139.788359" style="fill: #28aeed; stroke: #28aeed"/>
     <use xlink:href="#m0bd87ed1b4" x="101.168327" y="97.69958" style="fill: #28aeed; stroke: #28aeed"/>
     <use xlink:href="#m0bd87ed1b4" x="120.680973" y="85.112893" style="fill: #28aeed; stroke: #28aeed"/>
     <use xlink:href="#m0bd87ed1b4" x="66.797351" y="152.020078" style="fill: #28aeed; stroke: #28aeed"/>
     <use xlink:href="#m0bd87ed1b4" x="131.179176" y="35.542167" style="fill: #28aeed; stroke: #28aeed"/>
     <use xlink:href="#m0bd87ed1b4" x="73.145537" y="114.673123" style="fill: #28aeed; stroke: #28aeed"/>
     <use xlink:href="#m0bd87ed1b4" x="79.73045" y="124.303002" style="fill: #28aeed; stroke: #28aeed"/>
     <use xlink:href="#m0bd87ed1b4" x="46.572727" y="63.161755" style="fill: #28aeed; stroke: #28aeed"/>
     <use xlink:href="#m0bd87ed1b4" x="82.727864" y="39.739776" style="fill: #28aeed; stroke: #28aeed"/>
     <use xlink:href="#m0bd87ed1b4" x="121.989801" y="55.454579" style="fill: #28aeed; stroke: #28aeed"/>
     <use xlink:href="#m0bd87ed1b4" x="48.661012" y="150.448826" style="fill: #28aeed; stroke: #28aeed"/>
     <use xlink:href="#m0bd87ed1b4" x="102.485504" y="137.790268" style="fill: #28aeed; stroke: #28aeed"/>
     <use xlink:href="#m0bd87ed1b4" x="99.578947" y="84.088839" style="fill: #28aeed; stroke: #28aeed"/>
    </g>
   </g>
   <g id="PolyCollection_1">
    <path d="M 46.572727 101.968965 
L 46.572727 171.71 
L 47.597521 170.310769 
L 48.622314 168.911538 
L 49.647107 167.512307 
L 50.671901 166.113077 
L 51.696694 164.713846 
L 52.721488 163.314615 
L 53.746281 161.915384 
L 54.771074 160.516153 
L 55.795868 159.116922 
L 56.820661 157.714866 
L 57.845455 156.311946 
L 58.870248 154.893426 
L 59.895041 153.5109 
L 60.919835 152.11323 
L 61.944628 150.715561 
L 62.969421 149.317891 
L 63.994215 147.976075 
L 65.019008 146.636059 
L 66.043802 145.339221 
L 67.068595 144.012947 
L 68.093388 142.624058 
L 69.118182 141.28527 
L 70.142975 139.946481 
L 71.167769 138.643449 
L 72.192562 137.268903 
L 73.217355 135.930115 
L 74.242149 134.591326 
L 75.266942 133.263548 
L 76.291736 131.920986 
L 77.316529 130.5871 
L 78.341322 129.246048 
L 79.366116 127.904996 
L 80.390909 126.563944 
L 81.415702 125.125233 
L 82.440496 123.734847 
L 83.465289 122.563288 
L 84.490083 121.216621 
L 85.514876 120.047137 
L 86.539669 118.886816 
L 87.564463 117.726496 
L 88.589256 116.566175 
L 89.61405 115.430428 
L 90.638843 114.178327 
L 91.663636 113.147359 
L 92.68843 111.922636 
L 93.713223 110.764572 
L 94.738017 109.604252 
L 95.76281 108.425053 
L 96.787603 107.239631 
L 97.812397 106.226771 
L 98.83719 105.295004 
L 99.861983 104.281601 
L 100.886777 103.232967 
L 101.91157 101.829041 
L 102.936364 100.779554 
L 103.961157 99.670203 
L 104.98595 98.779254 
L 106.010744 98.126573 
L 107.035537 97.449785 
L 108.060331 96.538735 
L 109.085124 95.730813 
L 110.109917 95.522272 
L 111.134711 94.937414 
L 112.159504 94.531112 
L 113.184298 93.931842 
L 114.209091 93.435668 
L 115.233884 93.034076 
L 116.258678 92.625244 
L 117.283471 92.225819 
L 118.308264 91.827974 
L 119.333058 91.427706 
L 120.357851 91.144031 
L 121.382645 90.700598 
L 122.407438 90.246739 
L 123.432231 89.796395 
L 124.457025 89.283512 
L 125.481818 88.652484 
L 126.506612 88.021054 
L 127.531405 87.38795 
L 128.556198 86.754845 
L 129.580992 86.40468 
L 130.605785 86.099563 
L 131.630579 85.771243 
L 132.655372 85.244788 
L 133.680165 84.718333 
L 134.704959 84.190806 
L 135.729752 83.660603 
L 136.754545 83.134797 
L 137.779339 82.743163 
L 138.804132 82.351529 
L 139.828926 81.959894 
L 140.853719 81.56826 
L 141.878512 81.176626 
L 142.903306 80.784992 
L 143.928099 80.393357 
L 144.952893 80.001723 
L 145.977686 79.610089 
L 147.002479 79.218455 
L 148.027273 78.82682 
L 148.027273 20.51 
L 148.027273 20.51 
L 147.002479 21.853489 
L 145.977686 22.987891 
L 144.952893 24.342032 
L 143.928099 25.697657 
L 142.903306 27.054893 
L 141.878512 28.427395 
L 140.853719 29.962918 
L 139.828926 31.465724 
L 138.804132 32.750093 
L 137.779339 34.085944 
L 136.754545 35.532201 
L 135.729752 36.808661 
L 134.704959 37.912302 
L 133.680165 39.01119 
L 132.655372 40.105821 
L 131.630579 41.436926 
L 130.605785 42.771454 
L 129.580992 44.136825 
L 128.556198 45.528327 
L 127.531405 46.773796 
L 126.506612 48.217696 
L 125.481818 49.489058 
L 124.457025 50.597998 
L 123.432231 51.490997 
L 122.407438 52.78377 
L 121.382645 54.148947 
L 120.357851 55.388454 
L 119.333058 56.262733 
L 118.308264 57.13293 
L 117.283471 57.948668 
L 116.258678 58.906571 
L 115.233884 60.106877 
L 114.209091 61.286534 
L 113.184298 62.234813 
L 112.159504 63.284795 
L 111.134711 63.93976 
L 110.109917 64.829535 
L 109.085124 65.786631 
L 108.060331 66.681411 
L 107.035537 67.759021 
L 106.010744 68.47415 
L 104.98595 69.463043 
L 103.961157 70.447739 
L 102.936364 71.353576 
L 101.91157 72.239562 
L 100.886777 73.290447 
L 99.861983 73.880891 
L 98.83719 74.45052 
L 97.812397 75.449528 
L 96.787603 76.224028 
L 95.76281 76.920355 
L 94.738017 77.619091 
L 93.713223 78.232344 
L 92.68843 79.315179 
L 91.663636 80.090019 
L 90.638843 80.758529 
L 89.61405 81.455632 
L 88.589256 81.931682 
L 87.564463 82.504903 
L 86.539669 83.110331 
L 85.514876 83.699078 
L 84.490083 84.230276 
L 83.465289 84.765751 
L 82.440496 85.301797 
L 81.415702 85.81226 
L 80.390909 86.356778 
L 79.366116 86.886143 
L 78.341322 87.415508 
L 77.316529 87.968165 
L 76.291736 88.500621 
L 75.266942 89.050692 
L 74.242149 89.626447 
L 73.217355 90.16279 
L 72.192562 90.630939 
L 71.167769 91.1629 
L 70.142975 91.696519 
L 69.118182 92.258637 
L 68.093388 92.894311 
L 67.068595 93.435673 
L 66.043802 93.808656 
L 65.019008 94.301697 
L 63.994215 94.776366 
L 62.969421 95.30166 
L 61.944628 95.827069 
L 60.919835 96.347485 
L 59.895041 96.849255 
L 58.870248 97.170837 
L 57.845455 97.494058 
L 56.820661 97.811056 
L 55.795868 98.242372 
L 54.771074 98.869682 
L 53.746281 99.498975 
L 52.721488 100.061845 
L 51.696694 100.414726 
L 50.671901 100.767606 
L 49.647107 101.120487 
L 48.622314 101.446357 
L 47.597521 101.713366 
L 46.572727 101.968965 
z
" clip-path="url(#pc9c6f23e02)" style="fill-opacity: 0.15"/>
   </g>
   <g id="matplotlib.axis_1">
    <g id="xtick_1">
     <g id="line2d_1">
      <defs>
       <path id="mcdc124160c" d="M 0 0 
L 0 3.5 
" style="stroke: #000000; stroke-width: 0.8"/>
      </defs>
      <g>
       <use xlink:href="#mcdc124160c" x="67.693843" y="179.27" style="stroke: #000000; stroke-width: 0.8"/>
      </g>
     </g>
     <g id="text_1">
      <!-- 40 -->
      <g transform="translate(63.245093 191.99625) scale(0.08 -0.08)">
       <defs>
        <path id="ArialMT-34" d="M 2069 0 
L 2069 1097 
L 81 1097 
L 81 1613 
L 2172 4581 
L 2631 4581 
L 2631 1613 
L 3250 1613 
L 3250 1097 
L 2631 1097 
L 2631 0 
L 2069 0 
z
M 2069 1613 
L 2069 3678 
L 634 1613 
L 2069 1613 
z
" transform="scale(0.015625)"/>
        <path id="ArialMT-30" d="M 266 2259 
Q 266 3072 433 3567 
Q 600 4063 929 4331 
Q 1259 4600 1759 4600 
Q 2128 4600 2406 4451 
Q 2684 4303 2865 4023 
Q 3047 3744 3150 3342 
Q 3253 2941 3253 2259 
Q 3253 1453 3087 958 
Q 2922 463 2592 192 
Q 2263 -78 1759 -78 
Q 1097 -78 719 397 
Q 266 969 266 2259 
z
M 844 2259 
Q 844 1131 1108 757 
Q 1372 384 1759 384 
Q 2147 384 2411 759 
Q 2675 1134 2675 2259 
Q 2675 3391 2411 3762 
Q 2147 4134 1753 4134 
Q 1366 4134 1134 3806 
Q 844 3388 844 2259 
z
" transform="scale(0.015625)"/>
       </defs>
       <use xlink:href="#ArialMT-34"/>
       <use xlink:href="#ArialMT-30" x="55.615234"/>
      </g>
     </g>
    </g>
    <g id="xtick_2">
     <g id="line2d_2">
      <g>
       <use xlink:href="#mcdc124160c" x="98.944688" y="179.27" style="stroke: #000000; stroke-width: 0.8"/>
      </g>
     </g>
     <g id="text_2">
      <!-- 60 -->
      <g transform="translate(94.495938 191.99625) scale(0.08 -0.08)">
       <defs>
        <path id="ArialMT-36" d="M 3184 3459 
L 2625 3416 
Q 2550 3747 2413 3897 
Q 2184 4138 1850 4138 
Q 1581 4138 1378 3988 
Q 1113 3794 959 3422 
Q 806 3050 800 2363 
Q 1003 2672 1297 2822 
Q 1591 2972 1913 2972 
Q 2475 2972 2870 2558 
Q 3266 2144 3266 1488 
Q 3266 1056 3080 686 
Q 2894 316 2569 119 
Q 2244 -78 1831 -78 
Q 1128 -78 684 439 
Q 241 956 241 2144 
Q 241 3472 731 4075 
Q 1159 4600 1884 4600 
Q 2425 4600 2770 4297 
Q 3116 3994 3184 3459 
z
M 888 1484 
Q 888 1194 1011 928 
Q 1134 663 1356 523 
Q 1578 384 1822 384 
Q 2178 384 2434 671 
Q 2691 959 2691 1453 
Q 2691 1928 2437 2201 
Q 2184 2475 1800 2475 
Q 1419 2475 1153 2201 
Q 888 1928 888 1484 
z
" transform="scale(0.015625)"/>
       </defs>
       <use xlink:href="#ArialMT-36"/>
       <use xlink:href="#ArialMT-30" x="55.615234"/>
      </g>
     </g>
    </g>
    <g id="xtick_3">
     <g id="line2d_3">
      <g>
       <use xlink:href="#mcdc124160c" x="130.195532" y="179.27" style="stroke: #000000; stroke-width: 0.8"/>
      </g>
     </g>
     <g id="text_3">
      <!-- 80 -->
      <g transform="translate(125.746782 191.99625) scale(0.08 -0.08)">
       <defs>
        <path id="ArialMT-38" d="M 1131 2484 
Q 781 2613 612 2850 
Q 444 3088 444 3419 
Q 444 3919 803 4259 
Q 1163 4600 1759 4600 
Q 2359 4600 2725 4251 
Q 3091 3903 3091 3403 
Q 3091 3084 2923 2848 
Q 2756 2613 2416 2484 
Q 2838 2347 3058 2040 
Q 3278 1734 3278 1309 
Q 3278 722 2862 322 
Q 2447 -78 1769 -78 
Q 1091 -78 675 323 
Q 259 725 259 1325 
Q 259 1772 486 2073 
Q 713 2375 1131 2484 
z
M 1019 3438 
Q 1019 3113 1228 2906 
Q 1438 2700 1772 2700 
Q 2097 2700 2305 2904 
Q 2513 3109 2513 3406 
Q 2513 3716 2298 3927 
Q 2084 4138 1766 4138 
Q 1444 4138 1231 3931 
Q 1019 3725 1019 3438 
z
M 838 1322 
Q 838 1081 952 856 
Q 1066 631 1291 507 
Q 1516 384 1775 384 
Q 2178 384 2440 643 
Q 2703 903 2703 1303 
Q 2703 1709 2433 1975 
Q 2163 2241 1756 2241 
Q 1359 2241 1098 1978 
Q 838 1716 838 1322 
z
" transform="scale(0.015625)"/>
       </defs>
       <use xlink:href="#ArialMT-38"/>
       <use xlink:href="#ArialMT-30" x="55.615234"/>
      </g>
     </g>
    </g>
    <g id="text_4">
     <!-- Knee Extension Moment (Nm) -->
     <g transform="translate(43.726875 203.41) scale(0.08 -0.08)">
      <defs>
       <path id="ArialMT-4b" d="M 469 0 
L 469 4581 
L 1075 4581 
L 1075 2309 
L 3350 4581 
L 4172 4581 
L 2250 2725 
L 4256 0 
L 3456 0 
L 1825 2319 
L 1075 1588 
L 1075 0 
L 469 0 
z
" transform="scale(0.015625)"/>
       <path id="ArialMT-6e" d="M 422 0 
L 422 3319 
L 928 3319 
L 928 2847 
Q 1294 3394 1984 3394 
Q 2284 3394 2536 3286 
Q 2788 3178 2913 3003 
Q 3038 2828 3088 2588 
Q 3119 2431 3119 2041 
L 3119 0 
L 2556 0 
L 2556 2019 
Q 2556 2363 2490 2533 
Q 2425 2703 2258 2804 
Q 2091 2906 1866 2906 
Q 1506 2906 1245 2678 
Q 984 2450 984 1813 
L 984 0 
L 422 0 
z
" transform="scale(0.015625)"/>
       <path id="ArialMT-65" d="M 2694 1069 
L 3275 997 
Q 3138 488 2766 206 
Q 2394 -75 1816 -75 
Q 1088 -75 661 373 
Q 234 822 234 1631 
Q 234 2469 665 2931 
Q 1097 3394 1784 3394 
Q 2450 3394 2872 2941 
Q 3294 2488 3294 1666 
Q 3294 1616 3291 1516 
L 816 1516 
Q 847 969 1125 678 
Q 1403 388 1819 388 
Q 2128 388 2347 550 
Q 2566 713 2694 1069 
z
M 847 1978 
L 2700 1978 
Q 2663 2397 2488 2606 
Q 2219 2931 1791 2931 
Q 1403 2931 1139 2672 
Q 875 2413 847 1978 
z
" transform="scale(0.015625)"/>
       <path id="ArialMT-20" transform="scale(0.015625)"/>
       <path id="ArialMT-45" d="M 506 0 
L 506 4581 
L 3819 4581 
L 3819 4041 
L 1113 4041 
L 1113 2638 
L 3647 2638 
L 3647 2100 
L 1113 2100 
L 1113 541 
L 3925 541 
L 3925 0 
L 506 0 
z
" transform="scale(0.015625)"/>
       <path id="ArialMT-78" d="M 47 0 
L 1259 1725 
L 138 3319 
L 841 3319 
L 1350 2541 
Q 1494 2319 1581 2169 
Q 1719 2375 1834 2534 
L 2394 3319 
L 3066 3319 
L 1919 1756 
L 3153 0 
L 2463 0 
L 1781 1031 
L 1600 1309 
L 728 0 
L 47 0 
z
" transform="scale(0.015625)"/>
       <path id="ArialMT-74" d="M 1650 503 
L 1731 6 
Q 1494 -44 1306 -44 
Q 1000 -44 831 53 
Q 663 150 594 308 
Q 525 466 525 972 
L 525 2881 
L 113 2881 
L 113 3319 
L 525 3319 
L 525 4141 
L 1084 4478 
L 1084 3319 
L 1650 3319 
L 1650 2881 
L 1084 2881 
L 1084 941 
Q 1084 700 1114 631 
Q 1144 563 1211 522 
Q 1278 481 1403 481 
Q 1497 481 1650 503 
z
" transform="scale(0.015625)"/>
       <path id="ArialMT-73" d="M 197 991 
L 753 1078 
Q 800 744 1014 566 
Q 1228 388 1613 388 
Q 2000 388 2187 545 
Q 2375 703 2375 916 
Q 2375 1106 2209 1216 
Q 2094 1291 1634 1406 
Q 1016 1563 777 1677 
Q 538 1791 414 1992 
Q 291 2194 291 2438 
Q 291 2659 392 2848 
Q 494 3038 669 3163 
Q 800 3259 1026 3326 
Q 1253 3394 1513 3394 
Q 1903 3394 2198 3281 
Q 2494 3169 2634 2976 
Q 2775 2784 2828 2463 
L 2278 2388 
Q 2241 2644 2061 2787 
Q 1881 2931 1553 2931 
Q 1166 2931 1000 2803 
Q 834 2675 834 2503 
Q 834 2394 903 2306 
Q 972 2216 1119 2156 
Q 1203 2125 1616 2013 
Q 2213 1853 2448 1751 
Q 2684 1650 2818 1456 
Q 2953 1263 2953 975 
Q 2953 694 2789 445 
Q 2625 197 2315 61 
Q 2006 -75 1616 -75 
Q 969 -75 630 194 
Q 291 463 197 991 
z
" transform="scale(0.015625)"/>
       <path id="ArialMT-69" d="M 425 3934 
L 425 4581 
L 988 4581 
L 988 3934 
L 425 3934 
z
M 425 0 
L 425 3319 
L 988 3319 
L 988 0 
L 425 0 
z
" transform="scale(0.015625)"/>
       <path id="ArialMT-6f" d="M 213 1659 
Q 213 2581 725 3025 
Q 1153 3394 1769 3394 
Q 2453 3394 2887 2945 
Q 3322 2497 3322 1706 
Q 3322 1066 3130 698 
Q 2938 331 2570 128 
Q 2203 -75 1769 -75 
Q 1072 -75 642 372 
Q 213 819 213 1659 
z
M 791 1659 
Q 791 1022 1069 705 
Q 1347 388 1769 388 
Q 2188 388 2466 706 
Q 2744 1025 2744 1678 
Q 2744 2294 2464 2611 
Q 2184 2928 1769 2928 
Q 1347 2928 1069 2612 
Q 791 2297 791 1659 
z
" transform="scale(0.015625)"/>
       <path id="ArialMT-4d" d="M 475 0 
L 475 4581 
L 1388 4581 
L 2472 1338 
Q 2622 884 2691 659 
Q 2769 909 2934 1394 
L 4031 4581 
L 4847 4581 
L 4847 0 
L 4263 0 
L 4263 3834 
L 2931 0 
L 2384 0 
L 1059 3900 
L 1059 0 
L 475 0 
z
" transform="scale(0.015625)"/>
       <path id="ArialMT-6d" d="M 422 0 
L 422 3319 
L 925 3319 
L 925 2853 
Q 1081 3097 1340 3245 
Q 1600 3394 1931 3394 
Q 2300 3394 2536 3241 
Q 2772 3088 2869 2813 
Q 3263 3394 3894 3394 
Q 4388 3394 4653 3120 
Q 4919 2847 4919 2278 
L 4919 0 
L 4359 0 
L 4359 2091 
Q 4359 2428 4304 2576 
Q 4250 2725 4106 2815 
Q 3963 2906 3769 2906 
Q 3419 2906 3187 2673 
Q 2956 2441 2956 1928 
L 2956 0 
L 2394 0 
L 2394 2156 
Q 2394 2531 2256 2718 
Q 2119 2906 1806 2906 
Q 1569 2906 1367 2781 
Q 1166 2656 1075 2415 
Q 984 2175 984 1722 
L 984 0 
L 422 0 
z
" transform="scale(0.015625)"/>
       <path id="ArialMT-28" d="M 1497 -1347 
Q 1031 -759 709 28 
Q 388 816 388 1659 
Q 388 2403 628 3084 
Q 909 3875 1497 4659 
L 1900 4659 
Q 1522 4009 1400 3731 
Q 1209 3300 1100 2831 
Q 966 2247 966 1656 
Q 966 153 1900 -1347 
L 1497 -1347 
z
" transform="scale(0.015625)"/>
       <path id="ArialMT-4e" d="M 488 0 
L 488 4581 
L 1109 4581 
L 3516 984 
L 3516 4581 
L 4097 4581 
L 4097 0 
L 3475 0 
L 1069 3600 
L 1069 0 
L 488 0 
z
" transform="scale(0.015625)"/>
       <path id="ArialMT-29" d="M 791 -1347 
L 388 -1347 
Q 1322 153 1322 1656 
Q 1322 2244 1188 2822 
Q 1081 3291 891 3722 
Q 769 4003 388 4659 
L 791 4659 
Q 1378 3875 1659 3084 
Q 1900 2403 1900 1659 
Q 1900 816 1576 28 
Q 1253 -759 791 -1347 
z
" transform="scale(0.015625)"/>
      </defs>
      <use xlink:href="#ArialMT-4b"/>
      <use xlink:href="#ArialMT-6e" x="66.699219"/>
      <use xlink:href="#ArialMT-65" x="122.314453"/>
      <use xlink:href="#ArialMT-65" x="177.929688"/>
      <use xlink:href="#ArialMT-20" x="233.544922"/>
      <use xlink:href="#ArialMT-45" x="261.328125"/>
      <use xlink:href="#ArialMT-78" x="328.027344"/>
      <use xlink:href="#ArialMT-74" x="378.027344"/>
      <use xlink:href="#ArialMT-65" x="405.810547"/>
      <use xlink:href="#ArialMT-6e" x="461.425781"/>
      <use xlink:href="#ArialMT-73" x="517.041016"/>
      <use xlink:href="#ArialMT-69" x="567.041016"/>
      <use xlink:href="#ArialMT-6f" x="589.257812"/>
      <use xlink:href="#ArialMT-6e" x="644.873047"/>
      <use xlink:href="#ArialMT-20" x="700.488281"/>
      <use xlink:href="#ArialMT-4d" x="728.271484"/>
      <use xlink:href="#ArialMT-6f" x="811.572266"/>
      <use xlink:href="#ArialMT-6d" x="867.1875"/>
      <use xlink:href="#ArialMT-65" x="950.488281"/>
      <use xlink:href="#ArialMT-6e" x="1006.103516"/>
      <use xlink:href="#ArialMT-74" x="1061.71875"/>
      <use xlink:href="#ArialMT-20" x="1089.501953"/>
      <use xlink:href="#ArialMT-28" x="1117.285156"/>
      <use xlink:href="#ArialMT-4e" x="1150.585938"/>
      <use xlink:href="#ArialMT-6d" x="1222.802734"/>
      <use xlink:href="#ArialMT-29" x="1306.103516"/>
     </g>
    </g>
   </g>
   <g id="matplotlib.axis_2">
    <g id="ytick_1">
     <g id="line2d_4">
      <defs>
       <path id="mcf24bc246a" d="M 0 0 
L -3.5 0 
" style="stroke: #000000; stroke-width: 0.8"/>
      </defs>
      <g>
       <use xlink:href="#mcf24bc246a" x="41.5" y="178.100624" style="stroke: #000000; stroke-width: 0.8"/>
      </g>
     </g>
     <g id="text_5">
      <!-- −2.0 -->
      <g transform="translate(18.7075 180.963749) scale(0.08 -0.08)">
       <defs>
        <path id="ArialMT-2212" d="M 3381 1997 
L 356 1997 
L 356 2522 
L 3381 2522 
L 3381 1997 
z
" transform="scale(0.015625)"/>
        <path id="ArialMT-32" d="M 3222 541 
L 3222 0 
L 194 0 
Q 188 203 259 391 
Q 375 700 629 1000 
Q 884 1300 1366 1694 
Q 2113 2306 2375 2664 
Q 2638 3022 2638 3341 
Q 2638 3675 2398 3904 
Q 2159 4134 1775 4134 
Q 1369 4134 1125 3890 
Q 881 3647 878 3216 
L 300 3275 
Q 359 3922 746 4261 
Q 1134 4600 1788 4600 
Q 2447 4600 2831 4234 
Q 3216 3869 3216 3328 
Q 3216 3053 3103 2787 
Q 2991 2522 2730 2228 
Q 2469 1934 1863 1422 
Q 1356 997 1212 845 
Q 1069 694 975 541 
L 3222 541 
z
" transform="scale(0.015625)"/>
        <path id="ArialMT-2e" d="M 581 0 
L 581 641 
L 1222 641 
L 1222 0 
L 581 0 
z
" transform="scale(0.015625)"/>
       </defs>
       <use xlink:href="#ArialMT-2212"/>
       <use xlink:href="#ArialMT-32" x="58.398438"/>
       <use xlink:href="#ArialMT-2e" x="114.013672"/>
       <use xlink:href="#ArialMT-30" x="141.796875"/>
      </g>
     </g>
    </g>
    <g id="ytick_2">
     <g id="line2d_5">
      <g>
       <use xlink:href="#mcf24bc246a" x="41.5" y="157.110277" style="stroke: #000000; stroke-width: 0.8"/>
      </g>
     </g>
     <g id="text_6">
      <!-- −1.5 -->
      <g transform="translate(18.7075 159.973402) scale(0.08 -0.08)">
       <defs>
        <path id="ArialMT-31" d="M 2384 0 
L 1822 0 
L 1822 3584 
Q 1619 3391 1289 3197 
Q 959 3003 697 2906 
L 697 3450 
Q 1169 3672 1522 3987 
Q 1875 4303 2022 4600 
L 2384 4600 
L 2384 0 
z
" transform="scale(0.015625)"/>
        <path id="ArialMT-35" d="M 266 1200 
L 856 1250 
Q 922 819 1161 601 
Q 1400 384 1738 384 
Q 2144 384 2425 690 
Q 2706 997 2706 1503 
Q 2706 1984 2436 2262 
Q 2166 2541 1728 2541 
Q 1456 2541 1237 2417 
Q 1019 2294 894 2097 
L 366 2166 
L 809 4519 
L 3088 4519 
L 3088 3981 
L 1259 3981 
L 1013 2750 
Q 1425 3038 1878 3038 
Q 2478 3038 2890 2622 
Q 3303 2206 3303 1553 
Q 3303 931 2941 478 
Q 2500 -78 1738 -78 
Q 1113 -78 717 272 
Q 322 622 266 1200 
z
" transform="scale(0.015625)"/>
       </defs>
       <use xlink:href="#ArialMT-2212"/>
       <use xlink:href="#ArialMT-31" x="58.398438"/>
       <use xlink:href="#ArialMT-2e" x="114.013672"/>
       <use xlink:href="#ArialMT-35" x="141.796875"/>
      </g>
     </g>
    </g>
    <g id="ytick_3">
     <g id="line2d_6">
      <g>
       <use xlink:href="#mcf24bc246a" x="41.5" y="136.11993" style="stroke: #000000; stroke-width: 0.8"/>
      </g>
     </g>
     <g id="text_7">
      <!-- −1.0 -->
      <g transform="translate(18.7075 138.983055) scale(0.08 -0.08)">
       <use xlink:href="#ArialMT-2212"/>
       <use xlink:href="#ArialMT-31" x="58.398438"/>
       <use xlink:href="#ArialMT-2e" x="114.013672"/>
       <use xlink:href="#ArialMT-30" x="141.796875"/>
      </g>
     </g>
    </g>
    <g id="ytick_4">
     <g id="line2d_7">
      <g>
       <use xlink:href="#mcf24bc246a" x="41.5" y="115.129584" style="stroke: #000000; stroke-width: 0.8"/>
      </g>
     </g>
     <g id="text_8">
      <!-- −0.5 -->
      <g transform="translate(18.7075 117.992709) scale(0.08 -0.08)">
       <use xlink:href="#ArialMT-2212"/>
       <use xlink:href="#ArialMT-30" x="58.398438"/>
       <use xlink:href="#ArialMT-2e" x="114.013672"/>
       <use xlink:href="#ArialMT-35" x="141.796875"/>
      </g>
     </g>
    </g>
    <g id="ytick_5">
     <g id="line2d_8">
      <g>
       <use xlink:href="#mcf24bc246a" x="41.5" y="94.139237" style="stroke: #000000; stroke-width: 0.8"/>
      </g>
     </g>
     <g id="text_9">
      <!-- 0.0 -->
      <g transform="translate(23.38 97.002362) scale(0.08 -0.08)">
       <use xlink:href="#ArialMT-30"/>
       <use xlink:href="#ArialMT-2e" x="55.615234"/>
       <use xlink:href="#ArialMT-30" x="83.398438"/>
      </g>
     </g>
    </g>
    <g id="ytick_6">
     <g id="line2d_9">
      <g>
       <use xlink:href="#mcf24bc246a" x="41.5" y="73.14889" style="stroke: #000000; stroke-width: 0.8"/>
      </g>
     </g>
     <g id="text_10">
      <!-- 0.5 -->
      <g transform="translate(23.38 76.012015) scale(0.08 -0.08)">
       <use xlink:href="#ArialMT-30"/>
       <use xlink:href="#ArialMT-2e" x="55.615234"/>
       <use xlink:href="#ArialMT-35" x="83.398438"/>
      </g>
     </g>
    </g>
    <g id="ytick_7">
     <g id="line2d_10">
      <g>
       <use xlink:href="#mcf24bc246a" x="41.5" y="52.158544" style="stroke: #000000; stroke-width: 0.8"/>
      </g>
     </g>
     <g id="text_11">
      <!-- 1.0 -->
      <g transform="translate(23.38 55.021669) scale(0.08 -0.08)">
       <use xlink:href="#ArialMT-31"/>
       <use xlink:href="#ArialMT-2e" x="55.615234"/>
       <use xlink:href="#ArialMT-30" x="83.398438"/>
      </g>
     </g>
    </g>
    <g id="ytick_8">
     <g id="line2d_11">
      <g>
       <use xlink:href="#mcf24bc246a" x="41.5" y="31.168197" style="stroke: #000000; stroke-width: 0.8"/>
      </g>
     </g>
     <g id="text_12">
      <!-- 1.5 -->
      <g transform="translate(23.38 34.031322) scale(0.08 -0.08)">
       <use xlink:href="#ArialMT-31"/>
       <use xlink:href="#ArialMT-2e" x="55.615234"/>
       <use xlink:href="#ArialMT-35" x="83.398438"/>
      </g>
     </g>
    </g>
    <g id="text_13">
     <!-- Contractile Volume (Standardized) -->
     <g transform="translate(13.02375 157.026875) rotate(-90) scale(0.08 -0.08)">
      <defs>
       <path id="ArialMT-43" d="M 3763 1606 
L 4369 1453 
Q 4178 706 3683 314 
Q 3188 -78 2472 -78 
Q 1731 -78 1267 223 
Q 803 525 561 1097 
Q 319 1669 319 2325 
Q 319 3041 592 3573 
Q 866 4106 1370 4382 
Q 1875 4659 2481 4659 
Q 3169 4659 3637 4309 
Q 4106 3959 4291 3325 
L 3694 3184 
Q 3534 3684 3231 3912 
Q 2928 4141 2469 4141 
Q 1941 4141 1586 3887 
Q 1231 3634 1087 3207 
Q 944 2781 944 2328 
Q 944 1744 1114 1308 
Q 1284 872 1643 656 
Q 2003 441 2422 441 
Q 2931 441 3284 734 
Q 3638 1028 3763 1606 
z
" transform="scale(0.015625)"/>
       <path id="ArialMT-72" d="M 416 0 
L 416 3319 
L 922 3319 
L 922 2816 
Q 1116 3169 1280 3281 
Q 1444 3394 1641 3394 
Q 1925 3394 2219 3213 
L 2025 2691 
Q 1819 2813 1613 2813 
Q 1428 2813 1281 2702 
Q 1134 2591 1072 2394 
Q 978 2094 978 1738 
L 978 0 
L 416 0 
z
" transform="scale(0.015625)"/>
       <path id="ArialMT-61" d="M 2588 409 
Q 2275 144 1986 34 
Q 1697 -75 1366 -75 
Q 819 -75 525 192 
Q 231 459 231 875 
Q 231 1119 342 1320 
Q 453 1522 633 1644 
Q 813 1766 1038 1828 
Q 1203 1872 1538 1913 
Q 2219 1994 2541 2106 
Q 2544 2222 2544 2253 
Q 2544 2597 2384 2738 
Q 2169 2928 1744 2928 
Q 1347 2928 1158 2789 
Q 969 2650 878 2297 
L 328 2372 
Q 403 2725 575 2942 
Q 747 3159 1072 3276 
Q 1397 3394 1825 3394 
Q 2250 3394 2515 3294 
Q 2781 3194 2906 3042 
Q 3031 2891 3081 2659 
Q 3109 2516 3109 2141 
L 3109 1391 
Q 3109 606 3145 398 
Q 3181 191 3288 0 
L 2700 0 
Q 2613 175 2588 409 
z
M 2541 1666 
Q 2234 1541 1622 1453 
Q 1275 1403 1131 1340 
Q 988 1278 909 1158 
Q 831 1038 831 891 
Q 831 666 1001 516 
Q 1172 366 1500 366 
Q 1825 366 2078 508 
Q 2331 650 2450 897 
Q 2541 1088 2541 1459 
L 2541 1666 
z
" transform="scale(0.015625)"/>
       <path id="ArialMT-63" d="M 2588 1216 
L 3141 1144 
Q 3050 572 2676 248 
Q 2303 -75 1759 -75 
Q 1078 -75 664 370 
Q 250 816 250 1647 
Q 250 2184 428 2587 
Q 606 2991 970 3192 
Q 1334 3394 1763 3394 
Q 2303 3394 2647 3120 
Q 2991 2847 3088 2344 
L 2541 2259 
Q 2463 2594 2264 2762 
Q 2066 2931 1784 2931 
Q 1359 2931 1093 2626 
Q 828 2322 828 1663 
Q 828 994 1084 691 
Q 1341 388 1753 388 
Q 2084 388 2306 591 
Q 2528 794 2588 1216 
z
" transform="scale(0.015625)"/>
       <path id="ArialMT-6c" d="M 409 0 
L 409 4581 
L 972 4581 
L 972 0 
L 409 0 
z
" transform="scale(0.015625)"/>
       <path id="ArialMT-56" d="M 1803 0 
L 28 4581 
L 684 4581 
L 1875 1253 
Q 2019 853 2116 503 
Q 2222 878 2363 1253 
L 3600 4581 
L 4219 4581 
L 2425 0 
L 1803 0 
z
" transform="scale(0.015625)"/>
       <path id="ArialMT-75" d="M 2597 0 
L 2597 488 
Q 2209 -75 1544 -75 
Q 1250 -75 995 37 
Q 741 150 617 320 
Q 494 491 444 738 
Q 409 903 409 1263 
L 409 3319 
L 972 3319 
L 972 1478 
Q 972 1038 1006 884 
Q 1059 663 1231 536 
Q 1403 409 1656 409 
Q 1909 409 2131 539 
Q 2353 669 2445 892 
Q 2538 1116 2538 1541 
L 2538 3319 
L 3100 3319 
L 3100 0 
L 2597 0 
z
" transform="scale(0.015625)"/>
       <path id="ArialMT-53" d="M 288 1472 
L 859 1522 
Q 900 1178 1048 958 
Q 1197 738 1509 602 
Q 1822 466 2213 466 
Q 2559 466 2825 569 
Q 3091 672 3220 851 
Q 3350 1031 3350 1244 
Q 3350 1459 3225 1620 
Q 3100 1781 2813 1891 
Q 2628 1963 1997 2114 
Q 1366 2266 1113 2400 
Q 784 2572 623 2826 
Q 463 3081 463 3397 
Q 463 3744 659 4045 
Q 856 4347 1234 4503 
Q 1613 4659 2075 4659 
Q 2584 4659 2973 4495 
Q 3363 4331 3572 4012 
Q 3781 3694 3797 3291 
L 3216 3247 
Q 3169 3681 2898 3903 
Q 2628 4125 2100 4125 
Q 1550 4125 1298 3923 
Q 1047 3722 1047 3438 
Q 1047 3191 1225 3031 
Q 1400 2872 2139 2705 
Q 2878 2538 3153 2413 
Q 3553 2228 3743 1945 
Q 3934 1663 3934 1294 
Q 3934 928 3725 604 
Q 3516 281 3123 101 
Q 2731 -78 2241 -78 
Q 1619 -78 1198 103 
Q 778 284 539 648 
Q 300 1013 288 1472 
z
" transform="scale(0.015625)"/>
       <path id="ArialMT-64" d="M 2575 0 
L 2575 419 
Q 2259 -75 1647 -75 
Q 1250 -75 917 144 
Q 584 363 401 755 
Q 219 1147 219 1656 
Q 219 2153 384 2558 
Q 550 2963 881 3178 
Q 1213 3394 1622 3394 
Q 1922 3394 2156 3267 
Q 2391 3141 2538 2938 
L 2538 4581 
L 3097 4581 
L 3097 0 
L 2575 0 
z
M 797 1656 
Q 797 1019 1065 703 
Q 1334 388 1700 388 
Q 2069 388 2326 689 
Q 2584 991 2584 1609 
Q 2584 2291 2321 2609 
Q 2059 2928 1675 2928 
Q 1300 2928 1048 2622 
Q 797 2316 797 1656 
z
" transform="scale(0.015625)"/>
       <path id="ArialMT-7a" d="M 125 0 
L 125 456 
L 2238 2881 
Q 1878 2863 1603 2863 
L 250 2863 
L 250 3319 
L 2963 3319 
L 2963 2947 
L 1166 841 
L 819 456 
Q 1197 484 1528 484 
L 3063 484 
L 3063 0 
L 125 0 
z
" transform="scale(0.015625)"/>
      </defs>
      <use xlink:href="#ArialMT-43"/>
      <use xlink:href="#ArialMT-6f" x="72.216797"/>
      <use xlink:href="#ArialMT-6e" x="127.832031"/>
      <use xlink:href="#ArialMT-74" x="183.447266"/>
      <use xlink:href="#ArialMT-72" x="211.230469"/>
      <use xlink:href="#ArialMT-61" x="244.53125"/>
      <use xlink:href="#ArialMT-63" x="300.146484"/>
      <use xlink:href="#ArialMT-74" x="350.146484"/>
      <use xlink:href="#ArialMT-69" x="377.929688"/>
      <use xlink:href="#ArialMT-6c" x="400.146484"/>
      <use xlink:href="#ArialMT-65" x="422.363281"/>
      <use xlink:href="#ArialMT-20" x="477.978516"/>
      <use xlink:href="#ArialMT-56" x="505.761719"/>
      <use xlink:href="#ArialMT-6f" x="566.960938"/>
      <use xlink:href="#ArialMT-6c" x="622.576172"/>
      <use xlink:href="#ArialMT-75" x="644.792969"/>
      <use xlink:href="#ArialMT-6d" x="700.408203"/>
      <use xlink:href="#ArialMT-65" x="783.708984"/>
      <use xlink:href="#ArialMT-20" x="839.324219"/>
      <use xlink:href="#ArialMT-28" x="867.107422"/>
      <use xlink:href="#ArialMT-53" x="900.408203"/>
      <use xlink:href="#ArialMT-74" x="967.107422"/>
      <use xlink:href="#ArialMT-61" x="994.890625"/>
      <use xlink:href="#ArialMT-6e" x="1050.505859"/>
      <use xlink:href="#ArialMT-64" x="1106.121094"/>
      <use xlink:href="#ArialMT-61" x="1161.736328"/>
      <use xlink:href="#ArialMT-72" x="1217.351562"/>
      <use xlink:href="#ArialMT-64" x="1250.652344"/>
      <use xlink:href="#ArialMT-69" x="1306.267578"/>
      <use xlink:href="#ArialMT-7a" x="1328.484375"/>
      <use xlink:href="#ArialMT-65" x="1378.484375"/>
      <use xlink:href="#ArialMT-64" x="1434.099609"/>
      <use xlink:href="#ArialMT-29" x="1489.714844"/>
     </g>
    </g>
   </g>
   <g id="line2d_12">
    <path d="M 46.572727 136.238564 
L 47.597521 135.314288 
L 48.622314 134.390011 
L 49.647107 133.465734 
L 50.671901 132.541457 
L 51.696694 131.617181 
L 52.721488 130.692904 
L 53.746281 129.768627 
L 54.771074 128.84435 
L 55.795868 127.920074 
L 56.820661 126.995797 
L 57.845455 126.07152 
L 58.870248 125.147243 
L 59.895041 124.222967 
L 60.919835 123.29869 
L 61.944628 122.374413 
L 62.969421 121.450136 
L 63.994215 120.52586 
L 65.019008 119.601583 
L 66.043802 118.677306 
L 67.068595 117.753029 
L 68.093388 116.828753 
L 69.118182 115.904476 
L 70.142975 114.980199 
L 71.167769 114.055922 
L 72.192562 113.131646 
L 73.217355 112.207369 
L 74.242149 111.283092 
L 75.266942 110.358815 
L 76.291736 109.434539 
L 77.316529 108.510262 
L 78.341322 107.585985 
L 79.366116 106.661708 
L 80.390909 105.737432 
L 81.415702 104.813155 
L 82.440496 103.888878 
L 83.465289 102.964601 
L 84.490083 102.040325 
L 85.514876 101.116048 
L 86.539669 100.191771 
L 87.564463 99.267494 
L 88.589256 98.343218 
L 89.61405 97.418941 
L 90.638843 96.494664 
L 91.663636 95.570387 
L 92.68843 94.646111 
L 93.713223 93.721834 
L 94.738017 92.797557 
L 95.76281 91.87328 
L 96.787603 90.949004 
L 97.812397 90.024727 
L 98.83719 89.10045 
L 99.861983 88.176173 
L 100.886777 87.251897 
L 101.91157 86.32762 
L 102.936364 85.403343 
L 103.961157 84.479066 
L 104.98595 83.55479 
L 106.010744 82.630513 
L 107.035537 81.706236 
L 108.060331 80.781959 
L 109.085124 79.857683 
L 110.109917 78.933406 
L 111.134711 78.009129 
L 112.159504 77.084852 
L 113.184298 76.160576 
L 114.209091 75.236299 
L 115.233884 74.312022 
L 116.258678 73.387745 
L 117.283471 72.463469 
L 118.308264 71.539192 
L 119.333058 70.614915 
L 120.357851 69.690638 
L 121.382645 68.766362 
L 122.407438 67.842085 
L 123.432231 66.917808 
L 124.457025 65.993531 
L 125.481818 65.069255 
L 126.506612 64.144978 
L 127.531405 63.220701 
L 128.556198 62.296424 
L 129.580992 61.372148 
L 130.605785 60.447871 
L 131.630579 59.523594 
L 132.655372 58.599317 
L 133.680165 57.675041 
L 134.704959 56.750764 
L 135.729752 55.826487 
L 136.754545 54.90221 
L 137.779339 53.977934 
L 138.804132 53.053657 
L 139.828926 52.12938 
L 140.853719 51.205103 
L 141.878512 50.280827 
L 142.903306 49.35655 
L 143.928099 48.432273 
L 144.952893 47.507996 
L 145.977686 46.58372 
L 147.002479 45.659443 
L 148.027273 44.735166 
" clip-path="url(#pc9c6f23e02)" style="fill: none; stroke: #000000; stroke-width: 2; stroke-linecap: square"/>
   </g>
   <g id="patch_3">
    <path d="M 41.5 179.27 
L 41.5 12.95 
" style="fill: none; stroke: #000000; stroke-width: 0.8; stroke-linejoin: miter; stroke-linecap: square"/>
   </g>
   <g id="patch_4">
    <path d="M 41.5 179.27 
L 153.1 179.27 
" style="fill: none; stroke: #000000; stroke-width: 0.8; stroke-linejoin: miter; stroke-linecap: square"/>
   </g>
   <g id="text_14">
    <!-- r=0.61, p=.006 -->
    <g transform="translate(71.28 12.95) scale(0.08 -0.08)">
     <defs>
      <path id="ArialMT-3d" d="M 3381 2694 
L 356 2694 
L 356 3219 
L 3381 3219 
L 3381 2694 
z
M 3381 1303 
L 356 1303 
L 356 1828 
L 3381 1828 
L 3381 1303 
z
" transform="scale(0.015625)"/>
      <path id="ArialMT-2c" d="M 569 0 
L 569 641 
L 1209 641 
L 1209 0 
Q 1209 -353 1084 -570 
Q 959 -788 688 -906 
L 531 -666 
Q 709 -588 793 -436 
Q 878 -284 888 0 
L 569 0 
z
" transform="scale(0.015625)"/>
      <path id="ArialMT-70" d="M 422 -1272 
L 422 3319 
L 934 3319 
L 934 2888 
Q 1116 3141 1344 3267 
Q 1572 3394 1897 3394 
Q 2322 3394 2647 3175 
Q 2972 2956 3137 2557 
Q 3303 2159 3303 1684 
Q 3303 1175 3120 767 
Q 2938 359 2589 142 
Q 2241 -75 1856 -75 
Q 1575 -75 1351 44 
Q 1128 163 984 344 
L 984 -1272 
L 422 -1272 
z
M 931 1641 
Q 931 1000 1190 694 
Q 1450 388 1819 388 
Q 2194 388 2461 705 
Q 2728 1022 2728 1688 
Q 2728 2322 2467 2637 
Q 2206 2953 1844 2953 
Q 1484 2953 1207 2617 
Q 931 2281 931 1641 
z
" transform="scale(0.015625)"/>
     </defs>
     <use xlink:href="#ArialMT-72"/>
     <use xlink:href="#ArialMT-3d" x="33.300781"/>
     <use xlink:href="#ArialMT-30" x="91.699219"/>
     <use xlink:href="#ArialMT-2e" x="147.314453"/>
     <use xlink:href="#ArialMT-36" x="175.097656"/>
     <use xlink:href="#ArialMT-31" x="230.712891"/>
     <use xlink:href="#ArialMT-2c" x="286.328125"/>
     <use xlink:href="#ArialMT-20" x="314.111328"/>
     <use xlink:href="#ArialMT-70" x="341.894531"/>
     <use xlink:href="#ArialMT-3d" x="397.509766"/>
     <use xlink:href="#ArialMT-2e" x="455.908203"/>
     <use xlink:href="#ArialMT-30" x="483.691406"/>
     <use xlink:href="#ArialMT-30" x="539.306641"/>
     <use xlink:href="#ArialMT-36" x="594.921875"/>
    </g>
   </g>
  </g>
  <g id="axes_2">
   <g id="patch_5">
    <path d="M 186.58 179.27 
L 298.18 179.27 
L 298.18 12.95 
L 186.58 12.95 
z
" style="fill: #ffffff"/>
   </g>
   <g id="PathCollection_2">
    <g clip-path="url(#pabbb241248)">
     <use xlink:href="#m0bd87ed1b4" x="293.107273" y="66.884926" style="fill: #28aeed; stroke: #28aeed"/>
     <use xlink:href="#m0bd87ed1b4" x="193.674541" y="167.159784" style="fill: #28aeed; stroke: #28aeed"/>
     <use xlink:href="#m0bd87ed1b4" x="196.832637" y="77.503461" style="fill: #28aeed; stroke: #28aeed"/>
     <use xlink:href="#m0bd87ed1b4" x="259.642745" y="50.676964" style="fill: #28aeed; stroke: #28aeed"/>
     <use xlink:href="#m0bd87ed1b4" x="229.549049" y="123.975696" style="fill: #28aeed; stroke: #28aeed"/>
     <use xlink:href="#m0bd87ed1b4" x="241.504738" y="129.930843" style="fill: #28aeed; stroke: #28aeed"/>
     <use xlink:href="#m0bd87ed1b4" x="207.995822" y="152.656461" style="fill: #28aeed; stroke: #28aeed"/>
     <use xlink:href="#m0bd87ed1b4" x="224.035515" y="114.407863" style="fill: #28aeed; stroke: #28aeed"/>
     <use xlink:href="#m0bd87ed1b4" x="252.657417" y="102.969586" style="fill: #28aeed; stroke: #28aeed"/>
     <use xlink:href="#m0bd87ed1b4" x="191.652727" y="163.772157" style="fill: #28aeed; stroke: #28aeed"/>
     <use xlink:href="#m0bd87ed1b4" x="256.710135" y="57.921694" style="fill: #28aeed; stroke: #28aeed"/>
     <use xlink:href="#m0bd87ed1b4" x="221.449043" y="129.83274" style="fill: #28aeed; stroke: #28aeed"/>
     <use xlink:href="#m0bd87ed1b4" x="214.418263" y="138.583988" style="fill: #28aeed; stroke: #28aeed"/>
     <use xlink:href="#m0bd87ed1b4" x="237.63111" y="83.02127" style="fill: #28aeed; stroke: #28aeed"/>
     <use xlink:href="#m0bd87ed1b4" x="222.291839" y="61.736313" style="fill: #28aeed; stroke: #28aeed"/>
     <use xlink:href="#m0bd87ed1b4" x="265.800742" y="76.017297" style="fill: #28aeed; stroke: #28aeed"/>
     <use xlink:href="#m0bd87ed1b4" x="199.047825" y="162.344266" style="fill: #28aeed; stroke: #28aeed"/>
     <use xlink:href="#m0bd87ed1b4" x="221.944284" y="150.840676" style="fill: #28aeed; stroke: #28aeed"/>
     <use xlink:href="#m0bd87ed1b4" x="260.383306" y="102.038967" style="fill: #28aeed; stroke: #28aeed"/>
    </g>
   </g>
   <g id="PolyCollection_2">
    <path d="M 191.652727 120.977814 
L 191.652727 171.71 
L 192.677521 170.418571 
L 193.702314 169.12269 
L 194.727107 167.820356 
L 195.751901 166.447888 
L 196.776694 165.139023 
L 197.801488 163.651159 
L 198.826281 162.193568 
L 199.851074 160.9343 
L 200.875868 159.674649 
L 201.900661 158.4115 
L 202.925455 156.989695 
L 203.950248 155.571922 
L 204.975041 154.406589 
L 205.999835 153.234159 
L 207.024628 151.913002 
L 208.049421 150.763214 
L 209.074215 149.295048 
L 210.099008 148.060798 
L 211.123802 146.660984 
L 212.148595 145.437761 
L 213.173388 144.357837 
L 214.198182 143.271972 
L 215.222975 141.996498 
L 216.247769 140.705565 
L 217.272562 139.411771 
L 218.297355 138.120065 
L 219.322149 136.831075 
L 220.346942 135.712205 
L 221.371736 134.518882 
L 222.396529 133.394238 
L 223.421322 132.246937 
L 224.446116 130.840801 
L 225.470909 129.71943 
L 226.495702 128.687054 
L 227.520496 127.535204 
L 228.545289 126.35699 
L 229.570083 125.359171 
L 230.594876 124.299062 
L 231.619669 123.359104 
L 232.644463 122.239219 
L 233.669256 121.209294 
L 234.69405 120.322693 
L 235.718843 119.198247 
L 236.743636 117.982404 
L 237.76843 116.769949 
L 238.793223 115.70022 
L 239.818017 114.986589 
L 240.84281 114.034494 
L 241.867603 112.931422 
L 242.892397 111.884215 
L 243.91719 110.948353 
L 244.941983 109.947012 
L 245.966777 108.963976 
L 246.99157 108.062961 
L 248.016364 107.352454 
L 249.041157 106.529009 
L 250.06595 105.450724 
L 251.090744 104.394197 
L 252.115537 103.453365 
L 253.140331 102.566757 
L 254.165124 101.614599 
L 255.189917 101.090383 
L 256.214711 100.566249 
L 257.239504 99.657786 
L 258.264298 98.791023 
L 259.289091 98.099336 
L 260.313884 97.12324 
L 261.338678 96.065103 
L 262.363471 95.208757 
L 263.388264 94.255469 
L 264.413058 93.516537 
L 265.437851 93.110543 
L 266.462645 92.304118 
L 267.487438 91.288939 
L 268.512231 90.273761 
L 269.537025 89.387485 
L 270.561818 88.868634 
L 271.586612 88.326639 
L 272.611405 87.652523 
L 273.636198 86.98151 
L 274.660992 86.453692 
L 275.685785 85.925874 
L 276.710579 85.398055 
L 277.735372 84.870237 
L 278.760165 84.342419 
L 279.784959 83.814601 
L 280.809752 83.286146 
L 281.834545 82.754187 
L 282.859339 82.173219 
L 283.884132 81.5697 
L 284.908926 81.087244 
L 285.933719 80.564761 
L 286.958512 80.112398 
L 287.983306 79.585717 
L 289.008099 79.059036 
L 290.032893 78.532355 
L 291.057686 78.005673 
L 292.082479 77.478992 
L 293.107273 76.952311 
L 293.107273 20.51 
L 293.107273 20.51 
L 292.082479 22.034491 
L 291.057686 23.556106 
L 290.032893 24.999397 
L 289.008099 26.422532 
L 287.983306 27.763665 
L 286.958512 29.104798 
L 285.933719 30.445931 
L 284.908926 31.787064 
L 283.884132 33.128197 
L 282.859339 34.469329 
L 281.834545 35.810462 
L 280.809752 37.202839 
L 279.784959 38.654285 
L 278.760165 40.105964 
L 277.735372 41.557642 
L 276.710579 42.913046 
L 275.685785 44.132267 
L 274.660992 45.328483 
L 273.636198 46.690374 
L 272.611405 48.111699 
L 271.586612 49.639467 
L 270.561818 51.167235 
L 269.537025 52.695003 
L 268.512231 54.166919 
L 267.487438 55.548674 
L 266.462645 56.930428 
L 265.437851 58.312183 
L 264.413058 59.676203 
L 263.388264 61.051669 
L 262.363471 62.194797 
L 261.338678 63.507223 
L 260.313884 64.931485 
L 259.289091 66.534209 
L 258.264298 68.001712 
L 257.239504 69.398378 
L 256.214711 70.726902 
L 255.189917 72.104303 
L 254.165124 73.362335 
L 253.140331 74.680301 
L 252.115537 75.865809 
L 251.090744 77.360399 
L 250.06595 78.614753 
L 249.041157 80.005776 
L 248.016364 81.290745 
L 246.99157 82.499393 
L 245.966777 83.530985 
L 244.941983 84.682894 
L 243.91719 85.739048 
L 242.892397 86.963515 
L 241.867603 88.189728 
L 240.84281 89.095125 
L 239.818017 89.961561 
L 238.793223 90.886728 
L 237.76843 91.703068 
L 236.743636 92.746666 
L 235.718843 93.83239 
L 234.69405 94.775061 
L 233.669256 95.527606 
L 232.644463 96.512941 
L 231.619669 97.36508 
L 230.594876 98.022018 
L 229.570083 98.83261 
L 228.545289 99.911399 
L 227.520496 100.752784 
L 226.495702 101.445819 
L 225.470909 102.138711 
L 224.446116 102.798909 
L 223.421322 103.434285 
L 222.396529 104.056141 
L 221.371736 104.673926 
L 220.346942 105.483639 
L 219.322149 106.244096 
L 218.297355 107.002345 
L 217.272562 107.707012 
L 216.247769 108.391483 
L 215.222975 109.051877 
L 214.198182 109.655791 
L 213.173388 110.285342 
L 212.148595 110.848776 
L 211.123802 111.551171 
L 210.099008 112.182965 
L 209.074215 112.814758 
L 208.049421 113.446552 
L 207.024628 113.965896 
L 205.999835 114.484935 
L 204.975041 114.902231 
L 203.950248 115.312924 
L 202.925455 115.764728 
L 201.900661 116.316695 
L 200.875868 116.69196 
L 199.851074 117.067225 
L 198.826281 117.443063 
L 197.801488 117.867607 
L 196.776694 118.257369 
L 195.751901 118.75242 
L 194.727107 119.25149 
L 193.702314 119.857581 
L 192.677521 120.516164 
L 191.652727 120.977814 
z
" clip-path="url(#pabbb241248)" style="fill-opacity: 0.15"/>
   </g>
   <g id="matplotlib.axis_3">
    <g id="xtick_4">
     <g id="line2d_13">
      <g>
       <use xlink:href="#mcdc124160c" x="197.54764" y="179.27" style="stroke: #000000; stroke-width: 0.8"/>
      </g>
     </g>
     <g id="text_15">
      <!-- 50 -->
      <g transform="translate(193.09889 191.99625) scale(0.08 -0.08)">
       <use xlink:href="#ArialMT-35"/>
       <use xlink:href="#ArialMT-30" x="55.615234"/>
      </g>
     </g>
    </g>
    <g id="xtick_5">
     <g id="line2d_14">
      <g>
       <use xlink:href="#mcdc124160c" x="241.014222" y="179.27" style="stroke: #000000; stroke-width: 0.8"/>
      </g>
     </g>
     <g id="text_16">
      <!-- 100 -->
      <g transform="translate(234.341097 191.99625) scale(0.08 -0.08)">
       <use xlink:href="#ArialMT-31"/>
       <use xlink:href="#ArialMT-30" x="55.615234"/>
       <use xlink:href="#ArialMT-30" x="111.230469"/>
      </g>
     </g>
    </g>
    <g id="xtick_6">
     <g id="line2d_15">
      <g>
       <use xlink:href="#mcdc124160c" x="284.480804" y="179.27" style="stroke: #000000; stroke-width: 0.8"/>
      </g>
     </g>
     <g id="text_17">
      <!-- 150 -->
      <g transform="translate(277.807679 191.99625) scale(0.08 -0.08)">
       <use xlink:href="#ArialMT-31"/>
       <use xlink:href="#ArialMT-35" x="55.615234"/>
       <use xlink:href="#ArialMT-30" x="111.230469"/>
      </g>
     </g>
    </g>
    <g id="text_18">
     <!-- Isokinetic Torque at 120°/s (Nm) -->
     <g transform="translate(185.500625 203.41) scale(0.08 -0.08)">
      <defs>
       <path id="ArialMT-49" d="M 597 0 
L 597 4581 
L 1203 4581 
L 1203 0 
L 597 0 
z
" transform="scale(0.015625)"/>
       <path id="ArialMT-6b" d="M 425 0 
L 425 4581 
L 988 4581 
L 988 1969 
L 2319 3319 
L 3047 3319 
L 1778 2088 
L 3175 0 
L 2481 0 
L 1384 1697 
L 988 1316 
L 988 0 
L 425 0 
z
" transform="scale(0.015625)"/>
       <path id="ArialMT-54" d="M 1659 0 
L 1659 4041 
L 150 4041 
L 150 4581 
L 3781 4581 
L 3781 4041 
L 2266 4041 
L 2266 0 
L 1659 0 
z
" transform="scale(0.015625)"/>
       <path id="ArialMT-71" d="M 2538 -1272 
L 2538 353 
Q 2406 169 2170 47 
Q 1934 -75 1669 -75 
Q 1078 -75 651 397 
Q 225 869 225 1691 
Q 225 2191 398 2587 
Q 572 2984 901 3189 
Q 1231 3394 1625 3394 
Q 2241 3394 2594 2875 
L 2594 3319 
L 3100 3319 
L 3100 -1272 
L 2538 -1272 
z
M 803 1669 
Q 803 1028 1072 708 
Q 1341 388 1716 388 
Q 2075 388 2334 692 
Q 2594 997 2594 1619 
Q 2594 2281 2320 2615 
Q 2047 2950 1678 2950 
Q 1313 2950 1058 2639 
Q 803 2328 803 1669 
z
" transform="scale(0.015625)"/>
       <path id="ArialMT-b0" d="M 400 3794 
Q 400 4153 654 4406 
Q 909 4659 1266 4659 
Q 1628 4659 1881 4406 
Q 2134 4153 2134 3794 
Q 2134 3434 1879 3179 
Q 1625 2925 1266 2925 
Q 909 2925 654 3178 
Q 400 3431 400 3794 
z
M 741 3794 
Q 741 3575 895 3420 
Q 1050 3266 1269 3266 
Q 1484 3266 1639 3420 
Q 1794 3575 1794 3794 
Q 1794 4013 1639 4167 
Q 1484 4322 1269 4322 
Q 1050 4322 895 4167 
Q 741 4013 741 3794 
z
" transform="scale(0.015625)"/>
       <path id="ArialMT-2f" d="M 0 -78 
L 1328 4659 
L 1778 4659 
L 453 -78 
L 0 -78 
z
" transform="scale(0.015625)"/>
      </defs>
      <use xlink:href="#ArialMT-49"/>
      <use xlink:href="#ArialMT-73" x="27.783203"/>
      <use xlink:href="#ArialMT-6f" x="77.783203"/>
      <use xlink:href="#ArialMT-6b" x="133.398438"/>
      <use xlink:href="#ArialMT-69" x="183.398438"/>
      <use xlink:href="#ArialMT-6e" x="205.615234"/>
      <use xlink:href="#ArialMT-65" x="261.230469"/>
      <use xlink:href="#ArialMT-74" x="316.845703"/>
      <use xlink:href="#ArialMT-69" x="344.628906"/>
      <use xlink:href="#ArialMT-63" x="366.845703"/>
      <use xlink:href="#ArialMT-20" x="416.845703"/>
      <use xlink:href="#ArialMT-54" x="442.878906"/>
      <use xlink:href="#ArialMT-6f" x="492.837891"/>
      <use xlink:href="#ArialMT-72" x="548.453125"/>
      <use xlink:href="#ArialMT-71" x="581.753906"/>
      <use xlink:href="#ArialMT-75" x="637.369141"/>
      <use xlink:href="#ArialMT-65" x="692.984375"/>
      <use xlink:href="#ArialMT-20" x="748.599609"/>
      <use xlink:href="#ArialMT-61" x="776.382812"/>
      <use xlink:href="#ArialMT-74" x="831.998047"/>
      <use xlink:href="#ArialMT-20" x="859.78125"/>
      <use xlink:href="#ArialMT-31" x="887.564453"/>
      <use xlink:href="#ArialMT-32" x="943.179688"/>
      <use xlink:href="#ArialMT-30" x="998.794922"/>
      <use xlink:href="#ArialMT-b0" x="1054.410156"/>
      <use xlink:href="#ArialMT-2f" x="1094.400391"/>
      <use xlink:href="#ArialMT-73" x="1122.183594"/>
      <use xlink:href="#ArialMT-20" x="1172.183594"/>
      <use xlink:href="#ArialMT-28" x="1199.966797"/>
      <use xlink:href="#ArialMT-4e" x="1233.267578"/>
      <use xlink:href="#ArialMT-6d" x="1305.484375"/>
      <use xlink:href="#ArialMT-29" x="1388.785156"/>
     </g>
    </g>
   </g>
   <g id="matplotlib.axis_4">
    <g id="ytick_9">
     <g id="line2d_16">
      <g>
       <use xlink:href="#mcf24bc246a" x="186.58" y="168.397926" style="stroke: #000000; stroke-width: 0.8"/>
      </g>
     </g>
     <g id="text_19">
      <!-- −1.5 -->
      <g transform="translate(163.7875 171.261051) scale(0.08 -0.08)">
       <use xlink:href="#ArialMT-2212"/>
       <use xlink:href="#ArialMT-31" x="58.398438"/>
       <use xlink:href="#ArialMT-2e" x="114.013672"/>
       <use xlink:href="#ArialMT-35" x="141.796875"/>
      </g>
     </g>
    </g>
    <g id="ytick_10">
     <g id="line2d_17">
      <g>
       <use xlink:href="#mcf24bc246a" x="186.58" y="149.322739" style="stroke: #000000; stroke-width: 0.8"/>
      </g>
     </g>
     <g id="text_20">
      <!-- −1.0 -->
      <g transform="translate(163.7875 152.185864) scale(0.08 -0.08)">
       <use xlink:href="#ArialMT-2212"/>
       <use xlink:href="#ArialMT-31" x="58.398438"/>
       <use xlink:href="#ArialMT-2e" x="114.013672"/>
       <use xlink:href="#ArialMT-30" x="141.796875"/>
      </g>
     </g>
    </g>
    <g id="ytick_11">
     <g id="line2d_18">
      <g>
       <use xlink:href="#mcf24bc246a" x="186.58" y="130.247553" style="stroke: #000000; stroke-width: 0.8"/>
      </g>
     </g>
     <g id="text_21">
      <!-- −0.5 -->
      <g transform="translate(163.7875 133.110678) scale(0.08 -0.08)">
       <use xlink:href="#ArialMT-2212"/>
       <use xlink:href="#ArialMT-30" x="58.398438"/>
       <use xlink:href="#ArialMT-2e" x="114.013672"/>
       <use xlink:href="#ArialMT-35" x="141.796875"/>
      </g>
     </g>
    </g>
    <g id="ytick_12">
     <g id="line2d_19">
      <g>
       <use xlink:href="#mcf24bc246a" x="186.58" y="111.172366" style="stroke: #000000; stroke-width: 0.8"/>
      </g>
     </g>
     <g id="text_22">
      <!-- 0.0 -->
      <g transform="translate(168.46 114.035491) scale(0.08 -0.08)">
       <use xlink:href="#ArialMT-30"/>
       <use xlink:href="#ArialMT-2e" x="55.615234"/>
       <use xlink:href="#ArialMT-30" x="83.398438"/>
      </g>
     </g>
    </g>
    <g id="ytick_13">
     <g id="line2d_20">
      <g>
       <use xlink:href="#mcf24bc246a" x="186.58" y="92.097179" style="stroke: #000000; stroke-width: 0.8"/>
      </g>
     </g>
     <g id="text_23">
      <!-- 0.5 -->
      <g transform="translate(168.46 94.960304) scale(0.08 -0.08)">
       <use xlink:href="#ArialMT-30"/>
       <use xlink:href="#ArialMT-2e" x="55.615234"/>
       <use xlink:href="#ArialMT-35" x="83.398438"/>
      </g>
     </g>
    </g>
    <g id="ytick_14">
     <g id="line2d_21">
      <g>
       <use xlink:href="#mcf24bc246a" x="186.58" y="73.021992" style="stroke: #000000; stroke-width: 0.8"/>
      </g>
     </g>
     <g id="text_24">
      <!-- 1.0 -->
      <g transform="translate(168.46 75.885117) scale(0.08 -0.08)">
       <use xlink:href="#ArialMT-31"/>
       <use xlink:href="#ArialMT-2e" x="55.615234"/>
       <use xlink:href="#ArialMT-30" x="83.398438"/>
      </g>
     </g>
    </g>
    <g id="ytick_15">
     <g id="line2d_22">
      <g>
       <use xlink:href="#mcf24bc246a" x="186.58" y="53.946805" style="stroke: #000000; stroke-width: 0.8"/>
      </g>
     </g>
     <g id="text_25">
      <!-- 1.5 -->
      <g transform="translate(168.46 56.80993) scale(0.08 -0.08)">
       <use xlink:href="#ArialMT-31"/>
       <use xlink:href="#ArialMT-2e" x="55.615234"/>
       <use xlink:href="#ArialMT-35" x="83.398438"/>
      </g>
     </g>
    </g>
    <g id="ytick_16">
     <g id="line2d_23">
      <g>
       <use xlink:href="#mcf24bc246a" x="186.58" y="34.871618" style="stroke: #000000; stroke-width: 0.8"/>
      </g>
     </g>
     <g id="text_26">
      <!-- 2.0 -->
      <g transform="translate(168.46 37.734743) scale(0.08 -0.08)">
       <use xlink:href="#ArialMT-32"/>
       <use xlink:href="#ArialMT-2e" x="55.615234"/>
       <use xlink:href="#ArialMT-30" x="83.398438"/>
      </g>
     </g>
    </g>
    <g id="ytick_17">
     <g id="line2d_24">
      <g>
       <use xlink:href="#mcf24bc246a" x="186.58" y="15.796432" style="stroke: #000000; stroke-width: 0.8"/>
      </g>
     </g>
     <g id="text_27">
      <!-- 2.5 -->
      <g transform="translate(168.46 18.659557) scale(0.08 -0.08)">
       <use xlink:href="#ArialMT-32"/>
       <use xlink:href="#ArialMT-2e" x="55.615234"/>
       <use xlink:href="#ArialMT-35" x="83.398438"/>
      </g>
     </g>
    </g>
    <g id="text_28">
     <!-- Contractile Volume (Standardized) -->
     <g transform="translate(158.10375 157.026875) rotate(-90) scale(0.08 -0.08)">
      <use xlink:href="#ArialMT-43"/>
      <use xlink:href="#ArialMT-6f" x="72.216797"/>
      <use xlink:href="#ArialMT-6e" x="127.832031"/>
      <use xlink:href="#ArialMT-74" x="183.447266"/>
      <use xlink:href="#ArialMT-72" x="211.230469"/>
      <use xlink:href="#ArialMT-61" x="244.53125"/>
      <use xlink:href="#ArialMT-63" x="300.146484"/>
      <use xlink:href="#ArialMT-74" x="350.146484"/>
      <use xlink:href="#ArialMT-69" x="377.929688"/>
      <use xlink:href="#ArialMT-6c" x="400.146484"/>
      <use xlink:href="#ArialMT-65" x="422.363281"/>
      <use xlink:href="#ArialMT-20" x="477.978516"/>
      <use xlink:href="#ArialMT-56" x="505.761719"/>
      <use xlink:href="#ArialMT-6f" x="566.960938"/>
      <use xlink:href="#ArialMT-6c" x="622.576172"/>
      <use xlink:href="#ArialMT-75" x="644.792969"/>
      <use xlink:href="#ArialMT-6d" x="700.408203"/>
      <use xlink:href="#ArialMT-65" x="783.708984"/>
      <use xlink:href="#ArialMT-20" x="839.324219"/>
      <use xlink:href="#ArialMT-28" x="867.107422"/>
      <use xlink:href="#ArialMT-53" x="900.408203"/>
      <use xlink:href="#ArialMT-74" x="967.107422"/>
      <use xlink:href="#ArialMT-61" x="994.890625"/>
      <use xlink:href="#ArialMT-6e" x="1050.505859"/>
      <use xlink:href="#ArialMT-64" x="1106.121094"/>
      <use xlink:href="#ArialMT-61" x="1161.736328"/>
      <use xlink:href="#ArialMT-72" x="1217.351562"/>
      <use xlink:href="#ArialMT-64" x="1250.652344"/>
      <use xlink:href="#ArialMT-69" x="1306.267578"/>
      <use xlink:href="#ArialMT-7a" x="1328.484375"/>
      <use xlink:href="#ArialMT-65" x="1378.484375"/>
      <use xlink:href="#ArialMT-64" x="1434.099609"/>
      <use xlink:href="#ArialMT-29" x="1489.714844"/>
     </g>
    </g>
   </g>
   <g id="line2d_25">
    <path d="M 191.652727 149.049443 
L 192.677521 148.064691 
L 193.702314 147.079939 
L 194.727107 146.095187 
L 195.751901 145.110435 
L 196.776694 144.125684 
L 197.801488 143.140932 
L 198.826281 142.15618 
L 199.851074 141.171428 
L 200.875868 140.186677 
L 201.900661 139.201925 
L 202.925455 138.217173 
L 203.950248 137.232421 
L 204.975041 136.24767 
L 205.999835 135.262918 
L 207.024628 134.278166 
L 208.049421 133.293414 
L 209.074215 132.308662 
L 210.099008 131.323911 
L 211.123802 130.339159 
L 212.148595 129.354407 
L 213.173388 128.369655 
L 214.198182 127.384904 
L 215.222975 126.400152 
L 216.247769 125.4154 
L 217.272562 124.430648 
L 218.297355 123.445897 
L 219.322149 122.461145 
L 220.346942 121.476393 
L 221.371736 120.491641 
L 222.396529 119.506889 
L 223.421322 118.522138 
L 224.446116 117.537386 
L 225.470909 116.552634 
L 226.495702 115.567882 
L 227.520496 114.583131 
L 228.545289 113.598379 
L 229.570083 112.613627 
L 230.594876 111.628875 
L 231.619669 110.644124 
L 232.644463 109.659372 
L 233.669256 108.67462 
L 234.69405 107.689868 
L 235.718843 106.705116 
L 236.743636 105.720365 
L 237.76843 104.735613 
L 238.793223 103.750861 
L 239.818017 102.766109 
L 240.84281 101.781358 
L 241.867603 100.796606 
L 242.892397 99.811854 
L 243.91719 98.827102 
L 244.941983 97.842351 
L 245.966777 96.857599 
L 246.99157 95.872847 
L 248.016364 94.888095 
L 249.041157 93.903343 
L 250.06595 92.918592 
L 251.090744 91.93384 
L 252.115537 90.949088 
L 253.140331 89.964336 
L 254.165124 88.979585 
L 255.189917 87.994833 
L 256.214711 87.010081 
L 257.239504 86.025329 
L 258.264298 85.040578 
L 259.289091 84.055826 
L 260.313884 83.071074 
L 261.338678 82.086322 
L 262.363471 81.10157 
L 263.388264 80.116819 
L 264.413058 79.132067 
L 265.437851 78.147315 
L 266.462645 77.162563 
L 267.487438 76.177812 
L 268.512231 75.19306 
L 269.537025 74.208308 
L 270.561818 73.223556 
L 271.586612 72.238805 
L 272.611405 71.254053 
L 273.636198 70.269301 
L 274.660992 69.284549 
L 275.685785 68.299797 
L 276.710579 67.315046 
L 277.735372 66.330294 
L 278.760165 65.345542 
L 279.784959 64.36079 
L 280.809752 63.376039 
L 281.834545 62.391287 
L 282.859339 61.406535 
L 283.884132 60.421783 
L 284.908926 59.437032 
L 285.933719 58.45228 
L 286.958512 57.467528 
L 287.983306 56.482776 
L 289.008099 55.498025 
L 290.032893 54.513273 
L 291.057686 53.528521 
L 292.082479 52.543769 
L 293.107273 51.559017 
" clip-path="url(#pabbb241248)" style="fill: none; stroke: #000000; stroke-width: 2; stroke-linecap: square"/>
   </g>
   <g id="patch_6">
    <path d="M 186.58 179.27 
L 186.58 12.95 
" style="fill: none; stroke: #000000; stroke-width: 0.8; stroke-linejoin: miter; stroke-linecap: square"/>
   </g>
   <g id="patch_7">
    <path d="M 186.58 179.27 
L 298.18 179.27 
" style="fill: none; stroke: #000000; stroke-width: 0.8; stroke-linejoin: miter; stroke-linecap: square"/>
   </g>
   <g id="text_29">
    <!-- r=0.69, p=.001 -->
    <g transform="translate(216.36 12.95) scale(0.08 -0.08)">
     <defs>
      <path id="ArialMT-39" d="M 350 1059 
L 891 1109 
Q 959 728 1153 556 
Q 1347 384 1650 384 
Q 1909 384 2104 503 
Q 2300 622 2425 820 
Q 2550 1019 2634 1356 
Q 2719 1694 2719 2044 
Q 2719 2081 2716 2156 
Q 2547 1888 2255 1720 
Q 1963 1553 1622 1553 
Q 1053 1553 659 1965 
Q 266 2378 266 3053 
Q 266 3750 677 4175 
Q 1088 4600 1706 4600 
Q 2153 4600 2523 4359 
Q 2894 4119 3086 3673 
Q 3278 3228 3278 2384 
Q 3278 1506 3087 986 
Q 2897 466 2520 194 
Q 2144 -78 1638 -78 
Q 1100 -78 759 220 
Q 419 519 350 1059 
z
M 2653 3081 
Q 2653 3566 2395 3850 
Q 2138 4134 1775 4134 
Q 1400 4134 1122 3828 
Q 844 3522 844 3034 
Q 844 2597 1108 2323 
Q 1372 2050 1759 2050 
Q 2150 2050 2401 2323 
Q 2653 2597 2653 3081 
z
" transform="scale(0.015625)"/>
     </defs>
     <use xlink:href="#ArialMT-72"/>
     <use xlink:href="#ArialMT-3d" x="33.300781"/>
     <use xlink:href="#ArialMT-30" x="91.699219"/>
     <use xlink:href="#ArialMT-2e" x="147.314453"/>
     <use xlink:href="#ArialMT-36" x="175.097656"/>
     <use xlink:href="#ArialMT-39" x="230.712891"/>
     <use xlink:href="#ArialMT-2c" x="286.328125"/>
     <use xlink:href="#ArialMT-20" x="314.111328"/>
     <use xlink:href="#ArialMT-70" x="341.894531"/>
     <use xlink:href="#ArialMT-3d" x="397.509766"/>
     <use xlink:href="#ArialMT-2e" x="455.908203"/>
     <use xlink:href="#ArialMT-30" x="483.691406"/>
     <use xlink:href="#ArialMT-30" x="539.306641"/>
     <use xlink:href="#ArialMT-31" x="594.921875"/>
    </g>
   </g>
  </g>
  <g id="axes_3">
   <g id="patch_8">
    <path d="M 331.66 179.27 
L 443.26 179.27 
L 443.26 12.95 
L 331.66 12.95 
z
" style="fill: #ffffff"/>
   </g>
   <g id="PathCollection_3">
    <g clip-path="url(#p13b67206d3)">
     <use xlink:href="#m0bd87ed1b4" x="424.915316" y="63.300886" style="fill: #28aeed; stroke: #28aeed"/>
     <use xlink:href="#m0bd87ed1b4" x="341.268565" y="163.383687" style="fill: #28aeed; stroke: #28aeed"/>
     <use xlink:href="#m0bd87ed1b4" x="376.096315" y="73.899083" style="fill: #28aeed; stroke: #28aeed"/>
     <use xlink:href="#m0bd87ed1b4" x="396.959197" y="47.123967" style="fill: #28aeed; stroke: #28aeed"/>
     <use xlink:href="#m0bd87ed1b4" x="361.767105" y="120.282309" style="fill: #28aeed; stroke: #28aeed"/>
     <use xlink:href="#m0bd87ed1b4" x="366.013189" y="126.22605" style="fill: #28aeed; stroke: #28aeed"/>
     <use xlink:href="#m0bd87ed1b4" x="369.043331" y="148.908141" style="fill: #28aeed; stroke: #28aeed"/>
     <use xlink:href="#m0bd87ed1b4" x="407.892164" y="110.732801" style="fill: #28aeed; stroke: #28aeed"/>
     <use xlink:href="#m0bd87ed1b4" x="364.526147" y="99.316432" style="fill: #28aeed; stroke: #28aeed"/>
     <use xlink:href="#m0bd87ed1b4" x="336.732727" y="160.002548" style="fill: #28aeed; stroke: #28aeed"/>
     <use xlink:href="#m0bd87ed1b4" x="420.770474" y="54.354821" style="fill: #28aeed; stroke: #28aeed"/>
     <use xlink:href="#m0bd87ed1b4" x="367.482445" y="126.128135" style="fill: #28aeed; stroke: #28aeed"/>
     <use xlink:href="#m0bd87ed1b4" x="383.502617" y="134.862622" style="fill: #28aeed; stroke: #28aeed"/>
     <use xlink:href="#m0bd87ed1b4" x="394.134362" y="79.406324" style="fill: #28aeed; stroke: #28aeed"/>
     <use xlink:href="#m0bd87ed1b4" x="426.918798" y="58.162134" style="fill: #28aeed; stroke: #28aeed"/>
     <use xlink:href="#m0bd87ed1b4" x="397.370456" y="72.415765" style="fill: #28aeed; stroke: #28aeed"/>
     <use xlink:href="#m0bd87ed1b4" x="363.036132" y="158.577392" style="fill: #28aeed; stroke: #28aeed"/>
     <use xlink:href="#m0bd87ed1b4" x="355.675781" y="147.095834" style="fill: #28aeed; stroke: #28aeed"/>
     <use xlink:href="#m0bd87ed1b4" x="438.187273" y="98.387595" style="fill: #28aeed; stroke: #28aeed"/>
    </g>
   </g>
   <g id="PolyCollection_3">
    <path d="M 336.732727 135.876002 
L 336.732727 171.71 
L 337.757521 170.438507 
L 338.782314 169.0688 
L 339.807107 167.839534 
L 340.831901 166.612536 
L 341.856694 165.383029 
L 342.881488 164.1535 
L 343.906281 162.837291 
L 344.931074 161.469091 
L 345.955868 160.100891 
L 346.980661 158.732691 
L 348.005455 157.329935 
L 349.030248 156.124764 
L 350.055041 154.84541 
L 351.079835 153.623143 
L 352.104628 152.490267 
L 353.129421 151.167518 
L 354.154215 149.91151 
L 355.179008 148.389063 
L 356.203802 147.023704 
L 357.228595 145.750327 
L 358.253388 144.586348 
L 359.278182 143.492744 
L 360.302975 142.291109 
L 361.327769 141.181104 
L 362.352562 140.139626 
L 363.377355 139.101262 
L 364.402149 137.993703 
L 365.426942 136.86757 
L 366.451736 135.764291 
L 367.476529 134.606007 
L 368.501322 133.544226 
L 369.526116 132.460383 
L 370.550909 131.445292 
L 371.575702 130.507859 
L 372.600496 129.535216 
L 373.625289 128.555781 
L 374.650083 127.616244 
L 375.674876 126.633442 
L 376.699669 125.595702 
L 377.724463 124.645012 
L 378.749256 123.664918 
L 379.77405 122.664669 
L 380.798843 121.628447 
L 381.823636 120.683697 
L 382.84843 119.905574 
L 383.873223 118.866931 
L 384.898017 117.958548 
L 385.92281 117.049365 
L 386.947603 116.037481 
L 387.972397 115.191453 
L 388.99719 114.281978 
L 390.021983 113.425791 
L 391.046777 112.576833 
L 392.07157 111.683599 
L 393.096364 110.857397 
L 394.121157 110.15536 
L 395.14595 109.307391 
L 396.170744 108.502665 
L 397.195537 107.596276 
L 398.220331 106.855987 
L 399.245124 106.074226 
L 400.269917 105.253064 
L 401.294711 104.317799 
L 402.319504 103.439041 
L 403.344298 102.661156 
L 404.369091 101.746754 
L 405.393884 100.869993 
L 406.418678 99.947909 
L 407.443471 99.254861 
L 408.468264 98.629963 
L 409.493058 97.802494 
L 410.517851 96.956389 
L 411.542645 96.144295 
L 412.567438 95.319667 
L 413.592231 94.49274 
L 414.617025 93.663111 
L 415.641818 92.94193 
L 416.666612 92.095894 
L 417.691405 91.244084 
L 418.716198 90.540222 
L 419.740992 89.841724 
L 420.765785 89.143226 
L 421.790579 88.44358 
L 422.815372 87.742199 
L 423.840165 87.038021 
L 424.864959 86.332816 
L 425.889752 85.57637 
L 426.914545 84.732266 
L 427.939339 83.888162 
L 428.964132 83.186202 
L 429.988926 82.540952 
L 431.013719 81.895702 
L 432.038512 81.250452 
L 433.063306 80.603546 
L 434.088099 79.87375 
L 435.112893 79.095234 
L 436.137686 78.316718 
L 437.162479 77.571014 
L 438.187273 76.892819 
L 438.187273 20.51 
L 438.187273 20.51 
L 437.162479 21.995693 
L 436.137686 23.488365 
L 435.112893 25.078955 
L 434.088099 26.532534 
L 433.063306 27.928078 
L 432.038512 29.406898 
L 431.013719 30.87517 
L 429.988926 32.293551 
L 428.964132 33.711933 
L 427.939339 35.228677 
L 426.914545 36.617602 
L 425.889752 38.006526 
L 424.864959 39.39545 
L 423.840165 40.785272 
L 422.815372 42.199231 
L 421.790579 43.61319 
L 420.765785 45.02851 
L 419.740992 46.472007 
L 418.716198 47.940462 
L 417.691405 49.409521 
L 416.666612 50.825577 
L 415.641818 52.175451 
L 414.617025 53.526602 
L 413.592231 54.930122 
L 412.567438 56.345185 
L 411.542645 57.783703 
L 410.517851 59.256695 
L 409.493058 60.729686 
L 408.468264 62.20555 
L 407.443471 63.682187 
L 406.418678 65.238251 
L 405.393884 66.727544 
L 404.369091 68.101887 
L 403.344298 69.570082 
L 402.319504 71.040627 
L 401.294711 72.513619 
L 400.269917 73.986611 
L 399.245124 75.462474 
L 398.220331 76.939795 
L 397.195537 78.417115 
L 396.170744 79.894436 
L 395.14595 81.169409 
L 394.121157 82.280549 
L 393.096364 83.267451 
L 392.07157 84.327136 
L 391.046777 85.38824 
L 390.021983 86.785091 
L 388.99719 88.283597 
L 387.972397 89.625057 
L 386.947603 90.775423 
L 385.92281 92.147697 
L 384.898017 93.428671 
L 383.873223 94.692649 
L 382.84843 95.825922 
L 381.823636 97.020537 
L 380.798843 98.084899 
L 379.77405 99.059891 
L 378.749256 100.033277 
L 377.724463 101.41497 
L 376.699669 102.963466 
L 375.674876 104.227284 
L 374.650083 105.352187 
L 373.625289 106.121662 
L 372.600496 106.909722 
L 371.575702 107.792679 
L 370.550909 108.810851 
L 369.526116 109.910342 
L 368.501322 110.837365 
L 367.476529 111.81332 
L 366.451736 112.61257 
L 365.426942 113.486711 
L 364.402149 114.428233 
L 363.377355 115.274389 
L 362.352562 116.166598 
L 361.327769 116.925751 
L 360.302975 117.823578 
L 359.278182 118.758003 
L 358.253388 119.568696 
L 357.228595 120.453387 
L 356.203802 121.244629 
L 355.179008 122.12203 
L 354.154215 123.079903 
L 353.129421 123.982875 
L 352.104628 124.80319 
L 351.079835 125.394784 
L 350.055041 126.17404 
L 349.030248 127.041231 
L 348.005455 127.737827 
L 346.980661 128.568308 
L 345.955868 129.325631 
L 344.931074 130.158329 
L 343.906281 131.012497 
L 342.881488 131.562123 
L 341.856694 132.367398 
L 340.831901 133.031705 
L 339.807107 133.954599 
L 338.782314 134.640297 
L 337.757521 135.261021 
L 336.732727 135.876002 
z
" clip-path="url(#p13b67206d3)" style="fill-opacity: 0.15"/>
   </g>
   <g id="matplotlib.axis_5">
    <g id="xtick_7">
     <g id="line2d_26">
      <g>
       <use xlink:href="#mcdc124160c" x="357.117989" y="179.27" style="stroke: #000000; stroke-width: 0.8"/>
      </g>
     </g>
     <g id="text_30">
      <!-- 100 -->
      <g transform="translate(350.444864 191.99625) scale(0.08 -0.08)">
       <use xlink:href="#ArialMT-31"/>
       <use xlink:href="#ArialMT-30" x="55.615234"/>
       <use xlink:href="#ArialMT-30" x="111.230469"/>
      </g>
     </g>
    </g>
    <g id="xtick_8">
     <g id="line2d_27">
      <g>
       <use xlink:href="#mcdc124160c" x="393.600536" y="179.27" style="stroke: #000000; stroke-width: 0.8"/>
      </g>
     </g>
     <g id="text_31">
      <!-- 150 -->
      <g transform="translate(386.927411 191.99625) scale(0.08 -0.08)">
       <use xlink:href="#ArialMT-31"/>
       <use xlink:href="#ArialMT-35" x="55.615234"/>
       <use xlink:href="#ArialMT-30" x="111.230469"/>
      </g>
     </g>
    </g>
    <g id="xtick_9">
     <g id="line2d_28">
      <g>
       <use xlink:href="#mcdc124160c" x="430.083084" y="179.27" style="stroke: #000000; stroke-width: 0.8"/>
      </g>
     </g>
     <g id="text_32">
      <!-- 200 -->
      <g transform="translate(423.409959 191.99625) scale(0.08 -0.08)">
       <use xlink:href="#ArialMT-32"/>
       <use xlink:href="#ArialMT-30" x="55.615234"/>
       <use xlink:href="#ArialMT-30" x="111.230469"/>
      </g>
     </g>
    </g>
    <g id="text_33">
     <!-- Isometric Torque (Nm) -->
     <g transform="translate(347.971875 203.41) scale(0.08 -0.08)">
      <use xlink:href="#ArialMT-49"/>
      <use xlink:href="#ArialMT-73" x="27.783203"/>
      <use xlink:href="#ArialMT-6f" x="77.783203"/>
      <use xlink:href="#ArialMT-6d" x="133.398438"/>
      <use xlink:href="#ArialMT-65" x="216.699219"/>
      <use xlink:href="#ArialMT-74" x="272.314453"/>
      <use xlink:href="#ArialMT-72" x="300.097656"/>
      <use xlink:href="#ArialMT-69" x="333.398438"/>
      <use xlink:href="#ArialMT-63" x="355.615234"/>
      <use xlink:href="#ArialMT-20" x="405.615234"/>
      <use xlink:href="#ArialMT-54" x="431.648438"/>
      <use xlink:href="#ArialMT-6f" x="481.607422"/>
      <use xlink:href="#ArialMT-72" x="537.222656"/>
      <use xlink:href="#ArialMT-71" x="570.523438"/>
      <use xlink:href="#ArialMT-75" x="626.138672"/>
      <use xlink:href="#ArialMT-65" x="681.753906"/>
      <use xlink:href="#ArialMT-20" x="737.369141"/>
      <use xlink:href="#ArialMT-28" x="765.152344"/>
      <use xlink:href="#ArialMT-4e" x="798.453125"/>
      <use xlink:href="#ArialMT-6d" x="870.669922"/>
      <use xlink:href="#ArialMT-29" x="953.970703"/>
     </g>
    </g>
   </g>
   <g id="matplotlib.axis_6">
    <g id="ytick_18">
     <g id="line2d_29">
      <g>
       <use xlink:href="#mcf24bc246a" x="331.66" y="164.619457" style="stroke: #000000; stroke-width: 0.8"/>
      </g>
     </g>
     <g id="text_34">
      <!-- −1.5 -->
      <g transform="translate(308.8675 167.482582) scale(0.08 -0.08)">
       <use xlink:href="#ArialMT-2212"/>
       <use xlink:href="#ArialMT-31" x="58.398438"/>
       <use xlink:href="#ArialMT-2e" x="114.013672"/>
       <use xlink:href="#ArialMT-35" x="141.796875"/>
      </g>
     </g>
    </g>
    <g id="ytick_19">
     <g id="line2d_30">
      <g>
       <use xlink:href="#mcf24bc246a" x="331.66" y="145.580805" style="stroke: #000000; stroke-width: 0.8"/>
      </g>
     </g>
     <g id="text_35">
      <!-- −1.0 -->
      <g transform="translate(308.8675 148.44393) scale(0.08 -0.08)">
       <use xlink:href="#ArialMT-2212"/>
       <use xlink:href="#ArialMT-31" x="58.398438"/>
       <use xlink:href="#ArialMT-2e" x="114.013672"/>
       <use xlink:href="#ArialMT-30" x="141.796875"/>
      </g>
     </g>
    </g>
    <g id="ytick_20">
     <g id="line2d_31">
      <g>
       <use xlink:href="#mcf24bc246a" x="331.66" y="126.542153" style="stroke: #000000; stroke-width: 0.8"/>
      </g>
     </g>
     <g id="text_36">
      <!-- −0.5 -->
      <g transform="translate(308.8675 129.405278) scale(0.08 -0.08)">
       <use xlink:href="#ArialMT-2212"/>
       <use xlink:href="#ArialMT-30" x="58.398438"/>
       <use xlink:href="#ArialMT-2e" x="114.013672"/>
       <use xlink:href="#ArialMT-35" x="141.796875"/>
      </g>
     </g>
    </g>
    <g id="ytick_21">
     <g id="line2d_32">
      <g>
       <use xlink:href="#mcf24bc246a" x="331.66" y="107.503501" style="stroke: #000000; stroke-width: 0.8"/>
      </g>
     </g>
     <g id="text_37">
      <!-- 0.0 -->
      <g transform="translate(313.54 110.366626) scale(0.08 -0.08)">
       <use xlink:href="#ArialMT-30"/>
       <use xlink:href="#ArialMT-2e" x="55.615234"/>
       <use xlink:href="#ArialMT-30" x="83.398438"/>
      </g>
     </g>
    </g>
    <g id="ytick_22">
     <g id="line2d_33">
      <g>
       <use xlink:href="#mcf24bc246a" x="331.66" y="88.46485" style="stroke: #000000; stroke-width: 0.8"/>
      </g>
     </g>
     <g id="text_38">
      <!-- 0.5 -->
      <g transform="translate(313.54 91.327975) scale(0.08 -0.08)">
       <use xlink:href="#ArialMT-30"/>
       <use xlink:href="#ArialMT-2e" x="55.615234"/>
       <use xlink:href="#ArialMT-35" x="83.398438"/>
      </g>
     </g>
    </g>
    <g id="ytick_23">
     <g id="line2d_34">
      <g>
       <use xlink:href="#mcf24bc246a" x="331.66" y="69.426198" style="stroke: #000000; stroke-width: 0.8"/>
      </g>
     </g>
     <g id="text_39">
      <!-- 1.0 -->
      <g transform="translate(313.54 72.289323) scale(0.08 -0.08)">
       <use xlink:href="#ArialMT-31"/>
       <use xlink:href="#ArialMT-2e" x="55.615234"/>
       <use xlink:href="#ArialMT-30" x="83.398438"/>
      </g>
     </g>
    </g>
    <g id="ytick_24">
     <g id="line2d_35">
      <g>
       <use xlink:href="#mcf24bc246a" x="331.66" y="50.387546" style="stroke: #000000; stroke-width: 0.8"/>
      </g>
     </g>
     <g id="text_40">
      <!-- 1.5 -->
      <g transform="translate(313.54 53.250671) scale(0.08 -0.08)">
       <use xlink:href="#ArialMT-31"/>
       <use xlink:href="#ArialMT-2e" x="55.615234"/>
       <use xlink:href="#ArialMT-35" x="83.398438"/>
      </g>
     </g>
    </g>
    <g id="ytick_25">
     <g id="line2d_36">
      <g>
       <use xlink:href="#mcf24bc246a" x="331.66" y="31.348894" style="stroke: #000000; stroke-width: 0.8"/>
      </g>
     </g>
     <g id="text_41">
      <!-- 2.0 -->
      <g transform="translate(313.54 34.212019) scale(0.08 -0.08)">
       <use xlink:href="#ArialMT-32"/>
       <use xlink:href="#ArialMT-2e" x="55.615234"/>
       <use xlink:href="#ArialMT-30" x="83.398438"/>
      </g>
     </g>
    </g>
    <g id="text_42">
     <!-- Contractile Volume (Standardized) -->
     <g transform="translate(303.18375 157.026875) rotate(-90) scale(0.08 -0.08)">
      <use xlink:href="#ArialMT-43"/>
      <use xlink:href="#ArialMT-6f" x="72.216797"/>
      <use xlink:href="#ArialMT-6e" x="127.832031"/>
      <use xlink:href="#ArialMT-74" x="183.447266"/>
      <use xlink:href="#ArialMT-72" x="211.230469"/>
      <use xlink:href="#ArialMT-61" x="244.53125"/>
      <use xlink:href="#ArialMT-63" x="300.146484"/>
      <use xlink:href="#ArialMT-74" x="350.146484"/>
      <use xlink:href="#ArialMT-69" x="377.929688"/>
      <use xlink:href="#ArialMT-6c" x="400.146484"/>
      <use xlink:href="#ArialMT-65" x="422.363281"/>
      <use xlink:href="#ArialMT-20" x="477.978516"/>
      <use xlink:href="#ArialMT-56" x="505.761719"/>
      <use xlink:href="#ArialMT-6f" x="566.960938"/>
      <use xlink:href="#ArialMT-6c" x="622.576172"/>
      <use xlink:href="#ArialMT-75" x="644.792969"/>
      <use xlink:href="#ArialMT-6d" x="700.408203"/>
      <use xlink:href="#ArialMT-65" x="783.708984"/>
      <use xlink:href="#ArialMT-20" x="839.324219"/>
      <use xlink:href="#ArialMT-28" x="867.107422"/>
      <use xlink:href="#ArialMT-53" x="900.408203"/>
      <use xlink:href="#ArialMT-74" x="967.107422"/>
      <use xlink:href="#ArialMT-61" x="994.890625"/>
      <use xlink:href="#ArialMT-6e" x="1050.505859"/>
      <use xlink:href="#ArialMT-64" x="1106.121094"/>
      <use xlink:href="#ArialMT-61" x="1161.736328"/>
      <use xlink:href="#ArialMT-72" x="1217.351562"/>
      <use xlink:href="#ArialMT-64" x="1250.652344"/>
      <use xlink:href="#ArialMT-69" x="1306.267578"/>
      <use xlink:href="#ArialMT-7a" x="1328.484375"/>
      <use xlink:href="#ArialMT-65" x="1378.484375"/>
      <use xlink:href="#ArialMT-64" x="1434.099609"/>
      <use xlink:href="#ArialMT-29" x="1489.714844"/>
     </g>
    </g>
   </g>
   <g id="line2d_37">
    <path d="M 336.732727 155.018291 
L 337.757521 153.983861 
L 338.782314 152.94943 
L 339.807107 151.915 
L 340.831901 150.88057 
L 341.856694 149.84614 
L 342.881488 148.811709 
L 343.906281 147.777279 
L 344.931074 146.742849 
L 345.955868 145.708419 
L 346.980661 144.673988 
L 348.005455 143.639558 
L 349.030248 142.605128 
L 350.055041 141.570697 
L 351.079835 140.536267 
L 352.104628 139.501837 
L 353.129421 138.467407 
L 354.154215 137.432976 
L 355.179008 136.398546 
L 356.203802 135.364116 
L 357.228595 134.329686 
L 358.253388 133.295255 
L 359.278182 132.260825 
L 360.302975 131.226395 
L 361.327769 130.191964 
L 362.352562 129.157534 
L 363.377355 128.123104 
L 364.402149 127.088674 
L 365.426942 126.054243 
L 366.451736 125.019813 
L 367.476529 123.985383 
L 368.501322 122.950953 
L 369.526116 121.916522 
L 370.550909 120.882092 
L 371.575702 119.847662 
L 372.600496 118.813231 
L 373.625289 117.778801 
L 374.650083 116.744371 
L 375.674876 115.709941 
L 376.699669 114.67551 
L 377.724463 113.64108 
L 378.749256 112.60665 
L 379.77405 111.572219 
L 380.798843 110.537789 
L 381.823636 109.503359 
L 382.84843 108.468929 
L 383.873223 107.434498 
L 384.898017 106.400068 
L 385.92281 105.365638 
L 386.947603 104.331208 
L 387.972397 103.296777 
L 388.99719 102.262347 
L 390.021983 101.227917 
L 391.046777 100.193486 
L 392.07157 99.159056 
L 393.096364 98.124626 
L 394.121157 97.090196 
L 395.14595 96.055765 
L 396.170744 95.021335 
L 397.195537 93.986905 
L 398.220331 92.952475 
L 399.245124 91.918044 
L 400.269917 90.883614 
L 401.294711 89.849184 
L 402.319504 88.814753 
L 403.344298 87.780323 
L 404.369091 86.745893 
L 405.393884 85.711463 
L 406.418678 84.677032 
L 407.443471 83.642602 
L 408.468264 82.608172 
L 409.493058 81.573742 
L 410.517851 80.539311 
L 411.542645 79.504881 
L 412.567438 78.470451 
L 413.592231 77.43602 
L 414.617025 76.40159 
L 415.641818 75.36716 
L 416.666612 74.33273 
L 417.691405 73.298299 
L 418.716198 72.263869 
L 419.740992 71.229439 
L 420.765785 70.195009 
L 421.790579 69.160578 
L 422.815372 68.126148 
L 423.840165 67.091718 
L 424.864959 66.057287 
L 425.889752 65.022857 
L 426.914545 63.988427 
L 427.939339 62.953997 
L 428.964132 61.919566 
L 429.988926 60.885136 
L 431.013719 59.850706 
L 432.038512 58.816276 
L 433.063306 57.781845 
L 434.088099 56.747415 
L 435.112893 55.712985 
L 436.137686 54.678554 
L 437.162479 53.644124 
L 438.187273 52.609694 
" clip-path="url(#p13b67206d3)" style="fill: none; stroke: #000000; stroke-width: 2; stroke-linecap: square"/>
   </g>
   <g id="patch_9">
    <path d="M 331.66 179.27 
L 331.66 12.95 
" style="fill: none; stroke: #000000; stroke-width: 0.8; stroke-linejoin: miter; stroke-linecap: square"/>
   </g>
   <g id="patch_10">
    <path d="M 331.66 179.27 
L 443.26 179.27 
" style="fill: none; stroke: #000000; stroke-width: 0.8; stroke-linejoin: miter; stroke-linecap: square"/>
   </g>
   <g id="text_43">
    <!-- r=0.77, p&lt;.001 -->
    <g transform="translate(361.44 12.95) scale(0.08 -0.08)">
     <defs>
      <path id="ArialMT-37" d="M 303 3981 
L 303 4522 
L 3269 4522 
L 3269 4084 
Q 2831 3619 2401 2847 
Q 1972 2075 1738 1259 
Q 1569 684 1522 0 
L 944 0 
Q 953 541 1156 1306 
Q 1359 2072 1739 2783 
Q 2119 3494 2547 3981 
L 303 3981 
z
" transform="scale(0.015625)"/>
      <path id="ArialMT-3c" d="M 350 2003 
L 350 2528 
L 3384 3809 
L 3384 3250 
L 978 2263 
L 3384 1266 
L 3384 706 
L 350 2003 
z
" transform="scale(0.015625)"/>
     </defs>
     <use xlink:href="#ArialMT-72"/>
     <use xlink:href="#ArialMT-3d" x="33.300781"/>
     <use xlink:href="#ArialMT-30" x="91.699219"/>
     <use xlink:href="#ArialMT-2e" x="147.314453"/>
     <use xlink:href="#ArialMT-37" x="175.097656"/>
     <use xlink:href="#ArialMT-37" x="230.712891"/>
     <use xlink:href="#ArialMT-2c" x="286.328125"/>
     <use xlink:href="#ArialMT-20" x="314.111328"/>
     <use xlink:href="#ArialMT-70" x="341.894531"/>
     <use xlink:href="#ArialMT-3c" x="397.509766"/>
     <use xlink:href="#ArialMT-2e" x="455.908203"/>
     <use xlink:href="#ArialMT-30" x="483.691406"/>
     <use xlink:href="#ArialMT-30" x="539.306641"/>
     <use xlink:href="#ArialMT-31" x="594.921875"/>
    </g>
   </g>
  </g>
 </g>
 <defs>
  <clipPath id="pc9c6f23e02">
   <rect x="41.5" y="12.95" width="111.6" height="166.32"/>
  </clipPath>
  <clipPath id="pabbb241248">
   <rect x="186.58" y="12.95" width="111.6" height="166.32"/>
  </clipPath>
  <clipPath id="p13b67206d3">
   <rect x="331.66" y="12.95" width="111.6" height="166.32"/>
  </clipPath>
 </defs>
</svg>
