<?xml version="1.0" encoding="utf-8" standalone="no"?>
<!DOCTYPE svg PUBLIC "-//W3C//DTD SVG 1.1//EN"
  "http://www.w3.org/Graphics/SVG/1.1/DTD/svg11.dtd">
<svg xmlns:xlink="http://www.w3.org/1999/xlink" width="450.46pt" height="212.29375pt" viewBox="0 0 450.46 212.29375" xmlns="http://www.w3.org/2000/svg" version="1.1">
 <metadata>
  <rdf:RDF xmlns:dc="http://purl.org/dc/elements/1.1/" xmlns:cc="http://creativecommons.org/ns#" xmlns:rdf="http://www.w3.org/1999/02/22-rdf-syntax-ns#">
   <cc:Work>
    <dc:type rdf:resource="http://purl.org/dc/dcmitype/StillImage"/>
    <dc:date>2026-02-26T11:19:18.114273</dc:date>
    <dc:format>image/svg+xml</dc:format>
    <dc:creator>
     <cc:Agent>
      <dc:title>Matplotlib v3.9.2, https://matplotlib.org/</dc:title>
     </cc:Agent>
    </dc:creator>
   </cc:Work>
  </rdf:RDF>
 </metadata>
 <defs>
  <style type="text/css">*{stroke-linejoin: round; stroke-linecap: butt}</style>
 </defs>
 <g id="figure_1">
  <g id="patch_1">
   <path d="M 0 212.29375 
L 450.46 212.29375 
L 450.46 0 
L 0 0 
z
" style="fill: #ffffff"/>
  </g>
  <g id="axes_1">
   <g id="patch_2">
    <path d="M 41.5 179.27 
L 153.1 179.27 
L 153.1 12.95 
L 41.5 12.95 
z
" style="fill: #ffffff"/>
   </g>
   <g id="PathCollection_1">
    <defs>
     <path id="m32559580e1" d="M 0 2.236068 
C 0.593012 2.236068 1.161816 2.000462 1.581139 1.581139 
C 2.000462 1.161816 2.236068 0.593012 2.236068 0 
C 2.236068 -0.593012 2.000462 -1.161816 1.581139 -1.581139 
C 1.161816 -2.000462 0.593012 -2.236068 0 -2.236068 
C -0.593012 -2.236068 -1.161816 -2.000462 -1.581139 -1.581139 
C -2.000462 -1.161816 -2.236068 -0.593012 -2.236068 0 
C -2.236068 0.593012 -2.000462 1.161816 -1.581139 1.581139 
C -1.161816 2.000462 -0.593012 2.236068 0 2.236068 
z
" style="stroke: #28aeed"/>
    </defs>
    <g clip-path="url(#p6ed02df4d9)">
     <use xlink:href="#m32559580e1" x="97.218129" y="48.811017" style="fill: #28aeed; stroke: #28aeed"/>
     <use xlink:href="#m32559580e1" x="78.918269" y="154.112744" style="fill: #28aeed; stroke: #28aeed"/>
     <use xlink:href="#m32559580e1" x="141.241853" y="50.553681" style="fill: #28aeed; stroke: #28aeed"/>
     <use xlink:href="#m32559580e1" x="148.027273" y="24.276548" style="fill: #28aeed; stroke: #28aeed"/>
     <use xlink:href="#m32559580e1" x="78.36588" y="111.299629" style="fill: #28aeed; stroke: #28aeed"/>
     <use xlink:href="#m32559580e1" x="69.303246" y="116.589445" style="fill: #28aeed; stroke: #28aeed"/>
     <use xlink:href="#m32559580e1" x="83.96579" y="133.422962" style="fill: #28aeed; stroke: #28aeed"/>
     <use xlink:href="#m32559580e1" x="101.168327" y="100.708404" style="fill: #28aeed; stroke: #28aeed"/>
     <use xlink:href="#m32559580e1" x="120.680973" y="87.779459" style="fill: #28aeed; stroke: #28aeed"/>
     <use xlink:href="#m32559580e1" x="66.797351" y="150.208179" style="fill: #28aeed; stroke: #28aeed"/>
     <use xlink:href="#m32559580e1" x="131.179176" y="35.006877" style="fill: #28aeed; stroke: #28aeed"/>
     <use xlink:href="#m32559580e1" x="73.145537" y="112.750561" style="fill: #28aeed; stroke: #28aeed"/>
     <use xlink:href="#m32559580e1" x="79.73045" y="126.487082" style="fill: #28aeed; stroke: #28aeed"/>
     <use xlink:href="#m32559580e1" x="46.572727" y="64.950946" style="fill: #28aeed; stroke: #28aeed"/>
     <use xlink:href="#m32559580e1" x="82.727864" y="42.242217" style="fill: #28aeed; stroke: #28aeed"/>
     <use xlink:href="#m32559580e1" x="121.989801" y="53.693182" style="fill: #28aeed; stroke: #28aeed"/>
     <use xlink:href="#m32559580e1" x="48.661012" y="148.488699" style="fill: #28aeed; stroke: #28aeed"/>
     <use xlink:href="#m32559580e1" x="102.485504" y="137.814398" style="fill: #28aeed; stroke: #28aeed"/>
     <use xlink:href="#m32559580e1" x="99.578947" y="84.922031" style="fill: #28aeed; stroke: #28aeed"/>
    </g>
   </g>
   <g id="PolyCollection_1">
    <path d="M 46.572727 103.65551 
L 46.572727 171.71 
L 47.597521 170.286179 
L 48.622314 168.861399 
L 49.647107 167.434085 
L 50.671901 166.046375 
L 51.696694 164.761367 
L 52.721488 163.285426 
L 53.746281 161.973996 
L 54.771074 160.520056 
L 55.795868 159.083702 
L 56.820661 157.610475 
L 57.845455 156.155043 
L 58.870248 154.80618 
L 59.895041 153.455622 
L 60.919835 152.101119 
L 61.944628 150.654866 
L 62.969421 149.206879 
L 63.994215 147.883089 
L 65.019008 146.542769 
L 66.043802 145.206904 
L 67.068595 143.620367 
L 68.093388 142.098137 
L 69.118182 140.648867 
L 70.142975 139.199596 
L 71.167769 137.859396 
L 72.192562 136.643197 
L 73.217355 135.177521 
L 74.242149 133.711846 
L 75.266942 132.427733 
L 76.291736 131.012161 
L 77.316529 129.817394 
L 78.341322 128.49954 
L 79.366116 126.988005 
L 80.390909 125.638477 
L 81.415702 124.295861 
L 82.440496 123.044321 
L 83.465289 121.77689 
L 84.490083 120.491465 
L 85.514876 119.112474 
L 86.539669 117.764614 
L 87.564463 116.631371 
L 88.589256 115.496263 
L 89.61405 114.36098 
L 90.638843 113.313241 
L 91.663636 112.012379 
L 92.68843 110.773111 
L 93.713223 109.710757 
L 94.738017 108.757797 
L 95.76281 107.774801 
L 96.787603 106.617293 
L 97.812397 105.430755 
L 98.83719 104.774372 
L 99.861983 103.690004 
L 100.886777 102.42095 
L 101.91157 101.258455 
L 102.936364 100.331874 
L 103.961157 99.223237 
L 104.98595 98.5165 
L 106.010744 97.772132 
L 107.035537 97.023405 
L 108.060331 96.1457 
L 109.085124 95.619692 
L 110.109917 95.319416 
L 111.134711 94.56049 
L 112.159504 94.203012 
L 113.184298 94.042049 
L 114.209091 93.753778 
L 115.233884 93.443367 
L 116.258678 92.977229 
L 117.283471 92.442223 
L 118.308264 91.661888 
L 119.333058 91.329962 
L 120.357851 91.015605 
L 121.382645 90.698916 
L 122.407438 90.381311 
L 123.432231 90.063706 
L 124.457025 89.746101 
L 125.481818 89.451888 
L 126.506612 89.116313 
L 127.531405 88.800411 
L 128.556198 88.339698 
L 129.580992 87.894735 
L 130.605785 87.618488 
L 131.630579 87.534935 
L 132.655372 87.22153 
L 133.680165 86.778126 
L 134.704959 86.194449 
L 135.729752 85.610773 
L 136.754545 85.165923 
L 137.779339 84.769172 
L 138.804132 84.372422 
L 139.828926 83.899278 
L 140.853719 83.28447 
L 141.878512 82.669662 
L 142.903306 82.054854 
L 143.928099 81.666945 
L 144.952893 81.330855 
L 145.977686 80.994765 
L 147.002479 80.658675 
L 148.027273 80.322584 
L 148.027273 20.51 
L 148.027273 20.51 
L 147.002479 21.795446 
L 145.977686 23.137665 
L 144.952893 24.593715 
L 143.928099 26.049876 
L 142.903306 27.506038 
L 141.878512 28.905226 
L 140.853719 30.132086 
L 139.828926 31.358945 
L 138.804132 32.585804 
L 137.779339 33.886604 
L 136.754545 35.409889 
L 135.729752 36.64081 
L 134.704959 38.055478 
L 133.680165 39.470145 
L 132.655372 40.723072 
L 131.630579 41.885172 
L 130.605785 43.296749 
L 129.580992 44.564938 
L 128.556198 45.82982 
L 127.531405 47.038992 
L 126.506612 48.288945 
L 125.481818 49.411942 
L 124.457025 50.812883 
L 123.432231 51.882374 
L 122.407438 53.153119 
L 121.382645 54.223192 
L 120.357851 55.412544 
L 119.333058 56.758718 
L 118.308264 57.746366 
L 117.283471 58.946897 
L 116.258678 59.824624 
L 115.233884 60.645065 
L 114.209091 61.925056 
L 113.184298 62.978887 
L 112.159504 64.291116 
L 111.134711 65.394277 
L 110.109917 66.400442 
L 109.085124 67.232297 
L 108.060331 68.093734 
L 107.035537 69.222946 
L 106.010744 70.176017 
L 104.98595 71.15407 
L 103.961157 72.090957 
L 102.936364 73.02251 
L 101.91157 73.79292 
L 100.886777 74.451905 
L 99.861983 75.163176 
L 98.83719 75.902896 
L 97.812397 76.709613 
L 96.787603 77.503864 
L 95.76281 78.25395 
L 94.738017 79.010753 
L 93.713223 79.67659 
L 92.68843 80.422759 
L 91.663636 81.098607 
L 90.638843 81.692143 
L 89.61405 82.318344 
L 88.589256 82.885349 
L 87.564463 83.929891 
L 86.539669 84.676607 
L 85.514876 84.878009 
L 84.490083 85.602084 
L 83.465289 86.387419 
L 82.440496 87.173086 
L 81.415702 87.958754 
L 80.390909 88.744421 
L 79.366116 89.205594 
L 78.341322 89.493112 
L 77.316529 89.932125 
L 76.291736 90.295612 
L 75.266942 90.959739 
L 74.242149 91.323435 
L 73.217355 91.62802 
L 72.192562 91.958118 
L 71.167769 92.524439 
L 70.142975 93.091445 
L 69.118182 93.786619 
L 68.093388 94.486107 
L 67.068595 94.946354 
L 66.043802 95.4066 
L 65.019008 95.960165 
L 63.994215 96.561058 
L 62.969421 97.098483 
L 61.944628 97.622819 
L 60.919835 98.186296 
L 59.895041 98.420002 
L 58.870248 98.857674 
L 57.845455 99.299223 
L 56.820661 99.740771 
L 55.795868 100.18232 
L 54.771074 100.623869 
L 53.746281 101.065417 
L 52.721488 101.474389 
L 51.696694 101.948514 
L 50.671901 102.265226 
L 49.647107 102.713691 
L 48.622314 103.163768 
L 47.597521 103.347716 
L 46.572727 103.65551 
z
" clip-path="url(#p6ed02df4d9)" style="fill-opacity: 0.15"/>
   </g>
   <g id="matplotlib.axis_1">
    <g id="xtick_1">
     <g id="line2d_1">
      <defs>
       <path id="mb95c6a0b87" d="M 0 0 
L 0 3.5 
" style="stroke: #000000; stroke-width: 0.8"/>
      </defs>
      <g>
       <use xlink:href="#mb95c6a0b87" x="67.693843" y="179.27" style="stroke: #000000; stroke-width: 0.8"/>
      </g>
     </g>
     <g id="text_1">
      <!-- 40 -->
      <g transform="translate(63.245093 191.99625) scale(0.08 -0.08)">
       <defs>
        <path id="ArialMT-34" d="M 2069 0 
L 2069 1097 
L 81 1097 
L 81 1613 
L 2172 4581 
L 2631 4581 
L 2631 1613 
L 3250 1613 
L 3250 1097 
L 2631 1097 
L 2631 0 
L 2069 0 
z
M 2069 1613 
L 2069 3678 
L 634 1613 
L 2069 1613 
z
" transform="scale(0.015625)"/>
        <path id="ArialMT-30" d="M 266 2259 
Q 266 3072 433 3567 
Q 600 4063 929 4331 
Q 1259 4600 1759 4600 
Q 2128 4600 2406 4451 
Q 2684 4303 2865 4023 
Q 3047 3744 3150 3342 
Q 3253 2941 3253 2259 
Q 3253 1453 3087 958 
Q 2922 463 2592 192 
Q 2263 -78 1759 -78 
Q 1097 -78 719 397 
Q 266 969 266 2259 
z
M 844 2259 
Q 844 1131 1108 757 
Q 1372 384 1759 384 
Q 2147 384 2411 759 
Q 2675 1134 2675 2259 
Q 2675 3391 2411 3762 
Q 2147 4134 1753 4134 
Q 1366 4134 1134 3806 
Q 844 3388 844 2259 
z
" transform="scale(0.015625)"/>
       </defs>
       <use xlink:href="#ArialMT-34"/>
       <use xlink:href="#ArialMT-30" x="55.615234"/>
      </g>
     </g>
    </g>
    <g id="xtick_2">
     <g id="line2d_2">
      <g>
       <use xlink:href="#mb95c6a0b87" x="98.944688" y="179.27" style="stroke: #000000; stroke-width: 0.8"/>
      </g>
     </g>
     <g id="text_2">
      <!-- 60 -->
      <g transform="translate(94.495938 191.99625) scale(0.08 -0.08)">
       <defs>
        <path id="ArialMT-36" d="M 3184 3459 
L 2625 3416 
Q 2550 3747 2413 3897 
Q 2184 4138 1850 4138 
Q 1581 4138 1378 3988 
Q 1113 3794 959 3422 
Q 806 3050 800 2363 
Q 1003 2672 1297 2822 
Q 1591 2972 1913 2972 
Q 2475 2972 2870 2558 
Q 3266 2144 3266 1488 
Q 3266 1056 3080 686 
Q 2894 316 2569 119 
Q 2244 -78 1831 -78 
Q 1128 -78 684 439 
Q 241 956 241 2144 
Q 241 3472 731 4075 
Q 1159 4600 1884 4600 
Q 2425 4600 2770 4297 
Q 3116 3994 3184 3459 
z
M 888 1484 
Q 888 1194 1011 928 
Q 1134 663 1356 523 
Q 1578 384 1822 384 
Q 2178 384 2434 671 
Q 2691 959 2691 1453 
Q 2691 1928 2437 2201 
Q 2184 2475 1800 2475 
Q 1419 2475 1153 2201 
Q 888 1928 888 1484 
z
" transform="scale(0.015625)"/>
       </defs>
       <use xlink:href="#ArialMT-36"/>
       <use xlink:href="#ArialMT-30" x="55.615234"/>
      </g>
     </g>
    </g>
    <g id="xtick_3">
     <g id="line2d_3">
      <g>
       <use xlink:href="#mb95c6a0b87" x="130.195532" y="179.27" style="stroke: #000000; stroke-width: 0.8"/>
      </g>
     </g>
     <g id="text_3">
      <!-- 80 -->
      <g transform="translate(125.746782 191.99625) scale(0.08 -0.08)">
       <defs>
        <path id="ArialMT-38" d="M 1131 2484 
Q 781 2613 612 2850 
Q 444 3088 444 3419 
Q 444 3919 803 4259 
Q 1163 4600 1759 4600 
Q 2359 4600 2725 4251 
Q 3091 3903 3091 3403 
Q 3091 3084 2923 2848 
Q 2756 2613 2416 2484 
Q 2838 2347 3058 2040 
Q 3278 1734 3278 1309 
Q 3278 722 2862 322 
Q 2447 -78 1769 -78 
Q 1091 -78 675 323 
Q 259 725 259 1325 
Q 259 1772 486 2073 
Q 713 2375 1131 2484 
z
M 1019 3438 
Q 1019 3113 1228 2906 
Q 1438 2700 1772 2700 
Q 2097 2700 2305 2904 
Q 2513 3109 2513 3406 
Q 2513 3716 2298 3927 
Q 2084 4138 1766 4138 
Q 1444 4138 1231 3931 
Q 1019 3725 1019 3438 
z
M 838 1322 
Q 838 1081 952 856 
Q 1066 631 1291 507 
Q 1516 384 1775 384 
Q 2178 384 2440 643 
Q 2703 903 2703 1303 
Q 2703 1709 2433 1975 
Q 2163 2241 1756 2241 
Q 1359 2241 1098 1978 
Q 838 1716 838 1322 
z
" transform="scale(0.015625)"/>
       </defs>
       <use xlink:href="#ArialMT-38"/>
       <use xlink:href="#ArialMT-30" x="55.615234"/>
      </g>
     </g>
    </g>
    <g id="text_4">
     <!-- Knee Extension Moment (Nm) -->
     <g transform="translate(43.726875 203.41) scale(0.08 -0.08)">
      <defs>
       <path id="ArialMT-4b" d="M 469 0 
L 469 4581 
L 1075 4581 
L 1075 2309 
L 3350 4581 
L 4172 4581 
L 2250 2725 
L 4256 0 
L 3456 0 
L 1825 2319 
L 1075 1588 
L 1075 0 
L 469 0 
z
" transform="scale(0.015625)"/>
       <path id="ArialMT-6e" d="M 422 0 
L 422 3319 
L 928 3319 
L 928 2847 
Q 1294 3394 1984 3394 
Q 2284 3394 2536 3286 
Q 2788 3178 2913 3003 
Q 3038 2828 3088 2588 
Q 3119 2431 3119 2041 
L 3119 0 
L 2556 0 
L 2556 2019 
Q 2556 2363 2490 2533 
Q 2425 2703 2258 2804 
Q 2091 2906 1866 2906 
Q 1506 2906 1245 2678 
Q 984 2450 984 1813 
L 984 0 
L 422 0 
z
" transform="scale(0.015625)"/>
       <path id="ArialMT-65" d="M 2694 1069 
L 3275 997 
Q 3138 488 2766 206 
Q 2394 -75 1816 -75 
Q 1088 -75 661 373 
Q 234 822 234 1631 
Q 234 2469 665 2931 
Q 1097 3394 1784 3394 
Q 2450 3394 2872 2941 
Q 3294 2488 3294 1666 
Q 3294 1616 3291 1516 
L 816 1516 
Q 847 969 1125 678 
Q 1403 388 1819 388 
Q 2128 388 2347 550 
Q 2566 713 2694 1069 
z
M 847 1978 
L 2700 1978 
Q 2663 2397 2488 2606 
Q 2219 2931 1791 2931 
Q 1403 2931 1139 2672 
Q 875 2413 847 1978 
z
" transform="scale(0.015625)"/>
       <path id="ArialMT-20" transform="scale(0.015625)"/>
       <path id="ArialMT-45" d="M 506 0 
L 506 4581 
L 3819 4581 
L 3819 4041 
L 1113 4041 
L 1113 2638 
L 3647 2638 
L 3647 2100 
L 1113 2100 
L 1113 541 
L 3925 541 
L 3925 0 
L 506 0 
z
" transform="scale(0.015625)"/>
       <path id="ArialMT-78" d="M 47 0 
L 1259 1725 
L 138 3319 
L 841 3319 
L 1350 2541 
Q 1494 2319 1581 2169 
Q 1719 2375 1834 2534 
L 2394 3319 
L 3066 3319 
L 1919 1756 
L 3153 0 
L 2463 0 
L 1781 1031 
L 1600 1309 
L 728 0 
L 47 0 
z
" transform="scale(0.015625)"/>
       <path id="ArialMT-74" d="M 1650 503 
L 1731 6 
Q 1494 -44 1306 -44 
Q 1000 -44 831 53 
Q 663 150 594 308 
Q 525 466 525 972 
L 525 2881 
L 113 2881 
L 113 3319 
L 525 3319 
L 525 4141 
L 1084 4478 
L 1084 3319 
L 1650 3319 
L 1650 2881 
L 1084 2881 
L 1084 941 
Q 1084 700 1114 631 
Q 1144 563 1211 522 
Q 1278 481 1403 481 
Q 1497 481 1650 503 
z
" transform="scale(0.015625)"/>
       <path id="ArialMT-73" d="M 197 991 
L 753 1078 
Q 800 744 1014 566 
Q 1228 388 1613 388 
Q 2000 388 2187 545 
Q 2375 703 2375 916 
Q 2375 1106 2209 1216 
Q 2094 1291 1634 1406 
Q 1016 1563 777 1677 
Q 538 1791 414 1992 
Q 291 2194 291 2438 
Q 291 2659 392 2848 
Q 494 3038 669 3163 
Q 800 3259 1026 3326 
Q 1253 3394 1513 3394 
Q 1903 3394 2198 3281 
Q 2494 3169 2634 2976 
Q 2775 2784 2828 2463 
L 2278 2388 
Q 2241 2644 2061 2787 
Q 1881 2931 1553 2931 
Q 1166 2931 1000 2803 
Q 834 2675 834 2503 
Q 834 2394 903 2306 
Q 972 2216 1119 2156 
Q 1203 2125 1616 2013 
Q 2213 1853 2448 1751 
Q 2684 1650 2818 1456 
Q 2953 1263 2953 975 
Q 2953 694 2789 445 
Q 2625 197 2315 61 
Q 2006 -75 1616 -75 
Q 969 -75 630 194 
Q 291 463 197 991 
z
" transform="scale(0.015625)"/>
       <path id="ArialMT-69" d="M 425 3934 
L 425 4581 
L 988 4581 
L 988 3934 
L 425 3934 
z
M 425 0 
L 425 3319 
L 988 3319 
L 988 0 
L 425 0 
z
" transform="scale(0.015625)"/>
       <path id="ArialMT-6f" d="M 213 1659 
Q 213 2581 725 3025 
Q 1153 3394 1769 3394 
Q 2453 3394 2887 2945 
Q 3322 2497 3322 1706 
Q 3322 1066 3130 698 
Q 2938 331 2570 128 
Q 2203 -75 1769 -75 
Q 1072 -75 642 372 
Q 213 819 213 1659 
z
M 791 1659 
Q 791 1022 1069 705 
Q 1347 388 1769 388 
Q 2188 388 2466 706 
Q 2744 1025 2744 1678 
Q 2744 2294 2464 2611 
Q 2184 2928 1769 2928 
Q 1347 2928 1069 2612 
Q 791 2297 791 1659 
z
" transform="scale(0.015625)"/>
       <path id="ArialMT-4d" d="M 475 0 
L 475 4581 
L 1388 4581 
L 2472 1338 
Q 2622 884 2691 659 
Q 2769 909 2934 1394 
L 4031 4581 
L 4847 4581 
L 4847 0 
L 4263 0 
L 4263 3834 
L 2931 0 
L 2384 0 
L 1059 3900 
L 1059 0 
L 475 0 
z
" transform="scale(0.015625)"/>
       <path id="ArialMT-6d" d="M 422 0 
L 422 3319 
L 925 3319 
L 925 2853 
Q 1081 3097 1340 3245 
Q 1600 3394 1931 3394 
Q 2300 3394 2536 3241 
Q 2772 3088 2869 2813 
Q 3263 3394 3894 3394 
Q 4388 3394 4653 3120 
Q 4919 2847 4919 2278 
L 4919 0 
L 4359 0 
L 4359 2091 
Q 4359 2428 4304 2576 
Q 4250 2725 4106 2815 
Q 3963 2906 3769 2906 
Q 3419 2906 3187 2673 
Q 2956 2441 2956 1928 
L 2956 0 
L 2394 0 
L 2394 2156 
Q 2394 2531 2256 2718 
Q 2119 2906 1806 2906 
Q 1569 2906 1367 2781 
Q 1166 2656 1075 2415 
Q 984 2175 984 1722 
L 984 0 
L 422 0 
z
" transform="scale(0.015625)"/>
       <path id="ArialMT-28" d="M 1497 -1347 
Q 1031 -759 709 28 
Q 388 816 388 1659 
Q 388 2403 628 3084 
Q 909 3875 1497 4659 
L 1900 4659 
Q 1522 4009 1400 3731 
Q 1209 3300 1100 2831 
Q 966 2247 966 1656 
Q 966 153 1900 -1347 
L 1497 -1347 
z
" transform="scale(0.015625)"/>
       <path id="ArialMT-4e" d="M 488 0 
L 488 4581 
L 1109 4581 
L 3516 984 
L 3516 4581 
L 4097 4581 
L 4097 0 
L 3475 0 
L 1069 3600 
L 1069 0 
L 488 0 
z
" transform="scale(0.015625)"/>
       <path id="ArialMT-29" d="M 791 -1347 
L 388 -1347 
Q 1322 153 1322 1656 
Q 1322 2244 1188 2822 
Q 1081 3291 891 3722 
Q 769 4003 388 4659 
L 791 4659 
Q 1378 3875 1659 3084 
Q 1900 2403 1900 1659 
Q 1900 816 1576 28 
Q 1253 -759 791 -1347 
z
" transform="scale(0.015625)"/>
      </defs>
      <use xlink:href="#ArialMT-4b"/>
      <use xlink:href="#ArialMT-6e" x="66.699219"/>
      <use xlink:href="#ArialMT-65" x="122.314453"/>
      <use xlink:href="#ArialMT-65" x="177.929688"/>
      <use xlink:href="#ArialMT-20" x="233.544922"/>
      <use xlink:href="#ArialMT-45" x="261.328125"/>
      <use xlink:href="#ArialMT-78" x="328.027344"/>
      <use xlink:href="#ArialMT-74" x="378.027344"/>
      <use xlink:href="#ArialMT-65" x="405.810547"/>
      <use xlink:href="#ArialMT-6e" x="461.425781"/>
      <use xlink:href="#ArialMT-73" x="517.041016"/>
      <use xlink:href="#ArialMT-69" x="567.041016"/>
      <use xlink:href="#ArialMT-6f" x="589.257812"/>
      <use xlink:href="#ArialMT-6e" x="644.873047"/>
      <use xlink:href="#ArialMT-20" x="700.488281"/>
      <use xlink:href="#ArialMT-4d" x="728.271484"/>
      <use xlink:href="#ArialMT-6f" x="811.572266"/>
      <use xlink:href="#ArialMT-6d" x="867.1875"/>
      <use xlink:href="#ArialMT-65" x="950.488281"/>
      <use xlink:href="#ArialMT-6e" x="1006.103516"/>
      <use xlink:href="#ArialMT-74" x="1061.71875"/>
      <use xlink:href="#ArialMT-20" x="1089.501953"/>
      <use xlink:href="#ArialMT-28" x="1117.285156"/>
      <use xlink:href="#ArialMT-4e" x="1150.585938"/>
      <use xlink:href="#ArialMT-6d" x="1222.802734"/>
      <use xlink:href="#ArialMT-29" x="1306.103516"/>
     </g>
    </g>
   </g>
   <g id="matplotlib.axis_2">
    <g id="ytick_1">
     <g id="line2d_4">
      <defs>
       <path id="me53a4f653f" d="M 0 0 
L -3.5 0 
" style="stroke: #000000; stroke-width: 0.8"/>
      </defs>
      <g>
       <use xlink:href="#me53a4f653f" x="41.5" y="177.273035" style="stroke: #000000; stroke-width: 0.8"/>
      </g>
     </g>
     <g id="text_5">
      <!-- −2.0 -->
      <g transform="translate(18.7075 180.13616) scale(0.08 -0.08)">
       <defs>
        <path id="ArialMT-2212" d="M 3381 1997 
L 356 1997 
L 356 2522 
L 3381 2522 
L 3381 1997 
z
" transform="scale(0.015625)"/>
        <path id="ArialMT-32" d="M 3222 541 
L 3222 0 
L 194 0 
Q 188 203 259 391 
Q 375 700 629 1000 
Q 884 1300 1366 1694 
Q 2113 2306 2375 2664 
Q 2638 3022 2638 3341 
Q 2638 3675 2398 3904 
Q 2159 4134 1775 4134 
Q 1369 4134 1125 3890 
Q 881 3647 878 3216 
L 300 3275 
Q 359 3922 746 4261 
Q 1134 4600 1788 4600 
Q 2447 4600 2831 4234 
Q 3216 3869 3216 3328 
Q 3216 3053 3103 2787 
Q 2991 2522 2730 2228 
Q 2469 1934 1863 1422 
Q 1356 997 1212 845 
Q 1069 694 975 541 
L 3222 541 
z
" transform="scale(0.015625)"/>
        <path id="ArialMT-2e" d="M 581 0 
L 581 641 
L 1222 641 
L 1222 0 
L 581 0 
z
" transform="scale(0.015625)"/>
       </defs>
       <use xlink:href="#ArialMT-2212"/>
       <use xlink:href="#ArialMT-32" x="58.398438"/>
       <use xlink:href="#ArialMT-2e" x="114.013672"/>
       <use xlink:href="#ArialMT-30" x="141.796875"/>
      </g>
     </g>
    </g>
    <g id="ytick_2">
     <g id="line2d_5">
      <g>
       <use xlink:href="#me53a4f653f" x="41.5" y="156.430014" style="stroke: #000000; stroke-width: 0.8"/>
      </g>
     </g>
     <g id="text_6">
      <!-- −1.5 -->
      <g transform="translate(18.7075 159.293139) scale(0.08 -0.08)">
       <defs>
        <path id="ArialMT-31" d="M 2384 0 
L 1822 0 
L 1822 3584 
Q 1619 3391 1289 3197 
Q 959 3003 697 2906 
L 697 3450 
Q 1169 3672 1522 3987 
Q 1875 4303 2022 4600 
L 2384 4600 
L 2384 0 
z
" transform="scale(0.015625)"/>
        <path id="ArialMT-35" d="M 266 1200 
L 856 1250 
Q 922 819 1161 601 
Q 1400 384 1738 384 
Q 2144 384 2425 690 
Q 2706 997 2706 1503 
Q 2706 1984 2436 2262 
Q 2166 2541 1728 2541 
Q 1456 2541 1237 2417 
Q 1019 2294 894 2097 
L 366 2166 
L 809 4519 
L 3088 4519 
L 3088 3981 
L 1259 3981 
L 1013 2750 
Q 1425 3038 1878 3038 
Q 2478 3038 2890 2622 
Q 3303 2206 3303 1553 
Q 3303 931 2941 478 
Q 2500 -78 1738 -78 
Q 1113 -78 717 272 
Q 322 622 266 1200 
z
" transform="scale(0.015625)"/>
       </defs>
       <use xlink:href="#ArialMT-2212"/>
       <use xlink:href="#ArialMT-31" x="58.398438"/>
       <use xlink:href="#ArialMT-2e" x="114.013672"/>
       <use xlink:href="#ArialMT-35" x="141.796875"/>
      </g>
     </g>
    </g>
    <g id="ytick_3">
     <g id="line2d_6">
      <g>
       <use xlink:href="#me53a4f653f" x="41.5" y="135.586993" style="stroke: #000000; stroke-width: 0.8"/>
      </g>
     </g>
     <g id="text_7">
      <!-- −1.0 -->
      <g transform="translate(18.7075 138.450118) scale(0.08 -0.08)">
       <use xlink:href="#ArialMT-2212"/>
       <use xlink:href="#ArialMT-31" x="58.398438"/>
       <use xlink:href="#ArialMT-2e" x="114.013672"/>
       <use xlink:href="#ArialMT-30" x="141.796875"/>
      </g>
     </g>
    </g>
    <g id="ytick_4">
     <g id="line2d_7">
      <g>
       <use xlink:href="#me53a4f653f" x="41.5" y="114.743972" style="stroke: #000000; stroke-width: 0.8"/>
      </g>
     </g>
     <g id="text_8">
      <!-- −0.5 -->
      <g transform="translate(18.7075 117.607097) scale(0.08 -0.08)">
       <use xlink:href="#ArialMT-2212"/>
       <use xlink:href="#ArialMT-30" x="58.398438"/>
       <use xlink:href="#ArialMT-2e" x="114.013672"/>
       <use xlink:href="#ArialMT-35" x="141.796875"/>
      </g>
     </g>
    </g>
    <g id="ytick_5">
     <g id="line2d_8">
      <g>
       <use xlink:href="#me53a4f653f" x="41.5" y="93.900951" style="stroke: #000000; stroke-width: 0.8"/>
      </g>
     </g>
     <g id="text_9">
      <!-- 0.0 -->
      <g transform="translate(23.38 96.764076) scale(0.08 -0.08)">
       <use xlink:href="#ArialMT-30"/>
       <use xlink:href="#ArialMT-2e" x="55.615234"/>
       <use xlink:href="#ArialMT-30" x="83.398438"/>
      </g>
     </g>
    </g>
    <g id="ytick_6">
     <g id="line2d_9">
      <g>
       <use xlink:href="#me53a4f653f" x="41.5" y="73.057929" style="stroke: #000000; stroke-width: 0.8"/>
      </g>
     </g>
     <g id="text_10">
      <!-- 0.5 -->
      <g transform="translate(23.38 75.921054) scale(0.08 -0.08)">
       <use xlink:href="#ArialMT-30"/>
       <use xlink:href="#ArialMT-2e" x="55.615234"/>
       <use xlink:href="#ArialMT-35" x="83.398438"/>
      </g>
     </g>
    </g>
    <g id="ytick_7">
     <g id="line2d_10">
      <g>
       <use xlink:href="#me53a4f653f" x="41.5" y="52.214908" style="stroke: #000000; stroke-width: 0.8"/>
      </g>
     </g>
     <g id="text_11">
      <!-- 1.0 -->
      <g transform="translate(23.38 55.078033) scale(0.08 -0.08)">
       <use xlink:href="#ArialMT-31"/>
       <use xlink:href="#ArialMT-2e" x="55.615234"/>
       <use xlink:href="#ArialMT-30" x="83.398438"/>
      </g>
     </g>
    </g>
    <g id="ytick_8">
     <g id="line2d_11">
      <g>
       <use xlink:href="#me53a4f653f" x="41.5" y="31.371887" style="stroke: #000000; stroke-width: 0.8"/>
      </g>
     </g>
     <g id="text_12">
      <!-- 1.5 -->
      <g transform="translate(23.38 34.235012) scale(0.08 -0.08)">
       <use xlink:href="#ArialMT-31"/>
       <use xlink:href="#ArialMT-2e" x="55.615234"/>
       <use xlink:href="#ArialMT-35" x="83.398438"/>
      </g>
     </g>
    </g>
    <g id="text_13">
     <!-- Volume Total (Standardized) -->
     <g transform="translate(13.02375 146.285625) rotate(-90) scale(0.08 -0.08)">
      <defs>
       <path id="ArialMT-56" d="M 1803 0 
L 28 4581 
L 684 4581 
L 1875 1253 
Q 2019 853 2116 503 
Q 2222 878 2363 1253 
L 3600 4581 
L 4219 4581 
L 2425 0 
L 1803 0 
z
" transform="scale(0.015625)"/>
       <path id="ArialMT-6c" d="M 409 0 
L 409 4581 
L 972 4581 
L 972 0 
L 409 0 
z
" transform="scale(0.015625)"/>
       <path id="ArialMT-75" d="M 2597 0 
L 2597 488 
Q 2209 -75 1544 -75 
Q 1250 -75 995 37 
Q 741 150 617 320 
Q 494 491 444 738 
Q 409 903 409 1263 
L 409 3319 
L 972 3319 
L 972 1478 
Q 972 1038 1006 884 
Q 1059 663 1231 536 
Q 1403 409 1656 409 
Q 1909 409 2131 539 
Q 2353 669 2445 892 
Q 2538 1116 2538 1541 
L 2538 3319 
L 3100 3319 
L 3100 0 
L 2597 0 
z
" transform="scale(0.015625)"/>
       <path id="ArialMT-54" d="M 1659 0 
L 1659 4041 
L 150 4041 
L 150 4581 
L 3781 4581 
L 3781 4041 
L 2266 4041 
L 2266 0 
L 1659 0 
z
" transform="scale(0.015625)"/>
       <path id="ArialMT-61" d="M 2588 409 
Q 2275 144 1986 34 
Q 1697 -75 1366 -75 
Q 819 -75 525 192 
Q 231 459 231 875 
Q 231 1119 342 1320 
Q 453 1522 633 1644 
Q 813 1766 1038 1828 
Q 1203 1872 1538 1913 
Q 2219 1994 2541 2106 
Q 2544 2222 2544 2253 
Q 2544 2597 2384 2738 
Q 2169 2928 1744 2928 
Q 1347 2928 1158 2789 
Q 969 2650 878 2297 
L 328 2372 
Q 403 2725 575 2942 
Q 747 3159 1072 3276 
Q 1397 3394 1825 3394 
Q 2250 3394 2515 3294 
Q 2781 3194 2906 3042 
Q 3031 2891 3081 2659 
Q 3109 2516 3109 2141 
L 3109 1391 
Q 3109 606 3145 398 
Q 3181 191 3288 0 
L 2700 0 
Q 2613 175 2588 409 
z
M 2541 1666 
Q 2234 1541 1622 1453 
Q 1275 1403 1131 1340 
Q 988 1278 909 1158 
Q 831 1038 831 891 
Q 831 666 1001 516 
Q 1172 366 1500 366 
Q 1825 366 2078 508 
Q 2331 650 2450 897 
Q 2541 1088 2541 1459 
L 2541 1666 
z
" transform="scale(0.015625)"/>
       <path id="ArialMT-53" d="M 288 1472 
L 859 1522 
Q 900 1178 1048 958 
Q 1197 738 1509 602 
Q 1822 466 2213 466 
Q 2559 466 2825 569 
Q 3091 672 3220 851 
Q 3350 1031 3350 1244 
Q 3350 1459 3225 1620 
Q 3100 1781 2813 1891 
Q 2628 1963 1997 2114 
Q 1366 2266 1113 2400 
Q 784 2572 623 2826 
Q 463 3081 463 3397 
Q 463 3744 659 4045 
Q 856 4347 1234 4503 
Q 1613 4659 2075 4659 
Q 2584 4659 2973 4495 
Q 3363 4331 3572 4012 
Q 3781 3694 3797 3291 
L 3216 3247 
Q 3169 3681 2898 3903 
Q 2628 4125 2100 4125 
Q 1550 4125 1298 3923 
Q 1047 3722 1047 3438 
Q 1047 3191 1225 3031 
Q 1400 2872 2139 2705 
Q 2878 2538 3153 2413 
Q 3553 2228 3743 1945 
Q 3934 1663 3934 1294 
Q 3934 928 3725 604 
Q 3516 281 3123 101 
Q 2731 -78 2241 -78 
Q 1619 -78 1198 103 
Q 778 284 539 648 
Q 300 1013 288 1472 
z
" transform="scale(0.015625)"/>
       <path id="ArialMT-64" d="M 2575 0 
L 2575 419 
Q 2259 -75 1647 -75 
Q 1250 -75 917 144 
Q 584 363 401 755 
Q 219 1147 219 1656 
Q 219 2153 384 2558 
Q 550 2963 881 3178 
Q 1213 3394 1622 3394 
Q 1922 3394 2156 3267 
Q 2391 3141 2538 2938 
L 2538 4581 
L 3097 4581 
L 3097 0 
L 2575 0 
z
M 797 1656 
Q 797 1019 1065 703 
Q 1334 388 1700 388 
Q 2069 388 2326 689 
Q 2584 991 2584 1609 
Q 2584 2291 2321 2609 
Q 2059 2928 1675 2928 
Q 1300 2928 1048 2622 
Q 797 2316 797 1656 
z
" transform="scale(0.015625)"/>
       <path id="ArialMT-72" d="M 416 0 
L 416 3319 
L 922 3319 
L 922 2816 
Q 1116 3169 1280 3281 
Q 1444 3394 1641 3394 
Q 1925 3394 2219 3213 
L 2025 2691 
Q 1819 2813 1613 2813 
Q 1428 2813 1281 2702 
Q 1134 2591 1072 2394 
Q 978 2094 978 1738 
L 978 0 
L 416 0 
z
" transform="scale(0.015625)"/>
       <path id="ArialMT-7a" d="M 125 0 
L 125 456 
L 2238 2881 
Q 1878 2863 1603 2863 
L 250 2863 
L 250 3319 
L 2963 3319 
L 2963 2947 
L 1166 841 
L 819 456 
Q 1197 484 1528 484 
L 3063 484 
L 3063 0 
L 125 0 
z
" transform="scale(0.015625)"/>
      </defs>
      <use xlink:href="#ArialMT-56"/>
      <use xlink:href="#ArialMT-6f" x="61.199219"/>
      <use xlink:href="#ArialMT-6c" x="116.814453"/>
      <use xlink:href="#ArialMT-75" x="139.03125"/>
      <use xlink:href="#ArialMT-6d" x="194.646484"/>
      <use xlink:href="#ArialMT-65" x="277.947266"/>
      <use xlink:href="#ArialMT-20" x="333.5625"/>
      <use xlink:href="#ArialMT-54" x="359.595703"/>
      <use xlink:href="#ArialMT-6f" x="409.554688"/>
      <use xlink:href="#ArialMT-74" x="465.169922"/>
      <use xlink:href="#ArialMT-61" x="492.953125"/>
      <use xlink:href="#ArialMT-6c" x="548.568359"/>
      <use xlink:href="#ArialMT-20" x="570.785156"/>
      <use xlink:href="#ArialMT-28" x="598.568359"/>
      <use xlink:href="#ArialMT-53" x="631.869141"/>
      <use xlink:href="#ArialMT-74" x="698.568359"/>
      <use xlink:href="#ArialMT-61" x="726.351562"/>
      <use xlink:href="#ArialMT-6e" x="781.966797"/>
      <use xlink:href="#ArialMT-64" x="837.582031"/>
      <use xlink:href="#ArialMT-61" x="893.197266"/>
      <use xlink:href="#ArialMT-72" x="948.8125"/>
      <use xlink:href="#ArialMT-64" x="982.113281"/>
      <use xlink:href="#ArialMT-69" x="1037.728516"/>
      <use xlink:href="#ArialMT-7a" x="1059.945312"/>
      <use xlink:href="#ArialMT-65" x="1109.945312"/>
      <use xlink:href="#ArialMT-64" x="1165.560547"/>
      <use xlink:href="#ArialMT-29" x="1221.175781"/>
     </g>
    </g>
   </g>
   <g id="line2d_12">
    <path d="M 46.572727 137.29497 
L 47.597521 136.342268 
L 48.622314 135.389567 
L 49.647107 134.436866 
L 50.671901 133.484164 
L 51.696694 132.531463 
L 52.721488 131.578762 
L 53.746281 130.626061 
L 54.771074 129.673359 
L 55.795868 128.720658 
L 56.820661 127.767957 
L 57.845455 126.815256 
L 58.870248 125.862554 
L 59.895041 124.909853 
L 60.919835 123.957152 
L 61.944628 123.00445 
L 62.969421 122.051749 
L 63.994215 121.099048 
L 65.019008 120.146347 
L 66.043802 119.193645 
L 67.068595 118.240944 
L 68.093388 117.288243 
L 69.118182 116.335542 
L 70.142975 115.38284 
L 71.167769 114.430139 
L 72.192562 113.477438 
L 73.217355 112.524736 
L 74.242149 111.572035 
L 75.266942 110.619334 
L 76.291736 109.666633 
L 77.316529 108.713931 
L 78.341322 107.76123 
L 79.366116 106.808529 
L 80.390909 105.855828 
L 81.415702 104.903126 
L 82.440496 103.950425 
L 83.465289 102.997724 
L 84.490083 102.045022 
L 85.514876 101.092321 
L 86.539669 100.13962 
L 87.564463 99.186919 
L 88.589256 98.234217 
L 89.61405 97.281516 
L 90.638843 96.328815 
L 91.663636 95.376114 
L 92.68843 94.423412 
L 93.713223 93.470711 
L 94.738017 92.51801 
L 95.76281 91.565308 
L 96.787603 90.612607 
L 97.812397 89.659906 
L 98.83719 88.707205 
L 99.861983 87.754503 
L 100.886777 86.801802 
L 101.91157 85.849101 
L 102.936364 84.8964 
L 103.961157 83.943698 
L 104.98595 82.990997 
L 106.010744 82.038296 
L 107.035537 81.085594 
L 108.060331 80.132893 
L 109.085124 79.180192 
L 110.109917 78.227491 
L 111.134711 77.274789 
L 112.159504 76.322088 
L 113.184298 75.369387 
L 114.209091 74.416685 
L 115.233884 73.463984 
L 116.258678 72.511283 
L 117.283471 71.558582 
L 118.308264 70.60588 
L 119.333058 69.653179 
L 120.357851 68.700478 
L 121.382645 67.747777 
L 122.407438 66.795075 
L 123.432231 65.842374 
L 124.457025 64.889673 
L 125.481818 63.936971 
L 126.506612 62.98427 
L 127.531405 62.031569 
L 128.556198 61.078868 
L 129.580992 60.126166 
L 130.605785 59.173465 
L 131.630579 58.220764 
L 132.655372 57.268063 
L 133.680165 56.315361 
L 134.704959 55.36266 
L 135.729752 54.409959 
L 136.754545 53.457257 
L 137.779339 52.504556 
L 138.804132 51.551855 
L 139.828926 50.599154 
L 140.853719 49.646452 
L 141.878512 48.693751 
L 142.903306 47.74105 
L 143.928099 46.788349 
L 144.952893 45.835647 
L 145.977686 44.882946 
L 147.002479 43.930245 
L 148.027273 42.977543 
" clip-path="url(#p6ed02df4d9)" style="fill: none; stroke: #000000; stroke-width: 2; stroke-linecap: square"/>
   </g>
   <g id="patch_3">
    <path d="M 41.5 179.27 
L 41.5 12.95 
" style="fill: none; stroke: #000000; stroke-width: 0.8; stroke-linejoin: miter; stroke-linecap: square"/>
   </g>
   <g id="patch_4">
    <path d="M 41.5 179.27 
L 153.1 179.27 
" style="fill: none; stroke: #000000; stroke-width: 0.8; stroke-linejoin: miter; stroke-linecap: square"/>
   </g>
   <g id="text_14">
    <!-- r=0.63, p=.004 -->
    <g transform="translate(71.28 12.95) scale(0.08 -0.08)">
     <defs>
      <path id="ArialMT-3d" d="M 3381 2694 
L 356 2694 
L 356 3219 
L 3381 3219 
L 3381 2694 
z
M 3381 1303 
L 356 1303 
L 356 1828 
L 3381 1828 
L 3381 1303 
z
" transform="scale(0.015625)"/>
      <path id="ArialMT-33" d="M 269 1209 
L 831 1284 
Q 928 806 1161 595 
Q 1394 384 1728 384 
Q 2125 384 2398 659 
Q 2672 934 2672 1341 
Q 2672 1728 2419 1979 
Q 2166 2231 1775 2231 
Q 1616 2231 1378 2169 
L 1441 2663 
Q 1497 2656 1531 2656 
Q 1891 2656 2178 2843 
Q 2466 3031 2466 3422 
Q 2466 3731 2256 3934 
Q 2047 4138 1716 4138 
Q 1388 4138 1169 3931 
Q 950 3725 888 3313 
L 325 3413 
Q 428 3978 793 4289 
Q 1159 4600 1703 4600 
Q 2078 4600 2393 4439 
Q 2709 4278 2876 4000 
Q 3044 3722 3044 3409 
Q 3044 3113 2884 2869 
Q 2725 2625 2413 2481 
Q 2819 2388 3044 2092 
Q 3269 1797 3269 1353 
Q 3269 753 2831 336 
Q 2394 -81 1725 -81 
Q 1122 -81 723 278 
Q 325 638 269 1209 
z
" transform="scale(0.015625)"/>
      <path id="ArialMT-2c" d="M 569 0 
L 569 641 
L 1209 641 
L 1209 0 
Q 1209 -353 1084 -570 
Q 959 -788 688 -906 
L 531 -666 
Q 709 -588 793 -436 
Q 878 -284 888 0 
L 569 0 
z
" transform="scale(0.015625)"/>
      <path id="ArialMT-70" d="M 422 -1272 
L 422 3319 
L 934 3319 
L 934 2888 
Q 1116 3141 1344 3267 
Q 1572 3394 1897 3394 
Q 2322 3394 2647 3175 
Q 2972 2956 3137 2557 
Q 3303 2159 3303 1684 
Q 3303 1175 3120 767 
Q 2938 359 2589 142 
Q 2241 -75 1856 -75 
Q 1575 -75 1351 44 
Q 1128 163 984 344 
L 984 -1272 
L 422 -1272 
z
M 931 1641 
Q 931 1000 1190 694 
Q 1450 388 1819 388 
Q 2194 388 2461 705 
Q 2728 1022 2728 1688 
Q 2728 2322 2467 2637 
Q 2206 2953 1844 2953 
Q 1484 2953 1207 2617 
Q 931 2281 931 1641 
z
" transform="scale(0.015625)"/>
     </defs>
     <use xlink:href="#ArialMT-72"/>
     <use xlink:href="#ArialMT-3d" x="33.300781"/>
     <use xlink:href="#ArialMT-30" x="91.699219"/>
     <use xlink:href="#ArialMT-2e" x="147.314453"/>
     <use xlink:href="#ArialMT-36" x="175.097656"/>
     <use xlink:href="#ArialMT-33" x="230.712891"/>
     <use xlink:href="#ArialMT-2c" x="286.328125"/>
     <use xlink:href="#ArialMT-20" x="314.111328"/>
     <use xlink:href="#ArialMT-70" x="341.894531"/>
     <use xlink:href="#ArialMT-3d" x="397.509766"/>
     <use xlink:href="#ArialMT-2e" x="455.908203"/>
     <use xlink:href="#ArialMT-30" x="483.691406"/>
     <use xlink:href="#ArialMT-30" x="539.306641"/>
     <use xlink:href="#ArialMT-34" x="594.921875"/>
    </g>
   </g>
  </g>
  <g id="axes_2">
   <g id="patch_5">
    <path d="M 186.58 179.27 
L 298.18 179.27 
L 298.18 12.95 
L 186.58 12.95 
z
" style="fill: #ffffff"/>
   </g>
   <g id="PathCollection_2">
    <g clip-path="url(#pba9a9e6e47)">
     <use xlink:href="#m32559580e1" x="242.298129" y="93.43562" style="fill: #28aeed; stroke: #28aeed"/>
     <use xlink:href="#m32559580e1" x="223.998269" y="108.17615" style="fill: #28aeed; stroke: #28aeed"/>
     <use xlink:href="#m32559580e1" x="286.321853" y="125.15518" style="fill: #28aeed; stroke: #28aeed"/>
     <use xlink:href="#m32559580e1" x="293.107273" y="20.51" style="fill: #28aeed; stroke: #28aeed"/>
     <use xlink:href="#m32559580e1" x="223.44588" y="99.798027" style="fill: #28aeed; stroke: #28aeed"/>
     <use xlink:href="#m32559580e1" x="214.383246" y="106.754929" style="fill: #28aeed; stroke: #28aeed"/>
     <use xlink:href="#m32559580e1" x="229.04579" y="105.647785" style="fill: #28aeed; stroke: #28aeed"/>
     <use xlink:href="#m32559580e1" x="246.248327" y="123.486172" style="fill: #28aeed; stroke: #28aeed"/>
     <use xlink:href="#m32559580e1" x="265.760973" y="59.769321" style="fill: #28aeed; stroke: #28aeed"/>
     <use xlink:href="#m32559580e1" x="211.877351" y="120.520432" style="fill: #28aeed; stroke: #28aeed"/>
     <use xlink:href="#m32559580e1" x="276.259176" y="97.130249" style="fill: #28aeed; stroke: #28aeed"/>
     <use xlink:href="#m32559580e1" x="218.225537" y="148.394184" style="fill: #28aeed; stroke: #28aeed"/>
     <use xlink:href="#m32559580e1" x="224.81045" y="168.231527" style="fill: #28aeed; stroke: #28aeed"/>
     <use xlink:href="#m32559580e1" x="191.652727" y="139.739424" style="fill: #28aeed; stroke: #28aeed"/>
     <use xlink:href="#m32559580e1" x="227.807864" y="162.284106" style="fill: #28aeed; stroke: #28aeed"/>
     <use xlink:href="#m32559580e1" x="267.069801" y="101.100216" style="fill: #28aeed; stroke: #28aeed"/>
     <use xlink:href="#m32559580e1" x="193.741012" y="132.697087" style="fill: #28aeed; stroke: #28aeed"/>
     <use xlink:href="#m32559580e1" x="247.565504" y="100.859238" style="fill: #28aeed; stroke: #28aeed"/>
     <use xlink:href="#m32559580e1" x="244.658947" y="89.019504" style="fill: #28aeed; stroke: #28aeed"/>
    </g>
   </g>
   <g id="PolyCollection_2">
    <path d="M 191.652727 122.156044 
L 191.652727 171.71 
L 192.677521 170.440598 
L 193.702314 169.210088 
L 194.727107 168.043635 
L 195.751901 166.761082 
L 196.776694 165.53426 
L 197.801488 164.307438 
L 198.826281 163.079727 
L 199.851074 161.848646 
L 200.875868 160.617564 
L 201.900661 159.382937 
L 202.925455 158.045619 
L 203.950248 156.848398 
L 204.975041 155.651178 
L 205.999835 154.453958 
L 207.024628 153.130645 
L 208.049421 152.023443 
L 209.074215 150.796868 
L 210.099008 149.570293 
L 211.123802 148.319643 
L 212.148595 146.954113 
L 213.173388 145.588584 
L 214.198182 144.217633 
L 215.222975 142.845909 
L 216.247769 141.474185 
L 217.272562 140.021361 
L 218.297355 138.831709 
L 219.322149 137.949768 
L 220.346942 137.072222 
L 221.371736 136.194157 
L 222.396529 135.310244 
L 223.421322 134.434518 
L 224.446116 133.135358 
L 225.470909 132.18702 
L 226.495702 131.373337 
L 227.520496 130.418957 
L 228.545289 129.529792 
L 229.570083 128.793236 
L 230.594876 128.137095 
L 231.619669 127.479307 
L 232.644463 126.933195 
L 233.669256 126.169442 
L 234.69405 125.407147 
L 235.718843 124.855388 
L 236.743636 124.230651 
L 237.76843 123.694424 
L 238.793223 123.295283 
L 239.818017 122.470053 
L 240.84281 121.993234 
L 241.867603 121.617751 
L 242.892397 121.166482 
L 243.91719 120.761188 
L 244.941983 120.358886 
L 245.966777 119.837112 
L 246.99157 119.22863 
L 248.016364 118.75303 
L 249.041157 118.267525 
L 250.06595 117.870385 
L 251.090744 117.473066 
L 252.115537 117.079942 
L 253.140331 116.668122 
L 254.165124 116.455111 
L 255.189917 116.240701 
L 256.214711 115.92774 
L 257.239504 115.702975 
L 258.264298 115.487714 
L 259.289091 115.249246 
L 260.313884 114.878666 
L 261.338678 114.504807 
L 262.363471 114.162834 
L 263.388264 113.999859 
L 264.413058 113.834918 
L 265.437851 113.540248 
L 266.462645 113.182474 
L 267.487438 112.858717 
L 268.512231 112.569872 
L 269.537025 112.273208 
L 270.561818 112.029018 
L 271.586612 111.784828 
L 272.611405 111.540586 
L 273.636198 111.32762 
L 274.660992 111.070416 
L 275.685785 110.813211 
L 276.710579 110.555747 
L 277.735372 110.298774 
L 278.760165 110.067801 
L 279.784959 109.784394 
L 280.809752 109.52719 
L 281.834545 109.269985 
L 282.859339 109.012781 
L 283.884132 108.755576 
L 284.908926 108.52774 
L 285.933719 108.296463 
L 286.958512 108.043962 
L 287.983306 107.790983 
L 289.008099 107.538003 
L 290.032893 107.28436 
L 291.057686 107.029412 
L 292.082479 106.775953 
L 293.107273 106.523626 
L 293.107273 38.320634 
L 293.107273 38.320634 
L 292.082479 39.579022 
L 291.057686 40.774172 
L 290.032893 42.044094 
L 289.008099 43.311826 
L 287.983306 44.699021 
L 286.958512 46.075813 
L 285.933719 47.301216 
L 284.908926 48.52662 
L 283.884132 49.752024 
L 282.859339 50.97538 
L 281.834545 52.195398 
L 280.809752 53.373216 
L 279.784959 54.625397 
L 278.760165 55.780385 
L 277.735372 56.983886 
L 276.710579 58.281198 
L 275.685785 59.464259 
L 274.660992 60.653387 
L 273.636198 61.775477 
L 272.611405 62.901804 
L 271.586612 64.165493 
L 270.561818 65.470398 
L 269.537025 66.546679 
L 268.512231 67.613478 
L 267.487438 68.68296 
L 266.462645 69.960923 
L 265.437851 70.868149 
L 264.413058 72.278777 
L 263.388264 73.801439 
L 262.363471 74.94379 
L 261.338678 76.044318 
L 260.313884 77.036847 
L 259.289091 78.096506 
L 258.264298 79.344506 
L 257.239504 80.669889 
L 256.214711 81.723142 
L 255.189917 82.7655 
L 254.165124 83.933696 
L 253.140331 84.856698 
L 252.115537 85.970337 
L 251.090744 86.929116 
L 250.06595 87.966848 
L 249.041157 88.957701 
L 248.016364 89.908494 
L 246.99157 90.990177 
L 245.966777 92.056765 
L 244.941983 93.112904 
L 243.91719 94.163786 
L 242.892397 95.188956 
L 241.867603 96.090467 
L 240.84281 97.027235 
L 239.818017 97.933699 
L 238.793223 98.906386 
L 237.76843 99.728048 
L 236.743636 100.740686 
L 235.718843 101.760741 
L 234.69405 102.752629 
L 233.669256 103.634154 
L 232.644463 104.455015 
L 231.619669 105.364745 
L 230.594876 106.118834 
L 229.570083 107.011176 
L 228.545289 107.863388 
L 227.520496 108.646597 
L 226.495702 109.339121 
L 225.470909 110.029116 
L 224.446116 110.632277 
L 223.421322 111.27493 
L 222.396529 111.759033 
L 221.371736 112.345955 
L 220.346942 112.730632 
L 219.322149 113.180484 
L 218.297355 113.579758 
L 217.272562 113.870412 
L 216.247769 114.237502 
L 215.222975 114.61068 
L 214.198182 115.099339 
L 213.173388 115.357072 
L 212.148595 115.902897 
L 211.123802 116.336891 
L 210.099008 116.786124 
L 209.074215 117.054317 
L 208.049421 117.297474 
L 207.024628 117.629552 
L 205.999835 117.909236 
L 204.975041 118.187281 
L 203.950248 118.466439 
L 202.925455 118.745597 
L 201.900661 119.024755 
L 200.875868 119.303913 
L 199.851074 119.583553 
L 198.826281 119.865605 
L 197.801488 120.147945 
L 196.776694 120.430643 
L 195.751901 120.716655 
L 194.727107 121.074963 
L 193.702314 121.434518 
L 192.677521 121.795281 
L 191.652727 122.156044 
z
" clip-path="url(#pba9a9e6e47)" style="fill-opacity: 0.15"/>
   </g>
   <g id="matplotlib.axis_3">
    <g id="xtick_4">
     <g id="line2d_13">
      <g>
       <use xlink:href="#mb95c6a0b87" x="212.773843" y="179.27" style="stroke: #000000; stroke-width: 0.8"/>
      </g>
     </g>
     <g id="text_15">
      <!-- 40 -->
      <g transform="translate(208.325093 191.99625) scale(0.08 -0.08)">
       <use xlink:href="#ArialMT-34"/>
       <use xlink:href="#ArialMT-30" x="55.615234"/>
      </g>
     </g>
    </g>
    <g id="xtick_5">
     <g id="line2d_14">
      <g>
       <use xlink:href="#mb95c6a0b87" x="244.024688" y="179.27" style="stroke: #000000; stroke-width: 0.8"/>
      </g>
     </g>
     <g id="text_16">
      <!-- 60 -->
      <g transform="translate(239.575938 191.99625) scale(0.08 -0.08)">
       <use xlink:href="#ArialMT-36"/>
       <use xlink:href="#ArialMT-30" x="55.615234"/>
      </g>
     </g>
    </g>
    <g id="xtick_6">
     <g id="line2d_15">
      <g>
       <use xlink:href="#mb95c6a0b87" x="275.275532" y="179.27" style="stroke: #000000; stroke-width: 0.8"/>
      </g>
     </g>
     <g id="text_17">
      <!-- 80 -->
      <g transform="translate(270.826782 191.99625) scale(0.08 -0.08)">
       <use xlink:href="#ArialMT-38"/>
       <use xlink:href="#ArialMT-30" x="55.615234"/>
      </g>
     </g>
    </g>
    <g id="text_18">
     <!-- Knee Extension Moment (Nm) -->
     <g transform="translate(188.806875 203.41) scale(0.08 -0.08)">
      <use xlink:href="#ArialMT-4b"/>
      <use xlink:href="#ArialMT-6e" x="66.699219"/>
      <use xlink:href="#ArialMT-65" x="122.314453"/>
      <use xlink:href="#ArialMT-65" x="177.929688"/>
      <use xlink:href="#ArialMT-20" x="233.544922"/>
      <use xlink:href="#ArialMT-45" x="261.328125"/>
      <use xlink:href="#ArialMT-78" x="328.027344"/>
      <use xlink:href="#ArialMT-74" x="378.027344"/>
      <use xlink:href="#ArialMT-65" x="405.810547"/>
      <use xlink:href="#ArialMT-6e" x="461.425781"/>
      <use xlink:href="#ArialMT-73" x="517.041016"/>
      <use xlink:href="#ArialMT-69" x="567.041016"/>
      <use xlink:href="#ArialMT-6f" x="589.257812"/>
      <use xlink:href="#ArialMT-6e" x="644.873047"/>
      <use xlink:href="#ArialMT-20" x="700.488281"/>
      <use xlink:href="#ArialMT-4d" x="728.271484"/>
      <use xlink:href="#ArialMT-6f" x="811.572266"/>
      <use xlink:href="#ArialMT-6d" x="867.1875"/>
      <use xlink:href="#ArialMT-65" x="950.488281"/>
      <use xlink:href="#ArialMT-6e" x="1006.103516"/>
      <use xlink:href="#ArialMT-74" x="1061.71875"/>
      <use xlink:href="#ArialMT-20" x="1089.501953"/>
      <use xlink:href="#ArialMT-28" x="1117.285156"/>
      <use xlink:href="#ArialMT-4e" x="1150.585938"/>
      <use xlink:href="#ArialMT-6d" x="1222.802734"/>
      <use xlink:href="#ArialMT-29" x="1306.103516"/>
     </g>
    </g>
   </g>
   <g id="matplotlib.axis_4">
    <g id="ytick_9">
     <g id="line2d_16">
      <g>
       <use xlink:href="#me53a4f653f" x="186.58" y="177.512613" style="stroke: #000000; stroke-width: 0.8"/>
      </g>
     </g>
     <g id="text_19">
      <!-- −2 -->
      <g transform="translate(170.45875 180.375738) scale(0.08 -0.08)">
       <use xlink:href="#ArialMT-2212"/>
       <use xlink:href="#ArialMT-32" x="58.398438"/>
      </g>
     </g>
    </g>
    <g id="ytick_10">
     <g id="line2d_17">
      <g>
       <use xlink:href="#me53a4f653f" x="186.58" y="144.090758" style="stroke: #000000; stroke-width: 0.8"/>
      </g>
     </g>
     <g id="text_20">
      <!-- −1 -->
      <g transform="translate(170.45875 146.953883) scale(0.08 -0.08)">
       <use xlink:href="#ArialMT-2212"/>
       <use xlink:href="#ArialMT-31" x="58.398438"/>
      </g>
     </g>
    </g>
    <g id="ytick_11">
     <g id="line2d_18">
      <g>
       <use xlink:href="#me53a4f653f" x="186.58" y="110.668903" style="stroke: #000000; stroke-width: 0.8"/>
      </g>
     </g>
     <g id="text_21">
      <!-- 0 -->
      <g transform="translate(175.13125 113.532028) scale(0.08 -0.08)">
       <use xlink:href="#ArialMT-30"/>
      </g>
     </g>
    </g>
    <g id="ytick_12">
     <g id="line2d_19">
      <g>
       <use xlink:href="#me53a4f653f" x="186.58" y="77.247047" style="stroke: #000000; stroke-width: 0.8"/>
      </g>
     </g>
     <g id="text_22">
      <!-- 1 -->
      <g transform="translate(175.13125 80.110172) scale(0.08 -0.08)">
       <use xlink:href="#ArialMT-31"/>
      </g>
     </g>
    </g>
    <g id="ytick_13">
     <g id="line2d_20">
      <g>
       <use xlink:href="#me53a4f653f" x="186.58" y="43.825192" style="stroke: #000000; stroke-width: 0.8"/>
      </g>
     </g>
     <g id="text_23">
      <!-- 2 -->
      <g transform="translate(175.13125 46.688317) scale(0.08 -0.08)">
       <use xlink:href="#ArialMT-32"/>
      </g>
     </g>
    </g>
    <g id="text_24">
     <!-- Radial Diffusivity (Standardized) -->
     <g transform="translate(164.775 152.949375) rotate(-90) scale(0.08 -0.08)">
      <defs>
       <path id="ArialMT-52" d="M 503 0 
L 503 4581 
L 2534 4581 
Q 3147 4581 3465 4457 
Q 3784 4334 3975 4021 
Q 4166 3709 4166 3331 
Q 4166 2844 3850 2509 
Q 3534 2175 2875 2084 
Q 3116 1969 3241 1856 
Q 3506 1613 3744 1247 
L 4541 0 
L 3778 0 
L 3172 953 
Q 2906 1366 2734 1584 
Q 2563 1803 2427 1890 
Q 2291 1978 2150 2013 
Q 2047 2034 1813 2034 
L 1109 2034 
L 1109 0 
L 503 0 
z
M 1109 2559 
L 2413 2559 
Q 2828 2559 3062 2645 
Q 3297 2731 3419 2920 
Q 3541 3109 3541 3331 
Q 3541 3656 3305 3865 
Q 3069 4075 2559 4075 
L 1109 4075 
L 1109 2559 
z
" transform="scale(0.015625)"/>
       <path id="ArialMT-44" d="M 494 0 
L 494 4581 
L 2072 4581 
Q 2606 4581 2888 4516 
Q 3281 4425 3559 4188 
Q 3922 3881 4101 3404 
Q 4281 2928 4281 2316 
Q 4281 1794 4159 1391 
Q 4038 988 3847 723 
Q 3656 459 3429 307 
Q 3203 156 2883 78 
Q 2563 0 2147 0 
L 494 0 
z
M 1100 541 
L 2078 541 
Q 2531 541 2789 625 
Q 3047 709 3200 863 
Q 3416 1078 3536 1442 
Q 3656 1806 3656 2325 
Q 3656 3044 3420 3430 
Q 3184 3816 2847 3947 
Q 2603 4041 2063 4041 
L 1100 4041 
L 1100 541 
z
" transform="scale(0.015625)"/>
       <path id="ArialMT-66" d="M 556 0 
L 556 2881 
L 59 2881 
L 59 3319 
L 556 3319 
L 556 3672 
Q 556 4006 616 4169 
Q 697 4388 901 4523 
Q 1106 4659 1475 4659 
Q 1713 4659 2000 4603 
L 1916 4113 
Q 1741 4144 1584 4144 
Q 1328 4144 1222 4034 
Q 1116 3925 1116 3625 
L 1116 3319 
L 1763 3319 
L 1763 2881 
L 1116 2881 
L 1116 0 
L 556 0 
z
" transform="scale(0.015625)"/>
       <path id="ArialMT-76" d="M 1344 0 
L 81 3319 
L 675 3319 
L 1388 1331 
Q 1503 1009 1600 663 
Q 1675 925 1809 1294 
L 2547 3319 
L 3125 3319 
L 1869 0 
L 1344 0 
z
" transform="scale(0.015625)"/>
       <path id="ArialMT-79" d="M 397 -1278 
L 334 -750 
Q 519 -800 656 -800 
Q 844 -800 956 -737 
Q 1069 -675 1141 -563 
Q 1194 -478 1313 -144 
Q 1328 -97 1363 -6 
L 103 3319 
L 709 3319 
L 1400 1397 
Q 1534 1031 1641 628 
Q 1738 1016 1872 1384 
L 2581 3319 
L 3144 3319 
L 1881 -56 
Q 1678 -603 1566 -809 
Q 1416 -1088 1222 -1217 
Q 1028 -1347 759 -1347 
Q 597 -1347 397 -1278 
z
" transform="scale(0.015625)"/>
      </defs>
      <use xlink:href="#ArialMT-52"/>
      <use xlink:href="#ArialMT-61" x="72.216797"/>
      <use xlink:href="#ArialMT-64" x="127.832031"/>
      <use xlink:href="#ArialMT-69" x="183.447266"/>
      <use xlink:href="#ArialMT-61" x="205.664062"/>
      <use xlink:href="#ArialMT-6c" x="261.279297"/>
      <use xlink:href="#ArialMT-20" x="283.496094"/>
      <use xlink:href="#ArialMT-44" x="311.279297"/>
      <use xlink:href="#ArialMT-69" x="383.496094"/>
      <use xlink:href="#ArialMT-66" x="405.712891"/>
      <use xlink:href="#ArialMT-66" x="431.746094"/>
      <use xlink:href="#ArialMT-75" x="459.529297"/>
      <use xlink:href="#ArialMT-73" x="515.144531"/>
      <use xlink:href="#ArialMT-69" x="565.144531"/>
      <use xlink:href="#ArialMT-76" x="587.361328"/>
      <use xlink:href="#ArialMT-69" x="637.361328"/>
      <use xlink:href="#ArialMT-74" x="659.578125"/>
      <use xlink:href="#ArialMT-79" x="687.361328"/>
      <use xlink:href="#ArialMT-20" x="737.361328"/>
      <use xlink:href="#ArialMT-28" x="765.144531"/>
      <use xlink:href="#ArialMT-53" x="798.445312"/>
      <use xlink:href="#ArialMT-74" x="865.144531"/>
      <use xlink:href="#ArialMT-61" x="892.927734"/>
      <use xlink:href="#ArialMT-6e" x="948.542969"/>
      <use xlink:href="#ArialMT-64" x="1004.158203"/>
      <use xlink:href="#ArialMT-61" x="1059.773438"/>
      <use xlink:href="#ArialMT-72" x="1115.388672"/>
      <use xlink:href="#ArialMT-64" x="1148.689453"/>
      <use xlink:href="#ArialMT-69" x="1204.304688"/>
      <use xlink:href="#ArialMT-7a" x="1226.521484"/>
      <use xlink:href="#ArialMT-65" x="1276.521484"/>
      <use xlink:href="#ArialMT-64" x="1332.136719"/>
      <use xlink:href="#ArialMT-29" x="1387.751953"/>
     </g>
    </g>
   </g>
   <g id="line2d_21">
    <path d="M 191.652727 144.393458 
L 192.677521 143.653046 
L 193.702314 142.912635 
L 194.727107 142.172223 
L 195.751901 141.431812 
L 196.776694 140.691401 
L 197.801488 139.950989 
L 198.826281 139.210578 
L 199.851074 138.470166 
L 200.875868 137.729755 
L 201.900661 136.989344 
L 202.925455 136.248932 
L 203.950248 135.508521 
L 204.975041 134.768109 
L 205.999835 134.027698 
L 207.024628 133.287287 
L 208.049421 132.546875 
L 209.074215 131.806464 
L 210.099008 131.066052 
L 211.123802 130.325641 
L 212.148595 129.58523 
L 213.173388 128.844818 
L 214.198182 128.104407 
L 215.222975 127.363995 
L 216.247769 126.623584 
L 217.272562 125.883173 
L 218.297355 125.142761 
L 219.322149 124.40235 
L 220.346942 123.661938 
L 221.371736 122.921527 
L 222.396529 122.181116 
L 223.421322 121.440704 
L 224.446116 120.700293 
L 225.470909 119.959881 
L 226.495702 119.21947 
L 227.520496 118.479059 
L 228.545289 117.738647 
L 229.570083 116.998236 
L 230.594876 116.257824 
L 231.619669 115.517413 
L 232.644463 114.777002 
L 233.669256 114.03659 
L 234.69405 113.296179 
L 235.718843 112.555767 
L 236.743636 111.815356 
L 237.76843 111.074945 
L 238.793223 110.334533 
L 239.818017 109.594122 
L 240.84281 108.85371 
L 241.867603 108.113299 
L 242.892397 107.372888 
L 243.91719 106.632476 
L 244.941983 105.892065 
L 245.966777 105.151653 
L 246.99157 104.411242 
L 248.016364 103.670831 
L 249.041157 102.930419 
L 250.06595 102.190008 
L 251.090744 101.449596 
L 252.115537 100.709185 
L 253.140331 99.968774 
L 254.165124 99.228362 
L 255.189917 98.487951 
L 256.214711 97.747539 
L 257.239504 97.007128 
L 258.264298 96.266717 
L 259.289091 95.526305 
L 260.313884 94.785894 
L 261.338678 94.045482 
L 262.363471 93.305071 
L 263.388264 92.56466 
L 264.413058 91.824248 
L 265.437851 91.083837 
L 266.462645 90.343425 
L 267.487438 89.603014 
L 268.512231 88.862603 
L 269.537025 88.122191 
L 270.561818 87.38178 
L 271.586612 86.641368 
L 272.611405 85.900957 
L 273.636198 85.160546 
L 274.660992 84.420134 
L 275.685785 83.679723 
L 276.710579 82.939311 
L 277.735372 82.1989 
L 278.760165 81.458489 
L 279.784959 80.718077 
L 280.809752 79.977666 
L 281.834545 79.237254 
L 282.859339 78.496843 
L 283.884132 77.756432 
L 284.908926 77.01602 
L 285.933719 76.275609 
L 286.958512 75.535197 
L 287.983306 74.794786 
L 289.008099 74.054375 
L 290.032893 73.313963 
L 291.057686 72.573552 
L 292.082479 71.83314 
L 293.107273 71.092729 
" clip-path="url(#pba9a9e6e47)" style="fill: none; stroke: #000000; stroke-width: 2; stroke-linecap: square"/>
   </g>
   <g id="patch_6">
    <path d="M 186.58 179.27 
L 186.58 12.95 
" style="fill: none; stroke: #000000; stroke-width: 0.8; stroke-linejoin: miter; stroke-linecap: square"/>
   </g>
   <g id="patch_7">
    <path d="M 186.58 179.27 
L 298.18 179.27 
" style="fill: none; stroke: #000000; stroke-width: 0.8; stroke-linejoin: miter; stroke-linecap: square"/>
   </g>
   <g id="text_25">
    <!-- r=0.61, p=.005 -->
    <g transform="translate(216.36 12.95) scale(0.08 -0.08)">
     <use xlink:href="#ArialMT-72"/>
     <use xlink:href="#ArialMT-3d" x="33.300781"/>
     <use xlink:href="#ArialMT-30" x="91.699219"/>
     <use xlink:href="#ArialMT-2e" x="147.314453"/>
     <use xlink:href="#ArialMT-36" x="175.097656"/>
     <use xlink:href="#ArialMT-31" x="230.712891"/>
     <use xlink:href="#ArialMT-2c" x="286.328125"/>
     <use xlink:href="#ArialMT-20" x="314.111328"/>
     <use xlink:href="#ArialMT-70" x="341.894531"/>
     <use xlink:href="#ArialMT-3d" x="397.509766"/>
     <use xlink:href="#ArialMT-2e" x="455.908203"/>
     <use xlink:href="#ArialMT-30" x="483.691406"/>
     <use xlink:href="#ArialMT-30" x="539.306641"/>
     <use xlink:href="#ArialMT-35" x="594.921875"/>
    </g>
   </g>
  </g>
  <g id="axes_3">
   <g id="patch_8">
    <path d="M 331.66 179.27 
L 443.26 179.27 
L 443.26 12.95 
L 331.66 12.95 
z
" style="fill: #ffffff"/>
   </g>
   <g id="PathCollection_3">
    <g clip-path="url(#pa269f0413d)">
     <use xlink:href="#m32559580e1" x="387.378129" y="76.200428" style="fill: #28aeed; stroke: #28aeed"/>
     <use xlink:href="#m32559580e1" x="369.078269" y="135.842391" style="fill: #28aeed; stroke: #28aeed"/>
     <use xlink:href="#m32559580e1" x="431.401853" y="96.117943" style="fill: #28aeed; stroke: #28aeed"/>
     <use xlink:href="#m32559580e1" x="438.187273" y="20.51" style="fill: #28aeed; stroke: #28aeed"/>
     <use xlink:href="#m32559580e1" x="368.52588" y="110.159014" style="fill: #28aeed; stroke: #28aeed"/>
     <use xlink:href="#m32559580e1" x="359.463246" y="116.893878" style="fill: #28aeed; stroke: #28aeed"/>
     <use xlink:href="#m32559580e1" x="374.12579" y="124.34513" style="fill: #28aeed; stroke: #28aeed"/>
     <use xlink:href="#m32559580e1" x="391.328327" y="119.298764" style="fill: #28aeed; stroke: #28aeed"/>
     <use xlink:href="#m32559580e1" x="410.840973" y="74.742984" style="fill: #28aeed; stroke: #28aeed"/>
     <use xlink:href="#m32559580e1" x="356.957351" y="141.383872" style="fill: #28aeed; stroke: #28aeed"/>
     <use xlink:href="#m32559580e1" x="421.339176" y="71.766141" style="fill: #28aeed; stroke: #28aeed"/>
     <use xlink:href="#m32559580e1" x="363.305537" y="140.086004" style="fill: #28aeed; stroke: #28aeed"/>
     <use xlink:href="#m32559580e1" x="369.89045" y="158.640598" style="fill: #28aeed; stroke: #28aeed"/>
     <use xlink:href="#m32559580e1" x="336.732727" y="111.831758" style="fill: #28aeed; stroke: #28aeed"/>
     <use xlink:href="#m32559580e1" x="372.887864" y="114.440728" style="fill: #28aeed; stroke: #28aeed"/>
     <use xlink:href="#m32559580e1" x="412.149801" y="83.164352" style="fill: #28aeed; stroke: #28aeed"/>
     <use xlink:href="#m32559580e1" x="338.821012" y="147.878185" style="fill: #28aeed; stroke: #28aeed"/>
     <use xlink:href="#m32559580e1" x="392.645504" y="123.58269" style="fill: #28aeed; stroke: #28aeed"/>
     <use xlink:href="#m32559580e1" x="389.738947" y="90.957168" style="fill: #28aeed; stroke: #28aeed"/>
    </g>
   </g>
   <g id="PolyCollection_3">
    <path d="M 336.732727 131.094038 
L 336.732727 171.71 
L 337.757521 170.434784 
L 338.782314 169.134328 
L 339.807107 167.833045 
L 340.831901 166.531103 
L 341.856694 165.174434 
L 342.881488 163.869826 
L 343.906281 162.624464 
L 344.931074 161.324576 
L 345.955868 160.024688 
L 346.980661 158.724063 
L 348.005455 157.42131 
L 349.030248 156.117727 
L 350.055041 154.814144 
L 351.079835 153.510561 
L 352.104628 152.287742 
L 353.129421 151.101051 
L 354.154215 149.91215 
L 355.179008 148.619844 
L 356.203802 147.263794 
L 357.228595 145.905763 
L 358.253388 144.679026 
L 359.278182 143.4675 
L 360.302975 142.257584 
L 361.327769 140.90158 
L 362.352562 139.674016 
L 363.377355 138.547447 
L 364.402149 137.299394 
L 365.426942 136.023016 
L 366.451736 134.74853 
L 367.476529 133.512118 
L 368.501322 132.396139 
L 369.526116 131.09053 
L 370.550909 129.83443 
L 371.575702 128.626548 
L 372.600496 127.548648 
L 373.625289 126.477943 
L 374.650083 125.500155 
L 375.674876 124.544648 
L 376.699669 123.589667 
L 377.724463 122.62962 
L 378.749256 121.706936 
L 379.77405 120.873852 
L 380.798843 119.850138 
L 381.823636 119.148826 
L 382.84843 118.303581 
L 383.873223 117.359473 
L 384.898017 116.511448 
L 385.92281 115.585915 
L 386.947603 114.911656 
L 387.972397 114.273094 
L 388.99719 113.431779 
L 390.021983 112.613374 
L 391.046777 112.069617 
L 392.07157 111.316581 
L 393.096364 110.545121 
L 394.121157 109.892457 
L 395.14595 109.423807 
L 396.170744 108.764632 
L 397.195537 108.164295 
L 398.220331 107.659629 
L 399.245124 107.157239 
L 400.269917 106.653602 
L 401.294711 106.075861 
L 402.319504 105.446169 
L 403.344298 104.841333 
L 404.369091 104.340585 
L 405.393884 103.631167 
L 406.418678 102.972141 
L 407.443471 102.301564 
L 408.468264 101.683299 
L 409.493058 101.157493 
L 410.517851 100.664664 
L 411.542645 100.181677 
L 412.567438 99.730628 
L 413.592231 99.292819 
L 414.617025 98.744679 
L 415.641818 98.12028 
L 416.666612 97.667406 
L 417.691405 97.125054 
L 418.716198 96.513495 
L 419.740992 95.912789 
L 420.765785 95.341373 
L 421.790579 94.680371 
L 422.815372 94.223347 
L 423.840165 93.812862 
L 424.864959 93.438732 
L 425.889752 93.049169 
L 426.914545 92.579837 
L 427.939339 92.008929 
L 428.964132 91.436872 
L 429.988926 90.864479 
L 431.013719 90.253069 
L 432.038512 89.698933 
L 433.063306 89.153105 
L 434.088099 88.581938 
L 435.112893 88.010546 
L 436.137686 87.440901 
L 437.162479 86.980964 
L 438.187273 86.470797 
L 438.187273 36.356468 
L 438.187273 36.356468 
L 437.162479 37.611151 
L 436.137686 38.92171 
L 435.112893 40.118096 
L 434.088099 41.336125 
L 433.063306 42.658536 
L 432.038512 44.004897 
L 431.013719 45.352456 
L 429.988926 46.672594 
L 428.964132 47.864284 
L 427.939339 49.065471 
L 426.914545 50.244076 
L 425.889752 51.42326 
L 424.864959 52.831821 
L 423.840165 54.176102 
L 422.815372 55.340632 
L 421.790579 56.622522 
L 420.765785 57.824948 
L 419.740992 59.021137 
L 418.716198 60.22633 
L 417.691405 61.46756 
L 416.666612 62.687903 
L 415.641818 63.83647 
L 414.617025 65.241851 
L 413.592231 66.502535 
L 412.567438 67.765827 
L 411.542645 69.051786 
L 410.517851 70.284889 
L 409.493058 71.532993 
L 408.468264 72.744117 
L 407.443471 73.951475 
L 406.418678 75.017875 
L 405.393884 76.292807 
L 404.369091 77.347646 
L 403.344298 78.412284 
L 402.319504 79.570602 
L 401.294711 80.794517 
L 400.269917 81.988953 
L 399.245124 83.101505 
L 398.220331 84.305314 
L 397.195537 85.504083 
L 396.170744 86.652855 
L 395.14595 87.510053 
L 394.121157 88.416728 
L 393.096364 89.524045 
L 392.07157 90.635755 
L 391.046777 91.657362 
L 390.021983 92.74374 
L 388.99719 93.838446 
L 387.972397 94.932345 
L 386.947603 96.128953 
L 385.92281 97.196897 
L 384.898017 98.200808 
L 383.873223 99.187832 
L 382.84843 100.214167 
L 381.823636 101.170657 
L 380.798843 102.225038 
L 379.77405 103.09185 
L 378.749256 104.016824 
L 377.724463 104.84748 
L 376.699669 105.572044 
L 375.674876 106.264904 
L 374.650083 107.06702 
L 373.625289 107.850301 
L 372.600496 108.754873 
L 371.575702 109.484159 
L 370.550909 110.424009 
L 369.526116 111.273474 
L 368.501322 111.977981 
L 367.476529 112.724568 
L 366.451736 113.490051 
L 365.426942 114.184544 
L 364.402149 114.901034 
L 363.377355 115.625264 
L 362.352562 116.337911 
L 361.327769 117.075328 
L 360.302975 117.798359 
L 359.278182 118.306603 
L 358.253388 118.948607 
L 357.228595 119.628064 
L 356.203802 120.271477 
L 355.179008 120.863177 
L 354.154215 121.413476 
L 353.129421 122.044906 
L 352.104628 122.58613 
L 351.079835 123.138417 
L 350.055041 123.669716 
L 349.030248 124.334034 
L 348.005455 124.815568 
L 346.980661 125.258462 
L 345.955868 125.823594 
L 344.931074 126.379856 
L 343.906281 126.923735 
L 342.881488 127.455356 
L 341.856694 128.001237 
L 340.831901 128.640226 
L 339.807107 129.251179 
L 338.782314 129.83703 
L 337.757521 130.446295 
L 336.732727 131.094038 
z
" clip-path="url(#pa269f0413d)" style="fill-opacity: 0.15"/>
   </g>
   <g id="matplotlib.axis_5">
    <g id="xtick_7">
     <g id="line2d_22">
      <g>
       <use xlink:href="#mb95c6a0b87" x="357.853843" y="179.27" style="stroke: #000000; stroke-width: 0.8"/>
      </g>
     </g>
     <g id="text_26">
      <!-- 40 -->
      <g transform="translate(353.405093 191.99625) scale(0.08 -0.08)">
       <use xlink:href="#ArialMT-34"/>
       <use xlink:href="#ArialMT-30" x="55.615234"/>
      </g>
     </g>
    </g>
    <g id="xtick_8">
     <g id="line2d_23">
      <g>
       <use xlink:href="#mb95c6a0b87" x="389.104688" y="179.27" style="stroke: #000000; stroke-width: 0.8"/>
      </g>
     </g>
     <g id="text_27">
      <!-- 60 -->
      <g transform="translate(384.655938 191.99625) scale(0.08 -0.08)">
       <use xlink:href="#ArialMT-36"/>
       <use xlink:href="#ArialMT-30" x="55.615234"/>
      </g>
     </g>
    </g>
    <g id="xtick_9">
     <g id="line2d_24">
      <g>
       <use xlink:href="#mb95c6a0b87" x="420.355532" y="179.27" style="stroke: #000000; stroke-width: 0.8"/>
      </g>
     </g>
     <g id="text_28">
      <!-- 80 -->
      <g transform="translate(415.906782 191.99625) scale(0.08 -0.08)">
       <use xlink:href="#ArialMT-38"/>
       <use xlink:href="#ArialMT-30" x="55.615234"/>
      </g>
     </g>
    </g>
    <g id="text_29">
     <!-- Knee Extension Moment (Nm) -->
     <g transform="translate(333.886875 203.41) scale(0.08 -0.08)">
      <use xlink:href="#ArialMT-4b"/>
      <use xlink:href="#ArialMT-6e" x="66.699219"/>
      <use xlink:href="#ArialMT-65" x="122.314453"/>
      <use xlink:href="#ArialMT-65" x="177.929688"/>
      <use xlink:href="#ArialMT-20" x="233.544922"/>
      <use xlink:href="#ArialMT-45" x="261.328125"/>
      <use xlink:href="#ArialMT-78" x="328.027344"/>
      <use xlink:href="#ArialMT-74" x="378.027344"/>
      <use xlink:href="#ArialMT-65" x="405.810547"/>
      <use xlink:href="#ArialMT-6e" x="461.425781"/>
      <use xlink:href="#ArialMT-73" x="517.041016"/>
      <use xlink:href="#ArialMT-69" x="567.041016"/>
      <use xlink:href="#ArialMT-6f" x="589.257812"/>
      <use xlink:href="#ArialMT-6e" x="644.873047"/>
      <use xlink:href="#ArialMT-20" x="700.488281"/>
      <use xlink:href="#ArialMT-4d" x="728.271484"/>
      <use xlink:href="#ArialMT-6f" x="811.572266"/>
      <use xlink:href="#ArialMT-6d" x="867.1875"/>
      <use xlink:href="#ArialMT-65" x="950.488281"/>
      <use xlink:href="#ArialMT-6e" x="1006.103516"/>
      <use xlink:href="#ArialMT-74" x="1061.71875"/>
      <use xlink:href="#ArialMT-20" x="1089.501953"/>
      <use xlink:href="#ArialMT-28" x="1117.285156"/>
      <use xlink:href="#ArialMT-4e" x="1150.585938"/>
      <use xlink:href="#ArialMT-6d" x="1222.802734"/>
      <use xlink:href="#ArialMT-29" x="1306.103516"/>
     </g>
    </g>
   </g>
   <g id="matplotlib.axis_6">
    <g id="ytick_14">
     <g id="line2d_25">
      <g>
       <use xlink:href="#me53a4f653f" x="331.66" y="168.610532" style="stroke: #000000; stroke-width: 0.8"/>
      </g>
     </g>
     <g id="text_30">
      <!-- −3 -->
      <g transform="translate(315.53875 171.473657) scale(0.08 -0.08)">
       <use xlink:href="#ArialMT-2212"/>
       <use xlink:href="#ArialMT-33" x="58.398438"/>
      </g>
     </g>
    </g>
    <g id="ytick_15">
     <g id="line2d_26">
      <g>
       <use xlink:href="#me53a4f653f" x="331.66" y="148.509513" style="stroke: #000000; stroke-width: 0.8"/>
      </g>
     </g>
     <g id="text_31">
      <!-- −2 -->
      <g transform="translate(315.53875 151.372638) scale(0.08 -0.08)">
       <use xlink:href="#ArialMT-2212"/>
       <use xlink:href="#ArialMT-32" x="58.398438"/>
      </g>
     </g>
    </g>
    <g id="ytick_16">
     <g id="line2d_27">
      <g>
       <use xlink:href="#me53a4f653f" x="331.66" y="128.408494" style="stroke: #000000; stroke-width: 0.8"/>
      </g>
     </g>
     <g id="text_32">
      <!-- −1 -->
      <g transform="translate(315.53875 131.271619) scale(0.08 -0.08)">
       <use xlink:href="#ArialMT-2212"/>
       <use xlink:href="#ArialMT-31" x="58.398438"/>
      </g>
     </g>
    </g>
    <g id="ytick_17">
     <g id="line2d_28">
      <g>
       <use xlink:href="#me53a4f653f" x="331.66" y="108.307475" style="stroke: #000000; stroke-width: 0.8"/>
      </g>
     </g>
     <g id="text_33">
      <!-- 0 -->
      <g transform="translate(320.21125 111.1706) scale(0.08 -0.08)">
       <use xlink:href="#ArialMT-30"/>
      </g>
     </g>
    </g>
    <g id="ytick_18">
     <g id="line2d_29">
      <g>
       <use xlink:href="#me53a4f653f" x="331.66" y="88.206456" style="stroke: #000000; stroke-width: 0.8"/>
      </g>
     </g>
     <g id="text_34">
      <!-- 1 -->
      <g transform="translate(320.21125 91.069581) scale(0.08 -0.08)">
       <use xlink:href="#ArialMT-31"/>
      </g>
     </g>
    </g>
    <g id="ytick_19">
     <g id="line2d_30">
      <g>
       <use xlink:href="#me53a4f653f" x="331.66" y="68.105437" style="stroke: #000000; stroke-width: 0.8"/>
      </g>
     </g>
     <g id="text_35">
      <!-- 2 -->
      <g transform="translate(320.21125 70.968562) scale(0.08 -0.08)">
       <use xlink:href="#ArialMT-32"/>
      </g>
     </g>
    </g>
    <g id="ytick_20">
     <g id="line2d_31">
      <g>
       <use xlink:href="#me53a4f653f" x="331.66" y="48.004418" style="stroke: #000000; stroke-width: 0.8"/>
      </g>
     </g>
     <g id="text_36">
      <!-- 3 -->
      <g transform="translate(320.21125 50.867543) scale(0.08 -0.08)">
       <use xlink:href="#ArialMT-33"/>
      </g>
     </g>
    </g>
    <g id="ytick_21">
     <g id="line2d_32">
      <g>
       <use xlink:href="#me53a4f653f" x="331.66" y="27.903399" style="stroke: #000000; stroke-width: 0.8"/>
      </g>
     </g>
     <g id="text_37">
      <!-- 4 -->
      <g transform="translate(320.21125 30.766524) scale(0.08 -0.08)">
       <use xlink:href="#ArialMT-34"/>
      </g>
     </g>
    </g>
    <g id="text_38">
     <!-- Radial Diffusivity + Volume Total (Standardized) -->
     <g transform="translate(309.855 180.338125) rotate(-90) scale(0.08 -0.08)">
      <defs>
       <path id="ArialMT-2b" d="M 1603 741 
L 1603 1997 
L 356 1997 
L 356 2522 
L 1603 2522 
L 1603 3769 
L 2134 3769 
L 2134 2522 
L 3381 2522 
L 3381 1997 
L 2134 1997 
L 2134 741 
L 1603 741 
z
" transform="scale(0.015625)"/>
      </defs>
      <use xlink:href="#ArialMT-52"/>
      <use xlink:href="#ArialMT-61" x="72.216797"/>
      <use xlink:href="#ArialMT-64" x="127.832031"/>
      <use xlink:href="#ArialMT-69" x="183.447266"/>
      <use xlink:href="#ArialMT-61" x="205.664062"/>
      <use xlink:href="#ArialMT-6c" x="261.279297"/>
      <use xlink:href="#ArialMT-20" x="283.496094"/>
      <use xlink:href="#ArialMT-44" x="311.279297"/>
      <use xlink:href="#ArialMT-69" x="383.496094"/>
      <use xlink:href="#ArialMT-66" x="405.712891"/>
      <use xlink:href="#ArialMT-66" x="431.746094"/>
      <use xlink:href="#ArialMT-75" x="459.529297"/>
      <use xlink:href="#ArialMT-73" x="515.144531"/>
      <use xlink:href="#ArialMT-69" x="565.144531"/>
      <use xlink:href="#ArialMT-76" x="587.361328"/>
      <use xlink:href="#ArialMT-69" x="637.361328"/>
      <use xlink:href="#ArialMT-74" x="659.578125"/>
      <use xlink:href="#ArialMT-79" x="687.361328"/>
      <use xlink:href="#ArialMT-20" x="737.361328"/>
      <use xlink:href="#ArialMT-2b" x="765.144531"/>
      <use xlink:href="#ArialMT-20" x="823.542969"/>
      <use xlink:href="#ArialMT-56" x="851.326172"/>
      <use xlink:href="#ArialMT-6f" x="912.525391"/>
      <use xlink:href="#ArialMT-6c" x="968.140625"/>
      <use xlink:href="#ArialMT-75" x="990.357422"/>
      <use xlink:href="#ArialMT-6d" x="1045.972656"/>
      <use xlink:href="#ArialMT-65" x="1129.273438"/>
      <use xlink:href="#ArialMT-20" x="1184.888672"/>
      <use xlink:href="#ArialMT-54" x="1210.921875"/>
      <use xlink:href="#ArialMT-6f" x="1260.880859"/>
      <use xlink:href="#ArialMT-74" x="1316.496094"/>
      <use xlink:href="#ArialMT-61" x="1344.279297"/>
      <use xlink:href="#ArialMT-6c" x="1399.894531"/>
      <use xlink:href="#ArialMT-20" x="1422.111328"/>
      <use xlink:href="#ArialMT-28" x="1449.894531"/>
      <use xlink:href="#ArialMT-53" x="1483.195312"/>
      <use xlink:href="#ArialMT-74" x="1549.894531"/>
      <use xlink:href="#ArialMT-61" x="1577.677734"/>
      <use xlink:href="#ArialMT-6e" x="1633.292969"/>
      <use xlink:href="#ArialMT-64" x="1688.908203"/>
      <use xlink:href="#ArialMT-61" x="1744.523438"/>
      <use xlink:href="#ArialMT-72" x="1800.138672"/>
      <use xlink:href="#ArialMT-64" x="1833.439453"/>
      <use xlink:href="#ArialMT-69" x="1889.054688"/>
      <use xlink:href="#ArialMT-7a" x="1911.271484"/>
      <use xlink:href="#ArialMT-65" x="1961.271484"/>
      <use xlink:href="#ArialMT-64" x="2016.886719"/>
      <use xlink:href="#ArialMT-29" x="2072.501953"/>
     </g>
    </g>
   </g>
   <g id="line2d_33">
    <path d="M 336.732727 149.515154 
L 337.757521 148.610453 
L 338.782314 147.705752 
L 339.807107 146.801051 
L 340.831901 145.89635 
L 341.856694 144.991649 
L 342.881488 144.086948 
L 343.906281 143.182247 
L 344.931074 142.277546 
L 345.955868 141.372846 
L 346.980661 140.468145 
L 348.005455 139.563444 
L 349.030248 138.658743 
L 350.055041 137.754042 
L 351.079835 136.849341 
L 352.104628 135.94464 
L 353.129421 135.039939 
L 354.154215 134.135238 
L 355.179008 133.230538 
L 356.203802 132.325837 
L 357.228595 131.421136 
L 358.253388 130.516435 
L 359.278182 129.611734 
L 360.302975 128.707033 
L 361.327769 127.802332 
L 362.352562 126.897631 
L 363.377355 125.99293 
L 364.402149 125.088229 
L 365.426942 124.183529 
L 366.451736 123.278828 
L 367.476529 122.374127 
L 368.501322 121.469426 
L 369.526116 120.564725 
L 370.550909 119.660024 
L 371.575702 118.755323 
L 372.600496 117.850622 
L 373.625289 116.945921 
L 374.650083 116.041221 
L 375.674876 115.13652 
L 376.699669 114.231819 
L 377.724463 113.327118 
L 378.749256 112.422417 
L 379.77405 111.517716 
L 380.798843 110.613015 
L 381.823636 109.708314 
L 382.84843 108.803613 
L 383.873223 107.898913 
L 384.898017 106.994212 
L 385.92281 106.089511 
L 386.947603 105.18481 
L 387.972397 104.280109 
L 388.99719 103.375408 
L 390.021983 102.470707 
L 391.046777 101.566006 
L 392.07157 100.661305 
L 393.096364 99.756605 
L 394.121157 98.851904 
L 395.14595 97.947203 
L 396.170744 97.042502 
L 397.195537 96.137801 
L 398.220331 95.2331 
L 399.245124 94.328399 
L 400.269917 93.423698 
L 401.294711 92.518997 
L 402.319504 91.614296 
L 403.344298 90.709596 
L 404.369091 89.804895 
L 405.393884 88.900194 
L 406.418678 87.995493 
L 407.443471 87.090792 
L 408.468264 86.186091 
L 409.493058 85.28139 
L 410.517851 84.376689 
L 411.542645 83.471988 
L 412.567438 82.567288 
L 413.592231 81.662587 
L 414.617025 80.757886 
L 415.641818 79.853185 
L 416.666612 78.948484 
L 417.691405 78.043783 
L 418.716198 77.139082 
L 419.740992 76.234381 
L 420.765785 75.32968 
L 421.790579 74.42498 
L 422.815372 73.520279 
L 423.840165 72.615578 
L 424.864959 71.710877 
L 425.889752 70.806176 
L 426.914545 69.901475 
L 427.939339 68.996774 
L 428.964132 68.092073 
L 429.988926 67.187372 
L 431.013719 66.282672 
L 432.038512 65.377971 
L 433.063306 64.47327 
L 434.088099 63.568569 
L 435.112893 62.663868 
L 436.137686 61.759167 
L 437.162479 60.854466 
L 438.187273 59.949765 
" clip-path="url(#pa269f0413d)" style="fill: none; stroke: #000000; stroke-width: 2; stroke-linecap: square"/>
   </g>
   <g id="patch_9">
    <path d="M 331.66 179.27 
L 331.66 12.95 
" style="fill: none; stroke: #000000; stroke-width: 0.8; stroke-linejoin: miter; stroke-linecap: square"/>
   </g>
   <g id="patch_10">
    <path d="M 331.66 179.27 
L 443.26 179.27 
" style="fill: none; stroke: #000000; stroke-width: 0.8; stroke-linejoin: miter; stroke-linecap: square"/>
   </g>
   <g id="text_39">
    <!-- r=0.77, p&lt;.001 -->
    <g transform="translate(361.44 12.95) scale(0.08 -0.08)">
     <defs>
      <path id="ArialMT-37" d="M 303 3981 
L 303 4522 
L 3269 4522 
L 3269 4084 
Q 2831 3619 2401 2847 
Q 1972 2075 1738 1259 
Q 1569 684 1522 0 
L 944 0 
Q 953 541 1156 1306 
Q 1359 2072 1739 2783 
Q 2119 3494 2547 3981 
L 303 3981 
z
" transform="scale(0.015625)"/>
      <path id="ArialMT-3c" d="M 350 2003 
L 350 2528 
L 3384 3809 
L 3384 3250 
L 978 2263 
L 3384 1266 
L 3384 706 
L 350 2003 
z
" transform="scale(0.015625)"/>
     </defs>
     <use xlink:href="#ArialMT-72"/>
     <use xlink:href="#ArialMT-3d" x="33.300781"/>
     <use xlink:href="#ArialMT-30" x="91.699219"/>
     <use xlink:href="#ArialMT-2e" x="147.314453"/>
     <use xlink:href="#ArialMT-37" x="175.097656"/>
     <use xlink:href="#ArialMT-37" x="230.712891"/>
     <use xlink:href="#ArialMT-2c" x="286.328125"/>
     <use xlink:href="#ArialMT-20" x="314.111328"/>
     <use xlink:href="#ArialMT-70" x="341.894531"/>
     <use xlink:href="#ArialMT-3c" x="397.509766"/>
     <use xlink:href="#ArialMT-2e" x="455.908203"/>
     <use xlink:href="#ArialMT-30" x="483.691406"/>
     <use xlink:href="#ArialMT-30" x="539.306641"/>
     <use xlink:href="#ArialMT-31" x="594.921875"/>
    </g>
   </g>
  </g>
 </g>
 <defs>
  <clipPath id="p6ed02df4d9">
   <rect x="41.5" y="12.95" width="111.6" height="166.32"/>
  </clipPath>
  <clipPath id="pba9a9e6e47">
   <rect x="186.58" y="12.95" width="111.6" height="166.32"/>
  </clipPath>
  <clipPath id="pa269f0413d">
   <rect x="331.66" y="12.95" width="111.6" height="166.32"/>
  </clipPath>
 </defs>
</svg>
