<?xml version="1.0" encoding="utf-8" standalone="no"?>
<!DOCTYPE svg PUBLIC "-//W3C//DTD SVG 1.1//EN"
  "http://www.w3.org/Graphics/SVG/1.1/DTD/svg11.dtd">
<svg xmlns:xlink="http://www.w3.org/1999/xlink" width="450.46pt" height="212.29375pt" viewBox="0 0 450.46 212.29375" xmlns="http://www.w3.org/2000/svg" version="1.1">
 <metadata>
  <rdf:RDF xmlns:dc="http://purl.org/dc/elements/1.1/" xmlns:cc="http://creativecommons.org/ns#" xmlns:rdf="http://www.w3.org/1999/02/22-rdf-syntax-ns#">
   <cc:Work>
    <dc:type rdf:resource="http://purl.org/dc/dcmitype/StillImage"/>
    <dc:date>2026-02-26T11:19:18.801603</dc:date>
    <dc:format>image/svg+xml</dc:format>
    <dc:creator>
     <cc:Agent>
      <dc:title>Matplotlib v3.9.2, https://matplotlib.org/</dc:title>
     </cc:Agent>
    </dc:creator>
   </cc:Work>
  </rdf:RDF>
 </metadata>
 <defs>
  <style type="text/css">*{stroke-linejoin: round; stroke-linecap: butt}</style>
 </defs>
 <g id="figure_1">
  <g id="patch_1">
   <path d="M 0 212.29375 
L 450.46 212.29375 
L 450.46 0 
L 0 0 
z
" style="fill: #ffffff"/>
  </g>
  <g id="axes_1">
   <g id="patch_2">
    <path d="M 41.5 179.27 
L 153.1 179.27 
L 153.1 12.95 
L 41.5 12.95 
z
" style="fill: #ffffff"/>
   </g>
   <g id="PathCollection_1">
    <defs>
     <path id="m22637a6f16" d="M 0 2.236068 
C 0.593012 2.236068 1.161816 2.000462 1.581139 1.581139 
C 2.000462 1.161816 2.236068 0.593012 2.236068 0 
C 2.236068 -0.593012 2.000462 -1.161816 1.581139 -1.581139 
C 1.161816 -2.000462 0.593012 -2.236068 0 -2.236068 
C -0.593012 -2.236068 -1.161816 -2.000462 -1.581139 -1.581139 
C -2.000462 -1.161816 -2.236068 -0.593012 -2.236068 0 
C -2.236068 0.593012 -2.000462 1.161816 -1.581139 1.581139 
C -1.161816 2.000462 -0.593012 2.236068 0 2.236068 
z
" style="stroke: #28aeed"/>
    </defs>
    <g clip-path="url(#p2a28f823fd)">
     <use xlink:href="#m22637a6f16" x="128.855936" y="82.70584" style="fill: #28aeed; stroke: #28aeed"/>
     <use xlink:href="#m22637a6f16" x="46.572727" y="98.885497" style="fill: #28aeed; stroke: #28aeed"/>
     <use xlink:href="#m22637a6f16" x="127.494211" y="20.51" style="fill: #28aeed; stroke: #28aeed"/>
     <use xlink:href="#m22637a6f16" x="148.027273" y="20.885221" style="fill: #28aeed; stroke: #28aeed"/>
     <use xlink:href="#m22637a6f16" x="80.027074" y="103.991078" style="fill: #28aeed; stroke: #28aeed"/>
     <use xlink:href="#m22637a6f16" x="75.89359" y="116.315175" style="fill: #28aeed; stroke: #28aeed"/>
     <use xlink:href="#m22637a6f16" x="62.739809" y="94.202311" style="fill: #28aeed; stroke: #28aeed"/>
     <use xlink:href="#m22637a6f16" x="88.303101" y="72.901661" style="fill: #28aeed; stroke: #28aeed"/>
     <use xlink:href="#m22637a6f16" x="98.405833" y="45.094035" style="fill: #28aeed; stroke: #28aeed"/>
     <use xlink:href="#m22637a6f16" x="49.623771" y="114.742051" style="fill: #28aeed; stroke: #28aeed"/>
     <use xlink:href="#m22637a6f16" x="139.642549" y="40.148986" style="fill: #28aeed; stroke: #28aeed"/>
     <use xlink:href="#m22637a6f16" x="78.89331" y="111.260616" style="fill: #28aeed; stroke: #28aeed"/>
     <use xlink:href="#m22637a6f16" x="68.159535" y="100.573105" style="fill: #28aeed; stroke: #28aeed"/>
     <use xlink:href="#m22637a6f16" x="116.244128" y="171.71" style="fill: #28aeed; stroke: #28aeed"/>
     <use xlink:href="#m22637a6f16" x="133.988824" y="104.159836" style="fill: #28aeed; stroke: #28aeed"/>
     <use xlink:href="#m22637a6f16" x="125.040992" y="48.812877" style="fill: #28aeed; stroke: #28aeed"/>
     <use xlink:href="#m22637a6f16" x="50.96738" y="139.535041" style="fill: #28aeed; stroke: #28aeed"/>
     <use xlink:href="#m22637a6f16" x="59.308323" y="67.738917" style="fill: #28aeed; stroke: #28aeed"/>
     <use xlink:href="#m22637a6f16" x="100.638639" y="76.484026" style="fill: #28aeed; stroke: #28aeed"/>
    </g>
   </g>
   <g id="PolyCollection_1">
    <path d="M 46.572727 94.857746 
L 46.572727 131.786673 
L 47.597521 131.151337 
L 48.622314 130.306014 
L 49.647107 129.383955 
L 50.671901 128.552255 
L 51.696694 127.793723 
L 52.721488 127.126397 
L 53.746281 126.347177 
L 54.771074 125.444924 
L 55.795868 124.536516 
L 56.820661 123.627239 
L 57.845455 122.759965 
L 58.870248 121.768068 
L 59.895041 120.777924 
L 60.919835 119.85479 
L 61.944628 119.09878 
L 62.969421 118.21411 
L 63.994215 117.437142 
L 65.019008 116.659405 
L 66.043802 115.993202 
L 67.068595 115.111527 
L 68.093388 114.476298 
L 69.118182 113.832624 
L 70.142975 113.126941 
L 71.167769 112.321243 
L 72.192562 111.816862 
L 73.217355 111.31248 
L 74.242149 110.809506 
L 75.266942 110.303718 
L 76.291736 109.631343 
L 77.316529 109.20068 
L 78.341322 108.685979 
L 79.366116 108.139247 
L 80.390909 107.625788 
L 81.415702 107.043784 
L 82.440496 106.491806 
L 83.465289 105.788467 
L 84.490083 105.203937 
L 85.514876 104.849059 
L 86.539669 104.300394 
L 87.564463 103.855118 
L 88.589256 103.462407 
L 89.61405 103.291327 
L 90.638843 103.169969 
L 91.663636 102.8698 
L 92.68843 102.365591 
L 93.713223 101.920786 
L 94.738017 101.512987 
L 95.76281 101.27187 
L 96.787603 101.031358 
L 97.812397 100.954649 
L 98.83719 100.880779 
L 99.861983 100.724002 
L 100.886777 100.439755 
L 101.91157 100.148986 
L 102.936364 100.088484 
L 103.961157 99.8236 
L 104.98595 99.221182 
L 106.010744 98.989327 
L 107.035537 98.871788 
L 108.060331 98.536902 
L 109.085124 98.492521 
L 110.109917 98.448139 
L 111.134711 98.366818 
L 112.159504 98.110627 
L 113.184298 97.853525 
L 114.209091 97.596423 
L 115.233884 97.335994 
L 116.258678 97.075479 
L 117.283471 96.881364 
L 118.308264 96.728421 
L 119.333058 96.575478 
L 120.357851 96.422535 
L 121.382645 96.269593 
L 122.407438 96.11665 
L 123.432231 95.966432 
L 124.457025 95.818716 
L 125.481818 95.670901 
L 126.506612 95.516585 
L 127.531405 95.360032 
L 128.556198 95.064717 
L 129.580992 94.919136 
L 130.605785 94.911207 
L 131.630579 94.762123 
L 132.655372 94.579608 
L 133.680165 94.337402 
L 134.704959 94.310076 
L 135.729752 94.164567 
L 136.754545 94.016552 
L 137.779339 93.861112 
L 138.804132 93.705671 
L 139.828926 93.366589 
L 140.853719 93.027406 
L 141.878512 92.688222 
L 142.903306 92.403975 
L 143.928099 92.225735 
L 144.952893 92.047494 
L 145.977686 91.869254 
L 147.002479 91.691013 
L 148.027273 91.512773 
L 148.027273 21.138949 
L 148.027273 21.138949 
L 147.002479 22.194561 
L 145.977686 23.250174 
L 144.952893 24.306879 
L 143.928099 25.36524 
L 142.903306 26.423602 
L 141.878512 27.481963 
L 140.853719 28.375052 
L 139.828926 29.210477 
L 138.804132 30.045902 
L 137.779339 30.881327 
L 136.754545 31.86429 
L 135.729752 32.863702 
L 134.704959 33.793588 
L 133.680165 34.61307 
L 132.655372 35.568057 
L 131.630579 36.65299 
L 130.605785 37.737923 
L 129.580992 38.822856 
L 128.556198 39.897128 
L 127.531405 40.950555 
L 126.506612 41.920093 
L 125.481818 42.903429 
L 124.457025 43.907924 
L 123.432231 44.851591 
L 122.407438 45.782618 
L 121.382645 46.815402 
L 120.357851 47.845541 
L 119.333058 48.713519 
L 118.308264 49.744578 
L 117.283471 50.622514 
L 116.258678 51.684815 
L 115.233884 52.381444 
L 114.209091 53.32075 
L 113.184298 54.261975 
L 112.159504 55.200362 
L 111.134711 56.139973 
L 110.109917 57.004487 
L 109.085124 57.830889 
L 108.060331 58.655459 
L 107.035537 59.525681 
L 106.010744 60.276538 
L 104.98595 61.133341 
L 103.961157 61.971464 
L 102.936364 62.900092 
L 101.91157 64.055579 
L 100.886777 65.054559 
L 99.861983 65.851098 
L 98.83719 66.793157 
L 97.812397 67.44267 
L 96.787603 68.371108 
L 95.76281 69.169892 
L 94.738017 70.069497 
L 93.713223 70.969103 
L 92.68843 71.826199 
L 91.663636 72.643973 
L 90.638843 73.459287 
L 89.61405 74.276391 
L 88.589256 75.084736 
L 87.564463 75.729502 
L 86.539669 76.395474 
L 85.514876 77.375048 
L 84.490083 78.079051 
L 83.465289 78.854491 
L 82.440496 79.497815 
L 81.415702 80.14545 
L 80.390909 80.951542 
L 79.366116 81.77644 
L 78.341322 82.46407 
L 77.316529 83.113645 
L 76.291736 83.708047 
L 75.266942 84.496892 
L 74.242149 85.047194 
L 73.217355 85.463532 
L 72.192562 85.952876 
L 71.167769 86.296207 
L 70.142975 86.713819 
L 69.118182 87.212933 
L 68.093388 87.58216 
L 67.068595 88.259358 
L 66.043802 89.047653 
L 65.019008 89.521908 
L 63.994215 90.12616 
L 62.969421 90.690378 
L 61.944628 90.730682 
L 60.919835 91.262649 
L 59.895041 91.788292 
L 58.870248 92.012584 
L 57.845455 92.242365 
L 56.820661 92.685478 
L 55.795868 93.006176 
L 54.771074 93.070018 
L 53.746281 93.265384 
L 52.721488 93.577481 
L 51.696694 93.757479 
L 50.671901 93.914805 
L 49.647107 94.244419 
L 48.622314 94.569883 
L 47.597521 94.786791 
L 46.572727 94.857746 
z
" clip-path="url(#p2a28f823fd)" style="fill-opacity: 0.15"/>
   </g>
   <g id="matplotlib.axis_1">
    <g id="xtick_1">
     <g id="line2d_1">
      <defs>
       <path id="m68fe7b6eb1" d="M 0 0 
L 0 3.5 
" style="stroke: #000000; stroke-width: 0.8"/>
      </defs>
      <g>
       <use xlink:href="#m68fe7b6eb1" x="61.048826" y="179.27" style="stroke: #000000; stroke-width: 0.8"/>
      </g>
     </g>
     <g id="text_1">
      <!-- −1 -->
      <g transform="translate(56.488201 191.99625) scale(0.08 -0.08)">
       <defs>
        <path id="ArialMT-2212" d="M 3381 1997 
L 356 1997 
L 356 2522 
L 3381 2522 
L 3381 1997 
z
" transform="scale(0.015625)"/>
        <path id="ArialMT-31" d="M 2384 0 
L 1822 0 
L 1822 3584 
Q 1619 3391 1289 3197 
Q 959 3003 697 2906 
L 697 3450 
Q 1169 3672 1522 3987 
Q 1875 4303 2022 4600 
L 2384 4600 
L 2384 0 
z
" transform="scale(0.015625)"/>
       </defs>
       <use xlink:href="#ArialMT-2212"/>
       <use xlink:href="#ArialMT-31" x="58.398438"/>
      </g>
     </g>
    </g>
    <g id="xtick_2">
     <g id="line2d_2">
      <g>
       <use xlink:href="#m68fe7b6eb1" x="93.622474" y="179.27" style="stroke: #000000; stroke-width: 0.8"/>
      </g>
     </g>
     <g id="text_2">
      <!-- 0 -->
      <g transform="translate(91.398099 191.99625) scale(0.08 -0.08)">
       <defs>
        <path id="ArialMT-30" d="M 266 2259 
Q 266 3072 433 3567 
Q 600 4063 929 4331 
Q 1259 4600 1759 4600 
Q 2128 4600 2406 4451 
Q 2684 4303 2865 4023 
Q 3047 3744 3150 3342 
Q 3253 2941 3253 2259 
Q 3253 1453 3087 958 
Q 2922 463 2592 192 
Q 2263 -78 1759 -78 
Q 1097 -78 719 397 
Q 266 969 266 2259 
z
M 844 2259 
Q 844 1131 1108 757 
Q 1372 384 1759 384 
Q 2147 384 2411 759 
Q 2675 1134 2675 2259 
Q 2675 3391 2411 3762 
Q 2147 4134 1753 4134 
Q 1366 4134 1134 3806 
Q 844 3388 844 2259 
z
" transform="scale(0.015625)"/>
       </defs>
       <use xlink:href="#ArialMT-30"/>
      </g>
     </g>
    </g>
    <g id="xtick_3">
     <g id="line2d_3">
      <g>
       <use xlink:href="#m68fe7b6eb1" x="126.196121" y="179.27" style="stroke: #000000; stroke-width: 0.8"/>
      </g>
     </g>
     <g id="text_3">
      <!-- 1 -->
      <g transform="translate(123.971746 191.99625) scale(0.08 -0.08)">
       <use xlink:href="#ArialMT-31"/>
      </g>
     </g>
    </g>
    <g id="text_4">
     <!-- Volume Total (Standardized) -->
     <g transform="translate(47.124375 203.41) scale(0.08 -0.08)">
      <defs>
       <path id="ArialMT-56" d="M 1803 0 
L 28 4581 
L 684 4581 
L 1875 1253 
Q 2019 853 2116 503 
Q 2222 878 2363 1253 
L 3600 4581 
L 4219 4581 
L 2425 0 
L 1803 0 
z
" transform="scale(0.015625)"/>
       <path id="ArialMT-6f" d="M 213 1659 
Q 213 2581 725 3025 
Q 1153 3394 1769 3394 
Q 2453 3394 2887 2945 
Q 3322 2497 3322 1706 
Q 3322 1066 3130 698 
Q 2938 331 2570 128 
Q 2203 -75 1769 -75 
Q 1072 -75 642 372 
Q 213 819 213 1659 
z
M 791 1659 
Q 791 1022 1069 705 
Q 1347 388 1769 388 
Q 2188 388 2466 706 
Q 2744 1025 2744 1678 
Q 2744 2294 2464 2611 
Q 2184 2928 1769 2928 
Q 1347 2928 1069 2612 
Q 791 2297 791 1659 
z
" transform="scale(0.015625)"/>
       <path id="ArialMT-6c" d="M 409 0 
L 409 4581 
L 972 4581 
L 972 0 
L 409 0 
z
" transform="scale(0.015625)"/>
       <path id="ArialMT-75" d="M 2597 0 
L 2597 488 
Q 2209 -75 1544 -75 
Q 1250 -75 995 37 
Q 741 150 617 320 
Q 494 491 444 738 
Q 409 903 409 1263 
L 409 3319 
L 972 3319 
L 972 1478 
Q 972 1038 1006 884 
Q 1059 663 1231 536 
Q 1403 409 1656 409 
Q 1909 409 2131 539 
Q 2353 669 2445 892 
Q 2538 1116 2538 1541 
L 2538 3319 
L 3100 3319 
L 3100 0 
L 2597 0 
z
" transform="scale(0.015625)"/>
       <path id="ArialMT-6d" d="M 422 0 
L 422 3319 
L 925 3319 
L 925 2853 
Q 1081 3097 1340 3245 
Q 1600 3394 1931 3394 
Q 2300 3394 2536 3241 
Q 2772 3088 2869 2813 
Q 3263 3394 3894 3394 
Q 4388 3394 4653 3120 
Q 4919 2847 4919 2278 
L 4919 0 
L 4359 0 
L 4359 2091 
Q 4359 2428 4304 2576 
Q 4250 2725 4106 2815 
Q 3963 2906 3769 2906 
Q 3419 2906 3187 2673 
Q 2956 2441 2956 1928 
L 2956 0 
L 2394 0 
L 2394 2156 
Q 2394 2531 2256 2718 
Q 2119 2906 1806 2906 
Q 1569 2906 1367 2781 
Q 1166 2656 1075 2415 
Q 984 2175 984 1722 
L 984 0 
L 422 0 
z
" transform="scale(0.015625)"/>
       <path id="ArialMT-65" d="M 2694 1069 
L 3275 997 
Q 3138 488 2766 206 
Q 2394 -75 1816 -75 
Q 1088 -75 661 373 
Q 234 822 234 1631 
Q 234 2469 665 2931 
Q 1097 3394 1784 3394 
Q 2450 3394 2872 2941 
Q 3294 2488 3294 1666 
Q 3294 1616 3291 1516 
L 816 1516 
Q 847 969 1125 678 
Q 1403 388 1819 388 
Q 2128 388 2347 550 
Q 2566 713 2694 1069 
z
M 847 1978 
L 2700 1978 
Q 2663 2397 2488 2606 
Q 2219 2931 1791 2931 
Q 1403 2931 1139 2672 
Q 875 2413 847 1978 
z
" transform="scale(0.015625)"/>
       <path id="ArialMT-20" transform="scale(0.015625)"/>
       <path id="ArialMT-54" d="M 1659 0 
L 1659 4041 
L 150 4041 
L 150 4581 
L 3781 4581 
L 3781 4041 
L 2266 4041 
L 2266 0 
L 1659 0 
z
" transform="scale(0.015625)"/>
       <path id="ArialMT-74" d="M 1650 503 
L 1731 6 
Q 1494 -44 1306 -44 
Q 1000 -44 831 53 
Q 663 150 594 308 
Q 525 466 525 972 
L 525 2881 
L 113 2881 
L 113 3319 
L 525 3319 
L 525 4141 
L 1084 4478 
L 1084 3319 
L 1650 3319 
L 1650 2881 
L 1084 2881 
L 1084 941 
Q 1084 700 1114 631 
Q 1144 563 1211 522 
Q 1278 481 1403 481 
Q 1497 481 1650 503 
z
" transform="scale(0.015625)"/>
       <path id="ArialMT-61" d="M 2588 409 
Q 2275 144 1986 34 
Q 1697 -75 1366 -75 
Q 819 -75 525 192 
Q 231 459 231 875 
Q 231 1119 342 1320 
Q 453 1522 633 1644 
Q 813 1766 1038 1828 
Q 1203 1872 1538 1913 
Q 2219 1994 2541 2106 
Q 2544 2222 2544 2253 
Q 2544 2597 2384 2738 
Q 2169 2928 1744 2928 
Q 1347 2928 1158 2789 
Q 969 2650 878 2297 
L 328 2372 
Q 403 2725 575 2942 
Q 747 3159 1072 3276 
Q 1397 3394 1825 3394 
Q 2250 3394 2515 3294 
Q 2781 3194 2906 3042 
Q 3031 2891 3081 2659 
Q 3109 2516 3109 2141 
L 3109 1391 
Q 3109 606 3145 398 
Q 3181 191 3288 0 
L 2700 0 
Q 2613 175 2588 409 
z
M 2541 1666 
Q 2234 1541 1622 1453 
Q 1275 1403 1131 1340 
Q 988 1278 909 1158 
Q 831 1038 831 891 
Q 831 666 1001 516 
Q 1172 366 1500 366 
Q 1825 366 2078 508 
Q 2331 650 2450 897 
Q 2541 1088 2541 1459 
L 2541 1666 
z
" transform="scale(0.015625)"/>
       <path id="ArialMT-28" d="M 1497 -1347 
Q 1031 -759 709 28 
Q 388 816 388 1659 
Q 388 2403 628 3084 
Q 909 3875 1497 4659 
L 1900 4659 
Q 1522 4009 1400 3731 
Q 1209 3300 1100 2831 
Q 966 2247 966 1656 
Q 966 153 1900 -1347 
L 1497 -1347 
z
" transform="scale(0.015625)"/>
       <path id="ArialMT-53" d="M 288 1472 
L 859 1522 
Q 900 1178 1048 958 
Q 1197 738 1509 602 
Q 1822 466 2213 466 
Q 2559 466 2825 569 
Q 3091 672 3220 851 
Q 3350 1031 3350 1244 
Q 3350 1459 3225 1620 
Q 3100 1781 2813 1891 
Q 2628 1963 1997 2114 
Q 1366 2266 1113 2400 
Q 784 2572 623 2826 
Q 463 3081 463 3397 
Q 463 3744 659 4045 
Q 856 4347 1234 4503 
Q 1613 4659 2075 4659 
Q 2584 4659 2973 4495 
Q 3363 4331 3572 4012 
Q 3781 3694 3797 3291 
L 3216 3247 
Q 3169 3681 2898 3903 
Q 2628 4125 2100 4125 
Q 1550 4125 1298 3923 
Q 1047 3722 1047 3438 
Q 1047 3191 1225 3031 
Q 1400 2872 2139 2705 
Q 2878 2538 3153 2413 
Q 3553 2228 3743 1945 
Q 3934 1663 3934 1294 
Q 3934 928 3725 604 
Q 3516 281 3123 101 
Q 2731 -78 2241 -78 
Q 1619 -78 1198 103 
Q 778 284 539 648 
Q 300 1013 288 1472 
z
" transform="scale(0.015625)"/>
       <path id="ArialMT-6e" d="M 422 0 
L 422 3319 
L 928 3319 
L 928 2847 
Q 1294 3394 1984 3394 
Q 2284 3394 2536 3286 
Q 2788 3178 2913 3003 
Q 3038 2828 3088 2588 
Q 3119 2431 3119 2041 
L 3119 0 
L 2556 0 
L 2556 2019 
Q 2556 2363 2490 2533 
Q 2425 2703 2258 2804 
Q 2091 2906 1866 2906 
Q 1506 2906 1245 2678 
Q 984 2450 984 1813 
L 984 0 
L 422 0 
z
" transform="scale(0.015625)"/>
       <path id="ArialMT-64" d="M 2575 0 
L 2575 419 
Q 2259 -75 1647 -75 
Q 1250 -75 917 144 
Q 584 363 401 755 
Q 219 1147 219 1656 
Q 219 2153 384 2558 
Q 550 2963 881 3178 
Q 1213 3394 1622 3394 
Q 1922 3394 2156 3267 
Q 2391 3141 2538 2938 
L 2538 4581 
L 3097 4581 
L 3097 0 
L 2575 0 
z
M 797 1656 
Q 797 1019 1065 703 
Q 1334 388 1700 388 
Q 2069 388 2326 689 
Q 2584 991 2584 1609 
Q 2584 2291 2321 2609 
Q 2059 2928 1675 2928 
Q 1300 2928 1048 2622 
Q 797 2316 797 1656 
z
" transform="scale(0.015625)"/>
       <path id="ArialMT-72" d="M 416 0 
L 416 3319 
L 922 3319 
L 922 2816 
Q 1116 3169 1280 3281 
Q 1444 3394 1641 3394 
Q 1925 3394 2219 3213 
L 2025 2691 
Q 1819 2813 1613 2813 
Q 1428 2813 1281 2702 
Q 1134 2591 1072 2394 
Q 978 2094 978 1738 
L 978 0 
L 416 0 
z
" transform="scale(0.015625)"/>
       <path id="ArialMT-69" d="M 425 3934 
L 425 4581 
L 988 4581 
L 988 3934 
L 425 3934 
z
M 425 0 
L 425 3319 
L 988 3319 
L 988 0 
L 425 0 
z
" transform="scale(0.015625)"/>
       <path id="ArialMT-7a" d="M 125 0 
L 125 456 
L 2238 2881 
Q 1878 2863 1603 2863 
L 250 2863 
L 250 3319 
L 2963 3319 
L 2963 2947 
L 1166 841 
L 819 456 
Q 1197 484 1528 484 
L 3063 484 
L 3063 0 
L 125 0 
z
" transform="scale(0.015625)"/>
       <path id="ArialMT-29" d="M 791 -1347 
L 388 -1347 
Q 1322 153 1322 1656 
Q 1322 2244 1188 2822 
Q 1081 3291 891 3722 
Q 769 4003 388 4659 
L 791 4659 
Q 1378 3875 1659 3084 
Q 1900 2403 1900 1659 
Q 1900 816 1576 28 
Q 1253 -759 791 -1347 
z
" transform="scale(0.015625)"/>
      </defs>
      <use xlink:href="#ArialMT-56"/>
      <use xlink:href="#ArialMT-6f" x="61.199219"/>
      <use xlink:href="#ArialMT-6c" x="116.814453"/>
      <use xlink:href="#ArialMT-75" x="139.03125"/>
      <use xlink:href="#ArialMT-6d" x="194.646484"/>
      <use xlink:href="#ArialMT-65" x="277.947266"/>
      <use xlink:href="#ArialMT-20" x="333.5625"/>
      <use xlink:href="#ArialMT-54" x="359.595703"/>
      <use xlink:href="#ArialMT-6f" x="409.554688"/>
      <use xlink:href="#ArialMT-74" x="465.169922"/>
      <use xlink:href="#ArialMT-61" x="492.953125"/>
      <use xlink:href="#ArialMT-6c" x="548.568359"/>
      <use xlink:href="#ArialMT-20" x="570.785156"/>
      <use xlink:href="#ArialMT-28" x="598.568359"/>
      <use xlink:href="#ArialMT-53" x="631.869141"/>
      <use xlink:href="#ArialMT-74" x="698.568359"/>
      <use xlink:href="#ArialMT-61" x="726.351562"/>
      <use xlink:href="#ArialMT-6e" x="781.966797"/>
      <use xlink:href="#ArialMT-64" x="837.582031"/>
      <use xlink:href="#ArialMT-61" x="893.197266"/>
      <use xlink:href="#ArialMT-72" x="948.8125"/>
      <use xlink:href="#ArialMT-64" x="982.113281"/>
      <use xlink:href="#ArialMT-69" x="1037.728516"/>
      <use xlink:href="#ArialMT-7a" x="1059.945312"/>
      <use xlink:href="#ArialMT-65" x="1109.945312"/>
      <use xlink:href="#ArialMT-64" x="1165.560547"/>
      <use xlink:href="#ArialMT-29" x="1221.175781"/>
     </g>
    </g>
   </g>
   <g id="matplotlib.axis_2">
    <g id="ytick_1">
     <g id="line2d_4">
      <defs>
       <path id="m159a2c4d24" d="M 0 0 
L -3.5 0 
" style="stroke: #000000; stroke-width: 0.8"/>
      </defs>
      <g>
       <use xlink:href="#m159a2c4d24" x="41.5" y="173.815502" style="stroke: #000000; stroke-width: 0.8"/>
      </g>
     </g>
     <g id="text_5">
      <!-- −1.5 -->
      <g transform="translate(18.7075 176.678627) scale(0.08 -0.08)">
       <defs>
        <path id="ArialMT-2e" d="M 581 0 
L 581 641 
L 1222 641 
L 1222 0 
L 581 0 
z
" transform="scale(0.015625)"/>
        <path id="ArialMT-35" d="M 266 1200 
L 856 1250 
Q 922 819 1161 601 
Q 1400 384 1738 384 
Q 2144 384 2425 690 
Q 2706 997 2706 1503 
Q 2706 1984 2436 2262 
Q 2166 2541 1728 2541 
Q 1456 2541 1237 2417 
Q 1019 2294 894 2097 
L 366 2166 
L 809 4519 
L 3088 4519 
L 3088 3981 
L 1259 3981 
L 1013 2750 
Q 1425 3038 1878 3038 
Q 2478 3038 2890 2622 
Q 3303 2206 3303 1553 
Q 3303 931 2941 478 
Q 2500 -78 1738 -78 
Q 1113 -78 717 272 
Q 322 622 266 1200 
z
" transform="scale(0.015625)"/>
       </defs>
       <use xlink:href="#ArialMT-2212"/>
       <use xlink:href="#ArialMT-31" x="58.398438"/>
       <use xlink:href="#ArialMT-2e" x="114.013672"/>
       <use xlink:href="#ArialMT-35" x="141.796875"/>
      </g>
     </g>
    </g>
    <g id="ytick_2">
     <g id="line2d_5">
      <g>
       <use xlink:href="#m159a2c4d24" x="41.5" y="144.083068" style="stroke: #000000; stroke-width: 0.8"/>
      </g>
     </g>
     <g id="text_6">
      <!-- −1.0 -->
      <g transform="translate(18.7075 146.946193) scale(0.08 -0.08)">
       <use xlink:href="#ArialMT-2212"/>
       <use xlink:href="#ArialMT-31" x="58.398438"/>
       <use xlink:href="#ArialMT-2e" x="114.013672"/>
       <use xlink:href="#ArialMT-30" x="141.796875"/>
      </g>
     </g>
    </g>
    <g id="ytick_3">
     <g id="line2d_6">
      <g>
       <use xlink:href="#m159a2c4d24" x="41.5" y="114.350634" style="stroke: #000000; stroke-width: 0.8"/>
      </g>
     </g>
     <g id="text_7">
      <!-- −0.5 -->
      <g transform="translate(18.7075 117.213759) scale(0.08 -0.08)">
       <use xlink:href="#ArialMT-2212"/>
       <use xlink:href="#ArialMT-30" x="58.398438"/>
       <use xlink:href="#ArialMT-2e" x="114.013672"/>
       <use xlink:href="#ArialMT-35" x="141.796875"/>
      </g>
     </g>
    </g>
    <g id="ytick_4">
     <g id="line2d_7">
      <g>
       <use xlink:href="#m159a2c4d24" x="41.5" y="84.6182" style="stroke: #000000; stroke-width: 0.8"/>
      </g>
     </g>
     <g id="text_8">
      <!-- 0.0 -->
      <g transform="translate(23.38 87.481325) scale(0.08 -0.08)">
       <use xlink:href="#ArialMT-30"/>
       <use xlink:href="#ArialMT-2e" x="55.615234"/>
       <use xlink:href="#ArialMT-30" x="83.398438"/>
      </g>
     </g>
    </g>
    <g id="ytick_5">
     <g id="line2d_8">
      <g>
       <use xlink:href="#m159a2c4d24" x="41.5" y="54.885766" style="stroke: #000000; stroke-width: 0.8"/>
      </g>
     </g>
     <g id="text_9">
      <!-- 0.5 -->
      <g transform="translate(23.38 57.748891) scale(0.08 -0.08)">
       <use xlink:href="#ArialMT-30"/>
       <use xlink:href="#ArialMT-2e" x="55.615234"/>
       <use xlink:href="#ArialMT-35" x="83.398438"/>
      </g>
     </g>
    </g>
    <g id="ytick_6">
     <g id="line2d_9">
      <g>
       <use xlink:href="#m159a2c4d24" x="41.5" y="25.153332" style="stroke: #000000; stroke-width: 0.8"/>
      </g>
     </g>
     <g id="text_10">
      <!-- 1.0 -->
      <g transform="translate(23.38 28.016457) scale(0.08 -0.08)">
       <use xlink:href="#ArialMT-31"/>
       <use xlink:href="#ArialMT-2e" x="55.615234"/>
       <use xlink:href="#ArialMT-30" x="83.398438"/>
      </g>
     </g>
    </g>
    <g id="text_11">
     <!-- Predicted Volume from KEM (Standardized) -->
     <g transform="translate(13.02375 173.69625) rotate(-90) scale(0.08 -0.08)">
      <defs>
       <path id="ArialMT-50" d="M 494 0 
L 494 4581 
L 2222 4581 
Q 2678 4581 2919 4538 
Q 3256 4481 3484 4323 
Q 3713 4166 3852 3881 
Q 3991 3597 3991 3256 
Q 3991 2672 3619 2267 
Q 3247 1863 2275 1863 
L 1100 1863 
L 1100 0 
L 494 0 
z
M 1100 2403 
L 2284 2403 
Q 2872 2403 3119 2622 
Q 3366 2841 3366 3238 
Q 3366 3525 3220 3729 
Q 3075 3934 2838 4000 
Q 2684 4041 2272 4041 
L 1100 4041 
L 1100 2403 
z
" transform="scale(0.015625)"/>
       <path id="ArialMT-63" d="M 2588 1216 
L 3141 1144 
Q 3050 572 2676 248 
Q 2303 -75 1759 -75 
Q 1078 -75 664 370 
Q 250 816 250 1647 
Q 250 2184 428 2587 
Q 606 2991 970 3192 
Q 1334 3394 1763 3394 
Q 2303 3394 2647 3120 
Q 2991 2847 3088 2344 
L 2541 2259 
Q 2463 2594 2264 2762 
Q 2066 2931 1784 2931 
Q 1359 2931 1093 2626 
Q 828 2322 828 1663 
Q 828 994 1084 691 
Q 1341 388 1753 388 
Q 2084 388 2306 591 
Q 2528 794 2588 1216 
z
" transform="scale(0.015625)"/>
       <path id="ArialMT-66" d="M 556 0 
L 556 2881 
L 59 2881 
L 59 3319 
L 556 3319 
L 556 3672 
Q 556 4006 616 4169 
Q 697 4388 901 4523 
Q 1106 4659 1475 4659 
Q 1713 4659 2000 4603 
L 1916 4113 
Q 1741 4144 1584 4144 
Q 1328 4144 1222 4034 
Q 1116 3925 1116 3625 
L 1116 3319 
L 1763 3319 
L 1763 2881 
L 1116 2881 
L 1116 0 
L 556 0 
z
" transform="scale(0.015625)"/>
       <path id="ArialMT-4b" d="M 469 0 
L 469 4581 
L 1075 4581 
L 1075 2309 
L 3350 4581 
L 4172 4581 
L 2250 2725 
L 4256 0 
L 3456 0 
L 1825 2319 
L 1075 1588 
L 1075 0 
L 469 0 
z
" transform="scale(0.015625)"/>
       <path id="ArialMT-45" d="M 506 0 
L 506 4581 
L 3819 4581 
L 3819 4041 
L 1113 4041 
L 1113 2638 
L 3647 2638 
L 3647 2100 
L 1113 2100 
L 1113 541 
L 3925 541 
L 3925 0 
L 506 0 
z
" transform="scale(0.015625)"/>
       <path id="ArialMT-4d" d="M 475 0 
L 475 4581 
L 1388 4581 
L 2472 1338 
Q 2622 884 2691 659 
Q 2769 909 2934 1394 
L 4031 4581 
L 4847 4581 
L 4847 0 
L 4263 0 
L 4263 3834 
L 2931 0 
L 2384 0 
L 1059 3900 
L 1059 0 
L 475 0 
z
" transform="scale(0.015625)"/>
      </defs>
      <use xlink:href="#ArialMT-50"/>
      <use xlink:href="#ArialMT-72" x="66.699219"/>
      <use xlink:href="#ArialMT-65" x="100"/>
      <use xlink:href="#ArialMT-64" x="155.615234"/>
      <use xlink:href="#ArialMT-69" x="211.230469"/>
      <use xlink:href="#ArialMT-63" x="233.447266"/>
      <use xlink:href="#ArialMT-74" x="283.447266"/>
      <use xlink:href="#ArialMT-65" x="311.230469"/>
      <use xlink:href="#ArialMT-64" x="366.845703"/>
      <use xlink:href="#ArialMT-20" x="422.460938"/>
      <use xlink:href="#ArialMT-56" x="450.244141"/>
      <use xlink:href="#ArialMT-6f" x="511.443359"/>
      <use xlink:href="#ArialMT-6c" x="567.058594"/>
      <use xlink:href="#ArialMT-75" x="589.275391"/>
      <use xlink:href="#ArialMT-6d" x="644.890625"/>
      <use xlink:href="#ArialMT-65" x="728.191406"/>
      <use xlink:href="#ArialMT-20" x="783.806641"/>
      <use xlink:href="#ArialMT-66" x="811.589844"/>
      <use xlink:href="#ArialMT-72" x="839.373047"/>
      <use xlink:href="#ArialMT-6f" x="872.673828"/>
      <use xlink:href="#ArialMT-6d" x="928.289062"/>
      <use xlink:href="#ArialMT-20" x="1011.589844"/>
      <use xlink:href="#ArialMT-4b" x="1039.373047"/>
      <use xlink:href="#ArialMT-45" x="1106.072266"/>
      <use xlink:href="#ArialMT-4d" x="1172.771484"/>
      <use xlink:href="#ArialMT-20" x="1256.072266"/>
      <use xlink:href="#ArialMT-28" x="1283.855469"/>
      <use xlink:href="#ArialMT-53" x="1317.15625"/>
      <use xlink:href="#ArialMT-74" x="1383.855469"/>
      <use xlink:href="#ArialMT-61" x="1411.638672"/>
      <use xlink:href="#ArialMT-6e" x="1467.253906"/>
      <use xlink:href="#ArialMT-64" x="1522.869141"/>
      <use xlink:href="#ArialMT-61" x="1578.484375"/>
      <use xlink:href="#ArialMT-72" x="1634.099609"/>
      <use xlink:href="#ArialMT-64" x="1667.400391"/>
      <use xlink:href="#ArialMT-69" x="1723.015625"/>
      <use xlink:href="#ArialMT-7a" x="1745.232422"/>
      <use xlink:href="#ArialMT-65" x="1795.232422"/>
      <use xlink:href="#ArialMT-64" x="1850.847656"/>
      <use xlink:href="#ArialMT-29" x="1906.462891"/>
     </g>
    </g>
   </g>
   <g id="line2d_10">
    <path d="M 46.572727 113.789066 
L 47.597521 113.179957 
L 48.622314 112.570849 
L 49.647107 111.96174 
L 50.671901 111.352632 
L 51.696694 110.743523 
L 52.721488 110.134415 
L 53.746281 109.525306 
L 54.771074 108.916198 
L 55.795868 108.30709 
L 56.820661 107.697981 
L 57.845455 107.088873 
L 58.870248 106.479764 
L 59.895041 105.870656 
L 60.919835 105.261547 
L 61.944628 104.652439 
L 62.969421 104.04333 
L 63.994215 103.434222 
L 65.019008 102.825113 
L 66.043802 102.216005 
L 67.068595 101.606896 
L 68.093388 100.997788 
L 69.118182 100.388679 
L 70.142975 99.779571 
L 71.167769 99.170462 
L 72.192562 98.561354 
L 73.217355 97.952245 
L 74.242149 97.343137 
L 75.266942 96.734028 
L 76.291736 96.12492 
L 77.316529 95.515811 
L 78.341322 94.906703 
L 79.366116 94.297594 
L 80.390909 93.688486 
L 81.415702 93.079377 
L 82.440496 92.470269 
L 83.465289 91.86116 
L 84.490083 91.252052 
L 85.514876 90.642944 
L 86.539669 90.033835 
L 87.564463 89.424727 
L 88.589256 88.815618 
L 89.61405 88.20651 
L 90.638843 87.597401 
L 91.663636 86.988293 
L 92.68843 86.379184 
L 93.713223 85.770076 
L 94.738017 85.160967 
L 95.76281 84.551859 
L 96.787603 83.94275 
L 97.812397 83.333642 
L 98.83719 82.724533 
L 99.861983 82.115425 
L 100.886777 81.506316 
L 101.91157 80.897208 
L 102.936364 80.288099 
L 103.961157 79.678991 
L 104.98595 79.069882 
L 106.010744 78.460774 
L 107.035537 77.851665 
L 108.060331 77.242557 
L 109.085124 76.633448 
L 110.109917 76.02434 
L 111.134711 75.415231 
L 112.159504 74.806123 
L 113.184298 74.197014 
L 114.209091 73.587906 
L 115.233884 72.978798 
L 116.258678 72.369689 
L 117.283471 71.760581 
L 118.308264 71.151472 
L 119.333058 70.542364 
L 120.357851 69.933255 
L 121.382645 69.324147 
L 122.407438 68.715038 
L 123.432231 68.10593 
L 124.457025 67.496821 
L 125.481818 66.887713 
L 126.506612 66.278604 
L 127.531405 65.669496 
L 128.556198 65.060387 
L 129.580992 64.451279 
L 130.605785 63.84217 
L 131.630579 63.233062 
L 132.655372 62.623953 
L 133.680165 62.014845 
L 134.704959 61.405736 
L 135.729752 60.796628 
L 136.754545 60.187519 
L 137.779339 59.578411 
L 138.804132 58.969302 
L 139.828926 58.360194 
L 140.853719 57.751085 
L 141.878512 57.141977 
L 142.903306 56.532868 
L 143.928099 55.92376 
L 144.952893 55.314652 
L 145.977686 54.705543 
L 147.002479 54.096435 
L 148.027273 53.487326 
" clip-path="url(#p2a28f823fd)" style="fill: none; stroke: #000000; stroke-width: 2; stroke-linecap: square"/>
   </g>
   <g id="patch_3">
    <path d="M 41.5 179.27 
L 41.5 12.95 
" style="fill: none; stroke: #000000; stroke-width: 0.8; stroke-linejoin: miter; stroke-linecap: square"/>
   </g>
   <g id="patch_4">
    <path d="M 41.5 179.27 
L 153.1 179.27 
" style="fill: none; stroke: #000000; stroke-width: 0.8; stroke-linejoin: miter; stroke-linecap: square"/>
   </g>
   <g id="text_12">
    <!-- r=0.50, p=.028 -->
    <g transform="translate(71.28 12.95) scale(0.08 -0.08)">
     <defs>
      <path id="ArialMT-3d" d="M 3381 2694 
L 356 2694 
L 356 3219 
L 3381 3219 
L 3381 2694 
z
M 3381 1303 
L 356 1303 
L 356 1828 
L 3381 1828 
L 3381 1303 
z
" transform="scale(0.015625)"/>
      <path id="ArialMT-2c" d="M 569 0 
L 569 641 
L 1209 641 
L 1209 0 
Q 1209 -353 1084 -570 
Q 959 -788 688 -906 
L 531 -666 
Q 709 -588 793 -436 
Q 878 -284 888 0 
L 569 0 
z
" transform="scale(0.015625)"/>
      <path id="ArialMT-70" d="M 422 -1272 
L 422 3319 
L 934 3319 
L 934 2888 
Q 1116 3141 1344 3267 
Q 1572 3394 1897 3394 
Q 2322 3394 2647 3175 
Q 2972 2956 3137 2557 
Q 3303 2159 3303 1684 
Q 3303 1175 3120 767 
Q 2938 359 2589 142 
Q 2241 -75 1856 -75 
Q 1575 -75 1351 44 
Q 1128 163 984 344 
L 984 -1272 
L 422 -1272 
z
M 931 1641 
Q 931 1000 1190 694 
Q 1450 388 1819 388 
Q 2194 388 2461 705 
Q 2728 1022 2728 1688 
Q 2728 2322 2467 2637 
Q 2206 2953 1844 2953 
Q 1484 2953 1207 2617 
Q 931 2281 931 1641 
z
" transform="scale(0.015625)"/>
      <path id="ArialMT-32" d="M 3222 541 
L 3222 0 
L 194 0 
Q 188 203 259 391 
Q 375 700 629 1000 
Q 884 1300 1366 1694 
Q 2113 2306 2375 2664 
Q 2638 3022 2638 3341 
Q 2638 3675 2398 3904 
Q 2159 4134 1775 4134 
Q 1369 4134 1125 3890 
Q 881 3647 878 3216 
L 300 3275 
Q 359 3922 746 4261 
Q 1134 4600 1788 4600 
Q 2447 4600 2831 4234 
Q 3216 3869 3216 3328 
Q 3216 3053 3103 2787 
Q 2991 2522 2730 2228 
Q 2469 1934 1863 1422 
Q 1356 997 1212 845 
Q 1069 694 975 541 
L 3222 541 
z
" transform="scale(0.015625)"/>
      <path id="ArialMT-38" d="M 1131 2484 
Q 781 2613 612 2850 
Q 444 3088 444 3419 
Q 444 3919 803 4259 
Q 1163 4600 1759 4600 
Q 2359 4600 2725 4251 
Q 3091 3903 3091 3403 
Q 3091 3084 2923 2848 
Q 2756 2613 2416 2484 
Q 2838 2347 3058 2040 
Q 3278 1734 3278 1309 
Q 3278 722 2862 322 
Q 2447 -78 1769 -78 
Q 1091 -78 675 323 
Q 259 725 259 1325 
Q 259 1772 486 2073 
Q 713 2375 1131 2484 
z
M 1019 3438 
Q 1019 3113 1228 2906 
Q 1438 2700 1772 2700 
Q 2097 2700 2305 2904 
Q 2513 3109 2513 3406 
Q 2513 3716 2298 3927 
Q 2084 4138 1766 4138 
Q 1444 4138 1231 3931 
Q 1019 3725 1019 3438 
z
M 838 1322 
Q 838 1081 952 856 
Q 1066 631 1291 507 
Q 1516 384 1775 384 
Q 2178 384 2440 643 
Q 2703 903 2703 1303 
Q 2703 1709 2433 1975 
Q 2163 2241 1756 2241 
Q 1359 2241 1098 1978 
Q 838 1716 838 1322 
z
" transform="scale(0.015625)"/>
     </defs>
     <use xlink:href="#ArialMT-72"/>
     <use xlink:href="#ArialMT-3d" x="33.300781"/>
     <use xlink:href="#ArialMT-30" x="91.699219"/>
     <use xlink:href="#ArialMT-2e" x="147.314453"/>
     <use xlink:href="#ArialMT-35" x="175.097656"/>
     <use xlink:href="#ArialMT-30" x="230.712891"/>
     <use xlink:href="#ArialMT-2c" x="286.328125"/>
     <use xlink:href="#ArialMT-20" x="314.111328"/>
     <use xlink:href="#ArialMT-70" x="341.894531"/>
     <use xlink:href="#ArialMT-3d" x="397.509766"/>
     <use xlink:href="#ArialMT-2e" x="455.908203"/>
     <use xlink:href="#ArialMT-30" x="483.691406"/>
     <use xlink:href="#ArialMT-32" x="539.306641"/>
     <use xlink:href="#ArialMT-38" x="594.921875"/>
    </g>
   </g>
  </g>
  <g id="axes_2">
   <g id="patch_5">
    <path d="M 186.58 179.27 
L 298.18 179.27 
L 298.18 12.95 
L 186.58 12.95 
z
" style="fill: #ffffff"/>
   </g>
   <g id="PathCollection_2">
    <g clip-path="url(#pddcc7f9d13)">
     <use xlink:href="#m22637a6f16" x="243.022253" y="103.782986" style="fill: #28aeed; stroke: #28aeed"/>
     <use xlink:href="#m22637a6f16" x="232.898516" y="128.289495" style="fill: #28aeed; stroke: #28aeed"/>
     <use xlink:href="#m22637a6f16" x="221.237388" y="20.51" style="fill: #28aeed; stroke: #28aeed"/>
     <use xlink:href="#m22637a6f16" x="293.107273" y="65.815959" style="fill: #28aeed; stroke: #28aeed"/>
     <use xlink:href="#m22637a6f16" x="238.652578" y="130.21697" style="fill: #28aeed; stroke: #28aeed"/>
     <use xlink:href="#m22637a6f16" x="233.874605" y="143.279074" style="fill: #28aeed; stroke: #28aeed"/>
     <use xlink:href="#m22637a6f16" x="234.634988" y="121.239902" style="fill: #28aeed; stroke: #28aeed"/>
     <use xlink:href="#m22637a6f16" x="222.383656" y="94.978705" style="fill: #28aeed; stroke: #28aeed"/>
     <use xlink:href="#m22637a6f16" x="266.14413" y="77.600304" style="fill: #28aeed; stroke: #28aeed"/>
     <use xlink:href="#m22637a6f16" x="224.420514" y="144.596829" style="fill: #28aeed; stroke: #28aeed"/>
     <use xlink:href="#m22637a6f16" x="240.484797" y="52.718619" style="fill: #28aeed; stroke: #28aeed"/>
     <use xlink:href="#m22637a6f16" x="205.276934" y="130.614028" style="fill: #28aeed; stroke: #28aeed"/>
     <use xlink:href="#m22637a6f16" x="191.652727" y="119.452649" style="fill: #28aeed; stroke: #28aeed"/>
     <use xlink:href="#m22637a6f16" x="211.220988" y="171.71" style="fill: #28aeed; stroke: #28aeed"/>
     <use xlink:href="#m22637a6f16" x="195.737392" y="116.386082" style="fill: #28aeed; stroke: #28aeed"/>
     <use xlink:href="#m22637a6f16" x="237.758239" y="66.878297" style="fill: #28aeed; stroke: #28aeed"/>
     <use xlink:href="#m22637a6f16" x="216.057637" y="171.060331" style="fill: #28aeed; stroke: #28aeed"/>
     <use xlink:href="#m22637a6f16" x="237.923742" y="95.637484" style="fill: #28aeed; stroke: #28aeed"/>
     <use xlink:href="#m22637a6f16" x="246.055223" y="100.983323" style="fill: #28aeed; stroke: #28aeed"/>
    </g>
   </g>
   <g id="PolyCollection_2">
    <path d="M 191.652727 106.829388 
L 191.652727 170.106154 
L 192.677521 169.012659 
L 193.702314 167.691146 
L 194.727107 166.284267 
L 195.751901 164.953912 
L 196.776694 163.791791 
L 197.801488 162.62967 
L 198.826281 161.467549 
L 199.851074 160.282294 
L 200.875868 159.036716 
L 201.900661 157.791138 
L 202.925455 156.542821 
L 203.950248 155.293808 
L 204.975041 154.044796 
L 205.999835 152.827416 
L 207.024628 151.552302 
L 208.049421 150.301436 
L 209.074215 149.015479 
L 210.099008 147.782579 
L 211.123802 146.563055 
L 212.148595 145.289382 
L 213.173388 144.000905 
L 214.198182 142.814438 
L 215.222975 141.569785 
L 216.247769 140.325132 
L 217.272562 139.234741 
L 218.297355 137.795472 
L 219.322149 136.350022 
L 220.346942 135.28766 
L 221.371736 134.083774 
L 222.396529 133.432743 
L 223.421322 132.346217 
L 224.446116 130.977994 
L 225.470909 130.023095 
L 226.495702 128.800398 
L 227.520496 127.5546 
L 228.545289 126.173035 
L 229.570083 125.219634 
L 230.594876 124.367215 
L 231.619669 123.506064 
L 232.644463 122.561775 
L 233.669256 121.544938 
L 234.69405 120.49252 
L 235.718843 119.501969 
L 236.743636 118.402548 
L 237.76843 117.299996 
L 238.793223 116.451472 
L 239.818017 115.728293 
L 240.84281 114.829047 
L 241.867603 114.150748 
L 242.892397 113.320491 
L 243.91719 112.583587 
L 244.941983 111.89561 
L 245.966777 111.151594 
L 246.99157 110.308183 
L 248.016364 109.437418 
L 249.041157 108.649377 
L 250.06595 107.998503 
L 251.090744 107.196831 
L 252.115537 106.522483 
L 253.140331 105.904957 
L 254.165124 105.535428 
L 255.189917 105.032528 
L 256.214711 104.412154 
L 257.239504 103.844529 
L 258.264298 103.256641 
L 259.289091 102.672112 
L 260.313884 102.230403 
L 261.338678 101.767644 
L 262.363471 101.278469 
L 263.388264 100.784043 
L 264.413058 100.224261 
L 265.437851 99.512965 
L 266.462645 98.953861 
L 267.487438 98.330628 
L 268.512231 97.757791 
L 269.537025 97.184955 
L 270.561818 96.610913 
L 271.586612 96.123283 
L 272.611405 95.744219 
L 273.636198 95.233396 
L 274.660992 94.560633 
L 275.685785 93.887871 
L 276.710579 93.330273 
L 277.735372 92.839152 
L 278.760165 92.345599 
L 279.784959 92.081767 
L 280.809752 91.976448 
L 281.834545 91.716137 
L 282.859339 91.157284 
L 283.884132 90.598342 
L 284.908926 90.336145 
L 285.933719 90.070647 
L 286.958512 89.887534 
L 287.983306 89.681439 
L 289.008099 89.227459 
L 290.032893 88.75718 
L 291.057686 88.385657 
L 292.082479 87.924643 
L 293.107273 87.540232 
L 293.107273 32.993887 
L 293.107273 32.993887 
L 292.082479 34.321793 
L 291.057686 35.528818 
L 290.032893 36.607004 
L 289.008099 37.879744 
L 287.983306 39.321576 
L 286.958512 40.4277 
L 285.933719 41.490494 
L 284.908926 42.675493 
L 283.884132 44.099054 
L 282.859339 45.103537 
L 281.834545 46.169825 
L 280.809752 47.370964 
L 279.784959 48.570985 
L 278.760165 49.767952 
L 277.735372 50.964919 
L 276.710579 52.166737 
L 275.685785 53.372922 
L 274.660992 54.405377 
L 273.636198 55.452009 
L 272.611405 56.781396 
L 271.586612 58.124862 
L 270.561818 59.465916 
L 269.537025 60.799315 
L 268.512231 61.852813 
L 267.487438 62.75923 
L 266.462645 63.653587 
L 265.437851 64.877512 
L 264.413058 65.800821 
L 263.388264 66.726401 
L 262.363471 67.801792 
L 261.338678 68.893926 
L 260.313884 69.854122 
L 259.289091 71.052586 
L 258.264298 71.910459 
L 257.239504 72.949186 
L 256.214711 73.670421 
L 255.189917 74.480307 
L 254.165124 75.577038 
L 253.140331 76.711245 
L 252.115537 77.285551 
L 251.090744 77.90946 
L 250.06595 78.76832 
L 249.041157 79.670904 
L 248.016364 80.593358 
L 246.99157 81.331081 
L 245.966777 81.812862 
L 244.941983 83.053961 
L 243.91719 83.909639 
L 242.892397 84.766444 
L 241.867603 85.625735 
L 240.84281 86.424972 
L 239.818017 87.076403 
L 238.793223 87.729352 
L 237.76843 88.553164 
L 236.743636 89.089088 
L 235.718843 89.861138 
L 234.69405 90.27329 
L 233.669256 90.888831 
L 232.644463 91.292599 
L 231.619669 91.633197 
L 230.594876 92.001076 
L 229.570083 92.754073 
L 228.545289 93.398516 
L 227.520496 93.76546 
L 226.495702 94.201707 
L 225.470909 94.588566 
L 224.446116 95.086612 
L 223.421322 95.364178 
L 222.396529 95.612415 
L 221.371736 95.844662 
L 220.346942 96.187945 
L 219.322149 96.718622 
L 218.297355 97.247839 
L 217.272562 97.630198 
L 216.247769 97.860355 
L 215.222975 97.970401 
L 214.198182 98.407064 
L 213.173388 98.979307 
L 212.148595 99.254679 
L 211.123802 99.678615 
L 210.099008 100.10255 
L 209.074215 100.526485 
L 208.049421 100.952951 
L 207.024628 101.380059 
L 205.999835 101.807167 
L 204.975041 102.201662 
L 203.950248 102.583079 
L 202.925455 102.961389 
L 201.900661 103.156434 
L 200.875868 103.351478 
L 199.851074 103.583223 
L 198.826281 104.04033 
L 197.801488 104.309348 
L 196.776694 104.716252 
L 195.751901 105.25334 
L 194.727107 105.673312 
L 193.702314 106.156531 
L 192.677521 106.63975 
L 191.652727 106.829388 
z
" clip-path="url(#pddcc7f9d13)" style="fill-opacity: 0.15"/>
   </g>
   <g id="matplotlib.axis_3">
    <g id="xtick_4">
     <g id="line2d_11">
      <g>
       <use xlink:href="#m68fe7b6eb1" x="231.186504" y="179.27" style="stroke: #000000; stroke-width: 0.8"/>
      </g>
     </g>
     <g id="text_13">
      <!-- 0 -->
      <g transform="translate(228.962129 191.99625) scale(0.08 -0.08)">
       <use xlink:href="#ArialMT-30"/>
      </g>
     </g>
    </g>
    <g id="xtick_5">
     <g id="line2d_12">
      <g>
       <use xlink:href="#m68fe7b6eb1" x="277.094493" y="179.27" style="stroke: #000000; stroke-width: 0.8"/>
      </g>
     </g>
     <g id="text_14">
      <!-- 2 -->
      <g transform="translate(274.870118 191.99625) scale(0.08 -0.08)">
       <use xlink:href="#ArialMT-32"/>
      </g>
     </g>
    </g>
    <g id="text_15">
     <!-- Radial Diffusivity (Standardized) -->
     <g transform="translate(185.540625 203.41) scale(0.08 -0.08)">
      <defs>
       <path id="ArialMT-52" d="M 503 0 
L 503 4581 
L 2534 4581 
Q 3147 4581 3465 4457 
Q 3784 4334 3975 4021 
Q 4166 3709 4166 3331 
Q 4166 2844 3850 2509 
Q 3534 2175 2875 2084 
Q 3116 1969 3241 1856 
Q 3506 1613 3744 1247 
L 4541 0 
L 3778 0 
L 3172 953 
Q 2906 1366 2734 1584 
Q 2563 1803 2427 1890 
Q 2291 1978 2150 2013 
Q 2047 2034 1813 2034 
L 1109 2034 
L 1109 0 
L 503 0 
z
M 1109 2559 
L 2413 2559 
Q 2828 2559 3062 2645 
Q 3297 2731 3419 2920 
Q 3541 3109 3541 3331 
Q 3541 3656 3305 3865 
Q 3069 4075 2559 4075 
L 1109 4075 
L 1109 2559 
z
" transform="scale(0.015625)"/>
       <path id="ArialMT-44" d="M 494 0 
L 494 4581 
L 2072 4581 
Q 2606 4581 2888 4516 
Q 3281 4425 3559 4188 
Q 3922 3881 4101 3404 
Q 4281 2928 4281 2316 
Q 4281 1794 4159 1391 
Q 4038 988 3847 723 
Q 3656 459 3429 307 
Q 3203 156 2883 78 
Q 2563 0 2147 0 
L 494 0 
z
M 1100 541 
L 2078 541 
Q 2531 541 2789 625 
Q 3047 709 3200 863 
Q 3416 1078 3536 1442 
Q 3656 1806 3656 2325 
Q 3656 3044 3420 3430 
Q 3184 3816 2847 3947 
Q 2603 4041 2063 4041 
L 1100 4041 
L 1100 541 
z
" transform="scale(0.015625)"/>
       <path id="ArialMT-73" d="M 197 991 
L 753 1078 
Q 800 744 1014 566 
Q 1228 388 1613 388 
Q 2000 388 2187 545 
Q 2375 703 2375 916 
Q 2375 1106 2209 1216 
Q 2094 1291 1634 1406 
Q 1016 1563 777 1677 
Q 538 1791 414 1992 
Q 291 2194 291 2438 
Q 291 2659 392 2848 
Q 494 3038 669 3163 
Q 800 3259 1026 3326 
Q 1253 3394 1513 3394 
Q 1903 3394 2198 3281 
Q 2494 3169 2634 2976 
Q 2775 2784 2828 2463 
L 2278 2388 
Q 2241 2644 2061 2787 
Q 1881 2931 1553 2931 
Q 1166 2931 1000 2803 
Q 834 2675 834 2503 
Q 834 2394 903 2306 
Q 972 2216 1119 2156 
Q 1203 2125 1616 2013 
Q 2213 1853 2448 1751 
Q 2684 1650 2818 1456 
Q 2953 1263 2953 975 
Q 2953 694 2789 445 
Q 2625 197 2315 61 
Q 2006 -75 1616 -75 
Q 969 -75 630 194 
Q 291 463 197 991 
z
" transform="scale(0.015625)"/>
       <path id="ArialMT-76" d="M 1344 0 
L 81 3319 
L 675 3319 
L 1388 1331 
Q 1503 1009 1600 663 
Q 1675 925 1809 1294 
L 2547 3319 
L 3125 3319 
L 1869 0 
L 1344 0 
z
" transform="scale(0.015625)"/>
       <path id="ArialMT-79" d="M 397 -1278 
L 334 -750 
Q 519 -800 656 -800 
Q 844 -800 956 -737 
Q 1069 -675 1141 -563 
Q 1194 -478 1313 -144 
Q 1328 -97 1363 -6 
L 103 3319 
L 709 3319 
L 1400 1397 
Q 1534 1031 1641 628 
Q 1738 1016 1872 1384 
L 2581 3319 
L 3144 3319 
L 1881 -56 
Q 1678 -603 1566 -809 
Q 1416 -1088 1222 -1217 
Q 1028 -1347 759 -1347 
Q 597 -1347 397 -1278 
z
" transform="scale(0.015625)"/>
      </defs>
      <use xlink:href="#ArialMT-52"/>
      <use xlink:href="#ArialMT-61" x="72.216797"/>
      <use xlink:href="#ArialMT-64" x="127.832031"/>
      <use xlink:href="#ArialMT-69" x="183.447266"/>
      <use xlink:href="#ArialMT-61" x="205.664062"/>
      <use xlink:href="#ArialMT-6c" x="261.279297"/>
      <use xlink:href="#ArialMT-20" x="283.496094"/>
      <use xlink:href="#ArialMT-44" x="311.279297"/>
      <use xlink:href="#ArialMT-69" x="383.496094"/>
      <use xlink:href="#ArialMT-66" x="405.712891"/>
      <use xlink:href="#ArialMT-66" x="431.746094"/>
      <use xlink:href="#ArialMT-75" x="459.529297"/>
      <use xlink:href="#ArialMT-73" x="515.144531"/>
      <use xlink:href="#ArialMT-69" x="565.144531"/>
      <use xlink:href="#ArialMT-76" x="587.361328"/>
      <use xlink:href="#ArialMT-69" x="637.361328"/>
      <use xlink:href="#ArialMT-74" x="659.578125"/>
      <use xlink:href="#ArialMT-79" x="687.361328"/>
      <use xlink:href="#ArialMT-20" x="737.361328"/>
      <use xlink:href="#ArialMT-28" x="765.144531"/>
      <use xlink:href="#ArialMT-53" x="798.445312"/>
      <use xlink:href="#ArialMT-74" x="865.144531"/>
      <use xlink:href="#ArialMT-61" x="892.927734"/>
      <use xlink:href="#ArialMT-6e" x="948.542969"/>
      <use xlink:href="#ArialMT-64" x="1004.158203"/>
      <use xlink:href="#ArialMT-61" x="1059.773438"/>
      <use xlink:href="#ArialMT-72" x="1115.388672"/>
      <use xlink:href="#ArialMT-64" x="1148.689453"/>
      <use xlink:href="#ArialMT-69" x="1204.304688"/>
      <use xlink:href="#ArialMT-7a" x="1226.521484"/>
      <use xlink:href="#ArialMT-65" x="1276.521484"/>
      <use xlink:href="#ArialMT-64" x="1332.136719"/>
      <use xlink:href="#ArialMT-29" x="1387.751953"/>
     </g>
    </g>
   </g>
   <g id="matplotlib.axis_4">
    <g id="ytick_7">
     <g id="line2d_13">
      <g>
       <use xlink:href="#m159a2c4d24" x="186.58" y="169.062403" style="stroke: #000000; stroke-width: 0.8"/>
      </g>
     </g>
     <g id="text_16">
      <!-- −1.0 -->
      <g transform="translate(163.7875 171.925528) scale(0.08 -0.08)">
       <use xlink:href="#ArialMT-2212"/>
       <use xlink:href="#ArialMT-31" x="58.398438"/>
       <use xlink:href="#ArialMT-2e" x="114.013672"/>
       <use xlink:href="#ArialMT-30" x="141.796875"/>
      </g>
     </g>
    </g>
    <g id="ytick_8">
     <g id="line2d_14">
      <g>
       <use xlink:href="#m159a2c4d24" x="186.58" y="138.310655" style="stroke: #000000; stroke-width: 0.8"/>
      </g>
     </g>
     <g id="text_17">
      <!-- −0.5 -->
      <g transform="translate(163.7875 141.17378) scale(0.08 -0.08)">
       <use xlink:href="#ArialMT-2212"/>
       <use xlink:href="#ArialMT-30" x="58.398438"/>
       <use xlink:href="#ArialMT-2e" x="114.013672"/>
       <use xlink:href="#ArialMT-35" x="141.796875"/>
      </g>
     </g>
    </g>
    <g id="ytick_9">
     <g id="line2d_15">
      <g>
       <use xlink:href="#m159a2c4d24" x="186.58" y="107.558908" style="stroke: #000000; stroke-width: 0.8"/>
      </g>
     </g>
     <g id="text_18">
      <!-- 0.0 -->
      <g transform="translate(168.46 110.422033) scale(0.08 -0.08)">
       <use xlink:href="#ArialMT-30"/>
       <use xlink:href="#ArialMT-2e" x="55.615234"/>
       <use xlink:href="#ArialMT-30" x="83.398438"/>
      </g>
     </g>
    </g>
    <g id="ytick_10">
     <g id="line2d_16">
      <g>
       <use xlink:href="#m159a2c4d24" x="186.58" y="76.80716" style="stroke: #000000; stroke-width: 0.8"/>
      </g>
     </g>
     <g id="text_19">
      <!-- 0.5 -->
      <g transform="translate(168.46 79.670285) scale(0.08 -0.08)">
       <use xlink:href="#ArialMT-30"/>
       <use xlink:href="#ArialMT-2e" x="55.615234"/>
       <use xlink:href="#ArialMT-35" x="83.398438"/>
      </g>
     </g>
    </g>
    <g id="ytick_11">
     <g id="line2d_17">
      <g>
       <use xlink:href="#m159a2c4d24" x="186.58" y="46.055412" style="stroke: #000000; stroke-width: 0.8"/>
      </g>
     </g>
     <g id="text_20">
      <!-- 1.0 -->
      <g transform="translate(168.46 48.918537) scale(0.08 -0.08)">
       <use xlink:href="#ArialMT-31"/>
       <use xlink:href="#ArialMT-2e" x="55.615234"/>
       <use xlink:href="#ArialMT-30" x="83.398438"/>
      </g>
     </g>
    </g>
    <g id="ytick_12">
     <g id="line2d_18">
      <g>
       <use xlink:href="#m159a2c4d24" x="186.58" y="15.303664" style="stroke: #000000; stroke-width: 0.8"/>
      </g>
     </g>
     <g id="text_21">
      <!-- 1.5 -->
      <g transform="translate(168.46 18.166789) scale(0.08 -0.08)">
       <use xlink:href="#ArialMT-31"/>
       <use xlink:href="#ArialMT-2e" x="55.615234"/>
       <use xlink:href="#ArialMT-35" x="83.398438"/>
      </g>
     </g>
    </g>
    <g id="text_22">
     <!-- Predicted RD from KEM (Standardized) -->
     <g transform="translate(158.10375 166.131875) rotate(-90) scale(0.08 -0.08)">
      <use xlink:href="#ArialMT-50"/>
      <use xlink:href="#ArialMT-72" x="66.699219"/>
      <use xlink:href="#ArialMT-65" x="100"/>
      <use xlink:href="#ArialMT-64" x="155.615234"/>
      <use xlink:href="#ArialMT-69" x="211.230469"/>
      <use xlink:href="#ArialMT-63" x="233.447266"/>
      <use xlink:href="#ArialMT-74" x="283.447266"/>
      <use xlink:href="#ArialMT-65" x="311.230469"/>
      <use xlink:href="#ArialMT-64" x="366.845703"/>
      <use xlink:href="#ArialMT-20" x="422.460938"/>
      <use xlink:href="#ArialMT-52" x="450.244141"/>
      <use xlink:href="#ArialMT-44" x="522.460938"/>
      <use xlink:href="#ArialMT-20" x="594.677734"/>
      <use xlink:href="#ArialMT-66" x="622.460938"/>
      <use xlink:href="#ArialMT-72" x="650.244141"/>
      <use xlink:href="#ArialMT-6f" x="683.544922"/>
      <use xlink:href="#ArialMT-6d" x="739.160156"/>
      <use xlink:href="#ArialMT-20" x="822.460938"/>
      <use xlink:href="#ArialMT-4b" x="850.244141"/>
      <use xlink:href="#ArialMT-45" x="916.943359"/>
      <use xlink:href="#ArialMT-4d" x="983.642578"/>
      <use xlink:href="#ArialMT-20" x="1066.943359"/>
      <use xlink:href="#ArialMT-28" x="1094.726562"/>
      <use xlink:href="#ArialMT-53" x="1128.027344"/>
      <use xlink:href="#ArialMT-74" x="1194.726562"/>
      <use xlink:href="#ArialMT-61" x="1222.509766"/>
      <use xlink:href="#ArialMT-6e" x="1278.125"/>
      <use xlink:href="#ArialMT-64" x="1333.740234"/>
      <use xlink:href="#ArialMT-61" x="1389.355469"/>
      <use xlink:href="#ArialMT-72" x="1444.970703"/>
      <use xlink:href="#ArialMT-64" x="1478.271484"/>
      <use xlink:href="#ArialMT-69" x="1533.886719"/>
      <use xlink:href="#ArialMT-7a" x="1556.103516"/>
      <use xlink:href="#ArialMT-65" x="1606.103516"/>
      <use xlink:href="#ArialMT-64" x="1661.71875"/>
      <use xlink:href="#ArialMT-29" x="1717.333984"/>
     </g>
    </g>
   </g>
   <g id="line2d_19">
    <path d="M 191.652727 136.551974 
L 192.677521 135.816968 
L 193.702314 135.081962 
L 194.727107 134.346956 
L 195.751901 133.61195 
L 196.776694 132.876945 
L 197.801488 132.141939 
L 198.826281 131.406933 
L 199.851074 130.671927 
L 200.875868 129.936921 
L 201.900661 129.201915 
L 202.925455 128.46691 
L 203.950248 127.731904 
L 204.975041 126.996898 
L 205.999835 126.261892 
L 207.024628 125.526886 
L 208.049421 124.791881 
L 209.074215 124.056875 
L 210.099008 123.321869 
L 211.123802 122.586863 
L 212.148595 121.851857 
L 213.173388 121.116852 
L 214.198182 120.381846 
L 215.222975 119.64684 
L 216.247769 118.911834 
L 217.272562 118.176828 
L 218.297355 117.441822 
L 219.322149 116.706817 
L 220.346942 115.971811 
L 221.371736 115.236805 
L 222.396529 114.501799 
L 223.421322 113.766793 
L 224.446116 113.031788 
L 225.470909 112.296782 
L 226.495702 111.561776 
L 227.520496 110.82677 
L 228.545289 110.091764 
L 229.570083 109.356759 
L 230.594876 108.621753 
L 231.619669 107.886747 
L 232.644463 107.151741 
L 233.669256 106.416735 
L 234.69405 105.681729 
L 235.718843 104.946724 
L 236.743636 104.211718 
L 237.76843 103.476712 
L 238.793223 102.741706 
L 239.818017 102.0067 
L 240.84281 101.271695 
L 241.867603 100.536689 
L 242.892397 99.801683 
L 243.91719 99.066677 
L 244.941983 98.331671 
L 245.966777 97.596666 
L 246.99157 96.86166 
L 248.016364 96.126654 
L 249.041157 95.391648 
L 250.06595 94.656642 
L 251.090744 93.921636 
L 252.115537 93.186631 
L 253.140331 92.451625 
L 254.165124 91.716619 
L 255.189917 90.981613 
L 256.214711 90.246607 
L 257.239504 89.511602 
L 258.264298 88.776596 
L 259.289091 88.04159 
L 260.313884 87.306584 
L 261.338678 86.571578 
L 262.363471 85.836573 
L 263.388264 85.101567 
L 264.413058 84.366561 
L 265.437851 83.631555 
L 266.462645 82.896549 
L 267.487438 82.161543 
L 268.512231 81.426538 
L 269.537025 80.691532 
L 270.561818 79.956526 
L 271.586612 79.22152 
L 272.611405 78.486514 
L 273.636198 77.751509 
L 274.660992 77.016503 
L 275.685785 76.281497 
L 276.710579 75.546491 
L 277.735372 74.811485 
L 278.760165 74.07648 
L 279.784959 73.341474 
L 280.809752 72.606468 
L 281.834545 71.871462 
L 282.859339 71.136456 
L 283.884132 70.40145 
L 284.908926 69.666445 
L 285.933719 68.931439 
L 286.958512 68.196433 
L 287.983306 67.461427 
L 289.008099 66.726421 
L 290.032893 65.991416 
L 291.057686 65.25641 
L 292.082479 64.521404 
L 293.107273 63.786398 
" clip-path="url(#pddcc7f9d13)" style="fill: none; stroke: #000000; stroke-width: 2; stroke-linecap: square"/>
   </g>
   <g id="patch_6">
    <path d="M 186.58 179.27 
L 186.58 12.95 
" style="fill: none; stroke: #000000; stroke-width: 0.8; stroke-linejoin: miter; stroke-linecap: square"/>
   </g>
   <g id="patch_7">
    <path d="M 186.58 179.27 
L 298.18 179.27 
" style="fill: none; stroke: #000000; stroke-width: 0.8; stroke-linejoin: miter; stroke-linecap: square"/>
   </g>
   <g id="text_23">
    <!-- r=0.43, p=.066 -->
    <g transform="translate(216.36 12.95) scale(0.08 -0.08)">
     <defs>
      <path id="ArialMT-34" d="M 2069 0 
L 2069 1097 
L 81 1097 
L 81 1613 
L 2172 4581 
L 2631 4581 
L 2631 1613 
L 3250 1613 
L 3250 1097 
L 2631 1097 
L 2631 0 
L 2069 0 
z
M 2069 1613 
L 2069 3678 
L 634 1613 
L 2069 1613 
z
" transform="scale(0.015625)"/>
      <path id="ArialMT-33" d="M 269 1209 
L 831 1284 
Q 928 806 1161 595 
Q 1394 384 1728 384 
Q 2125 384 2398 659 
Q 2672 934 2672 1341 
Q 2672 1728 2419 1979 
Q 2166 2231 1775 2231 
Q 1616 2231 1378 2169 
L 1441 2663 
Q 1497 2656 1531 2656 
Q 1891 2656 2178 2843 
Q 2466 3031 2466 3422 
Q 2466 3731 2256 3934 
Q 2047 4138 1716 4138 
Q 1388 4138 1169 3931 
Q 950 3725 888 3313 
L 325 3413 
Q 428 3978 793 4289 
Q 1159 4600 1703 4600 
Q 2078 4600 2393 4439 
Q 2709 4278 2876 4000 
Q 3044 3722 3044 3409 
Q 3044 3113 2884 2869 
Q 2725 2625 2413 2481 
Q 2819 2388 3044 2092 
Q 3269 1797 3269 1353 
Q 3269 753 2831 336 
Q 2394 -81 1725 -81 
Q 1122 -81 723 278 
Q 325 638 269 1209 
z
" transform="scale(0.015625)"/>
      <path id="ArialMT-36" d="M 3184 3459 
L 2625 3416 
Q 2550 3747 2413 3897 
Q 2184 4138 1850 4138 
Q 1581 4138 1378 3988 
Q 1113 3794 959 3422 
Q 806 3050 800 2363 
Q 1003 2672 1297 2822 
Q 1591 2972 1913 2972 
Q 2475 2972 2870 2558 
Q 3266 2144 3266 1488 
Q 3266 1056 3080 686 
Q 2894 316 2569 119 
Q 2244 -78 1831 -78 
Q 1128 -78 684 439 
Q 241 956 241 2144 
Q 241 3472 731 4075 
Q 1159 4600 1884 4600 
Q 2425 4600 2770 4297 
Q 3116 3994 3184 3459 
z
M 888 1484 
Q 888 1194 1011 928 
Q 1134 663 1356 523 
Q 1578 384 1822 384 
Q 2178 384 2434 671 
Q 2691 959 2691 1453 
Q 2691 1928 2437 2201 
Q 2184 2475 1800 2475 
Q 1419 2475 1153 2201 
Q 888 1928 888 1484 
z
" transform="scale(0.015625)"/>
     </defs>
     <use xlink:href="#ArialMT-72"/>
     <use xlink:href="#ArialMT-3d" x="33.300781"/>
     <use xlink:href="#ArialMT-30" x="91.699219"/>
     <use xlink:href="#ArialMT-2e" x="147.314453"/>
     <use xlink:href="#ArialMT-34" x="175.097656"/>
     <use xlink:href="#ArialMT-33" x="230.712891"/>
     <use xlink:href="#ArialMT-2c" x="286.328125"/>
     <use xlink:href="#ArialMT-20" x="314.111328"/>
     <use xlink:href="#ArialMT-70" x="341.894531"/>
     <use xlink:href="#ArialMT-3d" x="397.509766"/>
     <use xlink:href="#ArialMT-2e" x="455.908203"/>
     <use xlink:href="#ArialMT-30" x="483.691406"/>
     <use xlink:href="#ArialMT-36" x="539.306641"/>
     <use xlink:href="#ArialMT-36" x="594.921875"/>
    </g>
   </g>
  </g>
  <g id="axes_3">
   <g id="patch_8">
    <path d="M 331.66 179.27 
L 443.26 179.27 
L 443.26 12.95 
L 331.66 12.95 
z
" style="fill: #ffffff"/>
   </g>
   <g id="PathCollection_3">
    <g clip-path="url(#p2d2f670e4f)">
     <use xlink:href="#m22637a6f16" x="397.283613" y="108.583227" style="fill: #28aeed; stroke: #28aeed"/>
     <use xlink:href="#m22637a6f16" x="353.477618" y="124.856269" style="fill: #28aeed; stroke: #28aeed"/>
     <use xlink:href="#m22637a6f16" x="382.654541" y="50.341981" style="fill: #28aeed; stroke: #28aeed"/>
     <use xlink:href="#m22637a6f16" x="438.187273" y="68.372188" style="fill: #28aeed; stroke: #28aeed"/>
     <use xlink:href="#m22637a6f16" x="372.341616" y="127.700477" style="fill: #28aeed; stroke: #28aeed"/>
     <use xlink:href="#m22637a6f16" x="367.394974" y="137.884218" style="fill: #28aeed; stroke: #28aeed"/>
     <use xlink:href="#m22637a6f16" x="361.922158" y="120.163333" style="fill: #28aeed; stroke: #28aeed"/>
     <use xlink:href="#m22637a6f16" x="365.628627" y="101.107972" style="fill: #28aeed; stroke: #28aeed"/>
     <use xlink:href="#m22637a6f16" x="398.35408" y="82.902052" style="fill: #28aeed; stroke: #28aeed"/>
     <use xlink:href="#m22637a6f16" x="349.407495" y="137.762173" style="fill: #28aeed; stroke: #28aeed"/>
     <use xlink:href="#m22637a6f16" x="400.54052" y="71.065961" style="fill: #28aeed; stroke: #28aeed"/>
     <use xlink:href="#m22637a6f16" x="350.360757" y="130.823944" style="fill: #28aeed; stroke: #28aeed"/>
     <use xlink:href="#m22637a6f16" x="336.732727" y="122.058113" style="fill: #28aeed; stroke: #28aeed"/>
     <use xlink:href="#m22637a6f16" x="371.113014" y="171.71" style="fill: #28aeed; stroke: #28aeed"/>
     <use xlink:href="#m22637a6f16" x="369.196771" y="122.311882" style="fill: #28aeed; stroke: #28aeed"/>
     <use xlink:href="#m22637a6f16" x="392.16873" y="80.189012" style="fill: #28aeed; stroke: #28aeed"/>
     <use xlink:href="#m22637a6f16" x="344.637535" y="158.32263" style="fill: #28aeed; stroke: #28aeed"/>
     <use xlink:href="#m22637a6f16" x="362.482157" y="99.260933" style="fill: #28aeed; stroke: #28aeed"/>
     <use xlink:href="#m22637a6f16" x="386.445041" y="104.939317" style="fill: #28aeed; stroke: #28aeed"/>
    </g>
   </g>
   <g id="PolyCollection_3">
    <path d="M 336.732727 129.66304 
L 336.732727 161.902713 
L 337.757521 160.717262 
L 338.782314 159.430969 
L 339.807107 158.337325 
L 340.831901 157.252699 
L 341.856694 155.823065 
L 342.881488 154.837718 
L 343.906281 153.491441 
L 344.931074 152.302811 
L 345.955868 150.791553 
L 346.980661 149.825524 
L 348.005455 148.897437 
L 349.030248 147.609849 
L 350.055041 146.558754 
L 351.079835 145.312046 
L 352.104628 143.973139 
L 353.129421 142.795176 
L 354.154215 141.658355 
L 355.179008 140.68053 
L 356.203802 139.519665 
L 357.228595 138.213712 
L 358.253388 137.093079 
L 359.278182 135.924126 
L 360.302975 135.028902 
L 361.327769 134.170229 
L 362.352562 133.042492 
L 363.377355 131.911287 
L 364.402149 130.774535 
L 365.426942 129.686118 
L 366.451736 129.000629 
L 367.476529 127.871576 
L 368.501322 126.910384 
L 369.526116 126.044324 
L 370.550909 125.136571 
L 371.575702 124.230632 
L 372.600496 123.403161 
L 373.625289 122.41477 
L 374.650083 121.62869 
L 375.674876 120.598858 
L 376.699669 119.724842 
L 377.724463 119.033051 
L 378.749256 118.217688 
L 379.77405 117.52175 
L 380.798843 116.763013 
L 381.823636 115.897494 
L 382.84843 115.101905 
L 383.873223 114.236743 
L 384.898017 113.489256 
L 385.92281 112.795707 
L 386.947603 111.859122 
L 387.972397 111.077399 
L 388.99719 110.169497 
L 390.021983 109.298325 
L 391.046777 108.666619 
L 392.07157 107.993076 
L 393.096364 107.20459 
L 394.121157 106.345663 
L 395.14595 105.750431 
L 396.170744 105.15288 
L 397.195537 104.554858 
L 398.220331 103.714355 
L 399.245124 103.103535 
L 400.269917 102.441481 
L 401.294711 101.834771 
L 402.319504 101.210225 
L 403.344298 100.551516 
L 404.369091 99.75231 
L 405.393884 99.023892 
L 406.418678 98.292992 
L 407.443471 97.758852 
L 408.468264 97.230943 
L 409.493058 96.500772 
L 410.517851 95.745086 
L 411.542645 94.98199 
L 412.567438 94.182347 
L 413.592231 93.382703 
L 414.617025 92.583059 
L 415.641818 91.863485 
L 416.666612 91.112455 
L 417.691405 90.29404 
L 418.716198 89.50365 
L 419.740992 88.771205 
L 420.765785 88.038759 
L 421.790579 87.35539 
L 422.815372 86.690454 
L 423.840165 85.938889 
L 424.864959 85.32023 
L 425.889752 84.761036 
L 426.914545 84.17414 
L 427.939339 83.540168 
L 428.964132 82.906196 
L 429.988926 82.271131 
L 431.013719 81.632946 
L 432.038512 80.994761 
L 433.063306 80.31114 
L 434.088099 79.587644 
L 435.112893 78.864149 
L 436.137686 78.139613 
L 437.162479 77.414175 
L 438.187273 76.688738 
L 438.187273 20.51 
L 438.187273 20.51 
L 437.162479 21.934496 
L 436.137686 23.358993 
L 435.112893 24.783489 
L 434.088099 26.207985 
L 433.063306 27.632482 
L 432.038512 29.05778 
L 431.013719 30.387647 
L 429.988926 31.693778 
L 428.964132 32.999908 
L 427.939339 34.306038 
L 426.914545 35.612168 
L 425.889752 37.040546 
L 424.864959 38.627999 
L 423.840165 39.917113 
L 422.815372 41.159212 
L 421.790579 42.40131 
L 420.765785 43.643408 
L 419.740992 44.885507 
L 418.716198 46.315059 
L 417.691405 47.729028 
L 416.666612 49.019256 
L 415.641818 50.310726 
L 414.617025 51.602406 
L 413.592231 52.894086 
L 412.567438 54.187086 
L 411.542645 55.484294 
L 410.517851 56.846719 
L 409.493058 58.191622 
L 408.468264 59.569577 
L 407.443471 61.000557 
L 406.418678 62.208675 
L 405.393884 63.416946 
L 404.369091 64.625871 
L 403.344298 65.834796 
L 402.319504 67.197735 
L 401.294711 68.652098 
L 400.269917 70.02077 
L 399.245124 71.043024 
L 398.220331 72.271264 
L 397.195537 73.561577 
L 396.170744 74.853201 
L 395.14595 76.134712 
L 394.121157 77.317107 
L 393.096364 78.638834 
L 392.07157 79.770592 
L 391.046777 81.070166 
L 390.021983 82.418588 
L 388.99719 83.668169 
L 387.972397 85.110233 
L 386.947603 86.260823 
L 385.92281 87.456558 
L 384.898017 88.570236 
L 383.873223 89.683914 
L 382.84843 90.820302 
L 381.823636 91.951345 
L 380.798843 93.013122 
L 379.77405 94.118714 
L 378.749256 95.070896 
L 377.724463 96.142348 
L 376.699669 97.209895 
L 375.674876 98.236879 
L 374.650083 99.113371 
L 373.625289 100.024744 
L 372.600496 100.941162 
L 371.575702 102.022653 
L 370.550909 103.06786 
L 369.526116 103.961644 
L 368.501322 104.794852 
L 367.476529 106.299051 
L 366.451736 107.113352 
L 365.426942 107.876005 
L 364.402149 108.638659 
L 363.377355 109.401312 
L 362.352562 110.147097 
L 361.327769 110.927979 
L 360.302975 111.703713 
L 359.278182 112.628233 
L 358.253388 113.562671 
L 357.228595 114.498458 
L 356.203802 115.279136 
L 355.179008 116.020014 
L 354.154215 116.818479 
L 353.129421 117.586527 
L 352.104628 118.454369 
L 351.079835 119.241828 
L 350.055041 119.904024 
L 349.030248 120.696258 
L 348.005455 121.44405 
L 346.980661 122.117006 
L 345.955868 122.922056 
L 344.931074 123.754505 
L 343.906281 124.571573 
L 342.881488 125.29629 
L 341.856694 126.066807 
L 340.831901 126.835813 
L 339.807107 127.545106 
L 338.782314 128.249805 
L 337.757521 128.955011 
L 336.732727 129.66304 
z
" clip-path="url(#p2d2f670e4f)" style="fill-opacity: 0.15"/>
   </g>
   <g id="matplotlib.axis_5">
    <g id="xtick_6">
     <g id="line2d_20">
      <g>
       <use xlink:href="#m68fe7b6eb1" x="344.173835" y="179.27" style="stroke: #000000; stroke-width: 0.8"/>
      </g>
     </g>
     <g id="text_24">
      <!-- −2 -->
      <g transform="translate(339.61321 191.99625) scale(0.08 -0.08)">
       <use xlink:href="#ArialMT-2212"/>
       <use xlink:href="#ArialMT-32" x="58.398438"/>
      </g>
     </g>
    </g>
    <g id="xtick_7">
     <g id="line2d_21">
      <g>
       <use xlink:href="#m68fe7b6eb1" x="373.701539" y="179.27" style="stroke: #000000; stroke-width: 0.8"/>
      </g>
     </g>
     <g id="text_25">
      <!-- 0 -->
      <g transform="translate(371.477164 191.99625) scale(0.08 -0.08)">
       <use xlink:href="#ArialMT-30"/>
      </g>
     </g>
    </g>
    <g id="xtick_8">
     <g id="line2d_22">
      <g>
       <use xlink:href="#m68fe7b6eb1" x="403.229244" y="179.27" style="stroke: #000000; stroke-width: 0.8"/>
      </g>
     </g>
     <g id="text_26">
      <!-- 2 -->
      <g transform="translate(401.004869 191.99625) scale(0.08 -0.08)">
       <use xlink:href="#ArialMT-32"/>
      </g>
     </g>
    </g>
    <g id="xtick_9">
     <g id="line2d_23">
      <g>
       <use xlink:href="#m68fe7b6eb1" x="432.756948" y="179.27" style="stroke: #000000; stroke-width: 0.8"/>
      </g>
     </g>
     <g id="text_27">
      <!-- 4 -->
      <g transform="translate(430.532573 191.99625) scale(0.08 -0.08)">
       <use xlink:href="#ArialMT-34"/>
      </g>
     </g>
    </g>
    <g id="text_28">
     <!-- Radial Diffusivity + Volume Total (Standardized) -->
     <g transform="translate(303.231875 203.41) scale(0.08 -0.08)">
      <defs>
       <path id="ArialMT-2b" d="M 1603 741 
L 1603 1997 
L 356 1997 
L 356 2522 
L 1603 2522 
L 1603 3769 
L 2134 3769 
L 2134 2522 
L 3381 2522 
L 3381 1997 
L 2134 1997 
L 2134 741 
L 1603 741 
z
" transform="scale(0.015625)"/>
      </defs>
      <use xlink:href="#ArialMT-52"/>
      <use xlink:href="#ArialMT-61" x="72.216797"/>
      <use xlink:href="#ArialMT-64" x="127.832031"/>
      <use xlink:href="#ArialMT-69" x="183.447266"/>
      <use xlink:href="#ArialMT-61" x="205.664062"/>
      <use xlink:href="#ArialMT-6c" x="261.279297"/>
      <use xlink:href="#ArialMT-20" x="283.496094"/>
      <use xlink:href="#ArialMT-44" x="311.279297"/>
      <use xlink:href="#ArialMT-69" x="383.496094"/>
      <use xlink:href="#ArialMT-66" x="405.712891"/>
      <use xlink:href="#ArialMT-66" x="431.746094"/>
      <use xlink:href="#ArialMT-75" x="459.529297"/>
      <use xlink:href="#ArialMT-73" x="515.144531"/>
      <use xlink:href="#ArialMT-69" x="565.144531"/>
      <use xlink:href="#ArialMT-76" x="587.361328"/>
      <use xlink:href="#ArialMT-69" x="637.361328"/>
      <use xlink:href="#ArialMT-74" x="659.578125"/>
      <use xlink:href="#ArialMT-79" x="687.361328"/>
      <use xlink:href="#ArialMT-20" x="737.361328"/>
      <use xlink:href="#ArialMT-2b" x="765.144531"/>
      <use xlink:href="#ArialMT-20" x="823.542969"/>
      <use xlink:href="#ArialMT-56" x="851.326172"/>
      <use xlink:href="#ArialMT-6f" x="912.525391"/>
      <use xlink:href="#ArialMT-6c" x="968.140625"/>
      <use xlink:href="#ArialMT-75" x="990.357422"/>
      <use xlink:href="#ArialMT-6d" x="1045.972656"/>
      <use xlink:href="#ArialMT-65" x="1129.273438"/>
      <use xlink:href="#ArialMT-20" x="1184.888672"/>
      <use xlink:href="#ArialMT-54" x="1210.921875"/>
      <use xlink:href="#ArialMT-6f" x="1260.880859"/>
      <use xlink:href="#ArialMT-74" x="1316.496094"/>
      <use xlink:href="#ArialMT-61" x="1344.279297"/>
      <use xlink:href="#ArialMT-6c" x="1399.894531"/>
      <use xlink:href="#ArialMT-20" x="1422.111328"/>
      <use xlink:href="#ArialMT-28" x="1449.894531"/>
      <use xlink:href="#ArialMT-53" x="1483.195312"/>
      <use xlink:href="#ArialMT-74" x="1549.894531"/>
      <use xlink:href="#ArialMT-61" x="1577.677734"/>
      <use xlink:href="#ArialMT-6e" x="1633.292969"/>
      <use xlink:href="#ArialMT-64" x="1688.908203"/>
      <use xlink:href="#ArialMT-61" x="1744.523438"/>
      <use xlink:href="#ArialMT-72" x="1800.138672"/>
      <use xlink:href="#ArialMT-64" x="1833.439453"/>
      <use xlink:href="#ArialMT-69" x="1889.054688"/>
      <use xlink:href="#ArialMT-7a" x="1911.271484"/>
      <use xlink:href="#ArialMT-65" x="1961.271484"/>
      <use xlink:href="#ArialMT-64" x="2016.886719"/>
      <use xlink:href="#ArialMT-29" x="2072.501953"/>
     </g>
    </g>
   </g>
   <g id="matplotlib.axis_6">
    <g id="ytick_13">
     <g id="line2d_24">
      <g>
       <use xlink:href="#m159a2c4d24" x="331.66" y="159.390386" style="stroke: #000000; stroke-width: 0.8"/>
      </g>
     </g>
     <g id="text_29">
      <!-- −2 -->
      <g transform="translate(315.53875 162.253511) scale(0.08 -0.08)">
       <use xlink:href="#ArialMT-2212"/>
       <use xlink:href="#ArialMT-32" x="58.398438"/>
      </g>
     </g>
    </g>
    <g id="ytick_14">
     <g id="line2d_25">
      <g>
       <use xlink:href="#m159a2c4d24" x="331.66" y="135.121998" style="stroke: #000000; stroke-width: 0.8"/>
      </g>
     </g>
     <g id="text_30">
      <!-- −1 -->
      <g transform="translate(315.53875 137.985123) scale(0.08 -0.08)">
       <use xlink:href="#ArialMT-2212"/>
       <use xlink:href="#ArialMT-31" x="58.398438"/>
      </g>
     </g>
    </g>
    <g id="ytick_15">
     <g id="line2d_26">
      <g>
       <use xlink:href="#m159a2c4d24" x="331.66" y="110.85361" style="stroke: #000000; stroke-width: 0.8"/>
      </g>
     </g>
     <g id="text_31">
      <!-- 0 -->
      <g transform="translate(320.21125 113.716735) scale(0.08 -0.08)">
       <use xlink:href="#ArialMT-30"/>
      </g>
     </g>
    </g>
    <g id="ytick_16">
     <g id="line2d_27">
      <g>
       <use xlink:href="#m159a2c4d24" x="331.66" y="86.585222" style="stroke: #000000; stroke-width: 0.8"/>
      </g>
     </g>
     <g id="text_32">
      <!-- 1 -->
      <g transform="translate(320.21125 89.448347) scale(0.08 -0.08)">
       <use xlink:href="#ArialMT-31"/>
      </g>
     </g>
    </g>
    <g id="ytick_17">
     <g id="line2d_28">
      <g>
       <use xlink:href="#m159a2c4d24" x="331.66" y="62.316834" style="stroke: #000000; stroke-width: 0.8"/>
      </g>
     </g>
     <g id="text_33">
      <!-- 2 -->
      <g transform="translate(320.21125 65.179959) scale(0.08 -0.08)">
       <use xlink:href="#ArialMT-32"/>
      </g>
     </g>
    </g>
    <g id="ytick_18">
     <g id="line2d_29">
      <g>
       <use xlink:href="#m159a2c4d24" x="331.66" y="38.048446" style="stroke: #000000; stroke-width: 0.8"/>
      </g>
     </g>
     <g id="text_34">
      <!-- 3 -->
      <g transform="translate(320.21125 40.911571) scale(0.08 -0.08)">
       <use xlink:href="#ArialMT-33"/>
      </g>
     </g>
    </g>
    <g id="ytick_19">
     <g id="line2d_30">
      <g>
       <use xlink:href="#m159a2c4d24" x="331.66" y="13.780058" style="stroke: #000000; stroke-width: 0.8"/>
      </g>
     </g>
     <g id="text_35">
      <!-- 4 -->
      <g transform="translate(320.21125 16.643183) scale(0.08 -0.08)">
       <use xlink:href="#ArialMT-34"/>
      </g>
     </g>
    </g>
    <g id="text_36">
     <!-- Predicted Composite from KEM (Standardized) -->
     <g transform="translate(309.855 179.4725) rotate(-90) scale(0.08 -0.08)">
      <defs>
       <path id="ArialMT-43" d="M 3763 1606 
L 4369 1453 
Q 4178 706 3683 314 
Q 3188 -78 2472 -78 
Q 1731 -78 1267 223 
Q 803 525 561 1097 
Q 319 1669 319 2325 
Q 319 3041 592 3573 
Q 866 4106 1370 4382 
Q 1875 4659 2481 4659 
Q 3169 4659 3637 4309 
Q 4106 3959 4291 3325 
L 3694 3184 
Q 3534 3684 3231 3912 
Q 2928 4141 2469 4141 
Q 1941 4141 1586 3887 
Q 1231 3634 1087 3207 
Q 944 2781 944 2328 
Q 944 1744 1114 1308 
Q 1284 872 1643 656 
Q 2003 441 2422 441 
Q 2931 441 3284 734 
Q 3638 1028 3763 1606 
z
" transform="scale(0.015625)"/>
      </defs>
      <use xlink:href="#ArialMT-50"/>
      <use xlink:href="#ArialMT-72" x="66.699219"/>
      <use xlink:href="#ArialMT-65" x="100"/>
      <use xlink:href="#ArialMT-64" x="155.615234"/>
      <use xlink:href="#ArialMT-69" x="211.230469"/>
      <use xlink:href="#ArialMT-63" x="233.447266"/>
      <use xlink:href="#ArialMT-74" x="283.447266"/>
      <use xlink:href="#ArialMT-65" x="311.230469"/>
      <use xlink:href="#ArialMT-64" x="366.845703"/>
      <use xlink:href="#ArialMT-20" x="422.460938"/>
      <use xlink:href="#ArialMT-43" x="450.244141"/>
      <use xlink:href="#ArialMT-6f" x="522.460938"/>
      <use xlink:href="#ArialMT-6d" x="578.076172"/>
      <use xlink:href="#ArialMT-70" x="661.376953"/>
      <use xlink:href="#ArialMT-6f" x="716.992188"/>
      <use xlink:href="#ArialMT-73" x="772.607422"/>
      <use xlink:href="#ArialMT-69" x="822.607422"/>
      <use xlink:href="#ArialMT-74" x="844.824219"/>
      <use xlink:href="#ArialMT-65" x="872.607422"/>
      <use xlink:href="#ArialMT-20" x="928.222656"/>
      <use xlink:href="#ArialMT-66" x="956.005859"/>
      <use xlink:href="#ArialMT-72" x="983.789062"/>
      <use xlink:href="#ArialMT-6f" x="1017.089844"/>
      <use xlink:href="#ArialMT-6d" x="1072.705078"/>
      <use xlink:href="#ArialMT-20" x="1156.005859"/>
      <use xlink:href="#ArialMT-4b" x="1183.789062"/>
      <use xlink:href="#ArialMT-45" x="1250.488281"/>
      <use xlink:href="#ArialMT-4d" x="1317.1875"/>
      <use xlink:href="#ArialMT-20" x="1400.488281"/>
      <use xlink:href="#ArialMT-28" x="1428.271484"/>
      <use xlink:href="#ArialMT-53" x="1461.572266"/>
      <use xlink:href="#ArialMT-74" x="1528.271484"/>
      <use xlink:href="#ArialMT-61" x="1556.054688"/>
      <use xlink:href="#ArialMT-6e" x="1611.669922"/>
      <use xlink:href="#ArialMT-64" x="1667.285156"/>
      <use xlink:href="#ArialMT-61" x="1722.900391"/>
      <use xlink:href="#ArialMT-72" x="1778.515625"/>
      <use xlink:href="#ArialMT-64" x="1811.816406"/>
      <use xlink:href="#ArialMT-69" x="1867.431641"/>
      <use xlink:href="#ArialMT-7a" x="1889.648438"/>
      <use xlink:href="#ArialMT-65" x="1939.648438"/>
      <use xlink:href="#ArialMT-64" x="1995.263672"/>
      <use xlink:href="#ArialMT-29" x="2050.878906"/>
     </g>
    </g>
   </g>
   <g id="line2d_31">
    <path d="M 336.732727 143.263489 
L 337.757521 142.385697 
L 338.782314 141.507905 
L 339.807107 140.630113 
L 340.831901 139.752321 
L 341.856694 138.874529 
L 342.881488 137.996737 
L 343.906281 137.118945 
L 344.931074 136.241153 
L 345.955868 135.363361 
L 346.980661 134.48557 
L 348.005455 133.607778 
L 349.030248 132.729986 
L 350.055041 131.852194 
L 351.079835 130.974402 
L 352.104628 130.09661 
L 353.129421 129.218818 
L 354.154215 128.341026 
L 355.179008 127.463234 
L 356.203802 126.585442 
L 357.228595 125.70765 
L 358.253388 124.829858 
L 359.278182 123.952067 
L 360.302975 123.074275 
L 361.327769 122.196483 
L 362.352562 121.318691 
L 363.377355 120.440899 
L 364.402149 119.563107 
L 365.426942 118.685315 
L 366.451736 117.807523 
L 367.476529 116.929731 
L 368.501322 116.051939 
L 369.526116 115.174147 
L 370.550909 114.296355 
L 371.575702 113.418564 
L 372.600496 112.540772 
L 373.625289 111.66298 
L 374.650083 110.785188 
L 375.674876 109.907396 
L 376.699669 109.029604 
L 377.724463 108.151812 
L 378.749256 107.27402 
L 379.77405 106.396228 
L 380.798843 105.518436 
L 381.823636 104.640644 
L 382.84843 103.762852 
L 383.873223 102.885061 
L 384.898017 102.007269 
L 385.92281 101.129477 
L 386.947603 100.251685 
L 387.972397 99.373893 
L 388.99719 98.496101 
L 390.021983 97.618309 
L 391.046777 96.740517 
L 392.07157 95.862725 
L 393.096364 94.984933 
L 394.121157 94.107141 
L 395.14595 93.229349 
L 396.170744 92.351558 
L 397.195537 91.473766 
L 398.220331 90.595974 
L 399.245124 89.718182 
L 400.269917 88.84039 
L 401.294711 87.962598 
L 402.319504 87.084806 
L 403.344298 86.207014 
L 404.369091 85.329222 
L 405.393884 84.45143 
L 406.418678 83.573638 
L 407.443471 82.695846 
L 408.468264 81.818055 
L 409.493058 80.940263 
L 410.517851 80.062471 
L 411.542645 79.184679 
L 412.567438 78.306887 
L 413.592231 77.429095 
L 414.617025 76.551303 
L 415.641818 75.673511 
L 416.666612 74.795719 
L 417.691405 73.917927 
L 418.716198 73.040135 
L 419.740992 72.162343 
L 420.765785 71.284552 
L 421.790579 70.40676 
L 422.815372 69.528968 
L 423.840165 68.651176 
L 424.864959 67.773384 
L 425.889752 66.895592 
L 426.914545 66.0178 
L 427.939339 65.140008 
L 428.964132 64.262216 
L 429.988926 63.384424 
L 431.013719 62.506632 
L 432.038512 61.62884 
L 433.063306 60.751049 
L 434.088099 59.873257 
L 435.112893 58.995465 
L 436.137686 58.117673 
L 437.162479 57.239881 
L 438.187273 56.362089 
" clip-path="url(#p2d2f670e4f)" style="fill: none; stroke: #000000; stroke-width: 2; stroke-linecap: square"/>
   </g>
   <g id="patch_9">
    <path d="M 331.66 179.27 
L 331.66 12.95 
" style="fill: none; stroke: #000000; stroke-width: 0.8; stroke-linejoin: miter; stroke-linecap: square"/>
   </g>
   <g id="patch_10">
    <path d="M 331.66 179.27 
L 443.26 179.27 
" style="fill: none; stroke: #000000; stroke-width: 0.8; stroke-linejoin: miter; stroke-linecap: square"/>
   </g>
   <g id="text_37">
    <!-- r=0.67, p=.002 -->
    <g transform="translate(361.44 12.95) scale(0.08 -0.08)">
     <defs>
      <path id="ArialMT-37" d="M 303 3981 
L 303 4522 
L 3269 4522 
L 3269 4084 
Q 2831 3619 2401 2847 
Q 1972 2075 1738 1259 
Q 1569 684 1522 0 
L 944 0 
Q 953 541 1156 1306 
Q 1359 2072 1739 2783 
Q 2119 3494 2547 3981 
L 303 3981 
z
" transform="scale(0.015625)"/>
     </defs>
     <use xlink:href="#ArialMT-72"/>
     <use xlink:href="#ArialMT-3d" x="33.300781"/>
     <use xlink:href="#ArialMT-30" x="91.699219"/>
     <use xlink:href="#ArialMT-2e" x="147.314453"/>
     <use xlink:href="#ArialMT-36" x="175.097656"/>
     <use xlink:href="#ArialMT-37" x="230.712891"/>
     <use xlink:href="#ArialMT-2c" x="286.328125"/>
     <use xlink:href="#ArialMT-20" x="314.111328"/>
     <use xlink:href="#ArialMT-70" x="341.894531"/>
     <use xlink:href="#ArialMT-3d" x="397.509766"/>
     <use xlink:href="#ArialMT-2e" x="455.908203"/>
     <use xlink:href="#ArialMT-30" x="483.691406"/>
     <use xlink:href="#ArialMT-30" x="539.306641"/>
     <use xlink:href="#ArialMT-32" x="594.921875"/>
    </g>
   </g>
  </g>
 </g>
 <defs>
  <clipPath id="p2a28f823fd">
   <rect x="41.5" y="12.95" width="111.6" height="166.32"/>
  </clipPath>
  <clipPath id="pddcc7f9d13">
   <rect x="186.58" y="12.95" width="111.6" height="166.32"/>
  </clipPath>
  <clipPath id="p2d2f670e4f">
   <rect x="331.66" y="12.95" width="111.6" height="166.32"/>
  </clipPath>
 </defs>
</svg>
