<?xml version="1.0" encoding="utf-8" standalone="no"?>
<!DOCTYPE svg PUBLIC "-//W3C//DTD SVG 1.1//EN"
  "http://www.w3.org/Graphics/SVG/1.1/DTD/svg11.dtd">
<svg xmlns:xlink="http://www.w3.org/1999/xlink" width="450.46pt" height="212.29375pt" viewBox="0 0 450.46 212.29375" xmlns="http://www.w3.org/2000/svg" version="1.1">
 <metadata>
  <rdf:RDF xmlns:dc="http://purl.org/dc/elements/1.1/" xmlns:cc="http://creativecommons.org/ns#" xmlns:rdf="http://www.w3.org/1999/02/22-rdf-syntax-ns#">
   <cc:Work>
    <dc:type rdf:resource="http://purl.org/dc/dcmitype/StillImage"/>
    <dc:date>2025-09-15T16:54:12.528998</dc:date>
    <dc:format>image/svg+xml</dc:format>
    <dc:creator>
     <cc:Agent>
      <dc:title>Matplotlib v3.9.2, https://matplotlib.org/</dc:title>
     </cc:Agent>
    </dc:creator>
   </cc:Work>
  </rdf:RDF>
 </metadata>
 <defs>
  <style type="text/css">*{stroke-linejoin: round; stroke-linecap: butt}</style>
 </defs>
 <g id="figure_1">
  <g id="patch_1">
   <path d="M 0 212.29375 
L 450.46 212.29375 
L 450.46 0 
L 0 0 
z
" style="fill: #ffffff"/>
  </g>
  <g id="axes_1">
   <g id="patch_2">
    <path d="M 41.5 179.27 
L 153.1 179.27 
L 153.1 12.95 
L 41.5 12.95 
z
" style="fill: #ffffff"/>
   </g>
   <g id="PathCollection_1">
    <defs>
     <path id="m8f7978d710" d="M 0 2.236068 
C 0.593012 2.236068 1.161816 2.000462 1.581139 1.581139 
C 2.000462 1.161816 2.236068 0.593012 2.236068 0 
C 2.236068 -0.593012 2.000462 -1.161816 1.581139 -1.581139 
C 1.161816 -2.000462 0.593012 -2.236068 0 -2.236068 
C -0.593012 -2.236068 -1.161816 -2.000462 -1.581139 -1.581139 
C -2.000462 -1.161816 -2.236068 -0.593012 -2.236068 0 
C -2.236068 0.593012 -2.000462 1.161816 -1.581139 1.581139 
C -1.161816 2.000462 -0.593012 2.236068 0 2.236068 
z
" style="stroke: #28aeed; stroke-opacity: 0.8"/>
    </defs>
    <g clip-path="url(#pf609f646d2)">
     <use xlink:href="#m8f7978d710" x="97.218129" y="49.119431" style="fill: #28aeed; fill-opacity: 0.8; stroke: #28aeed; stroke-opacity: 0.8"/>
     <use xlink:href="#m8f7978d710" x="78.918269" y="156.030783" style="fill: #28aeed; fill-opacity: 0.8; stroke: #28aeed; stroke-opacity: 0.8"/>
     <use xlink:href="#m8f7978d710" x="141.241853" y="50.888733" style="fill: #28aeed; fill-opacity: 0.8; stroke: #28aeed; stroke-opacity: 0.8"/>
     <use xlink:href="#m8f7978d710" x="148.027273" y="24.209932" style="fill: #28aeed; fill-opacity: 0.8; stroke: #28aeed; stroke-opacity: 0.8"/>
     <use xlink:href="#m8f7978d710" x="78.36588" y="112.563233" style="fill: #28aeed; fill-opacity: 0.8; stroke: #28aeed; stroke-opacity: 0.8"/>
     <use xlink:href="#m8f7978d710" x="69.303246" y="117.933909" style="fill: #28aeed; fill-opacity: 0.8; stroke: #28aeed; stroke-opacity: 0.8"/>
     <use xlink:href="#m8f7978d710" x="83.96579" y="135.02474" style="fill: #28aeed; fill-opacity: 0.8; stroke: #28aeed; stroke-opacity: 0.8"/>
     <use xlink:href="#m8f7978d710" x="101.168327" y="101.810113" style="fill: #28aeed; fill-opacity: 0.8; stroke: #28aeed; stroke-opacity: 0.8"/>
     <use xlink:href="#m8f7978d710" x="120.680973" y="88.683539" style="fill: #28aeed; fill-opacity: 0.8; stroke: #28aeed; stroke-opacity: 0.8"/>
     <use xlink:href="#m8f7978d710" x="66.797351" y="152.066533" style="fill: #28aeed; fill-opacity: 0.8; stroke: #28aeed; stroke-opacity: 0.8"/>
     <use xlink:href="#m8f7978d710" x="131.179176" y="35.104283" style="fill: #28aeed; fill-opacity: 0.8; stroke: #28aeed; stroke-opacity: 0.8"/>
     <use xlink:href="#m8f7978d710" x="73.145537" y="114.036344" style="fill: #28aeed; fill-opacity: 0.8; stroke: #28aeed; stroke-opacity: 0.8"/>
     <use xlink:href="#m8f7978d710" x="79.73045" y="127.982839" style="fill: #28aeed; fill-opacity: 0.8; stroke: #28aeed; stroke-opacity: 0.8"/>
     <use xlink:href="#m8f7978d710" x="46.572727" y="65.506072" style="fill: #28aeed; fill-opacity: 0.8; stroke: #28aeed; stroke-opacity: 0.8"/>
     <use xlink:href="#m8f7978d710" x="82.727864" y="42.450221" style="fill: #28aeed; fill-opacity: 0.8; stroke: #28aeed; stroke-opacity: 0.8"/>
     <use xlink:href="#m8f7978d710" x="121.989801" y="54.076223" style="fill: #28aeed; fill-opacity: 0.8; stroke: #28aeed; stroke-opacity: 0.8"/>
     <use xlink:href="#m8f7978d710" x="48.661012" y="150.320769" style="fill: #28aeed; fill-opacity: 0.8; stroke: #28aeed; stroke-opacity: 0.8"/>
     <use xlink:href="#m8f7978d710" x="102.485504" y="139.483303" style="fill: #28aeed; fill-opacity: 0.8; stroke: #28aeed; stroke-opacity: 0.8"/>
     <use xlink:href="#m8f7978d710" x="99.578947" y="85.782432" style="fill: #28aeed; fill-opacity: 0.8; stroke: #28aeed; stroke-opacity: 0.8"/>
    </g>
   </g>
   <g id="PolyCollection_1">
    <path d="M 46.572727 105.569851 
L 46.572727 171.71 
L 47.597521 170.250767 
L 48.622314 168.792171 
L 49.647107 167.33723 
L 50.671901 165.882289 
L 51.696694 164.42588 
L 52.721488 163.041836 
L 53.746281 161.689865 
L 54.771074 160.205985 
L 55.795868 158.705916 
L 56.820661 157.236042 
L 57.845455 155.755915 
L 58.870248 154.275789 
L 59.895041 152.848585 
L 60.919835 151.509422 
L 61.944628 150.206373 
L 62.969421 148.903324 
L 63.994215 147.600275 
L 65.019008 146.204702 
L 66.043802 144.769996 
L 67.068595 143.330798 
L 68.093388 141.889403 
L 69.118182 140.388028 
L 70.142975 138.961183 
L 71.167769 137.572424 
L 72.192562 136.223716 
L 73.217355 134.95569 
L 74.242149 133.693476 
L 75.266942 132.444015 
L 76.291736 131.239577 
L 77.316529 130.005605 
L 78.341322 128.540275 
L 79.366116 127.053234 
L 80.390909 125.632275 
L 81.415702 124.442249 
L 82.440496 123.26184 
L 83.465289 122.076373 
L 84.490083 120.888616 
L 85.514876 119.65793 
L 86.539669 118.433609 
L 87.564463 117.337126 
L 88.589256 116.153445 
L 89.61405 114.969862 
L 90.638843 113.527245 
L 91.663636 112.358777 
L 92.68843 111.165053 
L 93.713223 109.914662 
L 94.738017 109.14542 
L 95.76281 108.106736 
L 96.787603 107.072973 
L 97.812397 106.108292 
L 98.83719 105.47708 
L 99.861983 104.681301 
L 100.886777 103.625038 
L 101.91157 103.090925 
L 102.936364 102.298376 
L 103.961157 101.495382 
L 104.98595 100.065861 
L 106.010744 99.453933 
L 107.035537 98.849758 
L 108.060331 98.249127 
L 109.085124 97.508887 
L 110.109917 96.716911 
L 111.134711 95.999041 
L 112.159504 95.47628 
L 113.184298 94.954481 
L 114.209091 94.429554 
L 115.233884 93.956983 
L 116.258678 93.558772 
L 117.283471 93.164592 
L 118.308264 92.767965 
L 119.333058 92.359303 
L 120.357851 91.682868 
L 121.382645 90.900145 
L 122.407438 90.434933 
L 123.432231 89.712819 
L 124.457025 89.181892 
L 125.481818 88.665292 
L 126.506612 88.153748 
L 127.531405 87.850799 
L 128.556198 87.54785 
L 129.580992 87.264635 
L 130.605785 87.034391 
L 131.630579 86.801694 
L 132.655372 86.564698 
L 133.680165 86.32592 
L 134.704959 85.964108 
L 135.729752 85.412799 
L 136.754545 85.099198 
L 137.779339 84.791728 
L 138.804132 84.484257 
L 139.828926 84.176787 
L 140.853719 83.978194 
L 141.878512 83.586694 
L 142.903306 83.260009 
L 143.928099 82.867396 
L 144.952893 82.387276 
L 145.977686 81.990581 
L 147.002479 81.593885 
L 148.027273 81.19719 
L 148.027273 20.51 
L 148.027273 20.51 
L 147.002479 21.846445 
L 145.977686 23.598402 
L 144.952893 25.066358 
L 143.928099 26.206509 
L 142.903306 27.717598 
L 141.878512 29.117937 
L 140.853719 30.521465 
L 139.828926 31.978009 
L 138.804132 33.30842 
L 137.779339 34.628982 
L 136.754545 35.949545 
L 135.729752 37.2716 
L 134.704959 38.622549 
L 133.680165 39.911231 
L 132.655372 41.231793 
L 131.630579 42.574226 
L 130.605785 43.871517 
L 129.580992 45.090644 
L 128.556198 46.259571 
L 127.531405 47.615292 
L 126.506612 48.790416 
L 125.481818 49.959642 
L 124.457025 51.161679 
L 123.432231 52.294035 
L 122.407438 53.450866 
L 121.382645 54.631635 
L 120.357851 55.703876 
L 119.333058 56.973187 
L 118.308264 58.348553 
L 117.283471 59.640416 
L 116.258678 60.723285 
L 115.233884 61.788398 
L 114.209091 62.858153 
L 113.184298 63.921832 
L 112.159504 64.975166 
L 111.134711 65.836704 
L 110.109917 66.697708 
L 109.085124 67.706713 
L 108.060331 68.555329 
L 107.035537 69.818208 
L 106.010744 70.805757 
L 104.98595 71.921602 
L 103.961157 72.533739 
L 102.936364 73.486121 
L 101.91157 74.491186 
L 100.886777 75.008525 
L 99.861983 75.620972 
L 98.83719 76.183838 
L 97.812397 76.985606 
L 96.787603 77.645256 
L 95.76281 78.619777 
L 94.738017 79.440194 
L 93.713223 80.138567 
L 92.68843 80.864547 
L 91.663636 81.779098 
L 90.638843 82.724722 
L 89.61405 83.505352 
L 88.589256 83.994777 
L 87.564463 84.626457 
L 86.539669 85.202535 
L 85.514876 85.874671 
L 84.490083 86.381693 
L 83.465289 87.164217 
L 82.440496 87.901196 
L 81.415702 88.518434 
L 80.390909 89.169648 
L 79.366116 89.846566 
L 78.341322 90.298555 
L 77.316529 90.855305 
L 76.291736 91.41411 
L 75.266942 92.180137 
L 74.242149 92.718323 
L 73.217355 93.176107 
L 72.192562 93.642225 
L 71.167769 93.952868 
L 70.142975 94.491543 
L 69.118182 95.028245 
L 68.093388 95.496481 
L 67.068595 96.1238 
L 66.043802 96.668742 
L 65.019008 97.171024 
L 63.994215 97.747893 
L 62.969421 98.293401 
L 61.944628 98.642145 
L 60.919835 99.070451 
L 59.895041 99.776148 
L 58.870248 100.212704 
L 57.845455 100.614316 
L 56.820661 101.015927 
L 55.795868 101.41262 
L 54.771074 101.807543 
L 53.746281 102.207166 
L 52.721488 102.609286 
L 51.696694 103.159082 
L 50.671901 103.782488 
L 49.647107 104.406289 
L 48.622314 105.031305 
L 47.597521 105.428675 
L 46.572727 105.569851 
z
" clip-path="url(#pf609f646d2)" style="fill-opacity: 0.15"/>
   </g>
   <g id="matplotlib.axis_1">
    <g id="xtick_1">
     <g id="line2d_1">
      <defs>
       <path id="m7fe84507c9" d="M 0 0 
L 0 3.5 
" style="stroke: #000000; stroke-width: 0.8"/>
      </defs>
      <g>
       <use xlink:href="#m7fe84507c9" x="67.693843" y="179.27" style="stroke: #000000; stroke-width: 0.8"/>
      </g>
     </g>
     <g id="text_1">
      <!-- 40 -->
      <g transform="translate(63.245093 191.99625) scale(0.08 -0.08)">
       <defs>
        <path id="ArialMT-34" d="M 2069 0 
L 2069 1097 
L 81 1097 
L 81 1613 
L 2172 4581 
L 2631 4581 
L 2631 1613 
L 3250 1613 
L 3250 1097 
L 2631 1097 
L 2631 0 
L 2069 0 
z
M 2069 1613 
L 2069 3678 
L 634 1613 
L 2069 1613 
z
" transform="scale(0.015625)"/>
        <path id="ArialMT-30" d="M 266 2259 
Q 266 3072 433 3567 
Q 600 4063 929 4331 
Q 1259 4600 1759 4600 
Q 2128 4600 2406 4451 
Q 2684 4303 2865 4023 
Q 3047 3744 3150 3342 
Q 3253 2941 3253 2259 
Q 3253 1453 3087 958 
Q 2922 463 2592 192 
Q 2263 -78 1759 -78 
Q 1097 -78 719 397 
Q 266 969 266 2259 
z
M 844 2259 
Q 844 1131 1108 757 
Q 1372 384 1759 384 
Q 2147 384 2411 759 
Q 2675 1134 2675 2259 
Q 2675 3391 2411 3762 
Q 2147 4134 1753 4134 
Q 1366 4134 1134 3806 
Q 844 3388 844 2259 
z
" transform="scale(0.015625)"/>
       </defs>
       <use xlink:href="#ArialMT-34"/>
       <use xlink:href="#ArialMT-30" x="55.615234"/>
      </g>
     </g>
    </g>
    <g id="xtick_2">
     <g id="line2d_2">
      <g>
       <use xlink:href="#m7fe84507c9" x="98.944688" y="179.27" style="stroke: #000000; stroke-width: 0.8"/>
      </g>
     </g>
     <g id="text_2">
      <!-- 60 -->
      <g transform="translate(94.495938 191.99625) scale(0.08 -0.08)">
       <defs>
        <path id="ArialMT-36" d="M 3184 3459 
L 2625 3416 
Q 2550 3747 2413 3897 
Q 2184 4138 1850 4138 
Q 1581 4138 1378 3988 
Q 1113 3794 959 3422 
Q 806 3050 800 2363 
Q 1003 2672 1297 2822 
Q 1591 2972 1913 2972 
Q 2475 2972 2870 2558 
Q 3266 2144 3266 1488 
Q 3266 1056 3080 686 
Q 2894 316 2569 119 
Q 2244 -78 1831 -78 
Q 1128 -78 684 439 
Q 241 956 241 2144 
Q 241 3472 731 4075 
Q 1159 4600 1884 4600 
Q 2425 4600 2770 4297 
Q 3116 3994 3184 3459 
z
M 888 1484 
Q 888 1194 1011 928 
Q 1134 663 1356 523 
Q 1578 384 1822 384 
Q 2178 384 2434 671 
Q 2691 959 2691 1453 
Q 2691 1928 2437 2201 
Q 2184 2475 1800 2475 
Q 1419 2475 1153 2201 
Q 888 1928 888 1484 
z
" transform="scale(0.015625)"/>
       </defs>
       <use xlink:href="#ArialMT-36"/>
       <use xlink:href="#ArialMT-30" x="55.615234"/>
      </g>
     </g>
    </g>
    <g id="xtick_3">
     <g id="line2d_3">
      <g>
       <use xlink:href="#m7fe84507c9" x="130.195532" y="179.27" style="stroke: #000000; stroke-width: 0.8"/>
      </g>
     </g>
     <g id="text_3">
      <!-- 80 -->
      <g transform="translate(125.746782 191.99625) scale(0.08 -0.08)">
       <defs>
        <path id="ArialMT-38" d="M 1131 2484 
Q 781 2613 612 2850 
Q 444 3088 444 3419 
Q 444 3919 803 4259 
Q 1163 4600 1759 4600 
Q 2359 4600 2725 4251 
Q 3091 3903 3091 3403 
Q 3091 3084 2923 2848 
Q 2756 2613 2416 2484 
Q 2838 2347 3058 2040 
Q 3278 1734 3278 1309 
Q 3278 722 2862 322 
Q 2447 -78 1769 -78 
Q 1091 -78 675 323 
Q 259 725 259 1325 
Q 259 1772 486 2073 
Q 713 2375 1131 2484 
z
M 1019 3438 
Q 1019 3113 1228 2906 
Q 1438 2700 1772 2700 
Q 2097 2700 2305 2904 
Q 2513 3109 2513 3406 
Q 2513 3716 2298 3927 
Q 2084 4138 1766 4138 
Q 1444 4138 1231 3931 
Q 1019 3725 1019 3438 
z
M 838 1322 
Q 838 1081 952 856 
Q 1066 631 1291 507 
Q 1516 384 1775 384 
Q 2178 384 2440 643 
Q 2703 903 2703 1303 
Q 2703 1709 2433 1975 
Q 2163 2241 1756 2241 
Q 1359 2241 1098 1978 
Q 838 1716 838 1322 
z
" transform="scale(0.015625)"/>
       </defs>
       <use xlink:href="#ArialMT-38"/>
       <use xlink:href="#ArialMT-30" x="55.615234"/>
      </g>
     </g>
    </g>
    <g id="text_4">
     <!-- Knee Extension Moment (Nm) -->
     <g transform="translate(43.726875 203.41) scale(0.08 -0.08)">
      <defs>
       <path id="ArialMT-4b" d="M 469 0 
L 469 4581 
L 1075 4581 
L 1075 2309 
L 3350 4581 
L 4172 4581 
L 2250 2725 
L 4256 0 
L 3456 0 
L 1825 2319 
L 1075 1588 
L 1075 0 
L 469 0 
z
" transform="scale(0.015625)"/>
       <path id="ArialMT-6e" d="M 422 0 
L 422 3319 
L 928 3319 
L 928 2847 
Q 1294 3394 1984 3394 
Q 2284 3394 2536 3286 
Q 2788 3178 2913 3003 
Q 3038 2828 3088 2588 
Q 3119 2431 3119 2041 
L 3119 0 
L 2556 0 
L 2556 2019 
Q 2556 2363 2490 2533 
Q 2425 2703 2258 2804 
Q 2091 2906 1866 2906 
Q 1506 2906 1245 2678 
Q 984 2450 984 1813 
L 984 0 
L 422 0 
z
" transform="scale(0.015625)"/>
       <path id="ArialMT-65" d="M 2694 1069 
L 3275 997 
Q 3138 488 2766 206 
Q 2394 -75 1816 -75 
Q 1088 -75 661 373 
Q 234 822 234 1631 
Q 234 2469 665 2931 
Q 1097 3394 1784 3394 
Q 2450 3394 2872 2941 
Q 3294 2488 3294 1666 
Q 3294 1616 3291 1516 
L 816 1516 
Q 847 969 1125 678 
Q 1403 388 1819 388 
Q 2128 388 2347 550 
Q 2566 713 2694 1069 
z
M 847 1978 
L 2700 1978 
Q 2663 2397 2488 2606 
Q 2219 2931 1791 2931 
Q 1403 2931 1139 2672 
Q 875 2413 847 1978 
z
" transform="scale(0.015625)"/>
       <path id="ArialMT-20" transform="scale(0.015625)"/>
       <path id="ArialMT-45" d="M 506 0 
L 506 4581 
L 3819 4581 
L 3819 4041 
L 1113 4041 
L 1113 2638 
L 3647 2638 
L 3647 2100 
L 1113 2100 
L 1113 541 
L 3925 541 
L 3925 0 
L 506 0 
z
" transform="scale(0.015625)"/>
       <path id="ArialMT-78" d="M 47 0 
L 1259 1725 
L 138 3319 
L 841 3319 
L 1350 2541 
Q 1494 2319 1581 2169 
Q 1719 2375 1834 2534 
L 2394 3319 
L 3066 3319 
L 1919 1756 
L 3153 0 
L 2463 0 
L 1781 1031 
L 1600 1309 
L 728 0 
L 47 0 
z
" transform="scale(0.015625)"/>
       <path id="ArialMT-74" d="M 1650 503 
L 1731 6 
Q 1494 -44 1306 -44 
Q 1000 -44 831 53 
Q 663 150 594 308 
Q 525 466 525 972 
L 525 2881 
L 113 2881 
L 113 3319 
L 525 3319 
L 525 4141 
L 1084 4478 
L 1084 3319 
L 1650 3319 
L 1650 2881 
L 1084 2881 
L 1084 941 
Q 1084 700 1114 631 
Q 1144 563 1211 522 
Q 1278 481 1403 481 
Q 1497 481 1650 503 
z
" transform="scale(0.015625)"/>
       <path id="ArialMT-73" d="M 197 991 
L 753 1078 
Q 800 744 1014 566 
Q 1228 388 1613 388 
Q 2000 388 2187 545 
Q 2375 703 2375 916 
Q 2375 1106 2209 1216 
Q 2094 1291 1634 1406 
Q 1016 1563 777 1677 
Q 538 1791 414 1992 
Q 291 2194 291 2438 
Q 291 2659 392 2848 
Q 494 3038 669 3163 
Q 800 3259 1026 3326 
Q 1253 3394 1513 3394 
Q 1903 3394 2198 3281 
Q 2494 3169 2634 2976 
Q 2775 2784 2828 2463 
L 2278 2388 
Q 2241 2644 2061 2787 
Q 1881 2931 1553 2931 
Q 1166 2931 1000 2803 
Q 834 2675 834 2503 
Q 834 2394 903 2306 
Q 972 2216 1119 2156 
Q 1203 2125 1616 2013 
Q 2213 1853 2448 1751 
Q 2684 1650 2818 1456 
Q 2953 1263 2953 975 
Q 2953 694 2789 445 
Q 2625 197 2315 61 
Q 2006 -75 1616 -75 
Q 969 -75 630 194 
Q 291 463 197 991 
z
" transform="scale(0.015625)"/>
       <path id="ArialMT-69" d="M 425 3934 
L 425 4581 
L 988 4581 
L 988 3934 
L 425 3934 
z
M 425 0 
L 425 3319 
L 988 3319 
L 988 0 
L 425 0 
z
" transform="scale(0.015625)"/>
       <path id="ArialMT-6f" d="M 213 1659 
Q 213 2581 725 3025 
Q 1153 3394 1769 3394 
Q 2453 3394 2887 2945 
Q 3322 2497 3322 1706 
Q 3322 1066 3130 698 
Q 2938 331 2570 128 
Q 2203 -75 1769 -75 
Q 1072 -75 642 372 
Q 213 819 213 1659 
z
M 791 1659 
Q 791 1022 1069 705 
Q 1347 388 1769 388 
Q 2188 388 2466 706 
Q 2744 1025 2744 1678 
Q 2744 2294 2464 2611 
Q 2184 2928 1769 2928 
Q 1347 2928 1069 2612 
Q 791 2297 791 1659 
z
" transform="scale(0.015625)"/>
       <path id="ArialMT-4d" d="M 475 0 
L 475 4581 
L 1388 4581 
L 2472 1338 
Q 2622 884 2691 659 
Q 2769 909 2934 1394 
L 4031 4581 
L 4847 4581 
L 4847 0 
L 4263 0 
L 4263 3834 
L 2931 0 
L 2384 0 
L 1059 3900 
L 1059 0 
L 475 0 
z
" transform="scale(0.015625)"/>
       <path id="ArialMT-6d" d="M 422 0 
L 422 3319 
L 925 3319 
L 925 2853 
Q 1081 3097 1340 3245 
Q 1600 3394 1931 3394 
Q 2300 3394 2536 3241 
Q 2772 3088 2869 2813 
Q 3263 3394 3894 3394 
Q 4388 3394 4653 3120 
Q 4919 2847 4919 2278 
L 4919 0 
L 4359 0 
L 4359 2091 
Q 4359 2428 4304 2576 
Q 4250 2725 4106 2815 
Q 3963 2906 3769 2906 
Q 3419 2906 3187 2673 
Q 2956 2441 2956 1928 
L 2956 0 
L 2394 0 
L 2394 2156 
Q 2394 2531 2256 2718 
Q 2119 2906 1806 2906 
Q 1569 2906 1367 2781 
Q 1166 2656 1075 2415 
Q 984 2175 984 1722 
L 984 0 
L 422 0 
z
" transform="scale(0.015625)"/>
       <path id="ArialMT-28" d="M 1497 -1347 
Q 1031 -759 709 28 
Q 388 816 388 1659 
Q 388 2403 628 3084 
Q 909 3875 1497 4659 
L 1900 4659 
Q 1522 4009 1400 3731 
Q 1209 3300 1100 2831 
Q 966 2247 966 1656 
Q 966 153 1900 -1347 
L 1497 -1347 
z
" transform="scale(0.015625)"/>
       <path id="ArialMT-4e" d="M 488 0 
L 488 4581 
L 1109 4581 
L 3516 984 
L 3516 4581 
L 4097 4581 
L 4097 0 
L 3475 0 
L 1069 3600 
L 1069 0 
L 488 0 
z
" transform="scale(0.015625)"/>
       <path id="ArialMT-29" d="M 791 -1347 
L 388 -1347 
Q 1322 153 1322 1656 
Q 1322 2244 1188 2822 
Q 1081 3291 891 3722 
Q 769 4003 388 4659 
L 791 4659 
Q 1378 3875 1659 3084 
Q 1900 2403 1900 1659 
Q 1900 816 1576 28 
Q 1253 -759 791 -1347 
z
" transform="scale(0.015625)"/>
      </defs>
      <use xlink:href="#ArialMT-4b"/>
      <use xlink:href="#ArialMT-6e" x="66.699219"/>
      <use xlink:href="#ArialMT-65" x="122.314453"/>
      <use xlink:href="#ArialMT-65" x="177.929688"/>
      <use xlink:href="#ArialMT-20" x="233.544922"/>
      <use xlink:href="#ArialMT-45" x="261.328125"/>
      <use xlink:href="#ArialMT-78" x="328.027344"/>
      <use xlink:href="#ArialMT-74" x="378.027344"/>
      <use xlink:href="#ArialMT-65" x="405.810547"/>
      <use xlink:href="#ArialMT-6e" x="461.425781"/>
      <use xlink:href="#ArialMT-73" x="517.041016"/>
      <use xlink:href="#ArialMT-69" x="567.041016"/>
      <use xlink:href="#ArialMT-6f" x="589.257812"/>
      <use xlink:href="#ArialMT-6e" x="644.873047"/>
      <use xlink:href="#ArialMT-20" x="700.488281"/>
      <use xlink:href="#ArialMT-4d" x="728.271484"/>
      <use xlink:href="#ArialMT-6f" x="811.572266"/>
      <use xlink:href="#ArialMT-6d" x="867.1875"/>
      <use xlink:href="#ArialMT-65" x="950.488281"/>
      <use xlink:href="#ArialMT-6e" x="1006.103516"/>
      <use xlink:href="#ArialMT-74" x="1061.71875"/>
      <use xlink:href="#ArialMT-20" x="1089.501953"/>
      <use xlink:href="#ArialMT-28" x="1117.285156"/>
      <use xlink:href="#ArialMT-4e" x="1150.585938"/>
      <use xlink:href="#ArialMT-6d" x="1222.802734"/>
      <use xlink:href="#ArialMT-29" x="1306.103516"/>
     </g>
    </g>
   </g>
   <g id="matplotlib.axis_2">
    <g id="ytick_1">
     <g id="line2d_4">
      <defs>
       <path id="m7235838f3c" d="M 0 0 
L -3.5 0 
" style="stroke: #000000; stroke-width: 0.8"/>
      </defs>
      <g>
       <use xlink:href="#m7235838f3c" x="41.5" y="158.383474" style="stroke: #000000; stroke-width: 0.8"/>
      </g>
     </g>
     <g id="text_5">
      <!-- −1.5 -->
      <g transform="translate(18.7075 161.246599) scale(0.08 -0.08)">
       <defs>
        <path id="ArialMT-2212" d="M 3381 1997 
L 356 1997 
L 356 2522 
L 3381 2522 
L 3381 1997 
z
" transform="scale(0.015625)"/>
        <path id="ArialMT-31" d="M 2384 0 
L 1822 0 
L 1822 3584 
Q 1619 3391 1289 3197 
Q 959 3003 697 2906 
L 697 3450 
Q 1169 3672 1522 3987 
Q 1875 4303 2022 4600 
L 2384 4600 
L 2384 0 
z
" transform="scale(0.015625)"/>
        <path id="ArialMT-2e" d="M 581 0 
L 581 641 
L 1222 641 
L 1222 0 
L 581 0 
z
" transform="scale(0.015625)"/>
        <path id="ArialMT-35" d="M 266 1200 
L 856 1250 
Q 922 819 1161 601 
Q 1400 384 1738 384 
Q 2144 384 2425 690 
Q 2706 997 2706 1503 
Q 2706 1984 2436 2262 
Q 2166 2541 1728 2541 
Q 1456 2541 1237 2417 
Q 1019 2294 894 2097 
L 366 2166 
L 809 4519 
L 3088 4519 
L 3088 3981 
L 1259 3981 
L 1013 2750 
Q 1425 3038 1878 3038 
Q 2478 3038 2890 2622 
Q 3303 2206 3303 1553 
Q 3303 931 2941 478 
Q 2500 -78 1738 -78 
Q 1113 -78 717 272 
Q 322 622 266 1200 
z
" transform="scale(0.015625)"/>
       </defs>
       <use xlink:href="#ArialMT-2212"/>
       <use xlink:href="#ArialMT-31" x="58.398438"/>
       <use xlink:href="#ArialMT-2e" x="114.013672"/>
       <use xlink:href="#ArialMT-35" x="141.796875"/>
      </g>
     </g>
    </g>
    <g id="ytick_2">
     <g id="line2d_5">
      <g>
       <use xlink:href="#m7235838f3c" x="41.5" y="137.22185" style="stroke: #000000; stroke-width: 0.8"/>
      </g>
     </g>
     <g id="text_6">
      <!-- −1.0 -->
      <g transform="translate(18.7075 140.084975) scale(0.08 -0.08)">
       <use xlink:href="#ArialMT-2212"/>
       <use xlink:href="#ArialMT-31" x="58.398438"/>
       <use xlink:href="#ArialMT-2e" x="114.013672"/>
       <use xlink:href="#ArialMT-30" x="141.796875"/>
      </g>
     </g>
    </g>
    <g id="ytick_3">
     <g id="line2d_6">
      <g>
       <use xlink:href="#m7235838f3c" x="41.5" y="116.060226" style="stroke: #000000; stroke-width: 0.8"/>
      </g>
     </g>
     <g id="text_7">
      <!-- −0.5 -->
      <g transform="translate(18.7075 118.923351) scale(0.08 -0.08)">
       <use xlink:href="#ArialMT-2212"/>
       <use xlink:href="#ArialMT-30" x="58.398438"/>
       <use xlink:href="#ArialMT-2e" x="114.013672"/>
       <use xlink:href="#ArialMT-35" x="141.796875"/>
      </g>
     </g>
    </g>
    <g id="ytick_4">
     <g id="line2d_7">
      <g>
       <use xlink:href="#m7235838f3c" x="41.5" y="94.898602" style="stroke: #000000; stroke-width: 0.8"/>
      </g>
     </g>
     <g id="text_8">
      <!-- 0.0 -->
      <g transform="translate(23.38 97.761727) scale(0.08 -0.08)">
       <use xlink:href="#ArialMT-30"/>
       <use xlink:href="#ArialMT-2e" x="55.615234"/>
       <use xlink:href="#ArialMT-30" x="83.398438"/>
      </g>
     </g>
    </g>
    <g id="ytick_5">
     <g id="line2d_8">
      <g>
       <use xlink:href="#m7235838f3c" x="41.5" y="73.736978" style="stroke: #000000; stroke-width: 0.8"/>
      </g>
     </g>
     <g id="text_9">
      <!-- 0.5 -->
      <g transform="translate(23.38 76.600103) scale(0.08 -0.08)">
       <use xlink:href="#ArialMT-30"/>
       <use xlink:href="#ArialMT-2e" x="55.615234"/>
       <use xlink:href="#ArialMT-35" x="83.398438"/>
      </g>
     </g>
    </g>
    <g id="ytick_6">
     <g id="line2d_9">
      <g>
       <use xlink:href="#m7235838f3c" x="41.5" y="52.575353" style="stroke: #000000; stroke-width: 0.8"/>
      </g>
     </g>
     <g id="text_10">
      <!-- 1.0 -->
      <g transform="translate(23.38 55.438478) scale(0.08 -0.08)">
       <use xlink:href="#ArialMT-31"/>
       <use xlink:href="#ArialMT-2e" x="55.615234"/>
       <use xlink:href="#ArialMT-30" x="83.398438"/>
      </g>
     </g>
    </g>
    <g id="ytick_7">
     <g id="line2d_10">
      <g>
       <use xlink:href="#m7235838f3c" x="41.5" y="31.413729" style="stroke: #000000; stroke-width: 0.8"/>
      </g>
     </g>
     <g id="text_11">
      <!-- 1.5 -->
      <g transform="translate(23.38 34.276854) scale(0.08 -0.08)">
       <use xlink:href="#ArialMT-31"/>
       <use xlink:href="#ArialMT-2e" x="55.615234"/>
       <use xlink:href="#ArialMT-35" x="83.398438"/>
      </g>
     </g>
    </g>
    <g id="text_12">
     <!-- Volume Total (Standardized) -->
     <g transform="translate(13.02375 146.285625) rotate(-90) scale(0.08 -0.08)">
      <defs>
       <path id="ArialMT-56" d="M 1803 0 
L 28 4581 
L 684 4581 
L 1875 1253 
Q 2019 853 2116 503 
Q 2222 878 2363 1253 
L 3600 4581 
L 4219 4581 
L 2425 0 
L 1803 0 
z
" transform="scale(0.015625)"/>
       <path id="ArialMT-6c" d="M 409 0 
L 409 4581 
L 972 4581 
L 972 0 
L 409 0 
z
" transform="scale(0.015625)"/>
       <path id="ArialMT-75" d="M 2597 0 
L 2597 488 
Q 2209 -75 1544 -75 
Q 1250 -75 995 37 
Q 741 150 617 320 
Q 494 491 444 738 
Q 409 903 409 1263 
L 409 3319 
L 972 3319 
L 972 1478 
Q 972 1038 1006 884 
Q 1059 663 1231 536 
Q 1403 409 1656 409 
Q 1909 409 2131 539 
Q 2353 669 2445 892 
Q 2538 1116 2538 1541 
L 2538 3319 
L 3100 3319 
L 3100 0 
L 2597 0 
z
" transform="scale(0.015625)"/>
       <path id="ArialMT-54" d="M 1659 0 
L 1659 4041 
L 150 4041 
L 150 4581 
L 3781 4581 
L 3781 4041 
L 2266 4041 
L 2266 0 
L 1659 0 
z
" transform="scale(0.015625)"/>
       <path id="ArialMT-61" d="M 2588 409 
Q 2275 144 1986 34 
Q 1697 -75 1366 -75 
Q 819 -75 525 192 
Q 231 459 231 875 
Q 231 1119 342 1320 
Q 453 1522 633 1644 
Q 813 1766 1038 1828 
Q 1203 1872 1538 1913 
Q 2219 1994 2541 2106 
Q 2544 2222 2544 2253 
Q 2544 2597 2384 2738 
Q 2169 2928 1744 2928 
Q 1347 2928 1158 2789 
Q 969 2650 878 2297 
L 328 2372 
Q 403 2725 575 2942 
Q 747 3159 1072 3276 
Q 1397 3394 1825 3394 
Q 2250 3394 2515 3294 
Q 2781 3194 2906 3042 
Q 3031 2891 3081 2659 
Q 3109 2516 3109 2141 
L 3109 1391 
Q 3109 606 3145 398 
Q 3181 191 3288 0 
L 2700 0 
Q 2613 175 2588 409 
z
M 2541 1666 
Q 2234 1541 1622 1453 
Q 1275 1403 1131 1340 
Q 988 1278 909 1158 
Q 831 1038 831 891 
Q 831 666 1001 516 
Q 1172 366 1500 366 
Q 1825 366 2078 508 
Q 2331 650 2450 897 
Q 2541 1088 2541 1459 
L 2541 1666 
z
" transform="scale(0.015625)"/>
       <path id="ArialMT-53" d="M 288 1472 
L 859 1522 
Q 900 1178 1048 958 
Q 1197 738 1509 602 
Q 1822 466 2213 466 
Q 2559 466 2825 569 
Q 3091 672 3220 851 
Q 3350 1031 3350 1244 
Q 3350 1459 3225 1620 
Q 3100 1781 2813 1891 
Q 2628 1963 1997 2114 
Q 1366 2266 1113 2400 
Q 784 2572 623 2826 
Q 463 3081 463 3397 
Q 463 3744 659 4045 
Q 856 4347 1234 4503 
Q 1613 4659 2075 4659 
Q 2584 4659 2973 4495 
Q 3363 4331 3572 4012 
Q 3781 3694 3797 3291 
L 3216 3247 
Q 3169 3681 2898 3903 
Q 2628 4125 2100 4125 
Q 1550 4125 1298 3923 
Q 1047 3722 1047 3438 
Q 1047 3191 1225 3031 
Q 1400 2872 2139 2705 
Q 2878 2538 3153 2413 
Q 3553 2228 3743 1945 
Q 3934 1663 3934 1294 
Q 3934 928 3725 604 
Q 3516 281 3123 101 
Q 2731 -78 2241 -78 
Q 1619 -78 1198 103 
Q 778 284 539 648 
Q 300 1013 288 1472 
z
" transform="scale(0.015625)"/>
       <path id="ArialMT-64" d="M 2575 0 
L 2575 419 
Q 2259 -75 1647 -75 
Q 1250 -75 917 144 
Q 584 363 401 755 
Q 219 1147 219 1656 
Q 219 2153 384 2558 
Q 550 2963 881 3178 
Q 1213 3394 1622 3394 
Q 1922 3394 2156 3267 
Q 2391 3141 2538 2938 
L 2538 4581 
L 3097 4581 
L 3097 0 
L 2575 0 
z
M 797 1656 
Q 797 1019 1065 703 
Q 1334 388 1700 388 
Q 2069 388 2326 689 
Q 2584 991 2584 1609 
Q 2584 2291 2321 2609 
Q 2059 2928 1675 2928 
Q 1300 2928 1048 2622 
Q 797 2316 797 1656 
z
" transform="scale(0.015625)"/>
       <path id="ArialMT-72" d="M 416 0 
L 416 3319 
L 922 3319 
L 922 2816 
Q 1116 3169 1280 3281 
Q 1444 3394 1641 3394 
Q 1925 3394 2219 3213 
L 2025 2691 
Q 1819 2813 1613 2813 
Q 1428 2813 1281 2702 
Q 1134 2591 1072 2394 
Q 978 2094 978 1738 
L 978 0 
L 416 0 
z
" transform="scale(0.015625)"/>
       <path id="ArialMT-7a" d="M 125 0 
L 125 456 
L 2238 2881 
Q 1878 2863 1603 2863 
L 250 2863 
L 250 3319 
L 2963 3319 
L 2963 2947 
L 1166 841 
L 819 456 
Q 1197 484 1528 484 
L 3063 484 
L 3063 0 
L 125 0 
z
" transform="scale(0.015625)"/>
      </defs>
      <use xlink:href="#ArialMT-56"/>
      <use xlink:href="#ArialMT-6f" x="61.199219"/>
      <use xlink:href="#ArialMT-6c" x="116.814453"/>
      <use xlink:href="#ArialMT-75" x="139.03125"/>
      <use xlink:href="#ArialMT-6d" x="194.646484"/>
      <use xlink:href="#ArialMT-65" x="277.947266"/>
      <use xlink:href="#ArialMT-20" x="333.5625"/>
      <use xlink:href="#ArialMT-54" x="359.595703"/>
      <use xlink:href="#ArialMT-6f" x="409.554688"/>
      <use xlink:href="#ArialMT-74" x="465.169922"/>
      <use xlink:href="#ArialMT-61" x="492.953125"/>
      <use xlink:href="#ArialMT-6c" x="548.568359"/>
      <use xlink:href="#ArialMT-20" x="570.785156"/>
      <use xlink:href="#ArialMT-28" x="598.568359"/>
      <use xlink:href="#ArialMT-53" x="631.869141"/>
      <use xlink:href="#ArialMT-74" x="698.568359"/>
      <use xlink:href="#ArialMT-61" x="726.351562"/>
      <use xlink:href="#ArialMT-6e" x="781.966797"/>
      <use xlink:href="#ArialMT-64" x="837.582031"/>
      <use xlink:href="#ArialMT-61" x="893.197266"/>
      <use xlink:href="#ArialMT-72" x="948.8125"/>
      <use xlink:href="#ArialMT-64" x="982.113281"/>
      <use xlink:href="#ArialMT-69" x="1037.728516"/>
      <use xlink:href="#ArialMT-7a" x="1059.945312"/>
      <use xlink:href="#ArialMT-65" x="1109.945312"/>
      <use xlink:href="#ArialMT-64" x="1165.560547"/>
      <use xlink:href="#ArialMT-29" x="1221.175781"/>
     </g>
    </g>
   </g>
   <g id="line2d_11">
    <path d="M 46.572727 138.955935 
L 47.597521 137.98867 
L 48.622314 137.021406 
L 49.647107 136.054142 
L 50.671901 135.086878 
L 51.696694 134.119614 
L 52.721488 133.15235 
L 53.746281 132.185086 
L 54.771074 131.217822 
L 55.795868 130.250558 
L 56.820661 129.283293 
L 57.845455 128.316029 
L 58.870248 127.348765 
L 59.895041 126.381501 
L 60.919835 125.414237 
L 61.944628 124.446973 
L 62.969421 123.479709 
L 63.994215 122.512445 
L 65.019008 121.545181 
L 66.043802 120.577916 
L 67.068595 119.610652 
L 68.093388 118.643388 
L 69.118182 117.676124 
L 70.142975 116.70886 
L 71.167769 115.741596 
L 72.192562 114.774332 
L 73.217355 113.807068 
L 74.242149 112.839804 
L 75.266942 111.87254 
L 76.291736 110.905275 
L 77.316529 109.938011 
L 78.341322 108.970747 
L 79.366116 108.003483 
L 80.390909 107.036219 
L 81.415702 106.068955 
L 82.440496 105.101691 
L 83.465289 104.134427 
L 84.490083 103.167163 
L 85.514876 102.199898 
L 86.539669 101.232634 
L 87.564463 100.26537 
L 88.589256 99.298106 
L 89.61405 98.330842 
L 90.638843 97.363578 
L 91.663636 96.396314 
L 92.68843 95.42905 
L 93.713223 94.461786 
L 94.738017 93.494521 
L 95.76281 92.527257 
L 96.787603 91.559993 
L 97.812397 90.592729 
L 98.83719 89.625465 
L 99.861983 88.658201 
L 100.886777 87.690937 
L 101.91157 86.723673 
L 102.936364 85.756409 
L 103.961157 84.789144 
L 104.98595 83.82188 
L 106.010744 82.854616 
L 107.035537 81.887352 
L 108.060331 80.920088 
L 109.085124 79.952824 
L 110.109917 78.98556 
L 111.134711 78.018296 
L 112.159504 77.051032 
L 113.184298 76.083768 
L 114.209091 75.116503 
L 115.233884 74.149239 
L 116.258678 73.181975 
L 117.283471 72.214711 
L 118.308264 71.247447 
L 119.333058 70.280183 
L 120.357851 69.312919 
L 121.382645 68.345655 
L 122.407438 67.378391 
L 123.432231 66.411126 
L 124.457025 65.443862 
L 125.481818 64.476598 
L 126.506612 63.509334 
L 127.531405 62.54207 
L 128.556198 61.574806 
L 129.580992 60.607542 
L 130.605785 59.640278 
L 131.630579 58.673014 
L 132.655372 57.705749 
L 133.680165 56.738485 
L 134.704959 55.771221 
L 135.729752 54.803957 
L 136.754545 53.836693 
L 137.779339 52.869429 
L 138.804132 51.902165 
L 139.828926 50.934901 
L 140.853719 49.967637 
L 141.878512 49.000372 
L 142.903306 48.033108 
L 143.928099 47.065844 
L 144.952893 46.09858 
L 145.977686 45.131316 
L 147.002479 44.164052 
L 148.027273 43.196788 
" clip-path="url(#pf609f646d2)" style="fill: none; stroke: #000000; stroke-width: 2; stroke-linecap: square"/>
   </g>
   <g id="patch_3">
    <path d="M 41.5 179.27 
L 41.5 12.95 
" style="fill: none; stroke: #000000; stroke-width: 0.8; stroke-linejoin: miter; stroke-linecap: square"/>
   </g>
   <g id="patch_4">
    <path d="M 41.5 179.27 
L 153.1 179.27 
" style="fill: none; stroke: #000000; stroke-width: 0.8; stroke-linejoin: miter; stroke-linecap: square"/>
   </g>
   <g id="text_13">
    <!-- r=0.63, p=.004 -->
    <g transform="translate(71.28 12.95) scale(0.08 -0.08)">
     <defs>
      <path id="ArialMT-3d" d="M 3381 2694 
L 356 2694 
L 356 3219 
L 3381 3219 
L 3381 2694 
z
M 3381 1303 
L 356 1303 
L 356 1828 
L 3381 1828 
L 3381 1303 
z
" transform="scale(0.015625)"/>
      <path id="ArialMT-33" d="M 269 1209 
L 831 1284 
Q 928 806 1161 595 
Q 1394 384 1728 384 
Q 2125 384 2398 659 
Q 2672 934 2672 1341 
Q 2672 1728 2419 1979 
Q 2166 2231 1775 2231 
Q 1616 2231 1378 2169 
L 1441 2663 
Q 1497 2656 1531 2656 
Q 1891 2656 2178 2843 
Q 2466 3031 2466 3422 
Q 2466 3731 2256 3934 
Q 2047 4138 1716 4138 
Q 1388 4138 1169 3931 
Q 950 3725 888 3313 
L 325 3413 
Q 428 3978 793 4289 
Q 1159 4600 1703 4600 
Q 2078 4600 2393 4439 
Q 2709 4278 2876 4000 
Q 3044 3722 3044 3409 
Q 3044 3113 2884 2869 
Q 2725 2625 2413 2481 
Q 2819 2388 3044 2092 
Q 3269 1797 3269 1353 
Q 3269 753 2831 336 
Q 2394 -81 1725 -81 
Q 1122 -81 723 278 
Q 325 638 269 1209 
z
" transform="scale(0.015625)"/>
      <path id="ArialMT-2c" d="M 569 0 
L 569 641 
L 1209 641 
L 1209 0 
Q 1209 -353 1084 -570 
Q 959 -788 688 -906 
L 531 -666 
Q 709 -588 793 -436 
Q 878 -284 888 0 
L 569 0 
z
" transform="scale(0.015625)"/>
      <path id="ArialMT-70" d="M 422 -1272 
L 422 3319 
L 934 3319 
L 934 2888 
Q 1116 3141 1344 3267 
Q 1572 3394 1897 3394 
Q 2322 3394 2647 3175 
Q 2972 2956 3137 2557 
Q 3303 2159 3303 1684 
Q 3303 1175 3120 767 
Q 2938 359 2589 142 
Q 2241 -75 1856 -75 
Q 1575 -75 1351 44 
Q 1128 163 984 344 
L 984 -1272 
L 422 -1272 
z
M 931 1641 
Q 931 1000 1190 694 
Q 1450 388 1819 388 
Q 2194 388 2461 705 
Q 2728 1022 2728 1688 
Q 2728 2322 2467 2637 
Q 2206 2953 1844 2953 
Q 1484 2953 1207 2617 
Q 931 2281 931 1641 
z
" transform="scale(0.015625)"/>
     </defs>
     <use xlink:href="#ArialMT-72"/>
     <use xlink:href="#ArialMT-3d" x="33.300781"/>
     <use xlink:href="#ArialMT-30" x="91.699219"/>
     <use xlink:href="#ArialMT-2e" x="147.314453"/>
     <use xlink:href="#ArialMT-36" x="175.097656"/>
     <use xlink:href="#ArialMT-33" x="230.712891"/>
     <use xlink:href="#ArialMT-2c" x="286.328125"/>
     <use xlink:href="#ArialMT-20" x="314.111328"/>
     <use xlink:href="#ArialMT-70" x="341.894531"/>
     <use xlink:href="#ArialMT-3d" x="397.509766"/>
     <use xlink:href="#ArialMT-2e" x="455.908203"/>
     <use xlink:href="#ArialMT-30" x="483.691406"/>
     <use xlink:href="#ArialMT-30" x="539.306641"/>
     <use xlink:href="#ArialMT-34" x="594.921875"/>
    </g>
   </g>
  </g>
  <g id="axes_2">
   <g id="patch_5">
    <path d="M 186.58 179.27 
L 298.18 179.27 
L 298.18 12.95 
L 186.58 12.95 
z
" style="fill: #ffffff"/>
   </g>
   <g id="PathCollection_2">
    <g clip-path="url(#pe7fdf29d6c)">
     <use xlink:href="#m8f7978d710" x="242.298129" y="94.315539" style="fill: #28aeed; fill-opacity: 0.8; stroke: #28aeed; stroke-opacity: 0.8"/>
     <use xlink:href="#m8f7978d710" x="223.998269" y="109.233928" style="fill: #28aeed; fill-opacity: 0.8; stroke: #28aeed; stroke-opacity: 0.8"/>
     <use xlink:href="#m8f7978d710" x="286.321853" y="126.417827" style="fill: #28aeed; fill-opacity: 0.8; stroke: #28aeed; stroke-opacity: 0.8"/>
     <use xlink:href="#m8f7978d710" x="293.107273" y="20.51" style="fill: #28aeed; fill-opacity: 0.8; stroke: #28aeed; stroke-opacity: 0.8"/>
     <use xlink:href="#m8f7978d710" x="223.44588" y="100.754714" style="fill: #28aeed; fill-opacity: 0.8; stroke: #28aeed; stroke-opacity: 0.8"/>
     <use xlink:href="#m8f7978d710" x="214.383246" y="107.795558" style="fill: #28aeed; fill-opacity: 0.8; stroke: #28aeed; stroke-opacity: 0.8"/>
     <use xlink:href="#m8f7978d710" x="229.04579" y="106.675055" style="fill: #28aeed; fill-opacity: 0.8; stroke: #28aeed; stroke-opacity: 0.8"/>
     <use xlink:href="#m8f7978d710" x="246.248327" y="124.72868" style="fill: #28aeed; fill-opacity: 0.8; stroke: #28aeed; stroke-opacity: 0.8"/>
     <use xlink:href="#m8f7978d710" x="265.760973" y="60.243023" style="fill: #28aeed; fill-opacity: 0.8; stroke: #28aeed; stroke-opacity: 0.8"/>
     <use xlink:href="#m8f7978d710" x="211.877351" y="121.727156" style="fill: #28aeed; fill-opacity: 0.8; stroke: #28aeed; stroke-opacity: 0.8"/>
     <use xlink:href="#m8f7978d710" x="276.259176" y="98.054747" style="fill: #28aeed; fill-opacity: 0.8; stroke: #28aeed; stroke-opacity: 0.8"/>
     <use xlink:href="#m8f7978d710" x="218.225537" y="149.937231" style="fill: #28aeed; fill-opacity: 0.8; stroke: #28aeed; stroke-opacity: 0.8"/>
     <use xlink:href="#m8f7978d710" x="224.81045" y="170.013932" style="fill: #28aeed; fill-opacity: 0.8; stroke: #28aeed; stroke-opacity: 0.8"/>
     <use xlink:href="#m8f7978d710" x="191.652727" y="141.178043" style="fill: #28aeed; fill-opacity: 0.8; stroke: #28aeed; stroke-opacity: 0.8"/>
     <use xlink:href="#m8f7978d710" x="227.807864" y="163.994749" style="fill: #28aeed; fill-opacity: 0.8; stroke: #28aeed; stroke-opacity: 0.8"/>
     <use xlink:href="#m8f7978d710" x="267.069801" y="102.072616" style="fill: #28aeed; fill-opacity: 0.8; stroke: #28aeed; stroke-opacity: 0.8"/>
     <use xlink:href="#m8f7978d710" x="193.741012" y="134.050733" style="fill: #28aeed; fill-opacity: 0.8; stroke: #28aeed; stroke-opacity: 0.8"/>
     <use xlink:href="#m8f7978d710" x="247.565504" y="101.82873" style="fill: #28aeed; fill-opacity: 0.8; stroke: #28aeed; stroke-opacity: 0.8"/>
     <use xlink:href="#m8f7978d710" x="244.658947" y="89.846138" style="fill: #28aeed; fill-opacity: 0.8; stroke: #28aeed; stroke-opacity: 0.8"/>
    </g>
   </g>
   <g id="PolyCollection_2">
    <path d="M 191.652727 123.816336 
L 191.652727 171.71 
L 192.677521 170.470533 
L 193.702314 169.239142 
L 194.727107 167.99626 
L 195.751901 166.760978 
L 196.776694 165.523478 
L 197.801488 164.327056 
L 198.826281 163.23989 
L 199.851074 161.935597 
L 200.875868 160.626722 
L 201.900661 159.32813 
L 202.925455 158.094948 
L 203.950248 156.976308 
L 204.975041 155.934561 
L 205.999835 154.847435 
L 207.024628 153.537042 
L 208.049421 152.182496 
L 209.074215 151.022788 
L 210.099008 149.980039 
L 211.123802 148.932987 
L 212.148595 147.658694 
L 213.173388 146.38261 
L 214.198182 145.103972 
L 215.222975 143.825334 
L 216.247769 142.831577 
L 217.272562 141.962827 
L 218.297355 140.810464 
L 219.322149 139.666351 
L 220.346942 138.664191 
L 221.371736 137.8598 
L 222.396529 136.849471 
L 223.421322 136.127725 
L 224.446116 135.094231 
L 225.470909 134.111645 
L 226.495702 133.300797 
L 227.520496 132.230749 
L 228.545289 131.314386 
L 229.570083 130.475585 
L 230.594876 129.50903 
L 231.619669 128.64558 
L 232.644463 128.179212 
L 233.669256 127.283575 
L 234.69405 126.456627 
L 235.718843 125.984433 
L 236.743636 125.364335 
L 237.76843 124.652352 
L 238.793223 124.062231 
L 239.818017 123.533915 
L 240.84281 122.887496 
L 241.867603 122.283577 
L 242.892397 121.700976 
L 243.91719 121.297914 
L 244.941983 120.853781 
L 245.966777 120.453512 
L 246.99157 120.053244 
L 248.016364 119.652975 
L 249.041157 119.248354 
L 250.06595 118.875843 
L 251.090744 118.583395 
L 252.115537 118.369344 
L 253.140331 118.065776 
L 254.165124 117.603911 
L 255.189917 117.259749 
L 256.214711 116.794176 
L 257.239504 116.498231 
L 258.264298 116.25064 
L 259.289091 115.888368 
L 260.313884 115.579046 
L 261.338678 115.161847 
L 262.363471 114.796051 
L 263.388264 114.434548 
L 264.413058 114.074401 
L 265.437851 113.928671 
L 266.462645 113.761153 
L 267.487438 113.444744 
L 268.512231 113.123113 
L 269.537025 112.802055 
L 270.561818 112.48598 
L 271.586612 112.113102 
L 272.611405 111.590828 
L 273.636198 111.150076 
L 274.660992 111.104568 
L 275.685785 110.68004 
L 276.710579 110.250838 
L 277.735372 109.991468 
L 278.760165 109.911543 
L 279.784959 109.611064 
L 280.809752 109.387134 
L 281.834545 109.194183 
L 282.859339 108.997146 
L 283.884132 108.800109 
L 284.908926 108.552137 
L 285.933719 108.297152 
L 286.958512 107.975553 
L 287.983306 107.653546 
L 289.008099 107.331539 
L 290.032893 107.009532 
L 291.057686 106.858439 
L 292.082479 106.811426 
L 293.107273 106.764413 
L 293.107273 39.141648 
L 293.107273 39.141648 
L 292.082479 40.484969 
L 291.057686 41.658581 
L 290.032893 42.832193 
L 289.008099 44.005804 
L 287.983306 45.179416 
L 286.958512 46.353028 
L 285.933719 47.52664 
L 284.908926 48.706141 
L 283.884132 49.916267 
L 282.859339 51.14823 
L 281.834545 52.436085 
L 280.809752 53.629139 
L 279.784959 54.765974 
L 278.760165 55.927169 
L 277.735372 57.077777 
L 276.710579 58.179175 
L 275.685785 59.517614 
L 274.660992 60.720262 
L 273.636198 61.920102 
L 272.611405 63.224157 
L 271.586612 64.442778 
L 270.561818 65.709387 
L 269.537025 66.862874 
L 268.512231 68.070865 
L 267.487438 69.332287 
L 266.462645 70.510729 
L 265.437851 71.70375 
L 264.413058 72.851131 
L 263.388264 74.062178 
L 262.363471 75.327349 
L 261.338678 76.388135 
L 260.313884 77.446541 
L 259.289091 78.507044 
L 258.264298 79.732468 
L 257.239504 80.992334 
L 256.214711 82.079043 
L 255.189917 83.224318 
L 254.165124 84.461968 
L 253.140331 85.655439 
L 252.115537 86.777301 
L 251.090744 87.899162 
L 250.06595 88.995627 
L 249.041157 90.139044 
L 248.016364 91.317393 
L 246.99157 92.282843 
L 245.966777 93.445972 
L 244.941983 94.515138 
L 243.91719 95.686446 
L 242.892397 96.74018 
L 241.867603 97.662637 
L 240.84281 98.593853 
L 239.818017 99.414413 
L 238.793223 100.341969 
L 237.76843 101.397524 
L 236.743636 102.329479 
L 235.718843 103.145191 
L 234.69405 103.887038 
L 233.669256 104.891283 
L 232.644463 105.846527 
L 231.619669 106.695804 
L 230.594876 107.550128 
L 229.570083 108.304391 
L 228.545289 109.106035 
L 227.520496 109.862559 
L 226.495702 110.422603 
L 225.470909 110.838795 
L 224.446116 111.519142 
L 223.421322 112.113992 
L 222.396529 112.557669 
L 221.371736 113.063913 
L 220.346942 113.536813 
L 219.322149 113.946616 
L 218.297355 114.368316 
L 217.272562 114.960779 
L 216.247769 115.489815 
L 215.222975 115.936145 
L 214.198182 116.328502 
L 213.173388 116.700063 
L 212.148595 117.163555 
L 211.123802 117.593797 
L 210.099008 118.100893 
L 209.074215 118.610165 
L 208.049421 118.98042 
L 207.024628 119.21687 
L 205.999835 119.441957 
L 204.975041 119.671233 
L 203.950248 119.906289 
L 202.925455 120.224079 
L 201.900661 120.620588 
L 200.875868 120.878897 
L 199.851074 121.22209 
L 198.826281 121.481954 
L 197.801488 121.867033 
L 196.776694 122.250836 
L 195.751901 122.612711 
L 194.727107 122.855848 
L 193.702314 123.175588 
L 192.677521 123.452838 
L 191.652727 123.816336 
z
" clip-path="url(#pe7fdf29d6c)" style="fill-opacity: 0.15"/>
   </g>
   <g id="matplotlib.axis_3">
    <g id="xtick_4">
     <g id="line2d_12">
      <g>
       <use xlink:href="#m7fe84507c9" x="212.773843" y="179.27" style="stroke: #000000; stroke-width: 0.8"/>
      </g>
     </g>
     <g id="text_14">
      <!-- 40 -->
      <g transform="translate(208.325093 191.99625) scale(0.08 -0.08)">
       <use xlink:href="#ArialMT-34"/>
       <use xlink:href="#ArialMT-30" x="55.615234"/>
      </g>
     </g>
    </g>
    <g id="xtick_5">
     <g id="line2d_13">
      <g>
       <use xlink:href="#m7fe84507c9" x="244.024688" y="179.27" style="stroke: #000000; stroke-width: 0.8"/>
      </g>
     </g>
     <g id="text_15">
      <!-- 60 -->
      <g transform="translate(239.575938 191.99625) scale(0.08 -0.08)">
       <use xlink:href="#ArialMT-36"/>
       <use xlink:href="#ArialMT-30" x="55.615234"/>
      </g>
     </g>
    </g>
    <g id="xtick_6">
     <g id="line2d_14">
      <g>
       <use xlink:href="#m7fe84507c9" x="275.275532" y="179.27" style="stroke: #000000; stroke-width: 0.8"/>
      </g>
     </g>
     <g id="text_16">
      <!-- 80 -->
      <g transform="translate(270.826782 191.99625) scale(0.08 -0.08)">
       <use xlink:href="#ArialMT-38"/>
       <use xlink:href="#ArialMT-30" x="55.615234"/>
      </g>
     </g>
    </g>
    <g id="text_17">
     <!-- Knee Extension Moment (Nm) -->
     <g transform="translate(188.806875 203.41) scale(0.08 -0.08)">
      <use xlink:href="#ArialMT-4b"/>
      <use xlink:href="#ArialMT-6e" x="66.699219"/>
      <use xlink:href="#ArialMT-65" x="122.314453"/>
      <use xlink:href="#ArialMT-65" x="177.929688"/>
      <use xlink:href="#ArialMT-20" x="233.544922"/>
      <use xlink:href="#ArialMT-45" x="261.328125"/>
      <use xlink:href="#ArialMT-78" x="328.027344"/>
      <use xlink:href="#ArialMT-74" x="378.027344"/>
      <use xlink:href="#ArialMT-65" x="405.810547"/>
      <use xlink:href="#ArialMT-6e" x="461.425781"/>
      <use xlink:href="#ArialMT-73" x="517.041016"/>
      <use xlink:href="#ArialMT-69" x="567.041016"/>
      <use xlink:href="#ArialMT-6f" x="589.257812"/>
      <use xlink:href="#ArialMT-6e" x="644.873047"/>
      <use xlink:href="#ArialMT-20" x="700.488281"/>
      <use xlink:href="#ArialMT-4d" x="728.271484"/>
      <use xlink:href="#ArialMT-6f" x="811.572266"/>
      <use xlink:href="#ArialMT-6d" x="867.1875"/>
      <use xlink:href="#ArialMT-65" x="950.488281"/>
      <use xlink:href="#ArialMT-6e" x="1006.103516"/>
      <use xlink:href="#ArialMT-74" x="1061.71875"/>
      <use xlink:href="#ArialMT-20" x="1089.501953"/>
      <use xlink:href="#ArialMT-28" x="1117.285156"/>
      <use xlink:href="#ArialMT-4e" x="1150.585938"/>
      <use xlink:href="#ArialMT-6d" x="1222.802734"/>
      <use xlink:href="#ArialMT-29" x="1306.103516"/>
     </g>
    </g>
   </g>
   <g id="matplotlib.axis_4">
    <g id="ytick_8">
     <g id="line2d_15">
      <g>
       <use xlink:href="#m7235838f3c" x="186.58" y="145.58188" style="stroke: #000000; stroke-width: 0.8"/>
      </g>
     </g>
     <g id="text_18">
      <!-- −1 -->
      <g transform="translate(170.45875 148.445005) scale(0.08 -0.08)">
       <use xlink:href="#ArialMT-2212"/>
       <use xlink:href="#ArialMT-31" x="58.398438"/>
      </g>
     </g>
    </g>
    <g id="ytick_9">
     <g id="line2d_16">
      <g>
       <use xlink:href="#m7235838f3c" x="186.58" y="111.756758" style="stroke: #000000; stroke-width: 0.8"/>
      </g>
     </g>
     <g id="text_19">
      <!-- 0 -->
      <g transform="translate(175.13125 114.619883) scale(0.08 -0.08)">
       <use xlink:href="#ArialMT-30"/>
      </g>
     </g>
    </g>
    <g id="ytick_10">
     <g id="line2d_17">
      <g>
       <use xlink:href="#m7235838f3c" x="186.58" y="77.931635" style="stroke: #000000; stroke-width: 0.8"/>
      </g>
     </g>
     <g id="text_20">
      <!-- 1 -->
      <g transform="translate(175.13125 80.79476) scale(0.08 -0.08)">
       <use xlink:href="#ArialMT-31"/>
      </g>
     </g>
    </g>
    <g id="ytick_11">
     <g id="line2d_18">
      <g>
       <use xlink:href="#m7235838f3c" x="186.58" y="44.106513" style="stroke: #000000; stroke-width: 0.8"/>
      </g>
     </g>
     <g id="text_21">
      <!-- 2 -->
      <g transform="translate(175.13125 46.969638) scale(0.08 -0.08)">
       <defs>
        <path id="ArialMT-32" d="M 3222 541 
L 3222 0 
L 194 0 
Q 188 203 259 391 
Q 375 700 629 1000 
Q 884 1300 1366 1694 
Q 2113 2306 2375 2664 
Q 2638 3022 2638 3341 
Q 2638 3675 2398 3904 
Q 2159 4134 1775 4134 
Q 1369 4134 1125 3890 
Q 881 3647 878 3216 
L 300 3275 
Q 359 3922 746 4261 
Q 1134 4600 1788 4600 
Q 2447 4600 2831 4234 
Q 3216 3869 3216 3328 
Q 3216 3053 3103 2787 
Q 2991 2522 2730 2228 
Q 2469 1934 1863 1422 
Q 1356 997 1212 845 
Q 1069 694 975 541 
L 3222 541 
z
" transform="scale(0.015625)"/>
       </defs>
       <use xlink:href="#ArialMT-32"/>
      </g>
     </g>
    </g>
    <g id="text_22">
     <!-- Radial Diffusivity (Standardized) -->
     <g transform="translate(164.775 152.949375) rotate(-90) scale(0.08 -0.08)">
      <defs>
       <path id="ArialMT-52" d="M 503 0 
L 503 4581 
L 2534 4581 
Q 3147 4581 3465 4457 
Q 3784 4334 3975 4021 
Q 4166 3709 4166 3331 
Q 4166 2844 3850 2509 
Q 3534 2175 2875 2084 
Q 3116 1969 3241 1856 
Q 3506 1613 3744 1247 
L 4541 0 
L 3778 0 
L 3172 953 
Q 2906 1366 2734 1584 
Q 2563 1803 2427 1890 
Q 2291 1978 2150 2013 
Q 2047 2034 1813 2034 
L 1109 2034 
L 1109 0 
L 503 0 
z
M 1109 2559 
L 2413 2559 
Q 2828 2559 3062 2645 
Q 3297 2731 3419 2920 
Q 3541 3109 3541 3331 
Q 3541 3656 3305 3865 
Q 3069 4075 2559 4075 
L 1109 4075 
L 1109 2559 
z
" transform="scale(0.015625)"/>
       <path id="ArialMT-44" d="M 494 0 
L 494 4581 
L 2072 4581 
Q 2606 4581 2888 4516 
Q 3281 4425 3559 4188 
Q 3922 3881 4101 3404 
Q 4281 2928 4281 2316 
Q 4281 1794 4159 1391 
Q 4038 988 3847 723 
Q 3656 459 3429 307 
Q 3203 156 2883 78 
Q 2563 0 2147 0 
L 494 0 
z
M 1100 541 
L 2078 541 
Q 2531 541 2789 625 
Q 3047 709 3200 863 
Q 3416 1078 3536 1442 
Q 3656 1806 3656 2325 
Q 3656 3044 3420 3430 
Q 3184 3816 2847 3947 
Q 2603 4041 2063 4041 
L 1100 4041 
L 1100 541 
z
" transform="scale(0.015625)"/>
       <path id="ArialMT-66" d="M 556 0 
L 556 2881 
L 59 2881 
L 59 3319 
L 556 3319 
L 556 3672 
Q 556 4006 616 4169 
Q 697 4388 901 4523 
Q 1106 4659 1475 4659 
Q 1713 4659 2000 4603 
L 1916 4113 
Q 1741 4144 1584 4144 
Q 1328 4144 1222 4034 
Q 1116 3925 1116 3625 
L 1116 3319 
L 1763 3319 
L 1763 2881 
L 1116 2881 
L 1116 0 
L 556 0 
z
" transform="scale(0.015625)"/>
       <path id="ArialMT-76" d="M 1344 0 
L 81 3319 
L 675 3319 
L 1388 1331 
Q 1503 1009 1600 663 
Q 1675 925 1809 1294 
L 2547 3319 
L 3125 3319 
L 1869 0 
L 1344 0 
z
" transform="scale(0.015625)"/>
       <path id="ArialMT-79" d="M 397 -1278 
L 334 -750 
Q 519 -800 656 -800 
Q 844 -800 956 -737 
Q 1069 -675 1141 -563 
Q 1194 -478 1313 -144 
Q 1328 -97 1363 -6 
L 103 3319 
L 709 3319 
L 1400 1397 
Q 1534 1031 1641 628 
Q 1738 1016 1872 1384 
L 2581 3319 
L 3144 3319 
L 1881 -56 
Q 1678 -603 1566 -809 
Q 1416 -1088 1222 -1217 
Q 1028 -1347 759 -1347 
Q 597 -1347 397 -1278 
z
" transform="scale(0.015625)"/>
      </defs>
      <use xlink:href="#ArialMT-52"/>
      <use xlink:href="#ArialMT-61" x="72.216797"/>
      <use xlink:href="#ArialMT-64" x="127.832031"/>
      <use xlink:href="#ArialMT-69" x="183.447266"/>
      <use xlink:href="#ArialMT-61" x="205.664062"/>
      <use xlink:href="#ArialMT-6c" x="261.279297"/>
      <use xlink:href="#ArialMT-20" x="283.496094"/>
      <use xlink:href="#ArialMT-44" x="311.279297"/>
      <use xlink:href="#ArialMT-69" x="383.496094"/>
      <use xlink:href="#ArialMT-66" x="405.712891"/>
      <use xlink:href="#ArialMT-66" x="431.746094"/>
      <use xlink:href="#ArialMT-75" x="459.529297"/>
      <use xlink:href="#ArialMT-73" x="515.144531"/>
      <use xlink:href="#ArialMT-69" x="565.144531"/>
      <use xlink:href="#ArialMT-76" x="587.361328"/>
      <use xlink:href="#ArialMT-69" x="637.361328"/>
      <use xlink:href="#ArialMT-74" x="659.578125"/>
      <use xlink:href="#ArialMT-79" x="687.361328"/>
      <use xlink:href="#ArialMT-20" x="737.361328"/>
      <use xlink:href="#ArialMT-28" x="765.144531"/>
      <use xlink:href="#ArialMT-53" x="798.445312"/>
      <use xlink:href="#ArialMT-74" x="865.144531"/>
      <use xlink:href="#ArialMT-61" x="892.927734"/>
      <use xlink:href="#ArialMT-6e" x="948.542969"/>
      <use xlink:href="#ArialMT-64" x="1004.158203"/>
      <use xlink:href="#ArialMT-61" x="1059.773438"/>
      <use xlink:href="#ArialMT-72" x="1115.388672"/>
      <use xlink:href="#ArialMT-64" x="1148.689453"/>
      <use xlink:href="#ArialMT-69" x="1204.304688"/>
      <use xlink:href="#ArialMT-7a" x="1226.521484"/>
      <use xlink:href="#ArialMT-65" x="1276.521484"/>
      <use xlink:href="#ArialMT-64" x="1332.136719"/>
      <use xlink:href="#ArialMT-29" x="1387.751953"/>
     </g>
    </g>
   </g>
   <g id="line2d_19">
    <path d="M 191.652727 145.888232 
L 192.677521 145.138887 
L 193.702314 144.389542 
L 194.727107 143.640197 
L 195.751901 142.890852 
L 196.776694 142.141506 
L 197.801488 141.392161 
L 198.826281 140.642816 
L 199.851074 139.893471 
L 200.875868 139.144126 
L 201.900661 138.39478 
L 202.925455 137.645435 
L 203.950248 136.89609 
L 204.975041 136.146745 
L 205.999835 135.3974 
L 207.024628 134.648055 
L 208.049421 133.898709 
L 209.074215 133.149364 
L 210.099008 132.400019 
L 211.123802 131.650674 
L 212.148595 130.901329 
L 213.173388 130.151983 
L 214.198182 129.402638 
L 215.222975 128.653293 
L 216.247769 127.903948 
L 217.272562 127.154603 
L 218.297355 126.405257 
L 219.322149 125.655912 
L 220.346942 124.906567 
L 221.371736 124.157222 
L 222.396529 123.407877 
L 223.421322 122.658532 
L 224.446116 121.909186 
L 225.470909 121.159841 
L 226.495702 120.410496 
L 227.520496 119.661151 
L 228.545289 118.911806 
L 229.570083 118.16246 
L 230.594876 117.413115 
L 231.619669 116.66377 
L 232.644463 115.914425 
L 233.669256 115.16508 
L 234.69405 114.415735 
L 235.718843 113.666389 
L 236.743636 112.917044 
L 237.76843 112.167699 
L 238.793223 111.418354 
L 239.818017 110.669009 
L 240.84281 109.919663 
L 241.867603 109.170318 
L 242.892397 108.420973 
L 243.91719 107.671628 
L 244.941983 106.922283 
L 245.966777 106.172937 
L 246.99157 105.423592 
L 248.016364 104.674247 
L 249.041157 103.924902 
L 250.06595 103.175557 
L 251.090744 102.426212 
L 252.115537 101.676866 
L 253.140331 100.927521 
L 254.165124 100.178176 
L 255.189917 99.428831 
L 256.214711 98.679486 
L 257.239504 97.93014 
L 258.264298 97.180795 
L 259.289091 96.43145 
L 260.313884 95.682105 
L 261.338678 94.93276 
L 262.363471 94.183414 
L 263.388264 93.434069 
L 264.413058 92.684724 
L 265.437851 91.935379 
L 266.462645 91.186034 
L 267.487438 90.436689 
L 268.512231 89.687343 
L 269.537025 88.937998 
L 270.561818 88.188653 
L 271.586612 87.439308 
L 272.611405 86.689963 
L 273.636198 85.940617 
L 274.660992 85.191272 
L 275.685785 84.441927 
L 276.710579 83.692582 
L 277.735372 82.943237 
L 278.760165 82.193891 
L 279.784959 81.444546 
L 280.809752 80.695201 
L 281.834545 79.945856 
L 282.859339 79.196511 
L 283.884132 78.447166 
L 284.908926 77.69782 
L 285.933719 76.948475 
L 286.958512 76.19913 
L 287.983306 75.449785 
L 289.008099 74.70044 
L 290.032893 73.951094 
L 291.057686 73.201749 
L 292.082479 72.452404 
L 293.107273 71.703059 
" clip-path="url(#pe7fdf29d6c)" style="fill: none; stroke: #000000; stroke-width: 2; stroke-linecap: square"/>
   </g>
   <g id="patch_6">
    <path d="M 186.58 179.27 
L 186.58 12.95 
" style="fill: none; stroke: #000000; stroke-width: 0.8; stroke-linejoin: miter; stroke-linecap: square"/>
   </g>
   <g id="patch_7">
    <path d="M 186.58 179.27 
L 298.18 179.27 
" style="fill: none; stroke: #000000; stroke-width: 0.8; stroke-linejoin: miter; stroke-linecap: square"/>
   </g>
   <g id="text_23">
    <!-- r=0.61, p=.005 -->
    <g transform="translate(216.36 12.95) scale(0.08 -0.08)">
     <use xlink:href="#ArialMT-72"/>
     <use xlink:href="#ArialMT-3d" x="33.300781"/>
     <use xlink:href="#ArialMT-30" x="91.699219"/>
     <use xlink:href="#ArialMT-2e" x="147.314453"/>
     <use xlink:href="#ArialMT-36" x="175.097656"/>
     <use xlink:href="#ArialMT-31" x="230.712891"/>
     <use xlink:href="#ArialMT-2c" x="286.328125"/>
     <use xlink:href="#ArialMT-20" x="314.111328"/>
     <use xlink:href="#ArialMT-70" x="341.894531"/>
     <use xlink:href="#ArialMT-3d" x="397.509766"/>
     <use xlink:href="#ArialMT-2e" x="455.908203"/>
     <use xlink:href="#ArialMT-30" x="483.691406"/>
     <use xlink:href="#ArialMT-30" x="539.306641"/>
     <use xlink:href="#ArialMT-35" x="594.921875"/>
    </g>
   </g>
  </g>
  <g id="axes_3">
   <g id="patch_8">
    <path d="M 331.66 179.27 
L 443.26 179.27 
L 443.26 12.95 
L 331.66 12.95 
z
" style="fill: #ffffff"/>
   </g>
   <g id="PathCollection_3">
    <g clip-path="url(#pb741f83721)">
     <use xlink:href="#m8f7978d710" x="387.378129" y="75.946531" style="fill: #28aeed; fill-opacity: 0.8; stroke: #28aeed; stroke-opacity: 0.8"/>
     <use xlink:href="#m8f7978d710" x="369.078269" y="135.316582" style="fill: #28aeed; fill-opacity: 0.8; stroke: #28aeed; stroke-opacity: 0.8"/>
     <use xlink:href="#m8f7978d710" x="431.401853" y="95.773241" style="fill: #28aeed; fill-opacity: 0.8; stroke: #28aeed; stroke-opacity: 0.8"/>
     <use xlink:href="#m8f7978d710" x="438.187273" y="20.51" style="fill: #28aeed; fill-opacity: 0.8; stroke: #28aeed; stroke-opacity: 0.8"/>
     <use xlink:href="#m8f7978d710" x="368.52588" y="109.750297" style="fill: #28aeed; fill-opacity: 0.8; stroke: #28aeed; stroke-opacity: 0.8"/>
     <use xlink:href="#m8f7978d710" x="359.463246" y="116.454457" style="fill: #28aeed; fill-opacity: 0.8; stroke: #28aeed; stroke-opacity: 0.8"/>
     <use xlink:href="#m8f7978d710" x="374.12579" y="123.871738" style="fill: #28aeed; fill-opacity: 0.8; stroke: #28aeed; stroke-opacity: 0.8"/>
     <use xlink:href="#m8f7978d710" x="391.328327" y="118.848379" style="fill: #28aeed; fill-opacity: 0.8; stroke: #28aeed; stroke-opacity: 0.8"/>
     <use xlink:href="#m8f7978d710" x="410.840973" y="74.495732" style="fill: #28aeed; fill-opacity: 0.8; stroke: #28aeed; stroke-opacity: 0.8"/>
     <use xlink:href="#m8f7978d710" x="356.957351" y="140.832799" style="fill: #28aeed; fill-opacity: 0.8; stroke: #28aeed; stroke-opacity: 0.8"/>
     <use xlink:href="#m8f7978d710" x="421.339176" y="71.532461" style="fill: #28aeed; fill-opacity: 0.8; stroke: #28aeed; stroke-opacity: 0.8"/>
     <use xlink:href="#m8f7978d710" x="363.305537" y="139.540848" style="fill: #28aeed; fill-opacity: 0.8; stroke: #28aeed; stroke-opacity: 0.8"/>
     <use xlink:href="#m8f7978d710" x="369.89045" y="158.01085" style="fill: #28aeed; fill-opacity: 0.8; stroke: #28aeed; stroke-opacity: 0.8"/>
     <use xlink:href="#m8f7978d710" x="336.732727" y="111.415415" style="fill: #28aeed; fill-opacity: 0.8; stroke: #28aeed; stroke-opacity: 0.8"/>
     <use xlink:href="#m8f7978d710" x="372.887864" y="114.012491" style="fill: #28aeed; fill-opacity: 0.8; stroke: #28aeed; stroke-opacity: 0.8"/>
     <use xlink:href="#m8f7978d710" x="412.149801" y="82.878707" style="fill: #28aeed; fill-opacity: 0.8; stroke: #28aeed; stroke-opacity: 0.8"/>
     <use xlink:href="#m8f7978d710" x="338.821012" y="147.297503" style="fill: #28aeed; fill-opacity: 0.8; stroke: #28aeed; stroke-opacity: 0.8"/>
     <use xlink:href="#m8f7978d710" x="392.645504" y="123.112773" style="fill: #28aeed; fill-opacity: 0.8; stroke: #28aeed; stroke-opacity: 0.8"/>
     <use xlink:href="#m8f7978d710" x="389.738947" y="90.635994" style="fill: #28aeed; fill-opacity: 0.8; stroke: #28aeed; stroke-opacity: 0.8"/>
    </g>
   </g>
   <g id="PolyCollection_3">
    <path d="M 336.732727 130.676109 
L 336.732727 171.71 
L 337.757521 170.373546 
L 338.782314 169.037092 
L 339.807107 167.778245 
L 340.831901 166.54981 
L 341.856694 165.321375 
L 342.881488 164.091631 
L 343.906281 162.739327 
L 344.931074 161.387022 
L 345.955868 160.034717 
L 346.980661 158.682413 
L 348.005455 157.327379 
L 349.030248 156.035649 
L 350.055041 154.928747 
L 351.079835 153.682972 
L 352.104628 152.402978 
L 353.129421 151.154938 
L 354.154215 149.776819 
L 355.179008 148.450716 
L 356.203802 147.35631 
L 357.228595 146.204737 
L 358.253388 145.146462 
L 359.278182 144.056225 
L 360.302975 142.965989 
L 361.327769 141.875753 
L 362.352562 140.663025 
L 363.377355 139.287545 
L 364.402149 137.945145 
L 365.426942 137.007338 
L 366.451736 135.959985 
L 367.476529 134.714474 
L 368.501322 133.491526 
L 369.526116 132.244053 
L 370.550909 131.205399 
L 371.575702 129.94702 
L 372.600496 128.729075 
L 373.625289 127.661228 
L 374.650083 126.468927 
L 375.674876 125.337152 
L 376.699669 124.464303 
L 377.724463 123.702882 
L 378.749256 122.575056 
L 379.77405 121.744337 
L 380.798843 120.913565 
L 381.823636 120.068153 
L 382.84843 118.964681 
L 383.873223 118.040589 
L 384.898017 117.198654 
L 385.92281 116.355884 
L 386.947603 115.55433 
L 387.972397 114.901085 
L 388.99719 114.274028 
L 390.021983 113.48033 
L 391.046777 112.813352 
L 392.07157 112.002173 
L 393.096364 111.319401 
L 394.121157 110.606249 
L 395.14595 109.91129 
L 396.170744 109.312572 
L 397.195537 108.669714 
L 398.220331 108.143166 
L 399.245124 107.623583 
L 400.269917 107.030831 
L 401.294711 106.438079 
L 402.319504 106.165597 
L 403.344298 105.690073 
L 404.369091 105.076713 
L 405.393884 104.456861 
L 406.418678 103.679168 
L 407.443471 102.854868 
L 408.468264 102.324343 
L 409.493058 101.91675 
L 410.517851 101.328814 
L 411.542645 100.773461 
L 412.567438 100.296128 
L 413.592231 99.697611 
L 414.617025 99.251975 
L 415.641818 98.80634 
L 416.666612 98.441173 
L 417.691405 97.915069 
L 418.716198 97.469433 
L 419.740992 97.023797 
L 420.765785 96.578162 
L 421.790579 96.130227 
L 422.815372 95.469691 
L 423.840165 95.097728 
L 424.864959 94.711062 
L 425.889752 94.153703 
L 426.914545 93.594599 
L 427.939339 93.05323 
L 428.964132 92.702017 
L 429.988926 92.350349 
L 431.013719 91.996694 
L 432.038512 91.465859 
L 433.063306 90.923054 
L 434.088099 90.38025 
L 435.112893 89.837446 
L 436.137686 89.294641 
L 437.162479 88.750454 
L 438.187273 88.206202 
L 438.187273 36.363944 
L 438.187273 36.363944 
L 437.162479 37.657328 
L 436.137686 39.037262 
L 435.112893 40.32018 
L 434.088099 41.563326 
L 433.063306 42.873614 
L 432.038512 44.243276 
L 431.013719 45.462287 
L 429.988926 46.681297 
L 428.964132 47.901176 
L 427.939339 49.211596 
L 426.914545 50.514692 
L 425.889752 51.682447 
L 424.864959 52.879165 
L 423.840165 54.185201 
L 422.815372 55.374134 
L 421.790579 56.803374 
L 420.765785 58.046943 
L 419.740992 59.337369 
L 418.716198 60.65466 
L 417.691405 61.803821 
L 416.666612 63.014305 
L 415.641818 64.254058 
L 414.617025 65.369687 
L 413.592231 66.659316 
L 412.567438 67.951415 
L 411.542645 69.110827 
L 410.517851 70.402329 
L 409.493058 71.669018 
L 408.468264 72.901783 
L 407.443471 74.05456 
L 406.418678 75.173995 
L 405.393884 76.358763 
L 404.369091 77.643038 
L 403.344298 78.884869 
L 402.319504 79.92913 
L 401.294711 80.901338 
L 400.269917 81.987013 
L 399.245124 82.989932 
L 398.220331 84.102417 
L 397.195537 85.290179 
L 396.170744 86.386412 
L 395.14595 87.479698 
L 394.121157 88.517236 
L 393.096364 89.544664 
L 392.07157 90.69328 
L 391.046777 91.942425 
L 390.021983 92.86143 
L 388.99719 93.804232 
L 387.972397 94.714227 
L 386.947603 95.770488 
L 385.92281 96.765302 
L 384.898017 97.902382 
L 383.873223 98.888359 
L 382.84843 99.882646 
L 381.823636 100.83205 
L 380.798843 101.735568 
L 379.77405 102.595333 
L 378.749256 103.546537 
L 377.724463 104.625878 
L 376.699669 105.397508 
L 375.674876 106.17338 
L 374.650083 107.078921 
L 373.625289 107.974025 
L 372.600496 108.798759 
L 371.575702 109.556909 
L 370.550909 110.44419 
L 369.526116 111.228086 
L 368.501322 111.968417 
L 367.476529 112.812238 
L 366.451736 113.4896 
L 365.426942 114.086064 
L 364.402149 114.667541 
L 363.377355 115.203411 
L 362.352562 115.796312 
L 361.327769 116.577979 
L 360.302975 117.063487 
L 359.278182 117.766052 
L 358.253388 118.581226 
L 357.228595 119.148645 
L 356.203802 119.835034 
L 355.179008 120.559051 
L 354.154215 121.141416 
L 353.129421 121.809713 
L 352.104628 122.345356 
L 351.079835 122.951182 
L 350.055041 123.555186 
L 349.030248 124.15741 
L 348.005455 124.712899 
L 346.980661 125.308541 
L 345.955868 125.78798 
L 344.931074 126.298983 
L 343.906281 126.707269 
L 342.881488 127.195141 
L 341.856694 127.800527 
L 340.831901 128.409476 
L 339.807107 129.018424 
L 338.782314 129.579304 
L 337.757521 130.126863 
L 336.732727 130.676109 
z
" clip-path="url(#pb741f83721)" style="fill-opacity: 0.15"/>
   </g>
   <g id="matplotlib.axis_5">
    <g id="xtick_7">
     <g id="line2d_20">
      <g>
       <use xlink:href="#m7fe84507c9" x="357.853843" y="179.27" style="stroke: #000000; stroke-width: 0.8"/>
      </g>
     </g>
     <g id="text_24">
      <!-- 40 -->
      <g transform="translate(353.405093 191.99625) scale(0.08 -0.08)">
       <use xlink:href="#ArialMT-34"/>
       <use xlink:href="#ArialMT-30" x="55.615234"/>
      </g>
     </g>
    </g>
    <g id="xtick_8">
     <g id="line2d_21">
      <g>
       <use xlink:href="#m7fe84507c9" x="389.104688" y="179.27" style="stroke: #000000; stroke-width: 0.8"/>
      </g>
     </g>
     <g id="text_25">
      <!-- 60 -->
      <g transform="translate(384.655938 191.99625) scale(0.08 -0.08)">
       <use xlink:href="#ArialMT-36"/>
       <use xlink:href="#ArialMT-30" x="55.615234"/>
      </g>
     </g>
    </g>
    <g id="xtick_9">
     <g id="line2d_22">
      <g>
       <use xlink:href="#m7fe84507c9" x="420.355532" y="179.27" style="stroke: #000000; stroke-width: 0.8"/>
      </g>
     </g>
     <g id="text_26">
      <!-- 80 -->
      <g transform="translate(415.906782 191.99625) scale(0.08 -0.08)">
       <use xlink:href="#ArialMT-38"/>
       <use xlink:href="#ArialMT-30" x="55.615234"/>
      </g>
     </g>
    </g>
    <g id="text_27">
     <!-- Knee Extension Moment (Nm) -->
     <g transform="translate(333.886875 203.41) scale(0.08 -0.08)">
      <use xlink:href="#ArialMT-4b"/>
      <use xlink:href="#ArialMT-6e" x="66.699219"/>
      <use xlink:href="#ArialMT-65" x="122.314453"/>
      <use xlink:href="#ArialMT-65" x="177.929688"/>
      <use xlink:href="#ArialMT-20" x="233.544922"/>
      <use xlink:href="#ArialMT-45" x="261.328125"/>
      <use xlink:href="#ArialMT-78" x="328.027344"/>
      <use xlink:href="#ArialMT-74" x="378.027344"/>
      <use xlink:href="#ArialMT-65" x="405.810547"/>
      <use xlink:href="#ArialMT-6e" x="461.425781"/>
      <use xlink:href="#ArialMT-73" x="517.041016"/>
      <use xlink:href="#ArialMT-69" x="567.041016"/>
      <use xlink:href="#ArialMT-6f" x="589.257812"/>
      <use xlink:href="#ArialMT-6e" x="644.873047"/>
      <use xlink:href="#ArialMT-20" x="700.488281"/>
      <use xlink:href="#ArialMT-4d" x="728.271484"/>
      <use xlink:href="#ArialMT-6f" x="811.572266"/>
      <use xlink:href="#ArialMT-6d" x="867.1875"/>
      <use xlink:href="#ArialMT-65" x="950.488281"/>
      <use xlink:href="#ArialMT-6e" x="1006.103516"/>
      <use xlink:href="#ArialMT-74" x="1061.71875"/>
      <use xlink:href="#ArialMT-20" x="1089.501953"/>
      <use xlink:href="#ArialMT-28" x="1117.285156"/>
      <use xlink:href="#ArialMT-4e" x="1150.585938"/>
      <use xlink:href="#ArialMT-6d" x="1222.802734"/>
      <use xlink:href="#ArialMT-29" x="1306.103516"/>
     </g>
    </g>
   </g>
   <g id="matplotlib.axis_6">
    <g id="ytick_12">
     <g id="line2d_23">
      <g>
       <use xlink:href="#m7235838f3c" x="331.66" y="167.935331" style="stroke: #000000; stroke-width: 0.8"/>
      </g>
     </g>
     <g id="text_28">
      <!-- −3 -->
      <g transform="translate(315.53875 170.798456) scale(0.08 -0.08)">
       <use xlink:href="#ArialMT-2212"/>
       <use xlink:href="#ArialMT-33" x="58.398438"/>
      </g>
     </g>
    </g>
    <g id="ytick_13">
     <g id="line2d_24">
      <g>
       <use xlink:href="#m7235838f3c" x="331.66" y="147.925954" style="stroke: #000000; stroke-width: 0.8"/>
      </g>
     </g>
     <g id="text_29">
      <!-- −2 -->
      <g transform="translate(315.53875 150.789079) scale(0.08 -0.08)">
       <use xlink:href="#ArialMT-2212"/>
       <use xlink:href="#ArialMT-32" x="58.398438"/>
      </g>
     </g>
    </g>
    <g id="ytick_14">
     <g id="line2d_25">
      <g>
       <use xlink:href="#m7235838f3c" x="331.66" y="127.916577" style="stroke: #000000; stroke-width: 0.8"/>
      </g>
     </g>
     <g id="text_30">
      <!-- −1 -->
      <g transform="translate(315.53875 130.779702) scale(0.08 -0.08)">
       <use xlink:href="#ArialMT-2212"/>
       <use xlink:href="#ArialMT-31" x="58.398438"/>
      </g>
     </g>
    </g>
    <g id="ytick_15">
     <g id="line2d_26">
      <g>
       <use xlink:href="#m7235838f3c" x="331.66" y="107.9072" style="stroke: #000000; stroke-width: 0.8"/>
      </g>
     </g>
     <g id="text_31">
      <!-- 0 -->
      <g transform="translate(320.21125 110.770325) scale(0.08 -0.08)">
       <use xlink:href="#ArialMT-30"/>
      </g>
     </g>
    </g>
    <g id="ytick_16">
     <g id="line2d_27">
      <g>
       <use xlink:href="#m7235838f3c" x="331.66" y="87.897823" style="stroke: #000000; stroke-width: 0.8"/>
      </g>
     </g>
     <g id="text_32">
      <!-- 1 -->
      <g transform="translate(320.21125 90.760948) scale(0.08 -0.08)">
       <use xlink:href="#ArialMT-31"/>
      </g>
     </g>
    </g>
    <g id="ytick_17">
     <g id="line2d_28">
      <g>
       <use xlink:href="#m7235838f3c" x="331.66" y="67.888446" style="stroke: #000000; stroke-width: 0.8"/>
      </g>
     </g>
     <g id="text_33">
      <!-- 2 -->
      <g transform="translate(320.21125 70.751571) scale(0.08 -0.08)">
       <use xlink:href="#ArialMT-32"/>
      </g>
     </g>
    </g>
    <g id="ytick_18">
     <g id="line2d_29">
      <g>
       <use xlink:href="#m7235838f3c" x="331.66" y="47.879069" style="stroke: #000000; stroke-width: 0.8"/>
      </g>
     </g>
     <g id="text_34">
      <!-- 3 -->
      <g transform="translate(320.21125 50.742194) scale(0.08 -0.08)">
       <use xlink:href="#ArialMT-33"/>
      </g>
     </g>
    </g>
    <g id="ytick_19">
     <g id="line2d_30">
      <g>
       <use xlink:href="#m7235838f3c" x="331.66" y="27.869692" style="stroke: #000000; stroke-width: 0.8"/>
      </g>
     </g>
     <g id="text_35">
      <!-- 4 -->
      <g transform="translate(320.21125 30.732817) scale(0.08 -0.08)">
       <use xlink:href="#ArialMT-34"/>
      </g>
     </g>
    </g>
    <g id="text_36">
     <!-- Radial Diffusivity + Volume Total (Standardized) -->
     <g transform="translate(309.855 180.338125) rotate(-90) scale(0.08 -0.08)">
      <defs>
       <path id="ArialMT-2b" d="M 1603 741 
L 1603 1997 
L 356 1997 
L 356 2522 
L 1603 2522 
L 1603 3769 
L 2134 3769 
L 2134 2522 
L 3381 2522 
L 3381 1997 
L 2134 1997 
L 2134 741 
L 1603 741 
z
" transform="scale(0.015625)"/>
      </defs>
      <use xlink:href="#ArialMT-52"/>
      <use xlink:href="#ArialMT-61" x="72.216797"/>
      <use xlink:href="#ArialMT-64" x="127.832031"/>
      <use xlink:href="#ArialMT-69" x="183.447266"/>
      <use xlink:href="#ArialMT-61" x="205.664062"/>
      <use xlink:href="#ArialMT-6c" x="261.279297"/>
      <use xlink:href="#ArialMT-20" x="283.496094"/>
      <use xlink:href="#ArialMT-44" x="311.279297"/>
      <use xlink:href="#ArialMT-69" x="383.496094"/>
      <use xlink:href="#ArialMT-66" x="405.712891"/>
      <use xlink:href="#ArialMT-66" x="431.746094"/>
      <use xlink:href="#ArialMT-75" x="459.529297"/>
      <use xlink:href="#ArialMT-73" x="515.144531"/>
      <use xlink:href="#ArialMT-69" x="565.144531"/>
      <use xlink:href="#ArialMT-76" x="587.361328"/>
      <use xlink:href="#ArialMT-69" x="637.361328"/>
      <use xlink:href="#ArialMT-74" x="659.578125"/>
      <use xlink:href="#ArialMT-79" x="687.361328"/>
      <use xlink:href="#ArialMT-20" x="737.361328"/>
      <use xlink:href="#ArialMT-2b" x="765.144531"/>
      <use xlink:href="#ArialMT-20" x="823.542969"/>
      <use xlink:href="#ArialMT-56" x="851.326172"/>
      <use xlink:href="#ArialMT-6f" x="912.525391"/>
      <use xlink:href="#ArialMT-6c" x="968.140625"/>
      <use xlink:href="#ArialMT-75" x="990.357422"/>
      <use xlink:href="#ArialMT-6d" x="1045.972656"/>
      <use xlink:href="#ArialMT-65" x="1129.273438"/>
      <use xlink:href="#ArialMT-20" x="1184.888672"/>
      <use xlink:href="#ArialMT-54" x="1210.921875"/>
      <use xlink:href="#ArialMT-6f" x="1260.880859"/>
      <use xlink:href="#ArialMT-74" x="1316.496094"/>
      <use xlink:href="#ArialMT-61" x="1344.279297"/>
      <use xlink:href="#ArialMT-6c" x="1399.894531"/>
      <use xlink:href="#ArialMT-20" x="1422.111328"/>
      <use xlink:href="#ArialMT-28" x="1449.894531"/>
      <use xlink:href="#ArialMT-53" x="1483.195312"/>
      <use xlink:href="#ArialMT-74" x="1549.894531"/>
      <use xlink:href="#ArialMT-61" x="1577.677734"/>
      <use xlink:href="#ArialMT-6e" x="1633.292969"/>
      <use xlink:href="#ArialMT-64" x="1688.908203"/>
      <use xlink:href="#ArialMT-61" x="1744.523438"/>
      <use xlink:href="#ArialMT-72" x="1800.138672"/>
      <use xlink:href="#ArialMT-64" x="1833.439453"/>
      <use xlink:href="#ArialMT-69" x="1889.054688"/>
      <use xlink:href="#ArialMT-7a" x="1911.271484"/>
      <use xlink:href="#ArialMT-65" x="1961.271484"/>
      <use xlink:href="#ArialMT-64" x="2016.886719"/>
      <use xlink:href="#ArialMT-29" x="2072.501953"/>
     </g>
    </g>
   </g>
   <g id="line2d_31">
    <path d="M 336.732727 148.927009 
L 337.757521 148.026433 
L 338.782314 147.125857 
L 339.807107 146.22528 
L 340.831901 145.324704 
L 341.856694 144.424128 
L 342.881488 143.523552 
L 343.906281 142.622975 
L 344.931074 141.722399 
L 345.955868 140.821823 
L 346.980661 139.921246 
L 348.005455 139.02067 
L 349.030248 138.120094 
L 350.055041 137.219518 
L 351.079835 136.318941 
L 352.104628 135.418365 
L 353.129421 134.517789 
L 354.154215 133.617212 
L 355.179008 132.716636 
L 356.203802 131.81606 
L 357.228595 130.915483 
L 358.253388 130.014907 
L 359.278182 129.114331 
L 360.302975 128.213755 
L 361.327769 127.313178 
L 362.352562 126.412602 
L 363.377355 125.512026 
L 364.402149 124.611449 
L 365.426942 123.710873 
L 366.451736 122.810297 
L 367.476529 121.909721 
L 368.501322 121.009144 
L 369.526116 120.108568 
L 370.550909 119.207992 
L 371.575702 118.307415 
L 372.600496 117.406839 
L 373.625289 116.506263 
L 374.650083 115.605687 
L 375.674876 114.70511 
L 376.699669 113.804534 
L 377.724463 112.903958 
L 378.749256 112.003381 
L 379.77405 111.102805 
L 380.798843 110.202229 
L 381.823636 109.301652 
L 382.84843 108.401076 
L 383.873223 107.5005 
L 384.898017 106.599924 
L 385.92281 105.699347 
L 386.947603 104.798771 
L 387.972397 103.898195 
L 388.99719 102.997618 
L 390.021983 102.097042 
L 391.046777 101.196466 
L 392.07157 100.29589 
L 393.096364 99.395313 
L 394.121157 98.494737 
L 395.14595 97.594161 
L 396.170744 96.693584 
L 397.195537 95.793008 
L 398.220331 94.892432 
L 399.245124 93.991856 
L 400.269917 93.091279 
L 401.294711 92.190703 
L 402.319504 91.290127 
L 403.344298 90.38955 
L 404.369091 89.488974 
L 405.393884 88.588398 
L 406.418678 87.687821 
L 407.443471 86.787245 
L 408.468264 85.886669 
L 409.493058 84.986093 
L 410.517851 84.085516 
L 411.542645 83.18494 
L 412.567438 82.284364 
L 413.592231 81.383787 
L 414.617025 80.483211 
L 415.641818 79.582635 
L 416.666612 78.682059 
L 417.691405 77.781482 
L 418.716198 76.880906 
L 419.740992 75.98033 
L 420.765785 75.079753 
L 421.790579 74.179177 
L 422.815372 73.278601 
L 423.840165 72.378025 
L 424.864959 71.477448 
L 425.889752 70.576872 
L 426.914545 69.676296 
L 427.939339 68.775719 
L 428.964132 67.875143 
L 429.988926 66.974567 
L 431.013719 66.07399 
L 432.038512 65.173414 
L 433.063306 64.272838 
L 434.088099 63.372262 
L 435.112893 62.471685 
L 436.137686 61.571109 
L 437.162479 60.670533 
L 438.187273 59.769956 
" clip-path="url(#pb741f83721)" style="fill: none; stroke: #000000; stroke-width: 2; stroke-linecap: square"/>
   </g>
   <g id="patch_9">
    <path d="M 331.66 179.27 
L 331.66 12.95 
" style="fill: none; stroke: #000000; stroke-width: 0.8; stroke-linejoin: miter; stroke-linecap: square"/>
   </g>
   <g id="patch_10">
    <path d="M 331.66 179.27 
L 443.26 179.27 
" style="fill: none; stroke: #000000; stroke-width: 0.8; stroke-linejoin: miter; stroke-linecap: square"/>
   </g>
   <g id="text_37">
    <!-- r=0.77, p&lt;.001 -->
    <g transform="translate(361.44 12.95) scale(0.08 -0.08)">
     <defs>
      <path id="ArialMT-37" d="M 303 3981 
L 303 4522 
L 3269 4522 
L 3269 4084 
Q 2831 3619 2401 2847 
Q 1972 2075 1738 1259 
Q 1569 684 1522 0 
L 944 0 
Q 953 541 1156 1306 
Q 1359 2072 1739 2783 
Q 2119 3494 2547 3981 
L 303 3981 
z
" transform="scale(0.015625)"/>
      <path id="ArialMT-3c" d="M 350 2003 
L 350 2528 
L 3384 3809 
L 3384 3250 
L 978 2263 
L 3384 1266 
L 3384 706 
L 350 2003 
z
" transform="scale(0.015625)"/>
     </defs>
     <use xlink:href="#ArialMT-72"/>
     <use xlink:href="#ArialMT-3d" x="33.300781"/>
     <use xlink:href="#ArialMT-30" x="91.699219"/>
     <use xlink:href="#ArialMT-2e" x="147.314453"/>
     <use xlink:href="#ArialMT-37" x="175.097656"/>
     <use xlink:href="#ArialMT-37" x="230.712891"/>
     <use xlink:href="#ArialMT-2c" x="286.328125"/>
     <use xlink:href="#ArialMT-20" x="314.111328"/>
     <use xlink:href="#ArialMT-70" x="341.894531"/>
     <use xlink:href="#ArialMT-3c" x="397.509766"/>
     <use xlink:href="#ArialMT-2e" x="455.908203"/>
     <use xlink:href="#ArialMT-30" x="483.691406"/>
     <use xlink:href="#ArialMT-30" x="539.306641"/>
     <use xlink:href="#ArialMT-31" x="594.921875"/>
    </g>
   </g>
  </g>
 </g>
 <defs>
  <clipPath id="pf609f646d2">
   <rect x="41.5" y="12.95" width="111.6" height="166.32"/>
  </clipPath>
  <clipPath id="pe7fdf29d6c">
   <rect x="186.58" y="12.95" width="111.6" height="166.32"/>
  </clipPath>
  <clipPath id="pb741f83721">
   <rect x="331.66" y="12.95" width="111.6" height="166.32"/>
  </clipPath>
 </defs>
</svg>
