<?xml version="1.0" encoding="utf-8" standalone="no"?>
<!DOCTYPE svg PUBLIC "-//W3C//DTD SVG 1.1//EN"
  "http://www.w3.org/Graphics/SVG/1.1/DTD/svg11.dtd">
<svg xmlns:xlink="http://www.w3.org/1999/xlink" width="450.46pt" height="212.29375pt" viewBox="0 0 450.46 212.29375" xmlns="http://www.w3.org/2000/svg" version="1.1">
 <metadata>
  <rdf:RDF xmlns:dc="http://purl.org/dc/elements/1.1/" xmlns:cc="http://creativecommons.org/ns#" xmlns:rdf="http://www.w3.org/1999/02/22-rdf-syntax-ns#">
   <cc:Work>
    <dc:type rdf:resource="http://purl.org/dc/dcmitype/StillImage"/>
    <dc:date>2025-07-28T10:11:37.769597</dc:date>
    <dc:format>image/svg+xml</dc:format>
    <dc:creator>
     <cc:Agent>
      <dc:title>Matplotlib v3.9.2, https://matplotlib.org/</dc:title>
     </cc:Agent>
    </dc:creator>
   </cc:Work>
  </rdf:RDF>
 </metadata>
 <defs>
  <style type="text/css">*{stroke-linejoin: round; stroke-linecap: butt}</style>
 </defs>
 <g id="figure_1">
  <g id="patch_1">
   <path d="M 0 212.29375 
L 450.46 212.29375 
L 450.46 0 
L 0 0 
z
" style="fill: #ffffff"/>
  </g>
  <g id="axes_1">
   <g id="patch_2">
    <path d="M 41.5 179.27 
L 153.1 179.27 
L 153.1 12.95 
L 41.5 12.95 
z
" style="fill: #ffffff"/>
   </g>
   <g id="PathCollection_1">
    <defs>
     <path id="m766ea24cc1" d="M 0 2.236068 
C 0.593012 2.236068 1.161816 2.000462 1.581139 1.581139 
C 2.000462 1.161816 2.236068 0.593012 2.236068 0 
C 2.236068 -0.593012 2.000462 -1.161816 1.581139 -1.581139 
C 1.161816 -2.000462 0.593012 -2.236068 0 -2.236068 
C -0.593012 -2.236068 -1.161816 -2.000462 -1.581139 -1.581139 
C -2.000462 -1.161816 -2.236068 -0.593012 -2.236068 0 
C -2.236068 0.593012 -2.000462 1.161816 -1.581139 1.581139 
C -1.161816 2.000462 -0.593012 2.236068 0 2.236068 
z
" style="stroke: #28aeed; stroke-opacity: 0.8"/>
    </defs>
    <g clip-path="url(#paefa491307)">
     <use xlink:href="#m766ea24cc1" x="97.218129" y="49.202539" style="fill: #28aeed; fill-opacity: 0.8; stroke: #28aeed; stroke-opacity: 0.8"/>
     <use xlink:href="#m766ea24cc1" x="78.918269" y="154.062643" style="fill: #28aeed; fill-opacity: 0.8; stroke: #28aeed; stroke-opacity: 0.8"/>
     <use xlink:href="#m766ea24cc1" x="141.241853" y="50.937894" style="fill: #28aeed; fill-opacity: 0.8; stroke: #28aeed; stroke-opacity: 0.8"/>
     <use xlink:href="#m766ea24cc1" x="148.027273" y="24.770964" style="fill: #28aeed; fill-opacity: 0.8; stroke: #28aeed; stroke-opacity: 0.8"/>
     <use xlink:href="#m766ea24cc1" x="78.36588" y="111.42908" style="fill: #28aeed; fill-opacity: 0.8; stroke: #28aeed; stroke-opacity: 0.8"/>
     <use xlink:href="#m766ea24cc1" x="69.303246" y="116.696712" style="fill: #28aeed; fill-opacity: 0.8; stroke: #28aeed; stroke-opacity: 0.8"/>
     <use xlink:href="#m766ea24cc1" x="83.96579" y="133.459631" style="fill: #28aeed; fill-opacity: 0.8; stroke: #28aeed; stroke-opacity: 0.8"/>
     <use xlink:href="#m766ea24cc1" x="101.168327" y="100.882274" style="fill: #28aeed; fill-opacity: 0.8; stroke: #28aeed; stroke-opacity: 0.8"/>
     <use xlink:href="#m766ea24cc1" x="120.680973" y="88.007552" style="fill: #28aeed; fill-opacity: 0.8; stroke: #28aeed; stroke-opacity: 0.8"/>
     <use xlink:href="#m766ea24cc1" x="66.797351" y="150.174453" style="fill: #28aeed; fill-opacity: 0.8; stroke: #28aeed; stroke-opacity: 0.8"/>
     <use xlink:href="#m766ea24cc1" x="131.179176" y="35.456291" style="fill: #28aeed; fill-opacity: 0.8; stroke: #28aeed; stroke-opacity: 0.8"/>
     <use xlink:href="#m766ea24cc1" x="73.145537" y="112.873927" style="fill: #28aeed; fill-opacity: 0.8; stroke: #28aeed; stroke-opacity: 0.8"/>
     <use xlink:href="#m766ea24cc1" x="79.73045" y="126.552839" style="fill: #28aeed; fill-opacity: 0.8; stroke: #28aeed; stroke-opacity: 0.8"/>
     <use xlink:href="#m766ea24cc1" x="46.572727" y="65.274779" style="fill: #28aeed; fill-opacity: 0.8; stroke: #28aeed; stroke-opacity: 0.8"/>
     <use xlink:href="#m766ea24cc1" x="82.727864" y="42.661287" style="fill: #28aeed; fill-opacity: 0.8; stroke: #28aeed; stroke-opacity: 0.8"/>
     <use xlink:href="#m766ea24cc1" x="121.989801" y="54.064228" style="fill: #28aeed; fill-opacity: 0.8; stroke: #28aeed; stroke-opacity: 0.8"/>
     <use xlink:href="#m766ea24cc1" x="48.661012" y="148.462184" style="fill: #28aeed; fill-opacity: 0.8; stroke: #28aeed; stroke-opacity: 0.8"/>
     <use xlink:href="#m766ea24cc1" x="102.485504" y="137.83265" style="fill: #28aeed; fill-opacity: 0.8; stroke: #28aeed; stroke-opacity: 0.8"/>
     <use xlink:href="#m766ea24cc1" x="99.578947" y="85.162107" style="fill: #28aeed; fill-opacity: 0.8; stroke: #28aeed; stroke-opacity: 0.8"/>
    </g>
   </g>
   <g id="PolyCollection_1">
    <path d="M 46.572727 107.822357 
L 46.572727 171.71 
L 47.597521 170.256734 
L 48.622314 168.800125 
L 49.647107 167.337237 
L 50.671901 165.874349 
L 51.696694 164.411462 
L 52.721488 162.948574 
L 53.746281 161.485686 
L 54.771074 160.022551 
L 55.795868 158.558578 
L 56.820661 157.083034 
L 57.845455 155.587438 
L 58.870248 154.171248 
L 59.895041 152.716422 
L 60.919835 151.355295 
L 61.944628 149.916437 
L 62.969421 148.465781 
L 63.994215 147.014883 
L 65.019008 145.559416 
L 66.043802 144.10395 
L 67.068595 142.616371 
L 68.093388 141.198596 
L 69.118182 139.853887 
L 70.142975 138.299611 
L 71.167769 136.948237 
L 72.192562 135.637518 
L 73.217355 134.254718 
L 74.242149 132.957275 
L 75.266942 131.537854 
L 76.291736 130.383118 
L 77.316529 128.912945 
L 78.341322 127.624685 
L 79.366116 126.370642 
L 80.390909 125.185726 
L 81.415702 123.882936 
L 82.440496 122.577351 
L 83.465289 121.273212 
L 84.490083 119.918458 
L 85.514876 118.659071 
L 86.539669 117.365842 
L 87.564463 116.049422 
L 88.589256 114.816844 
L 89.61405 113.499436 
L 90.638843 112.344799 
L 91.663636 111.476007 
L 92.68843 110.384112 
L 93.713223 109.201403 
L 94.738017 108.169652 
L 95.76281 107.275607 
L 96.787603 106.124881 
L 97.812397 105.182642 
L 98.83719 104.317418 
L 99.861983 103.525845 
L 100.886777 102.710163 
L 101.91157 101.843983 
L 102.936364 101.103508 
L 103.961157 100.301805 
L 104.98595 99.591498 
L 106.010744 98.854033 
L 107.035537 98.145608 
L 108.060331 97.476482 
L 109.085124 97.230949 
L 110.109917 96.552592 
L 111.134711 96.104723 
L 112.159504 95.651532 
L 113.184298 95.206302 
L 114.209091 94.764857 
L 115.233884 94.314793 
L 116.258678 93.464334 
L 117.283471 92.858301 
L 118.308264 92.285754 
L 119.333058 91.50771 
L 120.357851 90.805238 
L 121.382645 90.420803 
L 122.407438 90.036368 
L 123.432231 89.651932 
L 124.457025 89.267497 
L 125.481818 88.882296 
L 126.506612 88.491066 
L 127.531405 88.1823 
L 128.556198 87.834593 
L 129.580992 87.322941 
L 130.605785 86.761925 
L 131.630579 86.098861 
L 132.655372 85.433877 
L 133.680165 84.768894 
L 134.704959 84.144108 
L 135.729752 83.807524 
L 136.754545 83.580325 
L 137.779339 83.353126 
L 138.804132 83.099429 
L 139.828926 82.739908 
L 140.853719 82.201206 
L 141.878512 81.662504 
L 142.903306 81.123802 
L 143.928099 80.745228 
L 144.952893 80.40862 
L 145.977686 80.072012 
L 147.002479 79.735405 
L 148.027273 79.429116 
L 148.027273 20.51 
L 148.027273 20.51 
L 147.002479 22.004316 
L 145.977686 23.301595 
L 144.952893 24.721943 
L 143.928099 26.105144 
L 142.903306 27.420641 
L 141.878512 28.85532 
L 140.853719 30.044792 
L 139.828926 31.3569 
L 138.804132 32.746692 
L 137.779339 34.086116 
L 136.754545 35.400341 
L 135.729752 36.812941 
L 134.704959 38.202165 
L 133.680165 39.642078 
L 132.655372 40.884668 
L 131.630579 42.127258 
L 130.605785 43.217729 
L 129.580992 44.618732 
L 128.556198 45.904793 
L 127.531405 47.108691 
L 126.506612 48.350961 
L 125.481818 49.558132 
L 124.457025 50.656914 
L 123.432231 51.898326 
L 122.407438 52.966702 
L 121.382645 54.265725 
L 120.357851 55.565483 
L 119.333058 56.878965 
L 118.308264 58.167132 
L 117.283471 59.056161 
L 116.258678 60.040917 
L 115.233884 61.000329 
L 114.209091 61.949644 
L 113.184298 63.074054 
L 112.159504 63.883843 
L 111.134711 65.045161 
L 110.109917 66.264438 
L 109.085124 67.186082 
L 108.060331 68.125006 
L 107.035537 69.159198 
L 106.010744 70.020968 
L 104.98595 71.154738 
L 103.961157 72.174515 
L 102.936364 72.933097 
L 101.91157 73.698946 
L 100.886777 74.455573 
L 99.861983 75.126572 
L 98.83719 75.703728 
L 97.812397 76.391833 
L 96.787603 77.280048 
L 95.76281 78.031792 
L 94.738017 78.896733 
L 93.713223 79.841957 
L 92.68843 80.510347 
L 91.663636 81.072427 
L 90.638843 81.5888 
L 89.61405 82.113325 
L 88.589256 82.953686 
L 87.564463 83.732164 
L 86.539669 84.476826 
L 85.514876 85.494506 
L 84.490083 86.512186 
L 83.465289 87.125493 
L 82.440496 87.58206 
L 81.415702 88.040156 
L 80.390909 88.60874 
L 79.366116 89.289744 
L 78.341322 90.102081 
L 77.316529 90.911727 
L 76.291736 91.637248 
L 75.266942 92.200928 
L 74.242149 92.764607 
L 73.217355 93.449781 
L 72.192562 94.198663 
L 71.167769 94.658854 
L 70.142975 95.416174 
L 69.118182 96.251063 
L 68.093388 96.596406 
L 67.068595 97.127074 
L 66.043802 97.660954 
L 65.019008 98.043804 
L 63.994215 98.716975 
L 62.969421 99.391352 
L 61.944628 100.070229 
L 60.919835 100.736775 
L 59.895041 101.044541 
L 58.870248 101.373291 
L 57.845455 102.032653 
L 56.820661 102.64469 
L 55.795868 102.912658 
L 54.771074 103.362149 
L 53.746281 104.026675 
L 52.721488 104.802353 
L 51.696694 105.363143 
L 50.671901 106.032377 
L 49.647107 106.702205 
L 48.622314 107.054671 
L 47.597521 107.399877 
L 46.572727 107.822357 
z
" clip-path="url(#paefa491307)" style="fill-opacity: 0.15"/>
   </g>
   <g id="matplotlib.axis_1">
    <g id="xtick_1">
     <g id="line2d_1">
      <defs>
       <path id="m0589e8ab17" d="M 0 0 
L 0 3.5 
" style="stroke: #000000; stroke-width: 0.8"/>
      </defs>
      <g>
       <use xlink:href="#m0589e8ab17" x="67.693843" y="179.27" style="stroke: #000000; stroke-width: 0.8"/>
      </g>
     </g>
     <g id="text_1">
      <!-- 40 -->
      <g transform="translate(63.245093 191.99625) scale(0.08 -0.08)">
       <defs>
        <path id="ArialMT-34" d="M 2069 0 
L 2069 1097 
L 81 1097 
L 81 1613 
L 2172 4581 
L 2631 4581 
L 2631 1613 
L 3250 1613 
L 3250 1097 
L 2631 1097 
L 2631 0 
L 2069 0 
z
M 2069 1613 
L 2069 3678 
L 634 1613 
L 2069 1613 
z
" transform="scale(0.015625)"/>
        <path id="ArialMT-30" d="M 266 2259 
Q 266 3072 433 3567 
Q 600 4063 929 4331 
Q 1259 4600 1759 4600 
Q 2128 4600 2406 4451 
Q 2684 4303 2865 4023 
Q 3047 3744 3150 3342 
Q 3253 2941 3253 2259 
Q 3253 1453 3087 958 
Q 2922 463 2592 192 
Q 2263 -78 1759 -78 
Q 1097 -78 719 397 
Q 266 969 266 2259 
z
M 844 2259 
Q 844 1131 1108 757 
Q 1372 384 1759 384 
Q 2147 384 2411 759 
Q 2675 1134 2675 2259 
Q 2675 3391 2411 3762 
Q 2147 4134 1753 4134 
Q 1366 4134 1134 3806 
Q 844 3388 844 2259 
z
" transform="scale(0.015625)"/>
       </defs>
       <use xlink:href="#ArialMT-34"/>
       <use xlink:href="#ArialMT-30" x="55.615234"/>
      </g>
     </g>
    </g>
    <g id="xtick_2">
     <g id="line2d_2">
      <g>
       <use xlink:href="#m0589e8ab17" x="98.944688" y="179.27" style="stroke: #000000; stroke-width: 0.8"/>
      </g>
     </g>
     <g id="text_2">
      <!-- 60 -->
      <g transform="translate(94.495938 191.99625) scale(0.08 -0.08)">
       <defs>
        <path id="ArialMT-36" d="M 3184 3459 
L 2625 3416 
Q 2550 3747 2413 3897 
Q 2184 4138 1850 4138 
Q 1581 4138 1378 3988 
Q 1113 3794 959 3422 
Q 806 3050 800 2363 
Q 1003 2672 1297 2822 
Q 1591 2972 1913 2972 
Q 2475 2972 2870 2558 
Q 3266 2144 3266 1488 
Q 3266 1056 3080 686 
Q 2894 316 2569 119 
Q 2244 -78 1831 -78 
Q 1128 -78 684 439 
Q 241 956 241 2144 
Q 241 3472 731 4075 
Q 1159 4600 1884 4600 
Q 2425 4600 2770 4297 
Q 3116 3994 3184 3459 
z
M 888 1484 
Q 888 1194 1011 928 
Q 1134 663 1356 523 
Q 1578 384 1822 384 
Q 2178 384 2434 671 
Q 2691 959 2691 1453 
Q 2691 1928 2437 2201 
Q 2184 2475 1800 2475 
Q 1419 2475 1153 2201 
Q 888 1928 888 1484 
z
" transform="scale(0.015625)"/>
       </defs>
       <use xlink:href="#ArialMT-36"/>
       <use xlink:href="#ArialMT-30" x="55.615234"/>
      </g>
     </g>
    </g>
    <g id="xtick_3">
     <g id="line2d_3">
      <g>
       <use xlink:href="#m0589e8ab17" x="130.195532" y="179.27" style="stroke: #000000; stroke-width: 0.8"/>
      </g>
     </g>
     <g id="text_3">
      <!-- 80 -->
      <g transform="translate(125.746782 191.99625) scale(0.08 -0.08)">
       <defs>
        <path id="ArialMT-38" d="M 1131 2484 
Q 781 2613 612 2850 
Q 444 3088 444 3419 
Q 444 3919 803 4259 
Q 1163 4600 1759 4600 
Q 2359 4600 2725 4251 
Q 3091 3903 3091 3403 
Q 3091 3084 2923 2848 
Q 2756 2613 2416 2484 
Q 2838 2347 3058 2040 
Q 3278 1734 3278 1309 
Q 3278 722 2862 322 
Q 2447 -78 1769 -78 
Q 1091 -78 675 323 
Q 259 725 259 1325 
Q 259 1772 486 2073 
Q 713 2375 1131 2484 
z
M 1019 3438 
Q 1019 3113 1228 2906 
Q 1438 2700 1772 2700 
Q 2097 2700 2305 2904 
Q 2513 3109 2513 3406 
Q 2513 3716 2298 3927 
Q 2084 4138 1766 4138 
Q 1444 4138 1231 3931 
Q 1019 3725 1019 3438 
z
M 838 1322 
Q 838 1081 952 856 
Q 1066 631 1291 507 
Q 1516 384 1775 384 
Q 2178 384 2440 643 
Q 2703 903 2703 1303 
Q 2703 1709 2433 1975 
Q 2163 2241 1756 2241 
Q 1359 2241 1098 1978 
Q 838 1716 838 1322 
z
" transform="scale(0.015625)"/>
       </defs>
       <use xlink:href="#ArialMT-38"/>
       <use xlink:href="#ArialMT-30" x="55.615234"/>
      </g>
     </g>
    </g>
    <g id="text_4">
     <!-- Knee Extension Moment (Nm) -->
     <g transform="translate(43.726875 203.41) scale(0.08 -0.08)">
      <defs>
       <path id="ArialMT-4b" d="M 469 0 
L 469 4581 
L 1075 4581 
L 1075 2309 
L 3350 4581 
L 4172 4581 
L 2250 2725 
L 4256 0 
L 3456 0 
L 1825 2319 
L 1075 1588 
L 1075 0 
L 469 0 
z
" transform="scale(0.015625)"/>
       <path id="ArialMT-6e" d="M 422 0 
L 422 3319 
L 928 3319 
L 928 2847 
Q 1294 3394 1984 3394 
Q 2284 3394 2536 3286 
Q 2788 3178 2913 3003 
Q 3038 2828 3088 2588 
Q 3119 2431 3119 2041 
L 3119 0 
L 2556 0 
L 2556 2019 
Q 2556 2363 2490 2533 
Q 2425 2703 2258 2804 
Q 2091 2906 1866 2906 
Q 1506 2906 1245 2678 
Q 984 2450 984 1813 
L 984 0 
L 422 0 
z
" transform="scale(0.015625)"/>
       <path id="ArialMT-65" d="M 2694 1069 
L 3275 997 
Q 3138 488 2766 206 
Q 2394 -75 1816 -75 
Q 1088 -75 661 373 
Q 234 822 234 1631 
Q 234 2469 665 2931 
Q 1097 3394 1784 3394 
Q 2450 3394 2872 2941 
Q 3294 2488 3294 1666 
Q 3294 1616 3291 1516 
L 816 1516 
Q 847 969 1125 678 
Q 1403 388 1819 388 
Q 2128 388 2347 550 
Q 2566 713 2694 1069 
z
M 847 1978 
L 2700 1978 
Q 2663 2397 2488 2606 
Q 2219 2931 1791 2931 
Q 1403 2931 1139 2672 
Q 875 2413 847 1978 
z
" transform="scale(0.015625)"/>
       <path id="ArialMT-20" transform="scale(0.015625)"/>
       <path id="ArialMT-45" d="M 506 0 
L 506 4581 
L 3819 4581 
L 3819 4041 
L 1113 4041 
L 1113 2638 
L 3647 2638 
L 3647 2100 
L 1113 2100 
L 1113 541 
L 3925 541 
L 3925 0 
L 506 0 
z
" transform="scale(0.015625)"/>
       <path id="ArialMT-78" d="M 47 0 
L 1259 1725 
L 138 3319 
L 841 3319 
L 1350 2541 
Q 1494 2319 1581 2169 
Q 1719 2375 1834 2534 
L 2394 3319 
L 3066 3319 
L 1919 1756 
L 3153 0 
L 2463 0 
L 1781 1031 
L 1600 1309 
L 728 0 
L 47 0 
z
" transform="scale(0.015625)"/>
       <path id="ArialMT-74" d="M 1650 503 
L 1731 6 
Q 1494 -44 1306 -44 
Q 1000 -44 831 53 
Q 663 150 594 308 
Q 525 466 525 972 
L 525 2881 
L 113 2881 
L 113 3319 
L 525 3319 
L 525 4141 
L 1084 4478 
L 1084 3319 
L 1650 3319 
L 1650 2881 
L 1084 2881 
L 1084 941 
Q 1084 700 1114 631 
Q 1144 563 1211 522 
Q 1278 481 1403 481 
Q 1497 481 1650 503 
z
" transform="scale(0.015625)"/>
       <path id="ArialMT-73" d="M 197 991 
L 753 1078 
Q 800 744 1014 566 
Q 1228 388 1613 388 
Q 2000 388 2187 545 
Q 2375 703 2375 916 
Q 2375 1106 2209 1216 
Q 2094 1291 1634 1406 
Q 1016 1563 777 1677 
Q 538 1791 414 1992 
Q 291 2194 291 2438 
Q 291 2659 392 2848 
Q 494 3038 669 3163 
Q 800 3259 1026 3326 
Q 1253 3394 1513 3394 
Q 1903 3394 2198 3281 
Q 2494 3169 2634 2976 
Q 2775 2784 2828 2463 
L 2278 2388 
Q 2241 2644 2061 2787 
Q 1881 2931 1553 2931 
Q 1166 2931 1000 2803 
Q 834 2675 834 2503 
Q 834 2394 903 2306 
Q 972 2216 1119 2156 
Q 1203 2125 1616 2013 
Q 2213 1853 2448 1751 
Q 2684 1650 2818 1456 
Q 2953 1263 2953 975 
Q 2953 694 2789 445 
Q 2625 197 2315 61 
Q 2006 -75 1616 -75 
Q 969 -75 630 194 
Q 291 463 197 991 
z
" transform="scale(0.015625)"/>
       <path id="ArialMT-69" d="M 425 3934 
L 425 4581 
L 988 4581 
L 988 3934 
L 425 3934 
z
M 425 0 
L 425 3319 
L 988 3319 
L 988 0 
L 425 0 
z
" transform="scale(0.015625)"/>
       <path id="ArialMT-6f" d="M 213 1659 
Q 213 2581 725 3025 
Q 1153 3394 1769 3394 
Q 2453 3394 2887 2945 
Q 3322 2497 3322 1706 
Q 3322 1066 3130 698 
Q 2938 331 2570 128 
Q 2203 -75 1769 -75 
Q 1072 -75 642 372 
Q 213 819 213 1659 
z
M 791 1659 
Q 791 1022 1069 705 
Q 1347 388 1769 388 
Q 2188 388 2466 706 
Q 2744 1025 2744 1678 
Q 2744 2294 2464 2611 
Q 2184 2928 1769 2928 
Q 1347 2928 1069 2612 
Q 791 2297 791 1659 
z
" transform="scale(0.015625)"/>
       <path id="ArialMT-4d" d="M 475 0 
L 475 4581 
L 1388 4581 
L 2472 1338 
Q 2622 884 2691 659 
Q 2769 909 2934 1394 
L 4031 4581 
L 4847 4581 
L 4847 0 
L 4263 0 
L 4263 3834 
L 2931 0 
L 2384 0 
L 1059 3900 
L 1059 0 
L 475 0 
z
" transform="scale(0.015625)"/>
       <path id="ArialMT-6d" d="M 422 0 
L 422 3319 
L 925 3319 
L 925 2853 
Q 1081 3097 1340 3245 
Q 1600 3394 1931 3394 
Q 2300 3394 2536 3241 
Q 2772 3088 2869 2813 
Q 3263 3394 3894 3394 
Q 4388 3394 4653 3120 
Q 4919 2847 4919 2278 
L 4919 0 
L 4359 0 
L 4359 2091 
Q 4359 2428 4304 2576 
Q 4250 2725 4106 2815 
Q 3963 2906 3769 2906 
Q 3419 2906 3187 2673 
Q 2956 2441 2956 1928 
L 2956 0 
L 2394 0 
L 2394 2156 
Q 2394 2531 2256 2718 
Q 2119 2906 1806 2906 
Q 1569 2906 1367 2781 
Q 1166 2656 1075 2415 
Q 984 2175 984 1722 
L 984 0 
L 422 0 
z
" transform="scale(0.015625)"/>
       <path id="ArialMT-28" d="M 1497 -1347 
Q 1031 -759 709 28 
Q 388 816 388 1659 
Q 388 2403 628 3084 
Q 909 3875 1497 4659 
L 1900 4659 
Q 1522 4009 1400 3731 
Q 1209 3300 1100 2831 
Q 966 2247 966 1656 
Q 966 153 1900 -1347 
L 1497 -1347 
z
" transform="scale(0.015625)"/>
       <path id="ArialMT-4e" d="M 488 0 
L 488 4581 
L 1109 4581 
L 3516 984 
L 3516 4581 
L 4097 4581 
L 4097 0 
L 3475 0 
L 1069 3600 
L 1069 0 
L 488 0 
z
" transform="scale(0.015625)"/>
       <path id="ArialMT-29" d="M 791 -1347 
L 388 -1347 
Q 1322 153 1322 1656 
Q 1322 2244 1188 2822 
Q 1081 3291 891 3722 
Q 769 4003 388 4659 
L 791 4659 
Q 1378 3875 1659 3084 
Q 1900 2403 1900 1659 
Q 1900 816 1576 28 
Q 1253 -759 791 -1347 
z
" transform="scale(0.015625)"/>
      </defs>
      <use xlink:href="#ArialMT-4b"/>
      <use xlink:href="#ArialMT-6e" x="66.699219"/>
      <use xlink:href="#ArialMT-65" x="122.314453"/>
      <use xlink:href="#ArialMT-65" x="177.929688"/>
      <use xlink:href="#ArialMT-20" x="233.544922"/>
      <use xlink:href="#ArialMT-45" x="261.328125"/>
      <use xlink:href="#ArialMT-78" x="328.027344"/>
      <use xlink:href="#ArialMT-74" x="378.027344"/>
      <use xlink:href="#ArialMT-65" x="405.810547"/>
      <use xlink:href="#ArialMT-6e" x="461.425781"/>
      <use xlink:href="#ArialMT-73" x="517.041016"/>
      <use xlink:href="#ArialMT-69" x="567.041016"/>
      <use xlink:href="#ArialMT-6f" x="589.257812"/>
      <use xlink:href="#ArialMT-6e" x="644.873047"/>
      <use xlink:href="#ArialMT-20" x="700.488281"/>
      <use xlink:href="#ArialMT-4d" x="728.271484"/>
      <use xlink:href="#ArialMT-6f" x="811.572266"/>
      <use xlink:href="#ArialMT-6d" x="867.1875"/>
      <use xlink:href="#ArialMT-65" x="950.488281"/>
      <use xlink:href="#ArialMT-6e" x="1006.103516"/>
      <use xlink:href="#ArialMT-74" x="1061.71875"/>
      <use xlink:href="#ArialMT-20" x="1089.501953"/>
      <use xlink:href="#ArialMT-28" x="1117.285156"/>
      <use xlink:href="#ArialMT-4e" x="1150.585938"/>
      <use xlink:href="#ArialMT-6d" x="1222.802734"/>
      <use xlink:href="#ArialMT-29" x="1306.103516"/>
     </g>
    </g>
   </g>
   <g id="matplotlib.axis_2">
    <g id="ytick_1">
     <g id="line2d_4">
      <defs>
       <path id="m5e662d918d" d="M 0 0 
L -3.5 0 
" style="stroke: #000000; stroke-width: 0.8"/>
      </defs>
      <g>
       <use xlink:href="#m5e662d918d" x="41.5" y="177.125803" style="stroke: #000000; stroke-width: 0.8"/>
      </g>
     </g>
     <g id="text_5">
      <!-- −2.0 -->
      <g transform="translate(18.7075 179.988928) scale(0.08 -0.08)">
       <defs>
        <path id="ArialMT-2212" d="M 3381 1997 
L 356 1997 
L 356 2522 
L 3381 2522 
L 3381 1997 
z
" transform="scale(0.015625)"/>
        <path id="ArialMT-32" d="M 3222 541 
L 3222 0 
L 194 0 
Q 188 203 259 391 
Q 375 700 629 1000 
Q 884 1300 1366 1694 
Q 2113 2306 2375 2664 
Q 2638 3022 2638 3341 
Q 2638 3675 2398 3904 
Q 2159 4134 1775 4134 
Q 1369 4134 1125 3890 
Q 881 3647 878 3216 
L 300 3275 
Q 359 3922 746 4261 
Q 1134 4600 1788 4600 
Q 2447 4600 2831 4234 
Q 3216 3869 3216 3328 
Q 3216 3053 3103 2787 
Q 2991 2522 2730 2228 
Q 2469 1934 1863 1422 
Q 1356 997 1212 845 
Q 1069 694 975 541 
L 3222 541 
z
" transform="scale(0.015625)"/>
        <path id="ArialMT-2e" d="M 581 0 
L 581 641 
L 1222 641 
L 1222 0 
L 581 0 
z
" transform="scale(0.015625)"/>
       </defs>
       <use xlink:href="#ArialMT-2212"/>
       <use xlink:href="#ArialMT-32" x="58.398438"/>
       <use xlink:href="#ArialMT-2e" x="114.013672"/>
       <use xlink:href="#ArialMT-30" x="141.796875"/>
      </g>
     </g>
    </g>
    <g id="ytick_2">
     <g id="line2d_5">
      <g>
       <use xlink:href="#m5e662d918d" x="41.5" y="156.370195" style="stroke: #000000; stroke-width: 0.8"/>
      </g>
     </g>
     <g id="text_6">
      <!-- −1.5 -->
      <g transform="translate(18.7075 159.23332) scale(0.08 -0.08)">
       <defs>
        <path id="ArialMT-31" d="M 2384 0 
L 1822 0 
L 1822 3584 
Q 1619 3391 1289 3197 
Q 959 3003 697 2906 
L 697 3450 
Q 1169 3672 1522 3987 
Q 1875 4303 2022 4600 
L 2384 4600 
L 2384 0 
z
" transform="scale(0.015625)"/>
        <path id="ArialMT-35" d="M 266 1200 
L 856 1250 
Q 922 819 1161 601 
Q 1400 384 1738 384 
Q 2144 384 2425 690 
Q 2706 997 2706 1503 
Q 2706 1984 2436 2262 
Q 2166 2541 1728 2541 
Q 1456 2541 1237 2417 
Q 1019 2294 894 2097 
L 366 2166 
L 809 4519 
L 3088 4519 
L 3088 3981 
L 1259 3981 
L 1013 2750 
Q 1425 3038 1878 3038 
Q 2478 3038 2890 2622 
Q 3303 2206 3303 1553 
Q 3303 931 2941 478 
Q 2500 -78 1738 -78 
Q 1113 -78 717 272 
Q 322 622 266 1200 
z
" transform="scale(0.015625)"/>
       </defs>
       <use xlink:href="#ArialMT-2212"/>
       <use xlink:href="#ArialMT-31" x="58.398438"/>
       <use xlink:href="#ArialMT-2e" x="114.013672"/>
       <use xlink:href="#ArialMT-35" x="141.796875"/>
      </g>
     </g>
    </g>
    <g id="ytick_3">
     <g id="line2d_6">
      <g>
       <use xlink:href="#m5e662d918d" x="41.5" y="135.614586" style="stroke: #000000; stroke-width: 0.8"/>
      </g>
     </g>
     <g id="text_7">
      <!-- −1.0 -->
      <g transform="translate(18.7075 138.477711) scale(0.08 -0.08)">
       <use xlink:href="#ArialMT-2212"/>
       <use xlink:href="#ArialMT-31" x="58.398438"/>
       <use xlink:href="#ArialMT-2e" x="114.013672"/>
       <use xlink:href="#ArialMT-30" x="141.796875"/>
      </g>
     </g>
    </g>
    <g id="ytick_4">
     <g id="line2d_7">
      <g>
       <use xlink:href="#m5e662d918d" x="41.5" y="114.858978" style="stroke: #000000; stroke-width: 0.8"/>
      </g>
     </g>
     <g id="text_8">
      <!-- −0.5 -->
      <g transform="translate(18.7075 117.722103) scale(0.08 -0.08)">
       <use xlink:href="#ArialMT-2212"/>
       <use xlink:href="#ArialMT-30" x="58.398438"/>
       <use xlink:href="#ArialMT-2e" x="114.013672"/>
       <use xlink:href="#ArialMT-35" x="141.796875"/>
      </g>
     </g>
    </g>
    <g id="ytick_5">
     <g id="line2d_8">
      <g>
       <use xlink:href="#m5e662d918d" x="41.5" y="94.10337" style="stroke: #000000; stroke-width: 0.8"/>
      </g>
     </g>
     <g id="text_9">
      <!-- 0.0 -->
      <g transform="translate(23.38 96.966495) scale(0.08 -0.08)">
       <use xlink:href="#ArialMT-30"/>
       <use xlink:href="#ArialMT-2e" x="55.615234"/>
       <use xlink:href="#ArialMT-30" x="83.398438"/>
      </g>
     </g>
    </g>
    <g id="ytick_6">
     <g id="line2d_9">
      <g>
       <use xlink:href="#m5e662d918d" x="41.5" y="73.347762" style="stroke: #000000; stroke-width: 0.8"/>
      </g>
     </g>
     <g id="text_10">
      <!-- 0.5 -->
      <g transform="translate(23.38 76.210887) scale(0.08 -0.08)">
       <use xlink:href="#ArialMT-30"/>
       <use xlink:href="#ArialMT-2e" x="55.615234"/>
       <use xlink:href="#ArialMT-35" x="83.398438"/>
      </g>
     </g>
    </g>
    <g id="ytick_7">
     <g id="line2d_10">
      <g>
       <use xlink:href="#m5e662d918d" x="41.5" y="52.592154" style="stroke: #000000; stroke-width: 0.8"/>
      </g>
     </g>
     <g id="text_11">
      <!-- 1.0 -->
      <g transform="translate(23.38 55.455279) scale(0.08 -0.08)">
       <use xlink:href="#ArialMT-31"/>
       <use xlink:href="#ArialMT-2e" x="55.615234"/>
       <use xlink:href="#ArialMT-30" x="83.398438"/>
      </g>
     </g>
    </g>
    <g id="ytick_8">
     <g id="line2d_11">
      <g>
       <use xlink:href="#m5e662d918d" x="41.5" y="31.836546" style="stroke: #000000; stroke-width: 0.8"/>
      </g>
     </g>
     <g id="text_12">
      <!-- 1.5 -->
      <g transform="translate(23.38 34.699671) scale(0.08 -0.08)">
       <use xlink:href="#ArialMT-31"/>
       <use xlink:href="#ArialMT-2e" x="55.615234"/>
       <use xlink:href="#ArialMT-35" x="83.398438"/>
      </g>
     </g>
    </g>
    <g id="text_13">
     <!-- Volume Total (Standardized) -->
     <g transform="translate(13.02375 146.285625) rotate(-90) scale(0.08 -0.08)">
      <defs>
       <path id="ArialMT-56" d="M 1803 0 
L 28 4581 
L 684 4581 
L 1875 1253 
Q 2019 853 2116 503 
Q 2222 878 2363 1253 
L 3600 4581 
L 4219 4581 
L 2425 0 
L 1803 0 
z
" transform="scale(0.015625)"/>
       <path id="ArialMT-6c" d="M 409 0 
L 409 4581 
L 972 4581 
L 972 0 
L 409 0 
z
" transform="scale(0.015625)"/>
       <path id="ArialMT-75" d="M 2597 0 
L 2597 488 
Q 2209 -75 1544 -75 
Q 1250 -75 995 37 
Q 741 150 617 320 
Q 494 491 444 738 
Q 409 903 409 1263 
L 409 3319 
L 972 3319 
L 972 1478 
Q 972 1038 1006 884 
Q 1059 663 1231 536 
Q 1403 409 1656 409 
Q 1909 409 2131 539 
Q 2353 669 2445 892 
Q 2538 1116 2538 1541 
L 2538 3319 
L 3100 3319 
L 3100 0 
L 2597 0 
z
" transform="scale(0.015625)"/>
       <path id="ArialMT-54" d="M 1659 0 
L 1659 4041 
L 150 4041 
L 150 4581 
L 3781 4581 
L 3781 4041 
L 2266 4041 
L 2266 0 
L 1659 0 
z
" transform="scale(0.015625)"/>
       <path id="ArialMT-61" d="M 2588 409 
Q 2275 144 1986 34 
Q 1697 -75 1366 -75 
Q 819 -75 525 192 
Q 231 459 231 875 
Q 231 1119 342 1320 
Q 453 1522 633 1644 
Q 813 1766 1038 1828 
Q 1203 1872 1538 1913 
Q 2219 1994 2541 2106 
Q 2544 2222 2544 2253 
Q 2544 2597 2384 2738 
Q 2169 2928 1744 2928 
Q 1347 2928 1158 2789 
Q 969 2650 878 2297 
L 328 2372 
Q 403 2725 575 2942 
Q 747 3159 1072 3276 
Q 1397 3394 1825 3394 
Q 2250 3394 2515 3294 
Q 2781 3194 2906 3042 
Q 3031 2891 3081 2659 
Q 3109 2516 3109 2141 
L 3109 1391 
Q 3109 606 3145 398 
Q 3181 191 3288 0 
L 2700 0 
Q 2613 175 2588 409 
z
M 2541 1666 
Q 2234 1541 1622 1453 
Q 1275 1403 1131 1340 
Q 988 1278 909 1158 
Q 831 1038 831 891 
Q 831 666 1001 516 
Q 1172 366 1500 366 
Q 1825 366 2078 508 
Q 2331 650 2450 897 
Q 2541 1088 2541 1459 
L 2541 1666 
z
" transform="scale(0.015625)"/>
       <path id="ArialMT-53" d="M 288 1472 
L 859 1522 
Q 900 1178 1048 958 
Q 1197 738 1509 602 
Q 1822 466 2213 466 
Q 2559 466 2825 569 
Q 3091 672 3220 851 
Q 3350 1031 3350 1244 
Q 3350 1459 3225 1620 
Q 3100 1781 2813 1891 
Q 2628 1963 1997 2114 
Q 1366 2266 1113 2400 
Q 784 2572 623 2826 
Q 463 3081 463 3397 
Q 463 3744 659 4045 
Q 856 4347 1234 4503 
Q 1613 4659 2075 4659 
Q 2584 4659 2973 4495 
Q 3363 4331 3572 4012 
Q 3781 3694 3797 3291 
L 3216 3247 
Q 3169 3681 2898 3903 
Q 2628 4125 2100 4125 
Q 1550 4125 1298 3923 
Q 1047 3722 1047 3438 
Q 1047 3191 1225 3031 
Q 1400 2872 2139 2705 
Q 2878 2538 3153 2413 
Q 3553 2228 3743 1945 
Q 3934 1663 3934 1294 
Q 3934 928 3725 604 
Q 3516 281 3123 101 
Q 2731 -78 2241 -78 
Q 1619 -78 1198 103 
Q 778 284 539 648 
Q 300 1013 288 1472 
z
" transform="scale(0.015625)"/>
       <path id="ArialMT-64" d="M 2575 0 
L 2575 419 
Q 2259 -75 1647 -75 
Q 1250 -75 917 144 
Q 584 363 401 755 
Q 219 1147 219 1656 
Q 219 2153 384 2558 
Q 550 2963 881 3178 
Q 1213 3394 1622 3394 
Q 1922 3394 2156 3267 
Q 2391 3141 2538 2938 
L 2538 4581 
L 3097 4581 
L 3097 0 
L 2575 0 
z
M 797 1656 
Q 797 1019 1065 703 
Q 1334 388 1700 388 
Q 2069 388 2326 689 
Q 2584 991 2584 1609 
Q 2584 2291 2321 2609 
Q 2059 2928 1675 2928 
Q 1300 2928 1048 2622 
Q 797 2316 797 1656 
z
" transform="scale(0.015625)"/>
       <path id="ArialMT-72" d="M 416 0 
L 416 3319 
L 922 3319 
L 922 2816 
Q 1116 3169 1280 3281 
Q 1444 3394 1641 3394 
Q 1925 3394 2219 3213 
L 2025 2691 
Q 1819 2813 1613 2813 
Q 1428 2813 1281 2702 
Q 1134 2591 1072 2394 
Q 978 2094 978 1738 
L 978 0 
L 416 0 
z
" transform="scale(0.015625)"/>
       <path id="ArialMT-7a" d="M 125 0 
L 125 456 
L 2238 2881 
Q 1878 2863 1603 2863 
L 250 2863 
L 250 3319 
L 2963 3319 
L 2963 2947 
L 1166 841 
L 819 456 
Q 1197 484 1528 484 
L 3063 484 
L 3063 0 
L 125 0 
z
" transform="scale(0.015625)"/>
      </defs>
      <use xlink:href="#ArialMT-56"/>
      <use xlink:href="#ArialMT-6f" x="61.199219"/>
      <use xlink:href="#ArialMT-6c" x="116.814453"/>
      <use xlink:href="#ArialMT-75" x="139.03125"/>
      <use xlink:href="#ArialMT-6d" x="194.646484"/>
      <use xlink:href="#ArialMT-65" x="277.947266"/>
      <use xlink:href="#ArialMT-20" x="333.5625"/>
      <use xlink:href="#ArialMT-54" x="359.595703"/>
      <use xlink:href="#ArialMT-6f" x="409.554688"/>
      <use xlink:href="#ArialMT-74" x="465.169922"/>
      <use xlink:href="#ArialMT-61" x="492.953125"/>
      <use xlink:href="#ArialMT-6c" x="548.568359"/>
      <use xlink:href="#ArialMT-20" x="570.785156"/>
      <use xlink:href="#ArialMT-28" x="598.568359"/>
      <use xlink:href="#ArialMT-53" x="631.869141"/>
      <use xlink:href="#ArialMT-74" x="698.568359"/>
      <use xlink:href="#ArialMT-61" x="726.351562"/>
      <use xlink:href="#ArialMT-6e" x="781.966797"/>
      <use xlink:href="#ArialMT-64" x="837.582031"/>
      <use xlink:href="#ArialMT-61" x="893.197266"/>
      <use xlink:href="#ArialMT-72" x="948.8125"/>
      <use xlink:href="#ArialMT-64" x="982.113281"/>
      <use xlink:href="#ArialMT-69" x="1037.728516"/>
      <use xlink:href="#ArialMT-7a" x="1059.945312"/>
      <use xlink:href="#ArialMT-65" x="1109.945312"/>
      <use xlink:href="#ArialMT-64" x="1165.560547"/>
      <use xlink:href="#ArialMT-29" x="1221.175781"/>
     </g>
    </g>
   </g>
   <g id="line2d_12">
    <path d="M 46.572727 137.3154 
L 47.597521 136.366694 
L 48.622314 135.417988 
L 49.647107 134.469283 
L 50.671901 133.520577 
L 51.696694 132.571871 
L 52.721488 131.623165 
L 53.746281 130.67446 
L 54.771074 129.725754 
L 55.795868 128.777048 
L 56.820661 127.828342 
L 57.845455 126.879637 
L 58.870248 125.930931 
L 59.895041 124.982225 
L 60.919835 124.033519 
L 61.944628 123.084814 
L 62.969421 122.136108 
L 63.994215 121.187402 
L 65.019008 120.238696 
L 66.043802 119.28999 
L 67.068595 118.341285 
L 68.093388 117.392579 
L 69.118182 116.443873 
L 70.142975 115.495167 
L 71.167769 114.546462 
L 72.192562 113.597756 
L 73.217355 112.64905 
L 74.242149 111.700344 
L 75.266942 110.751639 
L 76.291736 109.802933 
L 77.316529 108.854227 
L 78.341322 107.905521 
L 79.366116 106.956816 
L 80.390909 106.00811 
L 81.415702 105.059404 
L 82.440496 104.110698 
L 83.465289 103.161993 
L 84.490083 102.213287 
L 85.514876 101.264581 
L 86.539669 100.315875 
L 87.564463 99.36717 
L 88.589256 98.418464 
L 89.61405 97.469758 
L 90.638843 96.521052 
L 91.663636 95.572346 
L 92.68843 94.623641 
L 93.713223 93.674935 
L 94.738017 92.726229 
L 95.76281 91.777523 
L 96.787603 90.828818 
L 97.812397 89.880112 
L 98.83719 88.931406 
L 99.861983 87.9827 
L 100.886777 87.033995 
L 101.91157 86.085289 
L 102.936364 85.136583 
L 103.961157 84.187877 
L 104.98595 83.239172 
L 106.010744 82.290466 
L 107.035537 81.34176 
L 108.060331 80.393054 
L 109.085124 79.444349 
L 110.109917 78.495643 
L 111.134711 77.546937 
L 112.159504 76.598231 
L 113.184298 75.649526 
L 114.209091 74.70082 
L 115.233884 73.752114 
L 116.258678 72.803408 
L 117.283471 71.854702 
L 118.308264 70.905997 
L 119.333058 69.957291 
L 120.357851 69.008585 
L 121.382645 68.059879 
L 122.407438 67.111174 
L 123.432231 66.162468 
L 124.457025 65.213762 
L 125.481818 64.265056 
L 126.506612 63.316351 
L 127.531405 62.367645 
L 128.556198 61.418939 
L 129.580992 60.470233 
L 130.605785 59.521528 
L 131.630579 58.572822 
L 132.655372 57.624116 
L 133.680165 56.67541 
L 134.704959 55.726705 
L 135.729752 54.777999 
L 136.754545 53.829293 
L 137.779339 52.880587 
L 138.804132 51.931882 
L 139.828926 50.983176 
L 140.853719 50.03447 
L 141.878512 49.085764 
L 142.903306 48.137058 
L 143.928099 47.188353 
L 144.952893 46.239647 
L 145.977686 45.290941 
L 147.002479 44.342235 
L 148.027273 43.39353 
" clip-path="url(#paefa491307)" style="fill: none; stroke: #000000; stroke-width: 2; stroke-linecap: square"/>
   </g>
   <g id="patch_3">
    <path d="M 41.5 179.27 
L 41.5 12.95 
" style="fill: none; stroke: #000000; stroke-width: 0.8; stroke-linejoin: miter; stroke-linecap: square"/>
   </g>
   <g id="patch_4">
    <path d="M 41.5 179.27 
L 153.1 179.27 
" style="fill: none; stroke: #000000; stroke-width: 0.8; stroke-linejoin: miter; stroke-linecap: square"/>
   </g>
   <g id="text_14">
    <!-- r=0.63, p=.004 -->
    <g transform="translate(71.28 12.95) scale(0.08 -0.08)">
     <defs>
      <path id="ArialMT-3d" d="M 3381 2694 
L 356 2694 
L 356 3219 
L 3381 3219 
L 3381 2694 
z
M 3381 1303 
L 356 1303 
L 356 1828 
L 3381 1828 
L 3381 1303 
z
" transform="scale(0.015625)"/>
      <path id="ArialMT-33" d="M 269 1209 
L 831 1284 
Q 928 806 1161 595 
Q 1394 384 1728 384 
Q 2125 384 2398 659 
Q 2672 934 2672 1341 
Q 2672 1728 2419 1979 
Q 2166 2231 1775 2231 
Q 1616 2231 1378 2169 
L 1441 2663 
Q 1497 2656 1531 2656 
Q 1891 2656 2178 2843 
Q 2466 3031 2466 3422 
Q 2466 3731 2256 3934 
Q 2047 4138 1716 4138 
Q 1388 4138 1169 3931 
Q 950 3725 888 3313 
L 325 3413 
Q 428 3978 793 4289 
Q 1159 4600 1703 4600 
Q 2078 4600 2393 4439 
Q 2709 4278 2876 4000 
Q 3044 3722 3044 3409 
Q 3044 3113 2884 2869 
Q 2725 2625 2413 2481 
Q 2819 2388 3044 2092 
Q 3269 1797 3269 1353 
Q 3269 753 2831 336 
Q 2394 -81 1725 -81 
Q 1122 -81 723 278 
Q 325 638 269 1209 
z
" transform="scale(0.015625)"/>
      <path id="ArialMT-2c" d="M 569 0 
L 569 641 
L 1209 641 
L 1209 0 
Q 1209 -353 1084 -570 
Q 959 -788 688 -906 
L 531 -666 
Q 709 -588 793 -436 
Q 878 -284 888 0 
L 569 0 
z
" transform="scale(0.015625)"/>
      <path id="ArialMT-70" d="M 422 -1272 
L 422 3319 
L 934 3319 
L 934 2888 
Q 1116 3141 1344 3267 
Q 1572 3394 1897 3394 
Q 2322 3394 2647 3175 
Q 2972 2956 3137 2557 
Q 3303 2159 3303 1684 
Q 3303 1175 3120 767 
Q 2938 359 2589 142 
Q 2241 -75 1856 -75 
Q 1575 -75 1351 44 
Q 1128 163 984 344 
L 984 -1272 
L 422 -1272 
z
M 931 1641 
Q 931 1000 1190 694 
Q 1450 388 1819 388 
Q 2194 388 2461 705 
Q 2728 1022 2728 1688 
Q 2728 2322 2467 2637 
Q 2206 2953 1844 2953 
Q 1484 2953 1207 2617 
Q 931 2281 931 1641 
z
" transform="scale(0.015625)"/>
     </defs>
     <use xlink:href="#ArialMT-72"/>
     <use xlink:href="#ArialMT-3d" x="33.300781"/>
     <use xlink:href="#ArialMT-30" x="91.699219"/>
     <use xlink:href="#ArialMT-2e" x="147.314453"/>
     <use xlink:href="#ArialMT-36" x="175.097656"/>
     <use xlink:href="#ArialMT-33" x="230.712891"/>
     <use xlink:href="#ArialMT-2c" x="286.328125"/>
     <use xlink:href="#ArialMT-20" x="314.111328"/>
     <use xlink:href="#ArialMT-70" x="341.894531"/>
     <use xlink:href="#ArialMT-3d" x="397.509766"/>
     <use xlink:href="#ArialMT-2e" x="455.908203"/>
     <use xlink:href="#ArialMT-30" x="483.691406"/>
     <use xlink:href="#ArialMT-30" x="539.306641"/>
     <use xlink:href="#ArialMT-34" x="594.921875"/>
    </g>
   </g>
  </g>
  <g id="axes_2">
   <g id="patch_5">
    <path d="M 186.58 179.27 
L 298.18 179.27 
L 298.18 12.95 
L 186.58 12.95 
z
" style="fill: #ffffff"/>
   </g>
   <g id="PathCollection_2">
    <g clip-path="url(#p536f36e76d)">
     <use xlink:href="#m766ea24cc1" x="242.298129" y="93.776929" style="fill: #28aeed; fill-opacity: 0.8; stroke: #28aeed; stroke-opacity: 0.8"/>
     <use xlink:href="#m766ea24cc1" x="223.998269" y="108.586449" style="fill: #28aeed; fill-opacity: 0.8; stroke: #28aeed; stroke-opacity: 0.8"/>
     <use xlink:href="#m766ea24cc1" x="286.321853" y="125.644945" style="fill: #28aeed; fill-opacity: 0.8; stroke: #28aeed; stroke-opacity: 0.8"/>
     <use xlink:href="#m766ea24cc1" x="293.107273" y="20.51" style="fill: #28aeed; fill-opacity: 0.8; stroke: #28aeed; stroke-opacity: 0.8"/>
     <use xlink:href="#m766ea24cc1" x="223.44588" y="100.169113" style="fill: #28aeed; fill-opacity: 0.8; stroke: #28aeed; stroke-opacity: 0.8"/>
     <use xlink:href="#m766ea24cc1" x="214.383246" y="107.158576" style="fill: #28aeed; fill-opacity: 0.8; stroke: #28aeed; stroke-opacity: 0.8"/>
     <use xlink:href="#m766ea24cc1" x="229.04579" y="106.04625" style="fill: #28aeed; fill-opacity: 0.8; stroke: #28aeed; stroke-opacity: 0.8"/>
     <use xlink:href="#m766ea24cc1" x="246.248327" y="123.968125" style="fill: #28aeed; fill-opacity: 0.8; stroke: #28aeed; stroke-opacity: 0.8"/>
     <use xlink:href="#m766ea24cc1" x="265.760973" y="59.953064" style="fill: #28aeed; fill-opacity: 0.8; stroke: #28aeed; stroke-opacity: 0.8"/>
     <use xlink:href="#m766ea24cc1" x="211.877351" y="120.988505" style="fill: #28aeed; fill-opacity: 0.8; stroke: #28aeed; stroke-opacity: 0.8"/>
     <use xlink:href="#m766ea24cc1" x="276.259176" y="97.48885" style="fill: #28aeed; fill-opacity: 0.8; stroke: #28aeed; stroke-opacity: 0.8"/>
     <use xlink:href="#m766ea24cc1" x="218.225537" y="148.992712" style="fill: #28aeed; fill-opacity: 0.8; stroke: #28aeed; stroke-opacity: 0.8"/>
     <use xlink:href="#m766ea24cc1" x="224.81045" y="168.922899" style="fill: #28aeed; fill-opacity: 0.8; stroke: #28aeed; stroke-opacity: 0.8"/>
     <use xlink:href="#m766ea24cc1" x="191.652727" y="140.297446" style="fill: #28aeed; fill-opacity: 0.8; stroke: #28aeed; stroke-opacity: 0.8"/>
     <use xlink:href="#m766ea24cc1" x="227.807864" y="162.947643" style="fill: #28aeed; fill-opacity: 0.8; stroke: #28aeed; stroke-opacity: 0.8"/>
     <use xlink:href="#m766ea24cc1" x="267.069801" y="101.477397" style="fill: #28aeed; fill-opacity: 0.8; stroke: #28aeed; stroke-opacity: 0.8"/>
     <use xlink:href="#m766ea24cc1" x="193.741012" y="133.222149" style="fill: #28aeed; fill-opacity: 0.8; stroke: #28aeed; stroke-opacity: 0.8"/>
     <use xlink:href="#m766ea24cc1" x="247.565504" y="101.235291" style="fill: #28aeed; fill-opacity: 0.8; stroke: #28aeed; stroke-opacity: 0.8"/>
     <use xlink:href="#m766ea24cc1" x="244.658947" y="89.340145" style="fill: #28aeed; fill-opacity: 0.8; stroke: #28aeed; stroke-opacity: 0.8"/>
    </g>
   </g>
   <g id="PolyCollection_2">
    <path d="M 191.652727 125.661662 
L 191.652727 171.71 
L 192.677521 170.361733 
L 193.702314 169.013409 
L 194.727107 167.720585 
L 195.751901 166.434183 
L 196.776694 165.061988 
L 197.801488 163.752272 
L 198.826281 162.412672 
L 199.851074 161.302401 
L 200.875868 159.998647 
L 201.900661 158.811651 
L 202.925455 157.394477 
L 203.950248 156.116184 
L 204.975041 154.834953 
L 205.999835 153.553721 
L 207.024628 152.439609 
L 208.049421 151.217965 
L 209.074215 149.880126 
L 210.099008 148.652493 
L 211.123802 147.457838 
L 212.148595 146.396886 
L 213.173388 145.521656 
L 214.198182 144.550419 
L 215.222975 143.631575 
L 216.247769 142.714678 
L 217.272562 141.63628 
L 218.297355 140.430202 
L 219.322149 139.194996 
L 220.346942 138.177079 
L 221.371736 137.423595 
L 222.396529 136.10054 
L 223.421322 135.070799 
L 224.446116 134.294971 
L 225.470909 133.45003 
L 226.495702 132.748169 
L 227.520496 132.093409 
L 228.545289 131.416901 
L 229.570083 130.287816 
L 230.594876 129.187552 
L 231.619669 128.298069 
L 232.644463 127.758973 
L 233.669256 127.071347 
L 234.69405 126.456953 
L 235.718843 125.770022 
L 236.743636 125.084342 
L 237.76843 124.45575 
L 238.793223 123.820137 
L 239.818017 123.290132 
L 240.84281 122.918665 
L 241.867603 122.25659 
L 242.892397 121.678464 
L 243.91719 121.031583 
L 244.941983 120.34675 
L 245.966777 119.938005 
L 246.99157 119.464805 
L 248.016364 119.058631 
L 249.041157 118.572504 
L 250.06595 118.340211 
L 251.090744 117.952561 
L 252.115537 117.630468 
L 253.140331 117.322269 
L 254.165124 116.870036 
L 255.189917 116.417803 
L 256.214711 116.126862 
L 257.239504 115.912127 
L 258.264298 115.697391 
L 259.289091 115.482655 
L 260.313884 115.26792 
L 261.338678 115.053184 
L 262.363471 114.815515 
L 263.388264 114.427989 
L 264.413058 114.040464 
L 265.437851 113.722718 
L 266.462645 113.518895 
L 267.487438 113.315072 
L 268.512231 113.11125 
L 269.537025 112.78772 
L 270.561818 112.430412 
L 271.586612 112.021406 
L 272.611405 111.6124 
L 273.636198 111.203394 
L 274.660992 110.794388 
L 275.685785 110.385382 
L 276.710579 109.976376 
L 277.735372 109.623989 
L 278.760165 109.599476 
L 279.784959 109.249136 
L 280.809752 108.903994 
L 281.834545 108.660263 
L 282.859339 108.415297 
L 283.884132 108.170332 
L 284.908926 107.925366 
L 285.933719 107.6804 
L 286.958512 107.434899 
L 287.983306 107.187418 
L 289.008099 106.939936 
L 290.032893 106.692455 
L 291.057686 106.444974 
L 292.082479 106.147671 
L 293.107273 105.769543 
L 293.107273 38.650943 
L 293.107273 38.650943 
L 292.082479 39.815276 
L 291.057686 40.931687 
L 290.032893 42.232602 
L 289.008099 43.367395 
L 287.983306 44.588685 
L 286.958512 45.839144 
L 285.933719 47.082271 
L 284.908926 48.413639 
L 283.884132 49.634909 
L 282.859339 50.954715 
L 281.834545 52.172017 
L 280.809752 53.306828 
L 279.784959 54.552713 
L 278.760165 55.723335 
L 277.735372 57.027689 
L 276.710579 58.343059 
L 275.685785 59.551808 
L 274.660992 60.760666 
L 273.636198 61.969524 
L 272.611405 63.179774 
L 271.586612 64.392208 
L 270.561818 65.555985 
L 269.537025 66.624352 
L 268.512231 67.739008 
L 267.487438 69.033312 
L 266.462645 70.294839 
L 265.437851 71.545172 
L 264.413058 72.618158 
L 263.388264 73.742888 
L 262.363471 74.866575 
L 261.338678 75.912639 
L 260.313884 77.210033 
L 259.289091 78.398688 
L 258.264298 79.57545 
L 257.239504 80.694145 
L 256.214711 81.702546 
L 255.189917 82.68722 
L 254.165124 83.973835 
L 253.140331 84.987751 
L 252.115537 86.09098 
L 251.090744 87.13085 
L 250.06595 88.133377 
L 249.041157 89.158209 
L 248.016364 90.162778 
L 246.99157 91.174305 
L 245.966777 92.169989 
L 244.941983 93.140536 
L 243.91719 94.082803 
L 242.892397 95.171155 
L 241.867603 96.186884 
L 240.84281 97.190344 
L 239.818017 98.178938 
L 238.793223 99.120968 
L 237.76843 100.078413 
L 236.743636 100.910179 
L 235.718843 101.875755 
L 234.69405 102.890684 
L 233.669256 103.895625 
L 232.644463 104.736062 
L 231.619669 105.698763 
L 230.594876 106.527079 
L 229.570083 107.305322 
L 228.545289 108.079068 
L 227.520496 109.009972 
L 226.495702 109.713618 
L 225.470909 110.524838 
L 224.446116 111.277723 
L 223.421322 112.015271 
L 222.396529 112.611938 
L 221.371736 113.091194 
L 220.346942 113.529086 
L 219.322149 114.077612 
L 218.297355 114.476283 
L 217.272562 115.262296 
L 216.247769 115.764479 
L 215.222975 116.228951 
L 214.198182 116.876181 
L 213.173388 117.262832 
L 212.148595 117.569251 
L 211.123802 117.905235 
L 210.099008 118.41369 
L 209.074215 118.794504 
L 208.049421 119.359214 
L 207.024628 119.844614 
L 205.999835 120.253439 
L 204.975041 120.887513 
L 203.950248 121.447233 
L 202.925455 121.763852 
L 201.900661 122.192315 
L 200.875868 122.387941 
L 199.851074 122.693183 
L 198.826281 123.006613 
L 197.801488 123.322348 
L 196.776694 123.636418 
L 195.751901 124.035004 
L 194.727107 124.472875 
L 193.702314 124.88856 
L 192.677521 125.313478 
L 191.652727 125.661662 
z
" clip-path="url(#p536f36e76d)" style="fill-opacity: 0.15"/>
   </g>
   <g id="matplotlib.axis_3">
    <g id="xtick_4">
     <g id="line2d_13">
      <g>
       <use xlink:href="#m0589e8ab17" x="212.773843" y="179.27" style="stroke: #000000; stroke-width: 0.8"/>
      </g>
     </g>
     <g id="text_15">
      <!-- 40 -->
      <g transform="translate(208.325093 191.99625) scale(0.08 -0.08)">
       <use xlink:href="#ArialMT-34"/>
       <use xlink:href="#ArialMT-30" x="55.615234"/>
      </g>
     </g>
    </g>
    <g id="xtick_5">
     <g id="line2d_14">
      <g>
       <use xlink:href="#m0589e8ab17" x="244.024688" y="179.27" style="stroke: #000000; stroke-width: 0.8"/>
      </g>
     </g>
     <g id="text_16">
      <!-- 60 -->
      <g transform="translate(239.575938 191.99625) scale(0.08 -0.08)">
       <use xlink:href="#ArialMT-36"/>
       <use xlink:href="#ArialMT-30" x="55.615234"/>
      </g>
     </g>
    </g>
    <g id="xtick_6">
     <g id="line2d_15">
      <g>
       <use xlink:href="#m0589e8ab17" x="275.275532" y="179.27" style="stroke: #000000; stroke-width: 0.8"/>
      </g>
     </g>
     <g id="text_17">
      <!-- 80 -->
      <g transform="translate(270.826782 191.99625) scale(0.08 -0.08)">
       <use xlink:href="#ArialMT-38"/>
       <use xlink:href="#ArialMT-30" x="55.615234"/>
      </g>
     </g>
    </g>
    <g id="text_18">
     <!-- Knee Extension Moment (Nm) -->
     <g transform="translate(188.806875 203.41) scale(0.08 -0.08)">
      <use xlink:href="#ArialMT-4b"/>
      <use xlink:href="#ArialMT-6e" x="66.699219"/>
      <use xlink:href="#ArialMT-65" x="122.314453"/>
      <use xlink:href="#ArialMT-65" x="177.929688"/>
      <use xlink:href="#ArialMT-20" x="233.544922"/>
      <use xlink:href="#ArialMT-45" x="261.328125"/>
      <use xlink:href="#ArialMT-78" x="328.027344"/>
      <use xlink:href="#ArialMT-74" x="378.027344"/>
      <use xlink:href="#ArialMT-65" x="405.810547"/>
      <use xlink:href="#ArialMT-6e" x="461.425781"/>
      <use xlink:href="#ArialMT-73" x="517.041016"/>
      <use xlink:href="#ArialMT-69" x="567.041016"/>
      <use xlink:href="#ArialMT-6f" x="589.257812"/>
      <use xlink:href="#ArialMT-6e" x="644.873047"/>
      <use xlink:href="#ArialMT-20" x="700.488281"/>
      <use xlink:href="#ArialMT-4d" x="728.271484"/>
      <use xlink:href="#ArialMT-6f" x="811.572266"/>
      <use xlink:href="#ArialMT-6d" x="867.1875"/>
      <use xlink:href="#ArialMT-65" x="950.488281"/>
      <use xlink:href="#ArialMT-6e" x="1006.103516"/>
      <use xlink:href="#ArialMT-74" x="1061.71875"/>
      <use xlink:href="#ArialMT-20" x="1089.501953"/>
      <use xlink:href="#ArialMT-28" x="1117.285156"/>
      <use xlink:href="#ArialMT-4e" x="1150.585938"/>
      <use xlink:href="#ArialMT-6d" x="1222.802734"/>
      <use xlink:href="#ArialMT-29" x="1306.103516"/>
     </g>
    </g>
   </g>
   <g id="matplotlib.axis_4">
    <g id="ytick_9">
     <g id="line2d_16">
      <g>
       <use xlink:href="#m5e662d918d" x="186.58" y="178.247423" style="stroke: #000000; stroke-width: 0.8"/>
      </g>
     </g>
     <g id="text_19">
      <!-- −2 -->
      <g transform="translate(170.45875 181.110548) scale(0.08 -0.08)">
       <use xlink:href="#ArialMT-2212"/>
       <use xlink:href="#ArialMT-32" x="58.398438"/>
      </g>
     </g>
    </g>
    <g id="ytick_10">
     <g id="line2d_17">
      <g>
       <use xlink:href="#m5e662d918d" x="186.58" y="144.669145" style="stroke: #000000; stroke-width: 0.8"/>
      </g>
     </g>
     <g id="text_20">
      <!-- −1 -->
      <g transform="translate(170.45875 147.53227) scale(0.08 -0.08)">
       <use xlink:href="#ArialMT-2212"/>
       <use xlink:href="#ArialMT-31" x="58.398438"/>
      </g>
     </g>
    </g>
    <g id="ytick_11">
     <g id="line2d_18">
      <g>
       <use xlink:href="#m5e662d918d" x="186.58" y="111.090868" style="stroke: #000000; stroke-width: 0.8"/>
      </g>
     </g>
     <g id="text_21">
      <!-- 0 -->
      <g transform="translate(175.13125 113.953993) scale(0.08 -0.08)">
       <use xlink:href="#ArialMT-30"/>
      </g>
     </g>
    </g>
    <g id="ytick_12">
     <g id="line2d_19">
      <g>
       <use xlink:href="#m5e662d918d" x="186.58" y="77.51259" style="stroke: #000000; stroke-width: 0.8"/>
      </g>
     </g>
     <g id="text_22">
      <!-- 1 -->
      <g transform="translate(175.13125 80.375715) scale(0.08 -0.08)">
       <use xlink:href="#ArialMT-31"/>
      </g>
     </g>
    </g>
    <g id="ytick_13">
     <g id="line2d_20">
      <g>
       <use xlink:href="#m5e662d918d" x="186.58" y="43.934313" style="stroke: #000000; stroke-width: 0.8"/>
      </g>
     </g>
     <g id="text_23">
      <!-- 2 -->
      <g transform="translate(175.13125 46.797438) scale(0.08 -0.08)">
       <use xlink:href="#ArialMT-32"/>
      </g>
     </g>
    </g>
    <g id="text_24">
     <!-- Radial Diffusivity (Standardized) -->
     <g transform="translate(164.775 152.949375) rotate(-90) scale(0.08 -0.08)">
      <defs>
       <path id="ArialMT-52" d="M 503 0 
L 503 4581 
L 2534 4581 
Q 3147 4581 3465 4457 
Q 3784 4334 3975 4021 
Q 4166 3709 4166 3331 
Q 4166 2844 3850 2509 
Q 3534 2175 2875 2084 
Q 3116 1969 3241 1856 
Q 3506 1613 3744 1247 
L 4541 0 
L 3778 0 
L 3172 953 
Q 2906 1366 2734 1584 
Q 2563 1803 2427 1890 
Q 2291 1978 2150 2013 
Q 2047 2034 1813 2034 
L 1109 2034 
L 1109 0 
L 503 0 
z
M 1109 2559 
L 2413 2559 
Q 2828 2559 3062 2645 
Q 3297 2731 3419 2920 
Q 3541 3109 3541 3331 
Q 3541 3656 3305 3865 
Q 3069 4075 2559 4075 
L 1109 4075 
L 1109 2559 
z
" transform="scale(0.015625)"/>
       <path id="ArialMT-44" d="M 494 0 
L 494 4581 
L 2072 4581 
Q 2606 4581 2888 4516 
Q 3281 4425 3559 4188 
Q 3922 3881 4101 3404 
Q 4281 2928 4281 2316 
Q 4281 1794 4159 1391 
Q 4038 988 3847 723 
Q 3656 459 3429 307 
Q 3203 156 2883 78 
Q 2563 0 2147 0 
L 494 0 
z
M 1100 541 
L 2078 541 
Q 2531 541 2789 625 
Q 3047 709 3200 863 
Q 3416 1078 3536 1442 
Q 3656 1806 3656 2325 
Q 3656 3044 3420 3430 
Q 3184 3816 2847 3947 
Q 2603 4041 2063 4041 
L 1100 4041 
L 1100 541 
z
" transform="scale(0.015625)"/>
       <path id="ArialMT-66" d="M 556 0 
L 556 2881 
L 59 2881 
L 59 3319 
L 556 3319 
L 556 3672 
Q 556 4006 616 4169 
Q 697 4388 901 4523 
Q 1106 4659 1475 4659 
Q 1713 4659 2000 4603 
L 1916 4113 
Q 1741 4144 1584 4144 
Q 1328 4144 1222 4034 
Q 1116 3925 1116 3625 
L 1116 3319 
L 1763 3319 
L 1763 2881 
L 1116 2881 
L 1116 0 
L 556 0 
z
" transform="scale(0.015625)"/>
       <path id="ArialMT-76" d="M 1344 0 
L 81 3319 
L 675 3319 
L 1388 1331 
Q 1503 1009 1600 663 
Q 1675 925 1809 1294 
L 2547 3319 
L 3125 3319 
L 1869 0 
L 1344 0 
z
" transform="scale(0.015625)"/>
       <path id="ArialMT-79" d="M 397 -1278 
L 334 -750 
Q 519 -800 656 -800 
Q 844 -800 956 -737 
Q 1069 -675 1141 -563 
Q 1194 -478 1313 -144 
Q 1328 -97 1363 -6 
L 103 3319 
L 709 3319 
L 1400 1397 
Q 1534 1031 1641 628 
Q 1738 1016 1872 1384 
L 2581 3319 
L 3144 3319 
L 1881 -56 
Q 1678 -603 1566 -809 
Q 1416 -1088 1222 -1217 
Q 1028 -1347 759 -1347 
Q 597 -1347 397 -1278 
z
" transform="scale(0.015625)"/>
      </defs>
      <use xlink:href="#ArialMT-52"/>
      <use xlink:href="#ArialMT-61" x="72.216797"/>
      <use xlink:href="#ArialMT-64" x="127.832031"/>
      <use xlink:href="#ArialMT-69" x="183.447266"/>
      <use xlink:href="#ArialMT-61" x="205.664062"/>
      <use xlink:href="#ArialMT-6c" x="261.279297"/>
      <use xlink:href="#ArialMT-20" x="283.496094"/>
      <use xlink:href="#ArialMT-44" x="311.279297"/>
      <use xlink:href="#ArialMT-69" x="383.496094"/>
      <use xlink:href="#ArialMT-66" x="405.712891"/>
      <use xlink:href="#ArialMT-66" x="431.746094"/>
      <use xlink:href="#ArialMT-75" x="459.529297"/>
      <use xlink:href="#ArialMT-73" x="515.144531"/>
      <use xlink:href="#ArialMT-69" x="565.144531"/>
      <use xlink:href="#ArialMT-76" x="587.361328"/>
      <use xlink:href="#ArialMT-69" x="637.361328"/>
      <use xlink:href="#ArialMT-74" x="659.578125"/>
      <use xlink:href="#ArialMT-79" x="687.361328"/>
      <use xlink:href="#ArialMT-20" x="737.361328"/>
      <use xlink:href="#ArialMT-28" x="765.144531"/>
      <use xlink:href="#ArialMT-53" x="798.445312"/>
      <use xlink:href="#ArialMT-74" x="865.144531"/>
      <use xlink:href="#ArialMT-61" x="892.927734"/>
      <use xlink:href="#ArialMT-6e" x="948.542969"/>
      <use xlink:href="#ArialMT-64" x="1004.158203"/>
      <use xlink:href="#ArialMT-61" x="1059.773438"/>
      <use xlink:href="#ArialMT-72" x="1115.388672"/>
      <use xlink:href="#ArialMT-64" x="1148.689453"/>
      <use xlink:href="#ArialMT-69" x="1204.304688"/>
      <use xlink:href="#ArialMT-7a" x="1226.521484"/>
      <use xlink:href="#ArialMT-65" x="1276.521484"/>
      <use xlink:href="#ArialMT-64" x="1332.136719"/>
      <use xlink:href="#ArialMT-29" x="1387.751953"/>
     </g>
    </g>
   </g>
   <g id="line2d_21">
    <path d="M 191.652727 144.973262 
L 192.677521 144.229385 
L 193.702314 143.485508 
L 194.727107 142.741631 
L 195.751901 141.997755 
L 196.776694 141.253878 
L 197.801488 140.510001 
L 198.826281 139.766125 
L 199.851074 139.022248 
L 200.875868 138.278371 
L 201.900661 137.534495 
L 202.925455 136.790618 
L 203.950248 136.046741 
L 204.975041 135.302864 
L 205.999835 134.558988 
L 207.024628 133.815111 
L 208.049421 133.071234 
L 209.074215 132.327358 
L 210.099008 131.583481 
L 211.123802 130.839604 
L 212.148595 130.095728 
L 213.173388 129.351851 
L 214.198182 128.607974 
L 215.222975 127.864097 
L 216.247769 127.120221 
L 217.272562 126.376344 
L 218.297355 125.632467 
L 219.322149 124.888591 
L 220.346942 124.144714 
L 221.371736 123.400837 
L 222.396529 122.656961 
L 223.421322 121.913084 
L 224.446116 121.169207 
L 225.470909 120.42533 
L 226.495702 119.681454 
L 227.520496 118.937577 
L 228.545289 118.1937 
L 229.570083 117.449824 
L 230.594876 116.705947 
L 231.619669 115.96207 
L 232.644463 115.218194 
L 233.669256 114.474317 
L 234.69405 113.73044 
L 235.718843 112.986563 
L 236.743636 112.242687 
L 237.76843 111.49881 
L 238.793223 110.754933 
L 239.818017 110.011057 
L 240.84281 109.26718 
L 241.867603 108.523303 
L 242.892397 107.779426 
L 243.91719 107.03555 
L 244.941983 106.291673 
L 245.966777 105.547796 
L 246.99157 104.80392 
L 248.016364 104.060043 
L 249.041157 103.316166 
L 250.06595 102.57229 
L 251.090744 101.828413 
L 252.115537 101.084536 
L 253.140331 100.340659 
L 254.165124 99.596783 
L 255.189917 98.852906 
L 256.214711 98.109029 
L 257.239504 97.365153 
L 258.264298 96.621276 
L 259.289091 95.877399 
L 260.313884 95.133523 
L 261.338678 94.389646 
L 262.363471 93.645769 
L 263.388264 92.901892 
L 264.413058 92.158016 
L 265.437851 91.414139 
L 266.462645 90.670262 
L 267.487438 89.926386 
L 268.512231 89.182509 
L 269.537025 88.438632 
L 270.561818 87.694756 
L 271.586612 86.950879 
L 272.611405 86.207002 
L 273.636198 85.463125 
L 274.660992 84.719249 
L 275.685785 83.975372 
L 276.710579 83.231495 
L 277.735372 82.487619 
L 278.760165 81.743742 
L 279.784959 80.999865 
L 280.809752 80.255989 
L 281.834545 79.512112 
L 282.859339 78.768235 
L 283.884132 78.024358 
L 284.908926 77.280482 
L 285.933719 76.536605 
L 286.958512 75.792728 
L 287.983306 75.048852 
L 289.008099 74.304975 
L 290.032893 73.561098 
L 291.057686 72.817221 
L 292.082479 72.073345 
L 293.107273 71.329468 
" clip-path="url(#p536f36e76d)" style="fill: none; stroke: #000000; stroke-width: 2; stroke-linecap: square"/>
   </g>
   <g id="patch_6">
    <path d="M 186.58 179.27 
L 186.58 12.95 
" style="fill: none; stroke: #000000; stroke-width: 0.8; stroke-linejoin: miter; stroke-linecap: square"/>
   </g>
   <g id="patch_7">
    <path d="M 186.58 179.27 
L 298.18 179.27 
" style="fill: none; stroke: #000000; stroke-width: 0.8; stroke-linejoin: miter; stroke-linecap: square"/>
   </g>
   <g id="text_25">
    <!-- r=0.61, p=.005 -->
    <g transform="translate(216.36 12.95) scale(0.08 -0.08)">
     <use xlink:href="#ArialMT-72"/>
     <use xlink:href="#ArialMT-3d" x="33.300781"/>
     <use xlink:href="#ArialMT-30" x="91.699219"/>
     <use xlink:href="#ArialMT-2e" x="147.314453"/>
     <use xlink:href="#ArialMT-36" x="175.097656"/>
     <use xlink:href="#ArialMT-31" x="230.712891"/>
     <use xlink:href="#ArialMT-2c" x="286.328125"/>
     <use xlink:href="#ArialMT-20" x="314.111328"/>
     <use xlink:href="#ArialMT-70" x="341.894531"/>
     <use xlink:href="#ArialMT-3d" x="397.509766"/>
     <use xlink:href="#ArialMT-2e" x="455.908203"/>
     <use xlink:href="#ArialMT-30" x="483.691406"/>
     <use xlink:href="#ArialMT-30" x="539.306641"/>
     <use xlink:href="#ArialMT-35" x="594.921875"/>
    </g>
   </g>
  </g>
  <g id="axes_3">
   <g id="patch_8">
    <path d="M 331.66 179.27 
L 443.26 179.27 
L 443.26 12.95 
L 331.66 12.95 
z
" style="fill: #ffffff"/>
   </g>
   <g id="PathCollection_3">
    <g clip-path="url(#p0cd10ebfb7)">
     <use xlink:href="#m766ea24cc1" x="387.378129" y="75.669969" style="fill: #28aeed; fill-opacity: 0.8; stroke: #28aeed; stroke-opacity: 0.8"/>
     <use xlink:href="#m766ea24cc1" x="369.078269" y="134.743835" style="fill: #28aeed; fill-opacity: 0.8; stroke: #28aeed; stroke-opacity: 0.8"/>
     <use xlink:href="#m766ea24cc1" x="431.401853" y="95.397767" style="fill: #28aeed; fill-opacity: 0.8; stroke: #28aeed; stroke-opacity: 0.8"/>
     <use xlink:href="#m766ea24cc1" x="438.187273" y="20.51" style="fill: #28aeed; fill-opacity: 0.8; stroke: #28aeed; stroke-opacity: 0.8"/>
     <use xlink:href="#m766ea24cc1" x="368.52588" y="109.305095" style="fill: #28aeed; fill-opacity: 0.8; stroke: #28aeed; stroke-opacity: 0.8"/>
     <use xlink:href="#m766ea24cc1" x="359.463246" y="115.975809" style="fill: #28aeed; fill-opacity: 0.8; stroke: #28aeed; stroke-opacity: 0.8"/>
     <use xlink:href="#m766ea24cc1" x="374.12579" y="123.356087" style="fill: #28aeed; fill-opacity: 0.8; stroke: #28aeed; stroke-opacity: 0.8"/>
     <use xlink:href="#m766ea24cc1" x="391.328327" y="118.357788" style="fill: #28aeed; fill-opacity: 0.8; stroke: #28aeed; stroke-opacity: 0.8"/>
     <use xlink:href="#m766ea24cc1" x="410.840973" y="74.226408" style="fill: #28aeed; fill-opacity: 0.8; stroke: #28aeed; stroke-opacity: 0.8"/>
     <use xlink:href="#m766ea24cc1" x="356.957351" y="140.232532" style="fill: #28aeed; fill-opacity: 0.8; stroke: #28aeed; stroke-opacity: 0.8"/>
     <use xlink:href="#m766ea24cc1" x="421.339176" y="71.27792" style="fill: #28aeed; fill-opacity: 0.8; stroke: #28aeed; stroke-opacity: 0.8"/>
     <use xlink:href="#m766ea24cc1" x="363.305537" y="138.947027" style="fill: #28aeed; fill-opacity: 0.8; stroke: #28aeed; stroke-opacity: 0.8"/>
     <use xlink:href="#m766ea24cc1" x="369.89045" y="157.324886" style="fill: #28aeed; fill-opacity: 0.8; stroke: #28aeed; stroke-opacity: 0.8"/>
     <use xlink:href="#m766ea24cc1" x="336.732727" y="110.961906" style="fill: #28aeed; fill-opacity: 0.8; stroke: #28aeed; stroke-opacity: 0.8"/>
     <use xlink:href="#m766ea24cc1" x="372.887864" y="113.546025" style="fill: #28aeed; fill-opacity: 0.8; stroke: #28aeed; stroke-opacity: 0.8"/>
     <use xlink:href="#m766ea24cc1" x="412.149801" y="82.567562" style="fill: #28aeed; fill-opacity: 0.8; stroke: #28aeed; stroke-opacity: 0.8"/>
     <use xlink:href="#m766ea24cc1" x="338.821012" y="146.664986" style="fill: #28aeed; fill-opacity: 0.8; stroke: #28aeed; stroke-opacity: 0.8"/>
     <use xlink:href="#m766ea24cc1" x="392.645504" y="122.600909" style="fill: #28aeed; fill-opacity: 0.8; stroke: #28aeed; stroke-opacity: 0.8"/>
     <use xlink:href="#m766ea24cc1" x="389.738947" y="90.286149" style="fill: #28aeed; fill-opacity: 0.8; stroke: #28aeed; stroke-opacity: 0.8"/>
    </g>
   </g>
   <g id="PolyCollection_3">
    <path d="M 336.732727 129.572043 
L 336.732727 171.71 
L 337.757521 170.364345 
L 338.782314 169.01869 
L 339.807107 167.673035 
L 340.831901 166.32738 
L 341.856694 164.981725 
L 342.881488 163.634479 
L 343.906281 162.283997 
L 344.931074 160.933515 
L 345.955868 159.583033 
L 346.980661 158.23255 
L 348.005455 156.942549 
L 349.030248 155.65625 
L 350.055041 154.369951 
L 351.079835 153.084991 
L 352.104628 151.869331 
L 353.129421 150.550381 
L 354.154215 149.258526 
L 355.179008 147.964391 
L 356.203802 146.68424 
L 357.228595 145.584637 
L 358.253388 144.421988 
L 359.278182 143.379353 
L 360.302975 142.037038 
L 361.327769 140.69873 
L 362.352562 139.426217 
L 363.377355 138.103817 
L 364.402149 136.88473 
L 365.426942 135.604449 
L 366.451736 134.161049 
L 367.476529 133.178896 
L 368.501322 132.013055 
L 369.526116 130.95905 
L 370.550909 129.928683 
L 371.575702 128.899116 
L 372.600496 127.82852 
L 373.625289 126.785304 
L 374.650083 125.6867 
L 375.674876 124.48808 
L 376.699669 123.497314 
L 377.724463 122.719619 
L 378.749256 121.894048 
L 379.77405 121.094949 
L 380.798843 120.226135 
L 381.823636 119.259813 
L 382.84843 118.187867 
L 383.873223 117.509436 
L 384.898017 116.518159 
L 385.92281 115.608027 
L 386.947603 114.649543 
L 387.972397 113.878645 
L 388.99719 113.062407 
L 390.021983 112.302632 
L 391.046777 111.491835 
L 392.07157 110.710877 
L 393.096364 109.989556 
L 394.121157 109.26661 
L 395.14595 108.70435 
L 396.170744 108.117225 
L 397.195537 107.526686 
L 398.220331 107.03076 
L 399.245124 106.508093 
L 400.269917 106.044356 
L 401.294711 105.513738 
L 402.319504 105.051345 
L 403.344298 104.4525 
L 404.369091 103.921882 
L 405.393884 103.391263 
L 406.418678 102.919324 
L 407.443471 102.508661 
L 408.468264 101.974546 
L 409.493058 101.400027 
L 410.517851 100.825623 
L 411.542645 100.220002 
L 412.567438 99.678767 
L 413.592231 99.134993 
L 414.617025 98.606306 
L 415.641818 98.077618 
L 416.666612 97.54893 
L 417.691405 97.017463 
L 418.716198 96.483595 
L 419.740992 95.947132 
L 420.765785 95.410668 
L 421.790579 94.874205 
L 422.815372 94.177441 
L 423.840165 93.706484 
L 424.864959 93.279742 
L 425.889752 92.752091 
L 426.914545 92.279536 
L 427.939339 91.818085 
L 428.964132 91.354164 
L 429.988926 90.885006 
L 431.013719 90.415848 
L 432.038512 89.792675 
L 433.063306 89.254427 
L 434.088099 88.834994 
L 435.112893 88.41556 
L 436.137686 87.996127 
L 437.162479 87.576694 
L 438.187273 87.157261 
L 438.187273 34.576101 
L 438.187273 34.576101 
L 437.162479 35.893281 
L 436.137686 37.101368 
L 435.112893 38.334393 
L 434.088099 39.752691 
L 433.063306 41.149068 
L 432.038512 42.570225 
L 431.013719 43.888502 
L 429.988926 45.188189 
L 428.964132 46.489365 
L 427.939339 47.887276 
L 426.914545 49.091626 
L 425.889752 50.387052 
L 424.864959 51.686625 
L 423.840165 52.986312 
L 422.815372 54.206882 
L 421.790579 55.366128 
L 420.765785 56.581174 
L 419.740992 57.76438 
L 418.716198 59.162461 
L 417.691405 60.625197 
L 416.666612 61.931682 
L 415.641818 63.076263 
L 414.617025 64.149399 
L 413.592231 65.191452 
L 412.567438 66.467485 
L 411.542645 67.655659 
L 410.517851 68.774075 
L 409.493058 69.94279 
L 408.468264 71.24987 
L 407.443471 72.510094 
L 406.418678 73.753098 
L 405.393884 74.996101 
L 404.369091 76.239105 
L 403.344298 77.332451 
L 402.319504 78.532117 
L 401.294711 79.523944 
L 400.269917 80.676641 
L 399.245124 81.702018 
L 398.220331 82.615464 
L 397.195537 83.753419 
L 396.170744 84.992061 
L 395.14595 86.221168 
L 394.121157 87.344714 
L 393.096364 88.524554 
L 392.07157 89.557619 
L 391.046777 90.662953 
L 390.021983 91.702124 
L 388.99719 92.738969 
L 387.972397 93.777866 
L 386.947603 94.810997 
L 385.92281 95.821405 
L 384.898017 96.698863 
L 383.873223 97.801014 
L 382.84843 98.742303 
L 381.823636 99.50229 
L 380.798843 100.581104 
L 379.77405 101.420576 
L 378.749256 102.518955 
L 377.724463 103.246357 
L 376.699669 104.024826 
L 375.674876 104.79269 
L 374.650083 105.450096 
L 373.625289 106.081704 
L 372.600496 106.832814 
L 371.575702 107.791588 
L 370.550909 108.578109 
L 369.526116 109.278794 
L 368.501322 110.178308 
L 367.476529 110.910872 
L 366.451736 111.584969 
L 365.426942 112.212065 
L 364.402149 112.961646 
L 363.377355 113.717426 
L 362.352562 114.400177 
L 361.327769 115.123496 
L 360.302975 115.785244 
L 359.278182 116.45706 
L 358.253388 116.995609 
L 357.228595 117.635337 
L 356.203802 118.30458 
L 355.179008 118.890624 
L 354.154215 119.547138 
L 353.129421 120.103384 
L 352.104628 120.80651 
L 351.079835 121.43665 
L 350.055041 122.035888 
L 349.030248 122.791496 
L 348.005455 123.38273 
L 346.980661 123.998361 
L 345.955868 124.601021 
L 344.931074 125.204196 
L 343.906281 125.639117 
L 342.881488 126.211817 
L 341.856694 126.824673 
L 340.831901 127.403724 
L 339.807107 127.993222 
L 338.782314 128.460721 
L 337.757521 129.071549 
L 336.732727 129.572043 
z
" clip-path="url(#p0cd10ebfb7)" style="fill-opacity: 0.15"/>
   </g>
   <g id="matplotlib.axis_5">
    <g id="xtick_7">
     <g id="line2d_22">
      <g>
       <use xlink:href="#m0589e8ab17" x="357.853843" y="179.27" style="stroke: #000000; stroke-width: 0.8"/>
      </g>
     </g>
     <g id="text_26">
      <!-- 40 -->
      <g transform="translate(353.405093 191.99625) scale(0.08 -0.08)">
       <use xlink:href="#ArialMT-34"/>
       <use xlink:href="#ArialMT-30" x="55.615234"/>
      </g>
     </g>
    </g>
    <g id="xtick_8">
     <g id="line2d_23">
      <g>
       <use xlink:href="#m0589e8ab17" x="389.104688" y="179.27" style="stroke: #000000; stroke-width: 0.8"/>
      </g>
     </g>
     <g id="text_27">
      <!-- 60 -->
      <g transform="translate(384.655938 191.99625) scale(0.08 -0.08)">
       <use xlink:href="#ArialMT-36"/>
       <use xlink:href="#ArialMT-30" x="55.615234"/>
      </g>
     </g>
    </g>
    <g id="xtick_9">
     <g id="line2d_24">
      <g>
       <use xlink:href="#m0589e8ab17" x="420.355532" y="179.27" style="stroke: #000000; stroke-width: 0.8"/>
      </g>
     </g>
     <g id="text_28">
      <!-- 80 -->
      <g transform="translate(415.906782 191.99625) scale(0.08 -0.08)">
       <use xlink:href="#ArialMT-38"/>
       <use xlink:href="#ArialMT-30" x="55.615234"/>
      </g>
     </g>
    </g>
    <g id="text_29">
     <!-- Knee Extension Moment (Nm) -->
     <g transform="translate(333.886875 203.41) scale(0.08 -0.08)">
      <use xlink:href="#ArialMT-4b"/>
      <use xlink:href="#ArialMT-6e" x="66.699219"/>
      <use xlink:href="#ArialMT-65" x="122.314453"/>
      <use xlink:href="#ArialMT-65" x="177.929688"/>
      <use xlink:href="#ArialMT-20" x="233.544922"/>
      <use xlink:href="#ArialMT-45" x="261.328125"/>
      <use xlink:href="#ArialMT-78" x="328.027344"/>
      <use xlink:href="#ArialMT-74" x="378.027344"/>
      <use xlink:href="#ArialMT-65" x="405.810547"/>
      <use xlink:href="#ArialMT-6e" x="461.425781"/>
      <use xlink:href="#ArialMT-73" x="517.041016"/>
      <use xlink:href="#ArialMT-69" x="567.041016"/>
      <use xlink:href="#ArialMT-6f" x="589.257812"/>
      <use xlink:href="#ArialMT-6e" x="644.873047"/>
      <use xlink:href="#ArialMT-20" x="700.488281"/>
      <use xlink:href="#ArialMT-4d" x="728.271484"/>
      <use xlink:href="#ArialMT-6f" x="811.572266"/>
      <use xlink:href="#ArialMT-6d" x="867.1875"/>
      <use xlink:href="#ArialMT-65" x="950.488281"/>
      <use xlink:href="#ArialMT-6e" x="1006.103516"/>
      <use xlink:href="#ArialMT-74" x="1061.71875"/>
      <use xlink:href="#ArialMT-20" x="1089.501953"/>
      <use xlink:href="#ArialMT-28" x="1117.285156"/>
      <use xlink:href="#ArialMT-4e" x="1150.585938"/>
      <use xlink:href="#ArialMT-6d" x="1222.802734"/>
      <use xlink:href="#ArialMT-29" x="1306.103516"/>
     </g>
    </g>
   </g>
   <g id="matplotlib.axis_6">
    <g id="ytick_14">
     <g id="line2d_25">
      <g>
       <use xlink:href="#m5e662d918d" x="331.66" y="167.199855" style="stroke: #000000; stroke-width: 0.8"/>
      </g>
     </g>
     <g id="text_30">
      <!-- −3 -->
      <g transform="translate(315.53875 170.06298) scale(0.08 -0.08)">
       <use xlink:href="#ArialMT-2212"/>
       <use xlink:href="#ArialMT-33" x="58.398438"/>
      </g>
     </g>
    </g>
    <g id="ytick_15">
     <g id="line2d_26">
      <g>
       <use xlink:href="#m5e662d918d" x="331.66" y="147.290301" style="stroke: #000000; stroke-width: 0.8"/>
      </g>
     </g>
     <g id="text_31">
      <!-- −2 -->
      <g transform="translate(315.53875 150.153426) scale(0.08 -0.08)">
       <use xlink:href="#ArialMT-2212"/>
       <use xlink:href="#ArialMT-32" x="58.398438"/>
      </g>
     </g>
    </g>
    <g id="ytick_16">
     <g id="line2d_27">
      <g>
       <use xlink:href="#m5e662d918d" x="331.66" y="127.380747" style="stroke: #000000; stroke-width: 0.8"/>
      </g>
     </g>
     <g id="text_32">
      <!-- −1 -->
      <g transform="translate(315.53875 130.243872) scale(0.08 -0.08)">
       <use xlink:href="#ArialMT-2212"/>
       <use xlink:href="#ArialMT-31" x="58.398438"/>
      </g>
     </g>
    </g>
    <g id="ytick_17">
     <g id="line2d_28">
      <g>
       <use xlink:href="#m5e662d918d" x="331.66" y="107.471193" style="stroke: #000000; stroke-width: 0.8"/>
      </g>
     </g>
     <g id="text_33">
      <!-- 0 -->
      <g transform="translate(320.21125 110.334318) scale(0.08 -0.08)">
       <use xlink:href="#ArialMT-30"/>
      </g>
     </g>
    </g>
    <g id="ytick_18">
     <g id="line2d_29">
      <g>
       <use xlink:href="#m5e662d918d" x="331.66" y="87.561638" style="stroke: #000000; stroke-width: 0.8"/>
      </g>
     </g>
     <g id="text_34">
      <!-- 1 -->
      <g transform="translate(320.21125 90.424763) scale(0.08 -0.08)">
       <use xlink:href="#ArialMT-31"/>
      </g>
     </g>
    </g>
    <g id="ytick_19">
     <g id="line2d_30">
      <g>
       <use xlink:href="#m5e662d918d" x="331.66" y="67.652084" style="stroke: #000000; stroke-width: 0.8"/>
      </g>
     </g>
     <g id="text_35">
      <!-- 2 -->
      <g transform="translate(320.21125 70.515209) scale(0.08 -0.08)">
       <use xlink:href="#ArialMT-32"/>
      </g>
     </g>
    </g>
    <g id="ytick_20">
     <g id="line2d_31">
      <g>
       <use xlink:href="#m5e662d918d" x="331.66" y="47.74253" style="stroke: #000000; stroke-width: 0.8"/>
      </g>
     </g>
     <g id="text_36">
      <!-- 3 -->
      <g transform="translate(320.21125 50.605655) scale(0.08 -0.08)">
       <use xlink:href="#ArialMT-33"/>
      </g>
     </g>
    </g>
    <g id="ytick_21">
     <g id="line2d_32">
      <g>
       <use xlink:href="#m5e662d918d" x="331.66" y="27.832976" style="stroke: #000000; stroke-width: 0.8"/>
      </g>
     </g>
     <g id="text_37">
      <!-- 4 -->
      <g transform="translate(320.21125 30.696101) scale(0.08 -0.08)">
       <use xlink:href="#ArialMT-34"/>
      </g>
     </g>
    </g>
    <g id="text_38">
     <!-- Radial Diffusivity + Volume Total (Standardized) -->
     <g transform="translate(309.855 180.338125) rotate(-90) scale(0.08 -0.08)">
      <defs>
       <path id="ArialMT-2b" d="M 1603 741 
L 1603 1997 
L 356 1997 
L 356 2522 
L 1603 2522 
L 1603 3769 
L 2134 3769 
L 2134 2522 
L 3381 2522 
L 3381 1997 
L 2134 1997 
L 2134 741 
L 1603 741 
z
" transform="scale(0.015625)"/>
      </defs>
      <use xlink:href="#ArialMT-52"/>
      <use xlink:href="#ArialMT-61" x="72.216797"/>
      <use xlink:href="#ArialMT-64" x="127.832031"/>
      <use xlink:href="#ArialMT-69" x="183.447266"/>
      <use xlink:href="#ArialMT-61" x="205.664062"/>
      <use xlink:href="#ArialMT-6c" x="261.279297"/>
      <use xlink:href="#ArialMT-20" x="283.496094"/>
      <use xlink:href="#ArialMT-44" x="311.279297"/>
      <use xlink:href="#ArialMT-69" x="383.496094"/>
      <use xlink:href="#ArialMT-66" x="405.712891"/>
      <use xlink:href="#ArialMT-66" x="431.746094"/>
      <use xlink:href="#ArialMT-75" x="459.529297"/>
      <use xlink:href="#ArialMT-73" x="515.144531"/>
      <use xlink:href="#ArialMT-69" x="565.144531"/>
      <use xlink:href="#ArialMT-76" x="587.361328"/>
      <use xlink:href="#ArialMT-69" x="637.361328"/>
      <use xlink:href="#ArialMT-74" x="659.578125"/>
      <use xlink:href="#ArialMT-79" x="687.361328"/>
      <use xlink:href="#ArialMT-20" x="737.361328"/>
      <use xlink:href="#ArialMT-2b" x="765.144531"/>
      <use xlink:href="#ArialMT-20" x="823.542969"/>
      <use xlink:href="#ArialMT-56" x="851.326172"/>
      <use xlink:href="#ArialMT-6f" x="912.525391"/>
      <use xlink:href="#ArialMT-6c" x="968.140625"/>
      <use xlink:href="#ArialMT-75" x="990.357422"/>
      <use xlink:href="#ArialMT-6d" x="1045.972656"/>
      <use xlink:href="#ArialMT-65" x="1129.273438"/>
      <use xlink:href="#ArialMT-20" x="1184.888672"/>
      <use xlink:href="#ArialMT-54" x="1210.921875"/>
      <use xlink:href="#ArialMT-6f" x="1260.880859"/>
      <use xlink:href="#ArialMT-74" x="1316.496094"/>
      <use xlink:href="#ArialMT-61" x="1344.279297"/>
      <use xlink:href="#ArialMT-6c" x="1399.894531"/>
      <use xlink:href="#ArialMT-20" x="1422.111328"/>
      <use xlink:href="#ArialMT-28" x="1449.894531"/>
      <use xlink:href="#ArialMT-53" x="1483.195312"/>
      <use xlink:href="#ArialMT-74" x="1549.894531"/>
      <use xlink:href="#ArialMT-61" x="1577.677734"/>
      <use xlink:href="#ArialMT-6e" x="1633.292969"/>
      <use xlink:href="#ArialMT-64" x="1688.908203"/>
      <use xlink:href="#ArialMT-61" x="1744.523438"/>
      <use xlink:href="#ArialMT-72" x="1800.138672"/>
      <use xlink:href="#ArialMT-64" x="1833.439453"/>
      <use xlink:href="#ArialMT-69" x="1889.054688"/>
      <use xlink:href="#ArialMT-7a" x="1911.271484"/>
      <use xlink:href="#ArialMT-65" x="1961.271484"/>
      <use xlink:href="#ArialMT-64" x="2016.886719"/>
      <use xlink:href="#ArialMT-29" x="2072.501953"/>
     </g>
    </g>
   </g>
   <g id="line2d_33">
    <path d="M 336.732727 148.286362 
L 337.757521 147.390279 
L 338.782314 146.494195 
L 339.807107 145.598112 
L 340.831901 144.702028 
L 341.856694 143.805945 
L 342.881488 142.909861 
L 343.906281 142.013778 
L 344.931074 141.117694 
L 345.955868 140.221611 
L 346.980661 139.325528 
L 348.005455 138.429444 
L 349.030248 137.533361 
L 350.055041 136.637277 
L 351.079835 135.741194 
L 352.104628 134.84511 
L 353.129421 133.949027 
L 354.154215 133.052943 
L 355.179008 132.15686 
L 356.203802 131.260776 
L 357.228595 130.364693 
L 358.253388 129.468609 
L 359.278182 128.572526 
L 360.302975 127.676442 
L 361.327769 126.780359 
L 362.352562 125.884275 
L 363.377355 124.988192 
L 364.402149 124.092108 
L 365.426942 123.196025 
L 366.451736 122.299941 
L 367.476529 121.403858 
L 368.501322 120.507774 
L 369.526116 119.611691 
L 370.550909 118.715607 
L 371.575702 117.819524 
L 372.600496 116.92344 
L 373.625289 116.027357 
L 374.650083 115.131273 
L 375.674876 114.23519 
L 376.699669 113.339106 
L 377.724463 112.443023 
L 378.749256 111.546939 
L 379.77405 110.650856 
L 380.798843 109.754772 
L 381.823636 108.858689 
L 382.84843 107.962605 
L 383.873223 107.066522 
L 384.898017 106.170438 
L 385.92281 105.274355 
L 386.947603 104.378271 
L 387.972397 103.482188 
L 388.99719 102.586104 
L 390.021983 101.690021 
L 391.046777 100.793937 
L 392.07157 99.897854 
L 393.096364 99.00177 
L 394.121157 98.105687 
L 395.14595 97.209603 
L 396.170744 96.31352 
L 397.195537 95.417436 
L 398.220331 94.521353 
L 399.245124 93.625269 
L 400.269917 92.729186 
L 401.294711 91.833102 
L 402.319504 90.937019 
L 403.344298 90.040935 
L 404.369091 89.144852 
L 405.393884 88.248768 
L 406.418678 87.352685 
L 407.443471 86.456601 
L 408.468264 85.560518 
L 409.493058 84.664434 
L 410.517851 83.768351 
L 411.542645 82.872267 
L 412.567438 81.976184 
L 413.592231 81.0801 
L 414.617025 80.184017 
L 415.641818 79.287933 
L 416.666612 78.39185 
L 417.691405 77.495766 
L 418.716198 76.599683 
L 419.740992 75.703599 
L 420.765785 74.807516 
L 421.790579 73.911432 
L 422.815372 73.015349 
L 423.840165 72.119265 
L 424.864959 71.223182 
L 425.889752 70.327098 
L 426.914545 69.431015 
L 427.939339 68.534931 
L 428.964132 67.638848 
L 429.988926 66.742764 
L 431.013719 65.846681 
L 432.038512 64.950597 
L 433.063306 64.054514 
L 434.088099 63.15843 
L 435.112893 62.262347 
L 436.137686 61.366263 
L 437.162479 60.47018 
L 438.187273 59.574096 
" clip-path="url(#p0cd10ebfb7)" style="fill: none; stroke: #000000; stroke-width: 2; stroke-linecap: square"/>
   </g>
   <g id="patch_9">
    <path d="M 331.66 179.27 
L 331.66 12.95 
" style="fill: none; stroke: #000000; stroke-width: 0.8; stroke-linejoin: miter; stroke-linecap: square"/>
   </g>
   <g id="patch_10">
    <path d="M 331.66 179.27 
L 443.26 179.27 
" style="fill: none; stroke: #000000; stroke-width: 0.8; stroke-linejoin: miter; stroke-linecap: square"/>
   </g>
   <g id="text_39">
    <!-- r=0.77, p&lt;.001 -->
    <g transform="translate(361.44 12.95) scale(0.08 -0.08)">
     <defs>
      <path id="ArialMT-37" d="M 303 3981 
L 303 4522 
L 3269 4522 
L 3269 4084 
Q 2831 3619 2401 2847 
Q 1972 2075 1738 1259 
Q 1569 684 1522 0 
L 944 0 
Q 953 541 1156 1306 
Q 1359 2072 1739 2783 
Q 2119 3494 2547 3981 
L 303 3981 
z
" transform="scale(0.015625)"/>
      <path id="ArialMT-3c" d="M 350 2003 
L 350 2528 
L 3384 3809 
L 3384 3250 
L 978 2263 
L 3384 1266 
L 3384 706 
L 350 2003 
z
" transform="scale(0.015625)"/>
     </defs>
     <use xlink:href="#ArialMT-72"/>
     <use xlink:href="#ArialMT-3d" x="33.300781"/>
     <use xlink:href="#ArialMT-30" x="91.699219"/>
     <use xlink:href="#ArialMT-2e" x="147.314453"/>
     <use xlink:href="#ArialMT-37" x="175.097656"/>
     <use xlink:href="#ArialMT-37" x="230.712891"/>
     <use xlink:href="#ArialMT-2c" x="286.328125"/>
     <use xlink:href="#ArialMT-20" x="314.111328"/>
     <use xlink:href="#ArialMT-70" x="341.894531"/>
     <use xlink:href="#ArialMT-3c" x="397.509766"/>
     <use xlink:href="#ArialMT-2e" x="455.908203"/>
     <use xlink:href="#ArialMT-30" x="483.691406"/>
     <use xlink:href="#ArialMT-30" x="539.306641"/>
     <use xlink:href="#ArialMT-31" x="594.921875"/>
    </g>
   </g>
  </g>
 </g>
 <defs>
  <clipPath id="paefa491307">
   <rect x="41.5" y="12.95" width="111.6" height="166.32"/>
  </clipPath>
  <clipPath id="p536f36e76d">
   <rect x="186.58" y="12.95" width="111.6" height="166.32"/>
  </clipPath>
  <clipPath id="p0cd10ebfb7">
   <rect x="331.66" y="12.95" width="111.6" height="166.32"/>
  </clipPath>
 </defs>
</svg>
