<?xml version="1.0" encoding="utf-8" standalone="no"?>
<!DOCTYPE svg PUBLIC "-//W3C//DTD SVG 1.1//EN"
  "http://www.w3.org/Graphics/SVG/1.1/DTD/svg11.dtd">
<svg xmlns:xlink="http://www.w3.org/1999/xlink" width="443.37375pt" height="212.29375pt" viewBox="0 0 443.37375 212.29375" xmlns="http://www.w3.org/2000/svg" version="1.1">
 <metadata>
  <rdf:RDF xmlns:dc="http://purl.org/dc/elements/1.1/" xmlns:cc="http://creativecommons.org/ns#" xmlns:rdf="http://www.w3.org/1999/02/22-rdf-syntax-ns#">
   <cc:Work>
    <dc:type rdf:resource="http://purl.org/dc/dcmitype/StillImage"/>
    <dc:date>2025-09-15T12:06:04.437911</dc:date>
    <dc:format>image/svg+xml</dc:format>
    <dc:creator>
     <cc:Agent>
      <dc:title>Matplotlib v3.9.2, https://matplotlib.org/</dc:title>
     </cc:Agent>
    </dc:creator>
   </cc:Work>
  </rdf:RDF>
 </metadata>
 <defs>
  <style type="text/css">*{stroke-linejoin: round; stroke-linecap: butt}</style>
 </defs>
 <g id="figure_1">
  <g id="patch_1">
   <path d="M 0 212.29375 
L 443.37375 212.29375 
L 443.37375 0 
L 0 0 
z
" style="fill: #ffffff"/>
  </g>
  <g id="axes_1">
   <g id="patch_2">
    <path d="M 34.41375 179.27 
L 146.01375 179.27 
L 146.01375 12.95 
L 34.41375 12.95 
z
" style="fill: #ffffff"/>
   </g>
   <g id="PathCollection_1">
    <defs>
     <path id="m335059a193" d="M 0 2.236068 
C 0.593012 2.236068 1.161816 2.000462 1.581139 1.581139 
C 2.000462 1.161816 2.236068 0.593012 2.236068 0 
C 2.236068 -0.593012 2.000462 -1.161816 1.581139 -1.581139 
C 1.161816 -2.000462 0.593012 -2.236068 0 -2.236068 
C -0.593012 -2.236068 -1.161816 -2.000462 -1.581139 -1.581139 
C -2.000462 -1.161816 -2.236068 -0.593012 -2.236068 0 
C -2.236068 0.593012 -2.000462 1.161816 -1.581139 1.581139 
C -1.161816 2.000462 -0.593012 2.236068 0 2.236068 
z
" style="stroke: #28aeed; stroke-opacity: 0.8"/>
    </defs>
    <g clip-path="url(#pe697ee3ce9)">
     <use xlink:href="#m335059a193" x="127.669066" y="154.519332" style="fill: #28aeed; fill-opacity: 0.8; stroke: #28aeed; stroke-opacity: 0.8"/>
     <use xlink:href="#m335059a193" x="44.022315" y="58.431491" style="fill: #28aeed; fill-opacity: 0.8; stroke: #28aeed; stroke-opacity: 0.8"/>
     <use xlink:href="#m335059a193" x="78.850065" y="83.511417" style="fill: #28aeed; fill-opacity: 0.8; stroke: #28aeed; stroke-opacity: 0.8"/>
     <use xlink:href="#m335059a193" x="99.712947" y="114.287282" style="fill: #28aeed; fill-opacity: 0.8; stroke: #28aeed; stroke-opacity: 0.8"/>
     <use xlink:href="#m335059a193" x="64.520855" y="143.385804" style="fill: #28aeed; fill-opacity: 0.8; stroke: #28aeed; stroke-opacity: 0.8"/>
     <use xlink:href="#m335059a193" x="68.766939" y="128.600934" style="fill: #28aeed; fill-opacity: 0.8; stroke: #28aeed; stroke-opacity: 0.8"/>
     <use xlink:href="#m335059a193" x="71.797081" y="20.51" style="fill: #28aeed; fill-opacity: 0.8; stroke: #28aeed; stroke-opacity: 0.8"/>
     <use xlink:href="#m335059a193" x="110.645914" y="144.805793" style="fill: #28aeed; fill-opacity: 0.8; stroke: #28aeed; stroke-opacity: 0.8"/>
     <use xlink:href="#m335059a193" x="67.279897" y="143.936489" style="fill: #28aeed; fill-opacity: 0.8; stroke: #28aeed; stroke-opacity: 0.8"/>
     <use xlink:href="#m335059a193" x="39.486477" y="60.492469" style="fill: #28aeed; fill-opacity: 0.8; stroke: #28aeed; stroke-opacity: 0.8"/>
     <use xlink:href="#m335059a193" x="123.524224" y="129.590889" style="fill: #28aeed; fill-opacity: 0.8; stroke: #28aeed; stroke-opacity: 0.8"/>
     <use xlink:href="#m335059a193" x="70.236195" y="90.693946" style="fill: #28aeed; fill-opacity: 0.8; stroke: #28aeed; stroke-opacity: 0.8"/>
     <use xlink:href="#m335059a193" x="86.256367" y="129.457846" style="fill: #28aeed; fill-opacity: 0.8; stroke: #28aeed; stroke-opacity: 0.8"/>
     <use xlink:href="#m335059a193" x="96.888112" y="140.604945" style="fill: #28aeed; fill-opacity: 0.8; stroke: #28aeed; stroke-opacity: 0.8"/>
     <use xlink:href="#m335059a193" x="129.672548" y="148.876686" style="fill: #28aeed; fill-opacity: 0.8; stroke: #28aeed; stroke-opacity: 0.8"/>
     <use xlink:href="#m335059a193" x="100.124206" y="116.667081" style="fill: #28aeed; fill-opacity: 0.8; stroke: #28aeed; stroke-opacity: 0.8"/>
     <use xlink:href="#m335059a193" x="65.789882" y="60.33436" style="fill: #28aeed; fill-opacity: 0.8; stroke: #28aeed; stroke-opacity: 0.8"/>
     <use xlink:href="#m335059a193" x="58.429531" y="97.086971" style="fill: #28aeed; fill-opacity: 0.8; stroke: #28aeed; stroke-opacity: 0.8"/>
     <use xlink:href="#m335059a193" x="140.941023" y="128.5384" style="fill: #28aeed; fill-opacity: 0.8; stroke: #28aeed; stroke-opacity: 0.8"/>
    </g>
   </g>
   <g id="PolyCollection_1">
    <path d="M 39.486477 41.970626 
L 39.486477 103.124457 
L 40.511271 103.601167 
L 41.536064 104.077878 
L 42.560857 104.554588 
L 43.585651 105.031299 
L 44.610444 105.508009 
L 45.635238 105.98472 
L 46.660031 106.460537 
L 47.684824 106.84973 
L 48.709618 107.197175 
L 49.734411 107.681264 
L 50.759205 108.092643 
L 51.783998 108.480754 
L 52.808791 108.868865 
L 53.833585 109.256788 
L 54.858378 109.746435 
L 55.883171 110.214817 
L 56.907965 110.408358 
L 57.932758 110.792215 
L 58.957552 111.176072 
L 59.982345 111.519273 
L 61.007138 111.946856 
L 62.031932 112.36621 
L 63.056725 112.838868 
L 64.081519 113.311526 
L 65.106312 113.784184 
L 66.131105 114.255822 
L 67.155899 114.55103 
L 68.180692 114.832322 
L 69.205486 115.267507 
L 70.230279 115.779677 
L 71.255072 116.291848 
L 72.279866 116.890421 
L 73.304659 117.520147 
L 74.329452 118.038107 
L 75.354246 118.514683 
L 76.379039 119.018321 
L 77.403833 119.492109 
L 78.428626 119.960902 
L 79.453419 120.38921 
L 80.478213 120.874055 
L 81.503006 121.346282 
L 82.5278 121.760451 
L 83.552593 122.313139 
L 84.577386 122.955464 
L 85.60218 123.472022 
L 86.626973 123.98824 
L 87.651767 124.64273 
L 88.67656 125.08469 
L 89.701353 125.532082 
L 90.726147 126.336312 
L 91.75094 126.842944 
L 92.775733 127.650386 
L 93.800527 128.296201 
L 94.82532 128.975564 
L 95.850114 129.575191 
L 96.874907 130.072144 
L 97.8997 130.844541 
L 98.924494 131.678158 
L 99.949287 132.365359 
L 100.974081 132.923916 
L 101.998874 133.698475 
L 103.023667 134.4507 
L 104.048461 135.259145 
L 105.073254 136.291356 
L 106.098048 137.048275 
L 107.122841 137.931117 
L 108.147634 138.547593 
L 109.172428 139.405961 
L 110.197221 139.97208 
L 111.222014 140.80144 
L 112.246808 141.668407 
L 113.271601 142.683251 
L 114.296395 143.586877 
L 115.321188 144.409042 
L 116.345981 145.21609 
L 117.370775 146.302663 
L 118.395568 147.388217 
L 119.420362 148.434584 
L 120.445155 149.501859 
L 121.469948 150.582385 
L 122.494742 151.557604 
L 123.519535 152.627452 
L 124.544329 153.583704 
L 125.569122 154.488021 
L 126.593915 155.392338 
L 127.618709 156.473081 
L 128.643502 157.666388 
L 129.668295 158.859696 
L 130.693089 160.053004 
L 131.717882 161.19685 
L 132.742676 162.302821 
L 133.767469 163.624046 
L 134.792262 164.837515 
L 135.817056 166.035172 
L 136.841849 167.234223 
L 137.866643 168.377478 
L 138.891436 169.347606 
L 139.916229 170.439147 
L 140.941023 171.71 
L 140.941023 138.233673 
L 140.941023 138.233673 
L 139.916229 137.742629 
L 138.891436 137.291233 
L 137.866643 136.839836 
L 136.841849 136.13189 
L 135.817056 135.522289 
L 134.792262 135.163525 
L 133.767469 134.655688 
L 132.742676 133.983677 
L 131.717882 133.451803 
L 130.693089 132.873384 
L 129.668295 132.22361 
L 128.643502 131.543281 
L 127.618709 130.851856 
L 126.593915 130.284913 
L 125.569122 129.559947 
L 124.544329 128.965912 
L 123.519535 128.404093 
L 122.494742 127.8366 
L 121.469948 127.271979 
L 120.445155 126.723724 
L 119.420362 126.090807 
L 118.395568 125.434374 
L 117.370775 124.784171 
L 116.345981 123.834216 
L 115.321188 122.856292 
L 114.296395 122.00438 
L 113.271601 121.056135 
L 112.246808 120.312628 
L 111.222014 119.494066 
L 110.197221 118.441805 
L 109.172428 117.512073 
L 108.147634 116.583582 
L 107.122841 115.6839 
L 106.098048 115.198291 
L 105.073254 114.16951 
L 104.048461 113.230052 
L 103.023667 112.302947 
L 101.998874 111.283683 
L 100.974081 110.333009 
L 99.949287 109.148526 
L 98.924494 108.238966 
L 97.8997 107.29173 
L 96.874907 106.327714 
L 95.850114 105.083144 
L 94.82532 104.025442 
L 93.800527 103.10167 
L 92.775733 102.011806 
L 91.75094 101.191014 
L 90.726147 100.137955 
L 89.701353 99.049266 
L 88.67656 97.95379 
L 87.651767 96.857478 
L 86.626973 95.785044 
L 85.60218 94.66569 
L 84.577386 93.570981 
L 83.552593 92.478705 
L 82.5278 91.480807 
L 81.503006 90.486762 
L 80.478213 89.291368 
L 79.453419 88.093888 
L 78.428626 86.994433 
L 77.403833 85.822904 
L 76.379039 84.505875 
L 75.354246 83.437796 
L 74.329452 82.200663 
L 73.304659 81.252272 
L 72.279866 80.038979 
L 71.255072 78.799595 
L 70.230279 77.726389 
L 69.205486 76.653184 
L 68.180692 75.579978 
L 67.155899 74.374622 
L 66.131105 73.142261 
L 65.106312 71.83821 
L 64.081519 70.573026 
L 63.056725 69.598565 
L 62.031932 68.591022 
L 61.007138 67.238892 
L 59.982345 65.890205 
L 58.957552 64.671754 
L 57.932758 63.596494 
L 56.907965 62.374814 
L 55.883171 61.298637 
L 54.858378 60.224173 
L 53.833585 59.024323 
L 52.808791 57.808183 
L 51.783998 56.592043 
L 50.759205 55.384784 
L 49.734411 54.246459 
L 48.709618 53.108134 
L 47.684824 51.882237 
L 46.660031 50.610342 
L 45.635238 49.338447 
L 44.610444 48.066551 
L 43.585651 46.902272 
L 42.560857 45.741471 
L 41.536064 44.425098 
L 40.511271 43.19147 
L 39.486477 41.970626 
z
" clip-path="url(#pe697ee3ce9)" style="fill-opacity: 0.15"/>
   </g>
   <g id="matplotlib.axis_1">
    <g id="xtick_1">
     <g id="line2d_1">
      <defs>
       <path id="m30251589de" d="M 0 0 
L 0 3.5 
" style="stroke: #000000; stroke-width: 0.8"/>
      </defs>
      <g>
       <use xlink:href="#m30251589de" x="59.871739" y="179.27" style="stroke: #000000; stroke-width: 0.8"/>
      </g>
     </g>
     <g id="text_1">
      <!-- 100 -->
      <g transform="translate(53.198614 191.99625) scale(0.08 -0.08)">
       <defs>
        <path id="ArialMT-31" d="M 2384 0 
L 1822 0 
L 1822 3584 
Q 1619 3391 1289 3197 
Q 959 3003 697 2906 
L 697 3450 
Q 1169 3672 1522 3987 
Q 1875 4303 2022 4600 
L 2384 4600 
L 2384 0 
z
" transform="scale(0.015625)"/>
        <path id="ArialMT-30" d="M 266 2259 
Q 266 3072 433 3567 
Q 600 4063 929 4331 
Q 1259 4600 1759 4600 
Q 2128 4600 2406 4451 
Q 2684 4303 2865 4023 
Q 3047 3744 3150 3342 
Q 3253 2941 3253 2259 
Q 3253 1453 3087 958 
Q 2922 463 2592 192 
Q 2263 -78 1759 -78 
Q 1097 -78 719 397 
Q 266 969 266 2259 
z
M 844 2259 
Q 844 1131 1108 757 
Q 1372 384 1759 384 
Q 2147 384 2411 759 
Q 2675 1134 2675 2259 
Q 2675 3391 2411 3762 
Q 2147 4134 1753 4134 
Q 1366 4134 1134 3806 
Q 844 3388 844 2259 
z
" transform="scale(0.015625)"/>
       </defs>
       <use xlink:href="#ArialMT-31"/>
       <use xlink:href="#ArialMT-30" x="55.615234"/>
       <use xlink:href="#ArialMT-30" x="111.230469"/>
      </g>
     </g>
    </g>
    <g id="xtick_2">
     <g id="line2d_2">
      <g>
       <use xlink:href="#m30251589de" x="96.354286" y="179.27" style="stroke: #000000; stroke-width: 0.8"/>
      </g>
     </g>
     <g id="text_2">
      <!-- 150 -->
      <g transform="translate(89.681161 191.99625) scale(0.08 -0.08)">
       <defs>
        <path id="ArialMT-35" d="M 266 1200 
L 856 1250 
Q 922 819 1161 601 
Q 1400 384 1738 384 
Q 2144 384 2425 690 
Q 2706 997 2706 1503 
Q 2706 1984 2436 2262 
Q 2166 2541 1728 2541 
Q 1456 2541 1237 2417 
Q 1019 2294 894 2097 
L 366 2166 
L 809 4519 
L 3088 4519 
L 3088 3981 
L 1259 3981 
L 1013 2750 
Q 1425 3038 1878 3038 
Q 2478 3038 2890 2622 
Q 3303 2206 3303 1553 
Q 3303 931 2941 478 
Q 2500 -78 1738 -78 
Q 1113 -78 717 272 
Q 322 622 266 1200 
z
" transform="scale(0.015625)"/>
       </defs>
       <use xlink:href="#ArialMT-31"/>
       <use xlink:href="#ArialMT-35" x="55.615234"/>
       <use xlink:href="#ArialMT-30" x="111.230469"/>
      </g>
     </g>
    </g>
    <g id="xtick_3">
     <g id="line2d_3">
      <g>
       <use xlink:href="#m30251589de" x="132.836834" y="179.27" style="stroke: #000000; stroke-width: 0.8"/>
      </g>
     </g>
     <g id="text_3">
      <!-- 200 -->
      <g transform="translate(126.163709 191.99625) scale(0.08 -0.08)">
       <defs>
        <path id="ArialMT-32" d="M 3222 541 
L 3222 0 
L 194 0 
Q 188 203 259 391 
Q 375 700 629 1000 
Q 884 1300 1366 1694 
Q 2113 2306 2375 2664 
Q 2638 3022 2638 3341 
Q 2638 3675 2398 3904 
Q 2159 4134 1775 4134 
Q 1369 4134 1125 3890 
Q 881 3647 878 3216 
L 300 3275 
Q 359 3922 746 4261 
Q 1134 4600 1788 4600 
Q 2447 4600 2831 4234 
Q 3216 3869 3216 3328 
Q 3216 3053 3103 2787 
Q 2991 2522 2730 2228 
Q 2469 1934 1863 1422 
Q 1356 997 1212 845 
Q 1069 694 975 541 
L 3222 541 
z
" transform="scale(0.015625)"/>
       </defs>
       <use xlink:href="#ArialMT-32"/>
       <use xlink:href="#ArialMT-30" x="55.615234"/>
       <use xlink:href="#ArialMT-30" x="111.230469"/>
      </g>
     </g>
    </g>
    <g id="text_4">
     <!-- Isometric Torque (Nm) -->
     <g transform="translate(50.725625 203.41) scale(0.08 -0.08)">
      <defs>
       <path id="ArialMT-49" d="M 597 0 
L 597 4581 
L 1203 4581 
L 1203 0 
L 597 0 
z
" transform="scale(0.015625)"/>
       <path id="ArialMT-73" d="M 197 991 
L 753 1078 
Q 800 744 1014 566 
Q 1228 388 1613 388 
Q 2000 388 2187 545 
Q 2375 703 2375 916 
Q 2375 1106 2209 1216 
Q 2094 1291 1634 1406 
Q 1016 1563 777 1677 
Q 538 1791 414 1992 
Q 291 2194 291 2438 
Q 291 2659 392 2848 
Q 494 3038 669 3163 
Q 800 3259 1026 3326 
Q 1253 3394 1513 3394 
Q 1903 3394 2198 3281 
Q 2494 3169 2634 2976 
Q 2775 2784 2828 2463 
L 2278 2388 
Q 2241 2644 2061 2787 
Q 1881 2931 1553 2931 
Q 1166 2931 1000 2803 
Q 834 2675 834 2503 
Q 834 2394 903 2306 
Q 972 2216 1119 2156 
Q 1203 2125 1616 2013 
Q 2213 1853 2448 1751 
Q 2684 1650 2818 1456 
Q 2953 1263 2953 975 
Q 2953 694 2789 445 
Q 2625 197 2315 61 
Q 2006 -75 1616 -75 
Q 969 -75 630 194 
Q 291 463 197 991 
z
" transform="scale(0.015625)"/>
       <path id="ArialMT-6f" d="M 213 1659 
Q 213 2581 725 3025 
Q 1153 3394 1769 3394 
Q 2453 3394 2887 2945 
Q 3322 2497 3322 1706 
Q 3322 1066 3130 698 
Q 2938 331 2570 128 
Q 2203 -75 1769 -75 
Q 1072 -75 642 372 
Q 213 819 213 1659 
z
M 791 1659 
Q 791 1022 1069 705 
Q 1347 388 1769 388 
Q 2188 388 2466 706 
Q 2744 1025 2744 1678 
Q 2744 2294 2464 2611 
Q 2184 2928 1769 2928 
Q 1347 2928 1069 2612 
Q 791 2297 791 1659 
z
" transform="scale(0.015625)"/>
       <path id="ArialMT-6d" d="M 422 0 
L 422 3319 
L 925 3319 
L 925 2853 
Q 1081 3097 1340 3245 
Q 1600 3394 1931 3394 
Q 2300 3394 2536 3241 
Q 2772 3088 2869 2813 
Q 3263 3394 3894 3394 
Q 4388 3394 4653 3120 
Q 4919 2847 4919 2278 
L 4919 0 
L 4359 0 
L 4359 2091 
Q 4359 2428 4304 2576 
Q 4250 2725 4106 2815 
Q 3963 2906 3769 2906 
Q 3419 2906 3187 2673 
Q 2956 2441 2956 1928 
L 2956 0 
L 2394 0 
L 2394 2156 
Q 2394 2531 2256 2718 
Q 2119 2906 1806 2906 
Q 1569 2906 1367 2781 
Q 1166 2656 1075 2415 
Q 984 2175 984 1722 
L 984 0 
L 422 0 
z
" transform="scale(0.015625)"/>
       <path id="ArialMT-65" d="M 2694 1069 
L 3275 997 
Q 3138 488 2766 206 
Q 2394 -75 1816 -75 
Q 1088 -75 661 373 
Q 234 822 234 1631 
Q 234 2469 665 2931 
Q 1097 3394 1784 3394 
Q 2450 3394 2872 2941 
Q 3294 2488 3294 1666 
Q 3294 1616 3291 1516 
L 816 1516 
Q 847 969 1125 678 
Q 1403 388 1819 388 
Q 2128 388 2347 550 
Q 2566 713 2694 1069 
z
M 847 1978 
L 2700 1978 
Q 2663 2397 2488 2606 
Q 2219 2931 1791 2931 
Q 1403 2931 1139 2672 
Q 875 2413 847 1978 
z
" transform="scale(0.015625)"/>
       <path id="ArialMT-74" d="M 1650 503 
L 1731 6 
Q 1494 -44 1306 -44 
Q 1000 -44 831 53 
Q 663 150 594 308 
Q 525 466 525 972 
L 525 2881 
L 113 2881 
L 113 3319 
L 525 3319 
L 525 4141 
L 1084 4478 
L 1084 3319 
L 1650 3319 
L 1650 2881 
L 1084 2881 
L 1084 941 
Q 1084 700 1114 631 
Q 1144 563 1211 522 
Q 1278 481 1403 481 
Q 1497 481 1650 503 
z
" transform="scale(0.015625)"/>
       <path id="ArialMT-72" d="M 416 0 
L 416 3319 
L 922 3319 
L 922 2816 
Q 1116 3169 1280 3281 
Q 1444 3394 1641 3394 
Q 1925 3394 2219 3213 
L 2025 2691 
Q 1819 2813 1613 2813 
Q 1428 2813 1281 2702 
Q 1134 2591 1072 2394 
Q 978 2094 978 1738 
L 978 0 
L 416 0 
z
" transform="scale(0.015625)"/>
       <path id="ArialMT-69" d="M 425 3934 
L 425 4581 
L 988 4581 
L 988 3934 
L 425 3934 
z
M 425 0 
L 425 3319 
L 988 3319 
L 988 0 
L 425 0 
z
" transform="scale(0.015625)"/>
       <path id="ArialMT-63" d="M 2588 1216 
L 3141 1144 
Q 3050 572 2676 248 
Q 2303 -75 1759 -75 
Q 1078 -75 664 370 
Q 250 816 250 1647 
Q 250 2184 428 2587 
Q 606 2991 970 3192 
Q 1334 3394 1763 3394 
Q 2303 3394 2647 3120 
Q 2991 2847 3088 2344 
L 2541 2259 
Q 2463 2594 2264 2762 
Q 2066 2931 1784 2931 
Q 1359 2931 1093 2626 
Q 828 2322 828 1663 
Q 828 994 1084 691 
Q 1341 388 1753 388 
Q 2084 388 2306 591 
Q 2528 794 2588 1216 
z
" transform="scale(0.015625)"/>
       <path id="ArialMT-20" transform="scale(0.015625)"/>
       <path id="ArialMT-54" d="M 1659 0 
L 1659 4041 
L 150 4041 
L 150 4581 
L 3781 4581 
L 3781 4041 
L 2266 4041 
L 2266 0 
L 1659 0 
z
" transform="scale(0.015625)"/>
       <path id="ArialMT-71" d="M 2538 -1272 
L 2538 353 
Q 2406 169 2170 47 
Q 1934 -75 1669 -75 
Q 1078 -75 651 397 
Q 225 869 225 1691 
Q 225 2191 398 2587 
Q 572 2984 901 3189 
Q 1231 3394 1625 3394 
Q 2241 3394 2594 2875 
L 2594 3319 
L 3100 3319 
L 3100 -1272 
L 2538 -1272 
z
M 803 1669 
Q 803 1028 1072 708 
Q 1341 388 1716 388 
Q 2075 388 2334 692 
Q 2594 997 2594 1619 
Q 2594 2281 2320 2615 
Q 2047 2950 1678 2950 
Q 1313 2950 1058 2639 
Q 803 2328 803 1669 
z
" transform="scale(0.015625)"/>
       <path id="ArialMT-75" d="M 2597 0 
L 2597 488 
Q 2209 -75 1544 -75 
Q 1250 -75 995 37 
Q 741 150 617 320 
Q 494 491 444 738 
Q 409 903 409 1263 
L 409 3319 
L 972 3319 
L 972 1478 
Q 972 1038 1006 884 
Q 1059 663 1231 536 
Q 1403 409 1656 409 
Q 1909 409 2131 539 
Q 2353 669 2445 892 
Q 2538 1116 2538 1541 
L 2538 3319 
L 3100 3319 
L 3100 0 
L 2597 0 
z
" transform="scale(0.015625)"/>
       <path id="ArialMT-28" d="M 1497 -1347 
Q 1031 -759 709 28 
Q 388 816 388 1659 
Q 388 2403 628 3084 
Q 909 3875 1497 4659 
L 1900 4659 
Q 1522 4009 1400 3731 
Q 1209 3300 1100 2831 
Q 966 2247 966 1656 
Q 966 153 1900 -1347 
L 1497 -1347 
z
" transform="scale(0.015625)"/>
       <path id="ArialMT-4e" d="M 488 0 
L 488 4581 
L 1109 4581 
L 3516 984 
L 3516 4581 
L 4097 4581 
L 4097 0 
L 3475 0 
L 1069 3600 
L 1069 0 
L 488 0 
z
" transform="scale(0.015625)"/>
       <path id="ArialMT-29" d="M 791 -1347 
L 388 -1347 
Q 1322 153 1322 1656 
Q 1322 2244 1188 2822 
Q 1081 3291 891 3722 
Q 769 4003 388 4659 
L 791 4659 
Q 1378 3875 1659 3084 
Q 1900 2403 1900 1659 
Q 1900 816 1576 28 
Q 1253 -759 791 -1347 
z
" transform="scale(0.015625)"/>
      </defs>
      <use xlink:href="#ArialMT-49"/>
      <use xlink:href="#ArialMT-73" x="27.783203"/>
      <use xlink:href="#ArialMT-6f" x="77.783203"/>
      <use xlink:href="#ArialMT-6d" x="133.398438"/>
      <use xlink:href="#ArialMT-65" x="216.699219"/>
      <use xlink:href="#ArialMT-74" x="272.314453"/>
      <use xlink:href="#ArialMT-72" x="300.097656"/>
      <use xlink:href="#ArialMT-69" x="333.398438"/>
      <use xlink:href="#ArialMT-63" x="355.615234"/>
      <use xlink:href="#ArialMT-20" x="405.615234"/>
      <use xlink:href="#ArialMT-54" x="431.648438"/>
      <use xlink:href="#ArialMT-6f" x="481.607422"/>
      <use xlink:href="#ArialMT-72" x="537.222656"/>
      <use xlink:href="#ArialMT-71" x="570.523438"/>
      <use xlink:href="#ArialMT-75" x="626.138672"/>
      <use xlink:href="#ArialMT-65" x="681.753906"/>
      <use xlink:href="#ArialMT-20" x="737.369141"/>
      <use xlink:href="#ArialMT-28" x="765.152344"/>
      <use xlink:href="#ArialMT-4e" x="798.453125"/>
      <use xlink:href="#ArialMT-6d" x="870.669922"/>
      <use xlink:href="#ArialMT-29" x="953.970703"/>
     </g>
    </g>
   </g>
   <g id="matplotlib.axis_2">
    <g id="ytick_1">
     <g id="line2d_4">
      <defs>
       <path id="m285636d6b4" d="M 0 0 
L -3.5 0 
" style="stroke: #000000; stroke-width: 0.8"/>
      </defs>
      <g>
       <use xlink:href="#m285636d6b4" x="34.41375" y="161.289107" style="stroke: #000000; stroke-width: 0.8"/>
      </g>
     </g>
     <g id="text_5">
      <!-- 2 -->
      <g transform="translate(22.965 164.152232) scale(0.08 -0.08)">
       <use xlink:href="#ArialMT-32"/>
      </g>
     </g>
    </g>
    <g id="ytick_2">
     <g id="line2d_5">
      <g>
       <use xlink:href="#m285636d6b4" x="34.41375" y="133.261566" style="stroke: #000000; stroke-width: 0.8"/>
      </g>
     </g>
     <g id="text_6">
      <!-- 4 -->
      <g transform="translate(22.965 136.124691) scale(0.08 -0.08)">
       <defs>
        <path id="ArialMT-34" d="M 2069 0 
L 2069 1097 
L 81 1097 
L 81 1613 
L 2172 4581 
L 2631 4581 
L 2631 1613 
L 3250 1613 
L 3250 1097 
L 2631 1097 
L 2631 0 
L 2069 0 
z
M 2069 1613 
L 2069 3678 
L 634 1613 
L 2069 1613 
z
" transform="scale(0.015625)"/>
       </defs>
       <use xlink:href="#ArialMT-34"/>
      </g>
     </g>
    </g>
    <g id="ytick_3">
     <g id="line2d_6">
      <g>
       <use xlink:href="#m285636d6b4" x="34.41375" y="105.234025" style="stroke: #000000; stroke-width: 0.8"/>
      </g>
     </g>
     <g id="text_7">
      <!-- 6 -->
      <g transform="translate(22.965 108.09715) scale(0.08 -0.08)">
       <defs>
        <path id="ArialMT-36" d="M 3184 3459 
L 2625 3416 
Q 2550 3747 2413 3897 
Q 2184 4138 1850 4138 
Q 1581 4138 1378 3988 
Q 1113 3794 959 3422 
Q 806 3050 800 2363 
Q 1003 2672 1297 2822 
Q 1591 2972 1913 2972 
Q 2475 2972 2870 2558 
Q 3266 2144 3266 1488 
Q 3266 1056 3080 686 
Q 2894 316 2569 119 
Q 2244 -78 1831 -78 
Q 1128 -78 684 439 
Q 241 956 241 2144 
Q 241 3472 731 4075 
Q 1159 4600 1884 4600 
Q 2425 4600 2770 4297 
Q 3116 3994 3184 3459 
z
M 888 1484 
Q 888 1194 1011 928 
Q 1134 663 1356 523 
Q 1578 384 1822 384 
Q 2178 384 2434 671 
Q 2691 959 2691 1453 
Q 2691 1928 2437 2201 
Q 2184 2475 1800 2475 
Q 1419 2475 1153 2201 
Q 888 1928 888 1484 
z
" transform="scale(0.015625)"/>
       </defs>
       <use xlink:href="#ArialMT-36"/>
      </g>
     </g>
    </g>
    <g id="ytick_4">
     <g id="line2d_7">
      <g>
       <use xlink:href="#m285636d6b4" x="34.41375" y="77.206483" style="stroke: #000000; stroke-width: 0.8"/>
      </g>
     </g>
     <g id="text_8">
      <!-- 8 -->
      <g transform="translate(22.965 80.069608) scale(0.08 -0.08)">
       <defs>
        <path id="ArialMT-38" d="M 1131 2484 
Q 781 2613 612 2850 
Q 444 3088 444 3419 
Q 444 3919 803 4259 
Q 1163 4600 1759 4600 
Q 2359 4600 2725 4251 
Q 3091 3903 3091 3403 
Q 3091 3084 2923 2848 
Q 2756 2613 2416 2484 
Q 2838 2347 3058 2040 
Q 3278 1734 3278 1309 
Q 3278 722 2862 322 
Q 2447 -78 1769 -78 
Q 1091 -78 675 323 
Q 259 725 259 1325 
Q 259 1772 486 2073 
Q 713 2375 1131 2484 
z
M 1019 3438 
Q 1019 3113 1228 2906 
Q 1438 2700 1772 2700 
Q 2097 2700 2305 2904 
Q 2513 3109 2513 3406 
Q 2513 3716 2298 3927 
Q 2084 4138 1766 4138 
Q 1444 4138 1231 3931 
Q 1019 3725 1019 3438 
z
M 838 1322 
Q 838 1081 952 856 
Q 1066 631 1291 507 
Q 1516 384 1775 384 
Q 2178 384 2440 643 
Q 2703 903 2703 1303 
Q 2703 1709 2433 1975 
Q 2163 2241 1756 2241 
Q 1359 2241 1098 1978 
Q 838 1716 838 1322 
z
" transform="scale(0.015625)"/>
       </defs>
       <use xlink:href="#ArialMT-38"/>
      </g>
     </g>
    </g>
    <g id="ytick_5">
     <g id="line2d_8">
      <g>
       <use xlink:href="#m285636d6b4" x="34.41375" y="49.178942" style="stroke: #000000; stroke-width: 0.8"/>
      </g>
     </g>
     <g id="text_9">
      <!-- 10 -->
      <g transform="translate(18.51625 52.042067) scale(0.08 -0.08)">
       <use xlink:href="#ArialMT-31"/>
       <use xlink:href="#ArialMT-30" x="55.615234"/>
      </g>
     </g>
    </g>
    <g id="ytick_6">
     <g id="line2d_9">
      <g>
       <use xlink:href="#m285636d6b4" x="34.41375" y="21.1514" style="stroke: #000000; stroke-width: 0.8"/>
      </g>
     </g>
     <g id="text_10">
      <!-- 12 -->
      <g transform="translate(18.51625 24.014525) scale(0.08 -0.08)">
       <use xlink:href="#ArialMT-31"/>
       <use xlink:href="#ArialMT-32" x="55.615234"/>
      </g>
     </g>
    </g>
    <g id="text_11">
     <!-- Fat Fraction -->
     <g transform="translate(12.92625 117.448125) rotate(-90) scale(0.08 -0.08)">
      <defs>
       <path id="ArialMT-46" d="M 525 0 
L 525 4581 
L 3616 4581 
L 3616 4041 
L 1131 4041 
L 1131 2622 
L 3281 2622 
L 3281 2081 
L 1131 2081 
L 1131 0 
L 525 0 
z
" transform="scale(0.015625)"/>
       <path id="ArialMT-61" d="M 2588 409 
Q 2275 144 1986 34 
Q 1697 -75 1366 -75 
Q 819 -75 525 192 
Q 231 459 231 875 
Q 231 1119 342 1320 
Q 453 1522 633 1644 
Q 813 1766 1038 1828 
Q 1203 1872 1538 1913 
Q 2219 1994 2541 2106 
Q 2544 2222 2544 2253 
Q 2544 2597 2384 2738 
Q 2169 2928 1744 2928 
Q 1347 2928 1158 2789 
Q 969 2650 878 2297 
L 328 2372 
Q 403 2725 575 2942 
Q 747 3159 1072 3276 
Q 1397 3394 1825 3394 
Q 2250 3394 2515 3294 
Q 2781 3194 2906 3042 
Q 3031 2891 3081 2659 
Q 3109 2516 3109 2141 
L 3109 1391 
Q 3109 606 3145 398 
Q 3181 191 3288 0 
L 2700 0 
Q 2613 175 2588 409 
z
M 2541 1666 
Q 2234 1541 1622 1453 
Q 1275 1403 1131 1340 
Q 988 1278 909 1158 
Q 831 1038 831 891 
Q 831 666 1001 516 
Q 1172 366 1500 366 
Q 1825 366 2078 508 
Q 2331 650 2450 897 
Q 2541 1088 2541 1459 
L 2541 1666 
z
" transform="scale(0.015625)"/>
       <path id="ArialMT-6e" d="M 422 0 
L 422 3319 
L 928 3319 
L 928 2847 
Q 1294 3394 1984 3394 
Q 2284 3394 2536 3286 
Q 2788 3178 2913 3003 
Q 3038 2828 3088 2588 
Q 3119 2431 3119 2041 
L 3119 0 
L 2556 0 
L 2556 2019 
Q 2556 2363 2490 2533 
Q 2425 2703 2258 2804 
Q 2091 2906 1866 2906 
Q 1506 2906 1245 2678 
Q 984 2450 984 1813 
L 984 0 
L 422 0 
z
" transform="scale(0.015625)"/>
      </defs>
      <use xlink:href="#ArialMT-46"/>
      <use xlink:href="#ArialMT-61" x="61.083984"/>
      <use xlink:href="#ArialMT-74" x="116.699219"/>
      <use xlink:href="#ArialMT-20" x="144.482422"/>
      <use xlink:href="#ArialMT-46" x="172.265625"/>
      <use xlink:href="#ArialMT-72" x="233.349609"/>
      <use xlink:href="#ArialMT-61" x="266.650391"/>
      <use xlink:href="#ArialMT-63" x="322.265625"/>
      <use xlink:href="#ArialMT-74" x="372.265625"/>
      <use xlink:href="#ArialMT-69" x="400.048828"/>
      <use xlink:href="#ArialMT-6f" x="422.265625"/>
      <use xlink:href="#ArialMT-6e" x="477.880859"/>
     </g>
    </g>
   </g>
   <g id="line2d_10">
    <path d="M 39.486477 72.966005 
L 40.511271 73.777225 
L 41.536064 74.588445 
L 42.560857 75.399665 
L 43.585651 76.210885 
L 44.610444 77.022105 
L 45.635238 77.833325 
L 46.660031 78.644545 
L 47.684824 79.455765 
L 48.709618 80.266985 
L 49.734411 81.078204 
L 50.759205 81.889424 
L 51.783998 82.700644 
L 52.808791 83.511864 
L 53.833585 84.323084 
L 54.858378 85.134304 
L 55.883171 85.945524 
L 56.907965 86.756744 
L 57.932758 87.567964 
L 58.957552 88.379183 
L 59.982345 89.190403 
L 61.007138 90.001623 
L 62.031932 90.812843 
L 63.056725 91.624063 
L 64.081519 92.435283 
L 65.106312 93.246503 
L 66.131105 94.057723 
L 67.155899 94.868943 
L 68.180692 95.680163 
L 69.205486 96.491382 
L 70.230279 97.302602 
L 71.255072 98.113822 
L 72.279866 98.925042 
L 73.304659 99.736262 
L 74.329452 100.547482 
L 75.354246 101.358702 
L 76.379039 102.169922 
L 77.403833 102.981142 
L 78.428626 103.792362 
L 79.453419 104.603581 
L 80.478213 105.414801 
L 81.503006 106.226021 
L 82.5278 107.037241 
L 83.552593 107.848461 
L 84.577386 108.659681 
L 85.60218 109.470901 
L 86.626973 110.282121 
L 87.651767 111.093341 
L 88.67656 111.904561 
L 89.701353 112.71578 
L 90.726147 113.527 
L 91.75094 114.33822 
L 92.775733 115.14944 
L 93.800527 115.96066 
L 94.82532 116.77188 
L 95.850114 117.5831 
L 96.874907 118.39432 
L 97.8997 119.20554 
L 98.924494 120.016759 
L 99.949287 120.827979 
L 100.974081 121.639199 
L 101.998874 122.450419 
L 103.023667 123.261639 
L 104.048461 124.072859 
L 105.073254 124.884079 
L 106.098048 125.695299 
L 107.122841 126.506519 
L 108.147634 127.317739 
L 109.172428 128.128958 
L 110.197221 128.940178 
L 111.222014 129.751398 
L 112.246808 130.562618 
L 113.271601 131.373838 
L 114.296395 132.185058 
L 115.321188 132.996278 
L 116.345981 133.807498 
L 117.370775 134.618718 
L 118.395568 135.429938 
L 119.420362 136.241157 
L 120.445155 137.052377 
L 121.469948 137.863597 
L 122.494742 138.674817 
L 123.519535 139.486037 
L 124.544329 140.297257 
L 125.569122 141.108477 
L 126.593915 141.919697 
L 127.618709 142.730917 
L 128.643502 143.542137 
L 129.668295 144.353356 
L 130.693089 145.164576 
L 131.717882 145.975796 
L 132.742676 146.787016 
L 133.767469 147.598236 
L 134.792262 148.409456 
L 135.817056 149.220676 
L 136.841849 150.031896 
L 137.866643 150.843116 
L 138.891436 151.654335 
L 139.916229 152.465555 
L 140.941023 153.276775 
" clip-path="url(#pe697ee3ce9)" style="fill: none; stroke: #000000; stroke-width: 2; stroke-linecap: square"/>
   </g>
   <g id="patch_3">
    <path d="M 34.41375 179.27 
L 34.41375 12.95 
" style="fill: none; stroke: #000000; stroke-width: 0.8; stroke-linejoin: miter; stroke-linecap: square"/>
   </g>
   <g id="patch_4">
    <path d="M 34.41375 179.27 
L 146.01375 179.27 
" style="fill: none; stroke: #000000; stroke-width: 0.8; stroke-linejoin: miter; stroke-linecap: square"/>
   </g>
   <g id="text_12">
    <!-- r=-0.62, p=.005 -->
    <g transform="translate(62.861875 12.95) scale(0.08 -0.08)">
     <defs>
      <path id="ArialMT-3d" d="M 3381 2694 
L 356 2694 
L 356 3219 
L 3381 3219 
L 3381 2694 
z
M 3381 1303 
L 356 1303 
L 356 1828 
L 3381 1828 
L 3381 1303 
z
" transform="scale(0.015625)"/>
      <path id="ArialMT-2d" d="M 203 1375 
L 203 1941 
L 1931 1941 
L 1931 1375 
L 203 1375 
z
" transform="scale(0.015625)"/>
      <path id="ArialMT-2e" d="M 581 0 
L 581 641 
L 1222 641 
L 1222 0 
L 581 0 
z
" transform="scale(0.015625)"/>
      <path id="ArialMT-2c" d="M 569 0 
L 569 641 
L 1209 641 
L 1209 0 
Q 1209 -353 1084 -570 
Q 959 -788 688 -906 
L 531 -666 
Q 709 -588 793 -436 
Q 878 -284 888 0 
L 569 0 
z
" transform="scale(0.015625)"/>
      <path id="ArialMT-70" d="M 422 -1272 
L 422 3319 
L 934 3319 
L 934 2888 
Q 1116 3141 1344 3267 
Q 1572 3394 1897 3394 
Q 2322 3394 2647 3175 
Q 2972 2956 3137 2557 
Q 3303 2159 3303 1684 
Q 3303 1175 3120 767 
Q 2938 359 2589 142 
Q 2241 -75 1856 -75 
Q 1575 -75 1351 44 
Q 1128 163 984 344 
L 984 -1272 
L 422 -1272 
z
M 931 1641 
Q 931 1000 1190 694 
Q 1450 388 1819 388 
Q 2194 388 2461 705 
Q 2728 1022 2728 1688 
Q 2728 2322 2467 2637 
Q 2206 2953 1844 2953 
Q 1484 2953 1207 2617 
Q 931 2281 931 1641 
z
" transform="scale(0.015625)"/>
     </defs>
     <use xlink:href="#ArialMT-72"/>
     <use xlink:href="#ArialMT-3d" x="33.300781"/>
     <use xlink:href="#ArialMT-2d" x="91.699219"/>
     <use xlink:href="#ArialMT-30" x="125"/>
     <use xlink:href="#ArialMT-2e" x="180.615234"/>
     <use xlink:href="#ArialMT-36" x="208.398438"/>
     <use xlink:href="#ArialMT-32" x="264.013672"/>
     <use xlink:href="#ArialMT-2c" x="319.628906"/>
     <use xlink:href="#ArialMT-20" x="347.412109"/>
     <use xlink:href="#ArialMT-70" x="375.195312"/>
     <use xlink:href="#ArialMT-3d" x="430.810547"/>
     <use xlink:href="#ArialMT-2e" x="489.208984"/>
     <use xlink:href="#ArialMT-30" x="516.992188"/>
     <use xlink:href="#ArialMT-30" x="572.607422"/>
     <use xlink:href="#ArialMT-35" x="628.222656"/>
    </g>
   </g>
  </g>
  <g id="axes_2">
   <g id="patch_5">
    <path d="M 179.49375 179.27 
L 291.09375 179.27 
L 291.09375 12.95 
L 179.49375 12.95 
z
" style="fill: #ffffff"/>
   </g>
   <g id="PathCollection_2">
    <g clip-path="url(#p7043390672)">
     <use xlink:href="#m335059a193" x="235.211879" y="94.7757" style="fill: #28aeed; fill-opacity: 0.8; stroke: #28aeed; stroke-opacity: 0.8"/>
     <use xlink:href="#m335059a193" x="216.912019" y="109.787102" style="fill: #28aeed; fill-opacity: 0.8; stroke: #28aeed; stroke-opacity: 0.8"/>
     <use xlink:href="#m335059a193" x="279.235603" y="127.078139" style="fill: #28aeed; fill-opacity: 0.8; stroke: #28aeed; stroke-opacity: 0.8"/>
     <use xlink:href="#m335059a193" x="286.021023" y="20.51" style="fill: #28aeed; fill-opacity: 0.8; stroke: #28aeed; stroke-opacity: 0.8"/>
     <use xlink:href="#m335059a193" x="216.35963" y="101.255022" style="fill: #28aeed; fill-opacity: 0.8; stroke: #28aeed; stroke-opacity: 0.8"/>
     <use xlink:href="#m335059a193" x="207.296996" y="108.339765" style="fill: #28aeed; fill-opacity: 0.8; stroke: #28aeed; stroke-opacity: 0.8"/>
     <use xlink:href="#m335059a193" x="221.95954" y="107.212275" style="fill: #28aeed; fill-opacity: 0.8; stroke: #28aeed; stroke-opacity: 0.8"/>
     <use xlink:href="#m335059a193" x="239.162077" y="125.37846" style="fill: #28aeed; fill-opacity: 0.8; stroke: #28aeed; stroke-opacity: 0.8"/>
     <use xlink:href="#m335059a193" x="258.674723" y="60.49075" style="fill: #28aeed; fill-opacity: 0.8; stroke: #28aeed; stroke-opacity: 0.8"/>
     <use xlink:href="#m335059a193" x="204.791101" y="122.358223" style="fill: #28aeed; fill-opacity: 0.8; stroke: #28aeed; stroke-opacity: 0.8"/>
     <use xlink:href="#m335059a193" x="269.172926" y="98.538222" style="fill: #28aeed; fill-opacity: 0.8; stroke: #28aeed; stroke-opacity: 0.8"/>
     <use xlink:href="#m335059a193" x="211.139287" y="150.744182" style="fill: #28aeed; fill-opacity: 0.8; stroke: #28aeed; stroke-opacity: 0.8"/>
     <use xlink:href="#m335059a193" x="217.7242" y="170.946056" style="fill: #28aeed; fill-opacity: 0.8; stroke: #28aeed; stroke-opacity: 0.8"/>
     <use xlink:href="#m335059a193" x="184.566477" y="141.930382" style="fill: #28aeed; fill-opacity: 0.8; stroke: #28aeed; stroke-opacity: 0.8"/>
     <use xlink:href="#m335059a193" x="220.721614" y="164.889345" style="fill: #28aeed; fill-opacity: 0.8; stroke: #28aeed; stroke-opacity: 0.8"/>
     <use xlink:href="#m335059a193" x="259.983551" y="102.581141" style="fill: #28aeed; fill-opacity: 0.8; stroke: #28aeed; stroke-opacity: 0.8"/>
     <use xlink:href="#m335059a193" x="186.654762" y="134.758635" style="fill: #28aeed; fill-opacity: 0.8; stroke: #28aeed; stroke-opacity: 0.8"/>
     <use xlink:href="#m335059a193" x="240.479254" y="102.335734" style="fill: #28aeed; fill-opacity: 0.8; stroke: #28aeed; stroke-opacity: 0.8"/>
     <use xlink:href="#m335059a193" x="237.572697" y="90.278434" style="fill: #28aeed; fill-opacity: 0.8; stroke: #28aeed; stroke-opacity: 0.8"/>
    </g>
   </g>
   <g id="PolyCollection_2">
    <path d="M 184.566477 125.36621 
L 184.566477 171.71 
L 185.591271 170.625316 
L 186.616064 169.429294 
L 187.640857 168.14141 
L 188.665651 166.804144 
L 189.690444 165.656812 
L 190.715238 164.443795 
L 191.740031 163.145875 
L 192.764824 162.021598 
L 193.789618 160.897133 
L 194.814411 159.669294 
L 195.839205 158.438193 
L 196.863998 157.177392 
L 197.888791 155.896204 
L 198.913585 154.740394 
L 199.938378 153.512654 
L 200.963171 152.374905 
L 201.987965 151.092011 
L 203.012758 150.212685 
L 204.037552 149.330132 
L 205.062345 147.966897 
L 206.087138 146.57056 
L 207.111932 145.22176 
L 208.136725 144.111412 
L 209.161519 143.001065 
L 210.186312 141.664413 
L 211.211105 140.798274 
L 212.235899 139.787613 
L 213.260692 138.757917 
L 214.285486 137.90534 
L 215.310279 137.013093 
L 216.335072 136.189952 
L 217.359866 135.377974 
L 218.384659 134.425893 
L 219.409452 133.672829 
L 220.434246 132.612164 
L 221.459039 131.607324 
L 222.483833 130.966069 
L 223.508626 130.32997 
L 224.533419 129.496589 
L 225.558213 128.663958 
L 226.583006 128.041781 
L 227.6078 127.445664 
L 228.632593 126.849792 
L 229.657386 126.404123 
L 230.68218 125.694485 
L 231.706973 125.05725 
L 232.731767 124.431864 
L 233.75656 123.902441 
L 234.781353 123.358744 
L 235.806147 123.056705 
L 236.83094 122.521179 
L 237.855733 122.256604 
L 238.880527 121.861052 
L 239.90532 121.367631 
L 240.930114 120.883493 
L 241.954907 120.467863 
L 242.9797 120.162353 
L 244.004494 119.837355 
L 245.029287 119.462391 
L 246.054081 119.0277 
L 247.078874 118.542207 
L 248.103667 118.25439 
L 249.128461 117.770726 
L 250.153254 117.147123 
L 251.178048 116.704294 
L 252.202841 116.615879 
L 253.227634 116.273682 
L 254.252428 115.869178 
L 255.277221 115.474343 
L 256.302014 115.082909 
L 257.326808 114.922303 
L 258.351601 114.761698 
L 259.376395 114.59902 
L 260.401188 114.434205 
L 261.425981 114.268209 
L 262.450775 114.000328 
L 263.475568 113.562157 
L 264.500362 113.343421 
L 265.525155 113.160409 
L 266.549948 112.938732 
L 267.574742 112.637824 
L 268.599535 112.326665 
L 269.624329 112.256564 
L 270.649122 111.933063 
L 271.673915 111.596561 
L 272.698709 111.330228 
L 273.723502 111.130951 
L 274.748295 110.845696 
L 275.773089 110.562901 
L 276.797882 110.280106 
L 277.822676 109.997276 
L 278.847469 109.709011 
L 279.872262 109.432129 
L 280.897056 109.141429 
L 281.921849 108.861958 
L 282.946643 108.582358 
L 283.971436 108.294528 
L 284.996229 108.006698 
L 286.021023 107.718868 
L 286.021023 38.351341 
L 286.021023 38.351341 
L 284.996229 39.704754 
L 283.971436 41.058168 
L 282.946643 42.411581 
L 281.921849 43.764994 
L 280.897056 45.003778 
L 279.872262 46.132564 
L 278.847469 47.261349 
L 277.822676 48.525819 
L 276.797882 49.73343 
L 275.773089 50.844075 
L 274.748295 51.99042 
L 273.723502 53.137311 
L 272.698709 54.284203 
L 271.673915 55.431094 
L 270.649122 56.577986 
L 269.624329 57.998268 
L 268.599535 59.348779 
L 267.574742 60.499325 
L 266.549948 61.651755 
L 265.525155 62.856759 
L 264.500362 64.098066 
L 263.475568 65.199693 
L 262.450775 66.301319 
L 261.425981 67.434744 
L 260.401188 68.547573 
L 259.376395 69.695534 
L 258.351601 70.879216 
L 257.326808 72.249543 
L 256.302014 73.409276 
L 255.277221 74.56901 
L 254.252428 75.728743 
L 253.227634 76.895189 
L 252.202841 78.145391 
L 251.178048 79.391869 
L 250.153254 80.424011 
L 249.128461 81.534091 
L 248.103667 82.695811 
L 247.078874 83.957513 
L 246.054081 85.052351 
L 245.029287 86.175864 
L 244.004494 87.333525 
L 242.9797 88.491186 
L 241.954907 89.544211 
L 240.930114 90.538399 
L 239.90532 91.601073 
L 238.880527 92.728023 
L 237.855733 93.855387 
L 236.83094 94.921642 
L 235.806147 95.843277 
L 234.781353 96.891452 
L 233.75656 97.911338 
L 232.731767 98.990664 
L 231.706973 100.028367 
L 230.68218 101.086244 
L 229.657386 101.999258 
L 228.632593 102.939794 
L 227.6078 103.943425 
L 226.583006 104.884799 
L 225.558213 105.915088 
L 224.533419 106.827938 
L 223.508626 107.667862 
L 222.483833 108.324288 
L 221.459039 109.232115 
L 220.434246 110.046857 
L 219.409452 110.722336 
L 218.384659 111.306041 
L 217.359866 111.944554 
L 216.335072 112.676245 
L 215.310279 113.353627 
L 214.285486 113.830449 
L 213.260692 114.375195 
L 212.235899 114.925288 
L 211.211105 115.537727 
L 210.186312 115.955344 
L 209.161519 116.738861 
L 208.136725 117.341236 
L 207.111932 117.941549 
L 206.087138 118.295199 
L 205.062345 118.715717 
L 204.037552 118.989964 
L 203.012758 119.267413 
L 201.987965 119.395947 
L 200.963171 119.574333 
L 199.938378 119.787573 
L 198.913585 120.094636 
L 197.888791 120.472597 
L 196.863998 120.762604 
L 195.839205 121.149513 
L 194.814411 121.606483 
L 193.789618 121.984445 
L 192.764824 122.263366 
L 191.740031 122.647263 
L 190.715238 123.097219 
L 189.690444 123.496292 
L 188.665651 123.874254 
L 187.640857 124.252216 
L 186.616064 124.514524 
L 185.591271 124.90342 
L 184.566477 125.36621 
z
" clip-path="url(#p7043390672)" style="fill-opacity: 0.15"/>
   </g>
   <g id="matplotlib.axis_3">
    <g id="xtick_4">
     <g id="line2d_11">
      <g>
       <use xlink:href="#m30251589de" x="205.687593" y="179.27" style="stroke: #000000; stroke-width: 0.8"/>
      </g>
     </g>
     <g id="text_13">
      <!-- 40 -->
      <g transform="translate(201.238843 191.99625) scale(0.08 -0.08)">
       <use xlink:href="#ArialMT-34"/>
       <use xlink:href="#ArialMT-30" x="55.615234"/>
      </g>
     </g>
    </g>
    <g id="xtick_5">
     <g id="line2d_12">
      <g>
       <use xlink:href="#m30251589de" x="236.938438" y="179.27" style="stroke: #000000; stroke-width: 0.8"/>
      </g>
     </g>
     <g id="text_14">
      <!-- 60 -->
      <g transform="translate(232.489688 191.99625) scale(0.08 -0.08)">
       <use xlink:href="#ArialMT-36"/>
       <use xlink:href="#ArialMT-30" x="55.615234"/>
      </g>
     </g>
    </g>
    <g id="xtick_6">
     <g id="line2d_13">
      <g>
       <use xlink:href="#m30251589de" x="268.189282" y="179.27" style="stroke: #000000; stroke-width: 0.8"/>
      </g>
     </g>
     <g id="text_15">
      <!-- 80 -->
      <g transform="translate(263.740532 191.99625) scale(0.08 -0.08)">
       <use xlink:href="#ArialMT-38"/>
       <use xlink:href="#ArialMT-30" x="55.615234"/>
      </g>
     </g>
    </g>
    <g id="text_16">
     <!-- Knee Extension Moment (Nm) -->
     <g transform="translate(181.720625 203.41) scale(0.08 -0.08)">
      <defs>
       <path id="ArialMT-4b" d="M 469 0 
L 469 4581 
L 1075 4581 
L 1075 2309 
L 3350 4581 
L 4172 4581 
L 2250 2725 
L 4256 0 
L 3456 0 
L 1825 2319 
L 1075 1588 
L 1075 0 
L 469 0 
z
" transform="scale(0.015625)"/>
       <path id="ArialMT-45" d="M 506 0 
L 506 4581 
L 3819 4581 
L 3819 4041 
L 1113 4041 
L 1113 2638 
L 3647 2638 
L 3647 2100 
L 1113 2100 
L 1113 541 
L 3925 541 
L 3925 0 
L 506 0 
z
" transform="scale(0.015625)"/>
       <path id="ArialMT-78" d="M 47 0 
L 1259 1725 
L 138 3319 
L 841 3319 
L 1350 2541 
Q 1494 2319 1581 2169 
Q 1719 2375 1834 2534 
L 2394 3319 
L 3066 3319 
L 1919 1756 
L 3153 0 
L 2463 0 
L 1781 1031 
L 1600 1309 
L 728 0 
L 47 0 
z
" transform="scale(0.015625)"/>
       <path id="ArialMT-4d" d="M 475 0 
L 475 4581 
L 1388 4581 
L 2472 1338 
Q 2622 884 2691 659 
Q 2769 909 2934 1394 
L 4031 4581 
L 4847 4581 
L 4847 0 
L 4263 0 
L 4263 3834 
L 2931 0 
L 2384 0 
L 1059 3900 
L 1059 0 
L 475 0 
z
" transform="scale(0.015625)"/>
      </defs>
      <use xlink:href="#ArialMT-4b"/>
      <use xlink:href="#ArialMT-6e" x="66.699219"/>
      <use xlink:href="#ArialMT-65" x="122.314453"/>
      <use xlink:href="#ArialMT-65" x="177.929688"/>
      <use xlink:href="#ArialMT-20" x="233.544922"/>
      <use xlink:href="#ArialMT-45" x="261.328125"/>
      <use xlink:href="#ArialMT-78" x="328.027344"/>
      <use xlink:href="#ArialMT-74" x="378.027344"/>
      <use xlink:href="#ArialMT-65" x="405.810547"/>
      <use xlink:href="#ArialMT-6e" x="461.425781"/>
      <use xlink:href="#ArialMT-73" x="517.041016"/>
      <use xlink:href="#ArialMT-69" x="567.041016"/>
      <use xlink:href="#ArialMT-6f" x="589.257812"/>
      <use xlink:href="#ArialMT-6e" x="644.873047"/>
      <use xlink:href="#ArialMT-20" x="700.488281"/>
      <use xlink:href="#ArialMT-4d" x="728.271484"/>
      <use xlink:href="#ArialMT-6f" x="811.572266"/>
      <use xlink:href="#ArialMT-6d" x="867.1875"/>
      <use xlink:href="#ArialMT-65" x="950.488281"/>
      <use xlink:href="#ArialMT-6e" x="1006.103516"/>
      <use xlink:href="#ArialMT-74" x="1061.71875"/>
      <use xlink:href="#ArialMT-20" x="1089.501953"/>
      <use xlink:href="#ArialMT-28" x="1117.285156"/>
      <use xlink:href="#ArialMT-4e" x="1150.585938"/>
      <use xlink:href="#ArialMT-6d" x="1222.802734"/>
      <use xlink:href="#ArialMT-29" x="1306.103516"/>
     </g>
    </g>
   </g>
   <g id="matplotlib.axis_4">
    <g id="ytick_7">
     <g id="line2d_14">
      <g>
       <use xlink:href="#m285636d6b4" x="179.49375" y="146.361676" style="stroke: #000000; stroke-width: 0.8"/>
      </g>
     </g>
     <g id="text_17">
      <!-- −1 -->
      <g transform="translate(163.3725 149.224801) scale(0.08 -0.08)">
       <defs>
        <path id="ArialMT-2212" d="M 3381 1997 
L 356 1997 
L 356 2522 
L 3381 2522 
L 3381 1997 
z
" transform="scale(0.015625)"/>
       </defs>
       <use xlink:href="#ArialMT-2212"/>
       <use xlink:href="#ArialMT-31" x="58.398438"/>
      </g>
     </g>
    </g>
    <g id="ytick_8">
     <g id="line2d_15">
      <g>
       <use xlink:href="#m285636d6b4" x="179.49375" y="112.325661" style="stroke: #000000; stroke-width: 0.8"/>
      </g>
     </g>
     <g id="text_18">
      <!-- 0 -->
      <g transform="translate(168.045 115.188786) scale(0.08 -0.08)">
       <use xlink:href="#ArialMT-30"/>
      </g>
     </g>
    </g>
    <g id="ytick_9">
     <g id="line2d_16">
      <g>
       <use xlink:href="#m285636d6b4" x="179.49375" y="78.289647" style="stroke: #000000; stroke-width: 0.8"/>
      </g>
     </g>
     <g id="text_19">
      <!-- 1 -->
      <g transform="translate(168.045 81.152772) scale(0.08 -0.08)">
       <use xlink:href="#ArialMT-31"/>
      </g>
     </g>
    </g>
    <g id="ytick_10">
     <g id="line2d_17">
      <g>
       <use xlink:href="#m285636d6b4" x="179.49375" y="44.253632" style="stroke: #000000; stroke-width: 0.8"/>
      </g>
     </g>
     <g id="text_20">
      <!-- 2 -->
      <g transform="translate(168.045 47.116757) scale(0.08 -0.08)">
       <use xlink:href="#ArialMT-32"/>
      </g>
     </g>
    </g>
    <g id="text_21">
     <!-- Radial Diffusivity (Standardized) -->
     <g transform="translate(157.68875 152.949375) rotate(-90) scale(0.08 -0.08)">
      <defs>
       <path id="ArialMT-52" d="M 503 0 
L 503 4581 
L 2534 4581 
Q 3147 4581 3465 4457 
Q 3784 4334 3975 4021 
Q 4166 3709 4166 3331 
Q 4166 2844 3850 2509 
Q 3534 2175 2875 2084 
Q 3116 1969 3241 1856 
Q 3506 1613 3744 1247 
L 4541 0 
L 3778 0 
L 3172 953 
Q 2906 1366 2734 1584 
Q 2563 1803 2427 1890 
Q 2291 1978 2150 2013 
Q 2047 2034 1813 2034 
L 1109 2034 
L 1109 0 
L 503 0 
z
M 1109 2559 
L 2413 2559 
Q 2828 2559 3062 2645 
Q 3297 2731 3419 2920 
Q 3541 3109 3541 3331 
Q 3541 3656 3305 3865 
Q 3069 4075 2559 4075 
L 1109 4075 
L 1109 2559 
z
" transform="scale(0.015625)"/>
       <path id="ArialMT-64" d="M 2575 0 
L 2575 419 
Q 2259 -75 1647 -75 
Q 1250 -75 917 144 
Q 584 363 401 755 
Q 219 1147 219 1656 
Q 219 2153 384 2558 
Q 550 2963 881 3178 
Q 1213 3394 1622 3394 
Q 1922 3394 2156 3267 
Q 2391 3141 2538 2938 
L 2538 4581 
L 3097 4581 
L 3097 0 
L 2575 0 
z
M 797 1656 
Q 797 1019 1065 703 
Q 1334 388 1700 388 
Q 2069 388 2326 689 
Q 2584 991 2584 1609 
Q 2584 2291 2321 2609 
Q 2059 2928 1675 2928 
Q 1300 2928 1048 2622 
Q 797 2316 797 1656 
z
" transform="scale(0.015625)"/>
       <path id="ArialMT-6c" d="M 409 0 
L 409 4581 
L 972 4581 
L 972 0 
L 409 0 
z
" transform="scale(0.015625)"/>
       <path id="ArialMT-44" d="M 494 0 
L 494 4581 
L 2072 4581 
Q 2606 4581 2888 4516 
Q 3281 4425 3559 4188 
Q 3922 3881 4101 3404 
Q 4281 2928 4281 2316 
Q 4281 1794 4159 1391 
Q 4038 988 3847 723 
Q 3656 459 3429 307 
Q 3203 156 2883 78 
Q 2563 0 2147 0 
L 494 0 
z
M 1100 541 
L 2078 541 
Q 2531 541 2789 625 
Q 3047 709 3200 863 
Q 3416 1078 3536 1442 
Q 3656 1806 3656 2325 
Q 3656 3044 3420 3430 
Q 3184 3816 2847 3947 
Q 2603 4041 2063 4041 
L 1100 4041 
L 1100 541 
z
" transform="scale(0.015625)"/>
       <path id="ArialMT-66" d="M 556 0 
L 556 2881 
L 59 2881 
L 59 3319 
L 556 3319 
L 556 3672 
Q 556 4006 616 4169 
Q 697 4388 901 4523 
Q 1106 4659 1475 4659 
Q 1713 4659 2000 4603 
L 1916 4113 
Q 1741 4144 1584 4144 
Q 1328 4144 1222 4034 
Q 1116 3925 1116 3625 
L 1116 3319 
L 1763 3319 
L 1763 2881 
L 1116 2881 
L 1116 0 
L 556 0 
z
" transform="scale(0.015625)"/>
       <path id="ArialMT-76" d="M 1344 0 
L 81 3319 
L 675 3319 
L 1388 1331 
Q 1503 1009 1600 663 
Q 1675 925 1809 1294 
L 2547 3319 
L 3125 3319 
L 1869 0 
L 1344 0 
z
" transform="scale(0.015625)"/>
       <path id="ArialMT-79" d="M 397 -1278 
L 334 -750 
Q 519 -800 656 -800 
Q 844 -800 956 -737 
Q 1069 -675 1141 -563 
Q 1194 -478 1313 -144 
Q 1328 -97 1363 -6 
L 103 3319 
L 709 3319 
L 1400 1397 
Q 1534 1031 1641 628 
Q 1738 1016 1872 1384 
L 2581 3319 
L 3144 3319 
L 1881 -56 
Q 1678 -603 1566 -809 
Q 1416 -1088 1222 -1217 
Q 1028 -1347 759 -1347 
Q 597 -1347 397 -1278 
z
" transform="scale(0.015625)"/>
       <path id="ArialMT-53" d="M 288 1472 
L 859 1522 
Q 900 1178 1048 958 
Q 1197 738 1509 602 
Q 1822 466 2213 466 
Q 2559 466 2825 569 
Q 3091 672 3220 851 
Q 3350 1031 3350 1244 
Q 3350 1459 3225 1620 
Q 3100 1781 2813 1891 
Q 2628 1963 1997 2114 
Q 1366 2266 1113 2400 
Q 784 2572 623 2826 
Q 463 3081 463 3397 
Q 463 3744 659 4045 
Q 856 4347 1234 4503 
Q 1613 4659 2075 4659 
Q 2584 4659 2973 4495 
Q 3363 4331 3572 4012 
Q 3781 3694 3797 3291 
L 3216 3247 
Q 3169 3681 2898 3903 
Q 2628 4125 2100 4125 
Q 1550 4125 1298 3923 
Q 1047 3722 1047 3438 
Q 1047 3191 1225 3031 
Q 1400 2872 2139 2705 
Q 2878 2538 3153 2413 
Q 3553 2228 3743 1945 
Q 3934 1663 3934 1294 
Q 3934 928 3725 604 
Q 3516 281 3123 101 
Q 2731 -78 2241 -78 
Q 1619 -78 1198 103 
Q 778 284 539 648 
Q 300 1013 288 1472 
z
" transform="scale(0.015625)"/>
       <path id="ArialMT-7a" d="M 125 0 
L 125 456 
L 2238 2881 
Q 1878 2863 1603 2863 
L 250 2863 
L 250 3319 
L 2963 3319 
L 2963 2947 
L 1166 841 
L 819 456 
Q 1197 484 1528 484 
L 3063 484 
L 3063 0 
L 125 0 
z
" transform="scale(0.015625)"/>
      </defs>
      <use xlink:href="#ArialMT-52"/>
      <use xlink:href="#ArialMT-61" x="72.216797"/>
      <use xlink:href="#ArialMT-64" x="127.832031"/>
      <use xlink:href="#ArialMT-69" x="183.447266"/>
      <use xlink:href="#ArialMT-61" x="205.664062"/>
      <use xlink:href="#ArialMT-6c" x="261.279297"/>
      <use xlink:href="#ArialMT-20" x="283.496094"/>
      <use xlink:href="#ArialMT-44" x="311.279297"/>
      <use xlink:href="#ArialMT-69" x="383.496094"/>
      <use xlink:href="#ArialMT-66" x="405.712891"/>
      <use xlink:href="#ArialMT-66" x="431.746094"/>
      <use xlink:href="#ArialMT-75" x="459.529297"/>
      <use xlink:href="#ArialMT-73" x="515.144531"/>
      <use xlink:href="#ArialMT-69" x="565.144531"/>
      <use xlink:href="#ArialMT-76" x="587.361328"/>
      <use xlink:href="#ArialMT-69" x="637.361328"/>
      <use xlink:href="#ArialMT-74" x="659.578125"/>
      <use xlink:href="#ArialMT-79" x="687.361328"/>
      <use xlink:href="#ArialMT-20" x="737.361328"/>
      <use xlink:href="#ArialMT-28" x="765.144531"/>
      <use xlink:href="#ArialMT-53" x="798.445312"/>
      <use xlink:href="#ArialMT-74" x="865.144531"/>
      <use xlink:href="#ArialMT-61" x="892.927734"/>
      <use xlink:href="#ArialMT-6e" x="948.542969"/>
      <use xlink:href="#ArialMT-64" x="1004.158203"/>
      <use xlink:href="#ArialMT-61" x="1059.773438"/>
      <use xlink:href="#ArialMT-72" x="1115.388672"/>
      <use xlink:href="#ArialMT-64" x="1148.689453"/>
      <use xlink:href="#ArialMT-69" x="1204.304688"/>
      <use xlink:href="#ArialMT-7a" x="1226.521484"/>
      <use xlink:href="#ArialMT-65" x="1276.521484"/>
      <use xlink:href="#ArialMT-64" x="1332.136719"/>
      <use xlink:href="#ArialMT-29" x="1387.751953"/>
     </g>
    </g>
   </g>
   <g id="line2d_18">
    <path d="M 184.566477 146.669938 
L 185.591271 145.915921 
L 186.616064 145.161904 
L 187.640857 144.407887 
L 188.665651 143.653869 
L 189.690444 142.899852 
L 190.715238 142.145835 
L 191.740031 141.391818 
L 192.764824 140.637801 
L 193.789618 139.883783 
L 194.814411 139.129766 
L 195.839205 138.375749 
L 196.863998 137.621732 
L 197.888791 136.867715 
L 198.913585 136.113697 
L 199.938378 135.35968 
L 200.963171 134.605663 
L 201.987965 133.851646 
L 203.012758 133.097629 
L 204.037552 132.343611 
L 205.062345 131.589594 
L 206.087138 130.835577 
L 207.111932 130.08156 
L 208.136725 129.327543 
L 209.161519 128.573526 
L 210.186312 127.819508 
L 211.211105 127.065491 
L 212.235899 126.311474 
L 213.260692 125.557457 
L 214.285486 124.80344 
L 215.310279 124.049422 
L 216.335072 123.295405 
L 217.359866 122.541388 
L 218.384659 121.787371 
L 219.409452 121.033354 
L 220.434246 120.279336 
L 221.459039 119.525319 
L 222.483833 118.771302 
L 223.508626 118.017285 
L 224.533419 117.263268 
L 225.558213 116.509251 
L 226.583006 115.755233 
L 227.6078 115.001216 
L 228.632593 114.247199 
L 229.657386 113.493182 
L 230.68218 112.739165 
L 231.706973 111.985147 
L 232.731767 111.23113 
L 233.75656 110.477113 
L 234.781353 109.723096 
L 235.806147 108.969079 
L 236.83094 108.215061 
L 237.855733 107.461044 
L 238.880527 106.707027 
L 239.90532 105.95301 
L 240.930114 105.198993 
L 241.954907 104.444975 
L 242.9797 103.690958 
L 244.004494 102.936941 
L 245.029287 102.182924 
L 246.054081 101.428907 
L 247.078874 100.67489 
L 248.103667 99.920872 
L 249.128461 99.166855 
L 250.153254 98.412838 
L 251.178048 97.658821 
L 252.202841 96.904804 
L 253.227634 96.150786 
L 254.252428 95.396769 
L 255.277221 94.642752 
L 256.302014 93.888735 
L 257.326808 93.134718 
L 258.351601 92.3807 
L 259.376395 91.626683 
L 260.401188 90.872666 
L 261.425981 90.118649 
L 262.450775 89.364632 
L 263.475568 88.610614 
L 264.500362 87.856597 
L 265.525155 87.10258 
L 266.549948 86.348563 
L 267.574742 85.594546 
L 268.599535 84.840529 
L 269.624329 84.086511 
L 270.649122 83.332494 
L 271.673915 82.578477 
L 272.698709 81.82446 
L 273.723502 81.070443 
L 274.748295 80.316425 
L 275.773089 79.562408 
L 276.797882 78.808391 
L 277.822676 78.054374 
L 278.847469 77.300357 
L 279.872262 76.546339 
L 280.897056 75.792322 
L 281.921849 75.038305 
L 282.946643 74.284288 
L 283.971436 73.530271 
L 284.996229 72.776254 
L 286.021023 72.022236 
" clip-path="url(#p7043390672)" style="fill: none; stroke: #000000; stroke-width: 2; stroke-linecap: square"/>
   </g>
   <g id="patch_6">
    <path d="M 179.49375 179.27 
L 179.49375 12.95 
" style="fill: none; stroke: #000000; stroke-width: 0.8; stroke-linejoin: miter; stroke-linecap: square"/>
   </g>
   <g id="patch_7">
    <path d="M 179.49375 179.27 
L 291.09375 179.27 
" style="fill: none; stroke: #000000; stroke-width: 0.8; stroke-linejoin: miter; stroke-linecap: square"/>
   </g>
   <g id="text_22">
    <!-- r=0.61, p=.005 -->
    <g transform="translate(209.27375 12.95) scale(0.08 -0.08)">
     <use xlink:href="#ArialMT-72"/>
     <use xlink:href="#ArialMT-3d" x="33.300781"/>
     <use xlink:href="#ArialMT-30" x="91.699219"/>
     <use xlink:href="#ArialMT-2e" x="147.314453"/>
     <use xlink:href="#ArialMT-36" x="175.097656"/>
     <use xlink:href="#ArialMT-31" x="230.712891"/>
     <use xlink:href="#ArialMT-2c" x="286.328125"/>
     <use xlink:href="#ArialMT-20" x="314.111328"/>
     <use xlink:href="#ArialMT-70" x="341.894531"/>
     <use xlink:href="#ArialMT-3d" x="397.509766"/>
     <use xlink:href="#ArialMT-2e" x="455.908203"/>
     <use xlink:href="#ArialMT-30" x="483.691406"/>
     <use xlink:href="#ArialMT-30" x="539.306641"/>
     <use xlink:href="#ArialMT-35" x="594.921875"/>
    </g>
   </g>
  </g>
  <g id="axes_3">
   <g id="patch_8">
    <path d="M 324.57375 179.27 
L 436.17375 179.27 
L 436.17375 12.95 
L 324.57375 12.95 
z
" style="fill: #ffffff"/>
   </g>
   <g id="PathCollection_3">
    <g clip-path="url(#p40c70990a7)">
     <use xlink:href="#m335059a193" x="380.291879" y="48.591583" style="fill: #28aeed; fill-opacity: 0.8; stroke: #28aeed; stroke-opacity: 0.8"/>
     <use xlink:href="#m335059a193" x="361.992019" y="155.980985" style="fill: #28aeed; fill-opacity: 0.8; stroke: #28aeed; stroke-opacity: 0.8"/>
     <use xlink:href="#m335059a193" x="424.315603" y="50.368796" style="fill: #28aeed; fill-opacity: 0.8; stroke: #28aeed; stroke-opacity: 0.8"/>
     <use xlink:href="#m335059a193" x="431.101023" y="23.570702" style="fill: #28aeed; fill-opacity: 0.8; stroke: #28aeed; stroke-opacity: 0.8"/>
     <use xlink:href="#m335059a193" x="361.43963" y="112.319072" style="fill: #28aeed; fill-opacity: 0.8; stroke: #28aeed; stroke-opacity: 0.8"/>
     <use xlink:href="#m335059a193" x="352.376996" y="117.713762" style="fill: #28aeed; fill-opacity: 0.8; stroke: #28aeed; stroke-opacity: 0.8"/>
     <use xlink:href="#m335059a193" x="367.03954" y="134.881014" style="fill: #28aeed; fill-opacity: 0.8; stroke: #28aeed; stroke-opacity: 0.8"/>
     <use xlink:href="#m335059a193" x="384.242077" y="101.517869" style="fill: #28aeed; fill-opacity: 0.8; stroke: #28aeed; stroke-opacity: 0.8"/>
     <use xlink:href="#m335059a193" x="403.754723" y="88.3326" style="fill: #28aeed; fill-opacity: 0.8; stroke: #28aeed; stroke-opacity: 0.8"/>
     <use xlink:href="#m335059a193" x="349.871101" y="151.999009" style="fill: #28aeed; fill-opacity: 0.8; stroke: #28aeed; stroke-opacity: 0.8"/>
     <use xlink:href="#m335059a193" x="414.252926" y="34.513766" style="fill: #28aeed; fill-opacity: 0.8; stroke: #28aeed; stroke-opacity: 0.8"/>
     <use xlink:href="#m335059a193" x="356.219287" y="113.798769" style="fill: #28aeed; fill-opacity: 0.8; stroke: #28aeed; stroke-opacity: 0.8"/>
     <use xlink:href="#m335059a193" x="362.8042" y="127.807626" style="fill: #28aeed; fill-opacity: 0.8; stroke: #28aeed; stroke-opacity: 0.8"/>
     <use xlink:href="#m335059a193" x="329.646477" y="65.051496" style="fill: #28aeed; fill-opacity: 0.8; stroke: #28aeed; stroke-opacity: 0.8"/>
     <use xlink:href="#m335059a193" x="365.801614" y="41.892552" style="fill: #28aeed; fill-opacity: 0.8; stroke: #28aeed; stroke-opacity: 0.8"/>
     <use xlink:href="#m335059a193" x="405.063551" y="53.570539" style="fill: #28aeed; fill-opacity: 0.8; stroke: #28aeed; stroke-opacity: 0.8"/>
     <use xlink:href="#m335059a193" x="331.734762" y="150.245439" style="fill: #28aeed; fill-opacity: 0.8; stroke: #28aeed; stroke-opacity: 0.8"/>
     <use xlink:href="#m335059a193" x="385.559254" y="139.359514" style="fill: #28aeed; fill-opacity: 0.8; stroke: #28aeed; stroke-opacity: 0.8"/>
     <use xlink:href="#m335059a193" x="382.652697" y="85.418521" style="fill: #28aeed; fill-opacity: 0.8; stroke: #28aeed; stroke-opacity: 0.8"/>
    </g>
   </g>
   <g id="PolyCollection_3">
    <path d="M 329.646477 106.022995 
L 329.646477 171.71 
L 330.671271 170.228892 
L 331.696064 168.745862 
L 332.720857 167.261473 
L 333.745651 165.852142 
L 334.770444 164.47646 
L 335.795238 163.094784 
L 336.820031 161.684224 
L 337.844824 160.326341 
L 338.869618 158.968458 
L 339.894411 157.610575 
L 340.919205 156.252691 
L 341.943998 154.894808 
L 342.968791 153.535993 
L 343.993585 152.173669 
L 345.018378 150.698464 
L 346.043171 149.271891 
L 347.067965 147.866082 
L 348.092758 146.492807 
L 349.117552 145.129311 
L 350.142345 143.764585 
L 351.167138 142.39986 
L 352.191932 141.035135 
L 353.216725 139.670409 
L 354.241519 138.305448 
L 355.266312 136.938155 
L 356.291105 135.611689 
L 357.315899 134.2065 
L 358.340692 132.843253 
L 359.365486 131.480007 
L 360.390279 130.167841 
L 361.415072 128.873478 
L 362.439866 127.581079 
L 363.464659 126.28888 
L 364.489452 125.006965 
L 365.514246 123.707206 
L 366.539039 122.500742 
L 367.563833 121.159561 
L 368.588626 119.831059 
L 369.613419 118.538722 
L 370.638213 117.246385 
L 371.663006 115.954048 
L 372.6878 114.661555 
L 373.712593 113.526763 
L 374.737386 112.29472 
L 375.76218 110.927588 
L 376.786973 109.627385 
L 377.811767 108.326566 
L 378.83656 106.916084 
L 379.861353 105.614719 
L 380.886147 104.56581 
L 381.91094 103.905171 
L 382.935733 102.806072 
L 383.960527 101.675861 
L 384.98532 100.82667 
L 386.010114 100.194376 
L 387.034907 99.198157 
L 388.0597 98.303343 
L 389.084494 97.356062 
L 390.109287 96.376477 
L 391.134081 95.680927 
L 392.158874 95.32692 
L 393.183667 94.972912 
L 394.208461 94.514272 
L 395.233254 93.986599 
L 396.258048 93.166997 
L 397.282841 92.311595 
L 398.307634 91.690435 
L 399.332428 91.130399 
L 400.357221 90.84405 
L 401.382014 90.360989 
L 402.406808 89.752984 
L 403.431601 89.141182 
L 404.456395 88.556558 
L 405.481188 88.269356 
L 406.505981 87.967396 
L 407.530775 87.293649 
L 408.555568 86.618127 
L 409.580362 85.942605 
L 410.605155 85.267083 
L 411.629948 84.604911 
L 412.654742 84.126103 
L 413.679535 83.651237 
L 414.704329 83.194771 
L 415.729122 82.792227 
L 416.753915 82.359615 
L 417.778709 81.74817 
L 418.803502 81.303109 
L 419.828295 80.854647 
L 420.853089 80.319972 
L 421.877882 79.846642 
L 422.902676 79.373312 
L 423.927469 78.899982 
L 424.952262 78.423438 
L 425.977056 77.943956 
L 427.001849 77.464473 
L 428.026643 77.135264 
L 429.051436 76.685667 
L 430.076229 76.097445 
L 431.101023 75.56821 
L 431.101023 20.51 
L 431.101023 20.51 
L 430.076229 21.896629 
L 429.051436 23.285708 
L 428.026643 24.668829 
L 427.001849 25.986486 
L 425.977056 27.238265 
L 424.952262 28.493769 
L 423.927469 29.946822 
L 422.902676 31.317975 
L 421.877882 32.613245 
L 420.853089 33.961354 
L 419.828295 35.075982 
L 418.803502 36.300205 
L 417.778709 37.634866 
L 416.753915 39.014511 
L 415.729122 40.365057 
L 414.704329 41.64797 
L 413.679535 42.959498 
L 412.654742 44.319694 
L 411.629948 45.658508 
L 410.605155 46.93441 
L 409.580362 47.871561 
L 408.555568 49.177674 
L 407.530775 50.482115 
L 406.505981 51.549371 
L 405.481188 52.650251 
L 404.456395 53.793884 
L 403.431601 55.001229 
L 402.406808 56.210395 
L 401.382014 57.421275 
L 400.357221 58.581208 
L 399.332428 59.737677 
L 398.307634 60.742394 
L 397.282841 61.845451 
L 396.258048 62.927548 
L 395.233254 64.038151 
L 394.208461 64.996584 
L 393.183667 65.961147 
L 392.158874 66.793618 
L 391.134081 67.444377 
L 390.109287 68.496092 
L 389.084494 69.273159 
L 388.0597 70.312432 
L 387.034907 71.293071 
L 386.010114 72.001023 
L 384.98532 72.706725 
L 383.960527 73.527871 
L 382.935733 74.456642 
L 381.91094 75.129493 
L 380.886147 75.663436 
L 379.861353 76.215671 
L 378.83656 76.917547 
L 377.811767 77.820989 
L 376.786973 78.561582 
L 375.76218 79.344095 
L 374.737386 80.234582 
L 373.712593 81.130634 
L 372.6878 81.961881 
L 371.663006 82.655174 
L 370.638213 83.209986 
L 369.613419 84.022822 
L 368.588626 84.582722 
L 367.563833 85.125516 
L 366.539039 85.693439 
L 365.514246 86.465311 
L 364.489452 86.867555 
L 363.464659 87.500655 
L 362.439866 88.229101 
L 361.415072 88.837192 
L 360.390279 89.540515 
L 359.365486 90.243837 
L 358.340692 91.125791 
L 357.315899 91.87617 
L 356.291105 92.604636 
L 355.266312 93.335021 
L 354.241519 94.100245 
L 353.216725 94.789495 
L 352.191932 95.513564 
L 351.167138 96.216853 
L 350.142345 96.68766 
L 349.117552 97.224504 
L 348.092758 97.69567 
L 347.067965 98.158299 
L 346.043171 98.552622 
L 345.018378 99.083558 
L 343.993585 99.688176 
L 342.968791 100.086672 
L 341.943998 100.608887 
L 340.919205 101.31927 
L 339.894411 101.507125 
L 338.869618 102.068163 
L 337.844824 102.847738 
L 336.820031 103.627313 
L 335.795238 103.944067 
L 334.770444 104.080838 
L 333.745651 104.604873 
L 332.720857 105.128964 
L 331.696064 105.558856 
L 330.671271 105.562788 
L 329.646477 106.022995 
z
" clip-path="url(#p40c70990a7)" style="fill-opacity: 0.15"/>
   </g>
   <g id="matplotlib.axis_5">
    <g id="xtick_7">
     <g id="line2d_19">
      <g>
       <use xlink:href="#m30251589de" x="350.767593" y="179.27" style="stroke: #000000; stroke-width: 0.8"/>
      </g>
     </g>
     <g id="text_23">
      <!-- 40 -->
      <g transform="translate(346.318843 191.99625) scale(0.08 -0.08)">
       <use xlink:href="#ArialMT-34"/>
       <use xlink:href="#ArialMT-30" x="55.615234"/>
      </g>
     </g>
    </g>
    <g id="xtick_8">
     <g id="line2d_20">
      <g>
       <use xlink:href="#m30251589de" x="382.018438" y="179.27" style="stroke: #000000; stroke-width: 0.8"/>
      </g>
     </g>
     <g id="text_24">
      <!-- 60 -->
      <g transform="translate(377.569688 191.99625) scale(0.08 -0.08)">
       <use xlink:href="#ArialMT-36"/>
       <use xlink:href="#ArialMT-30" x="55.615234"/>
      </g>
     </g>
    </g>
    <g id="xtick_9">
     <g id="line2d_21">
      <g>
       <use xlink:href="#m30251589de" x="413.269282" y="179.27" style="stroke: #000000; stroke-width: 0.8"/>
      </g>
     </g>
     <g id="text_25">
      <!-- 80 -->
      <g transform="translate(408.820532 191.99625) scale(0.08 -0.08)">
       <use xlink:href="#ArialMT-38"/>
       <use xlink:href="#ArialMT-30" x="55.615234"/>
      </g>
     </g>
    </g>
    <g id="text_26">
     <!-- Knee Extension Moment (Nm) -->
     <g transform="translate(326.800625 203.41) scale(0.08 -0.08)">
      <use xlink:href="#ArialMT-4b"/>
      <use xlink:href="#ArialMT-6e" x="66.699219"/>
      <use xlink:href="#ArialMT-65" x="122.314453"/>
      <use xlink:href="#ArialMT-65" x="177.929688"/>
      <use xlink:href="#ArialMT-20" x="233.544922"/>
      <use xlink:href="#ArialMT-45" x="261.328125"/>
      <use xlink:href="#ArialMT-78" x="328.027344"/>
      <use xlink:href="#ArialMT-74" x="378.027344"/>
      <use xlink:href="#ArialMT-65" x="405.810547"/>
      <use xlink:href="#ArialMT-6e" x="461.425781"/>
      <use xlink:href="#ArialMT-73" x="517.041016"/>
      <use xlink:href="#ArialMT-69" x="567.041016"/>
      <use xlink:href="#ArialMT-6f" x="589.257812"/>
      <use xlink:href="#ArialMT-6e" x="644.873047"/>
      <use xlink:href="#ArialMT-20" x="700.488281"/>
      <use xlink:href="#ArialMT-4d" x="728.271484"/>
      <use xlink:href="#ArialMT-6f" x="811.572266"/>
      <use xlink:href="#ArialMT-6d" x="867.1875"/>
      <use xlink:href="#ArialMT-65" x="950.488281"/>
      <use xlink:href="#ArialMT-6e" x="1006.103516"/>
      <use xlink:href="#ArialMT-74" x="1061.71875"/>
      <use xlink:href="#ArialMT-20" x="1089.501953"/>
      <use xlink:href="#ArialMT-28" x="1117.285156"/>
      <use xlink:href="#ArialMT-4e" x="1150.585938"/>
      <use xlink:href="#ArialMT-6d" x="1222.802734"/>
      <use xlink:href="#ArialMT-29" x="1306.103516"/>
     </g>
    </g>
   </g>
   <g id="matplotlib.axis_6">
    <g id="ytick_11">
     <g id="line2d_22">
      <g>
       <use xlink:href="#m285636d6b4" x="324.57375" y="158.344196" style="stroke: #000000; stroke-width: 0.8"/>
      </g>
     </g>
     <g id="text_27">
      <!-- −1.5 -->
      <g transform="translate(301.78125 161.207321) scale(0.08 -0.08)">
       <use xlink:href="#ArialMT-2212"/>
       <use xlink:href="#ArialMT-31" x="58.398438"/>
       <use xlink:href="#ArialMT-2e" x="114.013672"/>
       <use xlink:href="#ArialMT-35" x="141.796875"/>
      </g>
     </g>
    </g>
    <g id="ytick_12">
     <g id="line2d_23">
      <g>
       <use xlink:href="#m285636d6b4" x="324.57375" y="137.087949" style="stroke: #000000; stroke-width: 0.8"/>
      </g>
     </g>
     <g id="text_28">
      <!-- −1.0 -->
      <g transform="translate(301.78125 139.951074) scale(0.08 -0.08)">
       <use xlink:href="#ArialMT-2212"/>
       <use xlink:href="#ArialMT-31" x="58.398438"/>
       <use xlink:href="#ArialMT-2e" x="114.013672"/>
       <use xlink:href="#ArialMT-30" x="141.796875"/>
      </g>
     </g>
    </g>
    <g id="ytick_13">
     <g id="line2d_24">
      <g>
       <use xlink:href="#m285636d6b4" x="324.57375" y="115.831701" style="stroke: #000000; stroke-width: 0.8"/>
      </g>
     </g>
     <g id="text_29">
      <!-- −0.5 -->
      <g transform="translate(301.78125 118.694826) scale(0.08 -0.08)">
       <use xlink:href="#ArialMT-2212"/>
       <use xlink:href="#ArialMT-30" x="58.398438"/>
       <use xlink:href="#ArialMT-2e" x="114.013672"/>
       <use xlink:href="#ArialMT-35" x="141.796875"/>
      </g>
     </g>
    </g>
    <g id="ytick_14">
     <g id="line2d_25">
      <g>
       <use xlink:href="#m285636d6b4" x="324.57375" y="94.575453" style="stroke: #000000; stroke-width: 0.8"/>
      </g>
     </g>
     <g id="text_30">
      <!-- 0.0 -->
      <g transform="translate(306.45375 97.438578) scale(0.08 -0.08)">
       <use xlink:href="#ArialMT-30"/>
       <use xlink:href="#ArialMT-2e" x="55.615234"/>
       <use xlink:href="#ArialMT-30" x="83.398438"/>
      </g>
     </g>
    </g>
    <g id="ytick_15">
     <g id="line2d_26">
      <g>
       <use xlink:href="#m285636d6b4" x="324.57375" y="73.319206" style="stroke: #000000; stroke-width: 0.8"/>
      </g>
     </g>
     <g id="text_31">
      <!-- 0.5 -->
      <g transform="translate(306.45375 76.182331) scale(0.08 -0.08)">
       <use xlink:href="#ArialMT-30"/>
       <use xlink:href="#ArialMT-2e" x="55.615234"/>
       <use xlink:href="#ArialMT-35" x="83.398438"/>
      </g>
     </g>
    </g>
    <g id="ytick_16">
     <g id="line2d_27">
      <g>
       <use xlink:href="#m285636d6b4" x="324.57375" y="52.062958" style="stroke: #000000; stroke-width: 0.8"/>
      </g>
     </g>
     <g id="text_32">
      <!-- 1.0 -->
      <g transform="translate(306.45375 54.926083) scale(0.08 -0.08)">
       <use xlink:href="#ArialMT-31"/>
       <use xlink:href="#ArialMT-2e" x="55.615234"/>
       <use xlink:href="#ArialMT-30" x="83.398438"/>
      </g>
     </g>
    </g>
    <g id="ytick_17">
     <g id="line2d_28">
      <g>
       <use xlink:href="#m285636d6b4" x="324.57375" y="30.80671" style="stroke: #000000; stroke-width: 0.8"/>
      </g>
     </g>
     <g id="text_33">
      <!-- 1.5 -->
      <g transform="translate(306.45375 33.669835) scale(0.08 -0.08)">
       <use xlink:href="#ArialMT-31"/>
       <use xlink:href="#ArialMT-2e" x="55.615234"/>
       <use xlink:href="#ArialMT-35" x="83.398438"/>
      </g>
     </g>
    </g>
    <g id="text_34">
     <!-- Volume Total (Standardized) -->
     <g transform="translate(296.0975 146.285625) rotate(-90) scale(0.08 -0.08)">
      <defs>
       <path id="ArialMT-56" d="M 1803 0 
L 28 4581 
L 684 4581 
L 1875 1253 
Q 2019 853 2116 503 
Q 2222 878 2363 1253 
L 3600 4581 
L 4219 4581 
L 2425 0 
L 1803 0 
z
" transform="scale(0.015625)"/>
      </defs>
      <use xlink:href="#ArialMT-56"/>
      <use xlink:href="#ArialMT-6f" x="61.199219"/>
      <use xlink:href="#ArialMT-6c" x="116.814453"/>
      <use xlink:href="#ArialMT-75" x="139.03125"/>
      <use xlink:href="#ArialMT-6d" x="194.646484"/>
      <use xlink:href="#ArialMT-65" x="277.947266"/>
      <use xlink:href="#ArialMT-20" x="333.5625"/>
      <use xlink:href="#ArialMT-54" x="359.595703"/>
      <use xlink:href="#ArialMT-6f" x="409.554688"/>
      <use xlink:href="#ArialMT-74" x="465.169922"/>
      <use xlink:href="#ArialMT-61" x="492.953125"/>
      <use xlink:href="#ArialMT-6c" x="548.568359"/>
      <use xlink:href="#ArialMT-20" x="570.785156"/>
      <use xlink:href="#ArialMT-28" x="598.568359"/>
      <use xlink:href="#ArialMT-53" x="631.869141"/>
      <use xlink:href="#ArialMT-74" x="698.568359"/>
      <use xlink:href="#ArialMT-61" x="726.351562"/>
      <use xlink:href="#ArialMT-6e" x="781.966797"/>
      <use xlink:href="#ArialMT-64" x="837.582031"/>
      <use xlink:href="#ArialMT-61" x="893.197266"/>
      <use xlink:href="#ArialMT-72" x="948.8125"/>
      <use xlink:href="#ArialMT-64" x="982.113281"/>
      <use xlink:href="#ArialMT-69" x="1037.728516"/>
      <use xlink:href="#ArialMT-7a" x="1059.945312"/>
      <use xlink:href="#ArialMT-65" x="1109.945312"/>
      <use xlink:href="#ArialMT-64" x="1165.560547"/>
      <use xlink:href="#ArialMT-29" x="1221.175781"/>
     </g>
    </g>
   </g>
   <g id="line2d_29">
    <path d="M 329.646477 138.829787 
L 330.671271 137.858198 
L 331.696064 136.886609 
L 332.720857 135.915019 
L 333.745651 134.94343 
L 334.770444 133.971841 
L 335.795238 133.000252 
L 336.820031 132.028663 
L 337.844824 131.057073 
L 338.869618 130.085484 
L 339.894411 129.113895 
L 340.919205 128.142306 
L 341.943998 127.170717 
L 342.968791 126.199127 
L 343.993585 125.227538 
L 345.018378 124.255949 
L 346.043171 123.28436 
L 347.067965 122.312771 
L 348.092758 121.341181 
L 349.117552 120.369592 
L 350.142345 119.398003 
L 351.167138 118.426414 
L 352.191932 117.454825 
L 353.216725 116.483235 
L 354.241519 115.511646 
L 355.266312 114.540057 
L 356.291105 113.568468 
L 357.315899 112.596879 
L 358.340692 111.625289 
L 359.365486 110.6537 
L 360.390279 109.682111 
L 361.415072 108.710522 
L 362.439866 107.738933 
L 363.464659 106.767343 
L 364.489452 105.795754 
L 365.514246 104.824165 
L 366.539039 103.852576 
L 367.563833 102.880987 
L 368.588626 101.909397 
L 369.613419 100.937808 
L 370.638213 99.966219 
L 371.663006 98.99463 
L 372.6878 98.023041 
L 373.712593 97.051452 
L 374.737386 96.079862 
L 375.76218 95.108273 
L 376.786973 94.136684 
L 377.811767 93.165095 
L 378.83656 92.193506 
L 379.861353 91.221916 
L 380.886147 90.250327 
L 381.91094 89.278738 
L 382.935733 88.307149 
L 383.960527 87.33556 
L 384.98532 86.36397 
L 386.010114 85.392381 
L 387.034907 84.420792 
L 388.0597 83.449203 
L 389.084494 82.477614 
L 390.109287 81.506024 
L 391.134081 80.534435 
L 392.158874 79.562846 
L 393.183667 78.591257 
L 394.208461 77.619668 
L 395.233254 76.648078 
L 396.258048 75.676489 
L 397.282841 74.7049 
L 398.307634 73.733311 
L 399.332428 72.761722 
L 400.357221 71.790132 
L 401.382014 70.818543 
L 402.406808 69.846954 
L 403.431601 68.875365 
L 404.456395 67.903776 
L 405.481188 66.932186 
L 406.505981 65.960597 
L 407.530775 64.989008 
L 408.555568 64.017419 
L 409.580362 63.04583 
L 410.605155 62.07424 
L 411.629948 61.102651 
L 412.654742 60.131062 
L 413.679535 59.159473 
L 414.704329 58.187884 
L 415.729122 57.216294 
L 416.753915 56.244705 
L 417.778709 55.273116 
L 418.803502 54.301527 
L 419.828295 53.329938 
L 420.853089 52.358349 
L 421.877882 51.386759 
L 422.902676 50.41517 
L 423.927469 49.443581 
L 424.952262 48.471992 
L 425.977056 47.500403 
L 427.001849 46.528813 
L 428.026643 45.557224 
L 429.051436 44.585635 
L 430.076229 43.614046 
L 431.101023 42.642457 
" clip-path="url(#p40c70990a7)" style="fill: none; stroke: #000000; stroke-width: 2; stroke-linecap: square"/>
   </g>
   <g id="patch_9">
    <path d="M 324.57375 179.27 
L 324.57375 12.95 
" style="fill: none; stroke: #000000; stroke-width: 0.8; stroke-linejoin: miter; stroke-linecap: square"/>
   </g>
   <g id="patch_10">
    <path d="M 324.57375 179.27 
L 436.17375 179.27 
" style="fill: none; stroke: #000000; stroke-width: 0.8; stroke-linejoin: miter; stroke-linecap: square"/>
   </g>
   <g id="text_35">
    <!-- r=0.63, p=.004 -->
    <g transform="translate(354.35375 12.95) scale(0.08 -0.08)">
     <defs>
      <path id="ArialMT-33" d="M 269 1209 
L 831 1284 
Q 928 806 1161 595 
Q 1394 384 1728 384 
Q 2125 384 2398 659 
Q 2672 934 2672 1341 
Q 2672 1728 2419 1979 
Q 2166 2231 1775 2231 
Q 1616 2231 1378 2169 
L 1441 2663 
Q 1497 2656 1531 2656 
Q 1891 2656 2178 2843 
Q 2466 3031 2466 3422 
Q 2466 3731 2256 3934 
Q 2047 4138 1716 4138 
Q 1388 4138 1169 3931 
Q 950 3725 888 3313 
L 325 3413 
Q 428 3978 793 4289 
Q 1159 4600 1703 4600 
Q 2078 4600 2393 4439 
Q 2709 4278 2876 4000 
Q 3044 3722 3044 3409 
Q 3044 3113 2884 2869 
Q 2725 2625 2413 2481 
Q 2819 2388 3044 2092 
Q 3269 1797 3269 1353 
Q 3269 753 2831 336 
Q 2394 -81 1725 -81 
Q 1122 -81 723 278 
Q 325 638 269 1209 
z
" transform="scale(0.015625)"/>
     </defs>
     <use xlink:href="#ArialMT-72"/>
     <use xlink:href="#ArialMT-3d" x="33.300781"/>
     <use xlink:href="#ArialMT-30" x="91.699219"/>
     <use xlink:href="#ArialMT-2e" x="147.314453"/>
     <use xlink:href="#ArialMT-36" x="175.097656"/>
     <use xlink:href="#ArialMT-33" x="230.712891"/>
     <use xlink:href="#ArialMT-2c" x="286.328125"/>
     <use xlink:href="#ArialMT-20" x="314.111328"/>
     <use xlink:href="#ArialMT-70" x="341.894531"/>
     <use xlink:href="#ArialMT-3d" x="397.509766"/>
     <use xlink:href="#ArialMT-2e" x="455.908203"/>
     <use xlink:href="#ArialMT-30" x="483.691406"/>
     <use xlink:href="#ArialMT-30" x="539.306641"/>
     <use xlink:href="#ArialMT-34" x="594.921875"/>
    </g>
   </g>
  </g>
 </g>
 <defs>
  <clipPath id="pe697ee3ce9">
   <rect x="34.41375" y="12.95" width="111.6" height="166.32"/>
  </clipPath>
  <clipPath id="p7043390672">
   <rect x="179.49375" y="12.95" width="111.6" height="166.32"/>
  </clipPath>
  <clipPath id="p40c70990a7">
   <rect x="324.57375" y="12.95" width="111.6" height="166.32"/>
  </clipPath>
 </defs>
</svg>
