<?xml version="1.0" encoding="utf-8" standalone="no"?>
<!DOCTYPE svg PUBLIC "-//W3C//DTD SVG 1.1//EN"
  "http://www.w3.org/Graphics/SVG/1.1/DTD/svg11.dtd">
<svg xmlns:xlink="http://www.w3.org/1999/xlink" width="896.360937pt" height="321.95625pt" viewBox="0 0 896.360937 321.95625" xmlns="http://www.w3.org/2000/svg" version="1.1">
 <metadata>
  <rdf:RDF xmlns:dc="http://purl.org/dc/elements/1.1/" xmlns:cc="http://creativecommons.org/ns#" xmlns:rdf="http://www.w3.org/1999/02/22-rdf-syntax-ns#">
   <cc:Work>
    <dc:type rdf:resource="http://purl.org/dc/dcmitype/StillImage"/>
    <dc:date>2025-06-03T11:27:48.091575</dc:date>
    <dc:format>image/svg+xml</dc:format>
    <dc:creator>
     <cc:Agent>
      <dc:title>Matplotlib v3.9.2, https://matplotlib.org/</dc:title>
     </cc:Agent>
    </dc:creator>
   </cc:Work>
  </rdf:RDF>
 </metadata>
 <defs>
  <style type="text/css">*{stroke-linejoin: round; stroke-linecap: butt}</style>
 </defs>
 <g id="figure_1">
  <g id="patch_1">
   <path d="M 0 321.95625 
L 896.360937 321.95625 
L 896.360937 0 
L 0 0 
z
" style="fill: #ffffff"/>
  </g>
  <g id="axes_1">
   <g id="patch_2">
    <path d="M 52.160938 284.4 
L 298.337408 284.4 
L 298.337408 7.2 
L 52.160938 7.2 
z
" style="fill: #ffffff"/>
   </g>
   <g id="PathCollection_1">
    <defs>
     <path id="mb828293b1d" d="M 0 3.535534 
C 0.937635 3.535534 1.836992 3.163008 2.5 2.5 
C 3.163008 1.836992 3.535534 0.937635 3.535534 0 
C 3.535534 -0.937635 3.163008 -1.836992 2.5 -2.5 
C 1.836992 -3.163008 0.937635 -3.535534 0 -3.535534 
C -0.937635 -3.535534 -1.836992 -3.163008 -2.5 -2.5 
C -3.163008 -1.836992 -3.535534 -0.937635 -3.535534 0 
C -3.535534 0.937635 -3.163008 1.836992 -2.5 2.5 
C -1.836992 3.163008 -0.937635 3.535534 0 3.535534 
z
" style="stroke: #0000ff; stroke-opacity: 0.8"/>
    </defs>
    <g clip-path="url(#p470aadcf59)">
     <use xlink:href="#mb828293b1d" x="175.068574" y="67.928184" style="fill: #0000ff; fill-opacity: 0.8; stroke: #0000ff; stroke-opacity: 0.8"/>
     <use xlink:href="#mb828293b1d" x="134.701236" y="243.060034" style="fill: #0000ff; fill-opacity: 0.8; stroke: #0000ff; stroke-opacity: 0.8"/>
     <use xlink:href="#mb828293b1d" x="272.179732" y="70.826484" style="fill: #0000ff; fill-opacity: 0.8; stroke: #0000ff; stroke-opacity: 0.8"/>
     <use xlink:href="#mb828293b1d" x="287.147569" y="27.123848" style="fill: #0000ff; fill-opacity: 0.8; stroke: #0000ff; stroke-opacity: 0.8"/>
     <use xlink:href="#mb828293b1d" x="133.482732" y="171.855693" style="fill: #0000ff; fill-opacity: 0.8; stroke: #0000ff; stroke-opacity: 0.8"/>
     <use xlink:href="#mb828293b1d" x="113.491626" y="180.653415" style="fill: #0000ff; fill-opacity: 0.8; stroke: #0000ff; stroke-opacity: 0.8"/>
     <use xlink:href="#mb828293b1d" x="145.835474" y="208.649964" style="fill: #0000ff; fill-opacity: 0.8; stroke: #0000ff; stroke-opacity: 0.8"/>
     <use xlink:href="#mb828293b1d" x="183.782246" y="154.24097" style="fill: #0000ff; fill-opacity: 0.8; stroke: #0000ff; stroke-opacity: 0.8"/>
     <use xlink:href="#mb828293b1d" x="226.824848" y="132.738283" style="fill: #0000ff; fill-opacity: 0.8; stroke: #0000ff; stroke-opacity: 0.8"/>
     <use xlink:href="#mb828293b1d" x="107.963918" y="236.566183" style="fill: #0000ff; fill-opacity: 0.8; stroke: #0000ff; stroke-opacity: 0.8"/>
     <use xlink:href="#mb828293b1d" x="249.982649" y="44.969921" style="fill: #0000ff; fill-opacity: 0.8; stroke: #0000ff; stroke-opacity: 0.8"/>
     <use xlink:href="#mb828293b1d" x="121.96727" y="174.2688" style="fill: #0000ff; fill-opacity: 0.8; stroke: #0000ff; stroke-opacity: 0.8"/>
     <use xlink:href="#mb828293b1d" x="136.492813" y="197.114601" style="fill: #0000ff; fill-opacity: 0.8; stroke: #0000ff; stroke-opacity: 0.8"/>
     <use xlink:href="#mb828293b1d" x="63.350777" y="94.771197" style="fill: #0000ff; fill-opacity: 0.8; stroke: #0000ff; stroke-opacity: 0.8"/>
     <use xlink:href="#mb828293b1d" x="143.104755" y="57.003328" style="fill: #0000ff; fill-opacity: 0.8; stroke: #0000ff; stroke-opacity: 0.8"/>
     <use xlink:href="#mb828293b1d" x="229.711968" y="76.047922" style="fill: #0000ff; fill-opacity: 0.8; stroke: #0000ff; stroke-opacity: 0.8"/>
     <use xlink:href="#mb828293b1d" x="67.957289" y="233.706441" style="fill: #0000ff; fill-opacity: 0.8; stroke: #0000ff; stroke-opacity: 0.8"/>
     <use xlink:href="#mb828293b1d" x="186.687784" y="215.953551" style="fill: #0000ff; fill-opacity: 0.8; stroke: #0000ff; stroke-opacity: 0.8"/>
     <use xlink:href="#mb828293b1d" x="180.276261" y="127.985971" style="fill: #0000ff; fill-opacity: 0.8; stroke: #0000ff; stroke-opacity: 0.8"/>
    </g>
   </g>
   <g id="PolyCollection_1">
    <path d="M 63.350777 159.093121 
L 63.350777 271.8 
L 65.611351 269.576828 
L 67.871924 267.303838 
L 70.132498 264.965773 
L 72.393072 262.665988 
L 74.653645 260.290964 
L 76.914219 257.897601 
L 79.174793 255.563082 
L 81.435366 253.392409 
L 83.69594 251.077922 
L 85.956514 248.763436 
L 88.217087 246.448949 
L 90.477661 244.134462 
L 92.738235 241.812697 
L 94.998808 239.627721 
L 97.259382 237.179742 
L 99.519955 234.986989 
L 101.780529 232.674198 
L 104.041103 230.239171 
L 106.301676 227.982446 
L 108.56225 225.58323 
L 110.822824 223.273922 
L 113.083397 220.958897 
L 115.343971 218.640276 
L 117.604545 216.321655 
L 119.865118 214.001467 
L 122.125692 211.870064 
L 124.386266 209.399611 
L 126.646839 207.036585 
L 128.907413 204.714842 
L 131.167987 202.393099 
L 133.42856 200.133538 
L 135.689134 197.756711 
L 137.949708 195.553565 
L 140.210281 193.145596 
L 142.470855 190.805789 
L 144.731429 188.486263 
L 146.992002 186.166409 
L 149.252576 183.846556 
L 151.513149 181.526702 
L 153.773723 179.300702 
L 156.034297 176.927192 
L 158.29487 174.579416 
L 160.555444 172.518869 
L 162.816018 170.738407 
L 165.076591 169.141605 
L 167.337165 167.3581 
L 169.597739 165.036511 
L 171.858312 162.954695 
L 174.118886 161.948008 
L 176.37946 160.171642 
L 178.640033 158.544068 
L 180.900607 156.606685 
L 183.161181 154.973274 
L 185.421754 153.044603 
L 187.682328 151.64486 
L 189.942902 149.836849 
L 192.203475 148.767398 
L 194.464049 147.815011 
L 196.724622 146.272673 
L 198.985196 145.101969 
L 201.24577 144.191092 
L 203.506343 142.957329 
L 205.766917 141.736909 
L 208.027491 140.608421 
L 210.288064 139.627677 
L 212.548638 138.596152 
L 214.809212 138.007881 
L 217.069785 137.172298 
L 219.330359 136.276711 
L 221.590933 135.40823 
L 223.851506 134.535584 
L 226.11208 133.662938 
L 228.372654 132.785352 
L 230.633227 132.161956 
L 232.893801 131.899485 
L 235.154375 131.309273 
L 237.414948 130.088897 
L 239.675522 129.614125 
L 241.936095 129.175831 
L 244.196669 128.708471 
L 246.457243 127.943923 
L 248.717816 127.126756 
L 250.97839 126.248479 
L 253.238964 125.642333 
L 255.499537 124.880457 
L 257.760111 124.118293 
L 260.020685 123.348602 
L 262.281258 122.518205 
L 264.541832 121.506081 
L 266.802406 120.493958 
L 269.062979 119.481834 
L 271.323553 118.857018 
L 273.584127 118.271693 
L 275.8447 117.75736 
L 278.105274 117.226243 
L 280.365848 116.541344 
L 282.626421 115.94974 
L 284.886995 115.358135 
L 287.147569 114.429046 
L 287.147569 19.8 
L 287.147569 19.8 
L 284.886995 21.838546 
L 282.626421 23.895452 
L 280.365848 26.321741 
L 278.105274 28.751432 
L 275.8447 31.181918 
L 273.584127 33.612403 
L 271.323553 35.915227 
L 269.062979 38.153275 
L 266.802406 40.561125 
L 264.541832 42.973757 
L 262.281258 45.303162 
L 260.020685 47.355264 
L 257.760111 49.781912 
L 255.499537 51.92582 
L 253.238964 53.729761 
L 250.97839 55.994055 
L 248.717816 58.387209 
L 246.457243 60.610451 
L 244.196669 62.971152 
L 241.936095 65.081737 
L 239.675522 67.180054 
L 237.414948 69.311316 
L 235.154375 71.536039 
L 232.893801 73.571385 
L 230.633227 75.268718 
L 228.372654 76.996173 
L 226.11208 78.49119 
L 223.851506 80.425084 
L 221.590933 82.209065 
L 219.330359 84.107498 
L 217.069785 85.725025 
L 214.809212 87.567335 
L 212.548638 89.020553 
L 210.288064 90.615478 
L 208.027491 92.12882 
L 205.766917 93.622965 
L 203.506343 95.236 
L 201.24577 96.591503 
L 198.985196 98.097873 
L 196.724622 99.50399 
L 194.464049 100.898985 
L 192.203475 102.248585 
L 189.942902 103.461169 
L 187.682328 104.902911 
L 185.421754 106.156533 
L 183.161181 107.153692 
L 180.900607 108.304468 
L 178.640033 109.791282 
L 176.37946 111.274142 
L 174.118886 112.764488 
L 171.858312 114.254834 
L 169.597739 115.177269 
L 167.337165 115.895268 
L 165.076591 116.922671 
L 162.816018 118.293632 
L 160.555444 119.257318 
L 158.29487 119.966893 
L 156.034297 121.326517 
L 153.773723 122.548387 
L 151.513149 123.630934 
L 149.252576 124.757393 
L 146.992002 126.014109 
L 144.731429 126.655532 
L 142.470855 127.881417 
L 140.210281 128.727526 
L 137.949708 129.871889 
L 135.689134 131.016964 
L 133.42856 132.162039 
L 131.167987 133.307255 
L 128.907413 133.874901 
L 126.646839 134.978081 
L 124.386266 135.902905 
L 122.125692 137.005082 
L 119.865118 137.923826 
L 117.604545 138.89151 
L 115.343971 139.911223 
L 113.083397 140.867459 
L 110.822824 141.865734 
L 108.56225 142.963381 
L 106.301676 143.898678 
L 104.041103 144.749656 
L 101.780529 145.677872 
L 99.519955 146.746742 
L 97.259382 147.820087 
L 94.998808 148.910894 
L 92.738235 149.739273 
L 90.477661 150.456323 
L 88.217087 150.973333 
L 85.956514 151.513534 
L 83.69594 152.319834 
L 81.435366 153.098855 
L 79.174793 154.046739 
L 76.914219 154.779399 
L 74.653645 155.49638 
L 72.393072 156.214891 
L 70.132498 156.922924 
L 67.871924 157.641279 
L 65.611351 158.3672 
L 63.350777 159.093121 
z
" clip-path="url(#p470aadcf59)" style="fill-opacity: 0.15"/>
   </g>
   <g id="matplotlib.axis_1">
    <g id="xtick_1">
     <g id="line2d_1">
      <defs>
       <path id="me9aed46225" d="M 0 0 
L 0 3.5 
" style="stroke: #000000; stroke-width: 0.8"/>
      </defs>
      <g>
       <use xlink:href="#me9aed46225" x="75.473632" y="284.4" style="stroke: #000000; stroke-width: 0.8"/>
      </g>
     </g>
     <g id="text_1">
      <!-- 30 -->
      <g transform="translate(69.111132 298.998438) scale(0.1 -0.1)">
       <defs>
        <path id="DejaVuSans-33" d="M 2597 2516 
Q 3050 2419 3304 2112 
Q 3559 1806 3559 1356 
Q 3559 666 3084 287 
Q 2609 -91 1734 -91 
Q 1441 -91 1130 -33 
Q 819 25 488 141 
L 488 750 
Q 750 597 1062 519 
Q 1375 441 1716 441 
Q 2309 441 2620 675 
Q 2931 909 2931 1356 
Q 2931 1769 2642 2001 
Q 2353 2234 1838 2234 
L 1294 2234 
L 1294 2753 
L 1863 2753 
Q 2328 2753 2575 2939 
Q 2822 3125 2822 3475 
Q 2822 3834 2567 4026 
Q 2313 4219 1838 4219 
Q 1578 4219 1281 4162 
Q 984 4106 628 3988 
L 628 4550 
Q 988 4650 1302 4700 
Q 1616 4750 1894 4750 
Q 2613 4750 3031 4423 
Q 3450 4097 3450 3541 
Q 3450 3153 3228 2886 
Q 3006 2619 2597 2516 
z
" transform="scale(0.015625)"/>
        <path id="DejaVuSans-30" d="M 2034 4250 
Q 1547 4250 1301 3770 
Q 1056 3291 1056 2328 
Q 1056 1369 1301 889 
Q 1547 409 2034 409 
Q 2525 409 2770 889 
Q 3016 1369 3016 2328 
Q 3016 3291 2770 3770 
Q 2525 4250 2034 4250 
z
M 2034 4750 
Q 2819 4750 3233 4129 
Q 3647 3509 3647 2328 
Q 3647 1150 3233 529 
Q 2819 -91 2034 -91 
Q 1250 -91 836 529 
Q 422 1150 422 2328 
Q 422 3509 836 4129 
Q 1250 4750 2034 4750 
z
" transform="scale(0.015625)"/>
       </defs>
       <use xlink:href="#DejaVuSans-33"/>
       <use xlink:href="#DejaVuSans-30" x="63.623047"/>
      </g>
     </g>
    </g>
    <g id="xtick_2">
     <g id="line2d_2">
      <g>
       <use xlink:href="#me9aed46225" x="109.941475" y="284.4" style="stroke: #000000; stroke-width: 0.8"/>
      </g>
     </g>
     <g id="text_2">
      <!-- 40 -->
      <g transform="translate(103.578975 298.998438) scale(0.1 -0.1)">
       <defs>
        <path id="DejaVuSans-34" d="M 2419 4116 
L 825 1625 
L 2419 1625 
L 2419 4116 
z
M 2253 4666 
L 3047 4666 
L 3047 1625 
L 3713 1625 
L 3713 1100 
L 3047 1100 
L 3047 0 
L 2419 0 
L 2419 1100 
L 313 1100 
L 313 1709 
L 2253 4666 
z
" transform="scale(0.015625)"/>
       </defs>
       <use xlink:href="#DejaVuSans-34"/>
       <use xlink:href="#DejaVuSans-30" x="63.623047"/>
      </g>
     </g>
    </g>
    <g id="xtick_3">
     <g id="line2d_3">
      <g>
       <use xlink:href="#me9aed46225" x="144.409318" y="284.4" style="stroke: #000000; stroke-width: 0.8"/>
      </g>
     </g>
     <g id="text_3">
      <!-- 50 -->
      <g transform="translate(138.046818 298.998438) scale(0.1 -0.1)">
       <defs>
        <path id="DejaVuSans-35" d="M 691 4666 
L 3169 4666 
L 3169 4134 
L 1269 4134 
L 1269 2991 
Q 1406 3038 1543 3061 
Q 1681 3084 1819 3084 
Q 2600 3084 3056 2656 
Q 3513 2228 3513 1497 
Q 3513 744 3044 326 
Q 2575 -91 1722 -91 
Q 1428 -91 1123 -41 
Q 819 9 494 109 
L 494 744 
Q 775 591 1075 516 
Q 1375 441 1709 441 
Q 2250 441 2565 725 
Q 2881 1009 2881 1497 
Q 2881 1984 2565 2268 
Q 2250 2553 1709 2553 
Q 1456 2553 1204 2497 
Q 953 2441 691 2322 
L 691 4666 
z
" transform="scale(0.015625)"/>
       </defs>
       <use xlink:href="#DejaVuSans-35"/>
       <use xlink:href="#DejaVuSans-30" x="63.623047"/>
      </g>
     </g>
    </g>
    <g id="xtick_4">
     <g id="line2d_4">
      <g>
       <use xlink:href="#me9aed46225" x="178.877161" y="284.4" style="stroke: #000000; stroke-width: 0.8"/>
      </g>
     </g>
     <g id="text_4">
      <!-- 60 -->
      <g transform="translate(172.514661 298.998438) scale(0.1 -0.1)">
       <defs>
        <path id="DejaVuSans-36" d="M 2113 2584 
Q 1688 2584 1439 2293 
Q 1191 2003 1191 1497 
Q 1191 994 1439 701 
Q 1688 409 2113 409 
Q 2538 409 2786 701 
Q 3034 994 3034 1497 
Q 3034 2003 2786 2293 
Q 2538 2584 2113 2584 
z
M 3366 4563 
L 3366 3988 
Q 3128 4100 2886 4159 
Q 2644 4219 2406 4219 
Q 1781 4219 1451 3797 
Q 1122 3375 1075 2522 
Q 1259 2794 1537 2939 
Q 1816 3084 2150 3084 
Q 2853 3084 3261 2657 
Q 3669 2231 3669 1497 
Q 3669 778 3244 343 
Q 2819 -91 2113 -91 
Q 1303 -91 875 529 
Q 447 1150 447 2328 
Q 447 3434 972 4092 
Q 1497 4750 2381 4750 
Q 2619 4750 2861 4703 
Q 3103 4656 3366 4563 
z
" transform="scale(0.015625)"/>
       </defs>
       <use xlink:href="#DejaVuSans-36"/>
       <use xlink:href="#DejaVuSans-30" x="63.623047"/>
      </g>
     </g>
    </g>
    <g id="xtick_5">
     <g id="line2d_5">
      <g>
       <use xlink:href="#me9aed46225" x="213.345004" y="284.4" style="stroke: #000000; stroke-width: 0.8"/>
      </g>
     </g>
     <g id="text_5">
      <!-- 70 -->
      <g transform="translate(206.982504 298.998438) scale(0.1 -0.1)">
       <defs>
        <path id="DejaVuSans-37" d="M 525 4666 
L 3525 4666 
L 3525 4397 
L 1831 0 
L 1172 0 
L 2766 4134 
L 525 4134 
L 525 4666 
z
" transform="scale(0.015625)"/>
       </defs>
       <use xlink:href="#DejaVuSans-37"/>
       <use xlink:href="#DejaVuSans-30" x="63.623047"/>
      </g>
     </g>
    </g>
    <g id="xtick_6">
     <g id="line2d_6">
      <g>
       <use xlink:href="#me9aed46225" x="247.812847" y="284.4" style="stroke: #000000; stroke-width: 0.8"/>
      </g>
     </g>
     <g id="text_6">
      <!-- 80 -->
      <g transform="translate(241.450347 298.998438) scale(0.1 -0.1)">
       <defs>
        <path id="DejaVuSans-38" d="M 2034 2216 
Q 1584 2216 1326 1975 
Q 1069 1734 1069 1313 
Q 1069 891 1326 650 
Q 1584 409 2034 409 
Q 2484 409 2743 651 
Q 3003 894 3003 1313 
Q 3003 1734 2745 1975 
Q 2488 2216 2034 2216 
z
M 1403 2484 
Q 997 2584 770 2862 
Q 544 3141 544 3541 
Q 544 4100 942 4425 
Q 1341 4750 2034 4750 
Q 2731 4750 3128 4425 
Q 3525 4100 3525 3541 
Q 3525 3141 3298 2862 
Q 3072 2584 2669 2484 
Q 3125 2378 3379 2068 
Q 3634 1759 3634 1313 
Q 3634 634 3220 271 
Q 2806 -91 2034 -91 
Q 1263 -91 848 271 
Q 434 634 434 1313 
Q 434 1759 690 2068 
Q 947 2378 1403 2484 
z
M 1172 3481 
Q 1172 3119 1398 2916 
Q 1625 2713 2034 2713 
Q 2441 2713 2670 2916 
Q 2900 3119 2900 3481 
Q 2900 3844 2670 4047 
Q 2441 4250 2034 4250 
Q 1625 4250 1398 4047 
Q 1172 3844 1172 3481 
z
" transform="scale(0.015625)"/>
       </defs>
       <use xlink:href="#DejaVuSans-38"/>
       <use xlink:href="#DejaVuSans-30" x="63.623047"/>
      </g>
     </g>
    </g>
    <g id="xtick_7">
     <g id="line2d_7">
      <g>
       <use xlink:href="#me9aed46225" x="282.28069" y="284.4" style="stroke: #000000; stroke-width: 0.8"/>
      </g>
     </g>
     <g id="text_7">
      <!-- 90 -->
      <g transform="translate(275.91819 298.998438) scale(0.1 -0.1)">
       <defs>
        <path id="DejaVuSans-39" d="M 703 97 
L 703 672 
Q 941 559 1184 500 
Q 1428 441 1663 441 
Q 2288 441 2617 861 
Q 2947 1281 2994 2138 
Q 2813 1869 2534 1725 
Q 2256 1581 1919 1581 
Q 1219 1581 811 2004 
Q 403 2428 403 3163 
Q 403 3881 828 4315 
Q 1253 4750 1959 4750 
Q 2769 4750 3195 4129 
Q 3622 3509 3622 2328 
Q 3622 1225 3098 567 
Q 2575 -91 1691 -91 
Q 1453 -91 1209 -44 
Q 966 3 703 97 
z
M 1959 2075 
Q 2384 2075 2632 2365 
Q 2881 2656 2881 3163 
Q 2881 3666 2632 3958 
Q 2384 4250 1959 4250 
Q 1534 4250 1286 3958 
Q 1038 3666 1038 3163 
Q 1038 2656 1286 2365 
Q 1534 2075 1959 2075 
z
" transform="scale(0.015625)"/>
       </defs>
       <use xlink:href="#DejaVuSans-39"/>
       <use xlink:href="#DejaVuSans-30" x="63.623047"/>
      </g>
     </g>
    </g>
    <g id="text_8">
     <!-- Peak KEM Stand -->
     <g transform="translate(134.907767 312.676562) scale(0.1 -0.1)">
      <defs>
       <path id="DejaVuSans-50" d="M 1259 4147 
L 1259 2394 
L 2053 2394 
Q 2494 2394 2734 2622 
Q 2975 2850 2975 3272 
Q 2975 3691 2734 3919 
Q 2494 4147 2053 4147 
L 1259 4147 
z
M 628 4666 
L 2053 4666 
Q 2838 4666 3239 4311 
Q 3641 3956 3641 3272 
Q 3641 2581 3239 2228 
Q 2838 1875 2053 1875 
L 1259 1875 
L 1259 0 
L 628 0 
L 628 4666 
z
" transform="scale(0.015625)"/>
       <path id="DejaVuSans-65" d="M 3597 1894 
L 3597 1613 
L 953 1613 
Q 991 1019 1311 708 
Q 1631 397 2203 397 
Q 2534 397 2845 478 
Q 3156 559 3463 722 
L 3463 178 
Q 3153 47 2828 -22 
Q 2503 -91 2169 -91 
Q 1331 -91 842 396 
Q 353 884 353 1716 
Q 353 2575 817 3079 
Q 1281 3584 2069 3584 
Q 2775 3584 3186 3129 
Q 3597 2675 3597 1894 
z
M 3022 2063 
Q 3016 2534 2758 2815 
Q 2500 3097 2075 3097 
Q 1594 3097 1305 2825 
Q 1016 2553 972 2059 
L 3022 2063 
z
" transform="scale(0.015625)"/>
       <path id="DejaVuSans-61" d="M 2194 1759 
Q 1497 1759 1228 1600 
Q 959 1441 959 1056 
Q 959 750 1161 570 
Q 1363 391 1709 391 
Q 2188 391 2477 730 
Q 2766 1069 2766 1631 
L 2766 1759 
L 2194 1759 
z
M 3341 1997 
L 3341 0 
L 2766 0 
L 2766 531 
Q 2569 213 2275 61 
Q 1981 -91 1556 -91 
Q 1019 -91 701 211 
Q 384 513 384 1019 
Q 384 1609 779 1909 
Q 1175 2209 1959 2209 
L 2766 2209 
L 2766 2266 
Q 2766 2663 2505 2880 
Q 2244 3097 1772 3097 
Q 1472 3097 1187 3025 
Q 903 2953 641 2809 
L 641 3341 
Q 956 3463 1253 3523 
Q 1550 3584 1831 3584 
Q 2591 3584 2966 3190 
Q 3341 2797 3341 1997 
z
" transform="scale(0.015625)"/>
       <path id="DejaVuSans-6b" d="M 581 4863 
L 1159 4863 
L 1159 1991 
L 2875 3500 
L 3609 3500 
L 1753 1863 
L 3688 0 
L 2938 0 
L 1159 1709 
L 1159 0 
L 581 0 
L 581 4863 
z
" transform="scale(0.015625)"/>
       <path id="DejaVuSans-20" transform="scale(0.015625)"/>
       <path id="DejaVuSans-4b" d="M 628 4666 
L 1259 4666 
L 1259 2694 
L 3353 4666 
L 4166 4666 
L 1850 2491 
L 4331 0 
L 3500 0 
L 1259 2247 
L 1259 0 
L 628 0 
L 628 4666 
z
" transform="scale(0.015625)"/>
       <path id="DejaVuSans-45" d="M 628 4666 
L 3578 4666 
L 3578 4134 
L 1259 4134 
L 1259 2753 
L 3481 2753 
L 3481 2222 
L 1259 2222 
L 1259 531 
L 3634 531 
L 3634 0 
L 628 0 
L 628 4666 
z
" transform="scale(0.015625)"/>
       <path id="DejaVuSans-4d" d="M 628 4666 
L 1569 4666 
L 2759 1491 
L 3956 4666 
L 4897 4666 
L 4897 0 
L 4281 0 
L 4281 4097 
L 3078 897 
L 2444 897 
L 1241 4097 
L 1241 0 
L 628 0 
L 628 4666 
z
" transform="scale(0.015625)"/>
       <path id="DejaVuSans-53" d="M 3425 4513 
L 3425 3897 
Q 3066 4069 2747 4153 
Q 2428 4238 2131 4238 
Q 1616 4238 1336 4038 
Q 1056 3838 1056 3469 
Q 1056 3159 1242 3001 
Q 1428 2844 1947 2747 
L 2328 2669 
Q 3034 2534 3370 2195 
Q 3706 1856 3706 1288 
Q 3706 609 3251 259 
Q 2797 -91 1919 -91 
Q 1588 -91 1214 -16 
Q 841 59 441 206 
L 441 856 
Q 825 641 1194 531 
Q 1563 422 1919 422 
Q 2459 422 2753 634 
Q 3047 847 3047 1241 
Q 3047 1584 2836 1778 
Q 2625 1972 2144 2069 
L 1759 2144 
Q 1053 2284 737 2584 
Q 422 2884 422 3419 
Q 422 4038 858 4394 
Q 1294 4750 2059 4750 
Q 2388 4750 2728 4690 
Q 3069 4631 3425 4513 
z
" transform="scale(0.015625)"/>
       <path id="DejaVuSans-74" d="M 1172 4494 
L 1172 3500 
L 2356 3500 
L 2356 3053 
L 1172 3053 
L 1172 1153 
Q 1172 725 1289 603 
Q 1406 481 1766 481 
L 2356 481 
L 2356 0 
L 1766 0 
Q 1100 0 847 248 
Q 594 497 594 1153 
L 594 3053 
L 172 3053 
L 172 3500 
L 594 3500 
L 594 4494 
L 1172 4494 
z
" transform="scale(0.015625)"/>
       <path id="DejaVuSans-6e" d="M 3513 2113 
L 3513 0 
L 2938 0 
L 2938 2094 
Q 2938 2591 2744 2837 
Q 2550 3084 2163 3084 
Q 1697 3084 1428 2787 
Q 1159 2491 1159 1978 
L 1159 0 
L 581 0 
L 581 3500 
L 1159 3500 
L 1159 2956 
Q 1366 3272 1645 3428 
Q 1925 3584 2291 3584 
Q 2894 3584 3203 3211 
Q 3513 2838 3513 2113 
z
" transform="scale(0.015625)"/>
       <path id="DejaVuSans-64" d="M 2906 2969 
L 2906 4863 
L 3481 4863 
L 3481 0 
L 2906 0 
L 2906 525 
Q 2725 213 2448 61 
Q 2172 -91 1784 -91 
Q 1150 -91 751 415 
Q 353 922 353 1747 
Q 353 2572 751 3078 
Q 1150 3584 1784 3584 
Q 2172 3584 2448 3432 
Q 2725 3281 2906 2969 
z
M 947 1747 
Q 947 1113 1208 752 
Q 1469 391 1925 391 
Q 2381 391 2643 752 
Q 2906 1113 2906 1747 
Q 2906 2381 2643 2742 
Q 2381 3103 1925 3103 
Q 1469 3103 1208 2742 
Q 947 2381 947 1747 
z
" transform="scale(0.015625)"/>
      </defs>
      <use xlink:href="#DejaVuSans-50"/>
      <use xlink:href="#DejaVuSans-65" x="56.677734"/>
      <use xlink:href="#DejaVuSans-61" x="118.201172"/>
      <use xlink:href="#DejaVuSans-6b" x="179.480469"/>
      <use xlink:href="#DejaVuSans-20" x="237.390625"/>
      <use xlink:href="#DejaVuSans-4b" x="269.177734"/>
      <use xlink:href="#DejaVuSans-45" x="334.753906"/>
      <use xlink:href="#DejaVuSans-4d" x="397.9375"/>
      <use xlink:href="#DejaVuSans-20" x="484.216797"/>
      <use xlink:href="#DejaVuSans-53" x="516.003906"/>
      <use xlink:href="#DejaVuSans-74" x="579.480469"/>
      <use xlink:href="#DejaVuSans-61" x="618.689453"/>
      <use xlink:href="#DejaVuSans-6e" x="679.96875"/>
      <use xlink:href="#DejaVuSans-64" x="743.347656"/>
     </g>
    </g>
   </g>
   <g id="matplotlib.axis_2">
    <g id="ytick_1">
     <g id="line2d_8">
      <defs>
       <path id="m3246acb9e6" d="M 0 0 
L -3.5 0 
" style="stroke: #000000; stroke-width: 0.8"/>
      </defs>
      <g>
       <use xlink:href="#m3246acb9e6" x="52.160938" y="281.578915" style="stroke: #000000; stroke-width: 0.8"/>
      </g>
     </g>
     <g id="text_9">
      <!-- −2.0 -->
      <g transform="translate(20.878125 285.378134) scale(0.1 -0.1)">
       <defs>
        <path id="DejaVuSans-2212" d="M 678 2272 
L 4684 2272 
L 4684 1741 
L 678 1741 
L 678 2272 
z
" transform="scale(0.015625)"/>
        <path id="DejaVuSans-32" d="M 1228 531 
L 3431 531 
L 3431 0 
L 469 0 
L 469 531 
Q 828 903 1448 1529 
Q 2069 2156 2228 2338 
Q 2531 2678 2651 2914 
Q 2772 3150 2772 3378 
Q 2772 3750 2511 3984 
Q 2250 4219 1831 4219 
Q 1534 4219 1204 4116 
Q 875 4013 500 3803 
L 500 4441 
Q 881 4594 1212 4672 
Q 1544 4750 1819 4750 
Q 2544 4750 2975 4387 
Q 3406 4025 3406 3419 
Q 3406 3131 3298 2873 
Q 3191 2616 2906 2266 
Q 2828 2175 2409 1742 
Q 1991 1309 1228 531 
z
" transform="scale(0.015625)"/>
        <path id="DejaVuSans-2e" d="M 684 794 
L 1344 794 
L 1344 0 
L 684 0 
L 684 794 
z
" transform="scale(0.015625)"/>
       </defs>
       <use xlink:href="#DejaVuSans-2212"/>
       <use xlink:href="#DejaVuSans-32" x="83.789062"/>
       <use xlink:href="#DejaVuSans-2e" x="147.412109"/>
       <use xlink:href="#DejaVuSans-30" x="179.199219"/>
      </g>
     </g>
    </g>
    <g id="ytick_2">
     <g id="line2d_9">
      <g>
       <use xlink:href="#m3246acb9e6" x="52.160938" y="246.913986" style="stroke: #000000; stroke-width: 0.8"/>
      </g>
     </g>
     <g id="text_10">
      <!-- −1.5 -->
      <g transform="translate(20.878125 250.713205) scale(0.1 -0.1)">
       <defs>
        <path id="DejaVuSans-31" d="M 794 531 
L 1825 531 
L 1825 4091 
L 703 3866 
L 703 4441 
L 1819 4666 
L 2450 4666 
L 2450 531 
L 3481 531 
L 3481 0 
L 794 0 
L 794 531 
z
" transform="scale(0.015625)"/>
       </defs>
       <use xlink:href="#DejaVuSans-2212"/>
       <use xlink:href="#DejaVuSans-31" x="83.789062"/>
       <use xlink:href="#DejaVuSans-2e" x="147.412109"/>
       <use xlink:href="#DejaVuSans-35" x="179.199219"/>
      </g>
     </g>
    </g>
    <g id="ytick_3">
     <g id="line2d_10">
      <g>
       <use xlink:href="#m3246acb9e6" x="52.160938" y="212.249057" style="stroke: #000000; stroke-width: 0.8"/>
      </g>
     </g>
     <g id="text_11">
      <!-- −1.0 -->
      <g transform="translate(20.878125 216.048276) scale(0.1 -0.1)">
       <use xlink:href="#DejaVuSans-2212"/>
       <use xlink:href="#DejaVuSans-31" x="83.789062"/>
       <use xlink:href="#DejaVuSans-2e" x="147.412109"/>
       <use xlink:href="#DejaVuSans-30" x="179.199219"/>
      </g>
     </g>
    </g>
    <g id="ytick_4">
     <g id="line2d_11">
      <g>
       <use xlink:href="#m3246acb9e6" x="52.160938" y="177.584128" style="stroke: #000000; stroke-width: 0.8"/>
      </g>
     </g>
     <g id="text_12">
      <!-- −0.5 -->
      <g transform="translate(20.878125 181.383347) scale(0.1 -0.1)">
       <use xlink:href="#DejaVuSans-2212"/>
       <use xlink:href="#DejaVuSans-30" x="83.789062"/>
       <use xlink:href="#DejaVuSans-2e" x="147.412109"/>
       <use xlink:href="#DejaVuSans-35" x="179.199219"/>
      </g>
     </g>
    </g>
    <g id="ytick_5">
     <g id="line2d_12">
      <g>
       <use xlink:href="#m3246acb9e6" x="52.160938" y="142.919199" style="stroke: #000000; stroke-width: 0.8"/>
      </g>
     </g>
     <g id="text_13">
      <!-- 0.0 -->
      <g transform="translate(29.257813 146.718418) scale(0.1 -0.1)">
       <use xlink:href="#DejaVuSans-30"/>
       <use xlink:href="#DejaVuSans-2e" x="63.623047"/>
       <use xlink:href="#DejaVuSans-30" x="95.410156"/>
      </g>
     </g>
    </g>
    <g id="ytick_6">
     <g id="line2d_13">
      <g>
       <use xlink:href="#m3246acb9e6" x="52.160938" y="108.254271" style="stroke: #000000; stroke-width: 0.8"/>
      </g>
     </g>
     <g id="text_14">
      <!-- 0.5 -->
      <g transform="translate(29.257813 112.053489) scale(0.1 -0.1)">
       <use xlink:href="#DejaVuSans-30"/>
       <use xlink:href="#DejaVuSans-2e" x="63.623047"/>
       <use xlink:href="#DejaVuSans-35" x="95.410156"/>
      </g>
     </g>
    </g>
    <g id="ytick_7">
     <g id="line2d_14">
      <g>
       <use xlink:href="#m3246acb9e6" x="52.160938" y="73.589342" style="stroke: #000000; stroke-width: 0.8"/>
      </g>
     </g>
     <g id="text_15">
      <!-- 1.0 -->
      <g transform="translate(29.257813 77.38856) scale(0.1 -0.1)">
       <use xlink:href="#DejaVuSans-31"/>
       <use xlink:href="#DejaVuSans-2e" x="63.623047"/>
       <use xlink:href="#DejaVuSans-30" x="95.410156"/>
      </g>
     </g>
    </g>
    <g id="ytick_8">
     <g id="line2d_15">
      <g>
       <use xlink:href="#m3246acb9e6" x="52.160938" y="38.924413" style="stroke: #000000; stroke-width: 0.8"/>
      </g>
     </g>
     <g id="text_16">
      <!-- 1.5 -->
      <g transform="translate(29.257813 42.723632) scale(0.1 -0.1)">
       <use xlink:href="#DejaVuSans-31"/>
       <use xlink:href="#DejaVuSans-2e" x="63.623047"/>
       <use xlink:href="#DejaVuSans-35" x="95.410156"/>
      </g>
     </g>
    </g>
    <g id="text_17">
     <!-- Volume Total (Standardized) -->
     <g transform="translate(14.798438 216.164844) rotate(-90) scale(0.1 -0.1)">
      <defs>
       <path id="DejaVuSans-56" d="M 1831 0 
L 50 4666 
L 709 4666 
L 2188 738 
L 3669 4666 
L 4325 4666 
L 2547 0 
L 1831 0 
z
" transform="scale(0.015625)"/>
       <path id="DejaVuSans-6f" d="M 1959 3097 
Q 1497 3097 1228 2736 
Q 959 2375 959 1747 
Q 959 1119 1226 758 
Q 1494 397 1959 397 
Q 2419 397 2687 759 
Q 2956 1122 2956 1747 
Q 2956 2369 2687 2733 
Q 2419 3097 1959 3097 
z
M 1959 3584 
Q 2709 3584 3137 3096 
Q 3566 2609 3566 1747 
Q 3566 888 3137 398 
Q 2709 -91 1959 -91 
Q 1206 -91 779 398 
Q 353 888 353 1747 
Q 353 2609 779 3096 
Q 1206 3584 1959 3584 
z
" transform="scale(0.015625)"/>
       <path id="DejaVuSans-6c" d="M 603 4863 
L 1178 4863 
L 1178 0 
L 603 0 
L 603 4863 
z
" transform="scale(0.015625)"/>
       <path id="DejaVuSans-75" d="M 544 1381 
L 544 3500 
L 1119 3500 
L 1119 1403 
Q 1119 906 1312 657 
Q 1506 409 1894 409 
Q 2359 409 2629 706 
Q 2900 1003 2900 1516 
L 2900 3500 
L 3475 3500 
L 3475 0 
L 2900 0 
L 2900 538 
Q 2691 219 2414 64 
Q 2138 -91 1772 -91 
Q 1169 -91 856 284 
Q 544 659 544 1381 
z
M 1991 3584 
L 1991 3584 
z
" transform="scale(0.015625)"/>
       <path id="DejaVuSans-6d" d="M 3328 2828 
Q 3544 3216 3844 3400 
Q 4144 3584 4550 3584 
Q 5097 3584 5394 3201 
Q 5691 2819 5691 2113 
L 5691 0 
L 5113 0 
L 5113 2094 
Q 5113 2597 4934 2840 
Q 4756 3084 4391 3084 
Q 3944 3084 3684 2787 
Q 3425 2491 3425 1978 
L 3425 0 
L 2847 0 
L 2847 2094 
Q 2847 2600 2669 2842 
Q 2491 3084 2119 3084 
Q 1678 3084 1418 2786 
Q 1159 2488 1159 1978 
L 1159 0 
L 581 0 
L 581 3500 
L 1159 3500 
L 1159 2956 
Q 1356 3278 1631 3431 
Q 1906 3584 2284 3584 
Q 2666 3584 2933 3390 
Q 3200 3197 3328 2828 
z
" transform="scale(0.015625)"/>
       <path id="DejaVuSans-54" d="M -19 4666 
L 3928 4666 
L 3928 4134 
L 2272 4134 
L 2272 0 
L 1638 0 
L 1638 4134 
L -19 4134 
L -19 4666 
z
" transform="scale(0.015625)"/>
       <path id="DejaVuSans-28" d="M 1984 4856 
Q 1566 4138 1362 3434 
Q 1159 2731 1159 2009 
Q 1159 1288 1364 580 
Q 1569 -128 1984 -844 
L 1484 -844 
Q 1016 -109 783 600 
Q 550 1309 550 2009 
Q 550 2706 781 3412 
Q 1013 4119 1484 4856 
L 1984 4856 
z
" transform="scale(0.015625)"/>
       <path id="DejaVuSans-72" d="M 2631 2963 
Q 2534 3019 2420 3045 
Q 2306 3072 2169 3072 
Q 1681 3072 1420 2755 
Q 1159 2438 1159 1844 
L 1159 0 
L 581 0 
L 581 3500 
L 1159 3500 
L 1159 2956 
Q 1341 3275 1631 3429 
Q 1922 3584 2338 3584 
Q 2397 3584 2469 3576 
Q 2541 3569 2628 3553 
L 2631 2963 
z
" transform="scale(0.015625)"/>
       <path id="DejaVuSans-69" d="M 603 3500 
L 1178 3500 
L 1178 0 
L 603 0 
L 603 3500 
z
M 603 4863 
L 1178 4863 
L 1178 4134 
L 603 4134 
L 603 4863 
z
" transform="scale(0.015625)"/>
       <path id="DejaVuSans-7a" d="M 353 3500 
L 3084 3500 
L 3084 2975 
L 922 459 
L 3084 459 
L 3084 0 
L 275 0 
L 275 525 
L 2438 3041 
L 353 3041 
L 353 3500 
z
" transform="scale(0.015625)"/>
       <path id="DejaVuSans-29" d="M 513 4856 
L 1013 4856 
Q 1481 4119 1714 3412 
Q 1947 2706 1947 2009 
Q 1947 1309 1714 600 
Q 1481 -109 1013 -844 
L 513 -844 
Q 928 -128 1133 580 
Q 1338 1288 1338 2009 
Q 1338 2731 1133 3434 
Q 928 4138 513 4856 
z
" transform="scale(0.015625)"/>
      </defs>
      <use xlink:href="#DejaVuSans-56"/>
      <use xlink:href="#DejaVuSans-6f" x="60.658203"/>
      <use xlink:href="#DejaVuSans-6c" x="121.839844"/>
      <use xlink:href="#DejaVuSans-75" x="149.623047"/>
      <use xlink:href="#DejaVuSans-6d" x="213.001953"/>
      <use xlink:href="#DejaVuSans-65" x="310.414062"/>
      <use xlink:href="#DejaVuSans-20" x="371.9375"/>
      <use xlink:href="#DejaVuSans-54" x="403.724609"/>
      <use xlink:href="#DejaVuSans-6f" x="447.808594"/>
      <use xlink:href="#DejaVuSans-74" x="508.990234"/>
      <use xlink:href="#DejaVuSans-61" x="548.199219"/>
      <use xlink:href="#DejaVuSans-6c" x="609.478516"/>
      <use xlink:href="#DejaVuSans-20" x="637.261719"/>
      <use xlink:href="#DejaVuSans-28" x="669.048828"/>
      <use xlink:href="#DejaVuSans-53" x="708.0625"/>
      <use xlink:href="#DejaVuSans-74" x="771.539062"/>
      <use xlink:href="#DejaVuSans-61" x="810.748047"/>
      <use xlink:href="#DejaVuSans-6e" x="872.027344"/>
      <use xlink:href="#DejaVuSans-64" x="935.40625"/>
      <use xlink:href="#DejaVuSans-61" x="998.882812"/>
      <use xlink:href="#DejaVuSans-72" x="1060.162109"/>
      <use xlink:href="#DejaVuSans-64" x="1099.525391"/>
      <use xlink:href="#DejaVuSans-69" x="1163.001953"/>
      <use xlink:href="#DejaVuSans-7a" x="1190.785156"/>
      <use xlink:href="#DejaVuSans-65" x="1243.275391"/>
      <use xlink:href="#DejaVuSans-64" x="1304.798828"/>
      <use xlink:href="#DejaVuSans-29" x="1368.275391"/>
     </g>
    </g>
   </g>
   <g id="line2d_16">
    <path d="M 63.350777 215.089667 
L 65.611351 213.505188 
L 67.871924 211.92071 
L 70.132498 210.336231 
L 72.393072 208.751752 
L 74.653645 207.167274 
L 76.914219 205.582795 
L 79.174793 203.998316 
L 81.435366 202.413838 
L 83.69594 200.829359 
L 85.956514 199.24488 
L 88.217087 197.660402 
L 90.477661 196.075923 
L 92.738235 194.491444 
L 94.998808 192.906966 
L 97.259382 191.322487 
L 99.519955 189.738009 
L 101.780529 188.15353 
L 104.041103 186.569051 
L 106.301676 184.984573 
L 108.56225 183.400094 
L 110.822824 181.815615 
L 113.083397 180.231137 
L 115.343971 178.646658 
L 117.604545 177.062179 
L 119.865118 175.477701 
L 122.125692 173.893222 
L 124.386266 172.308744 
L 126.646839 170.724265 
L 128.907413 169.139786 
L 131.167987 167.555308 
L 133.42856 165.970829 
L 135.689134 164.38635 
L 137.949708 162.801872 
L 140.210281 161.217393 
L 142.470855 159.632914 
L 144.731429 158.048436 
L 146.992002 156.463957 
L 149.252576 154.879478 
L 151.513149 153.295 
L 153.773723 151.710521 
L 156.034297 150.126043 
L 158.29487 148.541564 
L 160.555444 146.957085 
L 162.816018 145.372607 
L 165.076591 143.788128 
L 167.337165 142.203649 
L 169.597739 140.619171 
L 171.858312 139.034692 
L 174.118886 137.450213 
L 176.37946 135.865735 
L 178.640033 134.281256 
L 180.900607 132.696778 
L 183.161181 131.112299 
L 185.421754 129.52782 
L 187.682328 127.943342 
L 189.942902 126.358863 
L 192.203475 124.774384 
L 194.464049 123.189906 
L 196.724622 121.605427 
L 198.985196 120.020948 
L 201.24577 118.43647 
L 203.506343 116.851991 
L 205.766917 115.267512 
L 208.027491 113.683034 
L 210.288064 112.098555 
L 212.548638 110.514077 
L 214.809212 108.929598 
L 217.069785 107.345119 
L 219.330359 105.760641 
L 221.590933 104.176162 
L 223.851506 102.591683 
L 226.11208 101.007205 
L 228.372654 99.422726 
L 230.633227 97.838247 
L 232.893801 96.253769 
L 235.154375 94.66929 
L 237.414948 93.084812 
L 239.675522 91.500333 
L 241.936095 89.915854 
L 244.196669 88.331376 
L 246.457243 86.746897 
L 248.717816 85.162418 
L 250.97839 83.57794 
L 253.238964 81.993461 
L 255.499537 80.408982 
L 257.760111 78.824504 
L 260.020685 77.240025 
L 262.281258 75.655546 
L 264.541832 74.071068 
L 266.802406 72.486589 
L 269.062979 70.902111 
L 271.323553 69.317632 
L 273.584127 67.733153 
L 275.8447 66.148675 
L 278.105274 64.564196 
L 280.365848 62.979717 
L 282.626421 61.395239 
L 284.886995 59.81076 
L 287.147569 58.226281 
" clip-path="url(#p470aadcf59)" style="fill: none; stroke: #000000; stroke-width: 2; stroke-linecap: square"/>
   </g>
   <g id="patch_3">
    <path d="M 52.160938 284.4 
L 52.160938 7.2 
" style="fill: none; stroke: #000000; stroke-width: 0.8; stroke-linejoin: miter; stroke-linecap: square"/>
   </g>
   <g id="patch_4">
    <path d="M 52.160938 284.4 
L 298.337408 284.4 
" style="fill: none; stroke: #000000; stroke-width: 0.8; stroke-linejoin: miter; stroke-linecap: square"/>
   </g>
   <g id="text_18">
    <!-- r= 0.63, p= 3.82e-03 -->
    <g transform="translate(121.774954 34.92) scale(0.1 -0.1)">
     <defs>
      <path id="DejaVuSans-3d" d="M 678 2906 
L 4684 2906 
L 4684 2381 
L 678 2381 
L 678 2906 
z
M 678 1631 
L 4684 1631 
L 4684 1100 
L 678 1100 
L 678 1631 
z
" transform="scale(0.015625)"/>
      <path id="DejaVuSans-2c" d="M 750 794 
L 1409 794 
L 1409 256 
L 897 -744 
L 494 -744 
L 750 256 
L 750 794 
z
" transform="scale(0.015625)"/>
      <path id="DejaVuSans-70" d="M 1159 525 
L 1159 -1331 
L 581 -1331 
L 581 3500 
L 1159 3500 
L 1159 2969 
Q 1341 3281 1617 3432 
Q 1894 3584 2278 3584 
Q 2916 3584 3314 3078 
Q 3713 2572 3713 1747 
Q 3713 922 3314 415 
Q 2916 -91 2278 -91 
Q 1894 -91 1617 61 
Q 1341 213 1159 525 
z
M 3116 1747 
Q 3116 2381 2855 2742 
Q 2594 3103 2138 3103 
Q 1681 3103 1420 2742 
Q 1159 2381 1159 1747 
Q 1159 1113 1420 752 
Q 1681 391 2138 391 
Q 2594 391 2855 752 
Q 3116 1113 3116 1747 
z
" transform="scale(0.015625)"/>
      <path id="DejaVuSans-2d" d="M 313 2009 
L 1997 2009 
L 1997 1497 
L 313 1497 
L 313 2009 
z
" transform="scale(0.015625)"/>
     </defs>
     <use xlink:href="#DejaVuSans-72"/>
     <use xlink:href="#DejaVuSans-3d" x="41.113281"/>
     <use xlink:href="#DejaVuSans-20" x="124.902344"/>
     <use xlink:href="#DejaVuSans-30" x="156.689453"/>
     <use xlink:href="#DejaVuSans-2e" x="220.3125"/>
     <use xlink:href="#DejaVuSans-36" x="252.099609"/>
     <use xlink:href="#DejaVuSans-33" x="315.722656"/>
     <use xlink:href="#DejaVuSans-2c" x="379.345703"/>
     <use xlink:href="#DejaVuSans-20" x="411.132812"/>
     <use xlink:href="#DejaVuSans-70" x="442.919922"/>
     <use xlink:href="#DejaVuSans-3d" x="506.396484"/>
     <use xlink:href="#DejaVuSans-20" x="590.185547"/>
     <use xlink:href="#DejaVuSans-33" x="621.972656"/>
     <use xlink:href="#DejaVuSans-2e" x="685.595703"/>
     <use xlink:href="#DejaVuSans-38" x="717.382812"/>
     <use xlink:href="#DejaVuSans-32" x="781.005859"/>
     <use xlink:href="#DejaVuSans-65" x="844.628906"/>
     <use xlink:href="#DejaVuSans-2d" x="906.152344"/>
     <use xlink:href="#DejaVuSans-30" x="942.236328"/>
     <use xlink:href="#DejaVuSans-33" x="1005.859375"/>
    </g>
   </g>
  </g>
  <g id="axes_2">
   <g id="patch_5">
    <path d="M 347.572702 284.4 
L 593.749173 284.4 
L 593.749173 7.2 
L 347.572702 7.2 
z
" style="fill: #ffffff"/>
   </g>
   <g id="PathCollection_2">
    <g clip-path="url(#p63315a85ae)">
     <use xlink:href="#mb828293b1d" x="470.480339" y="142.197643" style="fill: #0000ff; fill-opacity: 0.8; stroke: #0000ff; stroke-opacity: 0.8"/>
     <use xlink:href="#mb828293b1d" x="430.113001" y="166.938004" style="fill: #0000ff; fill-opacity: 0.8; stroke: #0000ff; stroke-opacity: 0.8"/>
     <use xlink:href="#mb828293b1d" x="567.591496" y="195.435441" style="fill: #0000ff; fill-opacity: 0.8; stroke: #0000ff; stroke-opacity: 0.8"/>
     <use xlink:href="#mb828293b1d" x="582.559333" y="19.8" style="fill: #0000ff; fill-opacity: 0.8; stroke: #0000ff; stroke-opacity: 0.8"/>
     <use xlink:href="#mb828293b1d" x="428.894497" y="152.876244" style="fill: #0000ff; fill-opacity: 0.8; stroke: #0000ff; stroke-opacity: 0.8"/>
     <use xlink:href="#mb828293b1d" x="408.903391" y="164.552641" style="fill: #0000ff; fill-opacity: 0.8; stroke: #0000ff; stroke-opacity: 0.8"/>
     <use xlink:href="#mb828293b1d" x="441.247239" y="162.694421" style="fill: #0000ff; fill-opacity: 0.8; stroke: #0000ff; stroke-opacity: 0.8"/>
     <use xlink:href="#mb828293b1d" x="479.194011" y="192.634194" style="fill: #0000ff; fill-opacity: 0.8; stroke: #0000ff; stroke-opacity: 0.8"/>
     <use xlink:href="#mb828293b1d" x="522.236613" y="85.692458" style="fill: #0000ff; fill-opacity: 0.8; stroke: #0000ff; stroke-opacity: 0.8"/>
     <use xlink:href="#mb828293b1d" x="403.375682" y="187.656526" style="fill: #0000ff; fill-opacity: 0.8; stroke: #0000ff; stroke-opacity: 0.8"/>
     <use xlink:href="#mb828293b1d" x="545.394414" y="148.398673" style="fill: #0000ff; fill-opacity: 0.8; stroke: #0000ff; stroke-opacity: 0.8"/>
     <use xlink:href="#mb828293b1d" x="417.379034" y="234.439557" style="fill: #0000ff; fill-opacity: 0.8; stroke: #0000ff; stroke-opacity: 0.8"/>
     <use xlink:href="#mb828293b1d" x="431.904578" y="267.734358" style="fill: #0000ff; fill-opacity: 0.8; stroke: #0000ff; stroke-opacity: 0.8"/>
     <use xlink:href="#mb828293b1d" x="358.762542" y="219.913492" style="fill: #0000ff; fill-opacity: 0.8; stroke: #0000ff; stroke-opacity: 0.8"/>
     <use xlink:href="#mb828293b1d" x="438.516519" y="257.752265" style="fill: #0000ff; fill-opacity: 0.8; stroke: #0000ff; stroke-opacity: 0.8"/>
     <use xlink:href="#mb828293b1d" x="525.123733" y="155.061826" style="fill: #0000ff; fill-opacity: 0.8; stroke: #0000ff; stroke-opacity: 0.8"/>
     <use xlink:href="#mb828293b1d" x="363.369053" y="208.093703" style="fill: #0000ff; fill-opacity: 0.8; stroke: #0000ff; stroke-opacity: 0.8"/>
     <use xlink:href="#mb828293b1d" x="482.099549" y="154.65737" style="fill: #0000ff; fill-opacity: 0.8; stroke: #0000ff; stroke-opacity: 0.8"/>
     <use xlink:href="#mb828293b1d" x="475.688026" y="134.785678" style="fill: #0000ff; fill-opacity: 0.8; stroke: #0000ff; stroke-opacity: 0.8"/>
    </g>
   </g>
   <g id="PolyCollection_2">
    <path d="M 358.762542 191.31118 
L 358.762542 271.8 
L 361.023115 269.86214 
L 363.283689 267.791573 
L 365.544263 265.604968 
L 367.804836 263.418362 
L 370.06541 261.231756 
L 372.325984 259.035641 
L 374.586557 256.995491 
L 376.847131 255.06197 
L 379.107705 252.708998 
L 381.368278 250.345591 
L 383.628852 248.080851 
L 385.889426 245.885429 
L 388.149999 243.683645 
L 390.410573 241.481861 
L 392.671147 239.401122 
L 394.93172 237.459426 
L 397.192294 235.831826 
L 399.452867 234.184669 
L 401.713441 232.58363 
L 403.974015 230.576123 
L 406.234588 228.758031 
L 408.495162 226.447379 
L 410.755736 224.453867 
L 413.016309 222.68819 
L 415.276883 220.378734 
L 417.537457 218.784879 
L 419.79803 216.974331 
L 422.058604 215.362014 
L 424.319178 214.014033 
L 426.579751 212.402413 
L 428.840325 210.820592 
L 431.100899 209.240878 
L 433.361472 208.060925 
L 435.622046 206.812726 
L 437.88262 205.123644 
L 440.143193 203.148577 
L 442.403767 202.300309 
L 444.664341 200.844059 
L 446.924914 199.238389 
L 449.185488 197.85543 
L 451.446061 196.880262 
L 453.706635 195.721936 
L 455.967209 194.655876 
L 458.227782 193.814433 
L 460.488356 192.593726 
L 462.74893 191.572461 
L 465.009503 190.935478 
L 467.270077 189.989862 
L 469.530651 188.897306 
L 471.791224 188.128536 
L 474.051798 186.990426 
L 476.312372 186.227861 
L 478.572945 185.277446 
L 480.833519 184.329771 
L 483.094093 183.454495 
L 485.354666 183.131398 
L 487.61524 182.808301 
L 489.875814 182.485204 
L 492.136387 181.743656 
L 494.396961 181.274686 
L 496.657534 180.723477 
L 498.918108 180.352409 
L 501.178682 179.977782 
L 503.439255 179.629046 
L 505.699829 179.232411 
L 507.960403 178.85117 
L 510.220976 178.334941 
L 512.48155 177.940063 
L 514.742124 177.482913 
L 517.002697 176.933534 
L 519.263271 176.320135 
L 521.523845 175.706228 
L 523.784418 175.095273 
L 526.044992 174.716968 
L 528.305566 174.228529 
L 530.566139 173.732593 
L 532.826713 173.177097 
L 535.087287 172.569575 
L 537.34786 172.138551 
L 539.608434 171.709893 
L 541.869008 171.272254 
L 544.129581 170.782316 
L 546.390155 170.292377 
L 548.650728 169.802438 
L 550.911302 169.3125 
L 553.171876 168.822561 
L 555.432449 168.332622 
L 557.693023 167.842684 
L 559.953597 167.436977 
L 562.21417 167.245453 
L 564.474744 167.012121 
L 566.735318 166.587948 
L 568.995891 166.157939 
L 571.256465 165.653558 
L 573.517039 165.303544 
L 575.777612 164.881395 
L 578.038186 164.453561 
L 580.29876 164.025728 
L 582.559333 163.597895 
L 582.559333 48.464018 
L 582.559333 48.464018 
L 580.29876 50.454247 
L 578.038186 52.444475 
L 575.777612 54.436431 
L 573.517039 56.559136 
L 571.256465 58.502965 
L 568.995891 60.570946 
L 566.735318 62.640082 
L 564.474744 64.713812 
L 562.21417 66.783682 
L 559.953597 69.075705 
L 557.693023 71.190034 
L 555.432449 73.157344 
L 553.171876 75.124654 
L 550.911302 77.133731 
L 548.650728 79.203833 
L 546.390155 81.473528 
L 544.129581 83.345571 
L 541.869008 85.407598 
L 539.608434 87.410904 
L 537.34786 89.394762 
L 535.087287 91.560914 
L 532.826713 93.686684 
L 530.566139 95.467921 
L 528.305566 97.512826 
L 526.044992 99.583458 
L 523.784418 101.848814 
L 521.523845 104.038927 
L 519.263271 106.057484 
L 517.002697 108.17681 
L 514.742124 110.212607 
L 512.48155 112.249377 
L 510.220976 114.073825 
L 507.960403 116.298266 
L 505.699829 118.526189 
L 503.439255 120.318342 
L 501.178682 122.347401 
L 498.918108 124.40651 
L 496.657534 126.100717 
L 494.396961 127.788168 
L 492.136387 129.485506 
L 489.875814 131.204416 
L 487.61524 132.944208 
L 485.354666 134.920415 
L 483.094093 136.624108 
L 480.833519 138.116954 
L 478.572945 139.953631 
L 476.312372 141.799132 
L 474.051798 143.291742 
L 471.791224 145.134343 
L 469.530651 146.581785 
L 467.270077 148.11801 
L 465.009503 149.833842 
L 462.74893 151.679564 
L 460.488356 153.199482 
L 458.227782 154.891832 
L 455.967209 156.434091 
L 453.706635 157.672578 
L 451.446061 158.91324 
L 449.185488 160.572605 
L 446.924914 162.22441 
L 444.664341 163.846839 
L 442.403767 165.477912 
L 440.143193 166.382276 
L 437.88262 167.381073 
L 435.622046 168.997193 
L 433.361472 170.064388 
L 431.100899 171.232108 
L 428.840325 172.239509 
L 426.579751 172.967676 
L 424.319178 173.807105 
L 422.058604 174.339564 
L 419.79803 175.231152 
L 417.537457 176.089411 
L 415.276883 176.919308 
L 413.016309 178.046466 
L 410.755736 179.181177 
L 408.495162 179.833062 
L 406.234588 180.036491 
L 403.974015 180.842189 
L 401.713441 181.505469 
L 399.452867 182.21284 
L 397.192294 182.885785 
L 394.93172 183.30665 
L 392.671147 183.85862 
L 390.410573 184.342412 
L 388.149999 184.826205 
L 385.889426 185.317913 
L 383.628852 185.810799 
L 381.368278 186.303685 
L 379.107705 186.773233 
L 376.847131 187.281563 
L 374.586557 187.765616 
L 372.325984 188.251864 
L 370.06541 188.520569 
L 367.804836 189.074889 
L 365.544263 189.72605 
L 363.283689 190.217445 
L 361.023115 190.721193 
L 358.762542 191.31118 
z
" clip-path="url(#p63315a85ae)" style="fill-opacity: 0.15"/>
   </g>
   <g id="matplotlib.axis_3">
    <g id="xtick_8">
     <g id="line2d_17">
      <g>
       <use xlink:href="#me9aed46225" x="370.885396" y="284.4" style="stroke: #000000; stroke-width: 0.8"/>
      </g>
     </g>
     <g id="text_19">
      <!-- 30 -->
      <g transform="translate(364.522896 298.998438) scale(0.1 -0.1)">
       <use xlink:href="#DejaVuSans-33"/>
       <use xlink:href="#DejaVuSans-30" x="63.623047"/>
      </g>
     </g>
    </g>
    <g id="xtick_9">
     <g id="line2d_18">
      <g>
       <use xlink:href="#me9aed46225" x="405.353239" y="284.4" style="stroke: #000000; stroke-width: 0.8"/>
      </g>
     </g>
     <g id="text_20">
      <!-- 40 -->
      <g transform="translate(398.990739 298.998438) scale(0.1 -0.1)">
       <use xlink:href="#DejaVuSans-34"/>
       <use xlink:href="#DejaVuSans-30" x="63.623047"/>
      </g>
     </g>
    </g>
    <g id="xtick_10">
     <g id="line2d_19">
      <g>
       <use xlink:href="#me9aed46225" x="439.821082" y="284.4" style="stroke: #000000; stroke-width: 0.8"/>
      </g>
     </g>
     <g id="text_21">
      <!-- 50 -->
      <g transform="translate(433.458582 298.998438) scale(0.1 -0.1)">
       <use xlink:href="#DejaVuSans-35"/>
       <use xlink:href="#DejaVuSans-30" x="63.623047"/>
      </g>
     </g>
    </g>
    <g id="xtick_11">
     <g id="line2d_20">
      <g>
       <use xlink:href="#me9aed46225" x="474.288926" y="284.4" style="stroke: #000000; stroke-width: 0.8"/>
      </g>
     </g>
     <g id="text_22">
      <!-- 60 -->
      <g transform="translate(467.926426 298.998438) scale(0.1 -0.1)">
       <use xlink:href="#DejaVuSans-36"/>
       <use xlink:href="#DejaVuSans-30" x="63.623047"/>
      </g>
     </g>
    </g>
    <g id="xtick_12">
     <g id="line2d_21">
      <g>
       <use xlink:href="#me9aed46225" x="508.756769" y="284.4" style="stroke: #000000; stroke-width: 0.8"/>
      </g>
     </g>
     <g id="text_23">
      <!-- 70 -->
      <g transform="translate(502.394269 298.998438) scale(0.1 -0.1)">
       <use xlink:href="#DejaVuSans-37"/>
       <use xlink:href="#DejaVuSans-30" x="63.623047"/>
      </g>
     </g>
    </g>
    <g id="xtick_13">
     <g id="line2d_22">
      <g>
       <use xlink:href="#me9aed46225" x="543.224612" y="284.4" style="stroke: #000000; stroke-width: 0.8"/>
      </g>
     </g>
     <g id="text_24">
      <!-- 80 -->
      <g transform="translate(536.862112 298.998438) scale(0.1 -0.1)">
       <use xlink:href="#DejaVuSans-38"/>
       <use xlink:href="#DejaVuSans-30" x="63.623047"/>
      </g>
     </g>
    </g>
    <g id="xtick_14">
     <g id="line2d_23">
      <g>
       <use xlink:href="#me9aed46225" x="577.692455" y="284.4" style="stroke: #000000; stroke-width: 0.8"/>
      </g>
     </g>
     <g id="text_25">
      <!-- 90 -->
      <g transform="translate(571.329955 298.998438) scale(0.1 -0.1)">
       <use xlink:href="#DejaVuSans-39"/>
       <use xlink:href="#DejaVuSans-30" x="63.623047"/>
      </g>
     </g>
    </g>
    <g id="text_26">
     <!-- Peak KEM Stand -->
     <g transform="translate(430.319531 312.676562) scale(0.1 -0.1)">
      <use xlink:href="#DejaVuSans-50"/>
      <use xlink:href="#DejaVuSans-65" x="56.677734"/>
      <use xlink:href="#DejaVuSans-61" x="118.201172"/>
      <use xlink:href="#DejaVuSans-6b" x="179.480469"/>
      <use xlink:href="#DejaVuSans-20" x="237.390625"/>
      <use xlink:href="#DejaVuSans-4b" x="269.177734"/>
      <use xlink:href="#DejaVuSans-45" x="334.753906"/>
      <use xlink:href="#DejaVuSans-4d" x="397.9375"/>
      <use xlink:href="#DejaVuSans-20" x="484.216797"/>
      <use xlink:href="#DejaVuSans-53" x="516.003906"/>
      <use xlink:href="#DejaVuSans-74" x="579.480469"/>
      <use xlink:href="#DejaVuSans-61" x="618.689453"/>
      <use xlink:href="#DejaVuSans-6e" x="679.96875"/>
      <use xlink:href="#DejaVuSans-64" x="743.347656"/>
     </g>
    </g>
   </g>
   <g id="matplotlib.axis_4">
    <g id="ytick_9">
     <g id="line2d_24">
      <g>
       <use xlink:href="#m3246acb9e6" x="347.572702" y="283.311642" style="stroke: #000000; stroke-width: 0.8"/>
      </g>
     </g>
     <g id="text_27">
      <!-- −2 -->
      <g transform="translate(325.830515 287.110861) scale(0.1 -0.1)">
       <use xlink:href="#DejaVuSans-2212"/>
       <use xlink:href="#DejaVuSans-32" x="83.789062"/>
      </g>
     </g>
    </g>
    <g id="ytick_10">
     <g id="line2d_25">
      <g>
       <use xlink:href="#m3246acb9e6" x="347.572702" y="227.216729" style="stroke: #000000; stroke-width: 0.8"/>
      </g>
     </g>
     <g id="text_28">
      <!-- −1 -->
      <g transform="translate(325.830515 231.015947) scale(0.1 -0.1)">
       <use xlink:href="#DejaVuSans-2212"/>
       <use xlink:href="#DejaVuSans-31" x="83.789062"/>
      </g>
     </g>
    </g>
    <g id="ytick_11">
     <g id="line2d_26">
      <g>
       <use xlink:href="#m3246acb9e6" x="347.572702" y="171.121816" style="stroke: #000000; stroke-width: 0.8"/>
      </g>
     </g>
     <g id="text_29">
      <!-- 0 -->
      <g transform="translate(334.210202 174.921034) scale(0.1 -0.1)">
       <use xlink:href="#DejaVuSans-30"/>
      </g>
     </g>
    </g>
    <g id="ytick_12">
     <g id="line2d_27">
      <g>
       <use xlink:href="#m3246acb9e6" x="347.572702" y="115.026902" style="stroke: #000000; stroke-width: 0.8"/>
      </g>
     </g>
     <g id="text_30">
      <!-- 1 -->
      <g transform="translate(334.210202 118.826121) scale(0.1 -0.1)">
       <use xlink:href="#DejaVuSans-31"/>
      </g>
     </g>
    </g>
    <g id="ytick_13">
     <g id="line2d_28">
      <g>
       <use xlink:href="#m3246acb9e6" x="347.572702" y="58.931989" style="stroke: #000000; stroke-width: 0.8"/>
      </g>
     </g>
     <g id="text_31">
      <!-- 2 -->
      <g transform="translate(334.210202 62.731208) scale(0.1 -0.1)">
       <use xlink:href="#DejaVuSans-32"/>
      </g>
     </g>
    </g>
    <g id="text_32">
     <!-- Radial Diffusivity (Standardized) -->
     <g transform="translate(319.750827 226.523438) rotate(-90) scale(0.1 -0.1)">
      <defs>
       <path id="DejaVuSans-52" d="M 2841 2188 
Q 3044 2119 3236 1894 
Q 3428 1669 3622 1275 
L 4263 0 
L 3584 0 
L 2988 1197 
Q 2756 1666 2539 1819 
Q 2322 1972 1947 1972 
L 1259 1972 
L 1259 0 
L 628 0 
L 628 4666 
L 2053 4666 
Q 2853 4666 3247 4331 
Q 3641 3997 3641 3322 
Q 3641 2881 3436 2590 
Q 3231 2300 2841 2188 
z
M 1259 4147 
L 1259 2491 
L 2053 2491 
Q 2509 2491 2742 2702 
Q 2975 2913 2975 3322 
Q 2975 3731 2742 3939 
Q 2509 4147 2053 4147 
L 1259 4147 
z
" transform="scale(0.015625)"/>
       <path id="DejaVuSans-44" d="M 1259 4147 
L 1259 519 
L 2022 519 
Q 2988 519 3436 956 
Q 3884 1394 3884 2338 
Q 3884 3275 3436 3711 
Q 2988 4147 2022 4147 
L 1259 4147 
z
M 628 4666 
L 1925 4666 
Q 3281 4666 3915 4102 
Q 4550 3538 4550 2338 
Q 4550 1131 3912 565 
Q 3275 0 1925 0 
L 628 0 
L 628 4666 
z
" transform="scale(0.015625)"/>
       <path id="DejaVuSans-66" d="M 2375 4863 
L 2375 4384 
L 1825 4384 
Q 1516 4384 1395 4259 
Q 1275 4134 1275 3809 
L 1275 3500 
L 2222 3500 
L 2222 3053 
L 1275 3053 
L 1275 0 
L 697 0 
L 697 3053 
L 147 3053 
L 147 3500 
L 697 3500 
L 697 3744 
Q 697 4328 969 4595 
Q 1241 4863 1831 4863 
L 2375 4863 
z
" transform="scale(0.015625)"/>
       <path id="DejaVuSans-73" d="M 2834 3397 
L 2834 2853 
Q 2591 2978 2328 3040 
Q 2066 3103 1784 3103 
Q 1356 3103 1142 2972 
Q 928 2841 928 2578 
Q 928 2378 1081 2264 
Q 1234 2150 1697 2047 
L 1894 2003 
Q 2506 1872 2764 1633 
Q 3022 1394 3022 966 
Q 3022 478 2636 193 
Q 2250 -91 1575 -91 
Q 1294 -91 989 -36 
Q 684 19 347 128 
L 347 722 
Q 666 556 975 473 
Q 1284 391 1588 391 
Q 1994 391 2212 530 
Q 2431 669 2431 922 
Q 2431 1156 2273 1281 
Q 2116 1406 1581 1522 
L 1381 1569 
Q 847 1681 609 1914 
Q 372 2147 372 2553 
Q 372 3047 722 3315 
Q 1072 3584 1716 3584 
Q 2034 3584 2315 3537 
Q 2597 3491 2834 3397 
z
" transform="scale(0.015625)"/>
       <path id="DejaVuSans-76" d="M 191 3500 
L 800 3500 
L 1894 563 
L 2988 3500 
L 3597 3500 
L 2284 0 
L 1503 0 
L 191 3500 
z
" transform="scale(0.015625)"/>
       <path id="DejaVuSans-79" d="M 2059 -325 
Q 1816 -950 1584 -1140 
Q 1353 -1331 966 -1331 
L 506 -1331 
L 506 -850 
L 844 -850 
Q 1081 -850 1212 -737 
Q 1344 -625 1503 -206 
L 1606 56 
L 191 3500 
L 800 3500 
L 1894 763 
L 2988 3500 
L 3597 3500 
L 2059 -325 
z
" transform="scale(0.015625)"/>
      </defs>
      <use xlink:href="#DejaVuSans-52"/>
      <use xlink:href="#DejaVuSans-61" x="67.232422"/>
      <use xlink:href="#DejaVuSans-64" x="128.511719"/>
      <use xlink:href="#DejaVuSans-69" x="191.988281"/>
      <use xlink:href="#DejaVuSans-61" x="219.771484"/>
      <use xlink:href="#DejaVuSans-6c" x="281.050781"/>
      <use xlink:href="#DejaVuSans-20" x="308.833984"/>
      <use xlink:href="#DejaVuSans-44" x="340.621094"/>
      <use xlink:href="#DejaVuSans-69" x="417.623047"/>
      <use xlink:href="#DejaVuSans-66" x="445.40625"/>
      <use xlink:href="#DejaVuSans-66" x="480.611328"/>
      <use xlink:href="#DejaVuSans-75" x="515.816406"/>
      <use xlink:href="#DejaVuSans-73" x="579.195312"/>
      <use xlink:href="#DejaVuSans-69" x="631.294922"/>
      <use xlink:href="#DejaVuSans-76" x="659.078125"/>
      <use xlink:href="#DejaVuSans-69" x="718.257812"/>
      <use xlink:href="#DejaVuSans-74" x="746.041016"/>
      <use xlink:href="#DejaVuSans-79" x="785.25"/>
      <use xlink:href="#DejaVuSans-20" x="844.429688"/>
      <use xlink:href="#DejaVuSans-28" x="876.216797"/>
      <use xlink:href="#DejaVuSans-53" x="915.230469"/>
      <use xlink:href="#DejaVuSans-74" x="978.707031"/>
      <use xlink:href="#DejaVuSans-61" x="1017.916016"/>
      <use xlink:href="#DejaVuSans-6e" x="1079.195312"/>
      <use xlink:href="#DejaVuSans-64" x="1142.574219"/>
      <use xlink:href="#DejaVuSans-61" x="1206.050781"/>
      <use xlink:href="#DejaVuSans-72" x="1267.330078"/>
      <use xlink:href="#DejaVuSans-64" x="1306.693359"/>
      <use xlink:href="#DejaVuSans-69" x="1370.169922"/>
      <use xlink:href="#DejaVuSans-7a" x="1397.953125"/>
      <use xlink:href="#DejaVuSans-65" x="1450.443359"/>
      <use xlink:href="#DejaVuSans-64" x="1511.966797"/>
      <use xlink:href="#DejaVuSans-29" x="1575.443359"/>
     </g>
    </g>
   </g>
   <g id="line2d_29">
    <path d="M 358.762542 227.724777 
L 361.023115 226.482078 
L 363.283689 225.239378 
L 365.544263 223.996679 
L 367.804836 222.75398 
L 370.06541 221.511281 
L 372.325984 220.268581 
L 374.586557 219.025882 
L 376.847131 217.783183 
L 379.107705 216.540484 
L 381.368278 215.297785 
L 383.628852 214.055085 
L 385.889426 212.812386 
L 388.149999 211.569687 
L 390.410573 210.326988 
L 392.671147 209.084289 
L 394.93172 207.841589 
L 397.192294 206.59889 
L 399.452867 205.356191 
L 401.713441 204.113492 
L 403.974015 202.870792 
L 406.234588 201.628093 
L 408.495162 200.385394 
L 410.755736 199.142695 
L 413.016309 197.899996 
L 415.276883 196.657296 
L 417.537457 195.414597 
L 419.79803 194.171898 
L 422.058604 192.929199 
L 424.319178 191.6865 
L 426.579751 190.4438 
L 428.840325 189.201101 
L 431.100899 187.958402 
L 433.361472 186.715703 
L 435.622046 185.473004 
L 437.88262 184.230304 
L 440.143193 182.987605 
L 442.403767 181.744906 
L 444.664341 180.502207 
L 446.924914 179.259507 
L 449.185488 178.016808 
L 451.446061 176.774109 
L 453.706635 175.53141 
L 455.967209 174.288711 
L 458.227782 173.046011 
L 460.488356 171.803312 
L 462.74893 170.560613 
L 465.009503 169.317914 
L 467.270077 168.075215 
L 469.530651 166.832515 
L 471.791224 165.589816 
L 474.051798 164.347117 
L 476.312372 163.104418 
L 478.572945 161.861718 
L 480.833519 160.619019 
L 483.094093 159.37632 
L 485.354666 158.133621 
L 487.61524 156.890922 
L 489.875814 155.648222 
L 492.136387 154.405523 
L 494.396961 153.162824 
L 496.657534 151.920125 
L 498.918108 150.677426 
L 501.178682 149.434726 
L 503.439255 148.192027 
L 505.699829 146.949328 
L 507.960403 145.706629 
L 510.220976 144.463929 
L 512.48155 143.22123 
L 514.742124 141.978531 
L 517.002697 140.735832 
L 519.263271 139.493133 
L 521.523845 138.250433 
L 523.784418 137.007734 
L 526.044992 135.765035 
L 528.305566 134.522336 
L 530.566139 133.279637 
L 532.826713 132.036937 
L 535.087287 130.794238 
L 537.34786 129.551539 
L 539.608434 128.30884 
L 541.869008 127.066141 
L 544.129581 125.823441 
L 546.390155 124.580742 
L 548.650728 123.338043 
L 550.911302 122.095344 
L 553.171876 120.852644 
L 555.432449 119.609945 
L 557.693023 118.367246 
L 559.953597 117.124547 
L 562.21417 115.881848 
L 564.474744 114.639148 
L 566.735318 113.396449 
L 568.995891 112.15375 
L 571.256465 110.911051 
L 573.517039 109.668352 
L 575.777612 108.425652 
L 578.038186 107.182953 
L 580.29876 105.940254 
L 582.559333 104.697555 
" clip-path="url(#p63315a85ae)" style="fill: none; stroke: #000000; stroke-width: 2; stroke-linecap: square"/>
   </g>
   <g id="patch_6">
    <path d="M 347.572702 284.4 
L 347.572702 7.2 
" style="fill: none; stroke: #000000; stroke-width: 0.8; stroke-linejoin: miter; stroke-linecap: square"/>
   </g>
   <g id="patch_7">
    <path d="M 347.572702 284.4 
L 593.749173 284.4 
" style="fill: none; stroke: #000000; stroke-width: 0.8; stroke-linejoin: miter; stroke-linecap: square"/>
   </g>
   <g id="text_33">
    <!-- r= 0.61, p= 5.46e-03 -->
    <g transform="translate(417.186719 34.92) scale(0.1 -0.1)">
     <use xlink:href="#DejaVuSans-72"/>
     <use xlink:href="#DejaVuSans-3d" x="41.113281"/>
     <use xlink:href="#DejaVuSans-20" x="124.902344"/>
     <use xlink:href="#DejaVuSans-30" x="156.689453"/>
     <use xlink:href="#DejaVuSans-2e" x="220.3125"/>
     <use xlink:href="#DejaVuSans-36" x="252.099609"/>
     <use xlink:href="#DejaVuSans-31" x="315.722656"/>
     <use xlink:href="#DejaVuSans-2c" x="379.345703"/>
     <use xlink:href="#DejaVuSans-20" x="411.132812"/>
     <use xlink:href="#DejaVuSans-70" x="442.919922"/>
     <use xlink:href="#DejaVuSans-3d" x="506.396484"/>
     <use xlink:href="#DejaVuSans-20" x="590.185547"/>
     <use xlink:href="#DejaVuSans-35" x="621.972656"/>
     <use xlink:href="#DejaVuSans-2e" x="685.595703"/>
     <use xlink:href="#DejaVuSans-34" x="717.382812"/>
     <use xlink:href="#DejaVuSans-36" x="781.005859"/>
     <use xlink:href="#DejaVuSans-65" x="844.628906"/>
     <use xlink:href="#DejaVuSans-2d" x="906.152344"/>
     <use xlink:href="#DejaVuSans-30" x="942.236328"/>
     <use xlink:href="#DejaVuSans-33" x="1005.859375"/>
    </g>
   </g>
  </g>
  <g id="axes_3">
   <g id="patch_8">
    <path d="M 642.984467 284.4 
L 889.160938 284.4 
L 889.160938 7.2 
L 642.984467 7.2 
z
" style="fill: #ffffff"/>
   </g>
   <g id="PathCollection_3">
    <g clip-path="url(#p6e3b73565d)">
     <use xlink:href="#mb828293b1d" x="765.892104" y="112.225325" style="fill: #0000ff; fill-opacity: 0.8; stroke: #0000ff; stroke-opacity: 0.8"/>
     <use xlink:href="#mb828293b1d" x="725.524766" y="211.208722" style="fill: #0000ff; fill-opacity: 0.8; stroke: #0000ff; stroke-opacity: 0.8"/>
     <use xlink:href="#mb828293b1d" x="863.003261" y="145.280966" style="fill: #0000ff; fill-opacity: 0.8; stroke: #0000ff; stroke-opacity: 0.8"/>
     <use xlink:href="#mb828293b1d" x="877.971098" y="19.8" style="fill: #0000ff; fill-opacity: 0.8; stroke: #0000ff; stroke-opacity: 0.8"/>
     <use xlink:href="#mb828293b1d" x="724.306262" y="168.583903" style="fill: #0000ff; fill-opacity: 0.8; stroke: #0000ff; stroke-opacity: 0.8"/>
     <use xlink:href="#mb828293b1d" x="704.315156" y="179.761263" style="fill: #0000ff; fill-opacity: 0.8; stroke: #0000ff; stroke-opacity: 0.8"/>
     <use xlink:href="#mb828293b1d" x="736.659004" y="192.127561" style="fill: #0000ff; fill-opacity: 0.8; stroke: #0000ff; stroke-opacity: 0.8"/>
     <use xlink:href="#mb828293b1d" x="774.605776" y="183.752477" style="fill: #0000ff; fill-opacity: 0.8; stroke: #0000ff; stroke-opacity: 0.8"/>
     <use xlink:href="#mb828293b1d" x="817.648377" y="109.806511" style="fill: #0000ff; fill-opacity: 0.8; stroke: #0000ff; stroke-opacity: 0.8"/>
     <use xlink:href="#mb828293b1d" x="698.787447" y="220.405513" style="fill: #0000ff; fill-opacity: 0.8; stroke: #0000ff; stroke-opacity: 0.8"/>
     <use xlink:href="#mb828293b1d" x="840.806179" y="104.866064" style="fill: #0000ff; fill-opacity: 0.8; stroke: #0000ff; stroke-opacity: 0.8"/>
     <use xlink:href="#mb828293b1d" x="712.790799" y="218.251537" style="fill: #0000ff; fill-opacity: 0.8; stroke: #0000ff; stroke-opacity: 0.8"/>
     <use xlink:href="#mb828293b1d" x="727.316343" y="249.045237" style="fill: #0000ff; fill-opacity: 0.8; stroke: #0000ff; stroke-opacity: 0.8"/>
     <use xlink:href="#mb828293b1d" x="654.174306" y="171.360033" style="fill: #0000ff; fill-opacity: 0.8; stroke: #0000ff; stroke-opacity: 0.8"/>
     <use xlink:href="#mb828293b1d" x="733.928284" y="175.68995" style="fill: #0000ff; fill-opacity: 0.8; stroke: #0000ff; stroke-opacity: 0.8"/>
     <use xlink:href="#mb828293b1d" x="820.535498" y="123.78284" style="fill: #0000ff; fill-opacity: 0.8; stroke: #0000ff; stroke-opacity: 0.8"/>
     <use xlink:href="#mb828293b1d" x="658.780818" y="231.183648" style="fill: #0000ff; fill-opacity: 0.8; stroke: #0000ff; stroke-opacity: 0.8"/>
     <use xlink:href="#mb828293b1d" x="777.511314" y="190.862194" style="fill: #0000ff; fill-opacity: 0.8; stroke: #0000ff; stroke-opacity: 0.8"/>
     <use xlink:href="#mb828293b1d" x="771.099791" y="136.716005" style="fill: #0000ff; fill-opacity: 0.8; stroke: #0000ff; stroke-opacity: 0.8"/>
    </g>
   </g>
   <g id="PolyCollection_3">
    <path d="M 654.174306 202.48914 
L 654.174306 271.8 
L 656.43488 269.744021 
L 658.695454 267.511709 
L 660.956027 265.075789 
L 663.216601 262.635612 
L 665.477175 260.195435 
L 667.737748 258.174269 
L 669.998322 256.370435 
L 672.258896 254.085778 
L 674.519469 251.800849 
L 676.780043 249.502598 
L 679.040617 247.344473 
L 681.30119 245.306612 
L 683.561764 243.278224 
L 685.822338 241.249836 
L 688.082911 239.131139 
L 690.343485 237.083763 
L 692.604059 235.057409 
L 694.864632 233.166594 
L 697.125206 231.087173 
L 699.38578 228.894259 
L 701.646353 226.84675 
L 703.906927 224.792504 
L 706.1675 222.506351 
L 708.428074 220.210363 
L 710.688648 218.204424 
L 712.949221 216.220364 
L 715.209795 214.231428 
L 717.470369 212.245187 
L 719.730942 210.257598 
L 721.991516 208.270009 
L 724.25209 206.280886 
L 726.512663 204.293001 
L 728.773237 202.308586 
L 731.033811 200.640911 
L 733.294384 198.801534 
L 735.554958 196.785198 
L 737.815532 195.30277 
L 740.076105 193.477991 
L 742.336679 191.910985 
L 744.597253 190.320015 
L 746.857826 188.645352 
L 749.1184 186.907014 
L 751.378973 185.168675 
L 753.639547 183.513974 
L 755.900121 182.250729 
L 758.160694 180.955381 
L 760.421268 179.386642 
L 762.681842 177.670812 
L 764.942415 176.615114 
L 767.202989 175.291682 
L 769.463563 174.065744 
L 771.724136 172.619638 
L 773.98471 171.644245 
L 776.245284 170.577935 
L 778.505857 169.246614 
L 780.766431 168.320107 
L 783.027005 167.42708 
L 785.287578 166.300284 
L 787.548152 164.893083 
L 789.808726 163.594469 
L 792.069299 162.638353 
L 794.329873 161.483449 
L 796.590446 160.54543 
L 798.85102 159.566522 
L 801.111594 158.451889 
L 803.372167 157.554691 
L 805.632741 156.466775 
L 807.893315 155.32343 
L 810.153888 154.252402 
L 812.414462 153.275165 
L 814.675036 152.409055 
L 816.935609 151.569785 
L 819.196183 150.761823 
L 821.456757 149.946589 
L 823.71733 148.98402 
L 825.977904 148.168456 
L 828.238478 147.472414 
L 830.499051 146.701617 
L 832.759625 145.88983 
L 835.020199 144.999061 
L 837.280772 144.228683 
L 839.541346 143.453648 
L 841.80192 142.459505 
L 844.062493 141.643941 
L 846.323067 140.828377 
L 848.58364 140.012812 
L 850.844214 139.197248 
L 853.104788 138.381683 
L 855.365361 137.566119 
L 857.625935 136.750555 
L 859.886509 135.93499 
L 862.147082 135.119426 
L 864.407656 134.30241 
L 866.66823 133.484802 
L 868.928803 132.652939 
L 871.189377 131.73008 
L 873.449951 130.806242 
L 875.710524 129.882403 
L 877.971098 128.958564 
L 877.971098 44.477416 
L 877.971098 44.477416 
L 875.710524 46.644254 
L 873.449951 48.802937 
L 871.189377 50.961005 
L 868.928803 53.124218 
L 866.66823 55.290638 
L 864.407656 57.548875 
L 862.147082 59.834088 
L 859.886509 61.777067 
L 857.625935 63.755063 
L 855.365361 65.960994 
L 853.104788 68.268304 
L 850.844214 70.429916 
L 848.58364 72.593128 
L 846.323067 74.705959 
L 844.062493 76.919553 
L 841.80192 79.080556 
L 839.541346 81.239203 
L 837.280772 83.401113 
L 835.020199 85.5678 
L 832.759625 87.730917 
L 830.499051 89.890352 
L 828.238478 92.0544 
L 825.977904 94.207572 
L 823.71733 96.314204 
L 821.456757 98.501264 
L 819.196183 100.502676 
L 816.935609 102.463125 
L 814.675036 104.341196 
L 812.414462 106.527542 
L 810.153888 108.493977 
L 807.893315 110.483069 
L 805.632741 112.35815 
L 803.372167 114.34184 
L 801.111594 116.09972 
L 798.85102 118.057072 
L 796.590446 119.972835 
L 794.329873 121.912282 
L 792.069299 123.709548 
L 789.808726 125.577151 
L 787.548152 127.44321 
L 785.287578 129.309268 
L 783.027005 131.490269 
L 780.766431 133.27193 
L 778.505857 135.189804 
L 776.245284 136.907989 
L 773.98471 138.645755 
L 771.724136 140.455886 
L 769.463563 141.923947 
L 767.202989 143.476739 
L 764.942415 145.084694 
L 762.681842 146.56514 
L 760.421268 148.125967 
L 758.160694 149.560584 
L 755.900121 151.206427 
L 753.639547 152.808706 
L 751.378973 154.364711 
L 749.1184 155.696998 
L 746.857826 157.322356 
L 744.597253 158.424798 
L 742.336679 159.819044 
L 740.076105 160.901064 
L 737.815532 162.419784 
L 735.554958 163.951469 
L 733.294384 165.357083 
L 731.033811 166.603534 
L 728.773237 167.913131 
L 726.512663 169.099123 
L 724.25209 170.211325 
L 721.991516 171.466489 
L 719.730942 172.553514 
L 717.470369 173.584294 
L 715.209795 174.895018 
L 712.949221 175.954274 
L 710.688648 177.027033 
L 708.428074 177.96245 
L 706.1675 178.891845 
L 703.906927 180.198667 
L 701.646353 181.343019 
L 699.38578 182.424036 
L 697.125206 183.53352 
L 694.864632 184.642159 
L 692.604059 185.756624 
L 690.343485 186.863828 
L 688.082911 187.878871 
L 685.822338 188.858381 
L 683.561764 189.942081 
L 681.30119 190.823574 
L 679.040617 191.782918 
L 676.780043 192.759503 
L 674.519469 193.832019 
L 672.258896 194.762576 
L 669.998322 195.578806 
L 667.737748 196.648948 
L 665.477175 197.577542 
L 663.216601 198.713268 
L 660.956027 199.576839 
L 658.695454 200.547606 
L 656.43488 201.518373 
L 654.174306 202.48914 
z
" clip-path="url(#p6e3b73565d)" style="fill-opacity: 0.15"/>
   </g>
   <g id="matplotlib.axis_5">
    <g id="xtick_15">
     <g id="line2d_30">
      <g>
       <use xlink:href="#me9aed46225" x="666.297161" y="284.4" style="stroke: #000000; stroke-width: 0.8"/>
      </g>
     </g>
     <g id="text_34">
      <!-- 30 -->
      <g transform="translate(659.934661 298.998438) scale(0.1 -0.1)">
       <use xlink:href="#DejaVuSans-33"/>
       <use xlink:href="#DejaVuSans-30" x="63.623047"/>
      </g>
     </g>
    </g>
    <g id="xtick_16">
     <g id="line2d_31">
      <g>
       <use xlink:href="#me9aed46225" x="700.765004" y="284.4" style="stroke: #000000; stroke-width: 0.8"/>
      </g>
     </g>
     <g id="text_35">
      <!-- 40 -->
      <g transform="translate(694.402504 298.998438) scale(0.1 -0.1)">
       <use xlink:href="#DejaVuSans-34"/>
       <use xlink:href="#DejaVuSans-30" x="63.623047"/>
      </g>
     </g>
    </g>
    <g id="xtick_17">
     <g id="line2d_32">
      <g>
       <use xlink:href="#me9aed46225" x="735.232847" y="284.4" style="stroke: #000000; stroke-width: 0.8"/>
      </g>
     </g>
     <g id="text_36">
      <!-- 50 -->
      <g transform="translate(728.870347 298.998438) scale(0.1 -0.1)">
       <use xlink:href="#DejaVuSans-35"/>
       <use xlink:href="#DejaVuSans-30" x="63.623047"/>
      </g>
     </g>
    </g>
    <g id="xtick_18">
     <g id="line2d_33">
      <g>
       <use xlink:href="#me9aed46225" x="769.70069" y="284.4" style="stroke: #000000; stroke-width: 0.8"/>
      </g>
     </g>
     <g id="text_37">
      <!-- 60 -->
      <g transform="translate(763.33819 298.998438) scale(0.1 -0.1)">
       <use xlink:href="#DejaVuSans-36"/>
       <use xlink:href="#DejaVuSans-30" x="63.623047"/>
      </g>
     </g>
    </g>
    <g id="xtick_19">
     <g id="line2d_34">
      <g>
       <use xlink:href="#me9aed46225" x="804.168533" y="284.4" style="stroke: #000000; stroke-width: 0.8"/>
      </g>
     </g>
     <g id="text_38">
      <!-- 70 -->
      <g transform="translate(797.806033 298.998438) scale(0.1 -0.1)">
       <use xlink:href="#DejaVuSans-37"/>
       <use xlink:href="#DejaVuSans-30" x="63.623047"/>
      </g>
     </g>
    </g>
    <g id="xtick_20">
     <g id="line2d_35">
      <g>
       <use xlink:href="#me9aed46225" x="838.636377" y="284.4" style="stroke: #000000; stroke-width: 0.8"/>
      </g>
     </g>
     <g id="text_39">
      <!-- 80 -->
      <g transform="translate(832.273877 298.998438) scale(0.1 -0.1)">
       <use xlink:href="#DejaVuSans-38"/>
       <use xlink:href="#DejaVuSans-30" x="63.623047"/>
      </g>
     </g>
    </g>
    <g id="xtick_21">
     <g id="line2d_36">
      <g>
       <use xlink:href="#me9aed46225" x="873.10422" y="284.4" style="stroke: #000000; stroke-width: 0.8"/>
      </g>
     </g>
     <g id="text_40">
      <!-- 90 -->
      <g transform="translate(866.74172 298.998438) scale(0.1 -0.1)">
       <use xlink:href="#DejaVuSans-39"/>
       <use xlink:href="#DejaVuSans-30" x="63.623047"/>
      </g>
     </g>
    </g>
    <g id="text_41">
     <!-- Peak KEM Stand -->
     <g transform="translate(725.731296 312.676562) scale(0.1 -0.1)">
      <use xlink:href="#DejaVuSans-50"/>
      <use xlink:href="#DejaVuSans-65" x="56.677734"/>
      <use xlink:href="#DejaVuSans-61" x="118.201172"/>
      <use xlink:href="#DejaVuSans-6b" x="179.480469"/>
      <use xlink:href="#DejaVuSans-20" x="237.390625"/>
      <use xlink:href="#DejaVuSans-4b" x="269.177734"/>
      <use xlink:href="#DejaVuSans-45" x="334.753906"/>
      <use xlink:href="#DejaVuSans-4d" x="397.9375"/>
      <use xlink:href="#DejaVuSans-20" x="484.216797"/>
      <use xlink:href="#DejaVuSans-53" x="516.003906"/>
      <use xlink:href="#DejaVuSans-74" x="579.480469"/>
      <use xlink:href="#DejaVuSans-61" x="618.689453"/>
      <use xlink:href="#DejaVuSans-6e" x="679.96875"/>
      <use xlink:href="#DejaVuSans-64" x="743.347656"/>
     </g>
    </g>
   </g>
   <g id="matplotlib.axis_6">
    <g id="ytick_14">
     <g id="line2d_37">
      <g>
       <use xlink:href="#m3246acb9e6" x="642.984467" y="265.591607" style="stroke: #000000; stroke-width: 0.8"/>
      </g>
     </g>
     <g id="text_42">
      <!-- −3 -->
      <g transform="translate(621.242279 269.390825) scale(0.1 -0.1)">
       <use xlink:href="#DejaVuSans-2212"/>
       <use xlink:href="#DejaVuSans-33" x="83.789062"/>
      </g>
     </g>
    </g>
    <g id="ytick_15">
     <g id="line2d_38">
      <g>
       <use xlink:href="#m3246acb9e6" x="642.984467" y="232.231418" style="stroke: #000000; stroke-width: 0.8"/>
      </g>
     </g>
     <g id="text_43">
      <!-- −2 -->
      <g transform="translate(621.242279 236.030636) scale(0.1 -0.1)">
       <use xlink:href="#DejaVuSans-2212"/>
       <use xlink:href="#DejaVuSans-32" x="83.789062"/>
      </g>
     </g>
    </g>
    <g id="ytick_16">
     <g id="line2d_39">
      <g>
       <use xlink:href="#m3246acb9e6" x="642.984467" y="198.871229" style="stroke: #000000; stroke-width: 0.8"/>
      </g>
     </g>
     <g id="text_44">
      <!-- −1 -->
      <g transform="translate(621.242279 202.670447) scale(0.1 -0.1)">
       <use xlink:href="#DejaVuSans-2212"/>
       <use xlink:href="#DejaVuSans-31" x="83.789062"/>
      </g>
     </g>
    </g>
    <g id="ytick_17">
     <g id="line2d_40">
      <g>
       <use xlink:href="#m3246acb9e6" x="642.984467" y="165.511039" style="stroke: #000000; stroke-width: 0.8"/>
      </g>
     </g>
     <g id="text_45">
      <!-- 0 -->
      <g transform="translate(629.621967 169.310258) scale(0.1 -0.1)">
       <use xlink:href="#DejaVuSans-30"/>
      </g>
     </g>
    </g>
    <g id="ytick_18">
     <g id="line2d_41">
      <g>
       <use xlink:href="#m3246acb9e6" x="642.984467" y="132.15085" style="stroke: #000000; stroke-width: 0.8"/>
      </g>
     </g>
     <g id="text_46">
      <!-- 1 -->
      <g transform="translate(629.621967 135.950069) scale(0.1 -0.1)">
       <use xlink:href="#DejaVuSans-31"/>
      </g>
     </g>
    </g>
    <g id="ytick_19">
     <g id="line2d_42">
      <g>
       <use xlink:href="#m3246acb9e6" x="642.984467" y="98.790661" style="stroke: #000000; stroke-width: 0.8"/>
      </g>
     </g>
     <g id="text_47">
      <!-- 2 -->
      <g transform="translate(629.621967 102.58988) scale(0.1 -0.1)">
       <use xlink:href="#DejaVuSans-32"/>
      </g>
     </g>
    </g>
    <g id="ytick_20">
     <g id="line2d_43">
      <g>
       <use xlink:href="#m3246acb9e6" x="642.984467" y="65.430472" style="stroke: #000000; stroke-width: 0.8"/>
      </g>
     </g>
     <g id="text_48">
      <!-- 3 -->
      <g transform="translate(629.621967 69.229691) scale(0.1 -0.1)">
       <use xlink:href="#DejaVuSans-33"/>
      </g>
     </g>
    </g>
    <g id="ytick_21">
     <g id="line2d_44">
      <g>
       <use xlink:href="#m3246acb9e6" x="642.984467" y="32.070283" style="stroke: #000000; stroke-width: 0.8"/>
      </g>
     </g>
     <g id="text_49">
      <!-- 4 -->
      <g transform="translate(629.621967 35.869502) scale(0.1 -0.1)">
       <use xlink:href="#DejaVuSans-34"/>
      </g>
     </g>
    </g>
    <g id="text_50">
     <!-- Radial Diffusivity + Volume Total (Standardized) -->
     <g transform="translate(615.162592 265.753906) rotate(-90) scale(0.1 -0.1)">
      <defs>
       <path id="DejaVuSans-2b" d="M 2944 4013 
L 2944 2272 
L 4684 2272 
L 4684 1741 
L 2944 1741 
L 2944 0 
L 2419 0 
L 2419 1741 
L 678 1741 
L 678 2272 
L 2419 2272 
L 2419 4013 
L 2944 4013 
z
" transform="scale(0.015625)"/>
      </defs>
      <use xlink:href="#DejaVuSans-52"/>
      <use xlink:href="#DejaVuSans-61" x="67.232422"/>
      <use xlink:href="#DejaVuSans-64" x="128.511719"/>
      <use xlink:href="#DejaVuSans-69" x="191.988281"/>
      <use xlink:href="#DejaVuSans-61" x="219.771484"/>
      <use xlink:href="#DejaVuSans-6c" x="281.050781"/>
      <use xlink:href="#DejaVuSans-20" x="308.833984"/>
      <use xlink:href="#DejaVuSans-44" x="340.621094"/>
      <use xlink:href="#DejaVuSans-69" x="417.623047"/>
      <use xlink:href="#DejaVuSans-66" x="445.40625"/>
      <use xlink:href="#DejaVuSans-66" x="480.611328"/>
      <use xlink:href="#DejaVuSans-75" x="515.816406"/>
      <use xlink:href="#DejaVuSans-73" x="579.195312"/>
      <use xlink:href="#DejaVuSans-69" x="631.294922"/>
      <use xlink:href="#DejaVuSans-76" x="659.078125"/>
      <use xlink:href="#DejaVuSans-69" x="718.257812"/>
      <use xlink:href="#DejaVuSans-74" x="746.041016"/>
      <use xlink:href="#DejaVuSans-79" x="785.25"/>
      <use xlink:href="#DejaVuSans-20" x="844.429688"/>
      <use xlink:href="#DejaVuSans-2b" x="876.216797"/>
      <use xlink:href="#DejaVuSans-20" x="960.005859"/>
      <use xlink:href="#DejaVuSans-56" x="991.792969"/>
      <use xlink:href="#DejaVuSans-6f" x="1052.451172"/>
      <use xlink:href="#DejaVuSans-6c" x="1113.632812"/>
      <use xlink:href="#DejaVuSans-75" x="1141.416016"/>
      <use xlink:href="#DejaVuSans-6d" x="1204.794922"/>
      <use xlink:href="#DejaVuSans-65" x="1302.207031"/>
      <use xlink:href="#DejaVuSans-20" x="1363.730469"/>
      <use xlink:href="#DejaVuSans-54" x="1395.517578"/>
      <use xlink:href="#DejaVuSans-6f" x="1439.601562"/>
      <use xlink:href="#DejaVuSans-74" x="1500.783203"/>
      <use xlink:href="#DejaVuSans-61" x="1539.992188"/>
      <use xlink:href="#DejaVuSans-6c" x="1601.271484"/>
      <use xlink:href="#DejaVuSans-20" x="1629.054688"/>
      <use xlink:href="#DejaVuSans-28" x="1660.841797"/>
      <use xlink:href="#DejaVuSans-53" x="1699.855469"/>
      <use xlink:href="#DejaVuSans-74" x="1763.332031"/>
      <use xlink:href="#DejaVuSans-61" x="1802.541016"/>
      <use xlink:href="#DejaVuSans-6e" x="1863.820312"/>
      <use xlink:href="#DejaVuSans-64" x="1927.199219"/>
      <use xlink:href="#DejaVuSans-61" x="1990.675781"/>
      <use xlink:href="#DejaVuSans-72" x="2051.955078"/>
      <use xlink:href="#DejaVuSans-64" x="2091.318359"/>
      <use xlink:href="#DejaVuSans-69" x="2154.794922"/>
      <use xlink:href="#DejaVuSans-7a" x="2182.578125"/>
      <use xlink:href="#DejaVuSans-65" x="2235.068359"/>
      <use xlink:href="#DejaVuSans-64" x="2296.591797"/>
      <use xlink:href="#DejaVuSans-29" x="2360.068359"/>
     </g>
    </g>
   </g>
   <g id="line2d_45">
    <path d="M 654.174306 233.900405 
L 656.43488 232.398939 
L 658.695454 230.897474 
L 660.956027 229.396008 
L 663.216601 227.894542 
L 665.477175 226.393076 
L 667.737748 224.89161 
L 669.998322 223.390144 
L 672.258896 221.888679 
L 674.519469 220.387213 
L 676.780043 218.885747 
L 679.040617 217.384281 
L 681.30119 215.882815 
L 683.561764 214.38135 
L 685.822338 212.879884 
L 688.082911 211.378418 
L 690.343485 209.876952 
L 692.604059 208.375486 
L 694.864632 206.874021 
L 697.125206 205.372555 
L 699.38578 203.871089 
L 701.646353 202.369623 
L 703.906927 200.868157 
L 706.1675 199.366692 
L 708.428074 197.865226 
L 710.688648 196.36376 
L 712.949221 194.862294 
L 715.209795 193.360828 
L 717.470369 191.859362 
L 719.730942 190.357897 
L 721.991516 188.856431 
L 724.25209 187.354965 
L 726.512663 185.853499 
L 728.773237 184.352033 
L 731.033811 182.850568 
L 733.294384 181.349102 
L 735.554958 179.847636 
L 737.815532 178.34617 
L 740.076105 176.844704 
L 742.336679 175.343239 
L 744.597253 173.841773 
L 746.857826 172.340307 
L 749.1184 170.838841 
L 751.378973 169.337375 
L 753.639547 167.83591 
L 755.900121 166.334444 
L 758.160694 164.832978 
L 760.421268 163.331512 
L 762.681842 161.830046 
L 764.942415 160.32858 
L 767.202989 158.827115 
L 769.463563 157.325649 
L 771.724136 155.824183 
L 773.98471 154.322717 
L 776.245284 152.821251 
L 778.505857 151.319786 
L 780.766431 149.81832 
L 783.027005 148.316854 
L 785.287578 146.815388 
L 787.548152 145.313922 
L 789.808726 143.812457 
L 792.069299 142.310991 
L 794.329873 140.809525 
L 796.590446 139.308059 
L 798.85102 137.806593 
L 801.111594 136.305127 
L 803.372167 134.803662 
L 805.632741 133.302196 
L 807.893315 131.80073 
L 810.153888 130.299264 
L 812.414462 128.797798 
L 814.675036 127.296333 
L 816.935609 125.794867 
L 819.196183 124.293401 
L 821.456757 122.791935 
L 823.71733 121.290469 
L 825.977904 119.789004 
L 828.238478 118.287538 
L 830.499051 116.786072 
L 832.759625 115.284606 
L 835.020199 113.78314 
L 837.280772 112.281675 
L 839.541346 110.780209 
L 841.80192 109.278743 
L 844.062493 107.777277 
L 846.323067 106.275811 
L 848.58364 104.774345 
L 850.844214 103.27288 
L 853.104788 101.771414 
L 855.365361 100.269948 
L 857.625935 98.768482 
L 859.886509 97.267016 
L 862.147082 95.765551 
L 864.407656 94.264085 
L 866.66823 92.762619 
L 868.928803 91.261153 
L 871.189377 89.759687 
L 873.449951 88.258222 
L 875.710524 86.756756 
L 877.971098 85.25529 
" clip-path="url(#p6e3b73565d)" style="fill: none; stroke: #000000; stroke-width: 2; stroke-linecap: square"/>
   </g>
   <g id="patch_9">
    <path d="M 642.984467 284.4 
L 642.984467 7.2 
" style="fill: none; stroke: #000000; stroke-width: 0.8; stroke-linejoin: miter; stroke-linecap: square"/>
   </g>
   <g id="patch_10">
    <path d="M 642.984467 284.4 
L 889.160938 284.4 
" style="fill: none; stroke: #000000; stroke-width: 0.8; stroke-linejoin: miter; stroke-linecap: square"/>
   </g>
   <g id="text_51">
    <!-- r= 0.77, p= 1.18e-04 -->
    <g transform="translate(712.598483 34.92) scale(0.1 -0.1)">
     <use xlink:href="#DejaVuSans-72"/>
     <use xlink:href="#DejaVuSans-3d" x="41.113281"/>
     <use xlink:href="#DejaVuSans-20" x="124.902344"/>
     <use xlink:href="#DejaVuSans-30" x="156.689453"/>
     <use xlink:href="#DejaVuSans-2e" x="220.3125"/>
     <use xlink:href="#DejaVuSans-37" x="252.099609"/>
     <use xlink:href="#DejaVuSans-37" x="315.722656"/>
     <use xlink:href="#DejaVuSans-2c" x="379.345703"/>
     <use xlink:href="#DejaVuSans-20" x="411.132812"/>
     <use xlink:href="#DejaVuSans-70" x="442.919922"/>
     <use xlink:href="#DejaVuSans-3d" x="506.396484"/>
     <use xlink:href="#DejaVuSans-20" x="590.185547"/>
     <use xlink:href="#DejaVuSans-31" x="621.972656"/>
     <use xlink:href="#DejaVuSans-2e" x="685.595703"/>
     <use xlink:href="#DejaVuSans-31" x="717.382812"/>
     <use xlink:href="#DejaVuSans-38" x="781.005859"/>
     <use xlink:href="#DejaVuSans-65" x="844.628906"/>
     <use xlink:href="#DejaVuSans-2d" x="906.152344"/>
     <use xlink:href="#DejaVuSans-30" x="942.236328"/>
     <use xlink:href="#DejaVuSans-34" x="1005.859375"/>
    </g>
   </g>
  </g>
 </g>
 <defs>
  <clipPath id="p470aadcf59">
   <rect x="52.160938" y="7.2" width="246.176471" height="277.2"/>
  </clipPath>
  <clipPath id="p63315a85ae">
   <rect x="347.572702" y="7.2" width="246.176471" height="277.2"/>
  </clipPath>
  <clipPath id="p6e3b73565d">
   <rect x="642.984467" y="7.2" width="246.176471" height="277.2"/>
  </clipPath>
 </defs>
</svg>
