<?xml version="1.0" encoding="utf-8" standalone="no"?>
<!DOCTYPE svg PUBLIC "-//W3C//DTD SVG 1.1//EN"
  "http://www.w3.org/Graphics/SVG/1.1/DTD/svg11.dtd">
<svg xmlns:xlink="http://www.w3.org/1999/xlink" width="711.904872pt" height="711.99625pt" viewBox="0 0 711.904872 711.99625" xmlns="http://www.w3.org/2000/svg" version="1.1">
 <metadata>
  <rdf:RDF xmlns:dc="http://purl.org/dc/elements/1.1/" xmlns:cc="http://creativecommons.org/ns#" xmlns:rdf="http://www.w3.org/1999/02/22-rdf-syntax-ns#">
   <cc:Work>
    <dc:type rdf:resource="http://purl.org/dc/dcmitype/StillImage"/>
    <dc:date>2025-06-03T11:27:48.777972</dc:date>
    <dc:format>image/svg+xml</dc:format>
    <dc:creator>
     <cc:Agent>
      <dc:title>Matplotlib v3.9.2, https://matplotlib.org/</dc:title>
     </cc:Agent>
    </dc:creator>
   </cc:Work>
  </rdf:RDF>
 </metadata>
 <defs>
  <style type="text/css">*{stroke-linejoin: round; stroke-linecap: butt}</style>
 </defs>
 <g id="figure_1">
  <g id="patch_1">
   <path d="M 0 711.99625 
L 711.904872 711.99625 
L 711.904872 0 
L 0 0 
z
" style="fill: #ffffff"/>
  </g>
  <g id="axes_1">
   <g id="patch_2">
    <path d="M 52.160938 319.84 
L 354.874872 319.84 
L 354.874872 7.2 
L 52.160938 7.2 
z
" style="fill: #ffffff"/>
   </g>
   <g id="PathCollection_1">
    <defs>
     <path id="ma153be67f0" d="M 0 3 
C 0.795609 3 1.55874 2.683901 2.12132 2.12132 
C 2.683901 1.55874 3 0.795609 3 0 
C 3 -0.795609 2.683901 -1.55874 2.12132 -2.12132 
C 1.55874 -2.683901 0.795609 -3 0 -3 
C -0.795609 -3 -1.55874 -2.683901 -2.12132 -2.12132 
C -2.683901 -1.55874 -3 -0.795609 -3 0 
C -3 0.795609 -2.683901 1.55874 -2.12132 2.12132 
C -1.55874 2.683901 -0.795609 3 0 3 
z
" style="stroke: #0000ff"/>
    </defs>
    <g clip-path="url(#p8b9431c3ef)">
     <use xlink:href="#ma153be67f0" x="254.811103" y="75.118138" style="fill: #0000ff; stroke: #0000ff"/>
     <use xlink:href="#ma153be67f0" x="148.402106" y="305.629091" style="fill: #0000ff; stroke: #0000ff"/>
     <use xlink:href="#ma153be67f0" x="65.920662" y="78.93292" style="fill: #0000ff; stroke: #0000ff"/>
     <use xlink:href="#ma153be67f0" x="236.059908" y="21.410909" style="fill: #0000ff; stroke: #0000ff"/>
     <use xlink:href="#ma153be67f0" x="249.275412" y="211.908956" style="fill: #0000ff; stroke: #0000ff"/>
     <use xlink:href="#ma153be67f0" x="283.828756" y="223.488639" style="fill: #0000ff; stroke: #0000ff"/>
     <use xlink:href="#ma153be67f0" x="127.403704" y="260.338083" style="fill: #0000ff; stroke: #0000ff"/>
     <use xlink:href="#ma153be67f0" x="102.189182" y="188.724215" style="fill: #0000ff; stroke: #0000ff"/>
     <use xlink:href="#ma153be67f0" x="341.115148" y="160.422083" style="fill: #0000ff; stroke: #0000ff"/>
     <use xlink:href="#ma153be67f0" x="156.117074" y="297.081795" style="fill: #0000ff; stroke: #0000ff"/>
     <use xlink:href="#ma153be67f0" x="169.361743" y="44.900156" style="fill: #0000ff; stroke: #0000ff"/>
     <use xlink:href="#ma153be67f0" x="190.04663" y="215.085122" style="fill: #0000ff; stroke: #0000ff"/>
     <use xlink:href="#ma153be67f0" x="117.361372" y="245.15508" style="fill: #0000ff; stroke: #0000ff"/>
     <use xlink:href="#ma153be67f0" x="172.418906" y="110.449281" style="fill: #0000ff; stroke: #0000ff"/>
     <use xlink:href="#ma153be67f0" x="70.54765" y="60.738692" style="fill: #0000ff; stroke: #0000ff"/>
     <use xlink:href="#ma153be67f0" x="254.487389" y="85.805449" style="fill: #0000ff; stroke: #0000ff"/>
     <use xlink:href="#ma153be67f0" x="103.889325" y="293.317764" style="fill: #0000ff; stroke: #0000ff"/>
     <use xlink:href="#ma153be67f0" x="240.777409" y="269.951165" style="fill: #0000ff; stroke: #0000ff"/>
     <use xlink:href="#ma153be67f0" x="147.28345" y="154.167024" style="fill: #0000ff; stroke: #0000ff"/>
    </g>
   </g>
   <g id="matplotlib.axis_1">
    <g id="xtick_1">
     <g id="line2d_1">
      <defs>
       <path id="m6be67a8d56" d="M 0 0 
L 0 3.5 
" style="stroke: #000000; stroke-width: 0.8"/>
      </defs>
      <g>
       <use xlink:href="#m6be67a8d56" x="70.111594" y="319.84" style="stroke: #000000; stroke-width: 0.8"/>
      </g>
     </g>
     <g id="text_1">
      <!-- 0.4 -->
      <g transform="translate(62.160031 334.438437) scale(0.1 -0.1)">
       <defs>
        <path id="DejaVuSans-30" d="M 2034 4250 
Q 1547 4250 1301 3770 
Q 1056 3291 1056 2328 
Q 1056 1369 1301 889 
Q 1547 409 2034 409 
Q 2525 409 2770 889 
Q 3016 1369 3016 2328 
Q 3016 3291 2770 3770 
Q 2525 4250 2034 4250 
z
M 2034 4750 
Q 2819 4750 3233 4129 
Q 3647 3509 3647 2328 
Q 3647 1150 3233 529 
Q 2819 -91 2034 -91 
Q 1250 -91 836 529 
Q 422 1150 422 2328 
Q 422 3509 836 4129 
Q 1250 4750 2034 4750 
z
" transform="scale(0.015625)"/>
        <path id="DejaVuSans-2e" d="M 684 794 
L 1344 794 
L 1344 0 
L 684 0 
L 684 794 
z
" transform="scale(0.015625)"/>
        <path id="DejaVuSans-34" d="M 2419 4116 
L 825 1625 
L 2419 1625 
L 2419 4116 
z
M 2253 4666 
L 3047 4666 
L 3047 1625 
L 3713 1625 
L 3713 1100 
L 3047 1100 
L 3047 0 
L 2419 0 
L 2419 1100 
L 313 1100 
L 313 1709 
L 2253 4666 
z
" transform="scale(0.015625)"/>
       </defs>
       <use xlink:href="#DejaVuSans-30"/>
       <use xlink:href="#DejaVuSans-2e" x="63.623047"/>
       <use xlink:href="#DejaVuSans-34" x="95.410156"/>
      </g>
     </g>
    </g>
    <g id="xtick_2">
     <g id="line2d_2">
      <g>
       <use xlink:href="#m6be67a8d56" x="113.167947" y="319.84" style="stroke: #000000; stroke-width: 0.8"/>
      </g>
     </g>
     <g id="text_2">
      <!-- 0.5 -->
      <g transform="translate(105.216384 334.438437) scale(0.1 -0.1)">
       <defs>
        <path id="DejaVuSans-35" d="M 691 4666 
L 3169 4666 
L 3169 4134 
L 1269 4134 
L 1269 2991 
Q 1406 3038 1543 3061 
Q 1681 3084 1819 3084 
Q 2600 3084 3056 2656 
Q 3513 2228 3513 1497 
Q 3513 744 3044 326 
Q 2575 -91 1722 -91 
Q 1428 -91 1123 -41 
Q 819 9 494 109 
L 494 744 
Q 775 591 1075 516 
Q 1375 441 1709 441 
Q 2250 441 2565 725 
Q 2881 1009 2881 1497 
Q 2881 1984 2565 2268 
Q 2250 2553 1709 2553 
Q 1456 2553 1204 2497 
Q 953 2441 691 2322 
L 691 4666 
z
" transform="scale(0.015625)"/>
       </defs>
       <use xlink:href="#DejaVuSans-30"/>
       <use xlink:href="#DejaVuSans-2e" x="63.623047"/>
       <use xlink:href="#DejaVuSans-35" x="95.410156"/>
      </g>
     </g>
    </g>
    <g id="xtick_3">
     <g id="line2d_3">
      <g>
       <use xlink:href="#m6be67a8d56" x="156.2243" y="319.84" style="stroke: #000000; stroke-width: 0.8"/>
      </g>
     </g>
     <g id="text_3">
      <!-- 0.6 -->
      <g transform="translate(148.272737 334.438437) scale(0.1 -0.1)">
       <defs>
        <path id="DejaVuSans-36" d="M 2113 2584 
Q 1688 2584 1439 2293 
Q 1191 2003 1191 1497 
Q 1191 994 1439 701 
Q 1688 409 2113 409 
Q 2538 409 2786 701 
Q 3034 994 3034 1497 
Q 3034 2003 2786 2293 
Q 2538 2584 2113 2584 
z
M 3366 4563 
L 3366 3988 
Q 3128 4100 2886 4159 
Q 2644 4219 2406 4219 
Q 1781 4219 1451 3797 
Q 1122 3375 1075 2522 
Q 1259 2794 1537 2939 
Q 1816 3084 2150 3084 
Q 2853 3084 3261 2657 
Q 3669 2231 3669 1497 
Q 3669 778 3244 343 
Q 2819 -91 2113 -91 
Q 1303 -91 875 529 
Q 447 1150 447 2328 
Q 447 3434 972 4092 
Q 1497 4750 2381 4750 
Q 2619 4750 2861 4703 
Q 3103 4656 3366 4563 
z
" transform="scale(0.015625)"/>
       </defs>
       <use xlink:href="#DejaVuSans-30"/>
       <use xlink:href="#DejaVuSans-2e" x="63.623047"/>
       <use xlink:href="#DejaVuSans-36" x="95.410156"/>
      </g>
     </g>
    </g>
    <g id="xtick_4">
     <g id="line2d_4">
      <g>
       <use xlink:href="#m6be67a8d56" x="199.280653" y="319.84" style="stroke: #000000; stroke-width: 0.8"/>
      </g>
     </g>
     <g id="text_4">
      <!-- 0.7 -->
      <g transform="translate(191.32909 334.438437) scale(0.1 -0.1)">
       <defs>
        <path id="DejaVuSans-37" d="M 525 4666 
L 3525 4666 
L 3525 4397 
L 1831 0 
L 1172 0 
L 2766 4134 
L 525 4134 
L 525 4666 
z
" transform="scale(0.015625)"/>
       </defs>
       <use xlink:href="#DejaVuSans-30"/>
       <use xlink:href="#DejaVuSans-2e" x="63.623047"/>
       <use xlink:href="#DejaVuSans-37" x="95.410156"/>
      </g>
     </g>
    </g>
    <g id="xtick_5">
     <g id="line2d_5">
      <g>
       <use xlink:href="#m6be67a8d56" x="242.337006" y="319.84" style="stroke: #000000; stroke-width: 0.8"/>
      </g>
     </g>
     <g id="text_5">
      <!-- 0.8 -->
      <g transform="translate(234.385443 334.438437) scale(0.1 -0.1)">
       <defs>
        <path id="DejaVuSans-38" d="M 2034 2216 
Q 1584 2216 1326 1975 
Q 1069 1734 1069 1313 
Q 1069 891 1326 650 
Q 1584 409 2034 409 
Q 2484 409 2743 651 
Q 3003 894 3003 1313 
Q 3003 1734 2745 1975 
Q 2488 2216 2034 2216 
z
M 1403 2484 
Q 997 2584 770 2862 
Q 544 3141 544 3541 
Q 544 4100 942 4425 
Q 1341 4750 2034 4750 
Q 2731 4750 3128 4425 
Q 3525 4100 3525 3541 
Q 3525 3141 3298 2862 
Q 3072 2584 2669 2484 
Q 3125 2378 3379 2068 
Q 3634 1759 3634 1313 
Q 3634 634 3220 271 
Q 2806 -91 2034 -91 
Q 1263 -91 848 271 
Q 434 634 434 1313 
Q 434 1759 690 2068 
Q 947 2378 1403 2484 
z
M 1172 3481 
Q 1172 3119 1398 2916 
Q 1625 2713 2034 2713 
Q 2441 2713 2670 2916 
Q 2900 3119 2900 3481 
Q 2900 3844 2670 4047 
Q 2441 4250 2034 4250 
Q 1625 4250 1398 4047 
Q 1172 3844 1172 3481 
z
" transform="scale(0.015625)"/>
       </defs>
       <use xlink:href="#DejaVuSans-30"/>
       <use xlink:href="#DejaVuSans-2e" x="63.623047"/>
       <use xlink:href="#DejaVuSans-38" x="95.410156"/>
      </g>
     </g>
    </g>
    <g id="xtick_6">
     <g id="line2d_6">
      <g>
       <use xlink:href="#m6be67a8d56" x="285.393359" y="319.84" style="stroke: #000000; stroke-width: 0.8"/>
      </g>
     </g>
     <g id="text_6">
      <!-- 0.9 -->
      <g transform="translate(277.441796 334.438437) scale(0.1 -0.1)">
       <defs>
        <path id="DejaVuSans-39" d="M 703 97 
L 703 672 
Q 941 559 1184 500 
Q 1428 441 1663 441 
Q 2288 441 2617 861 
Q 2947 1281 2994 2138 
Q 2813 1869 2534 1725 
Q 2256 1581 1919 1581 
Q 1219 1581 811 2004 
Q 403 2428 403 3163 
Q 403 3881 828 4315 
Q 1253 4750 1959 4750 
Q 2769 4750 3195 4129 
Q 3622 3509 3622 2328 
Q 3622 1225 3098 567 
Q 2575 -91 1691 -91 
Q 1453 -91 1209 -44 
Q 966 3 703 97 
z
M 1959 2075 
Q 2384 2075 2632 2365 
Q 2881 2656 2881 3163 
Q 2881 3666 2632 3958 
Q 2384 4250 1959 4250 
Q 1534 4250 1286 3958 
Q 1038 3666 1038 3163 
Q 1038 2656 1286 2365 
Q 1534 2075 1959 2075 
z
" transform="scale(0.015625)"/>
       </defs>
       <use xlink:href="#DejaVuSans-30"/>
       <use xlink:href="#DejaVuSans-2e" x="63.623047"/>
       <use xlink:href="#DejaVuSans-39" x="95.410156"/>
      </g>
     </g>
    </g>
    <g id="xtick_7">
     <g id="line2d_7">
      <g>
       <use xlink:href="#m6be67a8d56" x="328.449711" y="319.84" style="stroke: #000000; stroke-width: 0.8"/>
      </g>
     </g>
     <g id="text_7">
      <!-- 1.0 -->
      <g transform="translate(320.498149 334.438437) scale(0.1 -0.1)">
       <defs>
        <path id="DejaVuSans-31" d="M 794 531 
L 1825 531 
L 1825 4091 
L 703 3866 
L 703 4441 
L 1819 4666 
L 2450 4666 
L 2450 531 
L 3481 531 
L 3481 0 
L 794 0 
L 794 531 
z
" transform="scale(0.015625)"/>
       </defs>
       <use xlink:href="#DejaVuSans-31"/>
       <use xlink:href="#DejaVuSans-2e" x="63.623047"/>
       <use xlink:href="#DejaVuSans-30" x="95.410156"/>
      </g>
     </g>
    </g>
    <g id="text_8">
     <!-- Isokinetic / Isometric Torque -->
     <g transform="translate(133.40853 348.116562) scale(0.1 -0.1)">
      <defs>
       <path id="DejaVuSans-49" d="M 628 4666 
L 1259 4666 
L 1259 0 
L 628 0 
L 628 4666 
z
" transform="scale(0.015625)"/>
       <path id="DejaVuSans-73" d="M 2834 3397 
L 2834 2853 
Q 2591 2978 2328 3040 
Q 2066 3103 1784 3103 
Q 1356 3103 1142 2972 
Q 928 2841 928 2578 
Q 928 2378 1081 2264 
Q 1234 2150 1697 2047 
L 1894 2003 
Q 2506 1872 2764 1633 
Q 3022 1394 3022 966 
Q 3022 478 2636 193 
Q 2250 -91 1575 -91 
Q 1294 -91 989 -36 
Q 684 19 347 128 
L 347 722 
Q 666 556 975 473 
Q 1284 391 1588 391 
Q 1994 391 2212 530 
Q 2431 669 2431 922 
Q 2431 1156 2273 1281 
Q 2116 1406 1581 1522 
L 1381 1569 
Q 847 1681 609 1914 
Q 372 2147 372 2553 
Q 372 3047 722 3315 
Q 1072 3584 1716 3584 
Q 2034 3584 2315 3537 
Q 2597 3491 2834 3397 
z
" transform="scale(0.015625)"/>
       <path id="DejaVuSans-6f" d="M 1959 3097 
Q 1497 3097 1228 2736 
Q 959 2375 959 1747 
Q 959 1119 1226 758 
Q 1494 397 1959 397 
Q 2419 397 2687 759 
Q 2956 1122 2956 1747 
Q 2956 2369 2687 2733 
Q 2419 3097 1959 3097 
z
M 1959 3584 
Q 2709 3584 3137 3096 
Q 3566 2609 3566 1747 
Q 3566 888 3137 398 
Q 2709 -91 1959 -91 
Q 1206 -91 779 398 
Q 353 888 353 1747 
Q 353 2609 779 3096 
Q 1206 3584 1959 3584 
z
" transform="scale(0.015625)"/>
       <path id="DejaVuSans-6b" d="M 581 4863 
L 1159 4863 
L 1159 1991 
L 2875 3500 
L 3609 3500 
L 1753 1863 
L 3688 0 
L 2938 0 
L 1159 1709 
L 1159 0 
L 581 0 
L 581 4863 
z
" transform="scale(0.015625)"/>
       <path id="DejaVuSans-69" d="M 603 3500 
L 1178 3500 
L 1178 0 
L 603 0 
L 603 3500 
z
M 603 4863 
L 1178 4863 
L 1178 4134 
L 603 4134 
L 603 4863 
z
" transform="scale(0.015625)"/>
       <path id="DejaVuSans-6e" d="M 3513 2113 
L 3513 0 
L 2938 0 
L 2938 2094 
Q 2938 2591 2744 2837 
Q 2550 3084 2163 3084 
Q 1697 3084 1428 2787 
Q 1159 2491 1159 1978 
L 1159 0 
L 581 0 
L 581 3500 
L 1159 3500 
L 1159 2956 
Q 1366 3272 1645 3428 
Q 1925 3584 2291 3584 
Q 2894 3584 3203 3211 
Q 3513 2838 3513 2113 
z
" transform="scale(0.015625)"/>
       <path id="DejaVuSans-65" d="M 3597 1894 
L 3597 1613 
L 953 1613 
Q 991 1019 1311 708 
Q 1631 397 2203 397 
Q 2534 397 2845 478 
Q 3156 559 3463 722 
L 3463 178 
Q 3153 47 2828 -22 
Q 2503 -91 2169 -91 
Q 1331 -91 842 396 
Q 353 884 353 1716 
Q 353 2575 817 3079 
Q 1281 3584 2069 3584 
Q 2775 3584 3186 3129 
Q 3597 2675 3597 1894 
z
M 3022 2063 
Q 3016 2534 2758 2815 
Q 2500 3097 2075 3097 
Q 1594 3097 1305 2825 
Q 1016 2553 972 2059 
L 3022 2063 
z
" transform="scale(0.015625)"/>
       <path id="DejaVuSans-74" d="M 1172 4494 
L 1172 3500 
L 2356 3500 
L 2356 3053 
L 1172 3053 
L 1172 1153 
Q 1172 725 1289 603 
Q 1406 481 1766 481 
L 2356 481 
L 2356 0 
L 1766 0 
Q 1100 0 847 248 
Q 594 497 594 1153 
L 594 3053 
L 172 3053 
L 172 3500 
L 594 3500 
L 594 4494 
L 1172 4494 
z
" transform="scale(0.015625)"/>
       <path id="DejaVuSans-63" d="M 3122 3366 
L 3122 2828 
Q 2878 2963 2633 3030 
Q 2388 3097 2138 3097 
Q 1578 3097 1268 2742 
Q 959 2388 959 1747 
Q 959 1106 1268 751 
Q 1578 397 2138 397 
Q 2388 397 2633 464 
Q 2878 531 3122 666 
L 3122 134 
Q 2881 22 2623 -34 
Q 2366 -91 2075 -91 
Q 1284 -91 818 406 
Q 353 903 353 1747 
Q 353 2603 823 3093 
Q 1294 3584 2113 3584 
Q 2378 3584 2631 3529 
Q 2884 3475 3122 3366 
z
" transform="scale(0.015625)"/>
       <path id="DejaVuSans-20" transform="scale(0.015625)"/>
       <path id="DejaVuSans-2f" d="M 1625 4666 
L 2156 4666 
L 531 -594 
L 0 -594 
L 1625 4666 
z
" transform="scale(0.015625)"/>
       <path id="DejaVuSans-6d" d="M 3328 2828 
Q 3544 3216 3844 3400 
Q 4144 3584 4550 3584 
Q 5097 3584 5394 3201 
Q 5691 2819 5691 2113 
L 5691 0 
L 5113 0 
L 5113 2094 
Q 5113 2597 4934 2840 
Q 4756 3084 4391 3084 
Q 3944 3084 3684 2787 
Q 3425 2491 3425 1978 
L 3425 0 
L 2847 0 
L 2847 2094 
Q 2847 2600 2669 2842 
Q 2491 3084 2119 3084 
Q 1678 3084 1418 2786 
Q 1159 2488 1159 1978 
L 1159 0 
L 581 0 
L 581 3500 
L 1159 3500 
L 1159 2956 
Q 1356 3278 1631 3431 
Q 1906 3584 2284 3584 
Q 2666 3584 2933 3390 
Q 3200 3197 3328 2828 
z
" transform="scale(0.015625)"/>
       <path id="DejaVuSans-72" d="M 2631 2963 
Q 2534 3019 2420 3045 
Q 2306 3072 2169 3072 
Q 1681 3072 1420 2755 
Q 1159 2438 1159 1844 
L 1159 0 
L 581 0 
L 581 3500 
L 1159 3500 
L 1159 2956 
Q 1341 3275 1631 3429 
Q 1922 3584 2338 3584 
Q 2397 3584 2469 3576 
Q 2541 3569 2628 3553 
L 2631 2963 
z
" transform="scale(0.015625)"/>
       <path id="DejaVuSans-54" d="M -19 4666 
L 3928 4666 
L 3928 4134 
L 2272 4134 
L 2272 0 
L 1638 0 
L 1638 4134 
L -19 4134 
L -19 4666 
z
" transform="scale(0.015625)"/>
       <path id="DejaVuSans-71" d="M 947 1747 
Q 947 1113 1208 752 
Q 1469 391 1925 391 
Q 2381 391 2643 752 
Q 2906 1113 2906 1747 
Q 2906 2381 2643 2742 
Q 2381 3103 1925 3103 
Q 1469 3103 1208 2742 
Q 947 2381 947 1747 
z
M 2906 525 
Q 2725 213 2448 61 
Q 2172 -91 1784 -91 
Q 1150 -91 751 415 
Q 353 922 353 1747 
Q 353 2572 751 3078 
Q 1150 3584 1784 3584 
Q 2172 3584 2448 3432 
Q 2725 3281 2906 2969 
L 2906 3500 
L 3481 3500 
L 3481 -1331 
L 2906 -1331 
L 2906 525 
z
" transform="scale(0.015625)"/>
       <path id="DejaVuSans-75" d="M 544 1381 
L 544 3500 
L 1119 3500 
L 1119 1403 
Q 1119 906 1312 657 
Q 1506 409 1894 409 
Q 2359 409 2629 706 
Q 2900 1003 2900 1516 
L 2900 3500 
L 3475 3500 
L 3475 0 
L 2900 0 
L 2900 538 
Q 2691 219 2414 64 
Q 2138 -91 1772 -91 
Q 1169 -91 856 284 
Q 544 659 544 1381 
z
M 1991 3584 
L 1991 3584 
z
" transform="scale(0.015625)"/>
      </defs>
      <use xlink:href="#DejaVuSans-49"/>
      <use xlink:href="#DejaVuSans-73" x="29.492188"/>
      <use xlink:href="#DejaVuSans-6f" x="81.591797"/>
      <use xlink:href="#DejaVuSans-6b" x="142.773438"/>
      <use xlink:href="#DejaVuSans-69" x="200.683594"/>
      <use xlink:href="#DejaVuSans-6e" x="228.466797"/>
      <use xlink:href="#DejaVuSans-65" x="291.845703"/>
      <use xlink:href="#DejaVuSans-74" x="353.369141"/>
      <use xlink:href="#DejaVuSans-69" x="392.578125"/>
      <use xlink:href="#DejaVuSans-63" x="420.361328"/>
      <use xlink:href="#DejaVuSans-20" x="475.341797"/>
      <use xlink:href="#DejaVuSans-2f" x="507.128906"/>
      <use xlink:href="#DejaVuSans-20" x="540.820312"/>
      <use xlink:href="#DejaVuSans-49" x="572.607422"/>
      <use xlink:href="#DejaVuSans-73" x="602.099609"/>
      <use xlink:href="#DejaVuSans-6f" x="654.199219"/>
      <use xlink:href="#DejaVuSans-6d" x="715.380859"/>
      <use xlink:href="#DejaVuSans-65" x="812.792969"/>
      <use xlink:href="#DejaVuSans-74" x="874.316406"/>
      <use xlink:href="#DejaVuSans-72" x="913.525391"/>
      <use xlink:href="#DejaVuSans-69" x="954.638672"/>
      <use xlink:href="#DejaVuSans-63" x="982.421875"/>
      <use xlink:href="#DejaVuSans-20" x="1037.402344"/>
      <use xlink:href="#DejaVuSans-54" x="1069.189453"/>
      <use xlink:href="#DejaVuSans-6f" x="1113.273438"/>
      <use xlink:href="#DejaVuSans-72" x="1174.455078"/>
      <use xlink:href="#DejaVuSans-71" x="1213.818359"/>
      <use xlink:href="#DejaVuSans-75" x="1277.294922"/>
      <use xlink:href="#DejaVuSans-65" x="1340.673828"/>
     </g>
    </g>
   </g>
   <g id="matplotlib.axis_2">
    <g id="ytick_1">
     <g id="line2d_8">
      <defs>
       <path id="m213bb8ce2a" d="M 0 0 
L -3.5 0 
" style="stroke: #000000; stroke-width: 0.8"/>
      </defs>
      <g>
       <use xlink:href="#m213bb8ce2a" x="52.160938" y="310.701716" style="stroke: #000000; stroke-width: 0.8"/>
      </g>
     </g>
     <g id="text_9">
      <!-- −1.5 -->
      <g transform="translate(20.878125 314.500935) scale(0.1 -0.1)">
       <defs>
        <path id="DejaVuSans-2212" d="M 678 2272 
L 4684 2272 
L 4684 1741 
L 678 1741 
L 678 2272 
z
" transform="scale(0.015625)"/>
       </defs>
       <use xlink:href="#DejaVuSans-2212"/>
       <use xlink:href="#DejaVuSans-31" x="83.789062"/>
       <use xlink:href="#DejaVuSans-2e" x="147.412109"/>
       <use xlink:href="#DejaVuSans-35" x="179.199219"/>
      </g>
     </g>
    </g>
    <g id="ytick_2">
     <g id="line2d_9">
      <g>
       <use xlink:href="#m213bb8ce2a" x="52.160938" y="265.075259" style="stroke: #000000; stroke-width: 0.8"/>
      </g>
     </g>
     <g id="text_10">
      <!-- −1.0 -->
      <g transform="translate(20.878125 268.874478) scale(0.1 -0.1)">
       <use xlink:href="#DejaVuSans-2212"/>
       <use xlink:href="#DejaVuSans-31" x="83.789062"/>
       <use xlink:href="#DejaVuSans-2e" x="147.412109"/>
       <use xlink:href="#DejaVuSans-30" x="179.199219"/>
      </g>
     </g>
    </g>
    <g id="ytick_3">
     <g id="line2d_10">
      <g>
       <use xlink:href="#m213bb8ce2a" x="52.160938" y="219.448802" style="stroke: #000000; stroke-width: 0.8"/>
      </g>
     </g>
     <g id="text_11">
      <!-- −0.5 -->
      <g transform="translate(20.878125 223.248021) scale(0.1 -0.1)">
       <use xlink:href="#DejaVuSans-2212"/>
       <use xlink:href="#DejaVuSans-30" x="83.789062"/>
       <use xlink:href="#DejaVuSans-2e" x="147.412109"/>
       <use xlink:href="#DejaVuSans-35" x="179.199219"/>
      </g>
     </g>
    </g>
    <g id="ytick_4">
     <g id="line2d_11">
      <g>
       <use xlink:href="#m213bb8ce2a" x="52.160938" y="173.822345" style="stroke: #000000; stroke-width: 0.8"/>
      </g>
     </g>
     <g id="text_12">
      <!-- 0.0 -->
      <g transform="translate(29.257813 177.621564) scale(0.1 -0.1)">
       <use xlink:href="#DejaVuSans-30"/>
       <use xlink:href="#DejaVuSans-2e" x="63.623047"/>
       <use xlink:href="#DejaVuSans-30" x="95.410156"/>
      </g>
     </g>
    </g>
    <g id="ytick_5">
     <g id="line2d_12">
      <g>
       <use xlink:href="#m213bb8ce2a" x="52.160938" y="128.195889" style="stroke: #000000; stroke-width: 0.8"/>
      </g>
     </g>
     <g id="text_13">
      <!-- 0.5 -->
      <g transform="translate(29.257813 131.995107) scale(0.1 -0.1)">
       <use xlink:href="#DejaVuSans-30"/>
       <use xlink:href="#DejaVuSans-2e" x="63.623047"/>
       <use xlink:href="#DejaVuSans-35" x="95.410156"/>
      </g>
     </g>
    </g>
    <g id="ytick_6">
     <g id="line2d_13">
      <g>
       <use xlink:href="#m213bb8ce2a" x="52.160938" y="82.569432" style="stroke: #000000; stroke-width: 0.8"/>
      </g>
     </g>
     <g id="text_14">
      <!-- 1.0 -->
      <g transform="translate(29.257813 86.36865) scale(0.1 -0.1)">
       <use xlink:href="#DejaVuSans-31"/>
       <use xlink:href="#DejaVuSans-2e" x="63.623047"/>
       <use xlink:href="#DejaVuSans-30" x="95.410156"/>
      </g>
     </g>
    </g>
    <g id="ytick_7">
     <g id="line2d_14">
      <g>
       <use xlink:href="#m213bb8ce2a" x="52.160938" y="36.942975" style="stroke: #000000; stroke-width: 0.8"/>
      </g>
     </g>
     <g id="text_15">
      <!-- 1.5 -->
      <g transform="translate(29.257813 40.742194) scale(0.1 -0.1)">
       <use xlink:href="#DejaVuSans-31"/>
       <use xlink:href="#DejaVuSans-2e" x="63.623047"/>
       <use xlink:href="#DejaVuSans-35" x="95.410156"/>
      </g>
     </g>
    </g>
    <g id="text_16">
     <!-- Volume Total (Standardized) -->
     <g transform="translate(14.798438 233.884844) rotate(-90) scale(0.1 -0.1)">
      <defs>
       <path id="DejaVuSans-56" d="M 1831 0 
L 50 4666 
L 709 4666 
L 2188 738 
L 3669 4666 
L 4325 4666 
L 2547 0 
L 1831 0 
z
" transform="scale(0.015625)"/>
       <path id="DejaVuSans-6c" d="M 603 4863 
L 1178 4863 
L 1178 0 
L 603 0 
L 603 4863 
z
" transform="scale(0.015625)"/>
       <path id="DejaVuSans-61" d="M 2194 1759 
Q 1497 1759 1228 1600 
Q 959 1441 959 1056 
Q 959 750 1161 570 
Q 1363 391 1709 391 
Q 2188 391 2477 730 
Q 2766 1069 2766 1631 
L 2766 1759 
L 2194 1759 
z
M 3341 1997 
L 3341 0 
L 2766 0 
L 2766 531 
Q 2569 213 2275 61 
Q 1981 -91 1556 -91 
Q 1019 -91 701 211 
Q 384 513 384 1019 
Q 384 1609 779 1909 
Q 1175 2209 1959 2209 
L 2766 2209 
L 2766 2266 
Q 2766 2663 2505 2880 
Q 2244 3097 1772 3097 
Q 1472 3097 1187 3025 
Q 903 2953 641 2809 
L 641 3341 
Q 956 3463 1253 3523 
Q 1550 3584 1831 3584 
Q 2591 3584 2966 3190 
Q 3341 2797 3341 1997 
z
" transform="scale(0.015625)"/>
       <path id="DejaVuSans-28" d="M 1984 4856 
Q 1566 4138 1362 3434 
Q 1159 2731 1159 2009 
Q 1159 1288 1364 580 
Q 1569 -128 1984 -844 
L 1484 -844 
Q 1016 -109 783 600 
Q 550 1309 550 2009 
Q 550 2706 781 3412 
Q 1013 4119 1484 4856 
L 1984 4856 
z
" transform="scale(0.015625)"/>
       <path id="DejaVuSans-53" d="M 3425 4513 
L 3425 3897 
Q 3066 4069 2747 4153 
Q 2428 4238 2131 4238 
Q 1616 4238 1336 4038 
Q 1056 3838 1056 3469 
Q 1056 3159 1242 3001 
Q 1428 2844 1947 2747 
L 2328 2669 
Q 3034 2534 3370 2195 
Q 3706 1856 3706 1288 
Q 3706 609 3251 259 
Q 2797 -91 1919 -91 
Q 1588 -91 1214 -16 
Q 841 59 441 206 
L 441 856 
Q 825 641 1194 531 
Q 1563 422 1919 422 
Q 2459 422 2753 634 
Q 3047 847 3047 1241 
Q 3047 1584 2836 1778 
Q 2625 1972 2144 2069 
L 1759 2144 
Q 1053 2284 737 2584 
Q 422 2884 422 3419 
Q 422 4038 858 4394 
Q 1294 4750 2059 4750 
Q 2388 4750 2728 4690 
Q 3069 4631 3425 4513 
z
" transform="scale(0.015625)"/>
       <path id="DejaVuSans-64" d="M 2906 2969 
L 2906 4863 
L 3481 4863 
L 3481 0 
L 2906 0 
L 2906 525 
Q 2725 213 2448 61 
Q 2172 -91 1784 -91 
Q 1150 -91 751 415 
Q 353 922 353 1747 
Q 353 2572 751 3078 
Q 1150 3584 1784 3584 
Q 2172 3584 2448 3432 
Q 2725 3281 2906 2969 
z
M 947 1747 
Q 947 1113 1208 752 
Q 1469 391 1925 391 
Q 2381 391 2643 752 
Q 2906 1113 2906 1747 
Q 2906 2381 2643 2742 
Q 2381 3103 1925 3103 
Q 1469 3103 1208 2742 
Q 947 2381 947 1747 
z
" transform="scale(0.015625)"/>
       <path id="DejaVuSans-7a" d="M 353 3500 
L 3084 3500 
L 3084 2975 
L 922 459 
L 3084 459 
L 3084 0 
L 275 0 
L 275 525 
L 2438 3041 
L 353 3041 
L 353 3500 
z
" transform="scale(0.015625)"/>
       <path id="DejaVuSans-29" d="M 513 4856 
L 1013 4856 
Q 1481 4119 1714 3412 
Q 1947 2706 1947 2009 
Q 1947 1309 1714 600 
Q 1481 -109 1013 -844 
L 513 -844 
Q 928 -128 1133 580 
Q 1338 1288 1338 2009 
Q 1338 2731 1133 3434 
Q 928 4138 513 4856 
z
" transform="scale(0.015625)"/>
      </defs>
      <use xlink:href="#DejaVuSans-56"/>
      <use xlink:href="#DejaVuSans-6f" x="60.658203"/>
      <use xlink:href="#DejaVuSans-6c" x="121.839844"/>
      <use xlink:href="#DejaVuSans-75" x="149.623047"/>
      <use xlink:href="#DejaVuSans-6d" x="213.001953"/>
      <use xlink:href="#DejaVuSans-65" x="310.414062"/>
      <use xlink:href="#DejaVuSans-20" x="371.9375"/>
      <use xlink:href="#DejaVuSans-54" x="403.724609"/>
      <use xlink:href="#DejaVuSans-6f" x="447.808594"/>
      <use xlink:href="#DejaVuSans-74" x="508.990234"/>
      <use xlink:href="#DejaVuSans-61" x="548.199219"/>
      <use xlink:href="#DejaVuSans-6c" x="609.478516"/>
      <use xlink:href="#DejaVuSans-20" x="637.261719"/>
      <use xlink:href="#DejaVuSans-28" x="669.048828"/>
      <use xlink:href="#DejaVuSans-53" x="708.0625"/>
      <use xlink:href="#DejaVuSans-74" x="771.539062"/>
      <use xlink:href="#DejaVuSans-61" x="810.748047"/>
      <use xlink:href="#DejaVuSans-6e" x="872.027344"/>
      <use xlink:href="#DejaVuSans-64" x="935.40625"/>
      <use xlink:href="#DejaVuSans-61" x="998.882812"/>
      <use xlink:href="#DejaVuSans-72" x="1060.162109"/>
      <use xlink:href="#DejaVuSans-64" x="1099.525391"/>
      <use xlink:href="#DejaVuSans-69" x="1163.001953"/>
      <use xlink:href="#DejaVuSans-7a" x="1190.785156"/>
      <use xlink:href="#DejaVuSans-65" x="1243.275391"/>
      <use xlink:href="#DejaVuSans-64" x="1304.798828"/>
      <use xlink:href="#DejaVuSans-29" x="1368.275391"/>
     </g>
    </g>
   </g>
   <g id="patch_3">
    <path d="M 52.160938 319.84 
L 52.160938 7.2 
" style="fill: none; stroke: #000000; stroke-width: 0.8; stroke-linejoin: miter; stroke-linecap: square"/>
   </g>
   <g id="patch_4">
    <path d="M 52.160938 319.84 
L 354.874872 319.84 
" style="fill: none; stroke: #000000; stroke-width: 0.8; stroke-linejoin: miter; stroke-linecap: square"/>
   </g>
   <g id="text_17">
    <!-- r= 0.09, p= 7.23e-01 -->
    <g transform="translate(150.043686 38.464) scale(0.1 -0.1)">
     <defs>
      <path id="DejaVuSans-3d" d="M 678 2906 
L 4684 2906 
L 4684 2381 
L 678 2381 
L 678 2906 
z
M 678 1631 
L 4684 1631 
L 4684 1100 
L 678 1100 
L 678 1631 
z
" transform="scale(0.015625)"/>
      <path id="DejaVuSans-2c" d="M 750 794 
L 1409 794 
L 1409 256 
L 897 -744 
L 494 -744 
L 750 256 
L 750 794 
z
" transform="scale(0.015625)"/>
      <path id="DejaVuSans-70" d="M 1159 525 
L 1159 -1331 
L 581 -1331 
L 581 3500 
L 1159 3500 
L 1159 2969 
Q 1341 3281 1617 3432 
Q 1894 3584 2278 3584 
Q 2916 3584 3314 3078 
Q 3713 2572 3713 1747 
Q 3713 922 3314 415 
Q 2916 -91 2278 -91 
Q 1894 -91 1617 61 
Q 1341 213 1159 525 
z
M 3116 1747 
Q 3116 2381 2855 2742 
Q 2594 3103 2138 3103 
Q 1681 3103 1420 2742 
Q 1159 2381 1159 1747 
Q 1159 1113 1420 752 
Q 1681 391 2138 391 
Q 2594 391 2855 752 
Q 3116 1113 3116 1747 
z
" transform="scale(0.015625)"/>
      <path id="DejaVuSans-32" d="M 1228 531 
L 3431 531 
L 3431 0 
L 469 0 
L 469 531 
Q 828 903 1448 1529 
Q 2069 2156 2228 2338 
Q 2531 2678 2651 2914 
Q 2772 3150 2772 3378 
Q 2772 3750 2511 3984 
Q 2250 4219 1831 4219 
Q 1534 4219 1204 4116 
Q 875 4013 500 3803 
L 500 4441 
Q 881 4594 1212 4672 
Q 1544 4750 1819 4750 
Q 2544 4750 2975 4387 
Q 3406 4025 3406 3419 
Q 3406 3131 3298 2873 
Q 3191 2616 2906 2266 
Q 2828 2175 2409 1742 
Q 1991 1309 1228 531 
z
" transform="scale(0.015625)"/>
      <path id="DejaVuSans-33" d="M 2597 2516 
Q 3050 2419 3304 2112 
Q 3559 1806 3559 1356 
Q 3559 666 3084 287 
Q 2609 -91 1734 -91 
Q 1441 -91 1130 -33 
Q 819 25 488 141 
L 488 750 
Q 750 597 1062 519 
Q 1375 441 1716 441 
Q 2309 441 2620 675 
Q 2931 909 2931 1356 
Q 2931 1769 2642 2001 
Q 2353 2234 1838 2234 
L 1294 2234 
L 1294 2753 
L 1863 2753 
Q 2328 2753 2575 2939 
Q 2822 3125 2822 3475 
Q 2822 3834 2567 4026 
Q 2313 4219 1838 4219 
Q 1578 4219 1281 4162 
Q 984 4106 628 3988 
L 628 4550 
Q 988 4650 1302 4700 
Q 1616 4750 1894 4750 
Q 2613 4750 3031 4423 
Q 3450 4097 3450 3541 
Q 3450 3153 3228 2886 
Q 3006 2619 2597 2516 
z
" transform="scale(0.015625)"/>
      <path id="DejaVuSans-2d" d="M 313 2009 
L 1997 2009 
L 1997 1497 
L 313 1497 
L 313 2009 
z
" transform="scale(0.015625)"/>
     </defs>
     <use xlink:href="#DejaVuSans-72"/>
     <use xlink:href="#DejaVuSans-3d" x="41.113281"/>
     <use xlink:href="#DejaVuSans-20" x="124.902344"/>
     <use xlink:href="#DejaVuSans-30" x="156.689453"/>
     <use xlink:href="#DejaVuSans-2e" x="220.3125"/>
     <use xlink:href="#DejaVuSans-30" x="252.099609"/>
     <use xlink:href="#DejaVuSans-39" x="315.722656"/>
     <use xlink:href="#DejaVuSans-2c" x="379.345703"/>
     <use xlink:href="#DejaVuSans-20" x="411.132812"/>
     <use xlink:href="#DejaVuSans-70" x="442.919922"/>
     <use xlink:href="#DejaVuSans-3d" x="506.396484"/>
     <use xlink:href="#DejaVuSans-20" x="590.185547"/>
     <use xlink:href="#DejaVuSans-37" x="621.972656"/>
     <use xlink:href="#DejaVuSans-2e" x="685.595703"/>
     <use xlink:href="#DejaVuSans-32" x="717.382812"/>
     <use xlink:href="#DejaVuSans-33" x="781.005859"/>
     <use xlink:href="#DejaVuSans-65" x="844.628906"/>
     <use xlink:href="#DejaVuSans-2d" x="906.152344"/>
     <use xlink:href="#DejaVuSans-30" x="942.236328"/>
     <use xlink:href="#DejaVuSans-31" x="1005.859375"/>
    </g>
   </g>
  </g>
  <g id="axes_2">
   <g id="patch_5">
    <path d="M 401.990938 319.84 
L 704.704872 319.84 
L 704.704872 7.2 
L 401.990938 7.2 
z
" style="fill: #ffffff"/>
   </g>
   <g id="PathCollection_2">
    <defs>
     <path id="m570eba5469" d="M 0 3 
C 0.795609 3 1.55874 2.683901 2.12132 2.12132 
C 2.683901 1.55874 3 0.795609 3 0 
C 3 -0.795609 2.683901 -1.55874 2.12132 -2.12132 
C 1.55874 -2.683901 0.795609 -3 0 -3 
C -0.795609 -3 -1.55874 -2.683901 -2.12132 -2.12132 
C -2.683901 -1.55874 -3 -0.795609 -3 0 
C -3 0.795609 -2.683901 1.55874 -2.12132 2.12132 
C -1.55874 2.683901 -0.795609 3 0 3 
z
" style="stroke: #0000ff; stroke-opacity: 0.8"/>
    </defs>
    <g clip-path="url(#p62de801211)">
     <use xlink:href="#m570eba5469" x="604.641103" y="161.720771" style="fill: #0000ff; fill-opacity: 0.8; stroke: #0000ff; stroke-opacity: 0.8"/>
     <use xlink:href="#m570eba5469" x="498.232106" y="190.081747" style="fill: #0000ff; fill-opacity: 0.8; stroke: #0000ff; stroke-opacity: 0.8"/>
     <use xlink:href="#m570eba5469" x="415.750662" y="222.749627" style="fill: #0000ff; fill-opacity: 0.8; stroke: #0000ff; stroke-opacity: 0.8"/>
     <use xlink:href="#m570eba5469" x="585.889908" y="21.410909" style="fill: #0000ff; fill-opacity: 0.8; stroke: #0000ff; stroke-opacity: 0.8"/>
     <use xlink:href="#m570eba5469" x="599.105412" y="173.962126" style="fill: #0000ff; fill-opacity: 0.8; stroke: #0000ff; stroke-opacity: 0.8"/>
     <use xlink:href="#m570eba5469" x="633.658756" y="187.347299" style="fill: #0000ff; fill-opacity: 0.8; stroke: #0000ff; stroke-opacity: 0.8"/>
     <use xlink:href="#m570eba5469" x="477.233704" y="185.217139" style="fill: #0000ff; fill-opacity: 0.8; stroke: #0000ff; stroke-opacity: 0.8"/>
     <use xlink:href="#m570eba5469" x="452.019182" y="219.538432" style="fill: #0000ff; fill-opacity: 0.8; stroke: #0000ff; stroke-opacity: 0.8"/>
     <use xlink:href="#m570eba5469" x="690.945148" y="96.946365" style="fill: #0000ff; fill-opacity: 0.8; stroke: #0000ff; stroke-opacity: 0.8"/>
     <use xlink:href="#m570eba5469" x="505.947074" y="213.83231" style="fill: #0000ff; fill-opacity: 0.8; stroke: #0000ff; stroke-opacity: 0.8"/>
     <use xlink:href="#m570eba5469" x="519.191743" y="168.829287" style="fill: #0000ff; fill-opacity: 0.8; stroke: #0000ff; stroke-opacity: 0.8"/>
     <use xlink:href="#m570eba5469" x="539.87663" y="267.461779" style="fill: #0000ff; fill-opacity: 0.8; stroke: #0000ff; stroke-opacity: 0.8"/>
     <use xlink:href="#m570eba5469" x="467.191372" y="305.629091" style="fill: #0000ff; fill-opacity: 0.8; stroke: #0000ff; stroke-opacity: 0.8"/>
     <use xlink:href="#m570eba5469" x="522.248906" y="250.809905" style="fill: #0000ff; fill-opacity: 0.8; stroke: #0000ff; stroke-opacity: 0.8"/>
     <use xlink:href="#m570eba5469" x="420.37765" y="294.186174" style="fill: #0000ff; fill-opacity: 0.8; stroke: #0000ff; stroke-opacity: 0.8"/>
     <use xlink:href="#m570eba5469" x="604.317389" y="176.467556" style="fill: #0000ff; fill-opacity: 0.8; stroke: #0000ff; stroke-opacity: 0.8"/>
     <use xlink:href="#m570eba5469" x="453.719325" y="237.260355" style="fill: #0000ff; fill-opacity: 0.8; stroke: #0000ff; stroke-opacity: 0.8"/>
     <use xlink:href="#m570eba5469" x="590.607409" y="176.00391" style="fill: #0000ff; fill-opacity: 0.8; stroke: #0000ff; stroke-opacity: 0.8"/>
     <use xlink:href="#m570eba5469" x="497.11345" y="153.224106" style="fill: #0000ff; fill-opacity: 0.8; stroke: #0000ff; stroke-opacity: 0.8"/>
    </g>
   </g>
   <g id="PolyCollection_1">
    <path d="M 415.750662 221.892429 
L 415.750662 291.970512 
L 418.530404 289.895361 
L 421.310146 287.805473 
L 424.089889 285.93009 
L 426.869631 283.932785 
L 429.649373 281.909827 
L 432.429116 279.975539 
L 435.208858 278.135524 
L 437.9886 276.292483 
L 440.768342 274.449442 
L 443.548085 272.495424 
L 446.327827 270.75791 
L 449.107569 268.91825 
L 451.887311 267.032763 
L 454.667054 265.062822 
L 457.446796 263.09288 
L 460.226538 261.122939 
L 463.006281 259.152998 
L 465.786023 257.407129 
L 468.565765 255.392614 
L 471.345507 253.233962 
L 474.12525 251.271469 
L 476.904992 249.490792 
L 479.684734 247.41103 
L 482.464477 245.753395 
L 485.244219 244.062314 
L 488.023961 242.387901 
L 490.803703 240.618266 
L 493.583446 239.054292 
L 496.363188 237.279213 
L 499.14293 235.446562 
L 501.922673 233.915251 
L 504.702415 232.374407 
L 507.482157 230.855898 
L 510.261899 229.038248 
L 513.041642 227.368907 
L 515.821384 225.695547 
L 518.601126 223.840775 
L 521.380869 222.150263 
L 524.160611 220.660019 
L 526.940353 219.258568 
L 529.720095 217.681033 
L 532.499838 216.369696 
L 535.27958 214.921532 
L 538.059322 213.02916 
L 540.839065 211.260589 
L 543.618807 210.165432 
L 546.398549 209.134823 
L 549.178291 207.533097 
L 551.958034 205.885421 
L 554.737776 204.7757 
L 557.517518 203.339064 
L 560.297261 201.913633 
L 563.077003 200.944983 
L 565.856745 199.837023 
L 568.636487 198.994089 
L 571.41623 197.556621 
L 574.195972 196.633001 
L 576.975714 195.316576 
L 579.755457 194.471708 
L 582.535199 193.26535 
L 585.314941 192.164385 
L 588.094683 191.234928 
L 590.874426 190.21121 
L 593.654168 188.958971 
L 596.43391 188.024884 
L 599.213653 186.835523 
L 601.993395 186.14161 
L 604.773137 185.126334 
L 607.552879 184.111058 
L 610.332622 183.095389 
L 613.112364 182.202251 
L 615.892106 181.084315 
L 618.671849 180.138771 
L 621.451591 179.193227 
L 624.231333 178.242841 
L 627.011075 177.295615 
L 629.790818 176.356596 
L 632.57056 175.411052 
L 635.350302 174.460288 
L 638.130044 173.506904 
L 640.909787 172.375226 
L 643.689529 171.270183 
L 646.469271 170.308874 
L 649.249014 169.347566 
L 652.028756 168.583806 
L 654.808498 167.830394 
L 657.58824 166.880636 
L 660.367983 165.936942 
L 663.147725 164.999277 
L 665.927467 164.060671 
L 668.70721 163.44479 
L 671.486952 162.718929 
L 674.266694 161.722332 
L 677.046436 160.725417 
L 679.826179 160.013155 
L 682.605921 159.300893 
L 685.385663 158.393514 
L 688.165406 157.472864 
L 690.945148 156.543899 
L 690.945148 45.30763 
L 690.945148 45.30763 
L 688.165406 47.887716 
L 685.385663 50.292385 
L 682.605921 52.535067 
L 679.826179 54.72323 
L 677.046436 56.911393 
L 674.266694 59.099556 
L 671.486952 61.287719 
L 668.70721 63.475882 
L 665.927467 65.664046 
L 663.147725 67.859231 
L 660.367983 70.056492 
L 657.58824 72.253753 
L 654.808498 74.451014 
L 652.028756 76.648275 
L 649.249014 78.845536 
L 646.469271 81.042798 
L 643.689529 83.295324 
L 640.909787 85.746594 
L 638.130044 88.197865 
L 635.350302 90.649136 
L 632.57056 93.100406 
L 629.790818 95.551677 
L 627.011075 97.913156 
L 624.231333 99.990355 
L 621.451591 102.067555 
L 618.671849 104.144754 
L 615.892106 106.221953 
L 613.112364 108.303914 
L 610.332622 110.388 
L 607.552879 112.457301 
L 604.773137 114.540137 
L 601.993395 116.608377 
L 599.213653 118.69227 
L 596.43391 120.766754 
L 593.654168 122.781236 
L 590.874426 124.857292 
L 588.094683 127.048698 
L 585.314941 129.236367 
L 582.535199 131.430236 
L 579.755457 133.628092 
L 576.975714 135.809913 
L 574.195972 137.88655 
L 571.41623 139.728419 
L 568.636487 142.11657 
L 565.856745 144.507921 
L 563.077003 146.750235 
L 560.297261 148.422072 
L 557.517518 150.571287 
L 554.737776 152.53433 
L 551.958034 154.6387 
L 549.178291 156.862848 
L 546.398549 158.707929 
L 543.618807 160.695269 
L 540.839065 162.491808 
L 538.059322 164.223744 
L 535.27958 165.825408 
L 532.499838 167.35306 
L 529.720095 168.874961 
L 526.940353 170.738656 
L 524.160611 172.32203 
L 521.380869 173.464172 
L 518.601126 174.979427 
L 515.821384 176.787513 
L 513.041642 178.106751 
L 510.261899 179.906266 
L 507.482157 181.706969 
L 504.702415 183.019613 
L 501.922673 184.133172 
L 499.14293 185.656217 
L 496.363188 187.18304 
L 493.583446 188.927689 
L 490.803703 190.373203 
L 488.023961 191.767175 
L 485.244219 193.263146 
L 482.464477 194.706785 
L 479.684734 196.147807 
L 476.904992 197.593771 
L 474.12525 199.023088 
L 471.345507 200.325493 
L 468.565765 201.501137 
L 465.786023 202.663368 
L 463.006281 203.787446 
L 460.226538 205.199484 
L 457.446796 206.385861 
L 454.667054 207.517853 
L 451.887311 208.619894 
L 449.107569 209.715291 
L 446.327827 210.814677 
L 443.548085 211.54819 
L 440.768342 212.79292 
L 437.9886 213.791234 
L 435.208858 215.162114 
L 432.429116 216.155374 
L 429.649373 217.019876 
L 426.869631 217.88621 
L 424.089889 218.847581 
L 421.310146 220.260792 
L 418.530404 221.04422 
L 415.750662 221.892429 
z
" clip-path="url(#p62de801211)" style="fill-opacity: 0.15"/>
   </g>
   <g id="matplotlib.axis_3">
    <g id="xtick_8">
     <g id="line2d_15">
      <g>
       <use xlink:href="#m6be67a8d56" x="419.941594" y="319.84" style="stroke: #000000; stroke-width: 0.8"/>
      </g>
     </g>
     <g id="text_18">
      <!-- 0.4 -->
      <g transform="translate(411.990031 334.438437) scale(0.1 -0.1)">
       <use xlink:href="#DejaVuSans-30"/>
       <use xlink:href="#DejaVuSans-2e" x="63.623047"/>
       <use xlink:href="#DejaVuSans-34" x="95.410156"/>
      </g>
     </g>
    </g>
    <g id="xtick_9">
     <g id="line2d_16">
      <g>
       <use xlink:href="#m6be67a8d56" x="462.997947" y="319.84" style="stroke: #000000; stroke-width: 0.8"/>
      </g>
     </g>
     <g id="text_19">
      <!-- 0.5 -->
      <g transform="translate(455.046384 334.438437) scale(0.1 -0.1)">
       <use xlink:href="#DejaVuSans-30"/>
       <use xlink:href="#DejaVuSans-2e" x="63.623047"/>
       <use xlink:href="#DejaVuSans-35" x="95.410156"/>
      </g>
     </g>
    </g>
    <g id="xtick_10">
     <g id="line2d_17">
      <g>
       <use xlink:href="#m6be67a8d56" x="506.0543" y="319.84" style="stroke: #000000; stroke-width: 0.8"/>
      </g>
     </g>
     <g id="text_20">
      <!-- 0.6 -->
      <g transform="translate(498.102737 334.438437) scale(0.1 -0.1)">
       <use xlink:href="#DejaVuSans-30"/>
       <use xlink:href="#DejaVuSans-2e" x="63.623047"/>
       <use xlink:href="#DejaVuSans-36" x="95.410156"/>
      </g>
     </g>
    </g>
    <g id="xtick_11">
     <g id="line2d_18">
      <g>
       <use xlink:href="#m6be67a8d56" x="549.110653" y="319.84" style="stroke: #000000; stroke-width: 0.8"/>
      </g>
     </g>
     <g id="text_21">
      <!-- 0.7 -->
      <g transform="translate(541.15909 334.438437) scale(0.1 -0.1)">
       <use xlink:href="#DejaVuSans-30"/>
       <use xlink:href="#DejaVuSans-2e" x="63.623047"/>
       <use xlink:href="#DejaVuSans-37" x="95.410156"/>
      </g>
     </g>
    </g>
    <g id="xtick_12">
     <g id="line2d_19">
      <g>
       <use xlink:href="#m6be67a8d56" x="592.167006" y="319.84" style="stroke: #000000; stroke-width: 0.8"/>
      </g>
     </g>
     <g id="text_22">
      <!-- 0.8 -->
      <g transform="translate(584.215443 334.438437) scale(0.1 -0.1)">
       <use xlink:href="#DejaVuSans-30"/>
       <use xlink:href="#DejaVuSans-2e" x="63.623047"/>
       <use xlink:href="#DejaVuSans-38" x="95.410156"/>
      </g>
     </g>
    </g>
    <g id="xtick_13">
     <g id="line2d_20">
      <g>
       <use xlink:href="#m6be67a8d56" x="635.223359" y="319.84" style="stroke: #000000; stroke-width: 0.8"/>
      </g>
     </g>
     <g id="text_23">
      <!-- 0.9 -->
      <g transform="translate(627.271796 334.438437) scale(0.1 -0.1)">
       <use xlink:href="#DejaVuSans-30"/>
       <use xlink:href="#DejaVuSans-2e" x="63.623047"/>
       <use xlink:href="#DejaVuSans-39" x="95.410156"/>
      </g>
     </g>
    </g>
    <g id="xtick_14">
     <g id="line2d_21">
      <g>
       <use xlink:href="#m6be67a8d56" x="678.279711" y="319.84" style="stroke: #000000; stroke-width: 0.8"/>
      </g>
     </g>
     <g id="text_24">
      <!-- 1.0 -->
      <g transform="translate(670.328149 334.438437) scale(0.1 -0.1)">
       <use xlink:href="#DejaVuSans-31"/>
       <use xlink:href="#DejaVuSans-2e" x="63.623047"/>
       <use xlink:href="#DejaVuSans-30" x="95.410156"/>
      </g>
     </g>
    </g>
    <g id="text_25">
     <!-- Isokinetic / Isometric Torque -->
     <g transform="translate(483.23853 348.116562) scale(0.1 -0.1)">
      <use xlink:href="#DejaVuSans-49"/>
      <use xlink:href="#DejaVuSans-73" x="29.492188"/>
      <use xlink:href="#DejaVuSans-6f" x="81.591797"/>
      <use xlink:href="#DejaVuSans-6b" x="142.773438"/>
      <use xlink:href="#DejaVuSans-69" x="200.683594"/>
      <use xlink:href="#DejaVuSans-6e" x="228.466797"/>
      <use xlink:href="#DejaVuSans-65" x="291.845703"/>
      <use xlink:href="#DejaVuSans-74" x="353.369141"/>
      <use xlink:href="#DejaVuSans-69" x="392.578125"/>
      <use xlink:href="#DejaVuSans-63" x="420.361328"/>
      <use xlink:href="#DejaVuSans-20" x="475.341797"/>
      <use xlink:href="#DejaVuSans-2f" x="507.128906"/>
      <use xlink:href="#DejaVuSans-20" x="540.820312"/>
      <use xlink:href="#DejaVuSans-49" x="572.607422"/>
      <use xlink:href="#DejaVuSans-73" x="602.099609"/>
      <use xlink:href="#DejaVuSans-6f" x="654.199219"/>
      <use xlink:href="#DejaVuSans-6d" x="715.380859"/>
      <use xlink:href="#DejaVuSans-65" x="812.792969"/>
      <use xlink:href="#DejaVuSans-74" x="874.316406"/>
      <use xlink:href="#DejaVuSans-72" x="913.525391"/>
      <use xlink:href="#DejaVuSans-69" x="954.638672"/>
      <use xlink:href="#DejaVuSans-63" x="982.421875"/>
      <use xlink:href="#DejaVuSans-20" x="1037.402344"/>
      <use xlink:href="#DejaVuSans-54" x="1069.189453"/>
      <use xlink:href="#DejaVuSans-6f" x="1113.273438"/>
      <use xlink:href="#DejaVuSans-72" x="1174.455078"/>
      <use xlink:href="#DejaVuSans-71" x="1213.818359"/>
      <use xlink:href="#DejaVuSans-75" x="1277.294922"/>
      <use xlink:href="#DejaVuSans-65" x="1340.673828"/>
     </g>
    </g>
   </g>
   <g id="matplotlib.axis_4">
    <g id="ytick_8">
     <g id="line2d_22">
      <g>
       <use xlink:href="#m213bb8ce2a" x="401.990938" y="259.18193" style="stroke: #000000; stroke-width: 0.8"/>
      </g>
     </g>
     <g id="text_26">
      <!-- −1 -->
      <g transform="translate(380.24875 262.981149) scale(0.1 -0.1)">
       <use xlink:href="#DejaVuSans-2212"/>
       <use xlink:href="#DejaVuSans-31" x="83.789062"/>
      </g>
     </g>
    </g>
    <g id="ytick_9">
     <g id="line2d_23">
      <g>
       <use xlink:href="#m213bb8ce2a" x="401.990938" y="194.877836" style="stroke: #000000; stroke-width: 0.8"/>
      </g>
     </g>
     <g id="text_27">
      <!-- 0 -->
      <g transform="translate(388.628438 198.677055) scale(0.1 -0.1)">
       <use xlink:href="#DejaVuSans-30"/>
      </g>
     </g>
    </g>
    <g id="ytick_10">
     <g id="line2d_24">
      <g>
       <use xlink:href="#m213bb8ce2a" x="401.990938" y="130.573742" style="stroke: #000000; stroke-width: 0.8"/>
      </g>
     </g>
     <g id="text_28">
      <!-- 1 -->
      <g transform="translate(388.628438 134.372961) scale(0.1 -0.1)">
       <use xlink:href="#DejaVuSans-31"/>
      </g>
     </g>
    </g>
    <g id="ytick_11">
     <g id="line2d_25">
      <g>
       <use xlink:href="#m213bb8ce2a" x="401.990938" y="66.269649" style="stroke: #000000; stroke-width: 0.8"/>
      </g>
     </g>
     <g id="text_29">
      <!-- 2 -->
      <g transform="translate(388.628438 70.068867) scale(0.1 -0.1)">
       <use xlink:href="#DejaVuSans-32"/>
      </g>
     </g>
    </g>
    <g id="text_30">
     <!-- Radial Diffusivity (Standardized) -->
     <g transform="translate(374.169062 244.243437) rotate(-90) scale(0.1 -0.1)">
      <defs>
       <path id="DejaVuSans-52" d="M 2841 2188 
Q 3044 2119 3236 1894 
Q 3428 1669 3622 1275 
L 4263 0 
L 3584 0 
L 2988 1197 
Q 2756 1666 2539 1819 
Q 2322 1972 1947 1972 
L 1259 1972 
L 1259 0 
L 628 0 
L 628 4666 
L 2053 4666 
Q 2853 4666 3247 4331 
Q 3641 3997 3641 3322 
Q 3641 2881 3436 2590 
Q 3231 2300 2841 2188 
z
M 1259 4147 
L 1259 2491 
L 2053 2491 
Q 2509 2491 2742 2702 
Q 2975 2913 2975 3322 
Q 2975 3731 2742 3939 
Q 2509 4147 2053 4147 
L 1259 4147 
z
" transform="scale(0.015625)"/>
       <path id="DejaVuSans-44" d="M 1259 4147 
L 1259 519 
L 2022 519 
Q 2988 519 3436 956 
Q 3884 1394 3884 2338 
Q 3884 3275 3436 3711 
Q 2988 4147 2022 4147 
L 1259 4147 
z
M 628 4666 
L 1925 4666 
Q 3281 4666 3915 4102 
Q 4550 3538 4550 2338 
Q 4550 1131 3912 565 
Q 3275 0 1925 0 
L 628 0 
L 628 4666 
z
" transform="scale(0.015625)"/>
       <path id="DejaVuSans-66" d="M 2375 4863 
L 2375 4384 
L 1825 4384 
Q 1516 4384 1395 4259 
Q 1275 4134 1275 3809 
L 1275 3500 
L 2222 3500 
L 2222 3053 
L 1275 3053 
L 1275 0 
L 697 0 
L 697 3053 
L 147 3053 
L 147 3500 
L 697 3500 
L 697 3744 
Q 697 4328 969 4595 
Q 1241 4863 1831 4863 
L 2375 4863 
z
" transform="scale(0.015625)"/>
       <path id="DejaVuSans-76" d="M 191 3500 
L 800 3500 
L 1894 563 
L 2988 3500 
L 3597 3500 
L 2284 0 
L 1503 0 
L 191 3500 
z
" transform="scale(0.015625)"/>
       <path id="DejaVuSans-79" d="M 2059 -325 
Q 1816 -950 1584 -1140 
Q 1353 -1331 966 -1331 
L 506 -1331 
L 506 -850 
L 844 -850 
Q 1081 -850 1212 -737 
Q 1344 -625 1503 -206 
L 1606 56 
L 191 3500 
L 800 3500 
L 1894 763 
L 2988 3500 
L 3597 3500 
L 2059 -325 
z
" transform="scale(0.015625)"/>
      </defs>
      <use xlink:href="#DejaVuSans-52"/>
      <use xlink:href="#DejaVuSans-61" x="67.232422"/>
      <use xlink:href="#DejaVuSans-64" x="128.511719"/>
      <use xlink:href="#DejaVuSans-69" x="191.988281"/>
      <use xlink:href="#DejaVuSans-61" x="219.771484"/>
      <use xlink:href="#DejaVuSans-6c" x="281.050781"/>
      <use xlink:href="#DejaVuSans-20" x="308.833984"/>
      <use xlink:href="#DejaVuSans-44" x="340.621094"/>
      <use xlink:href="#DejaVuSans-69" x="417.623047"/>
      <use xlink:href="#DejaVuSans-66" x="445.40625"/>
      <use xlink:href="#DejaVuSans-66" x="480.611328"/>
      <use xlink:href="#DejaVuSans-75" x="515.816406"/>
      <use xlink:href="#DejaVuSans-73" x="579.195312"/>
      <use xlink:href="#DejaVuSans-69" x="631.294922"/>
      <use xlink:href="#DejaVuSans-76" x="659.078125"/>
      <use xlink:href="#DejaVuSans-69" x="718.257812"/>
      <use xlink:href="#DejaVuSans-74" x="746.041016"/>
      <use xlink:href="#DejaVuSans-79" x="785.25"/>
      <use xlink:href="#DejaVuSans-20" x="844.429688"/>
      <use xlink:href="#DejaVuSans-28" x="876.216797"/>
      <use xlink:href="#DejaVuSans-53" x="915.230469"/>
      <use xlink:href="#DejaVuSans-74" x="978.707031"/>
      <use xlink:href="#DejaVuSans-61" x="1017.916016"/>
      <use xlink:href="#DejaVuSans-6e" x="1079.195312"/>
      <use xlink:href="#DejaVuSans-64" x="1142.574219"/>
      <use xlink:href="#DejaVuSans-61" x="1206.050781"/>
      <use xlink:href="#DejaVuSans-72" x="1267.330078"/>
      <use xlink:href="#DejaVuSans-64" x="1306.693359"/>
      <use xlink:href="#DejaVuSans-69" x="1370.169922"/>
      <use xlink:href="#DejaVuSans-7a" x="1397.953125"/>
      <use xlink:href="#DejaVuSans-65" x="1450.443359"/>
      <use xlink:href="#DejaVuSans-64" x="1511.966797"/>
      <use xlink:href="#DejaVuSans-29" x="1575.443359"/>
     </g>
    </g>
   </g>
   <g id="line2d_26">
    <path d="M 415.750662 256.256401 
L 418.530404 254.768559 
L 421.310146 253.280718 
L 424.089889 251.792876 
L 426.869631 250.305035 
L 429.649373 248.817194 
L 432.429116 247.329352 
L 435.208858 245.841511 
L 437.9886 244.35367 
L 440.768342 242.865828 
L 443.548085 241.377987 
L 446.327827 239.890146 
L 449.107569 238.402304 
L 451.887311 236.914463 
L 454.667054 235.426622 
L 457.446796 233.93878 
L 460.226538 232.450939 
L 463.006281 230.963098 
L 465.786023 229.475256 
L 468.565765 227.987415 
L 471.345507 226.499573 
L 474.12525 225.011732 
L 476.904992 223.523891 
L 479.684734 222.036049 
L 482.464477 220.548208 
L 485.244219 219.060367 
L 488.023961 217.572525 
L 490.803703 216.084684 
L 493.583446 214.596843 
L 496.363188 213.109001 
L 499.14293 211.62116 
L 501.922673 210.133319 
L 504.702415 208.645477 
L 507.482157 207.157636 
L 510.261899 205.669795 
L 513.041642 204.181953 
L 515.821384 202.694112 
L 518.601126 201.20627 
L 521.380869 199.718429 
L 524.160611 198.230588 
L 526.940353 196.742746 
L 529.720095 195.254905 
L 532.499838 193.767064 
L 535.27958 192.279222 
L 538.059322 190.791381 
L 540.839065 189.30354 
L 543.618807 187.815698 
L 546.398549 186.327857 
L 549.178291 184.840016 
L 551.958034 183.352174 
L 554.737776 181.864333 
L 557.517518 180.376491 
L 560.297261 178.88865 
L 563.077003 177.400809 
L 565.856745 175.912967 
L 568.636487 174.425126 
L 571.41623 172.937285 
L 574.195972 171.449443 
L 576.975714 169.961602 
L 579.755457 168.473761 
L 582.535199 166.985919 
L 585.314941 165.498078 
L 588.094683 164.010237 
L 590.874426 162.522395 
L 593.654168 161.034554 
L 596.43391 159.546713 
L 599.213653 158.058871 
L 601.993395 156.57103 
L 604.773137 155.083188 
L 607.552879 153.595347 
L 610.332622 152.107506 
L 613.112364 150.619664 
L 615.892106 149.131823 
L 618.671849 147.643982 
L 621.451591 146.15614 
L 624.231333 144.668299 
L 627.011075 143.180458 
L 629.790818 141.692616 
L 632.57056 140.204775 
L 635.350302 138.716934 
L 638.130044 137.229092 
L 640.909787 135.741251 
L 643.689529 134.25341 
L 646.469271 132.765568 
L 649.249014 131.277727 
L 652.028756 129.789885 
L 654.808498 128.302044 
L 657.58824 126.814203 
L 660.367983 125.326361 
L 663.147725 123.83852 
L 665.927467 122.350679 
L 668.70721 120.862837 
L 671.486952 119.374996 
L 674.266694 117.887155 
L 677.046436 116.399313 
L 679.826179 114.911472 
L 682.605921 113.423631 
L 685.385663 111.935789 
L 688.165406 110.447948 
L 690.945148 108.960107 
" clip-path="url(#p62de801211)" style="fill: none; stroke: #000000; stroke-width: 2.25; stroke-linecap: square"/>
   </g>
   <g id="patch_6">
    <path d="M 401.990938 319.84 
L 401.990938 7.2 
" style="fill: none; stroke: #000000; stroke-width: 0.8; stroke-linejoin: miter; stroke-linecap: square"/>
   </g>
   <g id="patch_7">
    <path d="M 401.990938 319.84 
L 704.704872 319.84 
" style="fill: none; stroke: #000000; stroke-width: 0.8; stroke-linejoin: miter; stroke-linecap: square"/>
   </g>
   <g id="text_31">
    <!-- r= 0.62, p= 4.50e-03 -->
    <g transform="translate(499.873686 38.464) scale(0.1 -0.1)">
     <use xlink:href="#DejaVuSans-72"/>
     <use xlink:href="#DejaVuSans-3d" x="41.113281"/>
     <use xlink:href="#DejaVuSans-20" x="124.902344"/>
     <use xlink:href="#DejaVuSans-30" x="156.689453"/>
     <use xlink:href="#DejaVuSans-2e" x="220.3125"/>
     <use xlink:href="#DejaVuSans-36" x="252.099609"/>
     <use xlink:href="#DejaVuSans-32" x="315.722656"/>
     <use xlink:href="#DejaVuSans-2c" x="379.345703"/>
     <use xlink:href="#DejaVuSans-20" x="411.132812"/>
     <use xlink:href="#DejaVuSans-70" x="442.919922"/>
     <use xlink:href="#DejaVuSans-3d" x="506.396484"/>
     <use xlink:href="#DejaVuSans-20" x="590.185547"/>
     <use xlink:href="#DejaVuSans-34" x="621.972656"/>
     <use xlink:href="#DejaVuSans-2e" x="685.595703"/>
     <use xlink:href="#DejaVuSans-35" x="717.382812"/>
     <use xlink:href="#DejaVuSans-30" x="781.005859"/>
     <use xlink:href="#DejaVuSans-65" x="844.628906"/>
     <use xlink:href="#DejaVuSans-2d" x="906.152344"/>
     <use xlink:href="#DejaVuSans-30" x="942.236328"/>
     <use xlink:href="#DejaVuSans-33" x="1005.859375"/>
    </g>
   </g>
  </g>
  <g id="axes_3">
   <g id="patch_8">
    <path d="M 52.160938 674.44 
L 354.874872 674.44 
L 354.874872 361.8 
L 52.160938 361.8 
z
" style="fill: #ffffff"/>
   </g>
   <g id="PathCollection_3">
    <g clip-path="url(#p8a8987bd53)">
     <use xlink:href="#ma153be67f0" x="135.131396" y="429.718138" style="fill: #0000ff; stroke: #0000ff"/>
     <use xlink:href="#ma153be67f0" x="294.007466" y="660.229091" style="fill: #0000ff; stroke: #0000ff"/>
     <use xlink:href="#ma153be67f0" x="341.115148" y="433.53292" style="fill: #0000ff; stroke: #0000ff"/>
     <use xlink:href="#ma153be67f0" x="287.866658" y="376.010909" style="fill: #0000ff; stroke: #0000ff"/>
     <use xlink:href="#ma153be67f0" x="207.210651" y="566.508956" style="fill: #0000ff; stroke: #0000ff"/>
     <use xlink:href="#ma153be67f0" x="167.404953" y="578.088639" style="fill: #0000ff; stroke: #0000ff"/>
     <use xlink:href="#ma153be67f0" x="203.508928" y="614.938083" style="fill: #0000ff; stroke: #0000ff"/>
     <use xlink:href="#ma153be67f0" x="165.523385" y="543.324215" style="fill: #0000ff; stroke: #0000ff"/>
     <use xlink:href="#ma153be67f0" x="330.439925" y="515.022083" style="fill: #0000ff; stroke: #0000ff"/>
     <use xlink:href="#ma153be67f0" x="264.287283" y="651.681795" style="fill: #0000ff; stroke: #0000ff"/>
     <use xlink:href="#ma153be67f0" x="202.073109" y="399.500156" style="fill: #0000ff; stroke: #0000ff"/>
     <use xlink:href="#ma153be67f0" x="175.4605" y="569.685122" style="fill: #0000ff; stroke: #0000ff"/>
     <use xlink:href="#ma153be67f0" x="159.196169" y="599.75508" style="fill: #0000ff; stroke: #0000ff"/>
     <use xlink:href="#ma153be67f0" x="65.920662" y="465.049281" style="fill: #0000ff; stroke: #0000ff"/>
     <use xlink:href="#ma153be67f0" x="107.530856" y="415.338692" style="fill: #0000ff; stroke: #0000ff"/>
     <use xlink:href="#ma153be67f0" x="229.365047" y="440.405449" style="fill: #0000ff; stroke: #0000ff"/>
     <use xlink:href="#ma153be67f0" x="109.515105" y="647.917764" style="fill: #0000ff; stroke: #0000ff"/>
     <use xlink:href="#ma153be67f0" x="311.337628" y="624.551165" style="fill: #0000ff; stroke: #0000ff"/>
     <use xlink:href="#ma153be67f0" x="124.90542" y="508.767024" style="fill: #0000ff; stroke: #0000ff"/>
    </g>
   </g>
   <g id="matplotlib.axis_5">
    <g id="xtick_15">
     <g id="line2d_27">
      <g>
       <use xlink:href="#m6be67a8d56" x="78.901062" y="674.44" style="stroke: #000000; stroke-width: 0.8"/>
      </g>
     </g>
     <g id="text_32">
      <!-- 0.2 -->
      <g transform="translate(70.949499 689.038437) scale(0.1 -0.1)">
       <use xlink:href="#DejaVuSans-30"/>
       <use xlink:href="#DejaVuSans-2e" x="63.623047"/>
       <use xlink:href="#DejaVuSans-32" x="95.410156"/>
      </g>
     </g>
    </g>
    <g id="xtick_16">
     <g id="line2d_28">
      <g>
       <use xlink:href="#m6be67a8d56" x="132.308221" y="674.44" style="stroke: #000000; stroke-width: 0.8"/>
      </g>
     </g>
     <g id="text_33">
      <!-- 0.3 -->
      <g transform="translate(124.356659 689.038437) scale(0.1 -0.1)">
       <use xlink:href="#DejaVuSans-30"/>
       <use xlink:href="#DejaVuSans-2e" x="63.623047"/>
       <use xlink:href="#DejaVuSans-33" x="95.410156"/>
      </g>
     </g>
    </g>
    <g id="xtick_17">
     <g id="line2d_29">
      <g>
       <use xlink:href="#m6be67a8d56" x="185.715381" y="674.44" style="stroke: #000000; stroke-width: 0.8"/>
      </g>
     </g>
     <g id="text_34">
      <!-- 0.4 -->
      <g transform="translate(177.763819 689.038437) scale(0.1 -0.1)">
       <use xlink:href="#DejaVuSans-30"/>
       <use xlink:href="#DejaVuSans-2e" x="63.623047"/>
       <use xlink:href="#DejaVuSans-34" x="95.410156"/>
      </g>
     </g>
    </g>
    <g id="xtick_18">
     <g id="line2d_30">
      <g>
       <use xlink:href="#m6be67a8d56" x="239.122541" y="674.44" style="stroke: #000000; stroke-width: 0.8"/>
      </g>
     </g>
     <g id="text_35">
      <!-- 0.5 -->
      <g transform="translate(231.170978 689.038437) scale(0.1 -0.1)">
       <use xlink:href="#DejaVuSans-30"/>
       <use xlink:href="#DejaVuSans-2e" x="63.623047"/>
       <use xlink:href="#DejaVuSans-35" x="95.410156"/>
      </g>
     </g>
    </g>
    <g id="xtick_19">
     <g id="line2d_31">
      <g>
       <use xlink:href="#m6be67a8d56" x="292.5297" y="674.44" style="stroke: #000000; stroke-width: 0.8"/>
      </g>
     </g>
     <g id="text_36">
      <!-- 0.6 -->
      <g transform="translate(284.578138 689.038437) scale(0.1 -0.1)">
       <use xlink:href="#DejaVuSans-30"/>
       <use xlink:href="#DejaVuSans-2e" x="63.623047"/>
       <use xlink:href="#DejaVuSans-36" x="95.410156"/>
      </g>
     </g>
    </g>
    <g id="xtick_20">
     <g id="line2d_32">
      <g>
       <use xlink:href="#m6be67a8d56" x="345.93686" y="674.44" style="stroke: #000000; stroke-width: 0.8"/>
      </g>
     </g>
     <g id="text_37">
      <!-- 0.7 -->
      <g transform="translate(337.985298 689.038437) scale(0.1 -0.1)">
       <use xlink:href="#DejaVuSans-30"/>
       <use xlink:href="#DejaVuSans-2e" x="63.623047"/>
       <use xlink:href="#DejaVuSans-37" x="95.410156"/>
      </g>
     </g>
    </g>
    <g id="text_38">
     <!-- KEM / Isometric Torque -->
     <g transform="translate(146.423374 702.716562) scale(0.1 -0.1)">
      <defs>
       <path id="DejaVuSans-4b" d="M 628 4666 
L 1259 4666 
L 1259 2694 
L 3353 4666 
L 4166 4666 
L 1850 2491 
L 4331 0 
L 3500 0 
L 1259 2247 
L 1259 0 
L 628 0 
L 628 4666 
z
" transform="scale(0.015625)"/>
       <path id="DejaVuSans-45" d="M 628 4666 
L 3578 4666 
L 3578 4134 
L 1259 4134 
L 1259 2753 
L 3481 2753 
L 3481 2222 
L 1259 2222 
L 1259 531 
L 3634 531 
L 3634 0 
L 628 0 
L 628 4666 
z
" transform="scale(0.015625)"/>
       <path id="DejaVuSans-4d" d="M 628 4666 
L 1569 4666 
L 2759 1491 
L 3956 4666 
L 4897 4666 
L 4897 0 
L 4281 0 
L 4281 4097 
L 3078 897 
L 2444 897 
L 1241 4097 
L 1241 0 
L 628 0 
L 628 4666 
z
" transform="scale(0.015625)"/>
      </defs>
      <use xlink:href="#DejaVuSans-4b"/>
      <use xlink:href="#DejaVuSans-45" x="65.576172"/>
      <use xlink:href="#DejaVuSans-4d" x="128.759766"/>
      <use xlink:href="#DejaVuSans-20" x="215.039062"/>
      <use xlink:href="#DejaVuSans-2f" x="246.826172"/>
      <use xlink:href="#DejaVuSans-20" x="280.517578"/>
      <use xlink:href="#DejaVuSans-49" x="312.304688"/>
      <use xlink:href="#DejaVuSans-73" x="341.796875"/>
      <use xlink:href="#DejaVuSans-6f" x="393.896484"/>
      <use xlink:href="#DejaVuSans-6d" x="455.078125"/>
      <use xlink:href="#DejaVuSans-65" x="552.490234"/>
      <use xlink:href="#DejaVuSans-74" x="614.013672"/>
      <use xlink:href="#DejaVuSans-72" x="653.222656"/>
      <use xlink:href="#DejaVuSans-69" x="694.335938"/>
      <use xlink:href="#DejaVuSans-63" x="722.119141"/>
      <use xlink:href="#DejaVuSans-20" x="777.099609"/>
      <use xlink:href="#DejaVuSans-54" x="808.886719"/>
      <use xlink:href="#DejaVuSans-6f" x="852.970703"/>
      <use xlink:href="#DejaVuSans-72" x="914.152344"/>
      <use xlink:href="#DejaVuSans-71" x="953.515625"/>
      <use xlink:href="#DejaVuSans-75" x="1016.992188"/>
      <use xlink:href="#DejaVuSans-65" x="1080.371094"/>
     </g>
    </g>
   </g>
   <g id="matplotlib.axis_6">
    <g id="ytick_12">
     <g id="line2d_33">
      <g>
       <use xlink:href="#m213bb8ce2a" x="52.160938" y="665.301716" style="stroke: #000000; stroke-width: 0.8"/>
      </g>
     </g>
     <g id="text_39">
      <!-- −1.5 -->
      <g transform="translate(20.878125 669.100935) scale(0.1 -0.1)">
       <use xlink:href="#DejaVuSans-2212"/>
       <use xlink:href="#DejaVuSans-31" x="83.789062"/>
       <use xlink:href="#DejaVuSans-2e" x="147.412109"/>
       <use xlink:href="#DejaVuSans-35" x="179.199219"/>
      </g>
     </g>
    </g>
    <g id="ytick_13">
     <g id="line2d_34">
      <g>
       <use xlink:href="#m213bb8ce2a" x="52.160938" y="619.675259" style="stroke: #000000; stroke-width: 0.8"/>
      </g>
     </g>
     <g id="text_40">
      <!-- −1.0 -->
      <g transform="translate(20.878125 623.474478) scale(0.1 -0.1)">
       <use xlink:href="#DejaVuSans-2212"/>
       <use xlink:href="#DejaVuSans-31" x="83.789062"/>
       <use xlink:href="#DejaVuSans-2e" x="147.412109"/>
       <use xlink:href="#DejaVuSans-30" x="179.199219"/>
      </g>
     </g>
    </g>
    <g id="ytick_14">
     <g id="line2d_35">
      <g>
       <use xlink:href="#m213bb8ce2a" x="52.160938" y="574.048802" style="stroke: #000000; stroke-width: 0.8"/>
      </g>
     </g>
     <g id="text_41">
      <!-- −0.5 -->
      <g transform="translate(20.878125 577.848021) scale(0.1 -0.1)">
       <use xlink:href="#DejaVuSans-2212"/>
       <use xlink:href="#DejaVuSans-30" x="83.789062"/>
       <use xlink:href="#DejaVuSans-2e" x="147.412109"/>
       <use xlink:href="#DejaVuSans-35" x="179.199219"/>
      </g>
     </g>
    </g>
    <g id="ytick_15">
     <g id="line2d_36">
      <g>
       <use xlink:href="#m213bb8ce2a" x="52.160938" y="528.422345" style="stroke: #000000; stroke-width: 0.8"/>
      </g>
     </g>
     <g id="text_42">
      <!-- 0.0 -->
      <g transform="translate(29.257813 532.221564) scale(0.1 -0.1)">
       <use xlink:href="#DejaVuSans-30"/>
       <use xlink:href="#DejaVuSans-2e" x="63.623047"/>
       <use xlink:href="#DejaVuSans-30" x="95.410156"/>
      </g>
     </g>
    </g>
    <g id="ytick_16">
     <g id="line2d_37">
      <g>
       <use xlink:href="#m213bb8ce2a" x="52.160938" y="482.795889" style="stroke: #000000; stroke-width: 0.8"/>
      </g>
     </g>
     <g id="text_43">
      <!-- 0.5 -->
      <g transform="translate(29.257813 486.595107) scale(0.1 -0.1)">
       <use xlink:href="#DejaVuSans-30"/>
       <use xlink:href="#DejaVuSans-2e" x="63.623047"/>
       <use xlink:href="#DejaVuSans-35" x="95.410156"/>
      </g>
     </g>
    </g>
    <g id="ytick_17">
     <g id="line2d_38">
      <g>
       <use xlink:href="#m213bb8ce2a" x="52.160938" y="437.169432" style="stroke: #000000; stroke-width: 0.8"/>
      </g>
     </g>
     <g id="text_44">
      <!-- 1.0 -->
      <g transform="translate(29.257813 440.96865) scale(0.1 -0.1)">
       <use xlink:href="#DejaVuSans-31"/>
       <use xlink:href="#DejaVuSans-2e" x="63.623047"/>
       <use xlink:href="#DejaVuSans-30" x="95.410156"/>
      </g>
     </g>
    </g>
    <g id="ytick_18">
     <g id="line2d_39">
      <g>
       <use xlink:href="#m213bb8ce2a" x="52.160938" y="391.542975" style="stroke: #000000; stroke-width: 0.8"/>
      </g>
     </g>
     <g id="text_45">
      <!-- 1.5 -->
      <g transform="translate(29.257813 395.342194) scale(0.1 -0.1)">
       <use xlink:href="#DejaVuSans-31"/>
       <use xlink:href="#DejaVuSans-2e" x="63.623047"/>
       <use xlink:href="#DejaVuSans-35" x="95.410156"/>
      </g>
     </g>
    </g>
    <g id="text_46">
     <!-- Volume Total (Standardized) -->
     <g transform="translate(14.798438 588.484844) rotate(-90) scale(0.1 -0.1)">
      <use xlink:href="#DejaVuSans-56"/>
      <use xlink:href="#DejaVuSans-6f" x="60.658203"/>
      <use xlink:href="#DejaVuSans-6c" x="121.839844"/>
      <use xlink:href="#DejaVuSans-75" x="149.623047"/>
      <use xlink:href="#DejaVuSans-6d" x="213.001953"/>
      <use xlink:href="#DejaVuSans-65" x="310.414062"/>
      <use xlink:href="#DejaVuSans-20" x="371.9375"/>
      <use xlink:href="#DejaVuSans-54" x="403.724609"/>
      <use xlink:href="#DejaVuSans-6f" x="447.808594"/>
      <use xlink:href="#DejaVuSans-74" x="508.990234"/>
      <use xlink:href="#DejaVuSans-61" x="548.199219"/>
      <use xlink:href="#DejaVuSans-6c" x="609.478516"/>
      <use xlink:href="#DejaVuSans-20" x="637.261719"/>
      <use xlink:href="#DejaVuSans-28" x="669.048828"/>
      <use xlink:href="#DejaVuSans-53" x="708.0625"/>
      <use xlink:href="#DejaVuSans-74" x="771.539062"/>
      <use xlink:href="#DejaVuSans-61" x="810.748047"/>
      <use xlink:href="#DejaVuSans-6e" x="872.027344"/>
      <use xlink:href="#DejaVuSans-64" x="935.40625"/>
      <use xlink:href="#DejaVuSans-61" x="998.882812"/>
      <use xlink:href="#DejaVuSans-72" x="1060.162109"/>
      <use xlink:href="#DejaVuSans-64" x="1099.525391"/>
      <use xlink:href="#DejaVuSans-69" x="1163.001953"/>
      <use xlink:href="#DejaVuSans-7a" x="1190.785156"/>
      <use xlink:href="#DejaVuSans-65" x="1243.275391"/>
      <use xlink:href="#DejaVuSans-64" x="1304.798828"/>
      <use xlink:href="#DejaVuSans-29" x="1368.275391"/>
     </g>
    </g>
   </g>
   <g id="patch_9">
    <path d="M 52.160938 674.44 
L 52.160938 361.8 
" style="fill: none; stroke: #000000; stroke-width: 0.8; stroke-linejoin: miter; stroke-linecap: square"/>
   </g>
   <g id="patch_10">
    <path d="M 52.160938 674.44 
L 354.874872 674.44 
" style="fill: none; stroke: #000000; stroke-width: 0.8; stroke-linejoin: miter; stroke-linecap: square"/>
   </g>
   <g id="text_47">
    <!-- r= -0.07, p= 7.63e-01 -->
    <g transform="translate(148.23978 393.064) scale(0.1 -0.1)">
     <use xlink:href="#DejaVuSans-72"/>
     <use xlink:href="#DejaVuSans-3d" x="41.113281"/>
     <use xlink:href="#DejaVuSans-20" x="124.902344"/>
     <use xlink:href="#DejaVuSans-2d" x="156.689453"/>
     <use xlink:href="#DejaVuSans-30" x="192.773438"/>
     <use xlink:href="#DejaVuSans-2e" x="256.396484"/>
     <use xlink:href="#DejaVuSans-30" x="288.183594"/>
     <use xlink:href="#DejaVuSans-37" x="351.806641"/>
     <use xlink:href="#DejaVuSans-2c" x="415.429688"/>
     <use xlink:href="#DejaVuSans-20" x="447.216797"/>
     <use xlink:href="#DejaVuSans-70" x="479.003906"/>
     <use xlink:href="#DejaVuSans-3d" x="542.480469"/>
     <use xlink:href="#DejaVuSans-20" x="626.269531"/>
     <use xlink:href="#DejaVuSans-37" x="658.056641"/>
     <use xlink:href="#DejaVuSans-2e" x="721.679688"/>
     <use xlink:href="#DejaVuSans-36" x="753.466797"/>
     <use xlink:href="#DejaVuSans-33" x="817.089844"/>
     <use xlink:href="#DejaVuSans-65" x="880.712891"/>
     <use xlink:href="#DejaVuSans-2d" x="942.236328"/>
     <use xlink:href="#DejaVuSans-30" x="978.320312"/>
     <use xlink:href="#DejaVuSans-31" x="1041.943359"/>
    </g>
   </g>
  </g>
  <g id="axes_4">
   <g id="patch_11">
    <path d="M 401.990938 674.44 
L 704.704872 674.44 
L 704.704872 361.8 
L 401.990938 361.8 
z
" style="fill: #ffffff"/>
   </g>
   <g id="PathCollection_4">
    <g clip-path="url(#pab6facb61c)">
     <use xlink:href="#m570eba5469" x="484.961396" y="516.320771" style="fill: #0000ff; fill-opacity: 0.8; stroke: #0000ff; stroke-opacity: 0.8"/>
     <use xlink:href="#m570eba5469" x="643.837466" y="544.681747" style="fill: #0000ff; fill-opacity: 0.8; stroke: #0000ff; stroke-opacity: 0.8"/>
     <use xlink:href="#m570eba5469" x="690.945148" y="577.349627" style="fill: #0000ff; fill-opacity: 0.8; stroke: #0000ff; stroke-opacity: 0.8"/>
     <use xlink:href="#m570eba5469" x="637.696658" y="376.010909" style="fill: #0000ff; fill-opacity: 0.8; stroke: #0000ff; stroke-opacity: 0.8"/>
     <use xlink:href="#m570eba5469" x="557.040651" y="528.562126" style="fill: #0000ff; fill-opacity: 0.8; stroke: #0000ff; stroke-opacity: 0.8"/>
     <use xlink:href="#m570eba5469" x="517.234953" y="541.947299" style="fill: #0000ff; fill-opacity: 0.8; stroke: #0000ff; stroke-opacity: 0.8"/>
     <use xlink:href="#m570eba5469" x="553.338928" y="539.817139" style="fill: #0000ff; fill-opacity: 0.8; stroke: #0000ff; stroke-opacity: 0.8"/>
     <use xlink:href="#m570eba5469" x="515.353385" y="574.138432" style="fill: #0000ff; fill-opacity: 0.8; stroke: #0000ff; stroke-opacity: 0.8"/>
     <use xlink:href="#m570eba5469" x="680.269925" y="451.546365" style="fill: #0000ff; fill-opacity: 0.8; stroke: #0000ff; stroke-opacity: 0.8"/>
     <use xlink:href="#m570eba5469" x="614.117283" y="568.43231" style="fill: #0000ff; fill-opacity: 0.8; stroke: #0000ff; stroke-opacity: 0.8"/>
     <use xlink:href="#m570eba5469" x="551.903109" y="523.429287" style="fill: #0000ff; fill-opacity: 0.8; stroke: #0000ff; stroke-opacity: 0.8"/>
     <use xlink:href="#m570eba5469" x="525.2905" y="622.061779" style="fill: #0000ff; fill-opacity: 0.8; stroke: #0000ff; stroke-opacity: 0.8"/>
     <use xlink:href="#m570eba5469" x="509.026169" y="660.229091" style="fill: #0000ff; fill-opacity: 0.8; stroke: #0000ff; stroke-opacity: 0.8"/>
     <use xlink:href="#m570eba5469" x="415.750662" y="605.409905" style="fill: #0000ff; fill-opacity: 0.8; stroke: #0000ff; stroke-opacity: 0.8"/>
     <use xlink:href="#m570eba5469" x="457.360856" y="648.786174" style="fill: #0000ff; fill-opacity: 0.8; stroke: #0000ff; stroke-opacity: 0.8"/>
     <use xlink:href="#m570eba5469" x="579.195047" y="531.067556" style="fill: #0000ff; fill-opacity: 0.8; stroke: #0000ff; stroke-opacity: 0.8"/>
     <use xlink:href="#m570eba5469" x="459.345105" y="591.860355" style="fill: #0000ff; fill-opacity: 0.8; stroke: #0000ff; stroke-opacity: 0.8"/>
     <use xlink:href="#m570eba5469" x="661.167628" y="530.60391" style="fill: #0000ff; fill-opacity: 0.8; stroke: #0000ff; stroke-opacity: 0.8"/>
     <use xlink:href="#m570eba5469" x="474.73542" y="507.824106" style="fill: #0000ff; fill-opacity: 0.8; stroke: #0000ff; stroke-opacity: 0.8"/>
    </g>
   </g>
   <g id="PolyCollection_2">
    <path d="M 415.750662 555.47317 
L 415.750662 656.089545 
L 418.530404 653.816955 
L 421.310146 651.544365 
L 424.089889 649.271775 
L 426.869631 646.999185 
L 429.649373 644.726595 
L 432.429116 642.454005 
L 435.208858 640.431585 
L 437.9886 638.835856 
L 440.768342 637.290492 
L 443.548085 635.666304 
L 446.327827 634.08994 
L 449.107569 632.513577 
L 451.887311 630.914064 
L 454.667054 628.931 
L 457.446796 626.888952 
L 460.226538 624.867405 
L 463.006281 622.351503 
L 465.786023 619.814605 
L 468.565765 618.478288 
L 471.345507 617.035353 
L 474.12525 614.697797 
L 476.904992 613.434171 
L 479.684734 610.956972 
L 482.464477 609.022185 
L 485.244219 607.314225 
L 488.023961 605.753527 
L 490.803703 604.435548 
L 493.583446 602.334873 
L 496.363188 600.649987 
L 499.14293 598.794433 
L 501.922673 597.160346 
L 504.702415 595.143823 
L 507.482157 593.78281 
L 510.261899 592.550317 
L 513.041642 591.600115 
L 515.821384 589.58502 
L 518.601126 588.737748 
L 521.380869 587.435559 
L 524.160611 586.041504 
L 526.940353 584.297764 
L 529.720095 582.459721 
L 532.499838 580.747515 
L 535.27958 579.324124 
L 538.059322 578.391871 
L 540.839065 577.701806 
L 543.618807 576.324009 
L 546.398549 575.015694 
L 549.178291 574.045073 
L 551.958034 573.686045 
L 554.737776 572.83422 
L 557.517518 572.367843 
L 560.297261 571.364799 
L 563.077003 570.236775 
L 565.856745 568.922806 
L 568.636487 568.432127 
L 571.41623 567.851959 
L 574.195972 567.070128 
L 576.975714 566.589079 
L 579.755457 566.07677 
L 582.535199 565.676194 
L 585.314941 565.027747 
L 588.094683 564.283476 
L 590.874426 563.823648 
L 593.654168 562.83893 
L 596.43391 562.334129 
L 599.213653 562.0526 
L 601.993395 561.342657 
L 604.773137 560.665038 
L 607.552879 560.013857 
L 610.332622 559.828281 
L 613.112364 559.596124 
L 615.892106 558.977222 
L 618.671849 558.479586 
L 621.451591 558.093902 
L 624.231333 557.895856 
L 627.011075 557.318879 
L 629.790818 556.936851 
L 632.57056 556.899302 
L 635.350302 556.458933 
L 638.130044 556.058149 
L 640.909787 555.93347 
L 643.689529 555.785677 
L 646.469271 555.385838 
L 649.249014 555.441222 
L 652.028756 555.350893 
L 654.808498 555.104062 
L 657.58824 554.383407 
L 660.367983 554.344895 
L 663.147725 554.294624 
L 665.927467 554.110702 
L 668.70721 554.077326 
L 671.486952 554.087512 
L 674.266694 553.59139 
L 677.046436 553.085149 
L 679.826179 552.578907 
L 682.605921 552.072665 
L 685.385663 551.642131 
L 688.165406 551.316763 
L 690.945148 551.058354 
L 690.945148 422.727713 
L 690.945148 422.727713 
L 688.165406 424.732632 
L 685.385663 426.737552 
L 682.605921 428.742471 
L 679.826179 430.747391 
L 677.046436 432.906843 
L 674.266694 435.156235 
L 671.486952 437.19186 
L 668.70721 439.210781 
L 665.927467 441.229703 
L 663.147725 443.254657 
L 660.367983 445.609897 
L 657.58824 447.613099 
L 654.808498 449.616302 
L 652.028756 451.619505 
L 649.249014 453.860854 
L 646.469271 456.465338 
L 643.689529 458.701074 
L 640.909787 460.941607 
L 638.130044 462.73622 
L 635.350302 464.532642 
L 632.57056 466.333065 
L 629.790818 468.133865 
L 627.011075 470.156149 
L 624.231333 472.324362 
L 621.451591 474.503215 
L 618.671849 476.519323 
L 615.892106 479.084186 
L 613.112364 481.650652 
L 610.332622 484.217118 
L 607.552879 486.445399 
L 604.773137 488.480544 
L 601.993395 490.494417 
L 599.213653 492.213562 
L 596.43391 494.098852 
L 593.654168 495.614944 
L 590.874426 497.781203 
L 588.094683 499.816906 
L 585.314941 501.917743 
L 582.535199 503.994518 
L 579.755457 505.477158 
L 576.975714 507.833817 
L 574.195972 509.242722 
L 571.41623 510.669646 
L 568.636487 512.112331 
L 565.856745 513.938167 
L 563.077003 515.617932 
L 560.297261 517.020594 
L 557.517518 519.370943 
L 554.737776 520.910164 
L 551.958034 522.599198 
L 549.178291 524.183513 
L 546.398549 525.518487 
L 543.618807 527.142485 
L 540.839065 528.505362 
L 538.059322 530.13577 
L 535.27958 531.40024 
L 532.499838 532.835474 
L 529.720095 533.947422 
L 526.940353 535.311092 
L 524.160611 536.053781 
L 521.380869 536.69721 
L 518.601126 537.643017 
L 515.821384 538.781073 
L 513.041642 540.026493 
L 510.261899 540.859019 
L 507.482157 541.316095 
L 504.702415 542.350891 
L 501.922673 543.407102 
L 499.14293 544.664319 
L 496.363188 545.818024 
L 493.583446 546.107063 
L 490.803703 547.124935 
L 488.023961 547.967328 
L 485.244219 548.348946 
L 482.464477 548.602397 
L 479.684734 549.124792 
L 476.904992 549.638254 
L 474.12525 549.970255 
L 471.345507 550.226165 
L 468.565765 550.632122 
L 465.786023 550.955744 
L 463.006281 551.28162 
L 460.226538 551.318258 
L 457.446796 551.503607 
L 454.667054 552.103254 
L 451.887311 552.593204 
L 449.107569 552.87662 
L 446.327827 553.146021 
L 443.548085 553.429174 
L 440.768342 553.915096 
L 437.9886 554.255264 
L 435.208858 554.42555 
L 432.429116 554.556033 
L 429.649373 554.681386 
L 426.869631 554.904787 
L 424.089889 555.215264 
L 421.310146 555.525742 
L 418.530404 555.57305 
L 415.750662 555.47317 
z
" clip-path="url(#pab6facb61c)" style="fill-opacity: 0.15"/>
   </g>
   <g id="matplotlib.axis_7">
    <g id="xtick_21">
     <g id="line2d_40">
      <g>
       <use xlink:href="#m6be67a8d56" x="428.731062" y="674.44" style="stroke: #000000; stroke-width: 0.8"/>
      </g>
     </g>
     <g id="text_48">
      <!-- 0.2 -->
      <g transform="translate(420.779499 689.038437) scale(0.1 -0.1)">
       <use xlink:href="#DejaVuSans-30"/>
       <use xlink:href="#DejaVuSans-2e" x="63.623047"/>
       <use xlink:href="#DejaVuSans-32" x="95.410156"/>
      </g>
     </g>
    </g>
    <g id="xtick_22">
     <g id="line2d_41">
      <g>
       <use xlink:href="#m6be67a8d56" x="482.138221" y="674.44" style="stroke: #000000; stroke-width: 0.8"/>
      </g>
     </g>
     <g id="text_49">
      <!-- 0.3 -->
      <g transform="translate(474.186659 689.038437) scale(0.1 -0.1)">
       <use xlink:href="#DejaVuSans-30"/>
       <use xlink:href="#DejaVuSans-2e" x="63.623047"/>
       <use xlink:href="#DejaVuSans-33" x="95.410156"/>
      </g>
     </g>
    </g>
    <g id="xtick_23">
     <g id="line2d_42">
      <g>
       <use xlink:href="#m6be67a8d56" x="535.545381" y="674.44" style="stroke: #000000; stroke-width: 0.8"/>
      </g>
     </g>
     <g id="text_50">
      <!-- 0.4 -->
      <g transform="translate(527.593819 689.038437) scale(0.1 -0.1)">
       <use xlink:href="#DejaVuSans-30"/>
       <use xlink:href="#DejaVuSans-2e" x="63.623047"/>
       <use xlink:href="#DejaVuSans-34" x="95.410156"/>
      </g>
     </g>
    </g>
    <g id="xtick_24">
     <g id="line2d_43">
      <g>
       <use xlink:href="#m6be67a8d56" x="588.952541" y="674.44" style="stroke: #000000; stroke-width: 0.8"/>
      </g>
     </g>
     <g id="text_51">
      <!-- 0.5 -->
      <g transform="translate(581.000978 689.038437) scale(0.1 -0.1)">
       <use xlink:href="#DejaVuSans-30"/>
       <use xlink:href="#DejaVuSans-2e" x="63.623047"/>
       <use xlink:href="#DejaVuSans-35" x="95.410156"/>
      </g>
     </g>
    </g>
    <g id="xtick_25">
     <g id="line2d_44">
      <g>
       <use xlink:href="#m6be67a8d56" x="642.3597" y="674.44" style="stroke: #000000; stroke-width: 0.8"/>
      </g>
     </g>
     <g id="text_52">
      <!-- 0.6 -->
      <g transform="translate(634.408138 689.038437) scale(0.1 -0.1)">
       <use xlink:href="#DejaVuSans-30"/>
       <use xlink:href="#DejaVuSans-2e" x="63.623047"/>
       <use xlink:href="#DejaVuSans-36" x="95.410156"/>
      </g>
     </g>
    </g>
    <g id="xtick_26">
     <g id="line2d_45">
      <g>
       <use xlink:href="#m6be67a8d56" x="695.76686" y="674.44" style="stroke: #000000; stroke-width: 0.8"/>
      </g>
     </g>
     <g id="text_53">
      <!-- 0.7 -->
      <g transform="translate(687.815298 689.038437) scale(0.1 -0.1)">
       <use xlink:href="#DejaVuSans-30"/>
       <use xlink:href="#DejaVuSans-2e" x="63.623047"/>
       <use xlink:href="#DejaVuSans-37" x="95.410156"/>
      </g>
     </g>
    </g>
    <g id="text_54">
     <!-- KEM / Isometric Torque -->
     <g transform="translate(496.253374 702.716562) scale(0.1 -0.1)">
      <use xlink:href="#DejaVuSans-4b"/>
      <use xlink:href="#DejaVuSans-45" x="65.576172"/>
      <use xlink:href="#DejaVuSans-4d" x="128.759766"/>
      <use xlink:href="#DejaVuSans-20" x="215.039062"/>
      <use xlink:href="#DejaVuSans-2f" x="246.826172"/>
      <use xlink:href="#DejaVuSans-20" x="280.517578"/>
      <use xlink:href="#DejaVuSans-49" x="312.304688"/>
      <use xlink:href="#DejaVuSans-73" x="341.796875"/>
      <use xlink:href="#DejaVuSans-6f" x="393.896484"/>
      <use xlink:href="#DejaVuSans-6d" x="455.078125"/>
      <use xlink:href="#DejaVuSans-65" x="552.490234"/>
      <use xlink:href="#DejaVuSans-74" x="614.013672"/>
      <use xlink:href="#DejaVuSans-72" x="653.222656"/>
      <use xlink:href="#DejaVuSans-69" x="694.335938"/>
      <use xlink:href="#DejaVuSans-63" x="722.119141"/>
      <use xlink:href="#DejaVuSans-20" x="777.099609"/>
      <use xlink:href="#DejaVuSans-54" x="808.886719"/>
      <use xlink:href="#DejaVuSans-6f" x="852.970703"/>
      <use xlink:href="#DejaVuSans-72" x="914.152344"/>
      <use xlink:href="#DejaVuSans-71" x="953.515625"/>
      <use xlink:href="#DejaVuSans-75" x="1016.992188"/>
      <use xlink:href="#DejaVuSans-65" x="1080.371094"/>
     </g>
    </g>
   </g>
   <g id="matplotlib.axis_8">
    <g id="ytick_19">
     <g id="line2d_46">
      <g>
       <use xlink:href="#m213bb8ce2a" x="401.990938" y="613.78193" style="stroke: #000000; stroke-width: 0.8"/>
      </g>
     </g>
     <g id="text_55">
      <!-- −1 -->
      <g transform="translate(380.24875 617.581149) scale(0.1 -0.1)">
       <use xlink:href="#DejaVuSans-2212"/>
       <use xlink:href="#DejaVuSans-31" x="83.789062"/>
      </g>
     </g>
    </g>
    <g id="ytick_20">
     <g id="line2d_47">
      <g>
       <use xlink:href="#m213bb8ce2a" x="401.990938" y="549.477836" style="stroke: #000000; stroke-width: 0.8"/>
      </g>
     </g>
     <g id="text_56">
      <!-- 0 -->
      <g transform="translate(388.628438 553.277055) scale(0.1 -0.1)">
       <use xlink:href="#DejaVuSans-30"/>
      </g>
     </g>
    </g>
    <g id="ytick_21">
     <g id="line2d_48">
      <g>
       <use xlink:href="#m213bb8ce2a" x="401.990938" y="485.173742" style="stroke: #000000; stroke-width: 0.8"/>
      </g>
     </g>
     <g id="text_57">
      <!-- 1 -->
      <g transform="translate(388.628438 488.972961) scale(0.1 -0.1)">
       <use xlink:href="#DejaVuSans-31"/>
      </g>
     </g>
    </g>
    <g id="ytick_22">
     <g id="line2d_49">
      <g>
       <use xlink:href="#m213bb8ce2a" x="401.990938" y="420.869649" style="stroke: #000000; stroke-width: 0.8"/>
      </g>
     </g>
     <g id="text_58">
      <!-- 2 -->
      <g transform="translate(388.628438 424.668867) scale(0.1 -0.1)">
       <use xlink:href="#DejaVuSans-32"/>
      </g>
     </g>
    </g>
    <g id="text_59">
     <!-- Radial Diffusivity (Standardized) -->
     <g transform="translate(374.169062 598.843437) rotate(-90) scale(0.1 -0.1)">
      <use xlink:href="#DejaVuSans-52"/>
      <use xlink:href="#DejaVuSans-61" x="67.232422"/>
      <use xlink:href="#DejaVuSans-64" x="128.511719"/>
      <use xlink:href="#DejaVuSans-69" x="191.988281"/>
      <use xlink:href="#DejaVuSans-61" x="219.771484"/>
      <use xlink:href="#DejaVuSans-6c" x="281.050781"/>
      <use xlink:href="#DejaVuSans-20" x="308.833984"/>
      <use xlink:href="#DejaVuSans-44" x="340.621094"/>
      <use xlink:href="#DejaVuSans-69" x="417.623047"/>
      <use xlink:href="#DejaVuSans-66" x="445.40625"/>
      <use xlink:href="#DejaVuSans-66" x="480.611328"/>
      <use xlink:href="#DejaVuSans-75" x="515.816406"/>
      <use xlink:href="#DejaVuSans-73" x="579.195312"/>
      <use xlink:href="#DejaVuSans-69" x="631.294922"/>
      <use xlink:href="#DejaVuSans-76" x="659.078125"/>
      <use xlink:href="#DejaVuSans-69" x="718.257812"/>
      <use xlink:href="#DejaVuSans-74" x="746.041016"/>
      <use xlink:href="#DejaVuSans-79" x="785.25"/>
      <use xlink:href="#DejaVuSans-20" x="844.429688"/>
      <use xlink:href="#DejaVuSans-28" x="876.216797"/>
      <use xlink:href="#DejaVuSans-53" x="915.230469"/>
      <use xlink:href="#DejaVuSans-74" x="978.707031"/>
      <use xlink:href="#DejaVuSans-61" x="1017.916016"/>
      <use xlink:href="#DejaVuSans-6e" x="1079.195312"/>
      <use xlink:href="#DejaVuSans-64" x="1142.574219"/>
      <use xlink:href="#DejaVuSans-61" x="1206.050781"/>
      <use xlink:href="#DejaVuSans-72" x="1267.330078"/>
      <use xlink:href="#DejaVuSans-64" x="1306.693359"/>
      <use xlink:href="#DejaVuSans-69" x="1370.169922"/>
      <use xlink:href="#DejaVuSans-7a" x="1397.953125"/>
      <use xlink:href="#DejaVuSans-65" x="1450.443359"/>
      <use xlink:href="#DejaVuSans-64" x="1511.966797"/>
      <use xlink:href="#DejaVuSans-29" x="1575.443359"/>
     </g>
    </g>
   </g>
   <g id="line2d_50">
    <path d="M 415.750662 605.374893 
L 418.530404 604.252084 
L 421.310146 603.129276 
L 424.089889 602.006467 
L 426.869631 600.883659 
L 429.649373 599.760851 
L 432.429116 598.638042 
L 435.208858 597.515234 
L 437.9886 596.392425 
L 440.768342 595.269617 
L 443.548085 594.146809 
L 446.327827 593.024 
L 449.107569 591.901192 
L 451.887311 590.778383 
L 454.667054 589.655575 
L 457.446796 588.532767 
L 460.226538 587.409958 
L 463.006281 586.28715 
L 465.786023 585.164341 
L 468.565765 584.041533 
L 471.345507 582.918724 
L 474.12525 581.795916 
L 476.904992 580.673108 
L 479.684734 579.550299 
L 482.464477 578.427491 
L 485.244219 577.304682 
L 488.023961 576.181874 
L 490.803703 575.059066 
L 493.583446 573.936257 
L 496.363188 572.813449 
L 499.14293 571.69064 
L 501.922673 570.567832 
L 504.702415 569.445024 
L 507.482157 568.322215 
L 510.261899 567.199407 
L 513.041642 566.076598 
L 515.821384 564.95379 
L 518.601126 563.830981 
L 521.380869 562.708173 
L 524.160611 561.585365 
L 526.940353 560.462556 
L 529.720095 559.339748 
L 532.499838 558.216939 
L 535.27958 557.094131 
L 538.059322 555.971323 
L 540.839065 554.848514 
L 543.618807 553.725706 
L 546.398549 552.602897 
L 549.178291 551.480089 
L 551.958034 550.357281 
L 554.737776 549.234472 
L 557.517518 548.111664 
L 560.297261 546.988855 
L 563.077003 545.866047 
L 565.856745 544.743238 
L 568.636487 543.62043 
L 571.41623 542.497622 
L 574.195972 541.374813 
L 576.975714 540.252005 
L 579.755457 539.129196 
L 582.535199 538.006388 
L 585.314941 536.88358 
L 588.094683 535.760771 
L 590.874426 534.637963 
L 593.654168 533.515154 
L 596.43391 532.392346 
L 599.213653 531.269538 
L 601.993395 530.146729 
L 604.773137 529.023921 
L 607.552879 527.901112 
L 610.332622 526.778304 
L 613.112364 525.655496 
L 615.892106 524.532687 
L 618.671849 523.409879 
L 621.451591 522.28707 
L 624.231333 521.164262 
L 627.011075 520.041453 
L 629.790818 518.918645 
L 632.57056 517.795837 
L 635.350302 516.673028 
L 638.130044 515.55022 
L 640.909787 514.427411 
L 643.689529 513.304603 
L 646.469271 512.181795 
L 649.249014 511.058986 
L 652.028756 509.936178 
L 654.808498 508.813369 
L 657.58824 507.690561 
L 660.367983 506.567753 
L 663.147725 505.444944 
L 665.927467 504.322136 
L 668.70721 503.199327 
L 671.486952 502.076519 
L 674.266694 500.95371 
L 677.046436 499.830902 
L 679.826179 498.708094 
L 682.605921 497.585285 
L 685.385663 496.462477 
L 688.165406 495.339668 
L 690.945148 494.21686 
" clip-path="url(#pab6facb61c)" style="fill: none; stroke: #000000; stroke-width: 2.25; stroke-linecap: square"/>
   </g>
   <g id="patch_12">
    <path d="M 401.990938 674.44 
L 401.990938 361.8 
" style="fill: none; stroke: #000000; stroke-width: 0.8; stroke-linejoin: miter; stroke-linecap: square"/>
   </g>
   <g id="patch_13">
    <path d="M 401.990938 674.44 
L 704.704872 674.44 
" style="fill: none; stroke: #000000; stroke-width: 0.8; stroke-linejoin: miter; stroke-linecap: square"/>
   </g>
   <g id="text_60">
    <!-- r= 0.50, p= 2.98e-02 -->
    <g transform="translate(499.873686 393.064) scale(0.1 -0.1)">
     <use xlink:href="#DejaVuSans-72"/>
     <use xlink:href="#DejaVuSans-3d" x="41.113281"/>
     <use xlink:href="#DejaVuSans-20" x="124.902344"/>
     <use xlink:href="#DejaVuSans-30" x="156.689453"/>
     <use xlink:href="#DejaVuSans-2e" x="220.3125"/>
     <use xlink:href="#DejaVuSans-35" x="252.099609"/>
     <use xlink:href="#DejaVuSans-30" x="315.722656"/>
     <use xlink:href="#DejaVuSans-2c" x="379.345703"/>
     <use xlink:href="#DejaVuSans-20" x="411.132812"/>
     <use xlink:href="#DejaVuSans-70" x="442.919922"/>
     <use xlink:href="#DejaVuSans-3d" x="506.396484"/>
     <use xlink:href="#DejaVuSans-20" x="590.185547"/>
     <use xlink:href="#DejaVuSans-32" x="621.972656"/>
     <use xlink:href="#DejaVuSans-2e" x="685.595703"/>
     <use xlink:href="#DejaVuSans-39" x="717.382812"/>
     <use xlink:href="#DejaVuSans-38" x="781.005859"/>
     <use xlink:href="#DejaVuSans-65" x="844.628906"/>
     <use xlink:href="#DejaVuSans-2d" x="906.152344"/>
     <use xlink:href="#DejaVuSans-30" x="942.236328"/>
     <use xlink:href="#DejaVuSans-32" x="1005.859375"/>
    </g>
   </g>
  </g>
 </g>
 <defs>
  <clipPath id="p8b9431c3ef">
   <rect x="52.160938" y="7.2" width="302.713935" height="312.64"/>
  </clipPath>
  <clipPath id="p62de801211">
   <rect x="401.990938" y="7.2" width="302.713935" height="312.64"/>
  </clipPath>
  <clipPath id="p8a8987bd53">
   <rect x="52.160938" y="361.8" width="302.713935" height="312.64"/>
  </clipPath>
  <clipPath id="pab6facb61c">
   <rect x="401.990938" y="361.8" width="302.713935" height="312.64"/>
  </clipPath>
 </defs>
</svg>
